<svg fill="none" height="265" viewBox="0 0 415 265" width="415" xmlns="http://www.w3.org/2000/svg" xmlns:xlink="http://www.w3.org/1999/xlink"><radialGradient id="a" cx="0" cy="0" gradientTransform="matrix(221.757 0 0 221.553 302.96 173.752)" gradientUnits="userSpaceOnUse" r="1"><stop offset="0" stop-color="#bdccd4"/><stop offset="1" stop-color="#fff"/></radialGradient><radialGradient id="b" cx="0" cy="0" gradientTransform="matrix(272.949 0 0 237.129 313.837 43.4425)" gradientUnits="userSpaceOnUse" r="1"><stop offset=".01" stop-color="#fff"/><stop offset=".85" stop-color="#eaeaea"/><stop offset=".99" stop-color="#e6e6e6"/></radialGradient><linearGradient id="c" gradientUnits="userSpaceOnUse" x1="-31.0575" x2="322.274" y1="212.369" y2="274.094"><stop offset="0" stop-color="#f8db8b"/><stop offset="1" stop-color="#68b790"/></linearGradient><linearGradient id="d"><stop offset="0" stop-color="#ffc444"/><stop offset="1" stop-color="#f36f56"/></linearGradient><linearGradient id="e" gradientUnits="userSpaceOnUse" x1="146.557" x2="132.759" xlink:href="#d" y1="153.082" y2="170.852"/><linearGradient id="f" gradientUnits="userSpaceOnUse" x1="115.075" x2="87.4577" xlink:href="#d" y1="99.0121" y2="189.621"/><linearGradient id="g" gradientUnits="userSpaceOnUse" x1="194.936" x2="178.675" xlink:href="#d" y1="125.928" y2="178.826"/><linearGradient id="h"><stop offset="0" stop-color="#067431"/><stop offset="1" stop-color="#2e9f5a"/></linearGradient><linearGradient id="i" gradientUnits="userSpaceOnUse" x1="289.054" x2="372.257" xlink:href="#h" y1="138.799" y2="256.404"/><linearGradient id="j" gradientUnits="userSpaceOnUse" x1="289.292" x2="279.539" xlink:href="#d" y1="88.2874" y2="95.0094"/><linearGradient id="k" gradientUnits="userSpaceOnUse" x1="314.829" x2="314.624" xlink:href="#d" y1="84.1236" y2="88.7481"/><linearGradient id="l" gradientUnits="userSpaceOnUse" x1="233.44" x2="232.699" xlink:href="#d" y1="108.189" y2="116.891"/><linearGradient id="m" gradientUnits="userSpaceOnUse" x1="330.269" x2="324.878" xlink:href="#d" y1="87.4535" y2="94.1137"/><linearGradient id="n" gradientUnits="userSpaceOnUse" x1="362.537" x2="377.071" xlink:href="#h" y1="148.27" y2="180.628"/><linearGradient id="o" gradientUnits="userSpaceOnUse" x1="366.979" x2="374.658" xlink:href="#h" y1="184.292" y2="204.841"/><linearGradient id="p" gradientUnits="userSpaceOnUse" x1="358.398" x2="373.31" xlink:href="#h" y1="190.113" y2="219.524"/><linearGradient id="q" gradientUnits="userSpaceOnUse" x1="333.384" x2="336.661" xlink:href="#h" y1="139.325" y2="158.757"/><linearGradient id="r" gradientUnits="userSpaceOnUse" x1="310.7" x2="334.184" xlink:href="#h" y1="203.444" y2="255.942"/><linearGradient id="s" gradientUnits="userSpaceOnUse" x1="307.449" x2="310.08" xlink:href="#h" y1="215.536" y2="229.851"/><linearGradient id="t" gradientUnits="userSpaceOnUse" x1="353.293" x2="364.869" xlink:href="#h" y1="243.865" y2="266.808"/><linearGradient id="u" gradientUnits="userSpaceOnUse" x1="295.821" x2="302.516" xlink:href="#h" y1="142.97" y2="161.217"/><linearGradient id="v" gradientUnits="userSpaceOnUse" x1="344.776" x2="353.212" xlink:href="#h" y1="127.858" y2="141.505"/><linearGradient id="w"><stop offset="0" stop-color="#007e33"/><stop offset="1" stop-color="#55b079"/></linearGradient><linearGradient id="x" gradientUnits="userSpaceOnUse" x1="325.766" x2="346.7" xlink:href="#w" y1="179.479" y2="179.479"/><linearGradient id="y" gradientUnits="userSpaceOnUse" x1="348.806" x2="364.177" xlink:href="#w" y1="179.089" y2="179.089"/><linearGradient id="z" gradientUnits="userSpaceOnUse" x1="329.425" x2="353.235" xlink:href="#w" y1="215.561" y2="215.561"/><linearGradient id="A" gradientUnits="userSpaceOnUse" x1="267.831" x2="366.06" xlink:href="#w" y1="207.077" y2="207.077"/><linearGradient id="B" gradientUnits="userSpaceOnUse" x1="350.004" x2="350.672" xlink:href="#w" y1="251.608" y2="251.608"/><linearGradient id="C" gradientUnits="userSpaceOnUse" x1="309.201" x2="268.954" xlink:href="#d" y1="171.648" y2="220.546"/><linearGradient id="D" gradientUnits="userSpaceOnUse" x1="323.681" x2="355.124" xlink:href="#w" y1="268.424" y2="268.424"/><linearGradient id="E" gradientUnits="userSpaceOnUse" x1="264.373" x2="275.702" xlink:href="#h" y1="164.703" y2="174.2"/><linearGradient id="F" gradientUnits="userSpaceOnUse" x1="276.045" x2="277.762" xlink:href="#h" y1="161.863" y2="168.181"/><linearGradient id="G" gradientUnits="userSpaceOnUse" x1="302.028" x2="318.943" xlink:href="#w" y1="213.051" y2="213.051"/><linearGradient id="H" gradientUnits="userSpaceOnUse" x1="292.862" x2="288.663" xlink:href="#d" y1="260.619" y2="275.21"/><linearGradient id="I" gradientUnits="userSpaceOnUse" x1="314.058" x2="315.183" xlink:href="#h" y1="154.333" y2="160.98"/><linearGradient id="J" gradientUnits="userSpaceOnUse" x1="305.412" x2="309.511" xlink:href="#h" y1="151.655" y2="154.01"/><linearGradient id="K" gradientUnits="userSpaceOnUse" x1="302.858" x2="314.154" xlink:href="#h" y1="196.687" y2="206.318"/><linearGradient id="L" gradientUnits="userSpaceOnUse" x1="333.967" x2="343.934" xlink:href="#h" y1="242.779" y2="262.019"/><linearGradient id="M" gradientUnits="userSpaceOnUse" x1="270.353" x2="276.795" xlink:href="#h" y1="261.098" y2="269.366"/><linearGradient id="N" gradientUnits="userSpaceOnUse" x1="292.688" x2="300.626" xlink:href="#h" y1="172.449" y2="179.177"/><linearGradient id="O" gradientUnits="userSpaceOnUse" x1="24957.1" x2="18224.4" xlink:href="#d" y1="78557.9" y2="38684"/><linearGradient id="P" gradientUnits="userSpaceOnUse" x1="13244.5" x2="5610.33" xlink:href="#d" y1="61714.8" y2="31459.3"/><linearGradient id="Q" gradientUnits="userSpaceOnUse" x1="188.588" x2="428.342" y1="127.535" y2="127.535"><stop offset=".01" stop-color="#e6e6e6"/><stop offset="1" stop-color="#fff" stop-opacity="0"/></linearGradient><radialGradient id="R" cx="0" cy="0" gradientTransform="matrix(162.498 0 0 162.349 189.288 193.068)" gradientUnits="userSpaceOnUse" r="1"><stop offset=".13" stop-color="#fff"/><stop offset="1" stop-color="#fff" stop-opacity="0"/></radialGradient><clipPath id="S"><path d="m0 0h415v265h-415z"/></clipPath><g clip-path="url(#S)"><path d="m406.174 36.7473h-360.5715v237.4737h360.5715z" fill="url(#a)"/><path d="m406.054 36.8585v237.2515h-360.3489v-237.2515zm.222-.2225h-360.7936v237.696h360.7936z" fill="#000"/><path d="m131.187 4.22765c2.042.44502 126.627 86.11065 126.627 86.11065v136.3977l-223.1285 119.264v-346z" fill="url(#b)"/><path d="m225.017 57.5339h-1.744v198.5151h1.744z" fill="#fff"/><path d="m239.309 60.6667h-1.917v198.5153h1.917z" fill="#fff"/><path d="m198.176 35.0696h-3.138v235.6074h3.138z" fill="#fff"/><path d="m144.841 28.6257h-3.312v279.8373h3.312z" fill="#fff"/><path d="m94.3762 33.3271c-10.9308 0-19.7903 16.5992-19.7903 37.0743 0 20.4752 8.8595 37.0696 19.7903 37.0696s19.7878-16.5988 19.7878-37.074-8.859-37.0699-19.7878-37.0699zm.1224 70.3949c-9.5298 0-17.2557-14.908-17.2557-33.3206 0-18.4125 7.7259-33.3205 17.2557-33.3205 9.5304 0 17.2554 14.9191 17.2554 33.3205 0 18.4015-7.725 33.3206-17.2554 33.3206z" fill="#fff" opacity=".62"/><path d="m118.437 68.7549 15.772 6.5306v2.8815l-15.772-5.7452s.521-4.1787 0-3.6669z" fill="#fff" opacity=".62"/><path d="m117.913 74.2509 8.802 3.1329v2.8748l-8.541-2.5254s.262-4.0052-.261-3.4823z" fill="#fff" opacity=".62"/><path d="m0 289.483c0-22.326 2.80618-41.923 8.60338-63.35 4.20262-15.597 9.89842-30.754 17.00852-45.261 6.5723-13.406 19.376-40.024 38.0081-36.896 26.9126 4.519 23.3848 50.85 25.9126 70.344 1.7372 13.404 5.9954 41.068 21.3334 46.844 14.343 5.403 24-19.022 29.792-27.591 6.129-9.06 15.677-18.937 22.076-5.226 2.425 5.197 4.251 14.641 12.149 13.573 5.485-.737 8.376-7.815 10.32-12.116 4.829-10.68 7.661-22.028 11.624-33.022 3.051-8.469 13.932-36.541 26.879-33.822 8.583 1.805 11.242 14.205 12.783 21.085 4.009 17.845 2.477 36.685 7.586 54.266 1.762 6.067 3.966 13.312 9.398 16.794 11.526 7.386 22.004-6.214 25.265-16.149-3.209 7.107 2.405 22.13 3.672 29.898.457 2.791 3.303 16.831 2.566 18.001" fill="url(#c)" opacity=".58"/><path d="m143.34 146.41c-3.198 0-5.79 5.18-5.79 11.571 0 6.39 2.592 11.57 5.79 11.57s5.791-5.18 5.791-11.57c0-6.391-2.593-11.571-5.791-11.571zm0 20.694c-2.583 0-4.677-4.086-4.677-9.123 0-5.038 2.094-9.123 4.677-9.123 2.584 0 4.677 4.085 4.677 9.123 0 5.037-2.091 9.123-4.677 9.123z" fill="url(#e)"/><path d="m137.868 153.134-101.7882-77.3166-.7839 8.0592 102.5721 72.3904z" fill="url(#f)"/><path d="m148.686 155.756 59.464-43.389-.668 2.447-58.718 44.589z" fill="url(#g)"/><path d="m267.972 275.639c-.105-.348.094-.354.192-.575.14-.32.265-.625.383-.963.222-.667.577-1.262.695-1.971.133-.804.04-1.694.044-2.506.016-3.115-.949-6.19-1.069-9.298-.069-1.78.768-2.893 1.559-4.391 1.447-2.685 2.348-5.629 2.65-8.664.306-3.705.528-7.485.557-11.203.014-1.613-.294-3.155-.314-4.749 0-.961.294-1.886.25-2.843-.132-2.857.545-5.581.592-8.427.06-3.807-.122-7.596.076-11.403.303-5.799 2.472-11.484 1.165-17.287-.755-.367-2.326.637-3.363.376-1.038-.235-2.033-.632-2.947-1.177-.338-.209-.256-.289-.706-.34-.18 0-.361.018-.543.02-.067-.006-.13-.029-.184-.069-.054-.039-.096-.092-.121-.154-.539-.135-1.199-.385-1.762-.331-1.096.107-2.107.89-3.14 1.07-.408.071-1.428.12-1.782-.065-.354-.184-.641-.805-.833-1.15-.363-.654-.737-1.173-.806-1.976-.058-.723-.167-1.441-.325-2.149-.154-.806-.215-1.628-.181-2.448 0-2.797-.271-5.714.512-8.431.243-.847.506-1.713.778-2.552.363-1.126 1.08-2.123 1.666-3.146.383-.668.723-1.457 1.24-2.036.196-.223.457-.312.512-.623.368.093.39-.699.668-.761.279-.062.591 0 .891-.045.987-.155 1.862-.304 2.896-.244.541.05 1.072.181 1.574.389.276.114.158.223.506.223.385-.014.445-.238.706-.403.655-.407 1.407-.703 2.078-1.088.67-.385 1.59-.572 2.351-.668.812-.126 1.63-.21 2.45-.253.882-.039 1.757-.173 2.611-.399.445-.124.795-.044 1.244-.111.397-.058.693-.303 1.047-.478.982-.488 1.646-1.113 2.419-1.892 1.688-1.693 3.247-3.7 5.216-5.019 2.14-1.438 4.129-3.018 6.561-3.932.595-.223 1.089-.076 1.697-.183.287-.049.403-.2.681-.278.461-.127 1.036-.135 1.524-.253.871-.223 1.782-.392 2.63-.643.849-.252 1.546-.966 2.376-1.229 1.099-.324 2.112-.885 2.969-1.644.57-.53 1.198-.921 1.782-1.449.583-.527 1.038-1.07 1.652-1.557.579-.456.842-1.113 1.419-1.591.615-.51 1.172-1.021 1.762-1.558 2.425-2.225 5.262-4.063 8.002-5.876 1.133-.752 2.294-1.457 3.476-2.129 1.526-.866 3.288-1.97 5.056-2.499 2.093-.628 4.131-1.204 6.269-1.524.519-.08.998-.354 1.517-.445.519-.092.995-.047 1.501-.172.401-.1.771-.311 1.171-.382.488-.087.927-.027 1.415-.152.652-.167 1.3-.133 1.982-.129.755 0 1.358-.269 2.093-.26.695 0 1.392-.011 2.089 0 .653 0 1.036-.263 1.702-.26.278 0 .808-.107 1.024.033.301.194.319.763.406 1.079.331 1.197.89 2.374 1.385 3.538.205.413.359.849.459 1.299.062.365.222.748.271 1.113.063.501-.222.699-.536 1.044-.314.344-.597 1.014-1.023 1.208.286-.603 3.742.696 4.179.939.403.222.583.445 1.046.598.464.154.891.267 1.337.39 1.273.342 2.576.667 3.841 1.048 2.323.705 4.9.518 7.183 1.401 1.113.428 2.022.737 3.058 1.336 1.601.93 3.278 1.666 4.861 2.641 1.007.594 1.914 1.341 2.691 2.214.933 1.05 2.022 1.927 2.871 3.035 1.951 2.55 4.169 5.324 4.899 8.568.252 1.113.203 2.248.181 3.385-.034 1.742.191 3.438.291 5.173.063 1.093-.033 2.181 0 3.271.043 1.308.597 2.554.299 3.896-.28 1.364-.28 2.77 0 4.134.223 1.191-.069 2.702.069 4.03.093.91.53 1.922.791 2.804.12.409.429.727.55 1.112.12.385 0 .792.098 1.19.06.256.274.414.336.715.107.507-.18.79-.287 1.232-.388 1.574-.738 3.116-1.285 4.673-.19.547-.495 1.061-.711 1.598-.374.934-.463 1.929-.835 2.857-.503 1.257-1.499 2.225-2.198 3.366-1.386 2.25-3.051 4.281-4.419 6.544-1.597 2.644-3.151 5.327-4.846 7.908-.519.788-1.149 1.524-1.572 2.372-1.172 2.348-1.461 5.22-1.945 7.748-.323 1.693-.534 3.137-.131 4.735.223.905.53 2.151.668 3.13.194 1.275-.39 3.274-.929 4.48-.668 1.473-1.307 2.024-2.378 3.059-1.642 1.582-1.813 3.467-1.818 5.594 0 3.522 1.114 6.806 1.524 10.315.432 3.645.062 7.566-1.397 10.885-.924 2.112-2.49 4.94-1.605 7.354l.432.089" fill="url(#i)"/><path d="m339.779 119.85c.265 1.266.361 2.785 1.009 3.931.209.37.494.637.635 1.051.196.576.205 1.226.312 1.822.08.445.287.763.445 1.168.185.467.374 1.004.252 1.484-.165.645-.982 1.248-1.321 1.814-.595.938-1.302 1.8-2.105 2.567-.423.43-.726.89-1.198 1.291-.472.4-1.042.759-1.534 1.173-1.296 1.092-2.328 2.425-3.724 3.406-1.303.919-2.379 2.105-3.597 3.135s-2.407 1.763-3.744 2.606c-.472.3-.775.759-1.26 1.046-.446.262-.891.471-1.336.776-.856.603-1.742 1.113-2.608 1.698-1.116.733-2.269 1.409-3.455 2.022-.554.298-1.126.56-1.712.786-.337.127-.876.327-1.114.625.033-.307-.047-.652 0-.952.047-.301.223-.49.287-.766.192-.841-.013-2.002-.013-2.872 0-3.071.12-6.526-1.114-9.377-.63-1.455-1.514-2.797-2.227-4.227-.434-.87-.806-1.769-1.113-2.69-.158-.47-.283-.946-.446-1.427-.189-.543-.202-.985-.325-1.519-.122-.534-.423-1.32-.92-1.68-.534-.388-1.576-.479-2.227-.265-1.154.403-2.327.746-3.516 1.028-.372.08-.749 0-1.114.082-.067.014-.189.189-.307.223-.17.04-.363-.058-.537-.029-.811.135-1.559.514-2.416.543-1.069.037-2.277.12-3.341 0-.506-.056-1.167-.163-1.659-.27-.392-.084-.584-.327-.949-.471-.488-.196-.584-.154-.924-.588-.16-.19-.301-.394-.421-.612-.283-.505-.693-1.034-.891-1.599-.249-.624-.379-1.289-.383-1.961 0-.313.087-.756.013-1.057-.073-.3-.24-.42-.28-.758-.101-.821-.261-1.513-.257-2.363.034-.307.034-.617 0-.924-.071-.294-.236-.463-.282-.763-.034-.223.075-.465.024-.668-.051-.202-.183-.184-.223-.307-.113-.396.049-.812-.044-1.203-.083-.336-.243-.459-.283-.821-.04-.363.042-.69-.051-1.053-.361-1.382-.354-2.939-1.314-4.127-.339-.419-.978-.755-1.403-1.066-.484-.356-1.145-.612-1.671-.944-.723-.46-2.652-1.428-2.561-2.418.094-.316.227-.62.394-.904.205-.4.557-.489.815-.792.134-.153.223-.458.375-.647.211-.285.429-.592.668-.868.541-.657 1.013-1.3641 1.49-2.0761.534-.7988 1.22-1.413 1.706-2.254.525-.9101 1.131-1.7267 1.51-2.728.231-.5743.339-1.1904.318-1.809 0-1.5153.446-2.8681.515-4.33.067-.9191.226-1.8293.474-2.7168.116-.4562 0-.9145.109-1.3796.132-.5763.363-1.1637.523-1.7355.629-2.2251 1.698-4.2277 2.78-6.2547.392-.7321 1.042-2.61 2.136-2.6523.822-1.1326 1.728-1.8068 2.864-2.6056 1.797-1.3087 3.787-2.3318 5.897-3.0328 2.475-.7877 4.802-1.9825 7.332-2.5989 1.114-.2737 2.227-.6675 3.358-.9234 1.513-.3315 3.032-.2381 4.571-.2403 2.167 0 3.97.2225 5.984 1.0436.668.2648 1.358.4761 1.975.8344.733.425 1.274 1.0725 2.005 1.5086 1.254.7521 2.102 1.8691 3.129 2.8681 1.204 1.2138 2.254 2.57 3.129 4.0385.839 1.3729 1.559 2.8237 2.381 4.2099.938 1.6071 1.621 3.3501 2.024 5.1666.764 3.3577 1.744 6.6753 1.889 10.1286.06 1.4485.256 2.8459.26 4.3011.008 1.5395-.098 3.0776-.318 4.6016-.114.772-.152 1.597-.357 2.343-.222.828-.481 1.602-.632 2.459-.392 2.225-.615 4.45-.987 6.675-.325 1.929.228 3.983.626 5.87z" fill="#f4caab"/><path d="m304.783 60.0996c-1.495.1269-3.007.1291-4.454.5229-1.161.316-2.299.8277-3.152 1.6978-.223.2225-.376.5117-.594.7454-.255.274-.488.5671-.698.8766-.452.7151-.834 1.4722-1.14 2.2607-.92 2.2472-1.507 4.6167-1.741 7.0335-.028.5088-.085 1.0155-.172 1.5175-.075.2392-.165.4733-.269.7009-.049.1919-.124.3761-.223.5474.106-.1182.227-.2228.358-.3115.259-.2225.499-.4451.751-.6676.795-.7142 1.523-1.4908 2.356-2.1694.267-.2225.575-.3672.849-.5719.332-.2514.619-.5496.964-.7832.72-.4569 1.478-.8508 2.265-1.1771 1.089-.4917 2.356-1.0257 3.564-.8143.287.0489.369.0178.445.2848.02.0578.065.0623.065.1446-.021.0996-.056.1956-.105.2848-.27.6364-.532 1.2883-.764 1.9403-.203.475-.382.9599-.537 1.453-.176.6417-.289 1.299-.338 1.9625-.036.5479.018 1.0979.158 1.6287.325 1.1882 1.231 2.1584 2.258 2.8036.368.2226.786.3716 1.136.6342.312.2694.603.5617.871.8744.2.2025.434.365.641.5608.203.2242.359.4857.461.7698.131.2104.24.4342.323.6676.145.5696.223 1.1414.345 1.7155.178.89.101 1.7801.415 2.639.16.445.222.8766.445 1.2927.461.8389 1.194 1.4931 1.889 2.1317.674.6656 1.291 1.3869 1.844 2.1561.186.2299.352.4756.496.7342-.153-.2692.374-.6185.535-.8054.363-.4161.641-.8901 1.022-1.2906.624-.6675 1.082-1.4396 1.637-2.1561.815-1.0858 1.559-2.2229 2.227-3.4044.183-.3137.37-.6475.573-.9479.294-.3912.636-.7434 1.02-1.048.329-.2981.714-.3515 1.06-.6052.187-.1379.247-.2559.465-.316.129-.0356.274-.0311.408-.0578.331-.069.614-.2715.951-.3048.269-.0245.539-.0245.808 0 .891.0979 2.004.5674 2.559 1.3105.199.2743.373.5662.519.8723.176.2863.318.5916.425.91.043.1914.074.3783.116.5719s-.018.465.02.6942c.027.1491.098.2826.114.445.015.1624-.029.3694-.014.5518.032.3227.165.6386.223.9568.12.7832.025 1.6377.025 2.4298.027.5004.01 1.0023-.052 1.4997-.103.4762-.262.9385-.474 1.3773-.57 1.2928-.831 2.8504 0 4.092.107.1624.223.3181.345.4694.275.304.573.5869.891.8459.307.289.515.698.873.93.421.276.668.403.938.854.483.792.445 1.596.343 2.501-.103.906-.263 1.869-.118 2.793.136.876.862 1.448 1.336 2.165.669.993 1.497 1.87 2.45 2.596.483.379.991.725 1.521 1.035.708.398 1.243 1.01 1.759 1.644.25.267.473.557.669.866.119.289.194.594.222.905-.058-.222.243-.445.345-.562.017.002.035.002.051-.002.017-.004.032-.012.046-.022s.025-.023.034-.037c.009-.015.014-.032.016-.048.026-.08.064-.155.114-.223.053-.061.111-.118.174-.169.641-.522 1.322-.995 2.035-1.413.29-.189.459-.498.7-.741.175-.134.326-.297.445-.483.349-.595.662-1.21.938-1.842.202-.503.32-1.053.585-1.529.187-.334.432-.625.637-.945.631-.995 1.439-1.843 2.165-2.771.383-.487.831-.91 1.114-1.464.14-.269.287-.5.445-.759.332-.576.614-1.18.844-1.804.475-1.148.628-2.4321.931-3.6337.223-.89.296-1.78.49-2.67.156-.6928.263-1.3953.323-2.1027.067-.85.223-1.7045.238-2.5589.025-.8099 0-1.6288 0-2.4476 0-1.335-.046-2.7569-.467-4.0296-.068-.2717-.112-.5486-.132-.8277-.053-.3182-.222-.5941-.303-.9056-.149-.583-.309-1.1615-.465-1.7423-.202-.6996-.33-1.4186-.381-2.145-.022-.5607.042-1.1281.013-1.6888-.015-.2937-.113-.5674-.127-.8611-.001-.3124-.027-.6243-.08-.9323-.124-.6097-.165-1.2772-.376-1.8646-.446-1.2438-.935-2.4832-1.336-3.7382-.199-.623-.606-1.2104-.891-1.7956-.339-.6831-.918-1.2816-1.372-1.8891-.53-.6479-1.104-1.2576-1.719-1.8246-.306-.3048-.519-.6675-.831-.9634-.326-.3232-.677-.6207-1.049-.8901-.869-.6096-1.617-1.355-2.559-1.8579-1.094-.5852-2.187-1.1704-3.274-1.7801-1.317-.7116-2.707-1.2772-4.147-1.6866-.637-.1846-1.281-.3449-1.926-.4828-.627-.1629-1.266-.2723-1.911-.3271-.423-.0156-.824.138-1.25.1291-.695-.0134-1.385.0578-2.08.0756-.809.0542-1.611.1846-2.396.3894-1.158.2537-2.312.5496-3.446.89-.559.1691-1.113.3449-1.672.5073-.497.1447-.962.365-1.452.5296-.82.2715-1.615.6675-2.45.8611-.626.1447-1.232.296-1.864.4117-.288.0422-.578.0623-.869.06-.338 0-.668.0846-1.006.0935-1.559.0423-3.145-.1313-4.695.0156z" fill="#364154"/><path d="m290.292 94.4504c0-.2225 0-.465 0-.6964 0-.2804-.089-.4451-.086-.7432 0-1.1571 0-2.3119 0-3.4689 0-.445-.085-.9034-.105-1.3551-.016-.3783-.042-.7565-.067-1.1348-.023-.2357-.068-.4688-.134-.6964-.064-.2492-.035-.5007-.086-.7499-.052-.2492-.014-.4851-.043-.7365-.022-.1824-.08-.3315-.087-.5184-.011-.0905-.035-.1789-.071-.2626-.022-.089 0-.1802-.013-.2648-.014-.0845-.076-.0779-.085-.1335-.018-.0979 0-.1913-.022-.2915-.174 0-.446.4273-.559.5608-.241.2558-.519.445-.755.7187-.388.4939-.748 1.0095-1.078 1.5442-.169.2519-.324.5126-.466.781-.12.2225-.336.4027-.425.6386-.044.1246-.067.2403-.12.3626-.158.3583-.325.6409-.33 1.0414-.005.3247.034.6487.114.9634.207.8078 0 1.7156.078 2.5433.046.5029.113 1.008.167 1.5086.111 1.3174.378 2.617.795 3.8717.089.3253.198.6448.327.9567.098.1914.178.4094.263.6053.092.2269.225.435.392.6143.171.182.334.169.541.247.078-.129.379-.125.506-.158.161-.059.298-.169.389-.314.105-.1458.193-.3025.263-.4672.094-.2052.175-.4163.241-.6319.027-.1046 0-.207.04-.3093.011-.0401.058-.0423.071-.1024.014-.0601-.022-.1268 0-.1847.022-.0578.076-.1223.094-.2225.033-.1669.046-.3093.089-.4739.057-.2285.086-.4632.084-.6987 0-.2759.083-.4762.087-.7409.003-.5296-.009-1.0659-.009-1.6021zm-1.026 1.2171c-.033.2605-.039.5237-.018.7855 0 .1032-.015.2059-.045.3048-.095.3627-.093.7321-.307 1.0525-.096.1361-.172.2862-.223.445-.01.065-.038.1259-.081.1764-.042.0505-.097.0887-.159.1106-.094.0445-.265.1714-.374.1358-.056-.0201-.11-.1247-.139-.1692-.14-.242-.263-.4933-.369-.752-.12-.2241-.225-.4552-.316-.692-.049-.1536-.083-.3138-.134-.4673-.064-.1602-.117-.3244-.158-.4917-.043-.2403-.083-.4851-.118-.7276-.013-.1116-.032-.2223-.058-.3316-.03-.147-.05-.2956-.063-.445-.044-.3093-.1-.6074-.155-.9123-.029-.1624 0-.3293-.018-.4895-.033-.1311-.051-.2654-.054-.4005-.003-.127-.021-.2532-.053-.376-.025-.1358.018-.2737-.018-.4072-.102-.3894-.045-.8656-.045-1.2772v-1.5131c0-.1958-.057-.5407.027-.7254.143-.3115.328-.603.495-.89.064-.1529.139-.3016.222-.445.052-.0668.121-.1135.163-.1825.042-.0689.06-.1691.116-.2403.055-.0712.084-.0578.116-.1045.031-.0468.075-.1981.129-.2849.095-.1513.182-.3159.278-.4672s.29-.3093.405-.4851c.084-.1636.192-.3137.321-.445.049.1153.083.2365.1.3605.037.1512.06.3053.069.4605.016.0957.056.187.069.2849.047.3337-.011.6675.076.999.031.2017.038.4064.02.6097.016.1756.046.3497.089.5207 0 .0979-.026.2113 0 .3092.027.0979.076.1269.096.2092.054.2225-.042.4828 0 .7054.018.1157.074.1913.096.2981.007.0881.007.1767 0 .2648.005.1762.032.3511.08.5207.087.396 0 .89 0 1.2972v2.5789c.021.4356 0 .8722-.062 1.3038z" fill="url(#j)"/><path d="m289.769 86.5268h9.089c.586 0 1.16.0934 1.741.089h2.132c.913 0 1.862.0756 2.77-.0201.775-.1057 1.559-.1192 2.337-.04 1.309.178 2.694.0667 4.008.0667h1.833c.557 0 1.085.089 1.64.0868h2.244c.205.0062.41-.0163.608-.0667.229-.0479.465-.0479.693 0 .007.032.002.0653-.013.0944s-.039.0523-.069.0658l.089-.1736h-.054c.121-.0734.161-.2225.25-.3315.089-.1091.178-.1691.26-.2581.207-.2225.359-.4339.566-.6564.096-.1336.205-.2574.325-.3694.246-.1694.47-.3673.668-.5896.246-.2418.51-.4649.789-.6676.118-.0956.459-.2425.49-.4116-.112 0-.152-.0912-.248-.1113-.117-.011-.234-.011-.351 0-.317 0-.602-.0912-.916-.089-.683 0-1.369.0112-2.053 0-.212 0-.394-.0823-.604-.0934-.173 0-.352 0-.525 0h-11.102c-1.395 0-2.789-.0289-4.183 0-.668.0133-1.336.0912-2.004.0912-.669 0-1.401.0801-2.103.089-.853.0111-1.708 0-2.561 0-.395.0101-.79-.0056-1.183-.0467-.52-.0278-1.041-.0122-1.559.0467-.534.0245-1.069.0957-1.603.089-.34-.0104-.68.0037-1.018.0423-.223.0289-.445.0222-.652.0623-.111.0407-.228.0633-.346.0668" fill="url(#k)"/><path d="m261.207 160.767c-.703-.495-1.359-1.055-1.958-1.671-2.345-2.461-5.073-4.597-7.592-6.876-2.568-2.346-4.815-5.021-6.681-7.955-1.252-1.946-2.346-4.056-3.473-6.076-.895-1.565-1.891-3.07-2.982-4.506-1.04-1.397-2.32-2.345-2.926-4.079-.535-1.535-.891-3.132-1.392-4.683-.223-.71-.256-1.413-.446-2.108-.189-.694-.314-1.464-.445-2.185-.107-.594-.209-1.174-.327-1.764-.156-.794-.127-1.589-.372-2.372-.43-1.366-.363-2.955-1.089-4.241-.204-.343-.388-.697-.55-1.061-.201-.472-.559-.59-.858-.953-.35-.422-.445-.856-.891-1.239-.525-.472-.775-1.113-1.269-1.589-.839-.809-1.591-1.704-2.243-2.67-.577-.85-.868-1.78-1.414-2.67-.252-.416-.55-.456-.891-.732-.258-.205-.352-.516-.668-.63-.503-.178-.911.074-1.323.223-.261.102-.35 0-.608.162-.149.094-.247.29-.394.39-.688.469-1.083.692-1.499 1.493-.557 1.063-1.114 2.158-1.989 2.999-.223.223-.476.365-.695.576-.418.403-.917.552-1.401.839-.512.292-.919.74-1.16 1.277-.029.121-.023.248.016.366.04.118.111.222.207.302.138.118.39.171.528.285.274.222.111.505 0 .77-.194.376-.344.774-.446 1.186-.062.396 0 .801-.076 1.194-.053.25-.164.483-.222.733-.061.321-.088.647-.08.974v3.66c-.043 1.19.043 2.381.256 3.552.256 1.239.766 1.933 1.32 3.023.85 1.715 1.902 3.323 3.134 4.789 1.091 1.29 2.309 2.174 3.679 3.133 1.102.772 2.039 1.755 2.757 2.892 1.04 1.638 2.154 3.213 3.25 4.813.51.743.619 1.317.957 2.121.339.803.92 1.477 1.259 2.292.338.814.445 1.677.915 2.463.195.287.374.584.537.89.24.516.256 1.077.501 1.593 1.16 2.447 2.365 4.94 2.944 7.614.185.857.637 1.558.927 2.383.202.565.592.966.786 1.529.53 1.531 1.254 2.961 1.902 4.466.51 1.183.877 2.343 1.559 3.453.846 1.386 1.759 2.721 2.599 4.103.815 1.335 1.895 2.565 2.643 3.936.78 1.433 1.891 2.43 3.052 3.58.839.835 1.527 1.892 2.432 2.639.904.748 1.63 1.702 2.619 2.35 1.095.719 2.158 1.595 3.178 2.419.39.313.955.919 1.463.996.345-1.034.053-2.61.053-3.682 0-.981-.135-2.065.058-3.031.161-.798.101-1.602.256-2.403.156-.801.348-1.557.502-2.327.108-.719.273-1.429.492-2.123.24-.647.327-1.235.65-1.851.303-.576.604-1.102.924-1.658.475-.819.755-1.693 1.243-2.516.218-.315.392-.658.517-1.02.156-.529.381-.781.668-1.246.165-.269.278-.569.445-.841.145-.236.484-.505.542-.778.151-.73-.931-1.736-1.254-2.352-.524-1.003-1.26-1.879-2.156-2.57z" fill="#f4caab"/><path d="m208.149 112.367 5.947-2.535 25.679-3.696s.89 1.113.89 3.116l-19.153 2.225s-3.341-1.78-5.345-.89c0 0-2.004.667-1.782 2.447l-5.79.223z" fill="url(#l)"/><path d="m281.142 104.55c0 .049.02.096.031.145 1.126.212 2.274.287 3.418.222.755-.029 1.668-.062 2.383-.287.408-.127.784-.349 1.216-.407.388-.063.769-.154 1.143-.274.782-.205.668.289.187.774-.668.704-1.584 1.605-1.581 2.624-.012.277-.058.551-.136.816-.091.421 0 .846-.031 1.271-.031.63-.178 1.219-.183 1.862.085-.643-.483-1.64-.904-2.078-.511-.481-1.05-.932-1.615-1.351-.467-.384-.995-.772-1.481-1.132-.272-.2-.592-.334-.891-.51-.534-.329-1.046-.914-1.556-1.675z" fill="#efbc90"/><path d="m289.043 100.08c.486.03.973.03 1.459 0 .295-.029.582-.1156.844-.254.162-.0956.267-.2536.445-.3248-.169-.2225-.641-.1113-.891-.1135-.216-.0078-.433.0116-.645.0578-.147.0356-.346.1358-.497.0356-.321-.2113.165-.3537.318-.465.323-.2559.591-.5746.787-.9368.159-.2273.346-.4343.556-.6163.272-.2971.507-.6258.7-.979.338-.5697.915-1.4975.732-2.194-.26 0-.334.4451-.445.6431-.217.4785-.495.9272-.826 1.335-.398.4039-.747.8518-1.043 1.3351-.416.7943-1.358 1.3996-1.494 2.4768z" fill="#efbc90"/><path d="m294.335 91.0482c.085-.0445.167-.0913.245-.1269.256-.1157.537-.1891.786-.3204.377-.2022.743-.4251 1.096-.6675.361-.2425.735-.3805 1.06-.6675.117-.1086.259-.1852.414-.2225 1.155-.2907 2.329-.493 3.515-.6053 1.069-.1179 2.173-.0867 3.231-.2536.78-.1246 1.606-.0601 2.397-.0601h1.02c.157-.0155.315-.0155.472 0 .12.0267.158.1446.296.1313-.103-.089-.163-.445-.187-.5874-.025-.1424-.078-.2693-.105-.4094-.027-.1402.031-.2871 0-.4117-.08-.2781-.365-.247-.599-.2002-.502.0798-1.011.1096-1.519.089-.572 0-1.145 0-1.717 0-.501 0-.991-.1803-1.485-.089-1.098.2024-2.274.089-3.392.089-.316.0262-.633.0337-.949.0222-.315-.004-.629.0086-.942.0378-.104-.0066-.208-.0066-.312 0-.223.0312-.432.1157-.648.1647-.425.0979-.777.3382-1.185.4917-.29.0862-.574.1933-.848.3204-.287.1684-.555.3652-.802.5875-.223.1869-.521.3315-.57.6141-.038.3188 0 .6421.111.9434.087.2937.02.356-.122.6075-.056.0882-.079.1926-.068.296.012.1035.059.1999.132.2736.036.0333.079.059.125.0755.046.0164.096.0233.145.0202.143-.0177.282-.0663.405-.1424z" fill="#efbc90"/><path d="m289.42 90.7834c.381 0 .748.0757 1.129.0913.323.0156.646-.0223.967 0 .32.0222.625.109.944.1001.26 0 .49-.0957.75-.0934.086-.0079.171-.0079.257 0 .08.0155.093.1045.2.0756-.742.2937-1.249.9501-1.782 1.5041-.254.2648-.445.5674-.701.8367-.151.1414-.253.3267-.292.5295-.327.0423-.653-1.0925-.735-1.3038-.114-.2849-.296-.5363-.423-.8144-.062-.1297-.104-.2676-.127-.4094-.002-.1884-.068-.3705-.187-.5163z" fill="#efbc90"/><path d="m319.951 93.1153c-.169.0222-.26.3293-.345.4606-.174.2692-.403.4672-.588.7209-.193.3-.35.622-.468.959-.111.2893-.058.445.027.7454.236.0692.49.0445.708-.069.183-.1201.187-.327.341-.465.233-.1609.507-.2527.791-.2648.273-.0012.545-.0311.813-.089.171-.0423.592-.0445.476-.3783-.06-.1691-.349-.178-.445-.3649-.082-.1957-.128-.4044-.136-.6163-.056-.5563-.094-.9434.292-1.3929.385-.4495.89-.6831 1.365-.9879.26-.1692.599-.4451.41-.79-.288-.534-1.223-.5162-1.724-.4895-.724.0401-.822.6943-.953 1.2483-.095.3195-.213.6318-.352.9345-.19.4762-.41.8745-.891 1.0703" fill="#f4caab"/><path d="m320.998 88.8186c0-.4339-.118-.8366-.122-1.2749-.005-.4384 0-.8122.343-1.1727.219-.2225.456-.4257.71-.6074.33-.2826.751-.4353 1.185-.4295.18 0 .69.0624.822.2003.167.1758 0 .3894-.198.4762-.147.0306-.296.0463-.446.0467-.265.062-.521.1608-.759.2937-.791.3538-1.673 1.5131-1.406 2.4476l.096.02" fill="#f4caab"/><path d="m319.486 101.415c.873 0 1.694.058 2.494-.379.597-.311 1.17-.666 1.715-1.0609.251-.1914.336-.4161.539-.6141.374-.3672.753-.6386 1.047-1.0792.222-.316.461-.6542.668-.939.786-1.0525.864.2514 1.191.8589.243.445.717.9145 1.054 1.2972.222.2648.786.6811.85 1.0151-.271.144-.274-.094-.445-.192-.115-.08-.252-.125-.392-.129-.356-.038-.918-.064-1.225.118-.243.145-.374.418-.557.625-.239.247-.505.467-.793.655-.527.384-1.078 1.125-1.755 1.272-.3.065.029.043-.376-.011-.238-.033-.445-.024-.701-.038-.51-.024-1.016-.278-1.533-.358-.377-.053-.743-.17-1.082-.345-.287-.147-.711-.425-.699-.696z" fill="#efbc90"/><path d="m291.49 127.246c-.207-.134-.441-.22-.686-.252-.222-.667.421-.347.8-.445.165-.069.34-.111.519-.122h.635c.516 0 1.071.06 1.572-.058.488-.078.984-.098 1.477-.06.749-.026 1.491-.153 2.207-.376.418-.111.839-.169 1.247-.32.269-.098.559-.114.824-.223.223-.093.425-.245.639-.358.281-.134.571-.248.869-.341.361-.155.709-.34 1.04-.554.717-.4 1.378-.89 2.08-1.312.374-.223.668-.537 1.024-.784.323-.222.682-.387 1.007-.607s.646-.425.947-.668c.336-.267.574-.596.89-.89.475-.445 1.023-.783 1.495-1.223.356-.335.692-.69 1.007-1.064.267-.312.625-.532.877-.85.321-.409.615-.901.913-1.324.149-.222.325-.427.47-.641.167-.247.223-.487.39-.701.18-.216.34-.447.479-.692.1-.189.329-.398.383-.585.037-.255.041-.514.013-.77 0-.365-.107-.52-.178-.861-.098-.458-.114-.945-.252-1.406s-.445-.743-.445-1.215-.056-1.088.136-1.54c.425-.999.777.238.87.688.136.65.259 1.335.566 1.936.296.55.545 1.124.746 1.715.156.467.548.668.793 1.07.232.352.409.736.526 1.14.269 1.255-.239 2.51-.876 3.56-.445.736-.85 1.457-1.351 2.16-.265.37-.446.819-.782 1.14-.336.32-.697.427-1.007.701-.594.522-1.131 1.143-1.69 1.702-.446.445-1.089.901-1.426 1.45-.423.69-.616 1.473-.81 2.226-.152.578-.04 1.312-.04 1.915v1.044c-.015.119-.019.239-.011.358.044.194.233.256.204.487-.294-.634-.374-1.261-.804-1.815-.336-.445-.458-1.01-.873-1.395-.549-.497-1.263-.772-2.004-.772-1.143.04-2.076.7-3.156.967-.566.138-1.098.134-1.643.361-.479.196-.974.35-1.479.458-.626.147-1.303.011-1.918.172-.334.086-.59.202-.96.12-.369-.083-.445-.147-.784-.071-.153.035-.162.077-.343.051-.18-.027-.303-.132-.527-.143-.149.011-.298.011-.446 0-.125-.024-.2-.113-.294-.142-.256-.08-.552-.163-.819-.223-.451-.06-.897-.147-1.337-.262-.245-.096-.481-.215-.704-.356z" fill="#efbc90"/><path d="m214.744 113.953c-.178.714 1.3 1.656 1.735 2.09.481.478.926.858 1.583 1.052.526.177 1.038.394 1.53.65.913.431 2.1.941 2.515 1.911.369.87-.047 1.838-.043 2.744-.019.559.056 1.118.223 1.653.059.26.101.524.125.79.04.196.211.342.193.552 0-.336-.371-.741-.565-.988-.283-.361-.724-.79-1.194-.89-.47-.101-1.198-.025-1.677.024.445-.398.463-.848.461-1.406.004-.552-.06-1.102-.189-1.638-.172-.667-1.02-1.546-1.588-1.976-.78-.611-1.512-1.28-2.189-2.002-.326-.328-.592-.711-.784-1.131-.11-.156-.207-.322-.29-.494-.028-.132-.035-.268-.02-.402.009-.468.071-.71.174-.539z" fill="#f4caab"/><path d="m219.962 108.729c.307.091.499-.267.706-.445.498-.388.957-.824 1.37-1.302.222-.298.191-.668.316-1.001.125-.334.267-.517.223-.859.004.223-.01.446-.043.667-.069.455-.047.918.065 1.364.073.408.158 1.226.51 1.507 0-.096 0-.192 0-.287" fill="#f4caab"/><path d="m221.532 111.341c.21 0 .21.158.348.245.138.086.222.069.34.138.308.188.634.345.974.469.387.127.904.329 1.167.668.891 1.123 1.85 2.225 2.672 3.391-.108-.182-.187-.378-.236-.583-.113-.388.038-.719.172-1.088.304-.86.779-1.649 1.396-2.321.351-.322.723-.619 1.114-.89.164-.123.331-.223.503-.37.171-.147.425-.184.552-.36-.507.018-.973.189-1.501.187-.599 0-1.082.18-1.663.173-.428 0-.987-.093-1.401 0-.201.043-.312.145-.51.187-.263.025-.528.025-.791 0" fill="#f4caab"/><path d="m287.939 113.083c.561.071 1.087-.316 1.592-.514.813-.323 1.764-.601 2.514-1.052.302-.198.62-.372.949-.519.316-.113.616-.268.891-.46-.028.625-.263 1.222-.668 1.7-.223.235-.419.482-.644.705-.37.365-.766.704-1.185 1.012-.501.374-1.1.621-1.585.973-.359.269-.738.511-1.134.723-.269.136-.378.051-.481-.245-.223-.643-.519-1.237-.521-1.936v.076" fill="#f4caab"/><path d="m287.591 111.699c.313.03.627.026.938-.013.332-.082.644-.381.978-.476.559-.161 1.136-.223 1.661-.376.241-.069.423-.132.668-.196.114-.031.143-.138.268-.167.173-.04.369.058.541.018.122-.029.158-.149.267-.169s.283.017.423 0c.245-.04.648-.172.8-.376-.198.215-.429.398-.684.54-.492.263-.982.307-1.477.521-.494.214-.946.358-1.429.612-.911.476-1.849.848-2.744 1.279-.112-.076-.191-.191-.223-.322" fill="#efbc90"/><path d="m291.6 104.897c.249.336.679.445 1.006.694.304.226.543.528.693.875.223.462.497.876.719 1.335.194.391.386.776.566 1.175.105.222.243.429.16.725-.082.296-.222.26-.485.409-.385-.507-.201-1.264-.446-1.862-.111-.28-.331-.467-.445-.728-.143-.329-.074-.596-.381-.874" fill="#efbc90"/><path d="m288.462 116.912c.543-.028 1.082-.103 1.613-.222.124.36-.484.89-.668 1.15-.098.143-.446 1.004-.577 1.035-.032-.16-.109-.298-.147-.456-.056-.245.04-.935-.223-1.044" fill="#f4caab"/><path d="m295.433 64.6721c-.387.3138-.32 1.1126-.39 1.5264-.156.9154-.262 1.8387-.316 2.7658-.015.3271-.1 1.0057.134 1.2928.334.4161.63.0111.958-.1914.247-.1557.523-.1802.775-.3248.412-.2404.839-.514 1.247-.7632.808-.5144 1.653-.9667 2.53-1.3529.704-.2959 1.452-.5095 2.127-.8611.527-.2772 1.099-.458 1.69-.534.292-.0356.579.0156.875-.029.288-.0652.58-.112.873-.1401.544-.0156 1.036-.1469 1.559-.1736.753-.0356 1.653-.0957 2.388.0423.785.1462 1.596.0802 2.347-.1914.712-.1812 1.439-.2996 2.172-.3538.404-.0589.814-.0589 1.218 0 .215.0804.44.1342.668.1603-.203-.0468-.238.1112-.394.1579-.197.0246-.396.0246-.593 0-.719.0212-1.434.1349-2.124.3382-1.178.3872-2.37.6676-3.564.9858-.915.2469-1.748.6675-2.672.89-.548.1224-1.074.328-1.559.6097-.187.1134-.446.2225-.599.3315-.087.0601-.223.2626-.312.2959-.207.0757-.198-.0778-.35-.1045-.156-.024-.314-.0367-.472-.0379-.727-.0096-1.454.041-2.174.1513-.896.1001-1.758.4046-2.518.8901-.446.2915-.951.4739-1.337.8677-.332.3338-.695.6075-1.035.9524-.341.3449-.769.6052-1.134.9545-.37.3171-.723.6536-1.058 1.008-.17.2419-.355.4737-.552.6942-.301.2937-.771.9791-1.156 1.1126-.067-.6542.35-1.2861.472-1.9158.04-.3439.107-.684.203-1.0169.119-.3025.178-.6252.173-.9501.018-.6319.136-1.246.176-1.8802" fill="#364154"/><path d="m330.287 98.7938c.633.3382 1.296.5473 1.929.8677.579.2938 1.265.6005 1.746 1.0435s.813 1.064 1.171 1.578c.412.587 1.337 1.92.693 2.563-.298.296-.445.174-.784 0-.425-.223-1.726-1.113-2.147-.496-.145.222-.029.607-.013.841.044.75-.065 1.622.483 2.225.294.323.891.574 1.276.817.495.316.818.765 1.23 1.179.804.812 1.311 2.172 1.781 3.186.397.846.537 2.016 1.098 2.759-.162-.285-.703-.474-.96-.703-.605-.549-1.294-1.012-1.942-1.513-.853-.656-1.833-1.199-2.61-1.942-.588-.568-1.158-1.153-1.746-1.752-.554-.565-.98-1.065-.984-1.895 0-.561.173-1.011.338-1.531.21-.668.129-1.335.136-2.021 0-.465.223-1.279-.169-1.642-.142-.093-.291-.177-.446-.249-.305-.183-.622-.343-.951-.48-.312-.115-.611-.265-.89-.446-.223-.178-.277-.433-.506-.618-.646-.521-.815-1.1905-1.073-1.907-.145-.4239-.192-.8748-.138-1.3194.027-.274.081-.5445.162-.8077.06-.1691.201-.3049.178-.4962-.029.3649.488.979.724 1.2193.321.3271.668.445 1.031.692.444.3095.906.5926 1.383.8478z" fill="#364154"/><path d="m313.561 94.1009c-.062-.2225.154-.5162.223-.7187.196-.6253.123-1.0992 0-1.7222-.223-1.0992.238-2.0471.969-2.8392.438-.4624.921-.8805 1.441-1.2483.292-.2225.913-.4806 1.011-.87.078-.3137-.223-.1646-.428-.0979-.387.1224-.813.3004-1.227.2225-.261-.0698-.528-.1153-.797-.1357-.263 0-.526.0311-.789.0356-.259-.0256-.516-.0672-.77-.1246-.333-.0167-.666-.0167-.998 0-.626 0-1.252 0-1.877 0-.341 0-.653.089-.987.1157-.243.0178-.519.0779-.759.1157-.301.0489-.205.0334-.139.2626.054.1846.072.3626.141.554.223.5563.547 1.0669.955 1.5064.374.445.804.8277 1.181 1.2705.132.1365.272.2657.418.3871.354.336.466.8389.733 1.2372.207.3382.653.5718 1.699 2.0493z" fill="#364154"/><path d="m302.58 75.4683c.085.3026-.2.4917-.142.8544.126.7788.365 1.2861.997 1.76.612.5001 1.357.8096 2.143.8901.946.0934 1.848.109 2.797.1357 1.336.04 2.982.9701 3.891 1.9336.345.3627.701.6875 1.038 1.0458.135.1468.38.2915.414.4806-.506.1557-1.187.0378-1.713.0311-.868 0-1.652.316-2.494.356-.254.0134-.59-.0712-.84-.0111-.149.0356-.185.1558-.329.1914-.107.0267-.6.0489-.669-.0356-.12-.1202 0-.4183-.04-.5674-.115-.3916-.668-.781-.946-1.0614-.403-.4027-.791-.8388-1.225-1.206-.326-.2659-.674-.5034-1.04-.7098-.784-.4428-1.083-1.0903-1.842-4.0874z" fill="#364154"/><path d="m310.956 77.384c.013.2871.336.158.532.1625.731.0155 1.435.3582 2.083.6675 1.354.6252 2.966 1.5019 3.761 2.8236.15.2492.25.5496.421.7833.1.1379.263.2225.334.376.072.1535.092.3293.19.5073.08.1568.175.3058.282.445-.387-.0445-.779.0201-1.164 0-.175-.0293-.347-.0763-.513-.1401-.131-.0334-.407.02-.496-.0646-.089-.0845 0-.3716-.018-.4939-.041-.1853-.099-.3663-.174-.5407-.191-.5519-.712-1.077-1.16-1.4708-.577-.5096-1.187-1.0569-1.804-1.5131-.521-.3805-1.472-1.3306-2.274-1.542z" fill="#364154"/><path d="m326.101 65.5442c.563.0111 1.086-.2648 1.643-.3872 1.114-.247 2.107-.4962 3.245-.1446.726.2558 1.399.6427 1.985 1.1415.341.334.705.6448 1.089.93-.25-.0579-.495-.1322-.735-.2225-.569-.1452-1.144-.2618-1.724-.3493-1.495-.3271-2.853-1.0213-5.503-.9679z" fill="#364154"/><path d="m326.925 84.8713c.207.2359.766.2826 1.04.4829.56.4013 1.027.9171 1.372 1.513.416.7321.445 1.6221.728 2.4031.209.5652.339 1.1482.492 1.7311.176.6676.348 1.3507.546 2.0026.067.2225.287.5007-.109.583-.109.0245-.223 0-.325.0178-.147.0553-.302.0861-.459.0912-.321 0-.642 0-.962 0-.114 0-.239-.0156-.352 0-.114.0156-.265.138-.345.1313-.47-.0312-.466-.9813-.466-1.2883 0-.3494 0-.6987 0-1.048 0-.3494.094-.6876.12-1.0414.014-.5847-.026-1.1694-.12-1.7467-.023-.158-.062-.3132-.118-.4628-.036-.1068-.096-.2225-.12-.3382-.014-.0579.024-.1268 0-.1847-.025-.0578-.078-.1446-.094-.1958-.035-.1379-.022-.2737-.051-.4139-.02-.0934-.087-.2514-.116-.3738-.039-.1205-.089-.2374-.149-.3493-.05-.103-.106-.2026-.169-.2982-.105-.198-.205-.4628-.343-1.2149z" fill="url(#m)"/><path d="m362.365 171.681h5.082c2.642-.018 5.123.316 7.713.79 2.786.507 5.568 1.459 8.254 2.349 1.082.361 2.02.957 3.004 1.429.345.167.751.496 1.114.603.28.087.89.363 1.147.345-.482-.445-.087-2.003-.281-2.63-.354-1.175-.401-2.039-.401-3.276 0-.652 0-1.306 0-1.958s.223-1.161.276-1.811c.116-1.141-.013-2.392-.013-3.542 0-2.777-.287-5.89-1.559-8.431-.809-1.616-2.125-3.233-3.405-4.497-.72-.71-1.428-1.671-2.366-2.109-.525-.247-.859-.296-1.196-.797.378.376.777.73 1.196 1.059.484.405 1.829 2.187 1.606 2.917-.116.378-.552.463-.906.503-1.114.127-2.37.292-3.484.223-1.815-.132-3.34-.37-5.162.095-.717.251-1.455.436-2.205.554-.139-.022-.281-.012-.415.031s-.256.117-.355.216c.474.367 1.298.332 1.879.445 1.463.282 2.896.697 4.283 1.24 2.396.928 4.96 2.045 7.002 3.624 1.982 1.536 2.608 4.422 2.873 6.751.108 1.184.147 2.372.118 3.56 0 .568.212 1.687-.02 2.21-.421.95-2.122.739-2.933.623-1.479-.223-2.895-.777-4.365-1.006-1.947-.305-3.895-.803-5.851-1.006-1.659-.149-3.328-.155-4.989-.02-1.113.083-2.173.374-3.271.483-.815.083-1.372-.024-2.105.283-.653.236-.895.193-.265.75z" fill="url(#n)"/><path d="m367.079 184.217c.849.779 2.187 1.215 3.23 1.62 2.153.834 4.296 1.704 6.445 2.55 1.621.638 3.65 1.426 4.982 2.603.891.794 1.448 1.78 2.08 2.777.604.941 1.274 1.867 1.628 2.93.305.947.46 1.936.459 2.931 0 .821-.098 2.806-1.336 1.813-1.281-1.023-2.376-2.499-3.356-3.794-1.255-1.701-2.742-3.219-4.417-4.51-1.476-1.112-2.759-2.487-4.231-3.584-.91-.651-1.768-1.371-2.566-2.154-.279-.297-.577-.577-.891-.837-.276-.249-.536-.515-.779-.797-.802-.752-2.604-1.025-1.248-1.548z" fill="url(#o)"/><path d="m364.979 193.099c.518.401 1.067.76 1.643 1.073 1.114.643 2.123 1.375 3.199 2.082 1.839 1.213 3.592 2.319 5.138 3.908 1.158 1.188 2.242 2.436 3.329 3.689 1.022 1.177 1.572 1.804 1.795 3.308.038.254-.02.612.045.841.084.303.425.372.222.739-1.365-.514-2.503-2.105-3.36-3.297-.346-.53-.882-.906-1.497-1.053-.949-.287-1.539-.351-1.971.746-.321.816-.145 1.737-.209 2.587-.08 1.059-.223 2.054-.223 3.115-.018 1.718-.592 4.006-1.588 5.461-.165.242-.873 1.417-1.24 1.313-.856-.241-.101-2.615 0-3.069.251-1.232.721-2.352.75-3.624.027-1.182.109-2.486-.064-3.656-.134-.89-.412-1.78-.551-2.684-.162-1.072-.236-2.171-.706-3.166-.543-1.155-1.409-2.083-2.037-3.148-.223-.381-.297-.826-.577-1.202-.305-.402-.653-.77-1.038-1.097-.849-.73-1.822-1.335-2.628-2.083-.521-.491-1.022-.943-1.559-1.37-.777-.617-1.559-1.124-2.365-1.72-.308-.223-1.521-.619-1.544-.79.243-.047.82.164 1.085.209.362.056.714.165 1.045.323.397.222.783.466 1.153.732.92.572 2.009.776 3.753 1.833z" fill="url(#p)"/><path d="m369.161 140.848c-.968-.018-1.681-.476-2.643-.534-2.227-.132-4.454.287-6.604.776-1.63.367-3.167.87-4.817 1.113-1.336.207-2.717.75-3.951 1.319-.928.432-1.781.915-2.755 1.235-.863.251-1.71.553-2.536.906-1.588.736-3.118 1.675-4.677 2.483-.682.354-1.223.921-1.878 1.319-.541.332-1.142.53-1.641.924-.524.453-1.079.869-1.662 1.244-.39.202-.753.452-1.082.743-.468.463-.523.736-1.114 1.057-.414.222-.755.523-1.155.758.832-.689 1.425-1.657 2.28-2.363 1.811-1.493 3.806-2.81 5.737-4.138.554-.4 1.142-.75 1.757-1.046.587-.277 1.135-.631 1.628-1.052.584-.445 1.283-.521 1.902-.877s1.214-.797 1.862-1.155c.595-.329 1.067-.763 1.731-1.001.717-.219 1.417-.488 2.095-.806 1.154-.598 2.432-.941 3.682-1.306 1.657-.483 3.708-1.066 5.329-1.181.265-.04.421.173.644.269.468.183.954.316 1.45.398 2.122.418 4.264.723 6.418.915z" fill="url(#q)"/><path d="m310.562 204.307c.222.016.429.047.614.042 1.292-.029 2.555-.329 3.813-.589 1.259-.261 2.421-.223 3.668-.343 1.294-.127 2.648-.267 3.947-.091 1.227.164 2.418.525 3.648.685.965.111 1.92.301 2.855.568 1.875.56 3.606 1.528 5.345 2.42 1.336.686 2.733 1.389 3.924 2.288 1.379 1.041 2.924 1.78 4.051 3.139.851 1.022 2.103 1.509 2.896 2.608.853 1.227 1.572 2.542 2.144 3.923.516 1.204 1.125 2.365 1.822 3.473.63.988 1.417 1.698 1.838 2.822.209.56.543 1.083.732 1.646.223.652.265 1.431.377 2.11.262 1.584.352 3.157.59 4.73.223 1.524.02 3.037.116 4.566.049.77.314 1.42.278 2.205-.047 1.053-.624 1.762-1.183 2.617-.373.62-.854 1.168-1.42 1.62-.891.667-1.626 1.615-2.622 2.154-.995.538-1.964 1.397-2.882 2.096-.528.402-1.85 1.557-2.588 1.272.061-.445.352-.934.537-1.35.438-1.011.942-1.992 1.508-2.937 1.336-2.19 2.655-4.451 3.695-6.796.643-1.455.891-3.093 1.291-4.626.18-.657.269-1.336.263-2.018 0-.445.223-1.435-.249-1.591-.408-.138-.35.118-.577.256-.804.49-1.477 1.453-2.178 2.074-.643.6-1.401 1.065-2.227 1.368-.541.163-1.078.332-1.615.508-.368.126-.72.293-1.051.498-.764-.073-.481-1.259-.475-1.822.032-2.657-.979-4.657-2.093-7.018-.597-1.262-1.114-3.229-2.167-4.199-.223-.222-.526-.285-.755-.487-.668-.592-1.114-1.6-1.688-2.299-1.581-1.944-3.579-3.46-5.033-5.52-1.114-1.558-1.831-3.718-3.441-4.862-1.183-.841-2.493-1.173-3.864-1.517-.669-.165-1.23-.537-1.873-.741-.689-.223-1.41-.276-2.098-.494-.845-.267-1.617-.686-2.477-.908-.825-.196-1.663-.334-2.508-.412-.709-.086-1.404-.262-2.069-.523-.327-.124-1.514-.253-1.559-.463.235-.093.49-.122.74-.082z" fill="url(#r)"/><path d="m306.947 216.345c.847-.085 1.577-.621 2.426-.737 1.781-.245 3.723-.035 5.534-.051 3.289-.029 6.597.668 9.523 2.225 2.299 1.222 4.328 3.429 5.744 5.585.387.598.728 1.225 1.022 1.874.174.376.599.852.555 1.268-.339.176-.924-.343-1.23-.479-1.178-.522-2.316-.952-3.429-1.617-1.259-.75-2.227-1.818-3.564-2.448-1.508-.718-3.118-1.466-4.677-2.065-1.231-.474-2.554-.721-3.764-1.246-.837-.362-1.612-.89-2.449-1.248-.753-.363-1.539-.652-2.348-.861-.439-.104-.886-.168-1.336-.191-.425-.027-1.169.146-2.007-.009z" fill="url(#s)"/><path d="m368.899 243.773c-.559.042-1.125 1.747-1.348 2.183-1.336 2.614-3.202 4.635-5.253 6.742-1.094 1.124-2.227 1.829-3.564 2.583-1.015.574-1.902 1.304-2.944 1.845-.668.351-1.359.667-2.031 1.03-.176.094-.668.294-.78.496-.209.43.419.948.726 1.184.907.699 2.259.805 3.357.912.603.06 1.276.294 1.884.223.746-.085 1.49-.343 2.243-.432 1.142-.138 2.63-.289 3.714.178.934.403 1.829 1.5 2.435 2.31.414.554.735 1.751 1.352 2.12 1.474.89 1.781-3.039 1.781-3.602 0-1.226.205-2.557-.254-3.707-.382-1.016-.657-2.069-.819-3.142-.194-1.126-.668-2.225-.902-3.338-.361-1.675.298-3.059.403-7.585z" fill="url(#t)"/><path d="m295.956 151.566c.466 0 .965-.12 1.337.242.412.414.287 1.113.1 1.598-.37.963-.891 1.9-1.31 2.85-.222.505-.668 1.507-.608 2.074.486.211.811-.445 1.034-.763.985-1.432 2.129-2.749 3.409-3.925 1.672-1.45 3.595-2.582 5.675-3.338 1.113-.416 2.272-.695 3.452-.83.398-.056.792-.143 1.176-.26.381-.107.613-.349 1.067-.267h-.029s0 .015-.013.013c.59-.405.815-1.851.908-2.516.147-1.057-.018-2.65.706-3.54-.432.222-.806.629-1.189.936-.69.557-1.517.99-2.058 1.711-.668.89-1.448 1.91-2.407 2.492-.691.419-1.559.695-2.346.971-.739.258-1.543.391-2.269.685-.512.207-.911.563-1.376.845-.989.601-1.499.641-5.259 1.022z" fill="url(#u)"/><path d="m344.586 127.798h4.149c.94 0 1.359.118 1.909.778.325.39.739.61 1.015 1.051.319.507.622 1.032.891 1.557.31.588.579 1.191.858 1.794.131.284.445.654.534.89.136.373-.049.89-.247 1.212-.345.561-.813 1.004-1.145 1.589-.373.64-.79 1.255-1.247 1.838-.599.788-1.151 1.593-1.782 2.356-.249.307-.585.953-1 1.026-.176-.777.971-1.965 1.337-2.626.654-1.203.826-2.532 1.349-3.782.544-1.284.566-2.308-.029-3.529-.525-1.077-1.735-1.88-2.688-2.541-.585-.39-1.22-.699-1.888-.919-.802-.272-1.689-.212-2.016-.694z" fill="url(#v)"/><path d="m329.016 67.3423c.042.3226.318.6964.456.9745.39.7868.859 1.5323 1.399 2.2251.276.356.561.7054.822 1.0747.215.3704.455.7265.717 1.0659.202.2225.891.8433 1.238.6964.169-.336-.223-1.0413-.359-1.335-.294-.6097-.632-1.2105-.942-1.8135-.118-.2225-.494-.7209-.294-1.0079.241-.3449.479.0356.613.2225.169.2172.318.4496.445.6942.276.5585.584 1.0814.876 1.631.563 1.0613 1.053 2.1538 1.661 3.193.605.9862 1.266 1.9372 1.98 2.8481.194.2625 1.02 1.4796 1.503 1.3728 0-.1557-.169-.3404-.223-.4739-.086-.1869-.142-.3894-.222-.5807-.216-.426-.407-.8644-.57-1.3128-.123-.4184-.192-.85-.31-1.2683-.211-.6826-.465-1.3514-.759-2.0026-.277-.652-.508-1.3351-.758-2.0026-.445-1.1837-1.452-2.0782-2.436-2.8637-.24-.168-.492-.3168-.755-.445-.186-.132-.412-.1943-.639-.1758-.223.049-.259.2225-.428.316-.182.0439-.371.0522-.557.0245-.445 0-.808-.4339-1.167-.7032-.196-.1371-.409-.2478-.634-.3293-.152-.06-.575-.1068-.615-.2225.051-.0133.12-.0244-.042.1981z" fill="#364154"/><path d="m337.614 70.593c.185.0467.163.2426.223.4094.167.4072.539.7721.828 1.0948.744.8277 1.66 1.473 2.477 2.225 1.004.9257 1.748 2.0671 2.612 3.1152.608.8 1.149 1.6484 1.617 2.5365.211.4095.361.8472.446 1.2995.062.2803.142.692.461.3248.318-.3671.142-1.0658.149-1.4952-.024-.704-.186-1.3966-.477-2.0382-.89-2.1716-2.349-4.1698-4.378-5.3869-.381-.2225-.782-.336-1.16-.5807-.181-.0924-.367-.1726-.557-.2403-.138-.069-.263-.1736-.403-.2537-.206-.1052-.417-.1989-.633-.2804-.47-.2091-.915-.6096-1.205-.7298z" fill="#364154"/><path d="m342.029 71.1738c.199 0 .272.1892.406.2915.267.2069.668.2047.96.3627.757.3938 1.367 1.0302 2.035 1.5576.677.5603 1.246 1.2389 1.679 2.0025.317.5051.668.9613.956 1.4819.133.247.345.4451.483.6676.102.178.171.376.265.5607.126.2799.236.5666.33.8589.114.2003.203.4141.265.6363.042.2225.153.4095.18.6275.045.3894-.205.6497-.552.356-.31-.2603-.537-.7921-.717-1.1437-.301-.5874-.506-1.2104-.86-1.78-.414-.6676-.826-1.3351-1.281-1.9626-.171-.238-.307-.5162-.49-.7431-.124-.158-.285-.2759-.407-.445-.381-.4962-.559-1.0547-1.045-1.4575-.639-.5206-1.323-1.0658-2.207-1.8713z" fill="#364154"/><path d="m320.532 67.3421c.236.8678.648 1.3484 1.337 1.9314.372.3325.782.62 1.222.8566.288.1469.668.3849 1.009.3315 0-.327-.378-.8744-.57-1.1726-.423-.6475-1.009-1.1392-1.383-1.829-.1-.1869-.149-.4138-.258-.5919-.132-.2225-.087-.1735-.314-.2225-.126-.0198-.253-.0243-.379-.0133-.401.0534-.417.4828-.664.7098z" fill="#364154"/><path d="m324.484 63.6374c-.097-.3842-.078-.7884.055-1.1615.221-.6648.565-1.2822 1.014-1.8201 1.084-1.2861 2.227-2.3675 3.879-2.8771.395-.1229.807-.1837 1.221-.1802.176 0 .47-.0601.61.0823.24.247-.321.4451-.526.5252-.781.296-1.536.6578-2.256 1.0814-.557.3604-1.026.8321-1.559 1.2215-.443.2836-.838.6367-1.169 1.0458-.367.5007-.768.9257-1.007 1.5064-.205.4628-.118.643-.262.5763z" fill="#364154"/><path d="m328.085 63.9756c-.187-.1669-.116-.376-.067-.5852.161-.7786.503-1.5087.998-2.1316.53-.6983 1.159-1.3166 1.866-1.8357.314-.2225.762-.4228 1.149-.3093 0 .1447-.131.267-.223.3872-.171.2837-.359.5578-.561.821-.396.4718-.824.8589-1.067 1.4397-.137.2885-.256.5858-.354.89-.042.3038-.117.6021-.222.89-.054.1135-.132.2826-.281.3004-.356-.0113-.704-.1099-1.013-.287-.096-.4139.557-1.3173.686-1.5576" fill="#364154"/><path d="m332.732 60.7249c-.492.0556-.915.5651-1.193.9189-.314.4006-1.058 1.3974-.909 1.9915.049.2025.176.2759.376.3271.488.129.717-.118 1.029-.445.383-.405.891-.8901 1.504-.6676.124.3382-.591.8389-.813 1.048-.183.1714-.619 1.0926-.154 1.1638.236.0356.532-.3583.704-.4896.378-.2689.78-.5034 1.2-.7009.764-.3938 1.688-.4316 2.515-.6386.485-.1015.977-.1677 1.472-.198.31-.0532.623-.0845.937-.0934.317 0 .562.1246.891.1223h.348c.128-.011.254-.0418.374-.0912.202-.0423.485.0512.623-.1424-.22-.2065-.506-.3293-.808-.3471-.223-.0289-.425-.1068-.648-.1224-.365-.0267-.724.0356-1.089-.0178s-.956-.2803-.553-.7699c.147-.1757.755-.3604.575-.6897-.134-.1319-.291-.2382-.463-.3138-.321-.1655-.655-.3047-.998-.4161-.461-.1713-.949-.109-1.432-.109-.356 0-.717-.02-1.073 0-.548.0382-1.087.1575-1.6.3538-.42.1246-.752.4027-.815.3271z" fill="#364154"/><path d="m336.791 66.8793c.018-.3939.648-.6453.922-.7566.891-.3604 1.895-.6675 2.869-.6519.691.032 1.376.1547 2.035.3649.245.0712.838.1157.784.5251-.038.3071-.71.2848-.92.3026-.668.0579-1.309-.02-1.971-.0178-.581 0-1.16 0-1.739 0-.382-.0356-.767-.0356-1.149 0-.314.0779-.555.2871-.831.2337z" fill="#364154"/><path d="m302.988 61.8862c-.185.4984-.446.9991-.479 1.5375 0 .1736-.029.4451.096.5496.311-.4761.465-1.0346.784-1.5086.21-.3203.439-.6272.688-.9189.078-.0913.173-.2225.287-.2225.053.149-.016.1846-.065.3226-.104.2826-.187.5807-.267.87-.174.6408-.445 1.542-.091 2.1739.316-.1157.479-.8655.615-1.1682.245-.5518.465-1.1125.69-1.6621.149-.3738.583-.9746 0-1.1125-.131-.0334-.276-.0379-.397-.069-.152-.0392-.308-.0587-.465-.0579-.148-.016-.297-.0204-.445-.0133-.548.1135-.916.89-1.172 1.2905" fill="#364154"/><path d="m305.311 65.2529c-.015-.2656.05-.5295.184-.7588.212-.506.481-.986.802-1.4307.339-.4806.809-1.1838 1.437-1.2817.107.2604-.094.4584-.21.6676-.254.4672-.461.9523-.706 1.4218-.222.4316-.991 1.3083-1.507 1.2594" fill="#364154"/><path d="m338.659 81.7385c.275.4512.516.9219.722 1.4085.298.7654.554 1.6888 1.031 2.363.209.3064.441.5972.693.8701.133.1401.302.2403.445.3804.143.1402.528.5897.497.0868-.018-.2826-.299-.7498-.424-.9857-.296-.5563-.668-1.0725-1.013-1.5998-.174-.2402-.311-.5049-.407-.7855-.046-.2342-.128-.4596-.245-.6675-.372-.5585-.851-.6253-1.299-1.0703z" fill="#364154"/><path d="m348.884 101.464c-.203-.456-.123-.997-.223-1.4888-.12-.5785-.325-1.1637-.485-1.7334-.279-.9857-.771-1.8646-1.163-2.8058-.359-.8655-.693-1.7378-1.038-2.61-.367-.9323-.864-1.8068-1.231-2.7302-.163-.4094-.223-.9479-.464-1.3194.348-.3316.771.2603.98.4694.803.7586 1.513 1.6102 2.114 2.5366.637 1.0592.768 2.3141 1.312 3.4133.189-.0667.082-.87.084-1.028.016-1.2126-.296-2.3274-.586-3.4934-.222-.9234-.668-1.7667-.928-2.6834-.194-.7054-.557-1.3106-.76-2.0026-.136-.4672-.3-1.1837-.158-1.6821.118-.4161.423-.178.601.1023.586.9234.831 2.1873 1.114 3.2308.283 1.0436.517 2.1228.757 3.1863.089.3894.141.7655.192 1.1571.024.1891.087.3671.109.5563.022.1891-.022.356 0 .5229.108.5464.187 1.0983.236 1.6532.022.3315.118.6163.116.9545-.009.3105.022.6208.091.9235.077.47.077.9495 0 1.4196-.107.7676-.256 1.5241-.67 3.4513z" fill="#364154"/><path d="m350.977 92.8816c-.499.0401-.445-1.4196-.465-1.6977-.07-1.4648-.227-2.924-.47-4.3701-.088-.5046-.128-1.0165-.118-1.5286.026-.4008.026-.803 0-1.2038-.065-.3226-.256-.6007-.312-.9278 0-.1803-.025-.3583-.047-.5363-.031-.0457-.058-.0941-.08-.1446 0-.1157-.058-.3137.1-.3783.37-.1513.766 1.186.795 1.2795.384 1.1832.589 2.4167.611 3.6602 0 .4272.055.7855.093 1.2038.042.4717-.109.9323-.1 1.4062.004.8233-.047 1.7089-.007 3.2375z" fill="#364154"/><path d="m327.738 83.247c1.142.574 2.374 1.2371 3.022 2.3964-.272-.4717-.368-.9946-.702-1.4552-.363-.5316-.841-.9756-1.398-1.2995-.51-.2581-.96-.2225-1.504-.2225" fill="#364154"/><path d="m341.797 112.968c.254 0 .463-.348.581-.532.194-.319.315-.676.353-1.047.039-.37-.006-.745-.13-1.096-.341-1.068-.831-2.127-.566-3.271.153-.581.346-1.152.577-1.707.044.317.118.628.223.931.16.498.222 1.014.352 1.515.043.225.154.431.318.592.109.131.192.171.151.38-.053.272-.189.543-.24.812-.074.385-.029.795-.151 1.182-.239.77-.907 1.399-1.468 2.241z" fill="#364154"/><path d="m344.12 106.466c-.421-.445-.508-1.308-.466-1.865.049-.736.168-1.467.356-2.18-.017.434.019.869.107 1.295.139.583.204 1.181.192 1.78-.025.411-.136.796-.189 1.201" fill="#364154"/><path d="m325.762 185.794c.842-.113 1.781-.727 2.552-1.039 1.48-.569 3.031-.932 4.61-1.079.891-.098 1.858-.256 2.751-.129.608.058 1.22.04 1.824-.056 1.407-.153 2.808-.396 4.231-.396.519 0 1.138-.1 1.639.038.456.111.926.156 1.394.136.35 0 .891.1 1.23 0 .283-.078.77-.367.699-.71-.082-.414-.744-.543-1.044-.683-.902-.423-1.862-.708-2.849-.845-.891-.138-1.88-.034-2.784-.036-.869.024-1.736-.077-2.576-.3-.713-.196-1.45-.668-2.056-1.093-.561-.384-.987-.935-1.216-1.575-.183-.55-.472-1.295-.397-1.867.032-.247.172-.445.196-.697 0-.133 0-.267-.017-.4.004-.043.02-.084.045-.119.026-.036.06-.063.099-.081.094-.365.172-.63.063-.942-.223-.605-.864-.576-1.419-.761" fill="url(#x)"/><path d="m364.167 180.77c-.559.167-1.337.051-1.929.051-1.958 0-3.811-.445-5.739-.667-.28-.028-.563-.011-.838.051-.867.149-1.753.153-2.621.011-.705-.089-1.402-.233-2.085-.432-.423-.135-1.156-.284-1.51-.571-.205-.167-.3-.519-.445-.746s-.321-.298-.074-.527c.229-.134.475-.236.731-.303.571-.158 1.157-.254 1.748-.285.804-.077 1.616-.025 2.403.154.296.064.599.118.891.18.223.047.374.134.595.18.22.047.467-.044.688 0 .113.027.145.143.267.17.123.026.245-.038.359-.018.227.059.45.134.668.222.739.223 1.481.025 2.227.078.491.05.964.214 1.381.478.612.343 1.289.517 1.911.839.149.078 1.512 1.093 1.372 1.135z" fill="url(#y)"/><path d="m329.421 204.329c.102.421 1.318.276 1.648.321 1.307.182 2.626.235 3.931.445 1.33.244 2.636.603 3.904 1.072.626.223 1.272.223 1.898.421.625.198 1.158.614 1.768.878 2.125.924 3.309 2.595 4.639 4.433.912 1.304 1.676 2.705 2.276 4.179.328.778.198 1.49.891 2.031.31.236.728.354 1.051.516.343.175.646.418.891.714 1.029 1.133.891 2.056.891 3.561 0 .701.085 1.453-.058 2.14-.089.259-.164.523-.223.79-.033.338.087.636-.038.959-.338-.049-1.064-1.377-1.405-1.675-.445-.396-.926-.724-1.399-1.082-.561-.425-.841-1.21-1.077-1.867-.51-1.399-.537-3.046-1.183-4.381-.563-1.113-1.307-2.126-2.203-2.995-1.623-1.622-3.32-3.084-5.345-4.199-.779-.429-1.439-1.054-2.174-1.557-.66-.419-1.363-.765-2.097-1.033-.669-.273-1.225-.696-1.905-.921-1.585-.543-2.944-1.021-4.681-2.75z" fill="url(#z)"/><path d="m365.744 239.715c-.517-.786-1.428-1.313-2.132-2.003-1.101-1.121-2.131-2.31-3.084-3.56-.557-.699-1.481-1.64-2.348-1.041-.541.373-.724.974-1.084 1.502-.707 1.006-1.48 1.965-2.314 2.87-.856.952-1.918 1.747-2.508 2.913-.238.467-.446.992-.635 1.475-.258.63-.174 1.063-.309 1.698-.114.538-.446.985-.655 1.49-.998 2.499-3.722 4.689-6.134 5.766-1.391.578-2.695 1.344-3.877 2.278-.653.53-1.363.975-1.918 1.609l-.098.122c-.891.295-1.844.356-2.766.176-1.087-.236-2.004-.714-3.017-1.113-.773-.309-1.559-.596-2.332-.907-1.172-.474-2.31-.158-3.381.413-1.336.715-2.526 1.197-4.114 1.335-2.432.201-4.844.069-7.182-.62-2.45-.726-4.982-1.963-7.185-3.256-4.086-2.398-3.695-8.15-3.882-12.224-.202-4.399-.501-8.774-.465-13.177.022-2.773-1.047-5.801-1.047-8.578 0-1.851.12-3.609.626-5.413.517-1.843 1.307-3.654 2.673-5.014.577-.567 1.228-1.056 1.935-1.453.775-.445 1.412-.934 2.314-1.145.78-.21 1.579-.34 2.385-.388.949-.024 1.858.074 2.793-.162.335-.071.657-.194.953-.365.391-.251.681-.631.818-1.075.343-.988.276-2.002.948-2.879.949-1.228 2.7-2.047 3.987-2.875 1.499-.961 3.024-1.887 4.432-2.979.684-.53 1.977-1.602 1.782-2.646-.027-.147-.196-.204-.223-.305-.011-.193-.038-.385-.08-.574-.223-.456-.446-.318-.869-.445s-.526-.391-1.044-.222c-.379.129-.838.445-1.214.641-1.337.645-1.43 2.605-2.806 3.059-.495.163-.337.14-.836-.071-.445-.189-.498-.036-.79-.514-.78-1.288.799-2.368 1.545-3.177.838-.911 1.446-1.781 2.584-2.404 1.559-.856 3.39-1.497 4.773-2.639 1.837-1.519 2.65-4.12 3.563-6.23.575-1.346 1.287-2.643 1.915-3.965.682-1.433 1.595-2.67 2.495-3.969 1.721-2.479 3.824-4.753 5.964-6.876 1.151-1.141 2.343-2.354 3.617-3.351 1.385-1.083 2.697-2.225 4.207-3.139 1.425-.859 2.741-1.961 4.058-2.975.338-.258.668-.472 1.022-.712.505-.348 1.441-.959 1.695-1.558.405-.946-1.829.082-1.976.136-2.323.849-4.546 1.951-6.628 3.286-2.017 1.304-4.043 2.598-6.075 3.881-.668.42-1.303.89-2.038 1.199-.261.107-1.325.643-1.595.405.263-.736.969-1.435 1.455-2.003 1.149-1.357 2.34-2.645 3.599-3.902 2.251-2.248 4.525-4.255 7.204-5.97.891-.565 2.158-1.217 2.802-2.081.238-.32.238-.358-.024-.583-.263-.224-.907-.144-1.181-.102-1.05.183-2.078.476-3.067.874-5.191 2.039-10.385 4.128-15.039 7.241-1.312.874-2.584 1.889-3.92 2.714-.475.275-.99.477-1.526.597-.343.089-.866.342-1.218.193-.105-.256.174-.422.325-.587.559-.601 1.025-1.277 1.611-1.86.835-.832 1.739-1.589 2.547-2.448.842-.89 1.664-1.813 2.519-2.697 1.417-1.464 2.564-3.028 3.272-4.953.376-1.019.824-1.987 1.011-3.064.16-.916.485-1.984.396-2.926-.026-.282-.164-.921-.398-1.13-.33-.294-.365.038-.597.267-.57.561-1.256 1.028-1.831 1.602-1.317 1.358-2.717 2.631-4.193 3.814-1.433 1.113-2.918 2.158-4.379 3.226-1.011.739-2.004 1.484-3.131 2.041-1.357.667-2.753 1.246-4.087 1.913-.826.412-1.648.81-2.45 1.266-.686.39-1.624.445-2.256.902-.742.542-1.218 1.453-2.004 1.933-.669.412-1.089.928-1.582 1.544-.398.493-.888.904-1.443 1.211-.21.156-.434.293-.668.409-.352.116-.586-.14-.757-.474-.134-.265-.21-.555-.223-.852 0-1.088.461-2.225.541-3.306.065-.926.325-1.829.352-2.76.014-.458.145-1.335-.044-1.74-.918.559-1.822 1.235-2.764 1.832-1.918 1.212-3.938 2.307-5.479 4.005-.925 1.022-1.786 2.099-2.579 3.226-.445.628-.846 1.282-1.301 1.907-.512.705-1.138 1.15-1.781 1.736-.446.405-1.642 1.45-2.285.83-.292-.281-.446-1.113-.486-1.464-.079-.715-.074-1.436.014-2.15.049-.507.59-2.565-.239-2.654-.349-.036-.833.498-1.022.705-.466.509-.724 1.112-1.007 1.733-.583 1.28-1.14 2.55-1.612 3.879-.72 2.027-1.748 3.769-2.967 5.529-.603.903-1.32 1.725-2.131 2.447-.254-.033-.18-.28-.314-.396-.119-.073-.252-.119-.391-.134-.139-.016-.279 0-.411.045-.655.223-1.323 1.335-1.719 1.814-.741.878-1.292 1.9-1.619 3.002-.37 1.257-.697 2.529-1.058 3.782s-.668 2.448-1.138 3.643c-.318.801-.58 1.623-.784 2.461-.446 1.909-1.022 3.782-1.423 5.702-.19.904-.53 1.794-.684 2.699-.093-.088-.152-.206-.167-.333-.196-.65-.241-1.478-.323-2.163-.383-3.195.323-6.522 1.013-9.612.305-1.362.713-2.695 1.04-4.05.252-1.033.386-2.087.628-3.115.136-.688.228-1.384.277-2.083.049-.458.149-.863.071-1.319-.116-.668-.243-1.142-.915-1.449-.673-.307-1.53-.274-2.228-.171-.522.073-1.049.114-1.576.124-.553.018-1.038.241-1.577.33-.737.118-1.443.02-2.174.196-.445.109-.445.053-.697.498-.239.502-.417 1.031-.53 1.575-.198.743-.372 1.471-.523 2.225-.152.755-.49 1.694-.47 2.472.015.603.291 1.151.474 1.712.168.575.296 1.162.383 1.755.223 1.133.789 2.138 1.181 3.206.362.971.816 1.905 1.356 2.788.367.621.733 1.351.739 2.074.012 1.035-.054 2.069-.198 3.093-.022.388-.103.771-.24 1.135-.096.13-.178.269-.245.416.316.142.723-.085 1.028-.182.306-.098.86-.247 1.228-.141.302.089.378.414.467.681.108.411.195.827.261 1.246.129.583.325 1.113.405 1.718.212 1.582.06 3.195.145 4.777.08 1.518-.483 3.269-.795 4.762-.332 1.604-.849 3.16-1.158 4.775-.548 2.864-1.243 6.054-1.054 8.987.065.999.063 2.049.481 2.977.154.281.271.58.35.89.174.904.047 1.947.045 2.864 0 1.48-.047 2.959-.172 4.432-.283 3.285-.276 6.602-.599 9.88-.272 2.777-.154 5.529-.579 8.299-.205 1.169-.513 2.317-.92 3.431-.296.873-.338 1.694-.579 2.548-.483 1.711-1.376 3.133-2.042 4.746-.379.919-.446 1.847-.446 2.817s.265 1.891.261 2.868c0 1.638.432 3.135.793 4.72.166.867.248 1.749.245 2.632.024.625.258 1.206.287 1.827.06 1.252-.922 2.57-1.762 3.388 4.009-.209 7.983.247 11.974.256 2.36-.016 4.718-.157 7.064-.42 1.425-.149 2.831-.445 4.256-.585 1.214-.123 2.494-.083 3.719-.123 2.833-.079 5.668-.005 8.492.223 2.982.222 5.969-.018 8.949.187 2.187.149 4.374.24 6.559.398 1.158.082 2.672.543 3.828.078.697-.281 1.372-.812 1.985-1.235 1.663-1.146 2.775-2.806 3.786-4.519.833-1.413 1.917-2.868 2.525-4.388.851-2.125 1.279-4.359 2.47-6.333.305-.505.466-1.061 1.033-1.244.522-.166.978-.222 1.513-.369.625-.182 1.193-.514 1.828-.667.363-.094.686 0 1.051-.054.305-.038.426-.198.668-.245 1.163-.222 2.573-.022 3.769-.022.606 0 1.227.04 1.83 0 .604-.04 1.285-.265 1.829-.398 1.381-.336 3.051-1.596 4.256-2.474.532-.39.784-.964 1.292-1.335.274-.201.683-.292.991-.43.525-.236 1.098-.26 1.65-.394.661-.198 1.303-.455 1.918-.767.795-.35 1.654-.445 2.449-.777 2.263-.914 3.702-3.538 5.023-5.44.668-.982 1.461-2.301 1.507-3.529.029-.739.125-1.763-.282-2.383z" fill="url(#A)"/><path d="m350.338 251.941c.089 0 .173-.035.236-.097.063-.063.098-.148.098-.236 0-.089-.035-.174-.098-.236-.063-.063-.147-.098-.236-.098s-.174.035-.236.098c-.063.062-.098.147-.098.236 0 .088.035.173.098.236.062.062.147.097.236.097z" fill="url(#B)"/><path d="m300.662 218.948v.124c.257-.705.185-1.43.185-2.171 0-1.059 0-2.121 0-3.182 0-2.105-.171-4.19-.173-6.299-.003-2.11-.081-4.27 0-6.395.044-1.335.258-2.692.358-4.034.089-1.179.341-2.37.523-3.538.201-1.291.404-2.577.542-3.876.102-.97.423-1.9.499-2.875.122-1.584.621-3.115.877-4.673.256-1.557.508-3.07.735-4.61.114-.768.347-1.509.485-2.272.15-.823.261-1.649.39-2.474.254-1.602.541-3.189.922-4.766.243-.999.317-2.003.582-3.009.171-.634.282-1.283.445-1.922.176-.721.461-1.437.445-2.181 0-.83.502-.992 1.054-1.479.445-.385.73-.89 1.209-1.266.766-.59 1.532-1.184 2.283-1.796 1.067-.866 2.122-1.818 3.098-2.781.274-.272.668-.957 1.071-1.037l-6.1.173c-.513 1.032-1.079 2.037-1.695 3.011-.824 1.346-1.61 2.712-2.499 4.021-.966 1.424-1.69 2.957-2.608 4.407-1.189 1.881-2.198 3.85-3.385 5.735-.866 1.372-1.92 2.647-2.69 4.08-.446.826-.668 1.723-1.247 2.486-.42.529-.787 1.099-1.096 1.7-.775 1.591-1.559 3.173-2.394 4.728-.343.641-.778 1.288-1.034 1.96-.289.763-.445 1.611-.692 2.397-.501 1.588-1.147 3.197-1.383 4.844-.199 1.375-.669 2.79-.722 4.174-.047 1.179-.196 2.353-.445 3.507-.299 1.426-.546 2.852-.86 4.276-.261 1.191-.278 2.354-.592 3.534-.223.89-.239 1.729-.517 2.612-.201.639-.475 1.146-.457 1.82.014.552-.118.763-.325 1.244-.14.325-.485.934-.51 1.319l-.212.052" fill="url(#C)"/><path d="m170.985 170.886c-.683.685-1.336 1.429-2.071 2.058-1.272 1.093-2.817 1.972-4.209 2.906-2.61 1.754-4.693 4.061-6.73 6.417-.577.668-1.613 1.135-1.833 2.003-.25.972-.459 1.905-.058 2.806.26.665.713 1.238 1.3 1.646.343.236.702.445 1.06.655.288.171.798.351.985.64.223.336 0 .979.076 1.362.051.294.374.712.445.993.174.696.445 1.74 1.091 2.225.381.296.918.514 1.337.785.411.262.848.481 1.305.652.265.107.855.191.993.51.138.318-.417.936-.548 1.299-1.276 3.527 3.537 5.807 6.334 5.974.942.058 1.913-.02 2.857 0 .753 0 1.323-.251 2.054-.269.197.01.395.01.592 0 .194-.059.384-.129.57-.209.488-.107 1-.049 1.51-.058 1.559-.027 2.766.992 4.112 1.698 1.699.89 3.454 1.842 5.287 2.416s3.659.844 5.49 1.298c2.017.486 4.063.851 6.124 1.092 3.477.427 6.976.823 10.334 1.914.953.309 1.842.607 2.755.988.494.204.987.293 1.459.542.472.25.862.55 1.37.764 2.449 1.028 4.38 3.068 6.483 4.641 2.046 1.531 3.857 3.371 5.801 5.027.568.482 1.221.87 1.782 1.357.445.38.762.861 1.185 1.255.947.836 1.941 1.617 2.978 2.338 1.781 1.295 3.46 2.671 5.269 3.937.228.159.432.351.606.569.427.445.935.652 1.396 1.05.969.837 1.927 1.634 2.88 2.504.719.667 1.47 1.284 2.196 1.938.804.725 1.688 1.186 2.554 1.815.815.592 1.559 1.246 2.368 1.841.946.692 1.902 1.295 2.868 1.96 1.747 1.244 3.582 2.359 5.49 3.337.868.455 1.699.975 2.485 1.558.954.668 2.192 1.086 3.252 1.586 1.927.906 3.817 1.872 5.768 2.74.938.416 1.94.996 2.927 1.248 1.316.334 2.501.983 3.806 1.304 4.481 1.112 8.877 2.503 13.405 3.391 1.815.384 3.651.665 5.499.841.343.027.525.162.833.209.574.091 1.131.018 1.701.118.274.047.488.178.78.222.619.078 1.231-.093 1.855.045 1.485.331 3.02.392 4.559.458.242-.007.484.015.721.065.433.095.872.161 1.314.196.709.08 1.274.271 2.034.267.657 0 1.372-.094 2.004.024.813.147 1.653.178 2.45.369.557.132 1.007.116 1.488.359.528.267.922.698 1.407 1.077l1.831-.784c1.004.285 1.492.239 2.434-.073.315-.1.64-.163.969-.187.583-.091 1.152-.255 1.695-.487.717-.272 1.416-.589 2.093-.948.633-.329 1.101-.843 1.782-1.113 1.197-.491 2.284-1.218 3.194-2.138.915-.946 1.336-2.514 1.837-3.689.285-.648.339-1.382.517-2.065.19-.68.324-1.376.398-2.078.148-1.717.011-3.446-.405-5.118-.527-1.886-1.274-3.704-2.227-5.416-1.024-1.913-1.877-4.112-3.276-5.812-.468-.567-.918-1.019-1.287-1.662-.241-.414-.517-.805-.78-1.204-.647-.946-1.369-1.839-2.16-2.67-1.702-1.842-3.394-3.876-5.49-5.304-.918-.623-1.842-1.237-2.739-1.885-.395-.277-.816-.516-1.256-.712-.493-.242-.825-.681-1.314-.901-3.75-1.682-7.703-2.868-11.76-3.527-4.162-.654-8.4-1.079-12.596-1.78-2.435-.409-4.867-.505-7.287-.99-.713-.14-1.421-.062-2.134-.171s-1.443-.323-2.163-.47c-1.242-.256-2.432-.507-3.683-.719-1.252-.211-2.508-.422-3.755-.652-1.35-.249-2.673-.287-4.031-.596-1.359-.309-2.751-.305-4.091-.643-1.237-.311-2.45-.594-3.651-.99-.835-.274-1.744-.263-2.57-.567-.554-.203-1.027-.577-1.599-.739-1.218-.345-2.51-.69-3.664-1.226-1.3-.603-2.688-.908-4.053-1.335-.777-.241-1.463-.706-2.227-.97-.599-.205-1.183-.465-1.766-.712-1.336-.572-2.726-1.26-4.12-1.676-.501-.132-.988-.315-1.452-.545-.584-.305-1.23-.361-1.82-.639-1.129-.536-2.203-1.281-3.327-1.849-.974-.494-2.036-.807-2.933-1.426-1.669-1.15-3.697-1.769-5.497-2.688-1.425-.727-2.931-1.037-4.436-1.395-1.807-.425-3.561-1.05-5.23-1.862-1.563-.784-3.054-1.704-4.454-2.751-2.951-2.162-5.724-4.585-8.637-6.851-.92-.725-1.793-1.507-2.614-2.343-.366-.371-.602-.785-1.025-1.112-.557-.445-1.055-.877-1.581-1.335-.891-.797-1.782-1.714-2.777-2.392-.368-.254-.8-.356-1.152-.628-.272-.249-.53-.513-.772-.792-.669-.667-1.495-1.192-2.09-1.887-.561-.667-1.149-1.284-1.708-1.938-.325-.357-.674-.694-1.042-1.008-.359-.333-.668-.445-1.062-.723-.608-.427-1.049-.981-1.782-1.221-.733-.241-1.394-.71-2.147-.944-.354-.109-.71-.111-1.042-.267-.468-.222-.833-.538-1.337-.71-.99-.327-1.953-.735-2.877-1.219-.987-.525-2.004-.943-2.978-1.451-1.752-.89-3.461-1.838-5.191-2.808-.612-.344-1.245-.649-1.895-.914-.577-.223-1.063-.241-1.642-.347-.427-.08-.708-.243-1.173-.241-.362.005-.722-.04-1.072-.131-.548-.129-.986-.085-1.532-.116s-1.042-.242-1.581-.282c-1.962-.145-3.84-.668-5.746-1.095-1.138-.251-2.294-.614-3.419-.923-.975-.267-2.053-.472-2.982-.848-.612-.247-1.145-.499-1.813-.523-.133 0-.263 0-.396-.016-.168-.042-.343-.042-.51 0-.359.167-.379.841-.421 1.177-.066.535.027 1.076.267 1.558.202.341.434.663.695.961.294.357.606.698.935 1.022.525.52 1.148.933 1.833 1.212.272.118.512.289.782.41.209.095.434.169.635.284.253.162.515.311.784.445.302.132.628.223.931.376 1.282.608 2.672.96 4.037 1.393.579.185 1.183.321 1.782.468.347.086.697.144 1.045.233.142.036.307.04.445.08.176.052.281.152.457.223.238.084.478.125.719.222.24.098.494.092.735.17.775.247 1.465.729 2.147 1.163.757.481 1.401 1.16 2.118 1.691.396.296.891.468 1.283.75.391.295.823.53 1.282.699.891.296 1.624.914 2.499 1.219.625.209 1.223.491 1.782.839.267.174 1.114.394 1.056.817-.055.161-.137.311-.243.445-.544.793-1.129 1.557-1.753 2.289" fill="#f4caab"/><path d="m323.931 276.684c1.298-2.765 2.69-5.805 5.661-7.22 2.107-1.004 4.793-.984 7.06-1.4 2.538-.462 5.103-.759 7.679-.89 2.276-.115 4.506.278 6.791 0 1.158-.14 2.586-.387 3.499-1.186 1.799-1.571-1.731-2.358-2.822-2.376-.891-.018-1.742.276-2.626.298-1.005.048-2.012.025-3.013-.069-2.005-.233-4.029-.111-6.013-.487-2.092-.398-4.21-.61-5.965-1.878-.668-.487-1.311-1.255-2.149-1.306-.512-.031-.966.015-1.336.287-.432.314-.809.937-1.136 1.355-2.196 2.783-4.009 5.885-5.886 8.878" fill="url(#D)"/><path d="m264.758 165.846c-.285.056-.403.606-.505.835.223.071.445 0 .684.031.238.031.296.14.507.189.337.078.789 0 1.02.374.096.149.054.501.045.667-.04.744-.14 1.531-.223 2.272-.11.636-.143 1.283-.098 1.927.089.761.248 1.515.354 2.276.107.761.366 1.335.669 2.05.238.567.316 1.195.556 1.764.138.321.357.581.524.89.167.31.265.583.445.839.223.327.541.521.735.859.126.169.262.329.408.481.122.166.12.358.256.52.165-.54-.025-1.032-.223-1.535-.272-.697-.477-1.38-.791-2.065-.552-1.204-.781-2.792-.866-4.107-.071-1.097-.363-2.27-.136-3.389.223-1.082.29-2.194.524-3.273.07-.257.174-.503.309-.732.069-.134.341-.503.339-.63 0-.385-.891-.87-1.212-1.073-.603-.371-1.231-.378-1.915-.387-.553-.009-.969.374-1.406 1.217z" fill="url(#E)"/><path d="m283.583 161.841c-.782.77-1.243 1.714-1.918 2.577-.312.396-.733.594-1.085.943-.278.296-.623.519-1.006.652-.343.138-.544.419-.873.581-.279.138-.499.078-.784.138s-.472.223-.784.167c-.31-.062-.61-.166-.891-.309-.143-.08-.417-.285-.339-.468.058-.133.504-.256.644-.32.762-.345 1.59-.209 2.321-.605.243-.116.461-.279.641-.48.179-.202.315-.437.401-.693.071-.222.185-.492.056-.667-.13-.176-.379-.125-.517-.305.385.052.776.043 1.158-.027.356-.107.708-.298 1.047-.398.601-.178 1.349-.641 1.929-.786z" fill="url(#F)"/><path d="m304.497 209.554c-.563.127-.933 1.508-1.015 1.964-.107.597-.413 1.558.169 2.003.581.445 1.467.171 2.1 0 1.267-.332 2.514-.694 3.815-.854 2.39-.296 4.804-.27 7.058.614.744.293 2.287 1.177 2.318 2.162-.329.016-.398.377-.668.397-.125.011-.223-.161-.338-.196-.116-.036-.297-.034-.446-.076-1.274-.385-2.563-.683-3.922-.623-1.541.067-3.062.641-4.59.703-.386.011-.767.082-1.131.209-.098.043-.183.181-.292.223-.168.049-.34.082-.515.098-.209.06-.398.289-.616.34-.322.038-.647.038-.969 0-.323-.013-.477-.149-.78-.18-.346-.018-.687-.089-1.011-.211-.53-.223-1.044-.445-1.307-.955-.133-.231-.238-.477-.314-.732-.156-.788.721-1.907 1.06-2.448" fill="url(#G)"/><path d="m279.398 256.919c-.145.874.692 2.172.953 2.966.808 2.476 1 5.084 2.022 7.492.287.683.51 1.591 1.089 2.096.764.667 1.145-.025 1.837-.316.446-.185.86-.236 1.274-.521.394-.326.762-.681 1.101-1.063.616-.552 1.256-1.071 1.919-1.558 1.305-1.112 2.648-2.123 4.009-3.16.488-.371.835-.943 1.321-1.279.187-.131.554-.165.77-.296.303-.178.976-.612 1.02-.99-.331-.105-.643 0-.973-.098-.027-.145-.058-.287-.096-.427l-.222-.051" fill="url(#H)"/><path d="m286.371 105.691c.091-.122.154-.051.254-.082.152-.049.301-.108.445-.176.386-.18.72-.445 1.145-.507.283-.049.978-.102.668.323-.165.223-.351.43-.554.618-.143.14-.181.24-.386.26-.614.065-1.22-.235-1.833-.175" fill="#f4caab" opacity=".45"/><path d="m313.212 139.377c-.053.205.123.425.194.61.183.467.254.879.508 1.31.197.335.372.683.523 1.042.138.327.33.562.484.87.153.307.16.64.316.936.192.349.333.724.416 1.113.143.667.501 1.284.526 1.965 0 .222 0 .445.04.652.02.155.058.106.049.295 0 .121-.094.21-.085.339 0 .075.132.187.172.271.04.085-.049.223.02.318.1.14.592.33.759.37.658.129 1.34.034 1.938-.27.51-.262 1.18-.324 1.581-.787-1.43 1.019-3.18 1.557-4.723 2.356-.515.269-.967.53-1.502.766-.256.113-1.024.594-1.211.291-.143-.222.118-.407.176-.59.091-.407.154-.819.189-1.235.069-.425.205-.834.287-1.252.058-.453.072-.909.041-1.364.016-.289.016-.579 0-.868-.032-.276-.154-.414-.185-.685-.15-1.338.055-2.668-.513-6.453z" fill="#efbc90"/><path d="m333.779 111.864c.049.222.254.329.446.445.483.314.906.5 1.303.934.797.873 1.536 1.758 1.991 2.866.318.783.541 1.569.957 2.285.235.353.507.679.813.973-.223-.223-.104-1.017-.187-1.335-.074-.308-.104-.625-.089-.941 0-.303-.1-.381-.158-.626-.105-.445.067-.856-.223-1.252-.577-.775-1.559-1.189-2.403-1.605" fill="#efbc90"/><path d="m309.029 159.665c.178-.196.631-.38.856-.498.445-.223.915-.367 1.349-.594.642-.33 1.181-.801 1.829-1.113.701-.34 1.485-.558 2.1-1.057.372-.302.635-.667 1.055-.923.352-.206.682-.445.987-.714.191-.167.411-.297.648-.385.72-.314 1.379-.586 2.274-.468 2.1.274 4.252.701 6.354 1.113.833.162 1.59.374 2.423.458.361.036.573.183.902.276.33.094.575-.098.824.261-.178-.036-.755.2-.946.253-.319.091-.588.194-.907.272-.318.078-.822 0-1.185 0-.222.021-.446.021-.668 0-.171-.04-.314-.176-.445-.212-.72-.204-1.671-.06-2.426-.06h-2.474c-1.61 0-3.229-.049-4.837 0-.944.029-1.635.739-2.477 1.055-.336.127-.701.158-1.053.254-.463.118-.617.198-4.183 2.082z" fill="url(#I)"/><path d="m305.718 159.055c-.06-.645.167-1.388.354-1.986.381-1.209.855-2.386 1.222-3.601.136-.445.395-1.081.348-1.557-.029-.305-.149-.523-.207-.839-.432-.085-.88-.028-1.276.162-.292.129-.535.374-.842.479-.223.075-.446-.016-.584.222.203 0 .588-.084.775.027.239.14.17.345.223.572.124.543.177 1.099.158 1.655v1.567c.002.983.123 1.969-.171 3.299z" fill="url(#J)"/><path d="m300.662 195.189c0 1.862-.668 7.808 2.602 7 1.416-.35 2.728-1.429 4.189-1.522 1.04-.067 2.45-.416 3.149.529.724.982-.241 1.407-.993 1.894-1.539.992-2.495 2.574-3.985 3.591-1.61 1.097-2.757 3.138-3.935 4.673-.744.963-.739 2.145-1.258 3.115l.222.06" fill="url(#K)"/><path d="m328.104 260.751c1.014.097 1.782-.652 2.493-1.318.813-.767 1.4-2.305 2.47-2.814.732-.352 1.839-.354 2.627-.512.976-.194 1.898-.089 2.876-.385.891-.267 1.781-.445 2.548-.973.795-.565 1.556-1.178 2.278-1.835 1.182-1.068 2.45-1.945 3.481-3.149 1.084-1.261 2.349-2.327 2.993-3.84.185-.445.131-.83.256-1.311.114-.445.532-.736.797-1.097.606-.825 1.09-2.187 2.241-2.336.41 1.017-.321 1.76-.751 2.572-.563 1.059-.445 2.134-.777 3.255-.265.906-.254 1.816-.523 2.719-.203.708-.443 1.404-.72 2.085-.271.655-.423 1.215-.786 1.82-.492.822-.721 1.113-1.559 1.627-.837.514-1.697 1.15-2.628 1.52-.997.396-2.104.356-3.142.647-1.038.292-1.679-.024-2.673-.082-.695-.037-1.391-.037-2.087 0-1.077.058-2.289.912-3.117 1.557-.683.52-1.284 1.14-1.782 1.838-.236.347.071.316-.285.597-.205.158-.508.167-.746.247-.301.1-.446.287-.844.209-.285-.054-.497-.238-.784-.287-.519-.071-1.435.24-1.856-.754z" fill="url(#L)"/><path d="m268.244 260.228c-.094.721.318 1.335.668 1.947.785 1.332 2.038 2.325 3.514 2.788.597.182 1.225.164 1.802.4.554.25 1.077.563 1.559.933.682.498.956 1.295 1.559 1.84-.249.912-1.365.983-2.167.976-1.067 0-2.004.152-3.033.259-.632.064-1.248.241-1.817.522-.252.127-.606.223-.796.405-.325.328-.144.853-.512 1.162" fill="url(#M)"/><path d="m290.99 185c.018-1.024.339-1.62.668-2.621.499-1.54.381-3.08.381-4.673 0-.968-.628-6.437 1.185-6.308.8.056.581.857.831 1.411.117.233.282.44.482.607.201.167.434.291.685.365.297.086.613.081.908-.013s.554-.274.747-.516c.349-.417.935-1.416 1.398-1.558.08.445-.686 1.738-.911 2.098-1.532 2.463-2.83 5.036-4.278 7.545" fill="url(#N)"/><path d="m297.526 186.219c.82-1.915 1.733-3.947 2.965-5.66.345-.452.644-.938.891-1.451.101-.287.244-.557.423-.803.157-.152.306-.312.445-.481.145-.222.172-.445.334-.667.211-.238.394-.497.548-.775.149-.318.298-.645.459-.963.423-.839.606-1.68.871-2.575.303-1.012.485-2.056.786-3.07.142-.49.223-.997.347-1.489.138-.561.051-1.168.259-1.718.421-1.123.271-2.554.017-3.655-.07-.002-.138-.018-.202-.048-.063-.03-.119-.073-.165-.126-.498.204-.92.557-1.209 1.01-.22.338-.416.69-.588 1.055-.223.42-.508.667-.704 1.126-.254.589-.601 1.095-.891 1.649-.127.24-.285.467-.396.696-.094.205-.155.422-.183.645.224-.433.559-.799.971-1.061.314-.236.477-.285.704.067.277.48.43 1.023.445 1.577 0 2.401-2.842 3.503-4.033 5.214-1.027 1.477-1.336 3.179-1.922 4.85-.325.942-.207 1.954-.423 2.893-.112.489.091.79.087 1.313v.783c-.007.314.118.505.164 1.664z" fill="url(#O)"/><path d="m299.791 199.812c.006.341-.037.68-.127 1.008-.21 1.176-.338 2.366-.383 3.56-.093 2.09-.013 4.201-.013 6.295v2.368c0 .531.156.959.174 1.481.013.463.432.797-.261.786-.445 0-.73-.272-1.113-.361-.116-.026-.254.047-.368.02-.113-.026-.138-.126-.205-.146-.22-.037-.445-.048-.668-.034-.287-.013-.505-.151-.786-.184-.243-.014-.487-.014-.73 0 .11.028.226.024.334-.013s.202-.106.271-.197c.08-.104.06-.28.136-.398.107-.171.303-.251.397-.445.32-.638.151-1.399.289-2.085.071-.447.099-.9.085-1.353 0-.5.191-.936.182-1.441-.022-1.113.297-2.248.519-3.338.354-1.747.639-3.5 1.176-5.191.158-.587.346-1.165.566-1.731.223-.508.332-1.113.706-1.529-.007.28-.007.554-.181 2.928z" fill="url(#P)"/><g fill="#f4caab"><path d="m296.653 95.6785c.864-.85 1.686-1.6666 2.78-2.2251 1.024-.5206 2.084-.9656 3.102-1.4418.445-.2069.958-.2425 1.439-.3605.395-.1275.81-.1803 1.225-.1557.83.0979.69 1.3506.692 2.0025.031.498-.027.9975-.171 1.4753-.196.574-.602 1.4752-1.009 1.9402-.742.8411-1.717 1.3551-2.659 1.9336-.488.2982-.971.7388-1.559.8389-.418.049-.841.049-1.259 0-.829-.1142-1.598-.4999-2.184-1.097-.398-.3617-.655-.8513-.727-1.3833-.073-.532.044-1.0725.33-1.5271z"/><path d="m319.72 97.8747c.058.2959.599.3849.83.3337.566-.1246 1.145-.5028 1.637-.7988.245-.1091.464-.2666.646-.4628.071-.0957.283-.3493.27-.4717-.027-.2848-.41-.2225-.595-.2225-.69 0-1.156.5095-1.748.8433-.416.2663-.896.4155-1.39.4317"/><path d="m325.762 85.3364c.548.5667.973 1.2401 1.25 1.9781.346.8707.514 1.8023.492 2.7391v1.9581c.035.2573-.005.5194-.116.7543-.166.2459-.362.4701-.584.6675-.236-.4183-.207-1.0302-.258-1.493-.087-.8011-.042-1.611-.178-2.4054-.04-.2358-.016-.465-.051-.7053-.036-.2403-.132-.4717-.181-.7009-.061-.2954-.147-.585-.258-.8656-.223-.5629-.37-1.1615-.813-1.6154-.215-.1927-.45-.3614-.701-.5028-.156-.1024-.544-.2782-.566-.4695.474-.1402.966.1468 1.964.6608z"/><path d="m332.617 136.88c.034-.273.167-.532.207-.812.054-.374.076-.756.112-1.132.131-1.382.08-2.757.156-4.137.057-1.037.104-2.056.106-3.095 0-.765-.129-1.511-.12-2.276 0-.523-.1-1.004-.118-1.52-.018-.474 0-.952 0-1.428 0-.477-.158-1.324.145-1.723.379.127.617.686.704 1.037.26 1.07.412 2.17.654 3.244.136.601.368 1.175.528 1.769.127.51.304 1.007.528 1.482.343.697.486 1.48.927 2.125.287.418.686.803.89 1.244.205.441.094.832-.138 1.286-.494.94-1.152 1.784-1.944 2.492-.309.278-.652.485-.969.748-.458.396-.797.48-1.668.696z"/><path d="m314.025 120.978c.204-.191.37-.417.49-.668.172-.271.37-.529.557-.792.343-.483.684-.964 1.016-1.453.222-.336.552-.625.732-.984.123-.244.183-.514.314-.758.223-.394.497-.815.493-1.273-.007-.355-.096-.703-.261-1.017-.051-.152-.089-.308-.114-.467-.075-.177-.173-.343-.291-.494-.119-.15-.217-.314-.292-.49-.123-.243-.268-.476-.432-.694-.256-.426-.486-.868-.688-1.322-.17-.416-.207-.874-.105-1.312.185.044.278.396.381.56.156.245.334.457.477.712.152.349.374.663.652.924.296.232.577.483.842.75.411.399.784.836 1.113 1.306.208.302.51.572.637.912.151.457.217.937.194 1.417-.015.528-.28.873-.594 1.278-.255.372-.548.717-.873 1.03-.202.203-.426.381-.669.532-.234.129-.458.278-.668.445-.793.589-1.85.923-2.911 1.858z"/><path d="m290.727 124.402c-.133-.527-.744-.518-.499-1.268.305-.928 1.588-.755 2.339-.901 1.131-.223 2.024-.775 3.071-1.213.325-.138.681-.256 1.02-.369.339-.114.53-.156.526.269 0 .576-.715 1.239-1.101 1.617-.503.499-1.055.947-1.648 1.335-.344.23-.712.421-1.098.57-.318.129-.617.389-.953.465-.239.029-.479.041-.719.036-.265.026-.517-.056-.938-.541z"/><path d="m281.838 103.796c-.08-.354.519-.806.704-1.055.1-.117.205-.228.316-.334.103-.12.13-.391.357-.345.06.258-.063.354-.107.563-.054.256.176.525.189.77s-.047.26-.294.287c-.113 0-.238-.031-.352 0-.113.031-.222.105-.347.122"/><path d="m216.08 111.225c-.051.171-.236.187-.356.314-.128.173-.215.372-.256.583-.074.262-.089.538-.044.807.044.269.147.525.302.75.465.557 1.307.688 1.98.692.361 0 .501-.026.728-.32.25-.311.459-.653.621-1.017.107-.291.27-.559.479-.788.21-.166.668-.098.904-.024.237.073.477.234.753.296.305.064.596.184.858.354.198.142.34.38.532.54.286.234.544.499.771.79.28.36.529.742.746 1.144.099.169.186.345.258.527.129.372.376.57.561.901.12.223.138.457.279.668.14.211.314.409.469.607.29.372.693.517 1.078.766.464.3.98.518 1.392.93.185.16.319.37.386.605.029.361-.459.69-.573 1.01-.113.321 0 .73.065 1.033.022.15.078.294.164.419s.2.229.333.304c.378.26.808.552 1.287.407.799-.242.668-1.591.432-2.183-.129-.234-.278-.458-.446-.667-.113-.192-.129-.423-.247-.612-.223-.338-.554-.61-.795-.926-.445-.578-1.14-.972-1.617-1.528-.263-.305-.423-.681-.699-.995-.149-.169-.316-.318-.468-.487-.209-.236-.3-.539-.521-.768-.334-.343-.459-.732-.73-1.112-.208-.288-.408-.572-.606-.864-.392-.572-.797-1.014-1.463-1.208-.132-.038-.268-.105-.39-.134-.078-.015-.169.032-.245.014s-.105-.098-.178-.114c-.165-.029-.359.036-.519 0-.051-.013-.107-.091-.134-.098-.105-.024-.209 0-.314-.035-.365-.094-.764-.265-1.129-.392-.205-.072-.415-.13-.628-.176-.223-.051-.399-.189-.626-.222-.317-.024-.632-.065-.944-.122-.128-.059-.263-.101-.401-.125-.307-.029-.572.216-1.049.456z"/><path d="m221.183 101.019c.082.287-.276.282.024.549.113.083.244.137.382.158.138.02.279.008.411-.038.126-.052.263-.074.399-.066.137.009.269.049.387.118.15.111.26.267.314.445.094.396.228.782.399 1.152.302.535.698 1.011 1.169 1.404.417.381.855.737 1.314 1.066.099.084.203.163.31.236.12.062.265.064.37.147-.767-.543-1.314-1.44-1.731-2.272-.256-.51-.352-1.144-.632-1.622-.143-.204-.299-.397-.468-.579-.194-.236-.301-.445-.581-.556-.105-.048-.213-.088-.323-.12-.121-.027-.283-.098-.375-.116-.32-.069-.567-.151-1.369.094z"/><path d="m244.889 144.312c0 .247.325.616.445.799.283.407.601.772.86 1.197.626 1.026 1.234 2.06 1.833 3.099.229.417.497.812.801 1.178.223.24.47.445.669.687.467.579.984 1.206 1.623 1.604.645.383 1.249.83 1.802 1.335.445.421 1.02.679 1.456 1.093.25.277.532.523.84.732.258.16.493.354.697.578.59.559 1.139 1.16 1.641 1.798.446.626.994 1.162 1.439 1.78.446.619.891 1.233 1.283 1.872.336.531.61 1.112.94 1.637.087.141.207.223.301.354.141.215.27.438.385.668.363.649.661 1.333.891 2.04.122.356.283 1.035.568 1.288.071-.093.171-.153.222-.258.052-.104.031-.253.078-.376.087-.154.185-.303.292-.445.101-.237.186-.481.252-.73.091-.238.28-.445.329-.694.076-.391-.109-.656-.291-.981-.377-.668-.916-1.268-1.337-1.92-.165-.254-.392-.445-.563-.701-.172-.256-.354-.505-.553-.746-.161-.171-.334-.331-.518-.478-.223-.207-.417-.465-.637-.688-.419-.406-.865-.782-1.337-1.125-.287-.223-.423-.521-.699-.737s-.499-.378-.744-.576c-.178-.143-.283-.363-.445-.501-.083-.071-.196-.078-.288-.162-.256-.238-.445-.537-.723-.759-.703-.536-1.443-1.02-2.216-1.449-.209-.129-.405-.278-.586-.445-.195-.167-.399-.322-.613-.465-.354-.245-.691-.515-1.008-.807-.365-.356-.754-.687-1.163-.991-.194-.134-.369-.294-.521-.476-.177-.203-.372-.39-.581-.558-.446-.419-.789-1.019-1.163-1.507-.409-.529-.764-1.097-1.06-1.697-.181-.342-.388-.671-.619-.982-.127-.184-.279-.398-.414-.578-.136-.18-.292-.278-.421-.445-.355-.508-.738-.996-1.147-1.462z"/><path d="m231.873 126.084c.321.352.519.806.807 1.182.407.538.817 1.07 1.229 1.604.317.47.677.909 1.076 1.313.325.294.648.585.96.89.525.527.98 1.112 1.51 1.626.3.271.576.569.821.89.172.215.311.453.412.708-.155 0-.26-.129-.376-.222-.177-.144-.38-.253-.597-.323-.548-.187-1.129-.223-1.684-.376-.256-.1-.504-.218-.743-.354-.254-.074-.496-.181-.722-.318-.204-.175-.39-.368-.557-.579-.226-.215-.436-.447-.628-.694-.207-.292-.395-.597-.563-.912-.092-.176-.114-.37-.207-.536-.065-.114-.152-.19-.21-.305-.276-.55-.278-1.235-.521-1.803-.107-.3-.188-.609-.243-.923-.075-.345-.189-.632.236-.868z"/><path d="m232.115 114.369c.145 1.424.539 2.828.586 4.268.043.561.033 1.125-.031 1.684-.1.488-.112.99-.034 1.482.143.757.389 1.491.731 2.181.118.244.252.483.376.718.069.129.259.388.234.541-.011-.222.016-.445 0-.652-.015-.282-.156-.534-.122-.819"/><path d="m295.956 74.2509c.069-.3983.548-.7676.851-.999.61-.4592 1.262-.8593 1.948-1.1949.493-.2381 1.357-.405 1.911-.2225.655.2225.348 1.5731.176 2.0493-.304.7401-.843 1.3599-1.534 1.7645-.446.247-.94.4116-1.401.6386-.412.2211-.886.2993-1.348.2225-.4-.105-.773-.2972-1.091-.563-.093-.0951-.155-.2159-.179-.3467s-.008-.2658.046-.3875c.222-.7721.79-1.4842 1.144-2.1917"/><path d="m240.007 202.763c.592.033 1.249.516 1.75.783 1.279.681 2.517 1.424 3.824 2.052 2.535 1.215 5.069 2.412 7.735 3.311 1.768.598 3.488 1.183 5.345 1.468.849.131 1.677.338 2.532.445 1.15.143 2.299.274 3.439.474 2.114.369 4.303.361 6.396.797 2.176.445 4.314 1.094 6.459 1.642 1.675.425 3.272 1.037 4.967 1.393 1.821.38 3.643.925 5.445 1.397 3.096.81 6.151 1.613 9.178 2.688 1.421.505 2.775 1.193 4.209 1.673.644.223 1.281.354 1.922.594.737.281 1.468.563 2.196.868 1.218.514 2.45.999 3.67 1.486.614.248 1.21.538 1.782.87.706.401 1.466.637 2.209.957 1.034.445 2.141.77 3.118 1.311.877.451 1.796.816 2.744 1.088.468.151.947.249 1.419.387.243.073.802.396 1.076.278.548-.236-.172-1.35-.361-1.622-.566-.855-1.208-1.658-1.918-2.399-.418-.422-.875-.803-1.307-1.21-.615-.579-1.163-1.208-1.84-1.716-.966-.723-1.897-1.557-2.957-2.133-.49-.27-.925-.512-1.388-.824-.668-.445-1.523-.616-2.227-1.034-2.786-1.647-6.138-2.225-9.285-2.791-.686-.12-1.372-.155-2.053-.26-.744-.113-1.457-.071-2.201-.147-1.51-.153-3.033-.354-4.538-.549-1.205-.156-2.424-.025-3.604-.267-.637-.132-1.336-.014-1.98-.034-.643-.02-1.316-.187-2.004-.182-2.379.022-4.564-.668-6.875-1.128-1.372-.272-2.8-.488-4.121-.959-1.122-.414-2.287-.701-3.474-.855-2.65-.316-5.298-.36-7.931-.805-.648-.109-1.336-.205-1.986-.256-.599-.047-1.158-.223-1.751-.329-.991-.172-1.964-.606-2.895-.955-1.078-.398-2.183-.734-3.292-1.046-1.281-.38-2.535-.849-3.75-1.404-.37-.162-.795-.251-1.147-.445-.254-.142-.446-.385-.697-.527-.504-.292-1.114-.414-1.644-.701-1.441-.774-2.917-1.48-4.189-1.384z"/><path d="m143.318 153.444c-.089.169-.116.478.042.576.096.06.223.043.334.112.323.222.581.507.92.709.261.154.537.28.824.376 1.882.639 3.704 1.582 5.721 1.751 1.337.114 2.602.563 3.927.692 1.084.107 2.162.405 3.214.655.39.099.787.173 1.187.222.307.031.554.16.866.178l.668.04c.341.023.68.066 1.016.127.127.036.248.091.358.165.127.035.261.035.388 0 .278-.02.512.129.786.167.224.032.452.015.668-.052.348-.104.684-.382.523-.776-.222-.576-.908-.69-1.434-.819-.354-.089-.701-.131-1.058-.207-.462-.108-.932-.183-1.405-.222-.199-.001-.397-.013-.595-.038-.236-.045-.49-.096-.728-.125-.817-.098-1.632-.149-2.45-.311-.445-.089-.891-.118-1.336-.223-.359-.082-.71-.18-1.071-.251-.804-.16-1.597-.372-2.39-.579-.891-.236-1.804-.416-2.673-.736-.249-.095-.504-.175-.763-.238-.268-.063-.499-.201-.767-.267-.535-.104-1.06-.252-1.57-.445-.688-.352-1.421-.609-2.178-.766-.307-.051-.775-.04-.984.236-.014.016-.028.032-.04.049z"/><path d="m168.198 161.058c.113.013.147.085.222.143.163.111.308.238.477.34.245.145.503.263.757.387.254.125.517.334.784.496 1.025.617 2.118 1.133 3.165 1.703.296.16.534.407.835.567s.668.316.969.523c.608.407 1.216.852 1.853 1.208.251.11.495.235.73.376.237.171.493.311.764.418.223.094.446.17.668.281.279.165.579.29.891.374.412.086 1.025.193 1.337-.156.111-.123.184-.265.298-.392.116-.107.204-.241.254-.391.033-.129.035-.263.007-.392-.028-.13-.086-.251-.17-.354-.098-.093-.207-.158-.303-.253-.172-.16-.372-.287-.59-.374-.541-.223-1.113-.33-1.637-.588-.523-.258-1.151-.543-1.728-.765-.361-.14-.697-.312-1.056-.445-.614-.214-1.209-.477-1.781-.786-.272-.164-.566-.288-.873-.369-.267-.094-.517-.229-.742-.4-.225-.104-.456-.195-.69-.274-.306-.149-.613-.283-.916-.445-.574-.292-1.211-.432-1.781-.699-.259-.118-.522-.191-.773-.327-.123-.069-.234-.129-.359-.194-.139-.08-.289-.14-.445-.178-.056 0-.121.023-.178 0-.058-.022-.09-.089-.136-.086-.686.053.454 1.337.147 1.052z"/><path d="m161.05 192.053c-.222.254-.173.668-.082.966.223.683.668 1.235 1.129 1.765.301.34.742.79 1.198.912.285.078.586.198.876.258.383.078.726.042.915-.332.238-.471-.523-.667-.849-.783-.325-.115-.797-.2-1.08-.445-.219-.184-.451-.352-.695-.503-.303-.221-.586-.469-.846-.741-.238-.222-.223-.514-.401-.774-.053-.08-.156-.14-.209-.222-.125-.205-.21-.497.044-.101z"/><path d="m155.997 185.523c-.073.118-.103.257-.085.394.07.524.212 1.036.421 1.522.388.963 1.036 1.539 1.938 2.002.489.245.954.535 1.387.868.223.183.517.272.655-.049.103-.218.132-.463.083-.699s-.174-.45-.355-.609c-.453-.4-.947-.752-1.474-1.05-.601-.338-1.148-.764-1.623-1.262-.254-.24-.461-.525-.608-.841-.132-.303-.076-.645-.339-.276z"/><path d="m177.523 196.145c.312-.128.604-.301.866-.514.421-.293.804-.58.973-1.074.325-.953-.287-1.965-.859-2.671-.573-.705-1.294-1.459-1.64-2.298-.15-.282-.227-.597-.222-.917.028-.216.079-.429.153-.634.114-.304.313-.57.573-.765.138-.12.271-.245.41-.367.193-.202.368-.421.521-.655.185-.222.423-.405.608-.629.196-.273.35-.573.458-.89.163-.421.3-.85.412-1.286.159-.514.326-.942.25-1.485-.07-.673-.337-1.311-.766-1.835-.266-.303-.626-.506-1.023-.578-.396-.071-.805-.007-1.16.184-.223.127-.378.336-.606.465-.176.083-.322.219-.416.389-.042.076-.065.149-.107.223-.044.058-.08.122-.109.189-.06.112-.113.228-.158.347-.015.148-.015.297 0 .445-.018.465.004.93.067 1.391.138.866.204 1.742.196 2.619 0 .783.066 1.608-.259 2.345-.153.349-.32.703-.49 1.043-.222.459-.548.857-.697 1.353-.176.497-.278 1.016-.303 1.542.009.486.076.97.199 1.44.067.333.178.656.329.961.073.126.154.248.241.365.082.118.109.236.189.354.157.194.36.347.59.445.091.044.181.12.272.16.341.138.726.069 1.508.338z"/><path d="m169.331 184.479c-1.032.764-2.027 1.578-3.052 2.35-.866.654-1.799 1.335-2.51 2.167-.238.278-.545.579-.222.928.405.445 1.138-.167 1.472-.391.969-.646 1.692-1.525 2.514-2.337.522-.508.987-1.071 1.39-1.678.236-.358.579-.616.802-.992.063-.12.115-.246.156-.376.107-.283.467-.523.668-.716"/><path d="m180.747 170.779h.936c.924-.012 1.839.191 2.672.592.417.198.867.352 1.267.579.401.227.615.516.929.794s.691.476.989.777c.276.328.535.672.775 1.028.554.675 1.17 1.298 1.84 1.86.77.667 1.423 1.433 2.184 2.1.718.63 1.437 1.202 2.21 1.763.773.56 1.47 1.255 2.227 1.878 1.18.983 2.338 2.031 3.594 2.914.424.299.695.741 1.096 1.051.163.124.374.198.528.333.154.136.267.363.43.521.561.539 1.198.99 1.755 1.531.243.236.519.445.744.683.191.207.316.267.087.492-.468.458-1.544 0-2.056-.212-1.314-.54-2.532-1.292-3.604-2.225-1.3-1.13-2.351-2.523-3.485-3.809-.364-.458-.754-.896-1.167-1.311-.368-.327-.619-.756-1.004-1.072-.141-.115-.259-.254-.348-.412-.1-.16-.207-.184-.334-.307-.127-.122-.198-.318-.347-.445-.151-.085-.288-.193-.408-.318-.095-.156-.213-.297-.35-.418-.121-.076-.237-.16-.347-.252-.247-.24-.412-.507-.635-.758-.461-.517-.891-1.095-1.456-1.509-.566-.414-.942-.91-1.537-1.219-.788-.41-1.677-.575-2.53-.781-.569-.131-1.118-.338-1.633-.615-.409-.222-.864-.324-1.276-.545-.304-.165-.595-.355-.868-.567-.264-.187-.539-.358-.824-.51-.223-.14-.468-.222-.517-.52-.029-.169.029-.201.096-.323.094-.155.199-.304.314-.445.298-.385.594-.414.053-.323z"/><path d="m228.387 197.587c-.285-.158-.636-.193-.924-.367-.547-.342-1.116-.646-1.704-.912-.603-.265-1.147-.63-1.761-.89-.615-.261-1.301-.541-1.942-.835-.406-.184-.818-.256-1.225-.418-.341-.136-.635-.274-.985-.394-.686-.236-1.336-.549-2.033-.783-.394-.136-.762-.289-1.165-.407-.483-.14-.982-.323-1.458-.492-.477-.169-.936-.34-1.395-.527-.142-.058-.265-.143-.403-.21-.563-.273-1.227-.336-1.795-.667-.568-.332-1.113-.536-1.657-.87-.649-.443-1.252-.949-1.802-1.511-1.035-.983-1.977-2.078-3.08-2.993-.519-.431-1.031-.916-1.512-1.393-.396-.363-.831-.682-1.296-.952-.445-.278-.822-.607-1.285-.841-.25-.127-.446-.32-.699-.445-.227-.117-.443-.252-.646-.405-.559-.389-1.181-.667-1.7-1.128-.258-.236-.543-.421-.79-.668-.186-.204-.391-.39-.613-.556-.192-.108-.375-.231-.548-.369-.193-.183-.311-.394-.487-.583-.223-.238-.762-.828-1.129-.668.104.979 1.113 1.634 1.267 1.725.176.134.364.253.561.356.47.32.873.723 1.361 1.026.405.253.777.542 1.171.812.47.322.922.543 1.337.943.445.445 1.004.741 1.478 1.159.419.372.853.721 1.299 1.064.26.2.465.458.704.681.238.222.567.416.801.685.513.59 1.087 1.113 1.559 1.731.851 1.102 1.782 2.127 2.673 3.209.689.921 1.493 1.75 2.394 2.465.86.639 1.971.85 3.004 1.071 1.357.291 2.702.618 4.058.901 1.114.222 2.227.538 3.321.83.162.041.321.092.476.153.222.103.451.189.686.256.357.073.711.045 1.061.138.4.107.808.029 1.204.125.813.198 1.689.34 2.466.645.39.151.891.485 1.336.445-.145-.125-.31-.224-.488-.294-.338-.171-.668-.334-.991-.534-.459-.28-.906-.605-1.376-.861-.693-.378-1.432-.625-2.105-1.044-.368-.264-.767-.481-1.189-.647-.339-.113-.668-.223-1.011-.34-.771-.274-1.559-.494-2.316-.781-1.031-.388-2.094-.692-3.132-1.057-.358-.125-.726-.174-1.086-.283-.105-.04-.205-.09-.299-.149-.295-.143-.606-.249-.926-.316-.194-.044-.406-.096-.622-.158"/></g><path d="m165.06 201.544c2.498.816 4.699-.027 6.837-1.436.998-.667 3.737-3.613 4.147-2.049.53 2.023-1.755 1.938.521 3.14.668.353.998.1 1.615.694.302.291.539.87.806 1.184-4.216 1.168-10.223 1.457-13.926-1.533z" fill="#efbc90"/><path d="m155.977 187.846c1.71.825 3.077-.487 4.436-1.518.497-.376 1.114-.554 1.635-.876.626-.385 1.133-.928 1.781-1.284.508-.278 1.065-.47 1.559-.754.495-.285.914-.793 1.493-.817-1.052.469-1.666 1.509-2.522 2.256-1.155 1.01-2.198 2.187-2.837 3.591-.405.89-.84 1.758-1.053 2.744-.092.425.162 2.016-.25 2.123-.111-.543-.222-1.013-.312-1.547-.071-.445-.282-1.335-.534-1.677-.575-.806-2.666-.19-3.396-2.241z" fill="#efbc90"/><path d="m161.99 195.42c.996 0 1.635-.757 2.354-1.437.562-.532 2.21-1.375 2.319-2.128-.668.599-.945 1.816-1.281 2.599-.367.857-.871 1.852-1.007 2.748l.223.047" fill="#efbc90"/><path d="m170.357 203.517c.615 0 1.277.076 1.887.013 1.113-.113 1.267-.578 1.247-1.568s.096-2.096.935-2.757c.622-.49 1.635-.815 2.098-1.464-.485.598-1.499 1.802-1.158 2.643.239.588 1.085.93 1.539 1.311.279.222.938 1.07 1.294 1.039" fill="#efbc90"/><path d="m193.645 208.857c1.988.706 4.915.445 7.068.654 2.705.257 5.424.331 8.138.223 2.7-.111 10.991-1.722 11.626 2.165.129.788-.381 1.684-.223 2.523.207 1.068.971 2.072 1.617 2.922 1.677 2.211 3.982 4.205 6.131 5.954 1.873 1.52 4.472 2.893 5.889 4.862-4.615-2.256-8.717-5.661-12.534-9.199-2.339-2.163-4.938-4.368-7.708-5.938-4.04-2.288-9.116-2.326-13.557-3.298" fill="#efbc90"/><path d="m233.733 228.1c6.904 3.912 12.534 9.895 19.839 13.544 7.664 3.829 15.463 6.646 23.643 9.165 4.857 1.497 9.859 2.478 14.922 2.926 3.898.36 7.946-1.166 11.735-.512 3.724.641 7.018 2.817 10.735 3.609 4.884 1.039 8.685 2.559 12.719-.854 2.728-2.31 3.098-3.171 2.935-6.664-.18-3.834 1.185-6.851-.347-10.681 3.314 3.643 4.567 9.15 3.164 13.809-2.483 8.233-10.572 11.773-18.81 10.638-2.174-.298-4.28-.689-6.472-1.088-11.323-2.06-24.89-2.685-35.367-7.576-6.305-2.942-12.565-6.344-18.67-9.737-3.176-1.765-6.115-3.825-9.115-5.877-5.377-3.675-10.69-8.637-14.837-13.573" fill="#efbc90"/><path d="m240.007 168.459c3.341 4.312 8.732 13.248 15.514 12.362 2.089-.271 2.381-2.136 3.102-3.865.575-1.375 1.388-2.699 2.138-4.083-.877 3.612-2.269 6.878-2.449 10.641-.087 1.78-.515 4.777.686 6.163-6.499-1.722-11.615-10.567-15.325-15.473" fill="#efbc90"/><path d="m165.747 167.936c1.69 1.008 5.387 1.557 7.434 1.384-.799.614-1.877 1.653-2.728 1.751" fill="#efbc90"/><path d="m186.15 180.821c2.833 1.051 5.568 2.735 7.822 4.381-2.793.434-6.372-1.448-7.822-3.858" fill="#efbc90"/><path d="m223.116 127.092c2.517 2.969.858 4.637.996 8.088-.014-.32-2.39-2.647-2.726-3.072 2.151-.606 1.977-3.276 1.73-5.016z" fill="#efbc90"/><path d="m217.696 177.165 66.93-98.9089-3.138-.3494-71.286 98.2133z" fill="url(#Q)"/><path d="m157.391 69.5471 61.35 107.6179-8.539-1.045-69.98-104.9174z" fill="#e6e6e6"/><path d="m36.6604 226.736 103.5616-155.5334 16.694-1.5576-120.8369 202.598z" fill="#ccc"/><path d="m271.729 36.7629-1.207-3.6091-34.375 164.9322c-2.639-6.644-6.21-10.721-10.14-10.721-7.158 0-13.123 13.522-14.443 31.436l-176.8785-27.985v13.647l176.6105 22.887c.223 21.009 6.717 37.869 14.711 37.869 8.126 0 14.714-17.429 14.714-38.939 0-7.069-.712-13.698-1.957-19.412zm-44.446 219.4201c-5.898 0-10.679-13.743-10.679-30.693 0-16.951 4.781-30.693 10.679-30.693 5.897 0 10.69 13.742 10.69 30.693 0 16.95-4.791 30.693-10.69 30.693z" fill="url(#R)" opacity=".89"/><path d="m85.4922 219.044c.7839-.261 32.1488 3.909 32.1488 3.909v3.135l-31.886-3.822" fill="#fff" opacity=".89"/><path d="m101.383 227.248 22.425 2.216v1.161l-22.309-1.742" fill="#fff" opacity=".89"/><path d="m101.614 230.848v1.566l15.599.959-.174-1.132" fill="#fff" opacity=".89"/><path d="m208.633 64.8479 18.302 12.7987v3.6558l-18.476-12.1022" fill="#364154" opacity=".89"/><path d="m213.688 76.6006 15.862 9.3164v1.0458l-16.035-8.8825" fill="#364154" opacity=".89"/><path d="m184.312 131.725-30.669-5.937v-111.6142l31.81 22.0951s-.575 70.2371-1.141 95.4561z" opacity=".28" stroke="#fff" stroke-miterlimit="10" stroke-width="10"/><path d="m208.982 82.7731v-5.852l14.555 8.3864v4.4501" fill="#364154" opacity=".29"/><path d="m28.7588 236.197 94.6532 5.747v10.447l-93.6065 4.181s-1.0467-21.419-1.0467-20.375z" fill="#364154" opacity=".29"/></g></svg>