<svg fill="none" height="228" viewBox="0 0 401 228" width="401" xmlns="http://www.w3.org/2000/svg" xmlns:xlink="http://www.w3.org/1999/xlink"><linearGradient id="a"><stop offset="0" stop-color="#067431"/><stop offset="1" stop-color="#2e9f5a"/></linearGradient><linearGradient id="b" gradientUnits="userSpaceOnUse" x1="289.863" x2="289.894" xlink:href="#a" y1="57.5415" y2="58.3305"/><linearGradient id="c" gradientUnits="userSpaceOnUse" x1="266.919" x2="266.949" xlink:href="#a" y1="121.728" y2="122.517"/><linearGradient id="d" gradientUnits="userSpaceOnUse" x1="132.191" x2="142.382" xlink:href="#a" y1="54.9466" y2="66.5338"/><linearGradient id="e" gradientUnits="userSpaceOnUse" x1="333.252" x2="335.633" xlink:href="#a" y1="103.665" y2="104.353"/><linearGradient id="f" gradientUnits="userSpaceOnUse" x1="336.867" x2="339.628" xlink:href="#a" y1="100.757" y2="101.346"/><linearGradient id="g" gradientUnits="userSpaceOnUse" x1="340.93" x2="343.649" xlink:href="#a" y1="106.315" y2="107.511"/><linearGradient id="h" gradientUnits="userSpaceOnUse" x1="345.518" x2="348.912" xlink:href="#a" y1="103.164" y2="104.165"/><linearGradient id="i" gradientUnits="userSpaceOnUse" x1="350.744" x2="354.749" xlink:href="#a" y1="99.9548" y2="100.902"/><linearGradient id="j" gradientUnits="userSpaceOnUse" x1="356.754" x2="361.398" xlink:href="#a" y1="98.2821" y2="99.3387"/><linearGradient id="k" gradientUnits="userSpaceOnUse" x1="332.426" x2="333.078" xlink:href="#a" y1="86.1677" y2="87.5584"/><linearGradient id="l" gradientUnits="userSpaceOnUse" x1="335.525" x2="336.219" xlink:href="#a" y1="85.4806" y2="86.9953"/><linearGradient id="m" gradientUnits="userSpaceOnUse" x1="338.969" x2="339.669" xlink:href="#a" y1="84.7665" y2="86.3821"/><linearGradient id="n" gradientUnits="userSpaceOnUse" x1="342.799" x2="343.53" xlink:href="#a" y1="83.9383" y2="85.6968"/><linearGradient id="o" gradientUnits="userSpaceOnUse" x1="347.081" x2="347.838" xlink:href="#a" y1="83.0188" y2="84.9298"/><linearGradient id="p" gradientUnits="userSpaceOnUse" x1="351.912" x2="352.703" xlink:href="#a" y1="81.9757" y2="84.0638"/><linearGradient id="q" gradientUnits="userSpaceOnUse" x1="357.285" x2="358.114" xlink:href="#a" y1="80.8276" y2="83.1184"/><linearGradient id="r" gradientUnits="userSpaceOnUse" x1="208.664" x2="212.929" xlink:href="#a" y1="99.2639" y2="109.467"/><linearGradient id="s" gradientUnits="userSpaceOnUse" x1="197.138" x2="207.687" xlink:href="#a" y1="113.41" y2="125.797"/><linearGradient id="t" gradientUnits="userSpaceOnUse" x1="195.048" x2="202.178" xlink:href="#a" y1="114.137" y2="129.682"/><linearGradient id="u" gradientUnits="userSpaceOnUse" x1="207.791" x2="226.003" xlink:href="#a" y1="137.69" y2="143.796"/><linearGradient id="v" gradientUnits="userSpaceOnUse" x1="206.18" x2="209.46" xlink:href="#a" y1="138.292" y2="144.133"/><linearGradient id="w" gradientUnits="userSpaceOnUse" x1="209.303" x2="229.609" xlink:href="#a" y1="133.98" y2="140.663"/><linearGradient id="x" gradientUnits="userSpaceOnUse" x1="205.98" x2="207.265" xlink:href="#a" y1="183.744" y2="187.614"/><linearGradient id="y" gradientUnits="userSpaceOnUse" x1="205.302" x2="205.381" xlink:href="#a" y1="184.847" y2="185.794"/><linearGradient id="z" gradientUnits="userSpaceOnUse" x1="213.962" x2="235.624" xlink:href="#a" y1="137.399" y2="146.232"/><linearGradient id="A" gradientUnits="userSpaceOnUse" x1="212.876" x2="216.143" xlink:href="#a" y1="138.631" y2="146.402"/><linearGradient id="B" gradientUnits="userSpaceOnUse" x1="218.779" x2="236.215" xlink:href="#a" y1="133.578" y2="138.218"/><linearGradient id="C" gradientUnits="userSpaceOnUse" x1="219.825" x2="220.91" xlink:href="#a" y1="184.831" y2="188.248"/><linearGradient id="D" gradientUnits="userSpaceOnUse" x1="220.13" x2="220.2" xlink:href="#a" y1="185.015" y2="186.004"/><linearGradient id="E" gradientUnits="userSpaceOnUse" x1="219.099" x2="219.114" xlink:href="#a" y1="186.884" y2="187.336"/><linearGradient id="F" gradientUnits="userSpaceOnUse" x1="205.803" x2="205.819" xlink:href="#a" y1="186.25" y2="186.725"/><linearGradient id="G" gradientUnits="userSpaceOnUse" x1="209.113" x2="209.751" xlink:href="#a" y1="110.597" y2="114.089"/><linearGradient id="H" gradientUnits="userSpaceOnUse" x1="209.434" x2="210.078" xlink:href="#a" y1="136.643" y2="141.054"/><linearGradient id="I" gradientUnits="userSpaceOnUse" x1="207.203" x2="222.623" xlink:href="#a" y1="113.873" y2="131.89"/><linearGradient id="J" gradientUnits="userSpaceOnUse" x1="203.428" x2="218.941" xlink:href="#a" y1="112.613" y2="136.837"/><linearGradient id="K" gradientUnits="userSpaceOnUse" x1="219.987" x2="227.302" xlink:href="#a" y1="113.66" y2="124.096"/><linearGradient id="L" gradientUnits="userSpaceOnUse" x1="217.46" x2="222.106" xlink:href="#a" y1="115.24" y2="127.698"/><linearGradient id="M" gradientUnits="userSpaceOnUse" x1="291.842" x2="294.206" xlink:href="#a" y1="99.364" y2="104.37"/><linearGradient id="N" gradientUnits="userSpaceOnUse" x1="282.228" x2="290.321" xlink:href="#a" y1="89.087" y2="100.65"/><linearGradient id="O" gradientUnits="userSpaceOnUse" x1="286.29" x2="291.56" xlink:href="#a" y1="88.9416" y2="102.101"/><linearGradient id="P" gradientUnits="userSpaceOnUse" x1="297.577" x2="298.187" xlink:href="#a" y1="198.779" y2="203.673"/><linearGradient id="Q" gradientUnits="userSpaceOnUse" x1="294.625" x2="295.237" xlink:href="#a" y1="201.739" y2="206.641"/><linearGradient id="R" gradientUnits="userSpaceOnUse" x1="292.047" x2="313.944" xlink:href="#a" y1="133.363" y2="151.487"/><linearGradient id="S" gradientUnits="userSpaceOnUse" x1="289.876" x2="291.634" xlink:href="#a" y1="129.332" y2="138.735"/><linearGradient id="T" gradientUnits="userSpaceOnUse" x1="295.895" x2="311.586" xlink:href="#a" y1="105.616" y2="119.203"/><linearGradient id="U" gradientUnits="userSpaceOnUse" x1="287.343" x2="288.567" xlink:href="#a" y1="110.509" y2="118.089"/><linearGradient id="V" gradientUnits="userSpaceOnUse" x1="288.655" x2="300.428" xlink:href="#a" y1="113.097" y2="122.952"/><linearGradient id="W" gradientUnits="userSpaceOnUse" x1="289.462" x2="289.969" xlink:href="#a" y1="106.048" y2="113.6"/><linearGradient id="X" gradientUnits="userSpaceOnUse" x1="300.248" x2="311.882" xlink:href="#a" y1="113.761" y2="132.372"/><linearGradient id="Y" gradientUnits="userSpaceOnUse" x1="91.553" x2="108.757" xlink:href="#a" y1="143.258" y2="173.52"/><linearGradient id="Z" gradientUnits="userSpaceOnUse" x1="103.928" x2="117.328" xlink:href="#a" y1="105.479" y2="112.202"/><linearGradient id="aa" gradientUnits="userSpaceOnUse" x1="94.9731" x2="118.253" xlink:href="#a" y1="109.592" y2="129.02"/><linearGradient id="ab" gradientUnits="userSpaceOnUse" x1="96.6231" x2="109.805" xlink:href="#a" y1="117.862" y2="143.538"/><linearGradient id="ac" gradientUnits="userSpaceOnUse" x1="100.947" x2="101.688" xlink:href="#a" y1="101.484" y2="104.834"/><linearGradient id="ad" gradientUnits="userSpaceOnUse" x1="104.849" x2="108.091" xlink:href="#a" y1="85.9254" y2="92.8365"/><linearGradient id="ae" gradientUnits="userSpaceOnUse" x1="96.2437" x2="103.15" xlink:href="#a" y1="84.2369" y2="99.5806"/><linearGradient id="af" gradientUnits="userSpaceOnUse" x1="152.066" x2="156.67" xlink:href="#a" y1="122.452" y2="134.779"/><linearGradient id="ag" gradientUnits="userSpaceOnUse" x1="153.565" x2="157.705" xlink:href="#a" y1="125.333" y2="132.987"/><linearGradient id="ah" gradientUnits="userSpaceOnUse" x1="154.793" x2="155.169" xlink:href="#a" y1="123.322" y2="126.029"/><linearGradient id="ai" gradientUnits="userSpaceOnUse" x1="158.415" x2="158.636" xlink:href="#a" y1="133.81" y2="134.931"/><linearGradient id="aj" gradientUnits="userSpaceOnUse" x1="169.699" x2="170.553" xlink:href="#a" y1="132.71" y2="135.379"/><linearGradient id="ak" gradientUnits="userSpaceOnUse" x1="172.693" x2="173.833" xlink:href="#a" y1="134.063" y2="136.207"/><linearGradient id="al" gradientUnits="userSpaceOnUse" x1="187.19" x2="190.67" xlink:href="#a" y1="204.295" y2="210.113"/><linearGradient id="am" gradientUnits="userSpaceOnUse" x1="185.676" x2="186.947" xlink:href="#a" y1="207.942" y2="215.469"/><linearGradient id="an" gradientUnits="userSpaceOnUse" x1="157.378" x2="179.952" xlink:href="#a" y1="164.982" y2="211.24"/><linearGradient id="ao" gradientUnits="userSpaceOnUse" x1="203.327" x2="206.648" xlink:href="#a" y1="204.919" y2="211.022"/><linearGradient id="ap" gradientUnits="userSpaceOnUse" x1="202.06" x2="203.257" xlink:href="#a" y1="208.567" y2="216.116"/><linearGradient id="aq" gradientUnits="userSpaceOnUse" x1="164.151" x2="182.925" xlink:href="#a" y1="165.156" y2="214.906"/><linearGradient id="ar" gradientUnits="userSpaceOnUse" x1="148.248" x2="148.493" xlink:href="#a" y1="136.425" y2="139.613"/><linearGradient id="as" gradientUnits="userSpaceOnUse" x1="151.976" x2="175.909" xlink:href="#a" y1="140.366" y2="173.664"/><linearGradient id="at" gradientUnits="userSpaceOnUse" x1="144.753" x2="163.442" xlink:href="#a" y1="143.314" y2="181.892"/><linearGradient id="au" gradientUnits="userSpaceOnUse" x1="157.098" x2="163.073" xlink:href="#a" y1="140.252" y2="154.797"/><linearGradient id="av" gradientUnits="userSpaceOnUse" x1="162.417" x2="175.336" xlink:href="#a" y1="150.306" y2="171.908"/><linearGradient id="aw" gradientUnits="userSpaceOnUse" x1="169.788" x2="175.308" xlink:href="#a" y1="141.782" y2="155.506"/><linearGradient id="ax" gradientUnits="userSpaceOnUse" x1="161.245" x2="167.518" xlink:href="#a" y1="139.721" y2="152.398"/><linearGradient id="ay" gradientUnits="userSpaceOnUse" x1="150.425" x2="167.767" xlink:href="#a" y1="148.7" y2="185.223"/><linearGradient id="az" gradientUnits="userSpaceOnUse" x1="153.824" x2="176.2" xlink:href="#a" y1="146.954" y2="178.125"/><clipPath id="aA"><path d="m0 0h401v228h-401z"/></clipPath><g clip-path="url(#aA)"><path d="m391.104 208.335c-124.327 26.269-252.798 26.269-385.41357 0l90.61747-29.175h204.1791z" fill="#fff"/><path d="m401 207.944h-40.158l-31.533-13.376h55.189v-.566h-56.512l-13.964-5.898h32.608v-.566h-33.942l-15.258-6.471-.22.521 14.032 5.95h-29.568l-10.861-6.471-.289.487 10.043 5.984h-29.89l-6.476-6.408-.396.402 6.098 6.006h-30.172l-2.125-6.301-.565.181 2.091 6.12h-30.262l2.062-6.12-.536-.181-2.091 6.301h-30.161l6.069-6.006-.395-.402-6.476 6.408h-29.89l10.042-5.967-.288-.487-10.861 6.454h-29.5903l14.0203-5.95-.22-.521-15.2583 6.471h-40.9262v.566h39.6151l-13.9472 5.915h-63.5312v.566h62.1975l-31.5282 13.376h-47.1765v.566h45.8428l-38.29276 16.224.2204.52 39.51906-16.761h43.7066l-27.3802 16.258.2882.487 28.1997-16.745h44.0282l-16.473 16.303.401.402 16.875-16.705h44.283l-5.527 16.416.537.181 5.589-16.591h44.385l5.617 16.586.537-.181-5.533-16.416h44.289l16.875 16.704.395-.402-16.467-16.302h44.028l28.194 16.744.289-.487-27.375-16.257h43.673l39.502 16.766.22-.52-38.287-16.241h38.824zm-88.425-19.84 13.953 5.915h-33.936l-9.963-5.915zm-31.025 0 9.963 5.915h-34.263l-6.002-5.915zm-31.082 0 5.979 5.915h-34.534l-1.995-5.915zm-31.121 0 1.989 5.915h-34.636l1.995-5.915zm-31.229 0-1.989 5.915h-34.557l6.001-5.915zm-31.33 0-5.979 5.915h-34.275l9.963-5.915zm-61.3218 0h29.9518l-10.014 5.898h-33.9076zm-46.8204 19.857 31.5339-13.376h34.3143l-22.5428 13.359zm44.4356 0 22.5206-13.376h34.613l-13.512 13.376zm44.4466 0 13.479-13.393h34.896l-4.521 13.376zm44.498 0 4.521-13.376h34.998l4.521 13.376zm44.605 0-4.521-13.376h34.891l13.512 13.376zm44.707 0-13.523-13.393h34.642l22.52 13.376zm44.752 0-22.52-13.376h34.32l31.528 13.376z" fill="#e8e9eb"/><path d="m373.451 147.415c-.43-11.554-6.629-23.696-17.819-27.885-5.295-1.981-11.302-2.083-16.258-4.755-10.738-5.785-11.597-19.9703-12.275-31.7955-.938-16.3366-4.137-32.8318-11.907-47.3627s-20.469-27.09188-36.467-32.66763c-15.999-5.57575-35.208-3.345447-47.883 7.56833-7.381 6.3512-14.846 16.0932-24.453 13.7044-4.934-1.2283-8.291-5.4568-11.664-9.1306-7.912-8.6212-19.158-15.798912-30.997-14.344123-11.975 1.471773-21.023 11.321323-26.561 21.623723s-8.873 21.7822-15.677 31.377c-5.086 7.1891-14.925 13.5007-22.6837 9.0571-5.1934-2.9945-6.7814-9.3684-8.5277-14.9442-1.7462-5.5757-5.2047-11.8024-11.2233-12.4534-7.3071-.7642-13.433 7.3928-20.6722 6.1305-3.9559-.6963-6.7815-4.0304-10.2796-5.955-7.1884-3.9625-16.7728-1.2907-22.7066 4.2681s-8.9459 13.3648-11.1499 21.0407c-1.5563 5.3848-2.8314 10.8472-3.8202 16.3649v100.5564h356.3212c3.707-9.85 7.092-19.977 6.703-30.398z" fill="#ccd5e2"/><path d="m322.68 39.2851v-.5661h-6.216v-21.1143h-.565v21.1143h-19.316v-21.1143h-.565v21.1143h-19.339v-21.1143h-.565v21.1143h-19.339v-21.1143h-.565v21.1143h-19.338v-21.1143h-.565v21.1143h-19.339v-21.1143h-.565v21.1143h-19.338v-21.1143h-.566v21.1143h-19.338v-21.1143h-.565v21.1143h-1.696v.5661h1.696v19.5349h-1.696v.5661h1.696v19.5292h-1.696v.5661h1.696v19.5349h-1.696v.5661h1.696v19.5346h-1.696v.566h1.696v6.527h.565v-6.527h19.338v6.527h.566v-6.527h19.338v6.527h.565v-6.527h19.339v6.527h.565v-6.527h19.338v6.527h.565v-6.527h19.339v6.527h.565v-6.527h19.339v6.527h.565v-6.527h19.338v6.527h.565v-6.527h6.217v-.566h-6.217v-19.5346h6.217v-.5661h-6.217v-19.5349h6.217v-.5661h-6.217v-19.5292h6.217v-.5661h-6.217v-19.5349zm-26.662 0v19.5349h-19.339v-19.5349zm-39.808 39.6246h-19.338v-19.5293h19.338zm.565-19.5293h19.339v19.5293h-19.339zm-20.468 19.5293h-19.339v-19.5293h19.339zm-19.904 0h-19.338v-19.5293h19.338zm0 .566v19.535h-19.338v-19.5293zm.565 0h19.339v19.535h-19.339zm19.904 0h19.338v19.535h-19.338zm19.903 0h19.339v19.535h-19.339zm19.904 0h19.339v19.535h-19.339zm0-.566v-19.5293h19.339v19.5293zm-.565-39.6246v19.5349h-19.339v-19.5349zm-19.904 0v19.5349h-19.338v-19.5349zm-19.903 0v19.5349h-19.339v-19.5349zm-19.904 0v19.5349h-19.338v-19.5349zm-39.242 0h19.338v19.5349h-19.338zm0 20.101h19.338v19.5292h-19.338zm0 20.0953h19.338v19.5349h-19.338zm0 39.6246v-19.5236h19.338v19.5346zm19.904 0v-19.5236h19.338v19.5346zm19.903 0v-19.5236h19.339v19.5346zm19.904 0v-19.5236h19.338v19.5346zm19.903 0v-19.5236h19.339v19.5346zm19.904 0v-19.5236h19.339v19.5346zm39.242 0h-19.338v-19.5236h19.338zm0-20.101h-19.338v-19.5236h19.338zm0-20.101h-19.338v-19.5293h19.338zm0-20.0953h-19.338v-19.5236h19.338z" fill="#e8e9eb"/><path d="m234.859 20.4351h-4.136v1.2906h4.136z" fill="#fff"/><path d="m236.849 23.8767h-6.126v1.2906h6.126z" fill="#fff"/><path d="m240.686 23.8767h-3.018v1.2906h3.018z" fill="#fff"/><path d="m242.856 23.8767h-1.933v1.2906h1.933z" fill="#fff"/><path d="m233.65 27.3184h-2.927v1.2906h2.927z" fill="#fff"/><path d="m241.952 27.3184h-7.516v1.2906h7.516z" fill="#fff"/><path d="m242.856 30.76h-3.442v1.2906h3.442z" fill="#fff"/><path d="m239.087 30.76h-8.364v1.2906h8.364z" fill="#fff"/><path d="m236.007 34.2073h-5.284v1.2906h5.284z" fill="#fff"/><path d="m239.086 34.2073h-2.266v1.2906h2.266z" fill="#fff"/><path d="m240.725 34.2073h-1.311v1.2906h1.311z" fill="#fff"/><path d="m265.263 38.3623h-13.297v2.185h13.297z" fill="#e8e9eb"/><path d="m265.297 42.4097h-13.354v.4245h13.354z" fill="#e8e9eb"/><path d="m265.297 44.9287h-13.354v.4246h13.354z" fill="#e8e9eb"/><path d="m290.49 38.3396h-13.298v2.185h13.298z" fill="#e8e9eb"/><path d="m290.519 42.387h-13.354v.4245h13.354z" fill="#e8e9eb"/><path d="m290.519 44.906h-13.354v.4246h13.354z" fill="#e8e9eb"/><path d="m316.056 38.3169h-13.642v2.185h13.642z" fill="#e8e9eb"/><path d="m316.09 42.3643h-13.704v.4245h13.704z" fill="#e8e9eb"/><path d="m316.096 44.8889h-13.704v.4246h13.704z" fill="#e8e9eb"/><path d="m228.835 48.2458-.147-.0906-19.479-11.944-8.726 5.3493-.147-.0905-23.452-14.3781-33.36 20.4576-.294-.4811 33.654-20.6388 23.599 14.4687 8.726-5.3494.147.0906 19.479 11.944 40.65-24.9239.147.0906 15.518 9.5155 28.804-17.6612.294.4868-29.098 17.8367-.147-.0905-15.518-9.5156z" fill="#fff"/><path d="m178.494 26.8427c.002.3854-.111.7624-.324 1.0834s-.517.5715-.872.7197c-.355.1483-.746.1876-1.123.1131-.378-.0745-.725-.2595-.997-.5316-.273-.2721-.458-.619-.534-.9969-.075-.3779-.037-.7697.11-1.1259.147-.3561.396-.6606.716-.8748s.696-.3286 1.08-.3286c.515 0 1.009.2044 1.373.5684.365.3639.57.8578.571 1.3732z" fill="#fff"/><path d="m211.666 36.398c0 .3853-.114.762-.328 1.0824-.214.3203-.517.5699-.873.7171-.356.1473-.747.1855-1.124.1099s-.724-.2616-.995-.5345c-.272-.2729-.457-.6204-.531-.9985s-.035-.7698.113-1.1256c.148-.3557.398-.6594.718-.8727.321-.2133.697-.3265 1.082-.3254.255 0 .508.0504.743.1483.236.098.45.2415.63.4224s.322.3956.419.6318c.098.2362.147.4893.146.7448z" fill="#fff"/><path d="m269.112 25.2239c1.074 0 1.944-.8718 1.944-1.9473 0-1.0754-.87-1.9473-1.944-1.9473s-1.944.8719-1.944 1.9473c0 1.0755.87 1.9473 1.944 1.9473z" fill="#fff"/><path d="m223.32 195.259c12.335 0 22.334-1.67 22.334-3.731 0-2.06-9.999-3.73-22.334-3.73s-22.334 1.67-22.334 3.73c0 2.061 9.999 3.731 22.334 3.731z" fill="#e8e9eb"/><path d="m307.625 206.603c14.21 0 25.73-1.741 25.73-3.889s-11.52-3.889-25.73-3.889c-14.211 0-25.73 1.741-25.73 3.889s11.519 3.889 25.73 3.889z" fill="#e8e9eb"/><path d="m173.317 205.312c-26.159 0-48.408 1.698-56.636 4.11-3.871-1.665-11.981-2.831-21.3676-2.831-13.1335 0-23.7861 2.265-23.7861 5.021 0 2.757 10.6526 5.027 23.7861 5.027 9.7596 0 18.1346-1.24 21.8076-3.017 8.556 2.332 30.517 3.991 56.196 3.991 33.156 0 60.033-2.757 60.033-6.159s-26.877-6.142-60.033-6.142z" fill="#e8e9eb"/><path d="m128.611 154.185-121.54655 25.297v-143.0218l121.54655 41.8889z" fill="#7c99a5"/><path d="m50.7598 170.386 77.8512-16.201v-75.8357l-16.208-5.5871z" fill="#6a8993"/><path d="m111.374 131.82-96.1611 6.855v-78.4172l96.1611 23.5653z" fill="#ececec"/><path d="m45.6506 127.399-11.7658.345v-44.1361l11.7658 1.919z" fill="#ccd5e2"/><path d="m43.537 118.296c0-1.42-1.6049-2.609-3.6111-2.66s-3.7355 1.132-3.7355 2.57c0 1.172 1.0738 2.168 2.5544 2.524v6.94l2.3509-.068v-6.86c1.4072-.351 2.4413-1.308 2.4413-2.446z" fill="#364154"/><path d="m58.5075 127.019-10.3757.306v-41.3963l10.3757 1.6925z" fill="#ccd5e2"/><path d="m56.6314 100.363c0-1.3355-1.4185-2.5752-3.193-2.7733s-3.289.7472-3.289 2.1284c0 1.0979.9438 2.1119 2.2605 2.5589v25.02l2.074-.062v-24.8c1.2602-.215 2.1475-1.036 2.1475-2.072z" fill="#364154"/><path d="m69.8152 126.686-9.2341.271v-38.9961l9.2341 1.5058z" fill="#ccd5e2"/><path d="m68.1543 108.617c0-1.263-1.2659-2.378-2.8256-2.497-1.5597-.118-2.9273.833-2.9273 2.134.049.55.2682 1.07.6269 1.488s.839.713 1.3736.845v16.325l1.848-.057v-16.172c.5034-.079.9655-.326 1.3112-.701s.5548-.856.5932-1.365z" fill="#364154"/><path d="m80.0443 126.385-8.2621.244v-36.8397l8.2621 1.3472z" fill="#ccd5e2"/><path d="m78.5519 104.818c0-1.194-1.1302-2.264-2.543-2.417-1.4128-.152-2.6222.736-2.6222 1.965.033.515.2222 1.008.5424 1.412.3201.405.7559.702 1.2491.852v19.982l1.6501-.045v-19.813c.4693-.066.8999-.297 1.2154-.652.3155-.354.4956-.809.5082-1.284z" fill="#364154"/><path d="m89.2446 126.114-7.437.221v-34.9097l7.437 1.2114z" fill="#ccd5e2"/><path d="m87.8992 115.132c-.036-.585-.2935-1.133-.72-1.534-.4264-.401-.9896-.624-1.5744-.623-.2868-.031-.5769-.003-.8527.082-.2758.084-.5314.224-.7514.411s-.3996.417-.528.676-.2028.541-.2188.83c.0222.468.1924.917.4859 1.282.2936.365.6953.628 1.1473.75v9.295l1.4863-.04v-9.221c.4279-.107.8089-.351 1.0846-.696s.4307-.77.4412-1.212z" fill="#364154"/><path d="m97.5685 125.87-6.7306.198v-33.171l6.7306 1.0981z" fill="#ccd5e2"/><path d="m96.3481 107.422c-.0258-.55-.2513-1.073-.6342-1.469s-.8968-.638-1.4455-.682c-.2608-.037-.5266-.019-.7798.054s-.4881.199-.689.369c-.2009.171-.3633.383-.4764.621s-.1743.498-.1796.762c.0151.441.1614.867.4202 1.225.2588.357.6182.628 1.0321.779v16.982l1.345-.045v-16.846c.3978-.089.7537-.31 1.0094-.628s.396-.713.3978-1.122z" fill="#364154"/><path d="m105.124 125.65-6.1142.181v-31.5981l6.1142.9963z" fill="#ccd5e2"/><path d="m104.017 99.1011c-.02-.5205-.219-1.0181-.563-1.4089s-.812-.6509-1.325-.7365c-.237-.0474-.481-.041-.716.0188-.234.0598-.452.1715-.637.3268-.186.1554-.334.3504-.434.5708s-.15.4605-.145.7026c.015.4191.146.8258.379 1.1746.232.3487.557.6257.937.8007v25.286l1.227-.034v-25.093c.367-.075.697-.277.931-.571.233-.294.356-.6612.346-1.0369z" fill="#364154"/><g fill="#ccd5e2"><path d="m45.6506 83.1438-11.7658-2.0435v-2.7963l11.7658 2.1906z"/><path d="m29.6742 88.6855-7.8383-1.0869v-1.7321l7.8383 1.1377z"/><path d="m29.6742 96.7463-7.8383-.8152v-1.7321l7.8383.8717z"/><path d="m29.6742 104.813-7.8383-.549v-1.733l7.8383.601z"/><path d="m29.6742 112.874-7.8383-.272v-1.738l7.8383.328z"/><path d="m29.6742 120.934h-7.8383v-1.737l7.8383.062z"/><path d="m29.6742 129.001-7.8383.266v-1.732l7.8383-.215z"/><path d="m58.5075 85.3854-10.3757-1.8058v-2.6209l10.3757 1.936z"/><path d="m69.8152 87.3552-9.2341-1.6076v-2.4681l9.2341 1.7209z"/><path d="m80.0443 89.1328-8.2621-1.4378v-2.3322l8.2621 1.5397z"/><path d="m89.2446 90.7346-7.437-1.2906v-2.2133l7.437 1.3869z"/><path d="m97.5685 92.1837-6.7306-1.1717v-2.1001l6.7306 1.2566z"/><path d="m105.124 93.5026-6.1142-1.0642v-2.0038l6.1142 1.1434z"/></g><path d="m37.5181 144.562-24.532 2.575-.0056-2.836 24.5376-2.298z" fill="#fff"/><path d="m37.5378 146.781-24.6394 2.851.0487.422 24.6393-2.851z" fill="#e8e9eb"/><path d="m37.8659 149.266-24.5944 3.235.0551.42 24.5944-3.235z" fill="#e8e9eb"/><path d="m72.9066 140.849-17.1459 1.8v-2.355l17.1459-1.602z" fill="#364154"/><path d="m72.9096 142.687-17.2182 1.99.0486.422 17.2181-1.99z" fill="#e8e9eb"/><path d="m72.9257 145.165-17.2187 2.219.0541.421 17.2187-2.219z" fill="#e8e9eb"/><path d="m99.004 138.103-12.964 1.364v-2.009l12.964-1.212z" fill="#fff"/><path d="m99.0186 139.647-13.0186 1.506.0486.422 13.0187-1.506z" fill="#e8e9eb"/><path d="m99.0147 141.8-13.0206 1.678.0541.421 13.0205-1.678z" fill="#e8e9eb"/><path d="m40.0279 155.136-26.0748 3.991v1.138l26.0748-4.11z" fill="#364154"/><path d="m44.6676 157.089-30.7145 5.077v1.138l30.7145-5.213z" fill="#364154"/><path d="m44.6669 159.755-18.0048 3.193v1.081l18.0048-3.278z" fill="#364154"/><path d="m23.7524 163.463-9.7993 1.743v1.138l9.7993-1.783z" fill="#364154"/><path d="m44.6676 162.421-30.7145 5.82v1.143l30.7145-5.966z" fill="#364154"/><path d="m44.6676 165.082-30.7145 6.198v1.144l30.7145-6.34z" fill="#364154"/><path d="m23.5313 53.2271c0 1.7774-2.1927 2.6322-4.9561 1.885-2.7635-.7472-5.1709-2.8983-5.1709-4.7493 0-1.8511 2.3396-2.6719 5.1709-1.8284 2.8312.8434 4.9561 2.9095 4.9561 4.6927z" fill="#e8e9eb"/><path d="m63.5082 64.5371-36.976-10.4665v-2.587l36.976 10.8685z" fill="#364154"/><path d="m334.53 48.7495h-146.983v90.8135h146.983z" fill="#acacac"/><path d="m334.389 48.8911h-18.768l-34.167 90.8139h52.935z" fill="#9d9e9e"/><path d="m281.578 57.3594h-80.587v58.3556h80.587z" fill="#fff"/><path d="m217.844 62.6636h-6.782v50.4024h6.782z" fill="#e8e9eb"/><path d="m226.524 62.6636h-6.782v50.4024h6.782z" fill="#e8e9eb"/><path d="m235.204 62.6636h-6.781v50.4024h6.781z" fill="#e8e9eb"/><path d="m243.884 62.6636h-6.781v50.4024h6.781z" fill="#e8e9eb"/><path d="m252.565 62.6636h-6.782v50.4024h6.782z" fill="#e8e9eb"/><path d="m261.239 62.6636h-6.781v50.4024h6.781z" fill="#e8e9eb"/><path d="m269.92 62.6636h-6.781v50.4024h6.781z" fill="#e8e9eb"/><path d="m217.041 113.066h-5.171v-30.4147c.002-.3353.069-.667.198-.9761.13-.3092.319-.5898.557-.8258.237-.236.519-.4228.829-.5498.31-.1269.641-.1914.976-.19h.051c.335-.0014.666.0631.976.19.31.127.592.3138.83.5498.237.236.426.5166.556.8258.129.3091.197.6408.198.9761z" fill="#364154"/><path d="m225.722 113.066h-5.171v-36.381c.001-.3353.069-.667.198-.9761.13-.3092.319-.5898.556-.8258.238-.236.52-.4228.83-.5498.309-.1269.641-.1915.976-.19h.051c.334-.0015.666.0631.976.19.31.127.591.3138.829.5498s.427.5166.556.8258c.13.3091.197.6408.199.9761z" fill="#364154"/><path d="m234.396 113.066h-5.166v-21.3068c.002-.3353.069-.667.199-.9761.129-.3092.318-.5898.556-.8258s.519-.4228.829-.5497c.31-.127.642-.1915.976-.19h.029c.334-.0015.666.0631.975.1901.31.1269.591.3138.828.5499.238.2361.426.5168.555.8259s.195.6407.196.9757z" fill="#364154"/><path d="m243.076 113.066h-5.165v-40.0717c.002-.3353.069-.6669.198-.9761.13-.3092.319-.5898.557-.8258.237-.236.519-.4228.829-.5497.31-.127.641-.1915.976-.19h.051c.334-.0015.666.0631.975.1901.31.127.591.3138.829.5499.237.2361.425.5168.554.8259s.196.6407.196.9757z" fill="#364154"/><path d="m251.757 113.066h-5.165v-30.4147c.001-.335.067-.6666.196-.9757s.317-.5898.555-.8259c.237-.2361.518-.423.828-.55.309-.1269.641-.1915.975-.1901h.057c.334-.0014.666.0632.975.1901.309.127.591.3139.828.55s.426.5168.555.8259.195.6407.196.9757z" fill="#364154"/><path d="m260.437 113.066h-5.166v-22.4162c.001-.335.068-.6665.197-.9757.129-.3091.317-.5898.554-.8259.238-.236.519-.4229.828-.5499.31-.127.641-.1916.976-.1901h.051c.334-.0015.666.063.976.19.31.1269.591.3137.829.5497s.427.5166.556.8258c.13.3092.197.6409.199.9761z" fill="#364154"/><path d="m269.117 113.066h-5.165v-30.4147c.001-.335.068-.6666.196-.9757.129-.3091.318-.5898.555-.8259s.519-.423.828-.55c.31-.1269.641-.1915.976-.1901h.05c.335-.0014.667.0631.977.19.309.127.591.3138.829.5498s.427.5166.556.8258c.129.3091.197.6408.198.9761z" fill="#364154"/><path d="m305.85 69.8921h-18.858v2.185h18.858z" fill="#fff"/><path d="m305.889 73.9395h-18.937v.4245h18.937z" fill="#e8e9eb"/><path d="m305.889 76.4641h-18.937v.4246h18.937z" fill="#e8e9eb"/><path d="m305.85 81.1567h-18.858v2.185h18.858z" fill="#fff"/><path d="m305.889 85.2043h-18.937v.4246h18.937z" fill="#e8e9eb"/><path d="m305.889 87.729h-18.937v.4246h18.937z" fill="#e8e9eb"/><path d="m305.85 92.4216h-18.858v2.185h18.858z" fill="#fff"/><path d="m305.889 96.469h-18.937v.4245h18.937z" fill="#e8e9eb"/><path d="m305.889 98.9937h-18.937v.4245h18.937z" fill="#e8e9eb"/><path d="m298.187 57.4897h-10.85v.668h10.85z" fill="url(#b)"/><path d="m303.415 59.2671h-16.078v.6679h16.078z" fill="#e8e9eb"/><path d="m290.112 61.0444h-2.775v.668h2.775z" fill="#e8e9eb"/><path d="m295.814 61.0444h-4.041v.668h4.041z" fill="#e8e9eb"/><path d="m304.669 61.0444h-7.273v.668h7.273z" fill="#e8e9eb"/><path d="m293.909 62.822h-6.572v.668h6.572z" fill="#e8e9eb"/><path d="m304.669 62.822h-9.726v.668h9.726z" fill="#e8e9eb"/><path d="m297.792 64.5994h-10.455v.6679h10.455z" fill="#e8e9eb"/><path d="m304.669 64.5994h-3.628v.6679h3.628z" fill="#e8e9eb"/><path d="m275.243 121.676h-10.85v.668h10.85z" fill="url(#c)"/><path d="m280.47 123.453h-16.077v.668h16.077z" fill="#e8e9eb"/><path d="m267.167 125.236h-2.774v.668h2.774z" fill="#e8e9eb"/><path d="m272.87 125.236h-4.041v.668h4.041z" fill="#e8e9eb"/><path d="m281.725 125.236h-7.273v.668h7.273z" fill="#e8e9eb"/><path d="m270.965 127.014h-6.572v.668h6.572z" fill="#e8e9eb"/><path d="m281.725 127.014h-9.726v.668h9.726z" fill="#e8e9eb"/><path d="m274.847 128.791h-10.454v.668h10.454z" fill="#e8e9eb"/><path d="m281.725 128.791h-3.628v.668h3.628z" fill="#e8e9eb"/><path d="m235.487 52.2817h-34.049v3.8946h34.049z" fill="#e8e9eb"/><path d="m330.574 51.9648h-14.93v3.8946h14.93z" fill="#e8e9eb"/><path d="m256.334 123.051h-10.692v1.58h10.692z" fill="#364154"/><path d="m251.152 126.538h-5.51v.64h5.51z" fill="#364154"/><path d="m255.572 126.538h-3.521v.64h3.521z" fill="#364154"/><path d="m253.576 128.248v.43h-.362v-.43h-5.685v.645h8.471v-.645z" fill="#364154"/><path d="m247.077 128.248h-1.435v.639h1.435z" fill="#364154"/><path d="m257.673 128.248h-1.345v.639h1.345z" fill="#364154"/><path d="m172.899 176.511-59.27 12.538v-149.8376l59.27 29.3562z" fill="#7c99a5"/><path d="m172.899 68.5676-16.654-8.2475-34.919 127.0989 51.573-10.908z" fill="#6a8993"/><path d="m130.86 96.5821c-4.617-.6566-8.567 3.2152-8.567 8.6779 0 5.462 3.956 9.98 8.567 10.07 4.357.085 7.714-3.832 7.714-8.751s-3.357-9.3856-7.714-9.9969zm0 17.3949c-3.956-.119-7.273-3.962-7.273-8.61 0-4.647 3.34-7.9528 7.273-7.432 3.741.4981 6.646 4.319 6.646 8.559s-2.888 7.591-6.646 7.483z" fill="#acacac"/><path d="m135.539 100.743.701-.9287c-1.265-1.6811-3.115-2.8246-5.182-3.2039v1.3585c1.786.3333 3.384 1.3224 4.481 2.7741z" fill="#364154"/><path d="m133.528 106.171c0 1.698-1.182 3.006-2.668 2.915-1.486-.09-2.763-1.59-2.763-3.356s1.249-3.063 2.763-2.91c1.515.153 2.668 1.647 2.668 3.351z" fill="#fff"/><path d="m147.136 98.8862c-3.685-.5265-6.816 2.9718-6.816 7.8348 0 4.862 3.131 8.864 6.816 8.938 3.498.068 6.216-3.465 6.216-7.886s-2.718-8.3944-6.216-8.8868zm0 15.5608c-3.137-.09-5.793-3.515-5.793-7.647 0-4.133 2.656-7.1214 5.793-6.702 3 .396 5.34 3.798 5.34 7.602s-2.34 6.815-5.34 6.747z" fill="#acacac"/><path d="m147.135 100.097c2.108.278 3.883 2.033 4.753 4.348l.74-.566c-1.023-2.649-3.063-4.6646-5.493-5.0042-1.112-.1611-2.246.0562-3.221.617l.486 1.1322c.829-.474 1.79-.659 2.735-.527z" fill="#364154"/><path d="m149.272 107.445c0 1.523-.95 2.7-2.137 2.632-1.186-.068-2.209-1.409-2.209-2.983s1-2.751 2.209-2.626c1.21.124 2.137 1.449 2.137 2.977z" fill="#fff"/><path d="m160.302 100.748c-3.006-.424-5.549 2.763-5.549 7.138 0 4.376 2.543 7.976 5.549 8.039 2.871.056 5.087-3.159 5.087-7.178s-2.216-7.591-5.087-7.999zm0 14.078c-2.56-.073-4.718-3.153-4.718-6.872s2.158-6.447 4.718-6.107c2.464.322 4.391 3.396 4.391 6.843 0 3.448-1.927 6.204-4.391 6.136z" fill="#acacac"/><path d="m164.694 108.69c.032 1.522-.387 3.019-1.204 4.302l.565.702c.919-1.483 1.39-3.201 1.356-4.947 0-3.991-2.198-7.54-5.035-7.987v1.098c2.424.368 4.318 3.402 4.318 6.832z" fill="#364154"/><path d="m162.06 108.475c0 1.381-.78 2.457-1.757 2.395-.978-.063-1.803-1.257-1.803-2.678s.814-2.496 1.803-2.394 1.757 1.296 1.757 2.677z" fill="#fff"/><path d="m135.619 54.8517c-9.692-4.1153-18.519 2.0095-18.519 14.2026 0 12.193 8.827 23.503 18.519 25.0767 8.607 1.3925 14.823-5.5078 14.823-15.2781s-6.216-20.3501-14.823-24.0012zm0 23.3445c-1.735-.4698-3.171-2.5473-3.171-4.636 0-2.0888 1.436-3.3228 3.171-2.7681s3.046 2.5926 3.046 4.5965c0 2.0038-1.351 3.2605-3.046 2.8076z" fill="#ccd5e2"/><path d="m135.618 54.8517c-1.994-.8783-4.157-1.3036-6.335-1.2454l5.815 17.0782c.177.0201.351.0561.52.1076.145.0521.286.1126.424.1811l5.73-12.0232c-1.796-1.7165-3.879-3.1037-6.154-4.0983z" fill="url(#d)"/><path d="m135.098 70.6847-5.815-17.0783c-2.03.0641-4.007.6656-5.73 1.7435l9.55 16.1442c.234-.2966.541-.5272.891-.6691s.73-.1903 1.104-.1403z" fill="#364154"/><path d="m141.772 58.9502-5.73 12.0232c.788.4373 1.447 1.0766 1.907 1.8524.461.7758.708 1.6603.715 2.563-.001.3016-.039.6019-.113.8943l11.896 3.3964c0-.283 0-.566 0-.8491-.006-7.3022-3.436-14.9554-8.675-19.8802z" fill="#e8e9eb"/><path d="m138.664 123.402-14.546.498v1.082l14.546-.589z" fill="#364154"/><path d="m141.298 125.899-17.18.894v1.081l17.18-1.002z" fill="#364154"/><path d="m141.298 128.486-10.15.707v1.036l10.15-.775z" fill="#364154"/><path d="m129.532 129.306-5.414.38v1.087l5.414-.419z" fill="#364154"/><path d="m141.298 131.073-17.18 1.505v1.087l17.18-1.625z" fill="#364154"/><path d="m141.298 133.654-17.18 1.817v1.087l17.18-1.936z" fill="#364154"/><path d="m162.456 79.0795-7.087-2.27v-2.7341l7.087 2.4171z" fill="#364154"/><path d="m162.456 84.0947-7.087-1.9812v-2.7341l7.087 2.1341z" fill="#364154"/><path d="m162.456 89.1158-7.087-1.6925v-2.7341l7.087 1.8397z" fill="#364154"/><path d="m366.533 152.855-40.299-16.835v-68.194l40.299-16.8292z" fill="#acacac"/><path d="m361.933 130.614-34.303-11.797v-39.2961l34.303-11.7968z" fill="#364154"/><path d="m334.881 110.734-2.486-.447v-15.3577l2.486-.1698z" fill="#fff"/><path d="m338.695 111.419-2.786-.498v-16.2351l2.786-.1925z" fill="#fff"/><path d="m342.984 112.194-3.136-.566v-17.2139l3.136-.2151z" fill="#fff"/><path d="m347.856 113.066-3.566-.64v-18.3119l3.566-.2491z" fill="#fff"/><path d="m353.422 114.068-4.08-.736v-19.5631l4.08-.2831z" fill="#fff"/><path d="m359.859 115.223-4.724-.849v-21.0071l4.724-.3227z" fill="#fff"/><path d="m332.931 110.383v-7.302l1.379.084v7.467z" fill="url(#e)"/><path d="m336.508 111.028v-11.1569l1.543.017v11.4179z" fill="url(#f)"/><path d="m340.526 111.747v-5.915l1.735.164v6.068z" fill="url(#g)"/><path d="m345.059 112.562v-10.217l1.972.079v10.495z" fill="url(#h)"/><path d="m350.218 113.491v-14.6955l2.26-.0113v15.1138z" fill="url(#i)"/><path d="m356.146 114.555v-17.6106l2.611-.0679v18.1485z" fill="url(#j)"/><path d="m329.647 86.874-1.017.2151v.8208l1.017-.1981z" fill="#fff"/><path d="m330.156 89.0195-1.526.2604v.8208l1.526-.2377z" fill="#fff"/><path d="m330.365 88.9798v.8491l.786-.1245v-.8548z" fill="#fff"/><path d="m331.213 88.8384v.8547l.514-.0792v-.8661z" fill="#fff"/><path d="m329.348 91.3687-.718.0962v.8208l.718-.0849z" fill="#fff"/><path d="m331.484 91.0857-1.944.2604v.8321l1.944-.2264z" fill="#fff"/><path d="m330.817 93.4462v.8548l.91-.0736v-.8661z" fill="#fff"/><path d="m330.732 93.4575-2.102.1981v.8208l2.102-.1698z" fill="#fff"/><path d="m329.941 95.7671-1.311.0736v.8208l1.311-.051z" fill="#fff"/><path d="m330.145 95.7556v.8435l.587-.0283v-.8491z" fill="#fff"/><path d="m331.162 95.699-.345.017v.8547l.345-.017z" fill="#fff"/><path d="m333.671 87.2137-1.469.2774c-.125 0-.226-.2095-.226-.5208 0-.3057.101-.5661.226-.6057l1.469-.3057c.13-.0283.237.2095.237.5265 0 .3226-.107.6-.237.6283z" fill="url(#k)"/><path d="m336.898 86.6025-1.622.3056c-.141.0283-.249-.2151-.249-.566 0-.3227.108-.6114.249-.6397l1.622-.3396c.147-.0283.266.2208.266.566 0 .351-.119.6454-.266.6737z" fill="url(#l)"/><path d="m340.492 85.9232-1.797.3396c-.153 0-.277-.2264-.277-.5661 0-.3396.124-.6453.277-.6792l1.797-.3736c.164-.034.294.2264.294.566 0 .368-.13.6793-.294.7133z" fill="url(#m)"/><path d="m344.499 85.1646-2.007.3793c-.169.034-.31-.2377-.31-.6s.141-.685.31-.7189l2.007-.4189c.186-.034.333.2377.333.6113.011.3793-.147.7133-.333.7472z" fill="url(#n)"/><path d="m348.998 84.3098-2.261.4302c-.192.034-.35-.2491-.35-.6283 0-.3793.158-.7246.35-.7642l2.261-.4698c.203-.0397.373.249.373.6453-.006.4245-.17.7472-.373.7868z" fill="url(#o)"/><path d="m354.072 83.3476-2.554.4868c-.215.0396-.39-.2547-.39-.6623 0-.4075.175-.7755.39-.8151l2.554-.5321c.232-.051.424.2547.424.6793 0 .4245-.192.8038-.424.8434z" fill="url(#p)"/><path d="m359.74 82.2777-2.905.566c-.243.0453-.44-.266-.44-.7019 0-.4302.197-.8264.44-.8774l2.905-.6c.266-.0566.48.2661.48.7189 0 .4359-.214.8661-.48.8944z" fill="url(#q)"/><path d="m331.518 100.035c0 .662-.215 1.183-.475 1.178-.259-.006-.463-.567-.463-1.189 0-.6229.209-1.1719.463-1.1719.255 0 .475.5264.475 1.1829z" fill="#fff"/><path d="m331.518 105.232c0 .656-.215 1.16-.475 1.132-.259-.029-.463-.566-.463-1.229 0-.662.209-1.132.463-1.132.255 0 .475.572.475 1.229z" fill="#fff"/><path d="m331.518 110.422c0 .657-.215 1.133-.475 1.093-.259-.04-.463-.617-.463-1.268s.209-1.132.463-1.093c.255.04.475.612.475 1.268z" fill="#fff"/><path d="m100.055 91.8725c.084-.0341.175-.0452.265-.0323.089.0129.173.0495.244.1059.14.1146.257.2549.345.4132.107.1698.22.3793.13.5661-.091.1868-.322.2547-.334.4415-.011.1868.356.3226.464.566.029.0836.032.1743.008.2596s-.075.1608-.144.2159c-.139.1084-.284.2085-.435.3-.074.0486-.136.1138-.18.1905s-.069.1627-.074.2511c-.261-.2919-.4005-.6726-.39-1.0641.0105-.3916.17-.7642.446-1.0417-.166-.0349-.315-.1282-.4184-.2632-.1036-.135-.1556-.3026-.1466-.4727-.0043-.0855.0138-.1708.0524-.2472.0387-.0764.0966-.1415.1676-.1886z" fill="#f4caab"/><path d="m228.395 118.659c-1.291-1.583-2.666-3.095-4.12-4.529-1.401-1.522-2.708-3.126-3.916-4.806-.157-.237-.348-.451-.566-.634-.237-.181-.52-.283-.768-.441-.413-.266-.746-.691-1.232-.776-.234-.014-.468-.014-.701 0-.282 0-.328-.034-.61-.051-.45-.026-.902 0-1.345.08-.605.153-1.046.492-1.43.526.022.112.08.213.165.29.084.076.191.124.304.135.465-.015.926-.097 1.368-.244.427-.022.854.054 1.249.221.616.198 1.068.396 1.09 1.042-.254.288-.356.181-.565.175-.227.018-.455.005-.678-.04-.249-.073-.356-.243-.565-.356-.407-.193-.966-.385-1.063.209.095.204.234.384.409.525.174.142.379.241.597.29.274.097.536.224.78.38.3.152.509.436.791.611.165.096.348.158.537.183.189.026.381.013.565-.036.123-.012.247.012.356.068.252.126.462.323.605.566 1.226 2.304 1.543 4.812 2.713 7.184 1.232 2.502 2.695 5.004 5.481 5.151.237.034.478.019.708-.045.231-.063.446-.173.632-.323.177-.189.299-.421.356-.674.168-.816.153-1.66-.046-2.47-.198-.81-.575-1.566-1.101-2.211z" fill="#efbc90"/><path d="m218.256 108.855c-1.13-1.665-2.763-1.133-4.425-.595.082.1.2.163.328.176.465-.015.926-.097 1.367-.244.428-.022.855.054 1.249.221.565.181.978.362 1.068.872.413.09.775.3.413-.43z" fill="#f4caab"/><path d="m228.395 118.659c-1.291-1.583-2.666-3.095-4.12-4.529-1.401-1.522-2.708-3.126-3.916-4.806-.157-.237-.348-.451-.566-.634-.237-.181-.52-.283-.768-.441-.413-.266-.746-.691-1.232-.776-.234-.014-.468-.014-.701 0-.282 0-.328-.034-.61-.051-.45-.026-.902 0-1.345.08-.605.153-1.046.492-1.43.526.031.092.079.176.141.249 1.662-.566 3.318-1.07 4.425.595.362.73 0 .52-.412.43.003.056.003.113 0 .17-.255.288-.356.181-.565.175-.227.018-.455.005-.679-.04-.248-.073-.356-.243-.565-.356-.407-.193-.966-.385-1.062.209.094.204.234.384.408.525.174.142.379.241.598.29.273.097.535.224.78.38.299.152.508.436.791.611.165.096.347.158.536.183.189.026.381.013.566-.036.123-.012.246.012.356.068.252.126.462.323.605.566 1.226 2.304 1.542 4.812 2.712 7.184 1.232 2.502 2.696 5.004 5.482 5.151.236.034.477.019.708-.045.23-.063.445-.173.631-.323.177-.189.3-.421.356-.674.172-.815.16-1.658-.035-2.468-.194-.809-.566-1.566-1.089-2.213z" fill="#efbc90"/><path d="m219.952 111.119c-.43-.861-1.509.238-2.504.068l.085.062c.165.096.347.158.536.183.189.026.382.013.566-.036.123-.012.246.011.356.068.252.126.462.323.605.566 1.226 2.304 1.542 4.812 2.712 7.183 1.232 2.503 2.696 5.005 5.482 5.152.236.034.477.019.708-.045.23-.063.445-.173.631-.323.177-.189.3-.421.356-.674.023-.087.04-.176.051-.266-4.331-2.912-7.674-7.076-9.584-11.938z" fill="#f4caab"/><path d="m216.917 103.194c-.26-.34.073-1.132-.272-1.365l-1.559-1.381c-1.262-.5179-2.67-.5541-3.956-.102-.349.118-.676.294-.967.521-.303.28-.545.62-.712.998-.167.377-.256.785-.26 1.199.004.825.129 1.645.373 2.434.077.43.249.838.503 1.194.401.716.991 1.306 1.707 1.706.715.4 1.527.593 2.345.558.616-.039 1.967-.102 2.368-.566.153-.181.752-.611.735-.849-.141-1.874.616-3.125-.305-4.347z" fill="#efbc90"/><path d="m210.593 107.422c.893 1.025 2.153 1.857 3.52 1.546.764-.114 1.519-.278 2.261-.493-1.921-.504-3.849-1.545-5.781-1.053z" fill="#f4caab"/><path d="m216.024 112.987c-1.154-1.896-1.691-4.103-1.538-6.318h-4.481c.265 2.097-.008 4.226-.791 6.188z" fill="#efbc90"/><path d="m215.024 105.068c-.413 1.205-1.577 1.958-2.668 2.615-.366.268-.793.439-1.243.498-.315-.008-.623-.098-.892-.262-.27-.164-.492-.396-.645-.672-.33-.591-.548-1.238-.644-1.908-.199-.879-.348-1.769-.447-2.666.016-.417.12-.827.306-1.201s.45-.703.774-.967c.463-.385.503-.9283 1.085-1.0868.529-.15 1.078-.2131 1.627-.1868 1.362.0919 2.717.2658 4.058.5208.266.0156.523.1058.74.2608.435.384.238 1.132-.158 1.562-.45.368-.871.769-1.26 1.2-.447.662-.379 1.551-.633 2.293z" fill="url(#r)"/><path d="m215.475 104.133c-.16-.106-.282-.261-.35-.441-.09-.17-.209-.351-.395-.391-.087-.01-.174.003-.253.038-.08.035-.149.09-.2.16-.095.145-.16.306-.192.476-.07.266-.105.54-.101.815-.002.275.09.542.26.759.083.108.193.194.318.248.126.055.263.076.399.063.14-.019.268-.086.364-.189.095-.103.153-.237.162-.377z" fill="#efbc90"/><path d="m214.866 104.83c0 .051-.057.079-.102.096-.102.045-.194.112-.268.196s-.129.183-.162.291c-.08-.272-.094-.56-.039-.838.011-.084.04-.165.085-.238.023-.035.054-.064.09-.086.036-.021.077-.034.119-.038-.064-.018-.12-.055-.163-.105-.042-.051-.068-.113-.075-.178s.004-.131.033-.189.075-.107.131-.14c.204.04.311.255.396.442.041.074.059.159.051.243-.034.075-.082.143-.142.198-.051.063-.09.153-.045.216.045.062.091.079.091.13z" fill="#f4caab"/><path d="m208.542 131.458c-2.668-1.172-4.702-4.161-7.093-6.272-.712 1.864-2.051 3.421-3.786 4.404 3.159 1.29 6.448 2.037 9.409 4.154.91-1.505.56-.781 1.47-2.286z" fill="#efbc90"/><path d="m204.128 130.931c-1.594-.532-4.187-3.068-2.142-5.253-.175-.17-.356-.334-.537-.492-.712 1.864-2.051 3.421-3.786 4.404 3.159 1.29 6.448 2.037 9.409 4.154.413-.679.566-.905.695-1.086-1.264-.459-2.483-1.037-3.639-1.727z" fill="#f4caab"/><path d="m201.777 125.27c-.339-.243-1-.566-1.345-.798 1.311-1.788 3.131-2.57 4.708-4.126.927-1.035 1.636-2.246 2.085-3.561.464-1.223.141-3.962-1.028-4.568-.4-.167-.834-.234-1.265-.196s-.847.182-1.211.417c-.723.481-1.361 1.08-1.887 1.772-2.453 2.875-6.216 7.924-7.708 11.966-.139.364-.148.765-.027 1.135.122.37.367.687.693.897 1.061.719 2.182 1.344 3.352 1.868 1.695-1.013 2.91-2.847 3.633-4.806z" fill="url(#s)"/><path d="m207.287 114.096c-5.007-.475-7.053 8.169-10.873 11.231-.506.283-1.043.507-1.599.668.485.044.973-.004 1.441-.142l.282.131c-.564.229-1.149.405-1.746.526.824.179 1.681.125 2.475-.158 1.032.525 2.027 1.121 2.978 1.783.551-.649.975-1.396 1.249-2.202-.333-.244-1.582-.946-1.927-1.172 1.311-1.789 3.996-2.83 5.572-4.41.927-1.034 1.637-2.245 2.086-3.56.254-.878.275-1.806.062-2.695z" fill="url(#t)"/><path d="m205.823 186.253c-.543 1.205-.739 2.538-.565 3.849 2.362-.117 4.717-.306 7.064-.566.014-.651-.216-1.283-.644-1.772-.381-.243-.777-.461-1.187-.651-.199-.136-.367-.312-.495-.517-.127-.204-.211-.433-.245-.672-1.04.153-2.967.612-3.928.329z" fill="#111520"/><path d="m205.128 190.453c2.046.215 7.245-.521 7.245-.521l.068-.606c-.458.125-7.251.566-7.251.566z" fill="#fff"/><path d="m207.643 134.226c-.157.104-.285.246-.373.413-1.955 3.249-.961 7.359-.525 11.134.23 2.257.328 4.525.293 6.793.081 2.481.021 4.964-.18 7.438-.272 2.355-.927 4.704-1.063 7.031-.339 5.802-.045 11.508-.525 17.299 1.932-.107 3.87.055 5.758.481.288-8.525 2.402-15.986 3.832-24.567.994-6.012.977-12.51 1.226-19.864.079-2.219-.249-4.443 0-6.651-2.533.518-5.129.655-7.703.408-.249-.051-.508-.021-.74.085z" fill="url(#u)"/><path d="m210.124 138.607c-1.289-.023-2.575-.136-3.848-.34h-.181v.187 1.5.045c.007.478.043.954.107 1.427.105.791.348 1.558.718 2.264.052.097.129.178.224.234s.203.085.313.083c.166 0 .326-.065.446-.181.571-.576 1.232-1.056 1.955-1.421l.08-.045.373-3.759zm-3.713 0c1.17.175 2.35.277 3.532.306l-.09.883c-.843.093-1.648.399-2.34.888-.32-.366-.703-.673-1.13-.905.006-.357.006-.77.006-1.155zm1.21 2.796-.13-.039-.187-.046.158-.164c.057.097.108.181.159.266zm.039 2.18c-.033.03-.072.053-.115.067s-.088.018-.132.013c-.045-.006-.088-.021-.126-.044-.038-.024-.071-.055-.096-.093-.351-.679-.581-1.415-.678-2.174-.051-.396-.079-.792-.096-1.194.316.203.602.451.848.736-.154.139-.292.295-.413.464l-.226.3.373-.04c.136-.005.273.017.401.063.143.045.291.072.441.079h.09l.226-.028-.101-.21c-.096-.2-.212-.389-.345-.566.626-.437 1.35-.715 2.108-.809l-.198 2.004c-.724.378-1.386.867-1.961 1.449z" fill="url(#v)"/><path d="m216.069 133.761c-1.258.259-2.533.422-3.815.487-.875 6.437-.905 12.961-.09 19.405.978 6.872-.983 13.41-1.961 20.61-.375 1.277-.594 2.594-.65 3.923-.249 2.101-.379 4.214-.39 6.329.627.085 1.249.192 1.865.328.288-8.525 2.402-15.985 3.832-24.567.994-6.012.977-12.51 1.226-19.863.079-2.242-.249-4.467-.017-6.652z" fill="url(#w)"/><path d="m204.399 184.238c-.04-.118-.04-.245 0-.363.048-.064.109-.118.179-.157s.148-.063.228-.069c2.129-.436 4.343-.103 6.25.94.085.05.152.125.192.216.039.09.049.191.028.287-.108.561-.181 1.128-.22 1.699-.003.045-.015.089-.035.129-.021.04-.05.075-.085.104-.035.028-.076.048-.119.06-.044.011-.089.014-.134.007-1.78-.334-3.611-.623-5.357-.261-.06.013-.122.009-.18-.01-.058-.02-.11-.054-.15-.1-.041-.047-.068-.103-.079-.163-.012-.06-.007-.122.013-.18.103-.211.148-.445.13-.679-.057-.189-.151-.364-.277-.515-.187-.288-.317-.609-.384-.945z" fill="url(#x)"/><path d="m208.779 185.273c-1.198-.101-2.447-.192-3.549.283v-.566c1.185-.266 2.422-.168 3.549.283z" fill="url(#y)"/><path d="m226.609 188.364c.637.092 1.257.283 1.836.566.286.147.525.372.688.65s.244.596.233.918l-9.494.181c-.291-.645-.345-1.373-.152-2.055.194-.676.283-1.379.265-2.083l3.222-.09c.118.792.972 1.234 1.729 1.483.549.174 1.107.318 1.673.43z" fill="#111520"/><path d="m219.539 190.232.051.815 9.85-.294.034-.47z" fill="#fff"/><path d="m211.729 134.005c-.503 2.904-1.068 3.962-.87 6.827.282 4.171 2.667 6.492 3.153 8.876 1.277 6.226 2.436 9.968 2.826 14.717.605 7.263.198 14.01 1.978 21.205 1.756-.068 3.514-.04 5.267.085.378-8.004.271-15.244-.062-23.254-.125-2.955-.198-4.868-.328-8.831-.215-6.651-2.153-13.778-2.95-20.287-2.56.554-6.409.984-9.014.662z" fill="url(#z)"/><path d="m219.386 142.111-.633-3.51-6.013.504v.159c.036.875.153 1.745.351 2.598.198.88.645 1.684 1.288 2.315.472.406.997.747 1.56 1.013.219.141.469.225.729.244h.124c.293-.072.556-.235.752-.464l1.345-1.325c.231-.17.403-.409.49-.682.087-.274.086-.568-.004-.841zm-.898-3.159.175.991c-.993.399-1.872 1.037-2.56 1.857-.877-.622-1.877-1.047-2.933-1.246-.045-.379-.079-.758-.102-1.132zm-2.34 3.3c.143.114.279.233.407.357l-.763.17c.108-.182.227-.358.356-.527zm2.922.6c-.089.22-.231.415-.413.567l-1.345 1.324c-.146.18-.343.31-.565.374h-.073c-.202-.023-.396-.093-.566-.204-.536-.256-1.037-.58-1.492-.962-.592-.595-1.005-1.344-1.192-2.163-.078-.296-.138-.597-.181-.9.959.206 1.866.609 2.662 1.183-.214.277-.403.573-.565.883l-.164.312 2.046-.459-.209-.209c-.207-.2-.424-.389-.65-.566.64-.747 1.45-1.33 2.362-1.699l.339 1.891c.047.207.049.421.006.628z" fill="url(#A)"/><path d="m224.083 162.506c-.125-2.96-.034-4.913-.164-8.876-.221-6.651-2.199-13.772-2.995-20.276-.255.051-2.007.215-2.261.271 4.465 17.118 4.821 34.564 4.25 52.022.401 0 .898.09 1.3.119.356-8.004.203-15.256-.13-23.26z" fill="url(#B)"/><path d="m218.589 187.402c.226-.895-.203-1.132-.237-1.698-.004-.102.026-.203.085-.286.06-.083.145-.144.243-.173 1.812-.514 3.696-.73 5.577-.64.062.005.122.021.177.05.055.028.103.067.142.115.04.047.069.103.086.162s.022.122.014.183c-.065.634-.065 1.273 0 1.908.004.064-.006.129-.029.19s-.059.116-.105.161c-.046.046-.101.081-.162.103-.061.023-.126.032-.19.027-1.682-.18-3.381-.094-5.036.254-.26.04-.627-.113-.565-.356z" fill="url(#C)"/><path d="m224.416 185.336c-.681-.344-1.466-.417-2.198-.204-.735.17-1.436.475-2.176.623z" fill="url(#D)"/><path d="m223.235 186.972c-1.409.136-2.816.219-4.221.249 1.38-.34 2.811-.425 4.221-.249z" fill="url(#E)"/><path d="m210.039 186.604c-1.436-.154-2.879-.226-4.323-.215 1.439-.244 2.915-.17 4.323.215z" fill="url(#F)"/><path d="m206.666 112.743c.055-.564.055-1.133 0-1.698 1.333-.499 2.752-.73 4.175-.677 1.423.052 2.822.386 4.115.983.948.38 1.743 1.065 2.26 1.947-3.512-.384-7.058-.346-10.562.113z" fill="url(#G)"/><path d="m206.954 111.266.051.487h.599l-.056-.736c-.227.062-.43.153-.594.249z" fill="#f9dd53"/><path d="m207.699 111.73h.413v-.911l-.413.13z" fill="#f9dd53"/><path d="m208.423 110.728v.985h.475v-1.07c-.159.017-.317.046-.475.085z" fill="#f9dd53"/><path d="m210.068 110.553c-.094-.006-.189-.006-.283 0v1.132h.283z" fill="#f9dd53"/><path d="m209.265 111.685h.299v-1.132l-.299.028z" fill="#f9dd53"/><path d="m205.863 137.26c-.203.61-.293 1.253-.265 1.896 2.737.505 5.505.83 8.284.974 2.789.137 5.578-.27 8.212-1.2-.085-.861-.176-1.699-.26-2.582-5.171 1.376-10.619 1.166-15.971.912z" fill="url(#H)"/><path d="m206.615 138.329c-.151.013-.303-.008-.445-.062s-.27-.139-.375-.249c0 .328-.028.657-.039.985l.915.153v-.827z" fill="#f9dd53"/><path d="m206.954 138.341v.866l.673.107v-.945z" fill="#f9dd53"/><path d="m208.05 138.38-.045.991 1.17.17.056-1.132c-.395 0-.791-.012-1.181-.029z" fill="#f9dd53"/><path d="m210.599 138.437.028 1.279.831.074v-1.342z" fill="#f9dd53"/><path d="m213.204 138.431v1.444h.712l-.056-1.449z" fill="#f9dd53"/><path d="m214.255 138.415.045 1.449h.447l-.057-1.444z" fill="#f9dd53"/><path d="m215.431 138.386h-.481l.074 1.432.452-.028c-.073-.464-.089-.936-.045-1.404z" fill="#f9dd53"/><path d="m211.967 138.443v1.381c.277 0 .565.034.819.039v-1.426z" fill="#f9dd53"/><path d="m209.706 138.426-.051 1.177.673.079v-1.245z" fill="#f9dd53"/><path d="m219.454 112.908c-2.71-.521-5.451-.867-8.205-1.036-1.419-.072-2.84-.053-4.256.056-1.102.091-2.328 0-3.046.98-1.774 2.354-1.356 5.977-.819 9.102.342 1.582.816 3.133 1.418 4.636.492 1.415 1.001 2.74 1.43 4.183.489 1.887.432 3.874-.164 5.729-.112.296-.134.619-.062.928.153.408.565.481.955.504 4.159.209 10.11.634 14.846-.793.774-.237.39-1.013.537-1.737.192-.929-.057-1.766-.17-2.683-1.045-8.31.096-16.926-2.464-19.869z" fill="url(#I)"/><path d="m222.042 132.776c-1.051-8.309.096-16.925-2.464-19.868l-.921-.159c.603 1.399.907 2.909.893 4.432 0 6.878 1.486 13.45 1.051 20.299.362-.084.724-.181 1.074-.283.769-.237.39-1.013.537-1.737.192-.929-.057-1.767-.17-2.684z" fill="#fff"/><path d="m206.326 112.873c-1.037.187-1.971.744-2.628 1.568-.638.929-.65 2.14-.565 3.272.086 1.48.254 2.954.503 4.416.254 1.471.616 2.983 1.548 4.143.362.447.797.827 1.131 1.297.221.259.362.578.405.917s-.013.683-.162.99c-.118.199-.164.433-.13.663.101.605.729.3.966.617.04.077.063.161.069.248s-.006.173-.035.255c-.305 1.37-.607 2.74-.904 4.11-.147.468-.147.97 0 1.438.339.821 1.407.99 2.294 1.047 3.487.209 7.087.402 10.41-.566.048-.016.09-.048.118-.091.027-.043.039-.094.033-.145s-.03-.098-.066-.133c-.037-.036-.085-.057-.136-.061l-6.216-.176c-.159 0-.673-.492 1.322-.47l4.397-.135c.361 0 .565-.25.344-.521l-.062-.074c-.046-.021-.085-.054-.115-.095s-.049-.089-.055-.14c-.006-.05.001-.101.019-.148.019-.047.05-.089.089-.121.056-.039.09-.079.068-.13-.059-.126-.156-.231-.277-.3-.545-.255-1.112-.458-1.696-.606-.108-.057-.197-.147-.254-.256-.057-.11-.08-.234-.065-.356.015-.123.066-.238.147-.331.081-.092.189-.158.308-.189.892-.193 1.708-.641 2.351-1.29.599-.844-4.25-.295-6.375-.442-.15-.007-.299-.028-.446-.062-.339-.079-.305-.628.045-.611 2.826.13 3.928 0 5.697-.816.323-.09.614-.273.836-.526.384-.566-.034-1.132-.497-1.415-.371-.193-.723-.42-1.051-.679-.729-.708-.718-1.936-.385-2.899 1.08-3.158-.243-4.347-.39-6.43-.107-1.495.289-2.927-.836-3.906s-2.588-1.042-4.001-1.132c-1.921-.193-3.859-.101-5.753.271z" fill="url(#J)"/><path d="m228.79 123.957c.353-.901.398-1.894.128-2.824s-.839-1.744-1.619-2.316c-1.379-1.013-2.329-1.664-3.685-2.598-1.017-.702-1.492-.719-2.164-1.755-.413-.639-1.521-1.924-2.261-1.817-.26.054-.498.184-.684.374-.545.556-.935 1.245-1.134 1.998-.198.753-.197 1.545.004 2.298.356 1.512 1.221 3.821 2.52 4.67 3.566 2.327 4.99 3.963 7.144 3.799 0 0 1.045-.714 1.062-.736.325-.295.563-.673.689-1.093z" fill="url(#K)"/><path d="m226.943 124.704c.649-.651.977-.979.977-1.958-4.572.651-5.222-4.908-8.16-6.544-.848-.252-1.668-.589-2.447-1.008-.134.703-.119 1.427.045 2.123.356 1.511 1.221 3.821 2.52 4.67 3.566 2.327 4.991 3.963 7.144 3.798 0 0 1.045-.713 1.062-.735.331-.293.575-.671.707-1.093.061-.159.114-.322.158-.487-.52.538-1.164 1.234-2.006 1.234z" fill="url(#L)"/><path d="m290.841 99.3559c-.202 3.1401-.908 6.2271-2.091 9.1421 2.903-.138 5.8.379 8.477 1.511-.978-3.226-1.842-6.611-1.588-10.008-1.553-.4791-3.174-.6972-4.798-.6451z" fill="#efbc90"/><path d="m295.61 100.001c-1.389-.425-2.832-.6499-4.284-.6677.661 3.4587 2.724 6.6627 4.001 9.9967.636.193 1.26.419 1.871.679-.955-3.226-1.842-6.611-1.588-10.008z" fill="#f4caab"/><path d="m295.61 100.001c-1.249-.3861-2.542-.6068-3.848-.6565.332.9885.857 1.9005 1.542 2.6855.686.785 1.519 1.427 2.453 1.888-.184-1.297-.234-2.61-.147-3.917z" fill="url(#M)"/><path d="m300.103 96.2595c-.486-.5151-1.288-1.0642-1.633-1.6529-.254-.5661-.045-1.5227-.13-2.1341-.175-1.2963-1.435-2.2246-2.724-2.4454-1.944-.3396-4.363.0453-5.335 1.9926-1.203 2.4171-.802 6.0908 1.379 7.8513 1.498 1.206 4.143 1.732 6.064 1.84.678.039 1.017-2.14 1.13-2.5702.113-.4303.277-1.1322.362-1.7379.315-.0906.619-.2179.904-.3792.113-.0623.175-.3736.181-.5095.006-.1358-.102-.1641-.198-.2547z" fill="#efbc90"/><path d="m295.616 90.0271c-1.944-.3396-4.363.0453-5.335 1.9926-1.13 2.2642-.842 5.6606 1.023 7.5286.333-.4019.689-.7924 1.051-1.1717-.322-.5563-.497-1.1854-.509-1.8281-.011-.6427.14-1.2779.441-1.8457.972-.4868 1.944.283 2.916.8661 1.147-1.087 2.147-2.3203 2.973-3.6681-.242-.4976-.602-.9285-1.048-1.255-.446-.3266-.965-.539-1.512-.6187z" fill="#f4caab"/><path d="m300.103 96.2595c-.486-.5151-1.289-1.0642-1.634-1.6529-.254-.566-.045-1.5227-.13-2.134-.028-.1954-.083-.3859-.163-.5661-1.758 3.0398-4.759 5.0946-6.872 7.6475.113.1133.231.2208.356.3227 1.497 1.2053 4.142 1.7323 6.063 1.8393.679.04 1.018-2.1393 1.131-2.5695s.277-1.1322.361-1.7378c.316-.0907.619-.218.905-.3793.113-.0623.175-.3736.18-.5095.006-.1358-.101-.1698-.197-.2604z" fill="#efbc90"/><path d="m294.316 95.6765c.033.0443.054.0956.063.1496.009.0541.005.1095-.012.1617-.056.1189-.209.1812-.226.3057-.017.1246.3.2831.334.4868.004.0547-.007.1095-.034.1577-.026.0483-.065.0879-.113.114-.096.0492-.194.0927-.294.1302-.104.051-.197.1231-.272.2118s-.13.192-.163.3034c-.153-.151-.276-.3296-.362-.5265-.043-.0988-.056-.2077-.039-.314s.064-.2055.135-.286c.119-.1189.322-.1755.373-.3396-.099.0474-.212.0558-.317.0232-.105-.0325-.193-.1035-.248-.1987-.045-.0915-.061-.1943-.047-.2952s.058-.1953.126-.2709c.073-.072.163-.1247.262-.1533s.203-.0324.303-.0109c.108.0195.21.0606.302.1209.091.0604.169.1386.229.2301z" fill="#f4caab"/><path d="m286.501 90.9667c.173-.2535.244-.5634.198-.8672-.047-.3037-.206-.5785-.447-.7688-.251-.1777-.547-.2805-.854-.2965s-.613.0554-.881.206c-.528.3114-.929.801-1.13 1.3812-.52 1.3076-.266 2.785-.475 4.1775-.136.9114-.469 1.7831-.672 2.6832-.258.8948-.214 1.8496.124 2.7169.244.481.608.89 1.056 1.187.449.298.967.474 1.504.511 1.083.058 2.146-.312 2.961-1.03.806-.718 1.417-1.6297 1.775-2.649-1.06-.9256-1.824-2.1441-2.194-3.5026-.371-1.3586-.334-2.7966.108-4.1337z" fill="url(#N)"/><path d="m297.543 89.2743c-1.962-.2347-3.936-.3594-5.912-.3736-1.196-.0571-2.388.1964-3.458.7359-.738.481-1.326 1.1617-1.694 1.9631s-.502 1.6909-.386 2.5654c.209 1.7548 1.097 3.7304 2.572 4.6984 1.474.968 1.435 1.2905 2.068 1.4375.152-1.3979 1.283-1.1318 2.599-2.3149-.172-.3106-.305-.6414-.395-.985-.155-.4213-.207-.8734-.153-1.3189.034-.2227.138-.4285.298-.5867s.367-.2602.59-.2907c.322 0 .943.4698 1.328.8038.146-.3113.288-.6566.429-1.0359.328-.8717 1.243-1.3699 1.786-2.1284.317-.4577.514-.9884.571-1.5427s-.026-1.1141-.243-1.6273z" fill="url(#O)"/><path d="m285.947 94.1367c-.05-1.0728.202-2.1379.729-3.0737-.294.107-.557.2854-.765.5193s-.355.5159-.427.8207c-.073.3048-.068.6227.013.9254.08.3026.235.5804.45.8083z" fill="#364154"/><path d="m309.168 200.818c-.286-.186-.589-.343-.905-.47l-1.695-.793c-.083.172-.194.329-.328.464-2.921.934-5.945 1.699-8.533-1.256-.034.124-.232.487-.266.605-.175.64-.203 1.5.334 1.891.522.251 1.072.441 1.639.566 1.571.198 2.26.04 3.808.232 1.225.225 2.464.364 3.708.419.65 0 2.577-.13 2.684-.77.013-.174-.022-.349-.101-.506-.078-.156-.198-.289-.345-.382z" fill="url(#P)"/><path d="m303.087 197.67c-.401-.259-.72-.627-.921-1.061-.2-.434-.272-.916-.209-1.39 0-.566 0-1.132-.051-1.698 1.582-16.699 2.826-33.177 4.425-49.887h-15.145c0 3.685.887 7.358 1.695 10.964 1.266 5.791 1.967 8.837 2.826 14.746.197 1.353-.385 8.938-.21 10.297.803 6.346 2.481 9.317 2.673 15.686-.059 1.251-.225 2.496-.497 3.719 2.594 2.943 6.335 2.304 8.856 1.041.095-.096.164-.215.203-.345-1.284-.561-2.506-1.255-3.645-2.072z" fill="#f4caab"/><path d="m302.878 169.814c.03-.202.114-.393.243-.552.13-.158.3-.278.492-.348.184-.067.354-.167.503-.294.712-8.31 1.424-16.62 2.221-24.992h-15.146c0 3.685.888 7.359 1.696 10.965 1.266 5.79 1.966 8.836 2.825 14.746.198 1.353-.384 8.938-.209 10.296.803 6.346 2.481 9.318 2.673 15.686-.059 1.252-.225 2.496-.497 3.719.618.712 1.392 1.272 2.26 1.636-1.051-10.308 1.345-20.576 2.939-30.862z" fill="#111520"/><path d="m306.212 203.778c-.287-.182-.59-.339-.904-.47l-1.695-.792c-.083.172-.192.33-.322.469-2.922.934-5.945 1.699-8.539-1.262-.029.13-.232.487-.266.612-.169.633-.198 1.5.333 1.89.525.251 1.077.441 1.645.566 1.565.198 2.26.04 3.803.238 1.227.219 2.468.357 3.713.413.65 0 2.571-.124 2.684-.77.012-.176-.024-.351-.104-.509-.079-.157-.199-.29-.348-.385z" fill="url(#Q)"/><path d="m300.125 200.636c-.401-.26-.72-.629-.92-1.064s-.273-.918-.21-1.392c0-.566 0-1.133-.051-1.699 1.582-16.699 2.826-33.177 4.425-49.893h-15.145c0 3.691.887 7.359 1.695 10.965 1.266 5.791 1.972 8.842 2.826 14.746.197 1.359-.385 8.938-.215 10.302.808 6.34 2.486 9.312 2.673 15.681-.057 1.251-.222 2.495-.492 3.719 2.589 2.943 6.335 2.309 8.856 1.041.095-.096.165-.215.203-.345-1.283-.558-2.505-1.248-3.645-2.061z" fill="#efbc90"/><path d="m303.764 202.697c-1.281-.558-2.501-1.249-3.639-2.061-.401-.26-.72-.629-.92-1.064s-.273-.918-.21-1.392c0-.566 0-1.133-.051-1.699 1.582-16.699 2.826-33.177 4.425-49.893h-15.145c0 3.691.887 7.359 1.695 10.965 1.192 5.44 1.882 8.491 2.679 13.71 2.204-1.421 4.894-2.649 5.351-1.273 3.459 11.389-3.023 23.638 1.696 34.105 1.359-.072 2.688-.431 3.899-1.053.101-.095.177-.213.22-.345z" fill="#f4caab"/><path d="m301.397 168.79c.633-7.359 1.272-14.764 1.984-22.202h-15.146c0 3.691.888 7.359 1.696 10.965 1.13 5.032 1.774 7.993 2.498 12.555 2.789-1.331 5.914-1.79 8.968-1.318z" fill="#111520"/><path d="m306.607 168.065c.13-5.027.628-18.725.565-24.969-.078-2.378-.504-4.732-1.265-6.985-.616-2.066-.927-2.797-1.566-4.88-4.767.872-9.672.603-14.314-.787-.164 7.642-.989 6.499-1.696 9.691-.305 1.393-.661 1.699-.847 4.218-.396 5.377 3.475 14.497 3.04 23.774z" fill="url(#R)"/><path d="m305.596 134.593c-.407-1.132-.368-2.428-.566-3.594-5.096.373-10.218-.203-15.105-1.698.14 1.726.014 3.463-.373 5.151 1.537 1.291 3.797 1.296 5.775 1.659 5.793 1.047 6.963.209 10.269-1.518z" fill="url(#S)"/><path d="m304.347 131.231c-1-3.272-1.695-6.566-1.13-9.883.384-2.14 1.311-4.268.932-6.408-.26-1.427-1.079-2.751-1.825-4.076-.605-1.083-1.488-1.985-2.556-2.613-1.069-.628-2.286-.959-3.525-.959h-5.917l-1.04.113c-.871.028-1.726.248-2.503.646-1.571.968-1.56 3.04-1.13 4.692.853 3.187 2.69 6.108 3.633 9.278.825 2.751-.926 7.036.712 8.423 4.654 1.395 9.571 1.665 14.349.787z" fill="#364154"/><path d="m304.347 131.231c-1-3.272-1.695-6.566-1.13-9.883.384-2.14 1.311-4.268.932-6.408-.26-1.427-1.079-2.751-1.825-4.076-.605-1.083-1.488-1.985-2.556-2.613-1.069-.628-2.286-.959-3.525-.959h-5.917l-1.04.113c-.305.034-.616.074-.921.125.142 2.066.758 4.381 2.227 5.853 2.26 2.264 7.346 3.396 6.781 6.227-.825 4.681-.243 8.729 1.323 12.102 1.893-.008 3.783-.169 5.651-.481z" fill="#f4caab"/><path d="m292.514 105.628c2.062 2.468 5.651 3.962 7.069 6.753.837 1.698.729 3.583.351 5.372-.379 1.789-1.017 3.549-1.204 5.361-.142.918-.083 1.857.174 2.751.257.893.704 1.72 1.312 2.422.459.518 1.064.884 1.735 1.048.342.087.701.083 1.041-.012.34-.094.649-.275.898-.526.429-.532.293-1.245.186-1.885-.497-2.978-.028-6-.073-9.001-.046-3-.701-6.181-3.058-8.434-1.463-1.398-3.509-2.372-4.617-3.962-1.258.235-2.545.273-3.814.113z" fill="#fff"/><path d="m304.076 126.912c-.497-2.978-.028-6-.073-9.001-.046-3-.701-6.181-3.058-8.434-1.463-1.398-3.509-2.372-4.617-3.962-.197.039-.401.062-.604.09 1.768 3.051 4.831 5.44 6.47 8.401 2.114 4.653 1.633 9.894 1.187 15.199.197-.088.371-.22.509-.385.429-.555.294-1.285.186-1.908z" fill="url(#T)"/><path d="m287.043 110.485c.531 1.919 2.374 3.396 4.476 4.047s4.165 2.196 6.295 1.647c2.131-.549 2.102-3.158 4.063-4.07-5.673 1.07-9.398.181-14.834-1.624z" fill="url(#U)"/><path d="m290.648 117.855c.447.826.905 1.698 1.3 2.542 1.465 3.312 2.286 6.874 2.419 10.495h.333c-.136-3.66-.967-7.26-2.447-10.609-.401-.866-.859-1.726-1.305-2.558-.841-1.461-1.541-2.998-2.091-4.591-.014-.04-.043-.074-.081-.094s-.081-.025-.123-.014c-.02.004-.039.013-.056.024-.017.012-.032.027-.043.044-.011.018-.018.037-.022.058-.003.02-.002.041.003.061.557 1.611 1.264 3.165 2.113 4.642z" fill="url(#V)"/><path d="m290.914 104.377 3.131-.244c.643-.099 1.301-.049 1.922.148 1.13.469 1.655 1.805 2.023 3-2.442-.114-5.917.537-10.037.441.187-.758.814-2.536 1.464-2.96.459-.251.974-.383 1.497-.385z" fill="#fff"/><path d="m327.511 101.207c.045-.306.373-.566.616-.725.155-.091.285-.219.379-.373.186-.2436.401-.6625.214-.9003-1.13.2321-1.13.8943-2.26 1.2963-.157.052-.297.146-.406.272-.108.125-.181.278-.21.441-.203 1.263-.932 1.965-2.001 2.712l-1.441.622c.255.719.656 1.795.91 2.514 1.351-.459 1.871-1.036 3.176-1.387.317-.085 1.351-.159 1.792-.204.404-.057.78-.242 1.073-.526.441-.408.82-.697.486-1.132.26-.261.566-.385.633-.646.068-.26 0-.385-.181-.566.094-.059.169-.144.217-.244s.067-.212.055-.322c-.046-.136-.12-.261-.218-.366-.097-.105-.216-.189-.347-.245.64-.295 1.297-.554 1.966-.776.565-.272 1.131-.311 1.227-.9564-1.937.3214-3.839.8274-5.68 1.5114z" fill="#f4caab"/><path d="m325.064 102.69c-8.268 3.538-17.666 4.568-26.64 3.464-2.092-.35-4.213-.504-6.335-.458-1.978.13-4.312.741-5.521 2.451-.262.357-.432.773-.497 1.211-.238 1.902 1.695 4.042 3.198 4.478 5.652 1.653 11.84.351 17.66-.696 5.821-1.048 10.173-2.633 15.62-4.897 1.413-.627 2.788-1.334 4.12-2.117-.475-.906-1.04-2.553-1.605-3.436z" fill="#364154"/><path d="m325.11 102.498c-.78.334-1.571.639-2.368.928.529 1.412.928 2.869 1.193 4.353.943-.47 2.017-1.042 2.921-1.579-.565-.974-1.164-2.746-1.746-3.702z" fill="#fff"/><path d="m323.573 106.024c-9.135 4.719-19.542 6.372-29.686 4.716l-.26-.046c-.772-.159-1.558-.237-2.346-.232-.913 0-1.794.336-2.475.945-.031.032-.048.075-.048.119 0 .045.017.087.048.119.033.03.075.047.119.047s.086-.017.119-.047c.625-.549 1.428-.853 2.26-.855.76-.001 1.517.077 2.261.233l.26.045c2.562.424 5.156.63 7.753.617 7.664-.008 15.217-1.836 22.04-5.333 0-.096-.023-.215-.045-.328z" fill="url(#W)"/><path d="m306.252 132.629-5.787-.317c-.111-.006-.22-.037-.317-.09-.098-.054-.182-.129-.247-.22s-.108-.195-.127-.305-.012-.223.018-.33l5.002-17.418c.029-.101.079-.194.147-.274.068-.079.152-.144.246-.189.095-.045.198-.069.302-.071.105-.002.209.018.305.059l6.069 2.558c.174.073.314.21.39.382.077.173.085.368.023.547l-5.295 15.164c-.052.151-.151.282-.282.372-.131.091-.288.137-.447.132z" fill="#fff"/><path d="m306.833 133.014-6.459-.351c-.061-.003-.121-.021-.174-.05-.054-.03-.1-.072-.135-.122s-.059-.107-.069-.167c-.01-.061-.007-.123.01-.182l5.222-18.165c.016-.057.044-.11.082-.155.039-.045.087-.082.14-.106.054-.025.113-.038.172-.038s.118.014.171.039l6.708 2.83c.096.04.172.116.214.21.042.095.046.202.012.3l-5.476 15.691c-.03.084-.088.156-.164.204-.075.048-.165.07-.254.062z" fill="url(#X)"/><path d="m312.688 123.572-.153-.538c.003-.028.003-.056 0-.085-.09-.316-.15-.64-.18-.968.134-.312.194-.651.175-.99-.03-.134-.078-.263-.142-.385-.282-.566-.565-1.177-.842-1.761-.239.073-.442.235-.565.453-.123.219-.157.476-.096.719.091.323.356.566.458.9.032.109.047.221.045.334-.067.348-.169.687-.305 1.013-.526-.124-1.057-.232-1.588-.311-.117-.028-.239-.028-.356 0-.058.015-.109.049-.146.096s-.057.105-.057.165c0 .141.163.22.293.277l1.458.628-.045.136-1.893-.39c-.26-.051-.565-.08-.729.13-.049.073-.076.16-.076.249 0 .088.027.175.076.249.108.142.252.252.418.317-.09-.015-.182-.003-.265.034-.068.051-.118.123-.141.204-.024.082-.02.169.011.249.124.255.337.456.599.566l1.26.69-.192.606-1.667.809c-.085.046-.187.097-.209.193-.01.054 0 .109.028.156s.072.082.124.099c.104.028.213.028.317 0 .351-.035.7-.09 1.045-.164l.107-.029.334-.073.135-.04c.242-.068.479-.142.713-.221l.599-.209c.459-.128.88-.367 1.226-.696.565-.606.452-1.585.226-2.412zm-3.007.566c.21.034.419.068.628.119l-.057.176c-.182-.113-.373-.212-.571-.295z" fill="#efbc90"/><path d="m116.534 207.78c-1.899-1.008-1.983-.883-3.537-2.519l-.888-.798c-1.13-1.206-1.452-2.791-1.537-4.585-1.09-23.407 1.769-30.489-.068-32.385-1.814.283-3.667-.073-5.442.798-.457.234-.865.553-1.203.94-1.06 1.154-1.702 2.631-1.82 4.195-.356 3.509.412 9.781 1.367 13.132 1.323 4.482 2.412 9.03 3.261 13.625.239 1.203.227 2.442-.034 3.64-.25.926-.409 1.874-.474 2.831 0 1.358.288 1.839 1.418 2.145 1.328.362 1.729 0 2.526.209.691.222 1.344.546 1.939.963 1.887 1.07 2.695.458 4.786-.04.978-.226 1.729-1.087.82-1.568z" fill="#efbc90"/><path d="m111.103 171.003c.068-1.863-.057-2.932-.616-3.51-1.814.283-3.668-.073-5.442.798-.457.234-.866.553-1.204.94-1.06 1.154-1.701 2.631-1.82 4.195-.356 3.509.413 9.781 1.368 13.132 1.323 4.482 2.411 9.03 3.261 13.625.238 1.203.227 2.442-.034 3.64-.25.926-.409 1.874-.475 2.831 0 1.347.283 1.828 1.385 2.134.307-1.212.485-2.453.531-3.702.565-10.722-5.002-24.483 3.046-34.083z" fill="#f4caab"/><path d="m109.374 173.261c.506-.511 1.076-.954 1.696-1.319.146-2.456.084-3.781-.566-4.449-1.814.283-3.667-.073-5.442.798-.457.234-.865.553-1.203.94-1.06 1.154-1.702 2.631-1.82 4.195-.356 3.509.412 9.781 1.367 13.132.277.974.52 1.851.741 2.661.944-5.734.548-12.148 5.227-15.958z" fill="#111520"/><path d="m117.631 208.374-1.131-.594-1.299-.674c-.329.52-.8.935-1.357 1.195-3.266-.481-6.097-.391-7.595-2.831-.152.346-.224.721-.209 1.099 0 1.364.254 1.964 1.384 2.264 1.329.362 1.86.051 2.657.272.692.212 1.347.528 1.944.939 1.887 1.07 2.673.442 4.764-.051.994-.203 1.751-1.137.842-1.619z" fill="#111520"/><path d="m102.406 208.782s-.373-3.226-.678-4.398c.339-13.02 3.668-33.562 2.515-37.519-3.249.226-5.832 1.608-9.0815 1.336-1.1302 12.419 2.2097 27.46 2.7748 37.094-.2769 1.772-.4295 2.689-1.2942 4.178-.2769.47-.6272.871-.8759 1.364-.1969.494-.2593 1.031-.1808 1.557.0767 1.071.4059 2.109.9607 3.028.4521.776 1.1302.708 1.8536.651.9497-.031 1.8543-.414 2.5373-1.075 1.071-1.074 1.679-2.525 1.695-4.042-.033-.729-.108-1.454-.226-2.174z" fill="#efbc90"/><path d="m96.6639 209.473c-.2769.469-.6273.871-.8759 1.364-.1969.493-.2593 1.031-.1809 1.556.0477.662.1944 1.313.4352 1.931.6802-2.152 1.1533-4.364 1.4128-6.606-.1972.613-.4626 1.201-.7912 1.755z" fill="#f4caab"/><path d="m99.0156 177.349c.503-1.506 2.7864-3.012 5.2674-2.933.271-3.6.333-6.345 0-7.551-3.25.226-5.8325 1.608-9.0819 1.336-1.0399 11.599 1.7914 25.473 2.6278 35.096.356-8.366-.6782-17.242 1.1867-25.948z" fill="#f4caab"/><path d="m104.322 173.873c.237-3.329.277-5.865-.056-7.008-3.25.226-5.8325 1.608-9.0819 1.336-.1583 1.698-.2204 3.481-.2261 5.276 3.0458.874 6.256 1.01 9.364.396z" fill="#111520"/><path d="m96.986 212.445c-.9211-.3-.8702-1.421-.6838-2.401-.1909.259-.3628.532-.5142.816-.1969.493-.2593 1.03-.1809 1.556.0767 1.072.406 2.109.9608 3.029.452.775 1.1302.707 1.8536.651.9496-.031 1.8535-.415 2.5375-1.076 1.07-1.074 1.679-2.524 1.695-4.042-.029-.728-.101-1.454-.215-2.173 0 0 0-.068 0-.187-.683 3.26-1.695 4.704-5.453 3.827z" fill="#111520"/><path d="m112.199 169.989c.887-8.264.616-16.076.441-24.454-7.053.307-14.1098-.505-20.9096-2.405-1.2885 4.709-.3334 9.832.8307 14.587 1.1642 4.755 2.5487 9.623 2.0797 14.537 6.8382 2.389 14.8572-1.297 17.5582-2.265z" fill="url(#Y)"/><path d="m91.7079 143.102c-.6493 2.606-.7951 5.314-.4295 7.975 6.7815.221 14.4276.312 21.4746-1.358-.028-1.393-.062-2.796-.09-4.212-7.068.312-14.1408-.5-20.9551-2.405z" fill="#111520"/><path d="m119.212 121.059-2.746-6.578c-1.39-3.328-2.159-5.542-4.08-8.598l-.972-.102c-1.385.034-2.956 1.755-3.159 3.13-.204 1.376.243 2.751.684 4.07l2.085 6.266c.437 1.447 1.004 2.851 1.695 4.195.691 1.351 1.736 2.488 3.024 3.289.395.264.843.439 1.312.512.469.074.949.044 1.406-.088 1.074-.413 1.65-1.641 1.656-2.79-.079-1.152-.386-2.276-.905-3.306z" fill="#364154"/><path d="m110.572 105.99c-.579.284-1.087.693-1.488 1.199-.401.505-.684 1.093-.829 1.722-.198 1.37.243 2.751.683 4.07l2.086 6.266c.41 1.457.978 2.863 1.695 4.195.779 1.287 1.807 2.406 3.024 3.289.385.285.833.472 1.307.546.473.074.957.032 1.411-.122l.079-.045c-.203-.317-.396-.64-.565-.979-3.826-6.091-.74-12.935-7.403-20.141z" fill="#111520"/><path d="m117.342 127.087c.599.05 1.201-.06 1.745-.317.543-.257 1.01-.654 1.352-1.149.668-.996 1.173-2.093 1.497-3.249 1.318-3.753 3.022-7.357 5.087-10.755-.939-1.795-2.792-1.585-4.03-2.355-2.221 3.21-4.131 6.47-6.244 9.753-.871 1.353-1.752 2.797-1.854 4.404-.102 1.608.859 3.408 2.447 3.668z" fill="#364154"/><path d="m126.35 111.396c-.062-.154-.171-.284-.311-.374-.891-.659-1.922-1.106-3.012-1.307-.048.686.043 1.374.267 2.024s.578 1.248 1.039 1.757c.41-.039.794-.221 1.085-.515.284-.296.534-.622.746-.974.071-.083.124-.181.156-.286s.043-.216.03-.325z" fill="#111520"/><path d="m132.001 106.788c-.038-.045-.089-.08-.145-.1-.057-.02-.118-.024-.177-.013-.116.025-.228.071-.327.136l-1.764.996-.056-.085c.729-.492 1.447-1.002 2.136-1.551.082-.058.153-.131.209-.215.025-.045.038-.096.038-.147s-.013-.102-.038-.147c-.031-.046-.075-.082-.126-.104s-.107-.029-.162-.021c-.11.015-.216.051-.311.108-.878.449-1.731.946-2.554 1.489l-.085-.051 2.458-1.84c.13-.096.283-.238.232-.396-.02-.049-.055-.091-.099-.121-.045-.029-.097-.044-.15-.043-.105-.002-.209.02-.305.062-1.177.494-2.292 1.125-3.323 1.879h-.073c.78-.617 1.695-1.132 2.418-1.8.074-.062-.062-.357-.129-.436-.068-.079-.153-.034-.227 0-.797.356-1.555.796-2.26 1.313-.386.315-.798.595-1.232.838-.158.017-.317.017-.475 0-.333-.056-.497-.045-.638-.356-.099-.261-.157-.537-.17-.816 0-.3-.497-1.285-.797-1.296-.299-.011-.429.821-.407 1.132.064.38.172.75.323 1.104.223.58.245 1.218.062 1.812-.199.697-.314 1.415-.345 2.139-.009.362.075.721.244 1.041.17.32.418.592.722.788.169.105.371.142.566.102.161-.06.306-.157.423-.283.306-.284.622-.567.944-.821 1.29-.549 2.477-1.315 3.51-2.265.689-.384 1.331-.849 1.91-1.386.086-.074.157-.165.209-.266.034-.059.05-.127.045-.195-.005-.067-.031-.132-.074-.185z" fill="#efbc90"/><path d="m125.305 107.122c-.011.035-.014.071-.008.106.006.036.02.069.042.098.279.559.343 1.202.18 1.806-.043.124-.069.254-.079.385-.004.066.01.131.039.19.03.059.075.108.131.144.068.023.14.033.212.027s.142-.027.206-.061l2.311-.866c.046-.107.058-.224.035-.338-.024-.113-.081-.217-.165-.296-.168-.154-.318-.327-.446-.515-.04-.104-.091-.203-.153-.295-.098-.094-.222-.159-.356-.187l-.565-.169c-.4-.167-.842-.206-1.266-.114-.048.013-.091.043-.118.085z" fill="#f4caab"/><path d="m91.957 105.656c.729-.956 1.9101-1.438 3.0573-1.783 4.9672-1.476 10.2887-1.208 15.0827.759.892.286 1.67.849 2.221 1.607.667 1.132.334 2.536.407 3.838.17 2.995 2.131 5.712 1.244 8.582-.605 1.941-2.091 3.26-3.114 5.021-.793 1.529-1.074 3.274-.803 4.975.264 1.688.642 3.356 1.131 4.993 1.231 4.8 2.543 7.953 2.452 14.186-7.516.09-15.8233 1.251-23.4977.713-.7516-5.723 2.7465-11.695 3.5716-17.407 1.0568-7.358-2.8256-14.615-2.6787-22.076.0735-1.178.1978-2.474.9268-3.408z" fill="#364154"/><path d="m101.841 103.471c1.216 2.056 2.022 4.328 2.373 6.691.424 2.83.17 5.763-.079 8.633l-1.13 12.612 6.165.141c1.443-4.658 1.939-9.559 1.459-14.413-.481-4.853-1.928-9.561-4.256-13.845z" fill="url(#Z)"/><path d="m108.854 126.363c-.007-3.8-.222-7.596-.644-11.372-.418-3.774-1.451-7.453-3.058-10.891l.255-.125c1.621 3.465 2.663 7.173 3.085 10.976.422 3.788.637 7.595.644 11.406z" fill="#111520"/><path d="m92.6298 144.126c5.3065-2.451 12.2522-.815 18.3782-.408 0-3.271.813-6.951-1.227-9.815-2.859-4.5-8.578-6.136-11.4322-10.637-2.0457-3.679 1.6332-7.358-.4125-11.044-.6731-1.358-1.614-2.566-2.7659-3.551-1.1519-.984-2.491-1.725-3.9365-2.177-.1166.587-.1772 1.184-.1808 1.783-.13 7.438 3.7354 14.718 2.6787 22.077-.763 5.292-3.8203 10.806-3.6677 16.144.5522-1.067 1.46-1.906 2.5657-2.372z" fill="url(#aa)"/><path d="m110.018 143.175-15.27-.368 4.2102-23.871 15.2638.362z" fill="#111520"/><path d="m111.448 141.539-15.2132.085-.2543-.549 4.1815-23.826 15.349.419.181.476z" fill="#fff"/><path d="m111.499 141.998-15.2695-.368 4.2105-23.871 15.264.368z" fill="url(#ab)"/><path d="m97.3652 135.193c3.6418 2.739 7.6138 5.006 11.8228 6.748l2.339.056.933-5.298c-5.002-1.929-9.716-4.536-14.0097-7.749z" fill="#111520"/><path d="m106.989 102.826c-.463-1.888-.722-3.8197-.774-5.7627-1.595.1949-3.213.058-4.753-.4019-.193 2.1062-.82 4.1496-1.8419 6.0006 2.6169 1.098 5.0979 1.33 7.3689.164z" fill="#efbc90"/><path d="m101.462 96.6614c-.193 2.1062-.82 4.1496-1.8419 6.0006 1.4169.649 2.9629.966 4.5209.928-1.129-2.107-1.838-4.4142-2.085-6.7928-.215-.0339-.401-.0792-.594-.1358z" fill="#f4caab"/><path d="m99.0153 102.322c.1131-.164.373-.147.5143-.289.077-.097.1241-.215.1356-.339.0083-.123.0472-.242.1131-.346.0361-.049.0902-.082.1506-.091.0603-.01.1221.005.1711.04.527.441 1.168.721 1.848.81 1.491.28 3.027.212 4.487-.198.125-.047.257-.071.39-.074.067 0 .132.017.189.05.058.033.106.08.139.137.091.175 0 .408.062.566.062.159.181.187.232.306.022.061.027.127.014.191s-.043.123-.087.171c-.087.097-.193.176-.311.232-1.506.69-3.186.902-4.815.606-.666-.074-1.319-.242-1.939-.498-.3822-.171-.7397-.394-1.0619-.663-.0985-.075-.181-.169-.2431-.277-.025-.053-.037-.11-.035-.168.0019-.059.0178-.115.0463-.166z" fill="url(#ac)"/><path d="m102.011 96.803c.158 2.6039 2.215 4.013 4.679 4.619-.307-1.4326-.466-2.8933-.475-4.3586-1.405.182-2.832.0936-4.204-.2604z" fill="#111520"/><path d="m104.921 87.7628c.33-.7398.94-1.318 1.695-1.6076.393-.1792.822-.2667 1.253-.2559.432.0108.856.1196 1.239.3182.458.3167.807.767 1.001 1.2897.193.5226.22 1.0922.079 1.6312-.31 1.0787-.97 2.0231-1.876 2.6831-.198.1768-.434.3047-.69.3736-.228.0129-.456-.0228-.67-.1048-.213-.082-.406-.2083-.567-.3707-.599-.4647-1.078-1.0665-1.396-1.7548-.31-.6967-.335-1.4875-.068-2.202z" fill="url(#ad)"/><path d="m105.757 86.6534c.724.0531 1.428.2699 2.057.6339.329.2538.599.575.794.942.195.3671.31.7716.336 1.1865.034 1.183-.322 1.6982-.283 2.0887.018.2467.073.4892.164.7189.462 1.2032.494 2.5291.091 3.7531-.39.9623-.978 1.8397-1.447 2.768-.067.1457-.173.2693-.307.3565s-.29.1344-.45.136c-1.904.016-3.757-.6101-5.262-1.7774-.813-.6427-1.469-1.4625-1.9185-2.3973-.4494-.9347-.6803-1.9598-.675-2.9974.025-1.0379.3345-2.049.8947-2.9226.5598-.8735 1.3498-1.576 2.2818-2.0304 1.177-.4858 2.464-.6442 3.724-.4585z" fill="#efbc90"/><path d="m107.493 88.476c.497.6137.963 1.2523 1.395 1.9133 0-.0905.034-.1754.046-.283.084-.7529-.407-2.3265-1.035-2.7624-.646-.4029-1.382-.6401-2.141-.6906-1.255-.1823-2.535-.0239-3.708.4585-.702.3375-1.326.8193-1.83 1.4143-.5047.5949-.8784 1.2896-1.097 2.0387.6582.5275 1.382.967 2.153 1.3076 2.826 1.1322 4.521-1.6982 6.217-3.3964z" fill="#f4caab"/><path d="m100.835 84.8364c-1.413.4189-2.9728 1.0868-3.6001 2.4284-2.0909 4.4549-1.1302 6.0512-.1582 7.0758.0279.3076.1183.6061.2656.8774.6951 1.2397 2.9837 1.6416 3.8767 2.7454.701-.634-.04-1.6472.237-2.5473.249-.7981.509-2.2642 1.046-2.8982 1.464-.7076 2.577-1.5624 3.227-3.0794.26-.7579.583-1.4925.966-2.1964.192-.3532.469-.653.805-.8723.336-.2194.722-.3515 1.122-.3843-.26-2.485-5.193-1.9246-7.787-1.1491z" fill="url(#ae)"/><path d="m101.693 92.5857c-.276-.201-.505-.4598-.672-.7585-.124-.2094-.203-.4302-.469-.4642-.184.0027-.364.0571-.519.1572s-.2787.2418-.357.4089c-.1579.3574-.2461.7416-.26 1.1321.0685.5773.2308 1.1395.4804 1.6643.0505.2785.1966.5308.4126.7132.305.2604 1.368.0623 1.65-.2377z" fill="#efbc90"/><path d="m106.289 133.422c.277.199.592.338.926.407.334.07.679.068 1.012-.005.673-.102 1.317-.351 1.989-.459.702-.152 1.435-.076 2.091.215.06.05.106.116.131.19s.028.153.011.229c-.034.091-.566.289-.667.323-.379.124-.667-.079-1.046.051-.128.072-.225.188-.272.327-.048.139-.044.29.012.426.057.099.147.176.255.215.383.187.796.305 1.22.351.317.034 1-.074 1.227.164.226.238.135.872.073 1.223-.119.724-.124 1.222-.639 1.743-.689.685-2.215.872-3.159.628-1.7-.513-3.234-1.468-4.447-2.768.426-1.087.853-2.173 1.283-3.26z" fill="#efbc90"/><path d="m104.627 137.724c-4.8491-2.995-9.986-5.225-13.891-9.289-.6948-.66-1.2974-1.41-1.7915-2.231-.3627-.9-.5544-1.86-.5651-2.83-.2034-2.213.2091-4.28.373-6.453.0992-2.285.3922-4.558.8759-6.793.4634-1.862.9551-3.991 2.3396-5.406.989-1.013 1.8932-.798 2.8257.272 1.1019 1.273 1.4071 3.04 1.554 4.715.2952 3.463.0724 6.951-.6612 10.348-.2203 1.036-.4916 2.123-.1808 3.141.3436.885.9102 1.665 1.6445 2.265 3.0409 2.896 6.4069 5.428 10.0309 7.545-1.091 1.319-1.464 3.352-2.554 4.716z" fill="#364154"/><path d="m95.2512 122.734h-.0339c-.0194-.003-.0378-.01-.0542-.021-.0163-.011-.0303-.025-.0409-.041-.0107-.017-.0177-.035-.0208-.055-.0031-.019-.0021-.039.0028-.058.9438-3.963 1.6954-8.225 1.0173-12.793-.0032-.02-.0025-.039.002-.058.0045-.02.0128-.038.0244-.053.0116-.016.0262-.029.0431-.04.0168-.01.0354-.016.0548-.019.0193-.003.0391-.003.0582.002.019.005.037.013.0528.024.0157.012.0291.027.0391.044.0101.016.0167.035.0194.055.7121 4.613-.0734 8.932-1.0228 12.906-.0087.031-.0271.058-.0526.077-.0255.02-.0567.03-.0887.03z" fill="#111520"/><path d="m107.091 133.127c-.028.008-.057.008-.085 0-.684-.469-1.396-.945-2.114-1.42-3.39-2.236-6.8658-4.529-9.2167-7.648-.0232-.032-.033-.071-.0272-.11.0059-.039.0268-.073.0583-.097.0315-.023.0709-.033.1096-.027s.0734.027.0967.058c2.317 3.052 5.7873 5.355 9.1433 7.58.718.476 1.43.945 2.12 1.421.032.022.054.055.061.094.008.038 0 .077-.022.11-.016.016-.036.028-.057.035-.022.007-.045.008-.067.004z" fill="#111520"/><path d="m104.604 137.826c-.021 0-.043-.004-.062-.013-.02-.008-.037-.022-.051-.038-.014-.014-.025-.03-.032-.048-.008-.018-.012-.037-.012-.057 0-.019.004-.039.012-.057.007-.018.018-.034.032-.048.615-.629 1.052-1.41 1.266-2.264v-.085c.227-.863.642-1.665 1.215-2.349.012-.017.028-.03.047-.04.018-.01.038-.016.059-.018.021-.001.041.002.061.009.019.007.037.018.052.033.015.014.027.032.034.051.008.02.011.04.01.061 0 .021-.006.041-.015.06-.01.018-.023.035-.039.048-.535.664-.921 1.437-1.13 2.264l-.034.091c-.234.897-.7 1.717-1.351 2.377-.019.012-.04.02-.062.023z" fill="#111520"/><path d="m102.869 136.846c-.024.006-.049.006-.073 0-.033-.019-.058-.05-.069-.087-.01-.037-.006-.077.012-.111.672-1.29 1.239-2.632 1.696-4.013.006-.019.015-.036.028-.051.012-.015.028-.027.045-.036s.036-.015.056-.016c.019-.002.039.001.057.007.037.013.068.039.085.074.018.035.022.075.011.113-.465 1.397-1.043 2.755-1.729 4.058-.014.019-.031.034-.052.045s-.043.017-.067.017z" fill="#111520"/><path d="m158.568 137.956c-2.746-.696-5.759-.9-8.573-1.211 1.36-2.362 2.135-5.015 2.261-7.738 2.002.17 4.017.113 6.007-.17z" fill="#efbc90"/><path d="m163.558 122.7c.214 1.01.151 2.058-.181 3.034-.165.295-.294.609-.384.935-.008.436.051.871.175 1.29.061.916-.114 1.832-.509 2.661l-1.198 3.187c-.036.195-.116.38-.233.541-.118.16-.27.292-.445.386-.176.093-.37.146-.568.154-.199.008-.397-.029-.579-.108-.983-.147-1.967-.339-2.939-.566-1.305-.317-2.684-.77-3.503-1.834-.82-1.064-.893-2.309-.859-3.549.044-1.515.301-3.017.763-4.461.238-.803.594-1.566 1.056-2.264.466-.709 1.128-1.268 1.905-1.608 1.114-.358 2.304-.413 3.447-.158.665.071 1.318.227 1.944.464.633.236 1.168.681 1.515 1.262z" fill="#efbc90"/><path d="m161.179 126.216c-.565.821-.848 1.772-1.334 2.626-1.356 2.378-4.707 3.567-8.013 4.059.859-1.517 2.65-3.578 3.47-5.123.758-1.577 1.852-2.968 3.204-4.076.681-.549 1.476-.938 2.327-1.139s1.736-.208 2.59-.021c-.103.726-.411 1.408-.888 1.964-.418.578-.932 1.104-1.356 1.71z" fill="url(#af)"/><path d="m166.35 120.176c-.281.471-.726.82-1.249.979.416-.308.72-.744.866-1.242s.126-1.03-.058-1.515c-.062.319-.232.606-.481.812-.25.207-.563.32-.887.321.206-.062.38-.202.486-.39.105-.188.134-.41.079-.618-.172.204-.391.362-.638.461-.248.098-.516.135-.78.105l-1.475-.045c.234-.232.412-.514.523-.825.11-.31.15-.642.115-.97-.224.43-.545.801-.937 1.085-.393.284-.845.473-1.323.551h-.079l-.209-.039c.26-.277.411-.639.424-1.019-.376.36-.876.563-1.396.566.232-.169.392-.42.446-.702-.556.301-1.164.493-1.791.566-1.194-.186-2.407-.205-3.606-.057-.705-.025-1.403.152-2.012.51-.381.31-.694.695-.921 1.132-.818 1.442-1.376 3.017-1.65 4.653-.153.928.288 2.038.514 2.949.515 2.061 1.046 3.487 1.509 5.565 1.939-1.699 5.086-1.653 6.782-3.187 1.164-1.059 1.735-2.616 2.13-4.218.101-.383.308-.729.599-.998.29-.269.651-.449 1.04-.519.614-.111 1.17-.431 1.577-.905.605-.282 1.136-.699 1.553-1.221.417-.521.707-1.132.849-1.785z" fill="#364154"/><path d="m160.749 124.976c-.337.013-.675-.013-1.006-.079-1.157-.176-2.328-.243-3.498-.198-1.422-.015-2.822.355-4.052 1.069-.162.426-.266.872-.311 1.325.281-.072.57-.109.859-.107.512.039 1.026.039 1.538 0 1.011-.159 1.859-.85 2.825-1.178 1.12-.283 2.286-.329 3.425-.136-.103.101-.225.18-.359.232-.134.051-.277.075-.421.068-.288 0-.565-.062-.859-.079-.944-.057-1.831.374-2.718.696-1.388.509-2.851.782-4.329.81-.091 1.132 0 2.315-.424 3.362-.04.085-.085.164-.13.244.175.639.35 1.296.52 2.043 1.938-1.698 5.086-1.653 6.781-3.187 1.165-1.058 1.735-2.615 2.131-4.217.064-.259.181-.502.345-.713-.104.025-.21.04-.317.045z" fill="url(#ag)"/><path d="m152.459 125.219c-.051.085-.091.17-.136.255.672-.521 1.466-.86 2.306-.985 1.165-.139 2.342-.126 3.504.04 1.075.145 2.163.166 3.244.062.284-.241.624-.406.988-.481.194-.044.383-.104.566-.181-3.725-.147-7.76-2.332-10.472 1.29z" fill="url(#ah)"/><path d="m160.721 127.608c-.39 0-.639-.419-.718-.803-.079-.385-.118-.827-.435-1.059-.177-.097-.382-.131-.582-.096-.199.035-.38.137-.514.288-.254.318-.421.697-.486 1.099-.302.95-.288 1.973.039 2.915.131.318.349.592.628.792.143.096.306.157.476.179.171.023.344.006.507-.048z" fill="#efbc90"/><path d="m158.438 133.807c.608.239 1.196.529 1.757.866-.502.018-1.005-.024-1.497-.125-.107-.008-.206-.057-.277-.136-.119-.169.051-.402.017-.605z" fill="url(#ai)"/><path d="m181.992 127.223c-.068-.02-.14-.027-.211-.019s-.139.03-.202.065c-.965.427-1.958.788-2.972 1.081.339-.832 1.983-2.151 2.746-3.051.125-.148.255-.334.181-.51-.124-.294-.565-.141-.819.057-.565.441-1.696 1.234-2.261 1.698-.384.3-.96.526-1.074.34-.113-.187.102-.804.34-1.172.418-.628.825-1.421 1.243-2.049.152-.238.39-.708.152-.849-.237-.142-.52.068-.678.243-.763.849-1.633 2.162-2.39 3.017-.565-.266.678-2.264 1.017-3.057.064-.119.087-.256.068-.39-.007-.049-.026-.095-.055-.135-.028-.04-.066-.073-.109-.095-.044-.023-.092-.035-.141-.035-.049-.001-.098.011-.142.033-.238.113-.445.282-.604.492-.944 1.257-1.204 2.412-2.871 4.149-.345.357-.735.844-1.21.691-.474-.153-.565-.708-.779-1.132-.167-.312-.418-.57-.725-.744-.307-.175-.658-.258-1.01-.241.22 1.432 1.266 2.587 1.695 3.962.184.56.262 1.15.232 1.738-2.978 5.044-6.296 10.331-9.263 15.363l4.917 2.774c.108.104.24.179.384.221.143.041.295.047.442.017.146-.03.284-.095.4-.19.116-.094.207-.216.266-.354 3.069-4.228 3.956-8.881 5.227-13.953.119-.464.605-1.585.938-2.457.228-.278.475-.539.741-.781.997-.853 2.085-1.593 3.244-2.208l2.938-1.698c.159-.074.296-.19.396-.334.056-.072.083-.163.073-.254-.009-.091-.054-.174-.124-.233z" fill="#efbc90"/><path d="m164.705 148.071 2.402 1.353c.108.104.24.18.384.221.143.042.295.048.442.017.146-.03.283-.095.399-.189.116-.095.208-.217.267-.354 3.068-4.229 3.956-8.882 5.227-13.954.119-.464.605-1.585.938-2.451-2.633-1.641-5.956 10.529-10.059 15.357z" fill="#f4caab"/><path d="m172.809 135.703c-.081-.003-.159-.023-.232-.057l-1.012-.441c-.07-.021-.135-.059-.188-.11s-.093-.114-.117-.184c-.012-.058-.012-.117 0-.174.011-.058.035-.112.068-.16l.627-1.161c.046-.095.124-.169.221-.21s.205-.045.305-.011c.31.121.606.277.881.465.129.076.225.197.272.339.022.128.002.259-.057.374l-.39.996c-.017.063-.047.121-.089.171s-.095.09-.154.118c-.041.025-.087.041-.135.045zm-.475-2.162c-.04 0-.068 0-.079.034l-.628 1.16c-.017.03-.03.063-.039.096.032.027.068.048.107.063l1.017.435c.031.017.063.028.097.034 0 0 0-.028.045-.096l.39-.996c.028-.052.041-.111.039-.17 0-.045-.073-.096-.13-.136-.252-.174-.526-.317-.814-.424z" fill="#acacac"/><path d="m170.843 132.754c-.055-.03-.116-.048-.178-.052-.062-.005-.125.003-.184.023-.079.055-.14.132-.175.221-.17.334-.447.628-.644.957-.012.019-.018.041-.02.064-.002.022.002.045.01.066s.021.04.037.056.036.027.057.035c.717.217 1.421.476 2.108.775.179-.432.387-.852.622-1.257-.497-.26-1.164-.713-1.633-.888z" fill="url(#aj)"/><path d="m171.56 133.727-.135.334c.577.181 1.143.397 1.695.646l.141-.216z" fill="#acacac"/><path d="m174.109 134.492c-.153-.108-.565-.278-.825-.414-.056-.027-.121-.031-.18-.011-.06.02-.109.063-.137.119-.117.252-.215.513-.293.781-.017.05-.017.103 0 .153.018.049.051.091.096.119.324.256.628.536.91.837.026.018.056.028.088.032.031.003.063-.001.092-.012.03-.011.057-.028.078-.052.022-.023.038-.05.047-.081.09-.356.169-.736.26-1.092.017-.07.013-.143-.011-.21-.024-.068-.067-.127-.125-.169z" fill="url(#ak)"/><path d="m186.502 210.248c.241-1.865-.092-3.759-.955-5.428 2.011.032 4.01-.322 5.888-1.042.287 1.907.678 3.797 1.17 5.661-1.878.972-4.037 1.258-6.103.809z" fill="url(#al)"/><path d="m186.389 208.686c.171-.256.433-.436.733-.503.3-.068.614-.017.877.141.492.283.82.786 1.289 1.098.921.617 2.39.322 3.255-.646.271-.3.509-.673.87-.809.15-.052.312-.063.468-.032.155.031.3.102.42.207.217.209.407.445.565.702.601.776 1.432 1.341 2.373 1.614.627.181 1.345.254 1.797.713.565.566.565 1.562.362 2.451l-1.238.079h-12.664c-.211-1.246-.104-2.525.311-3.719.135-.368.288-1.098.582-1.296z" fill="url(#am)"/><path d="m185.417 212.597c.005.363.039.724.102 1.082h12.664l1.238-.08c.08-.335.121-.679.124-1.024z" fill="#111520"/><path d="m167.779 167.159c6.83.603 13.464 2.603 19.492 5.876 1.13.628 2.322 1.353 2.927 2.593.407 1.025.62 2.117.627 3.221.663 9.276 1.326 18.553 1.989 27.833-2.616.419-2.825.934-5.402.906-.667 0-2.464-.125-2.922-.566-.565-.566-.531-1.732-.537-2.638-.034-3.181-.565-5.395-1.317-8.344-.563-1.942-1.021-3.913-1.373-5.904-.299-2.117-.175-4.529.565-8.219-3.39-1.761-8.821-.776-12.867-.663-4.047.114-8.421-.452-10.619-3.73-1.696-2.525-1.696-6.097-1.696-9.47l13.49-3.255c.102.702.198 1.409.294 2.111z" fill="url(#an)"/><path d="m191.17 183.643c-.119-1.59-.232-3.187-.345-4.777-.007-1.104-.22-2.196-.627-3.221-.605-1.24-1.774-1.965-2.927-2.593-6.027-3.279-12.66-5.284-19.491-5.893l2.65-.249c-.096-.702-.192-1.409-.294-2.111l-13.478 3.272c-.034 3.396 0 6.945 1.695 9.47 2.199 3.277 6.567 3.844 10.619 3.73 4.052-.113 9.455-1.098 12.868.663-.718 3.702-.842 6.102-.565 8.219.353 1.991.813 3.962 1.379 5.904.734 2.949 1.282 5.162 1.316 8.344 0 .905-.039 2.083.537 2.638.407.261.874.413 1.357.441-1.651-10.5-5.804-22.314 5.306-23.837z" fill="#111520"/><path d="m203.315 210.871c-.075-1.944-.698-3.826-1.797-5.429 1.96.042 3.909-.312 5.73-1.041.482 1.952 1.166 3.849 2.04 5.66-1.827.986-3.95 1.274-5.973.81z" fill="url(#ao)"/><path d="m202.285 209.309c.243-.566 1.074-.646 1.634-.363.559.283.983.787 1.525 1.099.544.293 1.171.388 1.777.271.605-.118 1.152-.442 1.546-.917.238-.3.43-.673.786-.809.162-.051.334-.061.502-.03.167.03.324.101.459.205.269.204.514.44.729.702.752.774 1.699 1.331 2.74 1.613.696.182 1.458.255 2.007.714.31.32.54.708.671 1.134.132.426.161.877.086 1.317l-1.283.079h-13.32c-.412-1.195-.498-2.479-.249-3.719.068-.357.113-1.098.39-1.296z" fill="url(#ap)"/><path d="m201.867 213.226c.062.366.154.725.277 1.075h13.32l1.283-.079c.039-.338.039-.68 0-1.019z" fill="#111520"/><path d="m175.227 167.329c7.73.635 15.291 2.604 22.351 5.819 1.373.628 2.78 1.347 3.662 2.57.614.979 1.041 2.063 1.26 3.198 2.374 9.205 4.749 18.411 7.126 27.619-2.786.413-2.933.928-5.747.9-.729 0-2.712-.119-3.295-.566-.729-.566-.887-1.699-1.056-2.616-.605-3.158-1.594-5.355-2.922-8.281-.953-1.904-1.803-3.858-2.549-5.853-.712-2.106-.994-4.489-.87-8.163-4.052-1.743-9.782-.764-14.19-.645s-9.285-.453-12.269-3.702c-2.289-2.502-2.95-6.052-3.515-9.397l14.173-3.238c.226.702.458 1.398.69 2.1z" fill="url(#aq)"/><path d="m147.988 138.245c4.104-.149 8.213.04 12.286.566.187-.804.39-.476.565-1.28-4.097-1.398-8.183-1.104-12.517-1.064.147 1.313-.142.493-.334 1.778z" fill="url(#ar)"/><path d="m177.9 164.623c-.446-.487-.972-.934-1.458-1.375-2.123-1.95-3.758-4.372-4.775-7.07-.989-2.627-1.356-5.435-2.029-8.158-.672-2.722-1.695-5.468-3.73-7.404-1.725-1.549-3.849-2.584-6.131-2.988-2.27-.402-4.573-.591-6.878-.567-1.526 0-3.097-.045-4.521.51-1.009.348-1.961.844-2.825 1.472-1.165.888-1.085 1.771-1.752 3.073-1.068 2.072-.424 7.925.248 10.156 1.99 6.623 3.73 9.815 6.895 15.963.587 1.216 1.263 2.388 2.023 3.504l1.294 3.396c.127.388.308.755.537 1.093.605.655 1.393 1.114 2.261 1.318 2.661.895 5.357 1.789 8.149 2.095 2.791.306 5.736 0 8.171-1.438 1.939-1.209 3.536-2.894 4.64-4.896 1.099-1.993 2.025-4.076 2.769-6.227z" fill="url(#as)"/><path d="m163.965 157.831c-.464-1.517-.752-3.165-1.758-4.387-1.413-1.699-3.916-2.208-5.346-3.906-1.198-1.421-1.475-3.487-2.826-4.778-1.35-1.291-3.289-1.443-5.086-1.562-1.554-.102-3.39-.068-4.283 1.217-.424.775-.598 1.663-.498 2.541.179 5.837 2.022 11.5 5.312 16.32 1.871 2.729 4.216 5.219 5.307 8.344.452 1.302.689 2.723 1.498 3.838.892 1.24 2.362 1.919 3.814 2.377 2.575.815 5.289 1.088 7.974.804 2.464-.266 5.193-1.279 6.086-3.6.746-1.942-.084-4.172-1.39-5.791-1.305-1.619-3.04-2.83-4.521-4.291-1.984-1.992-3.454-4.438-4.283-7.126z" fill="url(#at)"/><path d="m177.901 164.623c-.446-.486-.972-.934-1.458-1.375-2.123-1.95-3.759-4.371-4.775-7.07-.989-2.627-1.357-5.435-2.029-8.157-.673-2.723-1.695-5.469-3.73-7.404-.795-.744-1.698-1.363-2.679-1.835 1.521 1.167 2.9 2.316 3.391 4.223 2.148 10.45 5.555 19.898 13.286 26.492.322-.804.633-1.619.938-2.428z" fill="#fff"/><path d="m157.098 144.834c.62 2.063 1.81 3.908 3.432 5.323 1.621 1.416 3.61 2.343 5.735 2.675.943.136 2.012.113 2.695-.566 1.018-.968.622-2.655.096-3.962-.722-1.998-1.802-3.848-3.187-5.457-.698-.8-1.553-1.448-2.512-1.904-.958-.455-2-.709-3.06-.745-1.187 0-2.464.469-3.063 1.5-.576.945-.429 2.111-.136 3.136z" fill="url(#au)"/><path d="m177.161 172.124c.107-.588.077-1.193-.088-1.768-.164-.574-.46-1.103-.862-1.544-.621-.693-1.321-1.31-2.085-1.84l-.514-.379c-4.264-3.326-7.298-7.981-8.624-13.229l-.051-.215c-.127-.687-.373-1.346-.729-1.947-.215-.351-.529-.63-.902-.801-.373-.172-.789-.228-1.195-.162l.085.346c.332-.047.67.007.972.153s.554.378.723.668c.333.564.563 1.183.679 1.828l.056.215c1.342 5.327 4.421 10.052 8.748 13.427l.526.402c.741.514 1.419 1.113 2.023 1.783.366.397.636.873.789 1.392.153.518.184 1.064.093 1.597z" fill="url(#av)"/><path d="m183.614 147.347c.315.643.468 1.354.445 2.071-.022.716-.22 1.416-.575 2.038s-.857 1.148-1.462 1.531-1.294.611-2.008.666c-2.096.164-4.006-1.183-5.538-2.632-1.531-1.449-2.967-3.125-4.928-3.895 0-1.132-3.001-4.042-2.611-5.123s4.058-.566 5.166-.838c1.107-.271 2.531.402 3.616.895 1.571.707 3.148 1.421 4.646 2.264 1.299.759 2.588 1.659 3.249 3.023z" fill="#efbc90"/><path d="m181.133 148.428c-1.695-3.674-5.515-6.634-9.68-6.697-.689.485-1.206 1.177-1.475 1.976-.327 1.101-.472 2.248-.43 3.396 1.961.77 3.391 2.446 4.928 3.895s3.442 2.796 5.538 2.632c.547-.042 1.081-.19 1.571-.436.334-1.598.177-3.26-.452-4.766z" fill="url(#aw)"/><path d="m181.789 146.707c-1.145-.883-2.428-1.569-3.797-2.032l-4.747-1.891c.065 3.024-.936 5.974-2.826 8.333l.712.243c1.498.566 2.91 1.325 4.414 1.874 1.483.622 3.117.789 4.696.481 1.548-.39 2.967-1.619 3.193-3.204.058-.72-.062-1.444-.348-2.107-.287-.664-.732-1.246-1.297-1.697z" fill="#efbc90"/><path d="m171.865 148.864c-.398.799-.873 1.558-1.419 2.264l.712.244c1.498.566 2.911 1.324 4.414 1.873 1.483.622 3.118.789 4.696.482 1.054-.262 1.98-.893 2.611-1.778-3.617.13-7.494-1.172-11.014-3.085z" fill="#f4caab"/><path d="m174.318 142.717-6.606-2.633c-1.572-.73-3.251-1.198-4.973-1.387-1.724-.09-3.578.465-4.623 1.846-1.176 1.545-1.046 3.821-.051 5.491 1.079 1.634 2.651 2.879 4.487 3.555 2.764 1.132 5.787 1.517 8.635 2.439 2.1-2.64 3.208-5.936 3.131-9.311z" fill="url(#ax)"/><path d="m142.287 180.343c.432 1.026 1.096 1.939 1.938 2.666.332.249.697.45 1.085.594h27.454.158c.532-.079 14.886-.164 15.349-.447.243-.135.446-.333.588-.572.142-.24.218-.513.22-.792-.045-.974-14.925-1.438-15.733-1.896-1.859-1.053-3.029-3.074-4.04-5.038-3.772-7.389-6.507-15.263-8.127-23.401-.311-1.534-.639-3.193-1.741-4.235-1.102-1.041-2.797-1.205-4.323-1.194-5.058.034-9.799-.991-14.557.821-1.018 5.264-2.018 12.6-1.843 17.972.176 5.372 1.232 10.761 3.572 15.522z" fill="url(#ay)"/><path d="m172.911 182.081c-3.436 0-4.16-.708-6.301-3.997-2.142-3.289-4.097-7.653-6.064-13.444-.661-1.953-1.289-4.528-1.899-7.053s-1.226-5.095-1.876-6.997-1.464-2.609-3.357-3.396l.164-.391c1.933.816 2.859 1.506 3.594 3.669.661 1.941 1.283 4.528 1.888 7.03.604 2.502 1.232 5.095 1.887 7.019 1.955 5.757 3.956 10.127 6.019 13.348 2.26 3.459 2.757 3.889 6.725 3.798v.425z" fill="url(#az)"/><path d="m145.49 209.11c-.475-.001-.94.139-1.335.403-.396.264-.705.639-.888 1.079-.182.439-.231.923-.139 1.39.093.467.321.896.656 1.233.336.337.764.567 1.23.66.466.094.949.046 1.389-.136.439-.182.814-.49 1.078-.886.265-.395.406-.861.406-1.337 0-.316-.061-.628-.181-.92s-.297-.557-.519-.781c-.223-.223-.487-.4-.778-.521s-.603-.184-.919-.184z" fill="#111520"/><path d="m189.277 209.184c-.474 0-.937.141-1.331.404-.394.264-.701.639-.883 1.077-.181.439-.229.922-.136 1.387.092.466.321.893.656 1.229s.762.564 1.227.657c.464.093.946.045 1.384-.137.438-.181.812-.489 1.075-.884.264-.394.404-.858.404-1.333 0-.637-.252-1.247-.702-1.697-.449-.45-1.059-.703-1.694-.703z" fill="#111520"/><path d="m189.096 207.984c-2.826-.226-11.139-.917-14.338-1.296-3.882-.453-5.481-2.514-5.481-2.514h-.503v-13.274h-.503v-7.636h-1.916v7.636h-.503v13.274h-.503s-1.599 2.061-5.482 2.514c-3.198.379-11.511 1.07-14.337 1.296-.26.023-.503.142-.679.335-.177.193-.275.445-.276.707v.566l19.938-1.614c-.362.308-.739.597-1.131.866-.34.201-.645.455-.904.753-.109.155-.197.325-.26.504h-1.175v4.461h3.956v-4.461h-1.244c0-.113.029-.232.046-.351 1.559-.232 3.018-.908 4.204-1.947l22.046 1.811v-.566c.005-.265-.091-.523-.268-.721-.177-.197-.423-.32-.687-.343z" fill="#111520"/><path d="m151.707 183.264c-.125.194-.192.42-.192.651 0 .156.03.311.09.455s.147.275.257.385c.11.111.241.198.385.258s.299.091.454.091h29.562c.315 0 .617-.126.839-.349.223-.222.348-.525.348-.84 0-.232-.069-.459-.198-.651z" fill="#111520"/><path d="m159.839 128.157c.034-.099.034-.206 0-.305-.04-.283-.079-.566-.124-.849s-.125-.617-.396-.702c-.13-.017-.261.018-.366.096-.106.078-.177.193-.199.323-.028.269.044.539.203.758.057.091.119.21.051.294-.068.085-.152.057-.231.074-.075.02-.143.058-.198.112-.056.053-.096.12-.119.194-.048.148-.07.303-.068.458-.017.278.006.556.068.827.034.135.096.262.18.373.085.11.191.203.312.272 0-.215 0-.475.198-.566.197-.091.429 0 .565-.181.175-.249-.288-.566-.153-.861.045-.141.209-.192.277-.317z" fill="#f4caab"/><path d="m172.729 128.101c.243.094.462.24.643.426.181.187.321.41.409.655.169.492.233 1.015.186 1.534.887-.831 2.016-1.356 3.221-1.5-.002-.342-.048-.683-.135-1.013-.046-.166-.123-.321-.229-.456s-.238-.248-.387-.331c-.322-.159-.718-.13-1.029-.312-.148-.112-.305-.212-.469-.3-.163-.026-.33-.007-.483.056-.152.063-.284.167-.382.301-.41.364-.862.679-1.345.94z" fill="#f4caab"/></g></svg>