<svg fill="none" height="222" viewBox="0 0 238 222" width="238" xmlns="http://www.w3.org/2000/svg" xmlns:xlink="http://www.w3.org/1999/xlink"><linearGradient id="a" gradientUnits="userSpaceOnUse" x1="140.623" x2="140.62" y1="32.0255" y2="51.4191"><stop offset="0" stop-color="#324179"/><stop offset="1" stop-color="#0c124d"/></linearGradient><linearGradient id="b"><stop offset="0" stop-color="#f8db8b"/><stop offset="1" stop-color="#68b790"/></linearGradient><linearGradient id="c" gradientUnits="userSpaceOnUse" x1="43.6674" x2="244.759" xlink:href="#b" y1="174.998" y2="207.669"/><linearGradient id="d" gradientUnits="userSpaceOnUse" x1="159.792" x2="139.401" y1="65.9668" y2="192.347"><stop offset="0" stop-color="#d1e8ff"/><stop offset="1" stop-color="#eaefff"/></linearGradient><linearGradient id="e"><stop offset="0" stop-color="#067431"/><stop offset="1" stop-color="#2e9f5a"/></linearGradient><linearGradient id="f" gradientUnits="userSpaceOnUse" x1="118.457" x2="154.112" xlink:href="#e" y1="10.269" y2="104.664"/><linearGradient id="g" gradientUnits="userSpaceOnUse" x1="85.908" x2="90.8761" xlink:href="#b" y1="9.1207" y2="9.48044"/><linearGradient id="h" gradientUnits="userSpaceOnUse" x1="90.8182" x2="95.7862" xlink:href="#b" y1="11.883" y2="12.2427"/><linearGradient id="i" gradientUnits="userSpaceOnUse" x1="96.1326" x2="101.101" xlink:href="#b" y1="14.9204" y2="15.2801"/><linearGradient id="j" gradientUnits="userSpaceOnUse" x1="174.001" x2="225.914" xlink:href="#b" y1="134.07" y2="137.859"/><linearGradient id="k" gradientUnits="userSpaceOnUse" x1="154.74" x2="243.903" xlink:href="#b" y1="86.1319" y2="94.2053"/><linearGradient id="l" gradientUnits="userSpaceOnUse" x1="59.8407" x2="119.87" xlink:href="#b" y1="119.63" y2="123.855"/><linearGradient id="m" gradientUnits="userSpaceOnUse" x1="40.1968" x2="80.4145" xlink:href="#e" y1="72.4625" y2="143.301"/><linearGradient id="n" gradientUnits="userSpaceOnUse" x1="73.0662" x2="107.013" xlink:href="#b" y1="39.2696" y2="40.8277"/><linearGradient id="o" gradientUnits="userSpaceOnUse" x1="50.0494" x2="105.843" xlink:href="#b" y1="31.9018" y2="35.7551"/><linearGradient id="p" gradientUnits="userSpaceOnUse" x1="188.687" x2="198.151" xlink:href="#e" y1="124.429" y2="145.734"/><linearGradient id="q" gradientUnits="userSpaceOnUse" x1="124.108" x2="153.18" xlink:href="#b" y1="153.955" y2="156.034"/><linearGradient id="r"><stop offset="0" stop-color="#ffc444"/><stop offset="1" stop-color="#f36f56"/></linearGradient><linearGradient id="s" gradientUnits="userSpaceOnUse" x1="146.845" x2="144.193" xlink:href="#r" y1="142.761" y2="148.318"/><linearGradient id="t" gradientUnits="userSpaceOnUse" x1="117.35" x2="165.942" xlink:href="#b" y1="150.778" y2="154.164"/><linearGradient id="u" gradientUnits="userSpaceOnUse" x1="169.086" x2="198.157" xlink:href="#b" y1="179.536" y2="181.615"/><linearGradient id="v" gradientUnits="userSpaceOnUse" x1="191.823" x2="189.171" xlink:href="#r" y1="168.337" y2="173.893"/><linearGradient id="w" gradientUnits="userSpaceOnUse" x1="162.322" x2="210.914" xlink:href="#b" y1="176.358" y2="179.744"/><linearGradient id="x"><stop offset="0" stop-color="#ff8a78"/><stop offset="1" stop-color="#ffa799"/></linearGradient><linearGradient id="y" gradientUnits="userSpaceOnUse" x1="125.277" x2="124.322" xlink:href="#x" y1="39.7541" y2="39.4067"/><linearGradient id="z" gradientUnits="userSpaceOnUse" x1="127.642" x2="112.298" xlink:href="#r" y1="17.5742" y2="28.3228"/><linearGradient id="A" gradientUnits="userSpaceOnUse" x1="121.267" x2="130.49" xlink:href="#b" y1="18.9345" y2="19.3619"/><linearGradient id="B" gradientUnits="userSpaceOnUse" x1="142.475" x2="134.655" xlink:href="#r" y1="15.681" y2="40.0055"/><linearGradient id="C" gradientUnits="userSpaceOnUse" x1="126.652" x2="127.783" xlink:href="#x" y1="11.7688" y2="13.1717"/><linearGradient id="D" gradientUnits="userSpaceOnUse" x1="130.201" x2="139.545" xlink:href="#b" y1="21.1586" y2="21.5126"/><linearGradient id="E" gradientUnits="userSpaceOnUse" x1="94.3501" x2="181.675" xlink:href="#b" y1="83.7945" y2="89.2006"/><linearGradient id="F" gradientUnits="userSpaceOnUse" x1="121.806" x2="141.552" xlink:href="#e" y1="41.6763" y2="83.494"/><linearGradient id="G" gradientUnits="userSpaceOnUse" x1="107.967" x2="127.871" xlink:href="#b" y1="67.3212" y2="68.761"/><linearGradient id="H" gradientUnits="userSpaceOnUse" x1="113.463" x2="119.108" xlink:href="#e" y1="62.714" y2="73.7974"/><linearGradient id="I" gradientUnits="userSpaceOnUse" x1="124.198" x2="163.534" xlink:href="#b" y1="77.8006" y2="82.7295"/><linearGradient id="J" gradientUnits="userSpaceOnUse" x1="124.627" x2="147.851" xlink:href="#b" y1="82.1255" y2="85.0356"/><linearGradient id="K" gradientUnits="userSpaceOnUse" x1="102.73" x2="165.684" xlink:href="#b" y1="92.495" y2="101.578"/><linearGradient id="L" gradientUnits="userSpaceOnUse" x1="101.732" x2="164.686" xlink:href="#b" y1="100.358" y2="109.44"/><linearGradient id="M" gradientUnits="userSpaceOnUse" x1="100.687" x2="163.642" xlink:href="#b" y1="107.852" y2="116.934"/><linearGradient id="N" gradientUnits="userSpaceOnUse" x1="153.366" x2="238.98" xlink:href="#b" y1="73.6592" y2="79.9445"/><linearGradient id="O" gradientUnits="userSpaceOnUse" x1="167.963" x2="174.004" xlink:href="#e" y1="80.9464" y2="96.1836"/><linearGradient id="P"><stop offset="0" stop-color="#31a25d"/><stop offset="1" stop-color="#006d2c"/></linearGradient><linearGradient id="Q" gradientUnits="userSpaceOnUse" x1="182.708" x2="203.07" xlink:href="#P" y1="73.7314" y2="73.7314"/><linearGradient id="R" gradientUnits="userSpaceOnUse" x1="190.223" x2="197.958" xlink:href="#e" y1="68.1412" y2="77.3178"/><linearGradient id="S" gradientUnits="userSpaceOnUse" x1="128.878" x2="128.082" xlink:href="#x" y1="42.6502" y2="42.2726"/><linearGradient id="T" gradientUnits="userSpaceOnUse" x1="135.651" x2="119.462" xlink:href="#r" y1="20.5593" y2="35.4406"/><linearGradient id="U" gradientUnits="userSpaceOnUse" x1="83.2643" x2="146.228" xlink:href="#b" y1="185.815" y2="196.174"/><linearGradient id="V"><stop offset="0" stop-color="#3773b9"/><stop offset="1" stop-color="#003c76"/></linearGradient><linearGradient id="W" gradientUnits="userSpaceOnUse" x1="114.137" x2="111.969" xlink:href="#V" y1="178.299" y2="181.475"/><linearGradient id="X" gradientUnits="userSpaceOnUse" x1="102.717" x2="99.3558" xlink:href="#V" y1="184.687" y2="185.565"/><linearGradient id="Y" gradientUnits="userSpaceOnUse" x1="123.813" x2="127.956" xlink:href="#x" y1="80.5741" y2="74.5264"/><linearGradient id="Z" gradientUnits="userSpaceOnUse" x1="108.621" x2="128.264" xlink:href="#e" y1="81.6352" y2="103.786"/><linearGradient id="aa" gradientUnits="userSpaceOnUse" x1="108.016" x2="128.165" xlink:href="#e" y1="106.912" y2="126.643"/><linearGradient id="ab" gradientUnits="userSpaceOnUse" x1="108.999" x2="119.157" xlink:href="#P" y1="106.88" y2="106.88"/><linearGradient id="ac" gradientUnits="userSpaceOnUse" x1="144.437" x2="148.309" xlink:href="#x" y1="105.425" y2="100.204"/><linearGradient id="ad" gradientUnits="userSpaceOnUse" x1="124.536" x2="130.885" xlink:href="#e" y1="106.386" y2="123.813"/><linearGradient id="ae" gradientUnits="userSpaceOnUse" x1="194.586" x2="216.562" xlink:href="#b" y1="21.7472" y2="23.3025"/><linearGradient id="af" gradientUnits="userSpaceOnUse" x1=".421938" x2="12.6302" xlink:href="#e" y1="7.658" y2="33.6571"/><linearGradient id="ag" gradientUnits="userSpaceOnUse" x1="4.37779" x2="38.8579" xlink:href="#b" y1="164.71" y2="167.341"/><linearGradient id="ah" gradientUnits="userSpaceOnUse" x1="23.0732" x2="29.5628" xlink:href="#b" y1="153.726" y2="154.214"/><clipPath id="ai"><path d="m0 0h238v222h-238z"/></clipPath><g clip-path="url(#ai)" clip-rule="evenodd" fill-rule="evenodd"><path d="m154.931 50.0276c.125.0705.295.1216.493.2236.648 1.5269.893 1.9757.766 2.1274-.104.1246-.092.0585-.153.3648-.077.4188 1.423 2.2294 1.654 2.8044.212.4841.231 1.0284.052 1.5253-.35.9766-.892 1.8764-1.596 2.6483-.595.6545-1.251 1.0704-1.82.9458-.702-.1502-.582-.7717-.476-1.3812.036-.2192.46-.7011.427-.9158-.188-1.222-1.1-2.288-1.772-3.3464-.575-.5254-1.544-1.0764-2.08-1.6829-.775-.8753-.92-1.8016.041-2.333.307-.1712 1.073-1.0224 1.475-.9909.762.0556 2.033-.5449 2.989.0106z" fill="#202249"/><path d="m129.011 46.5234c-.521 1.3902-.115 2.6228 1.026 3.1527l.021.0211.14.0465c.122.0472.247.0859.374.1156 1.365.3963 3.405.7506 4.653.9908 4.977.9293 12.392 1.5103 15.876 2.812 1.366-.9819 1.772-2.806.877-3.9034-3.799-1.773-8.931-4.076-11.083-4.8567-.581-.1871-1.186-.2883-1.797-.3002 3.207-2.8314 6.603-5.8971 7.921-8.5108.934-1.8496 1.084-4.4183 1.734-6.0262-5.232 1.5013-6.235-1.5929-7.196-2.6798-.825 1.183-.805.9638-1.639 2.2294-2.822 4.2802-6.983 10.3469-9.812 14.8523-.468.6515-.911 1.4022-1.095 2.0567z" fill="url(#a)"/><path d="m146.09 47.0819c-2.135-.9458-4.072-1.7685-5.195-2.1753-.581-.1872-1.186-.2884-1.797-.3003 3.207-2.8314 6.603-5.897 7.921-8.5108.934-1.8496 1.084-4.4183 1.734-6.0262-1.473.4234-2.606.4805-3.509.3213l.141 1.0014c-4.038 3.9379-11.382 13.0882-12.066 19.0663 2.47.563 9.213 1.4097 10.294 1.5298.282-1.773 1.464-3.1857 2.477-4.9077zm-3.679-18.5214c-.339-.4503-.598-.8782-.853-1.1665-.524.7507-.708.9383-.985 1.3002z" fill="#1e2353" opacity=".3"/><path d="m145.437 69.8687c.736.9983-1.247 6.0051-1.73 7.056-.426.9308-.291 1.5013.716 1.5163.795.012 2.055-1.0899 2.823-1.8015 1.441-1.3512 1.522-2.7294 1.941-3.3149l.49-.1501c.359-.1982 1.422-1.5553 1.478-2.0688-.15-.4762-.333-.9421-.547-1.3947-.783-1.4172-.955-.7971-1.993-1.6634-1.173.8317-.337 1.165-3.178 1.8211z" fill="#202249"/><path d="m136.038 52.6969c2.146 4.076 7.497 13.2684 9.385 17.3534 1.665.3438 3.355-.608 3.5-1.8901-1.215-3.9184-3.188-10.3679-4.163-12.4247-.644-1.3586-1.848-3.1707-2.933-4.5534 3.176-4.3537 8.21-11.2056 9.658-15.2215 1.978-5.4647-.291-8.5829-3.339-10.3004-1.082-.6095-2.249.3679-2.799-.2852-1.3 2.4846-2.475 5.864-3.237 8.9041-1.061 4.2412-6.12 13.2384-6.503 16.2635-.057.5871.049 1.1783.306 1.7115.033.1497.075.2976.125.4428z" fill="#364154"/><path d="m221.279 214.815-146.3556-80.609c-1.8474-.824-4.5626-1.6-6.3748-.516l-4.6346 2.771c-.9337.557-4 2.402-1.9486 3.498 6.0344 3.206 141.1716 78.051 147.2996 81.307 1.159.616 2.857.838 4.635.691 1.779-.147 3.612-.619 5.02-1.472l1.852-1.12c1.309-.792 2.034-1.651 2.103-2.486.069-.834-.458-1.558-1.596-2.064z" fill="url(#c)" opacity=".3"/><path d="m91.7175 2.86167c-1.0088-.55998-2.1924-.76866-3.2993-.36031l-2.476.94731c-.8999 4.55791 127.5318 213.64533 128.6818 214.80233l2.209-.816c1.452-.559 2.214-2.039 2.427-3.477l18.663-124.7483c.001-.0044.001-.009 0-.0135.306-2.1018-.341-4.2831-1.518-6.0351-.635-.9443-1.469-1.8106-2.493-2.3541z" fill="url(#d)"/><path d="m231.47 81.7303-142.193-77.9454c-2.6891-1.45925-5.2494-.05855-5.7247 3.11818l-18.6643 124.75692c-.4753 3.177 1.3139 6.939 4.003 8.398l142.196 77.946c2.689 1.459 5.256.061 5.731-3.115l18.663-124.75c.475-3.1842-1.323-6.9495-4.011-8.4087z" fill="#ccd5e2"/><path d="m231.47 81.7303-142.1933-77.9454c-2.6891-1.45925-5.2494-.05855-5.7247 3.11818l-.6301 4.20362 151.9221 83.2779.637-4.2561c.475-3.1737-1.323-6.939-4.011-8.3982z" fill="url(#f)"/><path d="m88.3927 6.88953c1.0732.2417 1.9057 1.50129 1.8489 2.80891-.0567 1.30766-.9766 2.17536-2.0544 1.93366s-1.9072-1.5013-1.8505-2.80891c.0568-1.30763.9766-2.17537 2.056-1.93366z" fill="url(#g)"/><path d="m93.3028 9.65198c1.0732.24171 1.9057 1.50132 1.8489 2.80892-.0567 1.3076-.9765 2.1739-2.0543 1.9336-1.0778-.2402-1.9072-1.5012-1.8505-2.8089.0567-1.3076.9766-2.17533 2.0559-1.93362z" fill="url(#h)"/><path d="m98.6173 12.6906c1.0732.2402 1.9057 1.5013 1.8487 2.8074-.056 1.3061-.9764 2.1754-2.0542 1.9337s-1.9072-1.5013-1.8505-2.809c.0568-1.3076.9767-2.1783 2.056-1.9321z" fill="url(#i)"/><path d="m214.178 124.976-25.543-13.73c-1.481-.805-2.933-.918-4.14-.451-1.554.592-2.716 2.132-3.052 4.373l-2.895 20.343c-.597 3.992 1.65 8.721 5.029 10.555l25.545 13.731c3.373 1.835 6.606.078 7.206-3.914l2.894-20.342c.592-3.996-1.665-8.73-5.044-10.565z" fill="url(#j)" opacity=".5"/><path d="m176.786 53.4341 56.007 26.7484-1.484 1.4833-5.375 36.7922c-.549 3.774-3.482 5.447-6.543 3.732l-52.424-29.3516-4.56-9.9461z" fill="url(#k)" opacity=".5"/><path d="m106.456 110.198-34.6273-18.7949-1.1575 1.731-5.6849 37.9229 35.8627 19.467c3.798 2.058 7.419.085 8.091-4.396l3.173-24.073c.672-4.481-1.863-9.798-5.657-11.857z" fill="url(#l)" opacity=".5"/><path d="m104.922 118.513-4.139 26.614.656.078 1.791-.682c1.964-.751 2.994-2.759 3.282-4.705l3.043-23.076s0-.014 0-.02c.413-2.839-.46-5.793-2.053-8.165-.858-1.278-1.993-2.449-3.372-3.185l-71.7678-38.9565c-1.3645-.7596-2.9651-1.0419-4.4629-.4879l-1.5792.6005c-.7941.3003-1.041.527-1.0348.575.7451 6.8039 80.6827 44.4349 79.6367 51.4099z" fill="#d0e7ff"/><path d="m102.327 106.071-71.7685-38.9602c-1.5944-.8647-3.1567-.9863-4.4614-.4894-1.6726.638-2.9237 2.2955-3.2855 4.7095l-3.0432 23.0778c-.6424 4.2982 1.7768 9.3893 5.415 11.3633l71.7704 38.957c3.6392 1.974 7.1122.084 7.7562-4.214l3.042-23.08c.644-4.296-1.785-9.392-5.425-11.364z" fill="url(#m)"/><path d="m101.476 113.25-49.531-26.6781c-.1584-.0972-.3372-.1581-.523-.1784s-.3738.0007-.5502.0613c-.4002.1501-.6991.5495-.785 1.126l-.2729 1.6199c-.1533 1.0268.4247 2.2519 1.294 2.7158l49.5311 26.6775c.871.472 1.7.02 1.853-1.007l.275-1.62c.153-1.027-.428-2.252-1.297-2.717zm-27.5827 6.275c.8693.472 1.4503 1.689 1.297 2.717l-.2744 1.62c-.1533 1.027-.9828 1.479-1.8536 1.008l-24.9103-13.131c-.8693-.471-1.4488-1.688-1.294-2.715l.2729-1.62c.0859-.578.3849-.975.785-1.126.1763-.061.3645-.082.5503-.062.1859.02.3646.081.5229.179l24.9103 13.13zm26.1015 3.636c.8692.472 1.4502 1.691 1.2972 2.718l-.275 1.62c-.153 1.026-.982 1.478-1.8531 1.007l-49.5309-26.678c-.8693-.471-1.4488-1.689-1.2955-2.7158l.2745-1.6199c.0858-.578.3863-.9744.7849-1.126.1763-.061.3645-.0821.5503-.0618.1859.0203.3646.0814.5229.1789z" fill="#fffcf1" opacity=".5"/><path d="m36.1598 86.1034c-2.3426-1.2716-4.8263.4429-4.8018 3.7622.0108 1.7175.7559 3.486 1.9302 4.594.2842.2715.6032.5056.949.6966 2.3381 1.2685 4.8095-.4504 4.7926-3.7533 0-1.7204-.7451-3.4965-1.9133-4.6014-.2865-.2738-.6081-.5099-.9567-.7026zm-2.2568 10.6111c-.4642-.2559-.8925-.5698-1.274-.9338-1.5822-1.4863-2.5726-3.8688-2.5956-6.1793-.0291-4.4513 3.3054-6.7648 6.453-5.0563.4717.2595.9063.5791 1.2924.9503 1.576 1.4832 2.5664 3.8658 2.5772 6.1778.0199 4.4393-3.3101 6.7468-6.453 5.0413zm10.7227-3.7818c.5474.3003.8754 1.078.7267 1.7506l-.5718 2.6077c-.1533.6651-.7099.9623-1.2587.6651l-.2806-.1502c-.0919-.0552-.1945-.0913-.3013-.106-.1068-.0148-.2156-.0079-.3195.0203-.104.0281-.2009.0769-.2848.1433-.0839.0665-.1529.149-.2028.2427-.156.2555-.3259.5026-.509.7401-.2867.3663-.3327.9533-.115 1.4757l.1533.354c.2821.674.1134 1.442-.3726 1.7l-1.9286 1.019c-.1214.062-.2571.092-.3939.087-.1367-.004-.2699-.044-.3865-.114-.2876-.169-.5081-.429-.6255-.737l-.1533-.345c-.1152-.303-.3312-.559-.6133-.727-.1399-.078-.2987-.119-.4599-.117-.2729 0-.5489-.009-.8233-.033-.4416-.042-.8095.264-.9199.773l-.0736.341c-.1533.664-.7083.962-1.2572.665l-2.1463-1.166c-.5489-.301-.8755-1.08-.7298-1.745l.0751-.3392c.0509-.2651.0395-.538-.0333-.7981-.0727-.2601-.205-.5006-.3868-.7032-.2315-.2492-.4476-.5075-.6623-.7717-.1092-.1464-.2487-.2686-.4093-.3588-.1147-.0684-.2453-.107-.3795-.112s-.2675.0238-.3871.0835l-.2514.1276c-.1217.0618-.2576.0918-.3946.0871-.137-.0048-.2704-.0441-.3873-.1141-.2873-.1698-.5077-.4295-.6255-.7372l-1.1177-2.6738c-.2805-.6725-.1119-1.4412.3741-1.6979l.2545-.1351c.3787-.1997.5719-.7071.4906-1.2716-.0521-.3588-.0874-.7176-.1104-1.0779-.0352-.5555-.3357-1.0825-.7558-1.3107l-.2806-.1501c-.5473-.3003-.8739-1.0779-.7282-1.7445l.5734-2.6062c.1533-.6741.7114-.9714 1.2587-.6741l.2805.1501c.0919.0557.1945.0922.3014.1071.1069.015.2158.0082.3199-.02s.2011-.0771.2849-.1438c.0839-.0667.1527-.1496.2023-.2435.1556-.2556.326-.5023.5105-.7387.2837-.3603.3312-.9458.1104-1.4712l-.1533-.3528c-.279-.6801-.1119-1.4413.3756-1.7055l1.9287-1.0209c.1214-.0618.2571-.0918.3938-.0871.1368.0047.2699.0441.3866.1141.2877.1697.5086.4294.627.7372l.1533.3528c.1158.3025.3317.5583.6133.7266.1396.0792.2986.1197.4599.1171.2753-.0068.5507.0023.8248.027.4401.0481.8065-.2567.9199-.7671l.0736-.3393c.1533-.6726.7114-.9714 1.2587-.6726l2.1464 1.1665c.5473.3003.8739 1.0794.7267 1.7505l-.0751.3408c-.0516.2629-.0408.5339.0315.7921s.2042.4967.3855.6972c.2299.2502.4518.5114.6654.7836.1097.1456.2491.2673.4093.3574.1146.0687.2452.1074.3795.1124.1342.005.2675-.0239.3871-.0839l.256-.1351c.1215-.0617.2573-.0914.394-.0864.1368.005.2699.0446.3864.1149.2873.1694.5081.4285.627.7356l1.1161 2.6738c.2806.6816.112 1.4427-.374 1.707l-.2545.1336c-.3787.2012-.5719.7071-.4891 1.2656.049.3573.0874.7176.1104 1.0764.0337.557.3342 1.0824.7543 1.3121z" fill="#fffcf1" opacity=".5"/><path d="m98.3591 22.1937-15.4846-7.3338-6.1187 37.4646-.788 5.2545 16.0978 8.5093c2.7995 1.5193 5.4687.0646 5.9639-3.2398l4.4925-31.9204c.502-3.2983-1.366-7.2166-4.1629-8.7344z" fill="url(#n)" opacity=".5"/><path d="m96.4707 31.1022-4.8279 30.5302.506.0601 1.3798-.524c1.5101-.581 2.2997-2.1213 2.5235-3.6166l3.9859-27.8173s0-.0106 0-.0151c.316-2.1828-.3539-4.4543-1.5789-6.2783-.6607-.9834-1.5331-1.8827-2.594-2.4486l-29.6216-15.76357c-1.0502-.584-2.2813-.80018-3.4327-.37532l-1.2143.4654c-.6132.22369-.8002.40385-.7956.44138.5734 5.23351 36.4731 19.97611 35.6698 25.34171z" fill="#d0e7ff"/><path d="m94.4744 21.5316-29.6201-15.76349c-1.2265-.66507-2.4285-.75815-3.4311-.37532-1.2863.48942-2.2491 1.76401-2.5266 3.62111l-3.9862 27.8174c-.4936 3.3028 1.3661 7.2197 4.164 8.7375l29.6216 15.7635c2.798 1.5178 5.4687.0646 5.9639-3.2413l3.9861-27.8174c.4937-3.3058-1.3736-7.2242-4.1716-8.742z" fill="url(#o)"/><path d="m88.9875 53.8873-29.7596-15.6404c-.6868-.3619-1.3414.0105-1.4748.8437-.1303.8077.3158 1.7565 1.0026 2.1183l29.755 15.6419c.6868.3618 1.3553 0 1.4887-.8407.1272-.8047-.3297-1.761-1.015-2.1228zm1.3292-8.4673c.6853.3603 1.1437 1.3182 1.015 2.1228-.1319.8348-.8019 1.2011-1.4872.8393l-29.758-15.6405c-.6869-.3618-1.133-1.3121-1.0027-2.1183.1319-.8347.7881-1.201 1.4749-.8452l29.758 15.6404zm3.0663-19.2015-29.758-15.6419c-.6853-.3618-1.3431.0105-1.4703.8167l-.3312 2.0703c-.1287.8062.3174 1.7565 1.0027 2.1183l29.7596 15.6419c.6853.3588 1.3537 0 1.4825-.8122l.3296-2.0718c.1303-.8031-.3296-1.761-1.0149-2.1213zm-1.7217 10.8003c.6853.3618 1.1452 1.3046 1.0165 2.1108-.1365.8482-.8019 1.201-1.4872.8377l-29.758-15.6404c-.6869-.3603-1.1345-1.2971-1.0073-2.1018.1365-.8497.7911-1.201 1.4764-.8467z" fill="#fffcf1"/><path d="m212.828 134.453-3.526 21.267.549.064 1.496-.569c1.642-.633 2.504-2.307 2.745-3.934l2.606-18.316c.001-.006.001-.011 0-.017.344-2.373-.385-4.843-1.719-6.826-.716-1.069-1.66-2.049-2.819-2.663l-22.997-12.362c-1.142-.635-2.479-.871-3.732-.408l-1.32.506c-.665.243-.87.439-.866.48.633 5.693 30.457 16.945 29.583 22.778z" fill="#d0e7ff"/><path d="m210.66 124.046-22.997-12.36c-1.334-.726-2.64-.828-3.73-.41-1.4.533-2.453 1.918-2.748 3.938l-2.606 18.315c-.538 3.594 1.484 7.851 4.527 9.502l22.997 12.36c3.043 1.651 5.947.071 6.485-3.523l2.607-18.316c.538-3.594-1.494-7.855-4.535-9.506z" fill="#fff"/><path d="m200.642 125.316c.171.323.237.69.19 1.051-.092.459-.233.908-.418 1.34l-4.906 13.326c-.154.45-.307.783-.41 1.027-.037.102-.096.197-.172.277s-.168.144-.271.188c-.168.074-.403.024-.706-.161-.735-.45-1.06-1.073-.968-1.837.099-.472.234-.937.405-1.389l4.888-13.333c.249-.707.47-1.165.657-1.377.187-.211.485-.189.899.061.344.194.624.483.805.83zm1.308 3.462-.449 3.705 7.239 8.222-8.113-1.007-.451 3.723 11.676.901.382-3.153-10.284-12.382zm-20.409-2.827 10.287 12.394.451-3.721-7.206-8.274 8.077 1.075.46-3.753-11.68-.913z" fill="url(#p)"/><path d="m122.546 126.152c.413-2.767 2.567-3.991 4.808-2.725l33.327 18.401c2.24 1.264 3.724 4.539 3.31 7.307l-4.432 29.542c-.414 2.767-2.57 3.989-4.809 2.727l-33.328-18.403c-2.243-1.266-3.724-4.539-3.31-7.307z" fill="#fff"/><path d="m126.601 156.266 11.625-15.768 2.254 16.721 5.665-6.029 3.334 17.882z" fill="url(#q)"/><path d="m145.752 141.201c1.244.247 2.179 1.674 2.09 3.182-.089 1.509-1.168 2.535-2.412 2.285-1.243-.249-2.178-1.672-2.089-3.182.089-1.511 1.168-2.538 2.411-2.285z" fill="url(#s)"/><path d="m125.253 130.381c.344-2.3 2.133-3.316 3.995-2.266l27.692 15.291c1.86 1.051 3.092 3.77 2.749 6.07l-3.68 24.546c-.343 2.3-2.134 3.315-3.995 2.265l-27.691-15.29c-1.863-1.051-3.094-3.77-2.751-6.07z" fill="url(#t)" opacity=".2"/><path d="m167.523 151.732c.414-2.767 2.566-3.99 4.808-2.725l33.327 18.402c2.24 1.264 3.724 4.538 3.31 7.306l-4.432 29.54c-.414 2.767-2.57 3.989-4.81 2.726l-33.333-18.4c-2.243-1.265-3.724-4.538-3.31-7.306z" fill="#fff"/><path d="m171.578 181.847 11.626-15.768 2.255 16.721 5.664-6.029 3.334 17.882z" fill="url(#u)"/><path d="m190.73 166.777c1.243.247 2.178 1.672 2.09 3.182-.089 1.511-1.169 2.533-2.412 2.285-1.243-.247-2.179-1.672-2.09-3.182.089-1.511 1.169-2.533 2.412-2.285z" fill="url(#v)"/><path d="m170.226 155.962c.343-2.3 2.132-3.317 3.995-2.266l27.691 15.291c1.86 1.051 3.093 3.769 2.749 6.069l-3.679 24.546c-.344 2.3-2.134 3.315-3.995 2.266l-27.692-15.291c-1.863-1.051-3.094-3.771-2.75-6.069z" fill="url(#w)" opacity=".2"/><path d="m117.132 3.2534c-2.967 1.70396-1.545 5.64334 1.15 9.8079 3.833 5.9076-5.43 12.5583 7.149 15.9227-1.311-3.6031 4.139-4.9258 6.821-9.8485 3.091-5.6809 1.38-11.37974-2.594-16.23341-3.234-3.95139-9.148-3.900339-12.526.35131z" fill="#364154"/><path d="m123.006 40.5858.725 2.6783c.229.5735.365.7282 1.207.3558.46-.2176.314-1.1559.187-1.839-.112-.5599-.101-1.1366.032-1.692.094-.284.279-.5308.528-.7041.502-.3948 1.091-.6591.729-1.9156-.188-.6561-.144-1.144-.153-1.8256l-1.752-.1126c.04 1.5313-.655 2.5642-1.38 3.8523-.354.6305-.276.5059-.123 1.2025z" fill="url(#y)"/><path d="m129.247 23.5885-.013-.0871c-.002-.1244-.021-.248-.055-.3678-.446-2.9125-1.35-7.8202-2.056-10.3799-1.226-4.47086-5.137-2.92603-5.097-.2582.038 2.5236 2.436 7.9898 2.988 10.3588-.196 1.725-.932 10.3409-.678 11.8452.049.2867.178.4729.163.7882-.011.2402-.077.3348-.154.623.692.0803 1.379.1946 2.059.3423.016-.226.05-.4504.103-.6711.118-.3243.422-.4894.558-.7641.675-1.3512 1.788-8.4328 2.093-10.7372.059-.2262.089-.4587.089-.6921z" fill="url(#z)"/><path d="m128.739 26.3132c.26-.6186.556-2.5522.553-3.4019 0-1.7746-.691-3.2443-.903-4.3718l-6.333-6.1733c.04 1.156 1.418 4.2366 1.982 6.5111.882 3.5475 2.801 6.6012 4.701 7.4359z" fill="url(#A)" opacity=".35"/><path d="m148.331 26.7336c-.893 2.8914-5.086 5.1689-9.287 4.2636-1.003-1.0914-1.3-.7506-2.219-1.6334-.835-.8017-1.866-1.8976-3.307-3.3298-.801-1.2311-3.963-1.7355-5.366-2.2715-1.576-.6005-2.975-1.8676-3.627-4.3192-.316-1.189-1.686-4.8266-2.186-6.0397-1.431-3.50549 1.672-4.81612 3.771-3.5175 1.345.548 4.307 1.2371 5.773 1.5013.846.1683 1.7.2926 2.56.3723 1.743.1651 3.636 1.4112 4.989 2.4666 3.645 2.8405 8.581 8.5424 8.899 12.5073z" fill="url(#B)"/><path d="m127.271 8.47192c.423 1.57668 1.288 3.00588 2.498 4.12558-.444 1.5553-3.478 2.6783-4.446 1.6259-.076-.2072-.177-.6741-.281-.8243-.153-.4503-.317-.8572-.46-1.177z" fill="url(#C)"/><path d="m118.462 6.38501c.153 1.18302.533 2.18137 1.574 3.19924.214.19223.366.44015.44.71465.394 1.4127.706 1.7009 1.63 2.348.9.6275 1.237 1.0629 1.751 1.1154.514.0526 1.013-.2252 1.4-.4954.791-.554 1.677-2.0718 2.092-3.0716.307-.75066.119-.92932-.078-1.63342.229-1.29561-.687-1.37818-.992-1.21754-.874.45939-.286 1.4082-.576 1.95167-3.073.66957-6.251-2.02674-7.241-2.911z" fill="#ffa698"/><path d="m118.462 6.38501c1.706 2.78339 5.464 3.48599 7.241 2.9125-3.073.66807-6.251-2.02824-7.241-2.9125z" fill="#ff9080"/><path d="m138.326 30.2826c-.026.0072-.052.0122-.078.015-.46-.3002-.802-.3378-1.423-.9338-.836-.8017-1.866-1.8976-3.307-3.3298-.409-.6276-1.43-1.066-2.519-1.4158.172-2.8794.097-9.4581 1.061-10.3123 1.329-1.1815 3.16-1.9667 4.687-.4294 2.884 2.902.014 13.6392 1.579 16.4061z" fill="url(#D)" opacity=".35"/><path d="m132.438 27.4393-.84-2.6273 14.387 7.8187-1.854 1.2145z" fill="#d0e7ff"/><path d="m108.88 43.3633c.746-5.3926 4.924-7.7151 9.33-5.1749l45.514 26.0218c4.402 2.5372 7.372 8.9762 6.625 14.3689l-6.936 51.4009c-.747 5.393-4.929 7.712-9.332 5.175l-45.513-26.022c-4.407-2.54-7.372-8.976-6.626-14.3671z" fill="url(#E)" opacity=".5"/><path d="m110.493 43.0675c.081-.584.199-3.1873.912-3.7172.964-.7146 2.721-1.7535 3.241-1.8902 1.357-.3558 2.913-.1216 4.518.7987l42.529 24.1332c4.087 2.3571 6.847 8.3412 6.157 13.3525l-6.439 47.7635c-.242 1.751-.876 3.153-1.769 4.135-.604.665-2.018 1.594-3.197 2.191-1.226.617-2.933-1.071-3.705-1.517l-42.53-24.134c-4.096-2.36-6.851-8.3407-6.157-13.3505z" fill="#d0e7ff"/><path d="m108.996 44.0915c.693-5.0113 4.575-7.1686 8.67-4.8041l42.288 24.1753c4.09 2.357 6.85 8.3411 6.157 13.3509l-6.439 47.7634c-.693 5.01-4.581 7.166-8.672 4.804l-42.289-24.18c-4.097-2.36-6.852-8.3407-6.159-13.3505z" fill="#fff"/><path d="m108.997 44.0915c.693-5.0113 4.574-7.1686 8.669-4.8041l42.289 24.1752c4.09 2.3571 6.85 8.3412 6.157 13.351l-.659 4.7456-57.125-32.662z" fill="url(#F)"/><g fill="#fff"><path d="m115.801 44.2776c.93.2162 1.643 1.3091 1.588 2.4411s-.853 1.8751-1.785 1.6514c-.932-.2236-1.643-1.3001-1.593-2.435.051-1.135.853-1.8677 1.79-1.6575z"/><path d="m120.768 47.3133c.93.2162 1.642 1.3091 1.588 2.4411-.053 1.132-.852 1.8736-1.784 1.6514-.933-.2222-1.642-1.3091-1.589-2.4411.054-1.1319.853-1.8676 1.785-1.6514z"/><path d="m125.74 50.3487c.93.2162 1.642 1.3091 1.588 2.4411s-.852 1.8736-1.784 1.6514c-.933-.2222-1.644-1.3091-1.589-2.4411.055-1.1319.853-1.8676 1.785-1.6514z"/></g><path d="m117.967 58.3852c4.319 1.0028 7.616 6.0682 7.359 11.3137-.258 5.2455-3.954 8.685-8.279 7.6821-4.325-1.0028-7.615-6.0667-7.359-11.3122s3.966-8.6865 8.279-7.6836z" fill="url(#G)" opacity=".2"/><path d="m117.758 62.7631c2.328.5404 4.105 3.2713 3.972 6.0997s-2.131 4.6825-4.46 4.142c-2.329-.5404-4.106-3.2713-3.971-6.0997s2.131-4.6825 4.459-4.142z" fill="url(#H)"/><path d="m127.928 68.564c.154-1.114 1.017-1.5809 1.924-1.0404l27.649 15.6028c.906.5405 1.519 1.8842 1.364 3.0026l-.299 2.2039c-.153 1.114-1.016 1.5809-1.924 1.0404l-27.648-15.6059c-.908-.5419-1.519-1.8856-1.365-3.0025z" fill="url(#I)" opacity=".2"/><path d="m126.829 76.6725c.091-.6591.6-.9338 1.136-.614l16.324 9.2134c.536.3182.896 1.1124.806 1.77l-.176 1.3016c-.092.659-.601.9338-1.136.614l-16.324-9.2134c-.536-.3198-.898-1.1124-.806-1.77z" fill="url(#J)" opacity=".2"/><path d="m108.378 78.7471c.112-.8121.74-1.1514 1.401-.7581l47.74 26.82c.661.394 1.106 1.373.994 2.183l-.154 1.063c-.111.812-.74 1.152-1.401.751l-47.734-26.8206c-.662-.3933-1.107-1.3721-.995-2.1828z" fill="url(#K)" opacity=".2"/><path d="m107.38 86.605c.112-.8107.74-1.1515 1.401-.7507l47.74 26.8187c.661.395 1.106 1.373.994 2.185l-.154 1.063c-.111.812-.74 1.151-1.401.75l-47.734-26.8142c-.662-.3934-1.107-1.3722-.995-2.1829z" fill="url(#L)" opacity=".2"/><path d="m106.335 94.0994c.112-.8122.74-1.1515 1.401-.7507l47.74 26.8203c.661.394 1.106 1.372.994 2.185l-.154 1.063c-.111.81-.74 1.15-1.401.75l-47.734-26.8203c-.662-.3949-1.107-1.3737-.995-2.1844z" fill="url(#M)" opacity=".2"/><path d="m168.017 38.7184c.153-1.0404-.555-1.8421-.095-2.5297.498-.7506 2.192-1.2776 2.924-1.5358 1.039-.3663 2.261-.2477 3.507.4504l50.778 28.4284c2.963 1.6619 4.939 5.9781 4.409 9.6338l-5.7 39.0105c-.261 1.791-1.074 3.095-2.188 3.754-.679.408-2.54 1.187-3.384 1.087-.591-.071-.141-.883-.766-1.233l-50.778-28.4284c-2.968-1.6634-4.941-5.9796-4.409-9.6337z" fill="#d0e7ff"/><path d="m166.494 39.3112c.532-3.6541 3.373-5.277 6.337-3.6136l50.777 28.4284c2.965 1.6605 4.941 5.9782 4.409 9.6338l-5.698 39.0112c-.532 3.655-3.373 5.275-6.338 3.615l-50.776-28.43c-2.968-1.662-4.941-5.9782-4.411-9.6338z" fill="url(#N)"/><path d="m162.56 80.1104c.046-.3168.291-.4504.547-.3003l56.317 31.6199c.135.095.242.224.309.373s.092.314.073.475l-.154.964c-.046.317-.291.451-.548.301l-56.32-31.6206c-.136-.0948-.243-.2236-.31-.3728-.067-.1493-.092-.3135-.072-.4754z" fill="#364154"/><path d="m162.579 80.1418c.045-.3002.282-.4369.529-.2912l22.717 12.7504c.13.0916.233.2159.298.3598.065.144.089.3023.07.4584l-.145.9293c-.044.3003-.282.4354-.528.2898l-22.717-12.7505c-.13-.0916-.234-.2159-.298-.3598-.065-.1439-.089-.3022-.07-.4584z" fill="url(#O)"/><path d="m184.842 61.3713c.127-.8707.802-1.2566 1.508-.8602l15.638 8.7555c.706.3948 1.176 1.4217 1.049 2.2924l-2.11 14.5625c-.125.8708-.801 1.2566-1.507.8603l-15.638-8.7555c-.706-.3949-1.175-1.4218-1.05-2.2925z" fill="url(#Q)"/><path d="m193.76 67.7098c-2.706-1.5163-5.289-.0406-5.775 3.2938-.486 3.3343 1.312 7.2662 4.019 8.7825 2.708 1.5163 5.29.039 5.776-3.3028.486-3.3419-1.316-7.2603-4.02-8.7735z" fill="url(#R)"/><path d="m191.256 69.3281-.854 6.0337 5.221.1381z" fill="#fff"/><path d="m130.452 38.4751c-.443.7266-.21 2.297-.354 3.0446-.156.7475-.383 1.4788-.679 2.1844-.094.1922-3.037 2.7534-3.208 2.6243-.389-.2928-.64-2.315-.131-2.9035s.939-1.162 1.027-1.6424c.087-.4804.058-2.0808.271-2.327.483-.56.987-.7372 1.204-1.4338z" fill="url(#S)"/><path d="m136.181 28.6928c.047-.1669.084-.3364.111-.5075.766-3.1046 1.545-8.4177 1.445-11.4953-.076-2.351-1.244-4.3402-4.061-3.5746-.866.2357-1.867.8798-1.993 1.9952-.153 1.3362.049 3.5551.178 5.822.104 1.8121.095 5.0789.166 6.403-.013.0405-.025.0811-.036.1231-.901 1.758-3 7.4974-3.44 9.3605-.074.3108 0 .6456-.008.8603-.02.2447-.098.4815-.227.6921.548.4814 1.213.8169 1.931.9743.113-.2368.244-.4647.394-.6816.121-.1831.686-.3558.906-.6125 1.166-1.3692 4.245-7.628 4.622-9.293z" fill="url(#T)"/><path d="m91.1937 188.642 25.5653-14.263c2.787-1.247 6.776-2.24 9.615-.792 2.588 1.318 6.85 4.017 8.739 5.069 1.431.799 6.4 3.715 3.306 5.363-9.104 4.848-18.114 10.299-27.359 15.223-1.748.932-4.307 1.269-6.991 1.051-2.685-.218-5.4151-.979-7.5722-2.207l-4.5334-2.585c-2.0054-1.143-3.0663-2.495-3.1736-3.744-.1073-1.219.693-2.351 2.4039-3.115z" fill="url(#U)" opacity=".3"/><path d="m100.622 187.891c.5-.011 2.188-1.565 3.786-.781 1.918.943 5.562.108 7.402.541.326.076.967-.16 1.093.061.397.689.78 1.722-.195 2.402-.716.497-2.25 1.155-3.258 1.502-1.073.37-2.897.954-4.122 1.142-1.359.209-1.978.3-2.486.677-.726.359-1.476.512-1.894.45-.897-.139-1.9399-.653-2.4182-1.651-.1533-.318-.1533-1.714.0184-2.62.1395-.714.5366-1.528.8555-2.288z" fill="#fff"/><path d="m104.539 184.546c-.613 1.428-.42 3.636-1.859 4.403-.962.512-2.469.517-3.1249-.947-.3649-.817.1211-2.21.0123-4.002z" fill="#ffa495"/><path d="m104.939 186.757c1.102.314 4.139.104 6.07.257.828.065 1.57.059 1.956.794.356.677.169 1.257-.636 1.814-.718.497-1.934 1.064-2.941 1.413-1.073.37-2.896.954-4.122 1.142-1.357.209-1.977.3-2.486.679-.725.357-1.476.512-1.895.45-.515-.087-1.0018-.291-1.4215-.596s-.7603-.703-.9943-1.16c-.1533-.319-.1533-1.61.0184-2.515.0368-.181.0839-.359.1411-.535.1533-1.417.6301-1.99 1.0732-1.747.6131.332.8491.929 1.0841 1.422.075.181.189.344.334.478.144.135.316.239.504.304.739.228 1.412-.176 1.849-.796.241-.451.412-.936.506-1.437 0-.048 0-.096 0-.15.144-1.238.767-1.13.667-.869-.099.261-.038.8.293 1.052z" fill="#364154"/><path d="m112.58 187.6c-.015.479.734.524.518 1.366.361-.345-.142-1.339-.365-1.491-.092-.061-.168-.087-.153.125z" fill="#fff"/><path d="m113.156 182.973c.46-.179 1.505-2.206 3.281-2.008.716.08 1.867-.103 3.037-.429 1.863-.519 4.461-2.15 4.906-1.884.966.582 1.043 1.651.365 2.606-.5.707-1.443 1.652-2.265 2.317-.872.707-2.111 1.791-3.196 2.379-1.024.557-1.366.508-2.094 1.474-.557.581-1.209.927-1.624 1.006-1.073.204-2.606-.467-3.17-1.166-.355-1.123-.969-2.185-.575-3.871z" fill="#fff"/><path d="m115.618 178.191c-.029 1.545.973 3.531-.075 4.762-.702.823-2.102 1.371-3.261.246-.647-.627-.719-2.102-1.492-3.727z" fill="#ffa495"/><path d="m118.995 180.075.319-.085c1.863-.52 4.354-1.776 4.797-1.502.966.581 1.15 1.267.473 2.23-.5.708-1.443 1.651-2.265 2.318-.872.707-2.111 1.791-3.196 2.379-1.026.557-1.365.508-2.095 1.474-.556.58-1.208.927-1.623 1.006-1.074.203-2.66-.473-3.22-1.172-.264-.836-.625-1.632-.655-2.681-.153-1.376-.058-2.075.552-2.059 1.136.033 1.606.62 2.075.901 1.012.619 1.686-.18 1.853-1.166.02-.437-.011-.874-.092-1.304-.017-.046-.033-.091-.052-.135-.331-1.201.282-1.325.293-1.051-.006.259.086.51.26.704.173.195.415.318.677.347.619.09 1.399-.162 1.899-.204z" fill="#364154"/><path d="m123.998 178.634c.197.438.893.164 1.073 1.015.173-.466-.718-1.149-.986-1.192-.114-.017-.195-.008-.087.177z" fill="#fff"/><path d="m114.544 136.439c.408 4.478 2.7 18.785 2.063 22.713-.959 5.906-.686 13.04-.675 19.309-.153 2.634-3.859 4.01-4.935 2.336-.865-5.601-2.094-10.509-2.594-13.621-.561-3.484-.376-7.72.527-10.011-.369-2.502-2.112-8.958-3.567-13.432-.526-1.613-3.502-6.829-.422-12.01z" fill="#364154"/><path d="m115.994 176.781c0 .464-.016 1.173-.014 1.629-.163 2.633-3.906 4.063-4.983 2.389-.064-.413-.153-.821-.224-1.227 1.448 1.526 4.284-.458 5.221-2.791z" fill="url(#W)"/><path d="m116.707 156.487c-1.207 5.923-4.617 13.833-6.479 19.788-.969-5.104-3.395-13.79-1.298-19.109-.21-1.425-.866-4.134-1.661-7.027 1.614-3.002.072-5.386.834-9.608 4.272-.729-2.176-5.835 6.865-.45.809 6.35 1.568 10.347 1.739 16.406z" fill="#1e2353" opacity=".3"/><path d="m114.249 162.103c-2.465 5.465-7.013 16.184-9.432 22.89-1.251 1.781-5.7124 1.596-5.7047-.066.9857-5.607 2.1467-14.262 4.1997-19.171.628-1.501 2.949-5.127 3.786-6.2.65-2.476 1.465-9.158 2.095-12.776-.565-2.992-3.03-7.996 1.706-12.345 1.912 1.331 7.819 2.163 10.499.681.432 11.821-2.531 16.752-7.149 26.987z" fill="#364154"/><path d="m105.319 183.824c-.108.293-.322.886-.424 1.165-1.287 1.834-5.8807 1.642-5.8715-.068.0475-.276.0965-.561.1533-.851 1.0882 1.093 4.4002 1.108 6.1422-.246z" fill="url(#X)"/><path d="m129.36 70.9284c-.176.3618-.343.7281-.526 1.0869l-.754 1.4773c-.153-.7252-.751-1.0014-1.205-.6366-.16.1301-.286.2958-.368.4834-.072-.1981-.642-.6425-1.415.4309-.481-.051-.734.1501-.938.53-.126.25-.234.5084-.324.7731-.136.335-.212.6905-.225 1.0509 0 .7116.037 1.4848.015 2.3345-.021.9233-1.091 2.0928-1.671 2.7654l3.499 1.0869c.535-.6576.825-1.1335 1.363-1.6679.538-.5345 1.243-.6095 1.767-1.0299.293-.2357.46-.548.96-1.2386.413-.5719.638-1.1905 1.032-1.8165.394-.6261.36-.5059.399-1.2326.03-.5614.216-1.1154.262-1.4562-.719-.3513-1.285.5179-1.28 1.3647-.413.2266-.683.7836-.776 1.0313-.571-.7311-.23-1.0374 0-1.9787.344-.5972.62-1.2295.823-1.8856.112-.2897.224-.59.344-.9143.162-.5254-.045-.9007-.207-1.0028-.135-.0886-.482-.0496-.775.4444z" fill="url(#Y)"/><path d="m130.825 73.7929c-.511.0721-.873.7627-.868 1.4383-.385.2131-.647.7131-.754.9803.208-.2642.743-.8302.92-.9008.055-.6515.291-1.186.703-1.5223zm-2.674-.4293-.064.1276c-.035-.1604-.099-.3131-.191-.4504-.038.4068-.213.7894-.499 1.0869.176-.0629.335-.1638.465-.2954.131-.1315.23-.2902.289-.4642zm-1.641-.0376c-.041-.0784-.106-.1428-.185-.1846-.069.348-.203.6807-.394.9818.271-.2023.473-.4802.579-.7972zm-1.395.4204-.017.0225c-.074-.0074-.149-.0074-.223 0-.035.3947-.175.7735-.408 1.0974.363-.3558.552-.5975.642-1.1184z" fill="#ff8978"/><path d="m116.145 90.729c1.76-3.0026 3.14-6.7708 5.6-9.823.206-.2537.689-.4504.865-.7176.257-.3873.513-.7701.766-1.144 1.153.0196 2.572.6006 3.544 1.5629-.14.4023-.275.8032-.408 1.201-.154.4639.142 1.4563 0 1.9217-1.125 3.9431-2.568 7.7925-4.316 11.5118-2.441 3.0837-13.288 22.8752-18.959 15.6932-.51-2.552.18-4.68 1.492-6.747.727-1.144 1.84-2.142 2.574-2.897 1.794-1.8095 6.163-7.8582 8.842-10.562z" fill="url(#Z)"/><path d="m104.137 120.25c.397 3.504-.679 6.951.417 10.152.049.33.079 1.627.138 1.98.72 4.145 9.674 8.34 17.142 4.363.041-.515 0-1.051.033-2.004-.138-.889.255-1.842.252-2.384-.009-2.252-.727-3.408-.383-5.92.699-5.104 3.589-10.013 1.993-14.031-.342-.863-.943-1.28-1.624-1.816-1.766-1.388-10.885-5.94-13.659-6.261-8.036-1.019-4.74 12.113-4.309 15.921z" fill="url(#aa)"/><path d="m122.485 122.874c1.035-3.753 2.388-7.296 1.18-10.33-.342-.863-.943-1.28-1.623-1.816-1.765-1.388-1.533 2.345-4.293 2.023-.538 4.989 1.981 9.533 4.736 10.123z" fill="#6266d7" opacity=".35"/><path d="m116.852 102.9c-.098 1.437-.03 2.88.202 4.302-2.615-.082-6.25-.75-6.647-2.66.018-.228.035-.461.046-.687-.033-.031-.069-.058-.106-.083-.938-.611-2.49-1.064-3.488-2.181-1.594-1.7854-2.441-4.1829-1.19-6.597 2.285-4.4063 7.81-4.4813 10.885-.9188.601.6966.154 1.4173.503 2.0898.066.1306.307.1892.598.4204.394.3183 1.543 3.0731 1.512 4.5036-.012.58-1.371 1.395-1.975 1.715-.109.044-.223.077-.34.096z" fill="#f4caab"/><path d="m116.851 102.9c-.097 1.437-.029 2.88.203 4.303-2.616-.083-6.251-.751-6.648-2.661.019-.228.035-.46.046-.687-.035-.032-.075-.054-.106-.083-1.993-1.822.67-3.9106 4.031-2.112.251.414.616.751 1.054.97s.93.313 1.42.27z" fill="#efbc90"/><path d="m119.173 101.097c-.013.254-1.083.635-1.533.694.306-2.7223-2.342-3.1382-1.943-5.797.239-1.5973-1.438-2.1753-.78-3.3448.613.3959 1.166.8762 1.64 1.4262.601.6966.153 1.4172.503 2.0898.066.1306.307.1892.598.4204.394.3182 1.581 3.0746 1.515 4.5114z" fill="#f4caab"/><path d="m115.565 99.9905c-.051-.6096-.307-.7267-.513-.5645-.205.1621-.424.706-.361 1.333.101 1.012 1.059 1.917 1.718 1.099-.72.375-1.061-.531-1.091-1.169-.022-.436.09-.7991.247-.6985z" fill="#ffb49c"/><path d="m115.34 100.381c.385.285.561.477.556.636 0 .112-.099.278-.437.163-.116-.25-.157-.527-.119-.799z" fill="#ff9d8e"/><path d="m110.374 104.475c-.766.233-1.498 1.013-1.355 1.512.766 3.085 6.542 3.772 10.131 3.031.044-.009-1.343-1.802-2.03-2.024-2.258.216-6.05-.7-6.746-2.519z" fill="url(#ab)"/><path d="m110.097 104.282c-.957-.999-2.577-1.477-3.615-2.64-1.038-1.164-2.146-2.9083-1.463-4.7173-1.206-3.7172 2.913-6.6657 6.392-7.3353 2.487-.4789 3.974 2.1318 2.893 3.9033.931 1.0209.9 2.3706.835 2.7174-.199 1.0614-.171 1.201.175 1.9892.275.6275.957 2.1437-.277 1.183-.799-.62-1.357.7507-1.087 1.6997.191.591.25 1.216.173 1.831-.231 1.984-3.494 1.926-4.026 1.369z" fill="#364154"/><path d="m106.17 95.242c-.821-3.6031 4.011-5.4227 5.903-5.4647 1.892-.0421 3.411 3.0386 1.144 4.0775-1.547.7071-4.611-.6771-7.047 1.3872z" fill="#364154"/><path d="m144.492 100.339c-.087.234-.139.479-.153.728-.157.355-.278.725-.36 1.103-.118.583-.074 1.042-.092 1.818 0 .378.055.754.162 1.117-.46.889-1.194 1.436-1.876 2.17l2.209 1.651c.932-.6 1.66-1.234 2.464-1.758.651-.252.88-.395 1.073-.6.511-.523 2.018-2.075 2.105-2.685.095-.677-.089-2.243-.245-3.104-.4-2.1922-1.253-4.4966-1.4-3.4788-.213.2432-.038 2.2249-.173 2.5177-.523.5901-.767.8331-1.428 1.5361-.406.226-.674.462-.87.515-.226.06-.35-.095-.359-.289 0-.217.133-.6.251-1.169 0-.9399-.239-1.4729-.753-1.4233-.12.0056-.234.0529-.323.1334-.088.0806-.144.1892-.158.3065-.051.2236-.037.5269-.074.9114z" fill="url(#ac)"/><path d="m122.282 109.403c3.041.46 8.912 3.737 12.962 5.515 2.26-3.153 5.224-6.932 7.053-8.203.21-.15.745-.451.909-.64.265-.318.524-.645.774-.982 1.142.15 2.798 1.553 2.777 2.212-.184.33-.371.675-.562 1.031-.13.243-.082.778-.153 1.051-.613 2.207-4.041 7.307-5.636 9.581-.919 1.314-1.244 2.085-1.868 2.479-1 .629-2.343.285-4.931-.351-2.179-.536-9.21-1.79-12.444-3.453-2.282-1.179-4.033-3.303-3.126-5.747.574-1.575 2.288-2.788 4.245-2.493z" fill="url(#ad)"/><path d="m205.936 18.5456c-1.993-1.0779-4.095.3768-4.074 3.1918.011 1.4577.641 2.9575 1.638 3.9033.241.2303.511.4291.805.5915 1.983 1.0764 4.081-.3783 4.065-3.1797 0-1.4608-.631-2.9666-1.623-3.9034-.243-.2332-.516-.435-.811-.6005zm-1.915 9.0078c-.391-.2179-.751-.4838-1.073-.7912-1.342-1.2611-2.182-3.2818-2.202-5.2425-.024-3.7758 2.804-5.7395 5.475-4.2892.4.2202.769.4913 1.096.8062 1.339 1.2581 2.179 3.2788 2.186 5.241.017 3.7652-2.807 5.7244-5.474 4.2757zm9.097-3.2083c.46.2537.743.9158.614 1.4863l-.486 2.2114c-.124.5645-.601.8167-1.073.5645l-.238-.1292c-.078-.0468-.165-.0775-.256-.0901-.09-.0125-.183-.0068-.271.017s-.171.0651-.242.1213-.13.1262-.172.2056c-.132.217-.276.427-.431.629-.244.3108-.282.8077-.098 1.2521l.125.3002c.24.5705.097 1.2221-.317 1.4413l-1.634.8647c-.104.0525-.219.078-.335.0741-.117-.004-.23-.0372-.329-.0966-.243-.1442-.43-.3641-.531-.6245l-.125-.3003c-.1-.2576-.285-.4749-.526-.617-.12-.0667-.256-.1004-.394-.0976-.23 0-.46-.009-.699-.03-.373-.0346-.686.2252-.781.6575l-.063.2883c-.124.563-.601.8167-1.073.5645l-1.823-.9894c-.46-.2537-.742-.9158-.613-1.4803l.065-.2867c.043-.2251.034-.4569-.028-.6779-.062-.2209-.175-.425-.33-.5967-.196-.2117-.378-.4309-.561-.6546-.094-.1221-.212-.2242-.348-.3002-.098-.0588-.21-.0919-.325-.0961-.115-.0043-.229.0206-.331.0721l-.213.1081c-.103.0525-.219.078-.335.074-.116-.0039-.23-.0372-.329-.0966-.243-.1437-.43-.3638-.53-.6245l-.948-2.2684c-.239-.572-.095-1.2236.316-1.4413l.219-.1291c.322-.1696.485-.6005.417-1.0779-.044-.3003-.073-.608-.093-.9143-.031-.4714-.285-.9188-.641-1.1125l-.238-.1291c-.46-.2522-.742-.9143-.613-1.4787l.488-2.2114c.124-.5705.602-.8242 1.073-.5705l.237.1291c.078.0471.165.0779.256.0906s.183.007.271-.0168c.089-.0238.171-.0652.242-.1215.072-.0564.13-.1265.173-.206.132-.2175.276-.4275.432-.6291.241-.3002.281-.8017.095-1.246l-.126-.3003c-.236-.5765-.095-1.2221.319-1.4472l1.636-.8663c.103-.052.218-.0771.334-.0729s.229.0376.328.0969c.244.1442.431.364.532.6246l.125.3002c.099.2583.284.4763.525.6186.12.0669.255.1011.393.099.234-.0067.468.0008.701.0226.372.0405.683-.2192.778-.6516l.063-.2882c.126-.5705.604-.8227 1.073-.5705l1.825.9908c.46.2522.742.9143.613 1.4848l-.064.2882c-.044.2232-.034.4532.027.6722.062.2191.173.4216.327.5919.196.2112.385.4329.566.6651.093.1225.211.2248.346.3002.098.0586.21.0915.325.0957s.229-.0204.331-.0716l.216-.1141c.103-.0525.218-.0781.335-.0741.116.0039.229.0372.328.0966.244.1443.431.3648.532.626l.946 2.267c.237.578.096 1.2235-.318 1.4472l-.216.1141c-.32.1697-.484.6005-.414 1.0734.043.3003.074.6096.094.9128.029.4729.283.9203.641 1.114z" fill="url(#ae)" opacity=".5"/><path d="m19.2942 13.321c-.2039 1.3707-1.2985 1.9907-2.453 1.3617-1.1544-.629-1.9363-2.2669-1.7324-3.6376.2039-1.37069 1.2955-1.95169 2.4744-1.31514 1.179.63654 1.9195 2.22944 1.7156 3.59104zm-6.3518 12.1755c.2055-1.3692 1.2971-1.9637 2.4745-1.3242 1.1775.6396 1.921 2.2295 1.7171 3.6031-.2039 1.3737-1.3016 1.9907-2.453 1.3617s-1.9379-2.2669-1.7324-3.6361zm-7.2302-11.7191c-.2039 1.3632-1.31694 1.9517-2.47445 1.3167-1.15751-.6351-1.91949-2.2295-1.71711-3.5896.20237-1.3602 1.30775-1.98772 2.453-1.3632 1.14525.6245 1.93789 2.267 1.73398 3.6361zm12.1271-5.79194c-1.9686-1.07041-3.8589-.07056-4.2085 2.26094v.1742l-6.86532 1.0509c-.48907-1.3137-1.3921-2.43964-2.52814-3.05517-1.96854-1.06891-3.832812-.04654-4.1808324 2.28497-.3449536 2.306.9520624 5.0623 2.9221324 6.1313 1.13605.617 2.21845.5419 2.99728-.0841l5.53608 7.8172-.0414.1261c-.348 2.33.9812 5.0773 2.9498 6.1463 1.9685 1.0689 3.8328.0555 4.1808-2.2775.345-2.306-.972-5.0818-2.9129-6.1403-1.4013-.7596-2.7428-.4669-3.537.575l-5.24478-7.4854c.14093-.3005.23103-.6215.26676-.9503.0635-.3659.07742-.7385.0414-1.1079l6.52802-1.0945c.3849 1.689 1.4443 3.2788 2.8471 4.0385 1.947 1.0509 3.8328.0465 4.1808-2.285s-.9843-5.06833-2.9375-6.12524z" fill="url(#af)"/><path d="m7.33594 166.271 10.21826-16.528 5.1606 18.352 5.2433-6.25 6.5326 19.677z" fill="url(#ag)" opacity=".5"/><path d="m25.922 150.931c1.4028.34 2.6584 1.951 2.8041 3.586.1456 1.635-.8739 2.703-2.2783 2.354-1.4043-.348-2.6584-1.951-2.8041-3.586-.1456-1.635.8739-2.695 2.2783-2.354z" fill="url(#ah)" opacity=".5"/></g></svg>