<svg fill="none" height="194" viewBox="0 0 268 194" width="268" xmlns="http://www.w3.org/2000/svg" xmlns:xlink="http://www.w3.org/1999/xlink"><linearGradient id="a"><stop offset="0" stop-color="#c8c8c8"/><stop offset="1" stop-color="#f0f0f0"/></linearGradient><linearGradient id="b" gradientUnits="userSpaceOnUse" x1="190.866" x2="225.234" xlink:href="#a" y1="141.238" y2="166.605"/><linearGradient id="c"><stop offset="0" stop-color="#efefef"/><stop offset="1" stop-color="#fcfcfc"/></linearGradient><linearGradient id="d" gradientUnits="userSpaceOnUse" x1="190.866" x2="225.234" xlink:href="#c" y1="138.488" y2="163.857"/><linearGradient id="e" gradientUnits="userSpaceOnUse" x1="186.072" x2="74.2851" xlink:href="#a" y1="32.6664" y2="109.857"/><linearGradient id="f"><stop offset="0" stop-color="#31a25d"/><stop offset="1" stop-color="#006d2c"/></linearGradient><linearGradient id="g" gradientUnits="userSpaceOnUse" x1="46.5469" x2="64.3696" xlink:href="#f" y1="117.519" y2="117.519"/><linearGradient id="h" gradientUnits="userSpaceOnUse" x1="51.6031" x2="181.244" xlink:href="#a" y1="87.029" y2="87.029"/><linearGradient id="i"><stop offset="0" stop-color="#f8db8b"/><stop offset="1" stop-color="#68b790"/></linearGradient><linearGradient id="j" gradientUnits="userSpaceOnUse" x1="50.2108" x2="66.5139" xlink:href="#i" y1="115.727" y2="115.904"/><linearGradient id="k" gradientUnits="userSpaceOnUse" x1="77.702" x2="102.398" xlink:href="#i" y1="71.9966" y2="73.7697"/><linearGradient id="l" gradientUnits="userSpaceOnUse" x1="86.2629" x2="88.4227" y1="74.0759" y2="75.4051"><stop offset="0" stop-color="#e08282"/><stop offset="1" stop-color="#ffc0c0"/></linearGradient><linearGradient id="m"><stop offset="0" stop-color="#303030"/><stop offset="1" stop-color="#727272"/></linearGradient><linearGradient id="n" gradientUnits="userSpaceOnUse" x1="87.2283" x2="90.9113" xlink:href="#m" y1="64.5682" y2="67.0757"/><linearGradient id="o" gradientUnits="userSpaceOnUse" x1="81.3037" x2="97.2816" xlink:href="#c" y1="83.5773" y2="83.5773"/><linearGradient id="p"><stop offset="0" stop-color="#ffe94d"/><stop offset="1" stop-color="#ff9d00"/></linearGradient><linearGradient id="q" gradientUnits="userSpaceOnUse" x1="84.6239" x2="87.1085" xlink:href="#p" y1="77.6597" y2="76.7898"/><linearGradient id="r" gradientUnits="userSpaceOnUse" x1="88.1653" x2="91.1225" xlink:href="#p" y1="75.7254" y2="74.69"/><linearGradient id="s"><stop offset="0" stop-color="#067431"/><stop offset="1" stop-color="#2e9f5a"/></linearGradient><linearGradient id="t" gradientUnits="userSpaceOnUse" x1="114.52" x2="119.022" xlink:href="#s" y1="42.4466" y2="54.0362"/><linearGradient id="u" gradientUnits="userSpaceOnUse" x1="97.3921" x2="100.086" xlink:href="#s" y1="103.415" y2="104.989"/><linearGradient id="v" gradientUnits="userSpaceOnUse" x1="100.777" x2="104.004" xlink:href="#s" y1="98.1381" y2="99.2559"/><linearGradient id="w" gradientUnits="userSpaceOnUse" x1="104.162" x2="107.541" xlink:href="#s" y1="93.621" y2="94.512"/><linearGradient id="x" gradientUnits="userSpaceOnUse" x1="107.546" x2="110.663" xlink:href="#s" y1="95.2864" y2="96.5311"/><linearGradient id="y" gradientUnits="userSpaceOnUse" x1="110.931" x2="114.196" xlink:href="#s" y1="91.7661" y2="92.8343"/><linearGradient id="z" gradientUnits="userSpaceOnUse" x1="114.316" x2="117.695" xlink:href="#s" y1="87.7265" y2="88.6175"/><linearGradient id="A" gradientUnits="userSpaceOnUse" x1="117.7" x2="121.152" xlink:href="#s" y1="83.3678" y2="84.1107"/><linearGradient id="B" gradientUnits="userSpaceOnUse" x1="152.603" x2="155.297" xlink:href="#s" y1="104.927" y2="106.502"/><linearGradient id="C" gradientUnits="userSpaceOnUse" x1="155.988" x2="159.215" xlink:href="#s" y1="99.6518" y2="100.77"/><linearGradient id="D" gradientUnits="userSpaceOnUse" x1="159.372" x2="162.749" xlink:href="#s" y1="95.1327" y2="96.0224"/><linearGradient id="E" gradientUnits="userSpaceOnUse" x1="162.756" x2="165.873" xlink:href="#s" y1="96.7981" y2="98.0428"/><linearGradient id="F" gradientUnits="userSpaceOnUse" x1="166.141" x2="169.406" xlink:href="#s" y1="93.2779" y2="94.346"/><linearGradient id="G" gradientUnits="userSpaceOnUse" x1="169.526" x2="172.905" xlink:href="#s" y1="89.2382" y2="90.1292"/><linearGradient id="H" gradientUnits="userSpaceOnUse" x1="172.911" x2="176.364" xlink:href="#s" y1="84.8795" y2="85.6236"/><linearGradient id="I"><stop offset="0" stop-color="#ffc444"/><stop offset="1" stop-color="#f36f56"/></linearGradient><linearGradient id="J" gradientUnits="userSpaceOnUse" x1="142.875" x2="129.445" xlink:href="#I" y1="73.9803" y2="87.5055"/><linearGradient id="K" gradientUnits="userSpaceOnUse" x1="128.747" x2="137.233" xlink:href="#i" y1="79.1378" y2="79.4546"/><linearGradient id="L" gradientUnits="userSpaceOnUse" x1="169.814" x2="159.351" xlink:href="#I" y1="23.4872" y2="46.7057"/><linearGradient id="M" gradientUnits="userSpaceOnUse" x1="72.3109" x2="86.9746" xlink:href="#s" y1="18.8492" y2="30.2109"/><linearGradient id="N" gradientUnits="userSpaceOnUse" x1="53.4651" x2="77.8683" xlink:href="#s" y1="17.7901" y2="39.2316"/><linearGradient id="O" gradientUnits="userSpaceOnUse" x1="69.4485" x2="50.7161" xlink:href="#m" y1="7.29231" y2="7.29231"/><linearGradient id="P" gradientUnits="userSpaceOnUse" x1="79.2511" x2="84.1438" xlink:href="#m" y1="97.5161" y2="98.0121"/><linearGradient id="Q" gradientUnits="userSpaceOnUse" x1="73.2436" x2="76.35" xlink:href="#m" y1="101.334" y2="101.649"/><linearGradient id="R" gradientUnits="userSpaceOnUse" x1="93.5842" x2="70.0178" xlink:href="#c" y1="40.4548" y2="45.7106"/><linearGradient id="S" gradientUnits="userSpaceOnUse" x1="70.5799" x2="59.8533" xlink:href="#c" y1="55.1522" y2="57.5446"/><linearGradient id="T" gradientUnits="userSpaceOnUse" x1="50.8776" x2="68.9854" xlink:href="#s" y1="25.1148" y2="44.5465"/><linearGradient id="U" gradientUnits="userSpaceOnUse" x1="186.002" x2="223.088" xlink:href="#f" y1="59.1275" y2="59.1275"/><linearGradient id="V" gradientUnits="userSpaceOnUse" x1="195.679" x2="245.227" xlink:href="#s" y1="20.6139" y2="51.9218"/><linearGradient id="W" gradientUnits="userSpaceOnUse" x1="208.2" x2="201.698" y1="42.806" y2="25.566"><stop offset="0" stop-color="#b92222"/><stop offset=".25" stop-color="#dd2f2f"/><stop offset=".85" stop-color="#ff6757"/></linearGradient><linearGradient id="X"><stop offset="0" stop-color="#3a3a3a"/><stop offset="1" stop-color="#5e5e5e"/></linearGradient><linearGradient id="Y" gradientUnits="userSpaceOnUse" x1="206.46" x2="220.806" xlink:href="#X" y1="67.0541" y2="67.0541"/><linearGradient id="Z" gradientUnits="userSpaceOnUse" x1="212.438" x2="223.667" xlink:href="#X" y1="146.767" y2="146.767"/><linearGradient id="aa" gradientUnits="userSpaceOnUse" x1="200.12" x2="212.718" xlink:href="#X" y1="154.981" y2="154.981"/><linearGradient id="ab" gradientUnits="userSpaceOnUse" x1="212.714" x2="223.948" xlink:href="#X" y1="125.373" y2="125.373"/><linearGradient id="ac" gradientUnits="userSpaceOnUse" x1="204.203" x2="218" xlink:href="#X" y1="130.93" y2="130.93"/><linearGradient id="ad" gradientUnits="userSpaceOnUse" x1="226.621" x2="223.029" xlink:href="#p" y1="84.8197" y2="84.3644"/><linearGradient id="ae" gradientUnits="userSpaceOnUse" x1="221.038" x2="201.387" xlink:href="#I" y1="85.1054" y2="117.009"/><linearGradient id="af" gradientUnits="userSpaceOnUse" x1="205.065" x2="198.278" xlink:href="#I" y1="88.6813" y2="109.664"/><linearGradient id="ag"><stop offset="0" stop-color="#ffd2a1"/><stop offset="1" stop-color="#d8952a"/></linearGradient><linearGradient id="ah" gradientUnits="userSpaceOnUse" x1="24.5982" x2="29.2859" xlink:href="#ag" y1="125.681" y2="143.345"/><linearGradient id="ai" gradientUnits="userSpaceOnUse" x1="27.5915" x2="27.5915" xlink:href="#ag" y1="133.05" y2="163.726"/><linearGradient id="aj" gradientUnits="userSpaceOnUse" x1="1.45609" x2="7.27525" xlink:href="#ag" y1="138.053" y2="178.398"/><linearGradient id="ak" gradientUnits="userSpaceOnUse" x1="26.9415" x2="26.9415" xlink:href="#c" y1="111.213" y2="137.702"/><linearGradient id="al" gradientUnits="userSpaceOnUse" x1="16.4552" x2="22.1766" xlink:href="#s" y1="122.033" y2="128.629"/><linearGradient id="am" gradientUnits="userSpaceOnUse" x1="25.1671" x2="35.9216" xlink:href="#ag" y1="173.367" y2="146.303"/><linearGradient id="an" gradientUnits="userSpaceOnUse" x1="28.1487" x2="28.1487" xlink:href="#ag" y1="145.671" y2="167.708"/><clipPath id="ao"><path d="m0 0h268v194h-268z"/></clipPath><g clip-path="url(#ao)"><g opacity=".15"><path d="m125.724 144.479c27.466-12.276 46.803-28.776 43.191-36.853-3.613-8.0772-28.808-4.673-56.274 7.602-27.4661 12.276-46.8031 28.776-43.1903 36.853s28.8072 4.674 56.2733-7.602z" fill="#4a0101" opacity=".04"/><path d="m125.55 144.092c26.74-11.951 45.566-28.015 42.049-35.878-3.518-7.864-28.046-4.55-54.786 7.401-26.7396 11.951-45.5652 28.015-42.048 35.878 3.5172 7.864 28.0454 4.55 54.785-7.401z" fill="#480202" opacity=".08"/><path d="m125.377 143.705c26.014-11.626 44.328-27.253 40.907-34.903-3.422-7.65-27.284-4.426-53.298 7.2-26.0131 11.627-44.3274 27.254-40.9058 34.904 3.4217 7.65 27.2837 4.426 53.2968-7.201z" fill="#460303" opacity=".12"/><path d="m125.205 143.318c25.287-11.302 43.09-26.492 39.764-33.929-3.326-7.436-26.522-4.302-51.809 7-25.2876 11.302-43.0906 26.492-39.7645 33.929 3.3261 7.436 26.5218 4.302 51.8095-7z" fill="#440404" opacity=".15"/><path d="m125.032 142.933c24.561-10.977 41.852-25.732 38.621-32.956-3.231-7.223-25.76-4.18-50.321 6.797-24.5611 10.978-41.8525 25.733-38.6216 32.956 3.2309 7.224 25.7606 4.181 50.3216-6.797z" fill="#420505" opacity=".19"/><path d="m124.86 142.546c23.835-10.653 40.616-24.971 37.48-31.981-3.135-7.01-24.999-4.057-48.835 6.596-23.835 10.654-40.6156 24.972-37.4803 31.982 3.1354 7.01 24.9993 4.057 48.8353-6.597z" fill="#400606" opacity=".23"/><path d="m124.687 142.159c23.109-10.328 39.378-24.211 36.338-31.007s-24.237-3.932-47.346 6.396c-23.1095 10.329-39.3788 24.211-36.339 31.007s24.238 3.933 47.347-6.396z" fill="#3e0606" opacity=".27"/><path d="m124.513 141.772c22.383-10.004 38.141-23.45 35.196-30.032-2.944-6.583-23.476-3.809-45.858 6.195-22.383 10.004-38.141 23.45-35.1967 30.032 2.9442 6.583 23.4757 3.809 45.8587-6.195z" fill="#3c0707" opacity=".31"/><path d="m124.34 141.386c21.656-9.679 36.903-22.689 34.054-29.058-2.848-6.369-22.714-3.685-44.37 5.994-21.6565 9.679-36.9032 22.689-34.0545 29.058s22.7145 3.685 44.3705-5.994z" fill="#3a0808" opacity=".35"/><path d="m124.167 140.999c20.93-9.355 35.665-21.928 32.912-28.084-2.753-6.155-21.952-3.561-42.882 5.793-20.93 9.355-35.6653 21.928-32.9122 28.084 2.7531 6.155 21.9522 3.561 42.8822-5.793z" fill="#380909" opacity=".38"/><path d="m123.994 140.612c20.204-9.03 34.428-21.167 31.77-27.108-2.657-5.942-21.19-3.439-41.394 5.592-20.2035 9.03-34.4275 21.166-31.77 27.108 2.6576 5.942 21.19 3.438 41.394-5.592z" fill="#360a0a" opacity=".42"/><path d="m123.821 140.225c19.478-8.705 33.19-20.406 30.628-26.134s-20.428-3.314-39.906 5.391c-19.4771 8.706-33.1897 20.406-30.6277 26.134s20.4287 3.315 39.9057-5.391z" fill="#340b0b" opacity=".46"/><path d="m123.648 139.838c18.752-8.381 31.954-19.645 29.487-25.16-2.466-5.514-19.667-3.19-38.419 5.191-18.7519 8.381-31.9538 19.646-29.4874 25.16 2.4665 5.515 19.6674 3.191 38.4194-5.191z" fill="#330c0c" opacity=".5"/><path d="m123.475 139.451c18.026-8.056 30.716-18.884 28.345-24.185s-18.905-3.067-36.931 4.99c-18.0254 8.056-30.716 18.884-28.3451 24.185s18.9051 3.067 36.9311-4.99z" fill="#310d0d" opacity=".54"/><path d="m123.302 139.065c17.299-7.732 29.479-18.124 27.203-23.211-2.275-5.087-18.143-2.943-35.443 4.789-17.2989 7.732-29.4782 18.124-27.2029 23.211 2.2754 5.087 18.1439 2.943 35.4429-4.789z" fill="#2f0e0e" opacity=".58"/><path d="m123.13 138.679c16.572-7.407 28.24-17.363 26.06-22.237-2.18-4.875-17.383-2.821-33.955 4.586-16.5734 7.407-28.2411 17.363-26.0609 22.238 2.1801 4.874 17.3829 2.82 33.9559-4.587z" fill="#2d0f0f" opacity=".62"/><path d="m122.957 138.293c15.846-7.083 27.003-16.603 24.918-21.263-2.085-4.661-16.621-2.698-32.467 4.385-15.8469 7.083-27.0033 16.602-24.9187 21.263s16.6207 2.697 32.4677-4.385z" fill="#2b1010" opacity=".65"/><path d="m122.784 137.906c15.12-6.758 25.765-15.842 23.776-20.289s-15.859-2.573-30.979 4.185-25.7654 15.841-23.7764 20.288 15.8584 2.574 30.9794-4.184z" fill="#291111" opacity=".69"/><path d="m122.61 137.519c14.395-6.434 24.529-15.081 22.636-19.314-1.894-4.234-15.098-2.45-29.493 3.984-14.394 6.433-24.5286 15.081-22.6351 19.314s15.0981 2.45 29.4921-3.984z" fill="#271212" opacity=".73"/><path d="m122.437 137.132c13.669-6.109 23.292-14.32 21.494-18.34s-14.336-2.326-28.004 3.783c-13.669 6.109-23.2918 14.32-21.4938 18.34 1.7979 4.02 14.3358 2.326 28.0038-3.783z" fill="#251212" opacity=".77"/><path d="m122.265 136.745c12.942-5.784 22.053-13.559 20.351-17.365s-13.574-2.202-26.516 3.582c-12.942 5.785-22.0539 13.559-20.3516 17.366 1.7024 3.806 13.5736 2.202 26.5166-3.583z" fill="#231313" opacity=".81"/><path d="m122.092 136.358c12.215-5.459 20.816-12.798 19.209-16.39-1.607-3.593-12.812-2.079-25.028 3.381s-20.8161 12.798-19.2093 16.391c1.6068 3.592 12.8123 2.078 25.0283-3.382z" fill="#211414" opacity=".85"/><path d="m121.919 135.971c11.489-5.135 19.578-12.037 18.067-15.416-1.511-3.378-12.05-1.955-23.54 3.181-11.489 5.135-19.5783 12.037-18.067 15.416 1.5112 3.378 12.05 1.955 23.54-3.181z" fill="#1f1515" opacity=".88"/><path d="m121.746 135.585c10.763-4.811 18.341-11.276 16.925-14.442-1.416-3.165-11.289-1.831-22.052 2.98-10.763 4.81-18.3405 11.276-16.9248 14.441 1.4158 3.165 11.2888 1.831 22.0518-2.979z" fill="#1d1616" opacity=".92"/><path d="m121.572 135.198c10.037-4.486 17.103-10.515 15.783-13.467-1.32-2.951-10.527-1.708-20.564 2.778-10.036 4.486-17.1026 10.516-15.783 13.467 1.321 2.952 10.527 1.708 20.564-2.778z" fill="#1b1717" opacity=".96"/><path d="m121.4 134.811c9.311-4.162 15.867-9.755 14.642-12.493s-9.766-1.583-19.077 2.578c-9.311 4.162-15.867 9.755-14.642 12.493 1.224 2.738 9.765 1.584 19.077-2.578z" fill="#191818" opacity=".15"/></g><g opacity=".15"><path d="m205.037 193.583c20.433-.032 36.985-7.23 36.971-16.078-.013-8.848-16.589-15.995-37.022-15.963-20.433.033-36.985 7.231-36.972 16.079.014 8.848 16.59 15.994 37.023 15.962z" fill="#4a0101" opacity=".04"/><path d="m205.036 193.16c19.893-.031 36.009-7.04 35.995-15.653-.013-8.614-16.151-15.572-36.044-15.541-19.893.032-36.008 7.04-35.995 15.654.014 8.614 16.151 15.571 36.044 15.54z" fill="#480202" opacity=".08"/><path d="m205.035 192.736c19.352-.031 35.03-6.848 35.017-15.228-.014-8.38-15.712-15.149-35.064-15.118-19.353.03-35.03 6.848-35.017 15.228s15.712 15.148 35.064 15.118z" fill="#460303" opacity=".12"/><path d="m205.035 192.312c18.812-.029 34.052-6.657 34.039-14.803-.013-8.145-15.273-14.725-34.086-14.695-18.812.029-34.052 6.657-34.039 14.802.013 8.146 15.274 14.726 34.086 14.696z" fill="#440404" opacity=".15"/><path d="m205.032 191.888c18.273-.029 33.075-6.466 33.063-14.377-.012-7.912-14.835-14.303-33.108-14.274-18.272.029-33.075 6.466-33.062 14.378.012 7.911 14.835 14.302 33.107 14.273z" fill="#420505" opacity=".19"/><path d="m205.031 191.466c17.732-.028 32.097-6.275 32.084-13.954-.012-7.678-14.396-13.88-32.127-13.852-17.732.027-32.096 6.275-32.084 13.953.012 7.679 14.396 13.881 32.127 13.853z" fill="#400606" opacity=".23"/><path d="m205.031 191.043c17.192-.027 31.119-6.084 31.107-13.529-.012-7.444-13.958-13.458-31.149-13.431-17.192.027-31.119 6.084-31.107 13.529.011 7.445 13.957 13.458 31.149 13.431z" fill="#3e0606" opacity=".27"/><path d="m205.03 190.619c16.651-.026 30.14-5.893 30.129-13.104-.012-7.21-13.519-13.034-30.17-13.008s-30.14 5.893-30.129 13.103c.012 7.211 13.519 13.035 30.17 13.009z" fill="#3c0707" opacity=".31"/><path d="m205.03 190.195c16.111-.025 29.162-5.701 29.151-12.678-.011-6.976-13.08-12.612-29.191-12.586-16.111.025-29.163 5.701-29.152 12.678.011 6.976 13.081 12.611 29.192 12.586z" fill="#3a0808" opacity=".35"/><path d="m205.029 189.772c15.571-.025 28.186-5.511 28.175-12.253-.011-6.743-12.642-12.189-28.213-12.164-15.571.024-28.186 5.51-28.175 12.252.011 6.743 12.642 12.189 28.213 12.165z" fill="#380909" opacity=".38"/><path d="m205.028 189.347c15.03-.023 27.207-5.318 27.196-11.827-.01-6.508-12.203-11.766-27.233-11.742s-27.206 5.319-27.196 11.828c.01 6.508 12.203 11.765 27.233 11.741z" fill="#360a0a" opacity=".42"/><path d="m205.028 188.924c14.49-.023 26.229-5.128 26.219-11.402-.01-6.275-11.765-11.343-26.255-11.32s-26.229 5.128-26.219 11.402c.01 6.275 11.764 11.343 26.255 11.32z" fill="#340b0b" opacity=".46"/><path d="m205.027 188.5c13.949-.022 25.25-4.936 25.241-10.977-.01-6.04-11.326-10.919-25.276-10.897-13.949.022-25.25 4.936-25.24 10.977.009 6.04 11.325 10.919 25.275 10.897z" fill="#330c0c" opacity=".5"/><path d="m205.026 188.076c13.41-.021 24.273-4.745 24.264-10.551-.009-5.807-10.887-10.497-24.297-10.476-13.409.021-24.273 4.745-24.264 10.552.01 5.806 10.888 10.496 24.297 10.475z" fill="#310d0d" opacity=".54"/><path d="m205.026 187.653c12.87-.02 23.296-4.554 23.287-10.127-.009-5.572-10.449-10.073-23.319-10.053s-23.295 4.554-23.287 10.127c.009 5.572 10.449 10.073 23.319 10.053z" fill="#2f0e0e" opacity=".58"/><path d="m205.025 187.229c12.329-.019 22.317-4.363 22.308-9.701-.008-5.338-10.009-9.65-22.338-9.631s-22.317 4.363-22.309 9.701c.008 5.339 10.01 9.651 22.339 9.631z" fill="#2d0f0f" opacity=".62"/><path d="m205.025 186.807c11.789-.019 21.339-4.172 21.331-9.278-.008-5.105-9.571-9.228-21.361-9.21-11.789.019-21.339 4.172-21.331 9.277.008 5.106 9.571 9.229 21.361 9.211z" fill="#2b1010" opacity=".65"/><path d="m205.024 186.383c11.248-.017 20.36-3.981 20.353-8.852-.008-4.871-9.133-8.806-20.381-8.788-11.249.018-20.361 3.981-20.353 8.852.007 4.871 9.132 8.806 20.381 8.788z" fill="#291111" opacity=".69"/><path d="m205.023 185.959c10.709-.017 19.383-3.789 19.376-8.427-.007-4.637-8.694-8.382-19.402-8.366-10.709.017-19.384 3.79-19.376 8.427.007 4.637 8.694 8.383 19.402 8.366z" fill="#271212" opacity=".73"/><path d="m205.022 185.536c10.168-.016 18.406-3.599 18.399-8.002s-8.256-7.96-18.424-7.944c-10.169.016-18.406 3.599-18.4 8.002.007 4.403 8.256 7.96 18.425 7.944z" fill="#251212" opacity=".77"/><path d="m205.022 185.112c9.627-.015 17.427-3.407 17.42-7.576-.006-4.169-7.816-7.537-17.444-7.522s-17.427 3.407-17.421 7.576c.007 4.17 7.817 7.537 17.445 7.522z" fill="#231313" opacity=".81"/><path d="m205.021 184.688c9.088-.014 16.45-3.216 16.444-7.151s-7.378-7.114-16.466-7.099c-9.088.014-16.45 3.215-16.444 7.151.006 3.935 7.378 7.113 16.466 7.099z" fill="#211414" opacity=".85"/><path d="m205.02 184.266c8.547-.013 15.471-3.025 15.466-6.726-.006-3.701-6.94-6.691-15.487-6.677-8.547.013-15.471 3.025-15.465 6.726s6.939 6.69 15.486 6.677z" fill="#1f1515" opacity=".88"/><path d="m205.02 183.842c8.007-.012 14.494-2.833 14.488-6.3-.005-3.467-6.501-6.268-14.508-6.255-8.007.012-14.494 2.833-14.488 6.3.005 3.467 6.501 6.268 14.508 6.255z" fill="#1d1616" opacity=".92"/><path d="m204.603 183.787c7.467 0 13.52-2.621 13.52-5.854s-6.053-5.854-13.52-5.854c-7.468 0-13.521 2.621-13.521 5.854s6.053 5.854 13.521 5.854z" fill="#1b1717" opacity=".96"/><path d="m205.016 182.995c6.927-.011 12.538-2.451 12.533-5.45-.004-2.999-5.623-5.422-12.55-5.411-6.926.011-12.537 2.451-12.532 5.45.004 2.999 5.623 5.422 12.549 5.411z" fill="#191818" opacity=".15"/></g><path d="m198.499 188.344 68.489-39.63c.308-.178.565-.435.742-.744.178-.309.271-.659.27-1.016-.001-.356-.097-.706-.277-1.014-.18-.307-.438-.562-.748-.738l-43.698-25.069c-.877-.498-1.869-.758-2.878-.755-1.009.004-1.999.271-2.873.775l-68.182 39.453c-.28.162-.512.394-.673.675-.161.28-.245.598-.244.921s.087.641.25.92.397.51.678.67l44.579 25.568c.696.395 1.484.602 2.285.599.8-.003 1.587-.215 2.28-.615z" fill="url(#b)"/><path d="m198.499 185.594 68.489-39.629c.308-.178.565-.434.742-.743.178-.309.271-.66.27-1.016-.002-.357-.097-.706-.277-1.014s-.438-.563-.748-.739l-43.698-25.07c-.877-.499-1.869-.759-2.879-.756-1.009.004-1.999.272-2.872.778l-68.184 39.452c-.28.162-.512.395-.673.675s-.245.598-.244.921.087.64.25.919.397.51.678.67l44.579 25.568c.696.396 1.484.603 2.286.601.801-.003 1.588-.216 2.281-.617z" fill="url(#d)"/><path d="m180.781 5.72427-4.547 87.18073c0 1.3765-.364 2.7287-1.054 3.9197-.691 1.191-1.684 2.1787-2.878 2.8631l-112.9484 64.8202-5.4746 3.138c-.7404.424-1.5793.646-2.4327.644s-1.6912-.228-2.4297-.656c-.7384-.427-1.3516-1.041-1.778-1.78s-.6511-1.577-.6517-2.43v-86.9351c.0007-1.7239.4567-3.4172 1.3218-4.9085.8652-1.4914 2.1088-2.728 3.6053-3.5849l7.8396-4.4984 109.4914-62.824761c3.777-2.165559 11.936 1.264941 11.936 5.051931z" fill="url(#e)"/><path d="m59.3539 63.4971 5.0053 2.8754-5.0053 98.1355-2.5636 6.651c-3.2425 1.859-10.8412-1.601-10.2015-7.736v-86.9357c.0008-1.7235.4567-3.4163 1.3215-4.9074.8649-1.491 2.1081-2.7274 3.604-3.5844z" fill="url(#g)"/><path d="m181.244 7.8226v87.9578c0 1.3766-.364 2.7287-1.054 3.9197-.691 1.1909-1.684 2.1789-2.878 2.8629l-112.9438 64.82-5.4745 3.138c-3.2425 1.858-7.2921-.481-7.2921-4.221v-86.9357c.0003-1.723.4555-3.4155 1.3195-4.9065s2.1062-2.7277 3.6013-3.5853l7.8443-4.5031 109.4833-62.82163c3.293-1.89038 7.394.48783 7.394 4.27483z" fill="url(#h)"/><path d="m64.3682 66.3726v101.0074l-5.4745 3.138c-3.2425 1.858-7.2921-.481-7.2921-4.222v-86.9348c.0003-1.723.4555-3.4155 1.3195-4.9065s2.1062-2.7277 3.6013-3.5853z" fill="url(#j)"/><path d="m67.7314 99.3249 79.8176-45.8036v-30.2303l-79.8176 45.8021z" fill="#fdfdfd"/><path d="m149.529 52.4174 27.487-15.7734v-30.23189l-27.487 15.77339z" fill="#fdfdfd"/><path d="m149.529 115.349 27.487-15.7738v-60.9609l-27.487 15.7734z" fill="#fdfdfd"/><path d="m93.2351 86.6602-25.5037 14.6348v60.961l25.5037-14.635z" fill="#fdfdfd"/><path d="m95.0996 146.552 26.2824-15.083v-60.9622l-26.2824 15.0824z" fill="#fdfdfd"/><path d="m123.246 69.4373v60.9607l24.302-13.945v-60.9613z" fill="#fdfdfd"/><path d="m99.2556 67.2933c0 2.4533-.7336 5.1239-1.974 7.6272-1.7737 3.5962-4.583 6.8313-7.7441 8.5903-3.4709 1.9295-6.5163 1.5995-8.2338-.4894-.9385-1.1399-1.4844-2.8066-1.4844-4.9175 0-5.9697 4.3515-13.231 9.7182-16.2159 5.3666-2.9849 9.7181-.566 9.7181 5.4053z" fill="url(#k)"/><path d="m87.4284 74.8473-.4489 2.0608s.926.7052 2.3666-.1407 2.7247-2.5611 2.7247-2.5611l-.8665-1.7043z" fill="url(#l)"/><path d="m85.9119 70.7912c-.8869.7818-.4911 1.7528-.2393 1.9576.2518.2049.9854.4488.9854.4488s.0469 1.1602.4943 1.5933c.4473.4331 1.4375.9882 1.8332.8459s2.7998-2.8035 3.0908-3.3867c.2909-.5833.6053-3.3039.6053-3.3039.4857-.4729.7906-1.1007.8619-1.7747.0985-1.0945.111-1.3071-.194-1.2086s-.9995-.9819-.9995-.9819l-4.0215 2.275-1.0698.2908-.5068 3.3226z" fill="#f4caab"/><path d="m87.9274 68.2927c-.8838.9537-.9385 2.7862-.9385 2.7862l-.2628 1.6371-.5928-1.906s-.3926-1.845-.2206-2.741c.14-.5897.4379-1.1302.8619-1.5635 0 0 .0125-1.2149 1.2826-2.2563 1.2701-1.0413 3.3489-1.9623 4.4766-1.967 1.1278-.0047 1.0856 1.648 1.0746 2.5158-.0109.8678-.0798.9867-.0798.9867s-.951.555-1.0026 1.3806.0235 1.5073-.1173 1.6199-.1204-.7443-.1204-.7443-3.4772-.702-4.3609.2518z" fill="url(#n)"/><path d="m97.2816 74.9205c-1.7738 3.5962-4.583 6.8313-7.7442 8.5903-3.4708 1.9295-6.5162 1.5996-8.2337-.4894l5.7358-6.3747s1.3686.5879 2.5746-.2267 1.8347-2.1656 2.3728-2.5018c.4098-.2642 3.7712.5942 5.2947 1.0023z" fill="url(#o)"/><path d="m86.9833 75.8809 1.6924.4784-1.1778 2.2125-1.367-1.5151z" fill="url(#q)"/><path d="m89.8281 75.5771.6304 1.2431 2.0788-2.974-.9026-.5034z" fill="url(#r)"/><path d="m128.13 42.5937-17.414 10.179c-.261.1563-.469.0625-.469-.1986.015-.1524.065-.2993.147-.429.081-.1297.192-.2387.322-.3184l17.414-10.1774c.261-.1563.469-.0625.469.1971-.015.1524-.065.2992-.146.4289-.082.1297-.192.2387-.323.3184z" fill="url(#t)"/><g fill="#efefef"><path d="m134.797 41.1739-24.081 14.0597c-.261.1564-.469.0625-.469-.1986.015-.1524.065-.2992.147-.4289.081-.1297.192-.2387.322-.3185l24.081-14.0597c.259-.1564.469-.0625.469.1986-.015.1523-.066.2991-.147.4287-.081.1297-.192.2388-.322.3187z"/><path d="m134.797 43.6348-24.081 14.0597c-.261.1564-.469.0626-.469-.1985.015-.1524.065-.2993.147-.429.081-.1297.192-.2387.322-.3184l24.081-14.0598c.259-.1563.469-.0625.469.1986-.015.1523-.066.2991-.147.4288-.081.1296-.192.2387-.322.3186z"/><path d="m134.797 46.096-24.081 14.0598c-.261.1563-.469.0625-.469-.197.015-.1527.065-.2999.146-.4299.082-.13.192-.2392.323-.3191l24.081-14.0582c.259-.1563.469-.0641.469.197-.015.1524-.066.2991-.147.4288s-.192.2387-.322.3186z"/><path d="m134.797 48.5571-24.081 14.0598c-.261.1563-.469.0625-.469-.197.015-.1527.065-.2999.146-.4299.082-.13.192-.2392.323-.3191l24.081-14.0582c.259-.1563.469-.0625.469.197-.015.1524-.066.2991-.147.4288s-.192.2387-.322.3186z"/><path d="m129.186 55.2979-18.567 10.8481c-.206.1204-.377.0501-.377-.1563v-.1924c.012-.1218.052-.2392.118-.3427.065-.1035.154-.1901.259-.253l18.567-10.8481c.208-.122.377-.0501.377.1563v.1955c-.013.1213-.053.2381-.118.341-.066.1029-.155.189-.259.2516z"/><path d="m129.186 57.7683-18.567 10.8528c-.206.1204-.377.0501-.377-.1563v-.1924c.012-.1218.052-.2392.118-.3427.065-.1035.154-.1901.259-.253l18.567-10.8481c.208-.122.377-.0501.377.1563v.1924c-.013.121-.053.2375-.119.3401-.065.1026-.154.1885-.258.2509z"/><path d="m118.083 104.74-19.685 11.598c-.2597.157-.4693.063-.4693-.197.015-.152.0651-.299.1465-.429.0815-.13.1919-.24.3228-.32l19.685-11.597c.26-.156.469-.062.469.197-.015.153-.065.299-.147.429-.081.13-.191.239-.322.319z"/><path d="m118.083 107.196-19.685 11.599c-.2597.156-.4693.062-.4693-.197.0149-.152.0651-.299.1465-.429.0815-.13.192-.239.3228-.318l19.685-11.599c.26-.156.469-.063.469.197-.015.152-.065.299-.147.429-.081.129-.191.238-.322.318z"/><path d="m118.083 109.657-19.685 11.599c-.2597.156-.4693.062-.4693-.197.0149-.153.0651-.299.1465-.429.0815-.13.192-.239.3228-.319l19.685-11.598c.26-.157.469-.063.469.197-.015.152-.065.299-.147.429-.081.129-.191.238-.322.318z"/><path d="m118.083 112.118-19.685 11.599c-.2597.156-.4693.062-.4693-.197.0149-.153.0651-.299.1465-.429.0815-.13.192-.239.3228-.319l19.685-11.598c.26-.157.469-.063.469.197-.015.152-.065.299-.146.429-.082.129-.192.238-.323.318z"/><path d="m118.083 114.773-19.685 11.597c-.2597.156-.4693.063-.4693-.197.0152-.152.0654-.299.1469-.429.0814-.129.1917-.238.3224-.318l19.685-11.599c.26-.156.469-.062.469.197-.015.153-.065.3-.146.43-.082.13-.192.239-.323.319z"/><path d="m118.083 117.234-19.685 11.598c-.2597.156-.4693.062-.4693-.197.0152-.153.0654-.3.1469-.429.0814-.13.1917-.239.3224-.319l19.685-11.599c.26-.156.469-.062.469.198-.015.152-.065.299-.146.429-.082.13-.192.239-.323.319z"/><path d="m118.083 119.695-19.685 11.597c-.2597.157-.4693.063-.4693-.196.0152-.153.0654-.3.1469-.429.0814-.13.1917-.239.3224-.319l19.685-11.599c.26-.156.469-.062.469.197-.015.153-.065.3-.146.43-.082.13-.192.239-.323.319z"/><path d="m110.046 126.897-11.648 6.857c-.2597.156-.4693.064-.4693-.197.0152-.153.0654-.3.1469-.429.0814-.13.1917-.239.3224-.319l11.648-6.856c.26-.156.47-.064.47.197-.016.152-.066.299-.147.429-.082.129-.192.238-.323.318z"/><path d="m90.4807 92.7676-12.0534 6.9939c-.2613.1563-.4693.0625-.4693-.1986.0149-.1524.0651-.2992.1465-.429.0815-.1297.192-.2387.3228-.3184l12.0534-6.9923c.2612-.1564.4692-.0626.4692.197-.0149.1524-.0651.2992-.1465.4289-.0815.1297-.1919.2388-.3227.3185z"/><path d="m90.4807 95.2285-12.0534 6.9935c-.2613.157-.4693.063-.4693-.198.0149-.153.0651-.299.1465-.429.0815-.13.192-.239.3228-.319l12.0534-6.9919c.2612-.1564.4692-.0625.4692.197-.0148.1525-.0649.2993-.1464.4291-.0814.1297-.1919.2387-.3228.3183z"/><path d="m90.4807 97.6895-12.0534 6.9935c-.2613.157-.4693.063-.4693-.197.0147-.152.0648-.299.1462-.429.0815-.13.1921-.24.3231-.32l12.0534-6.992c.2612-.1563.4692-.0625.4692.1971-.0148.1524-.0649.2993-.1464.429-.0814.1297-.1919.2387-.3228.3184z"/><path d="m90.4807 100.15-12.0534 6.994c-.2613.157-.4693.063-.4693-.197.0147-.152.0648-.3.1462-.43.0815-.13.1921-.239.3231-.319l12.0534-6.992c.2612-.1564.4692-.0626.4692.197-.0148.1524-.0649.2993-.1464.429-.0814.1298-.1919.239-.3228.318z"/><path d="m90.4804 102.806-19.6928 11.597c-.2596.156-.4692.062-.4692-.197.0151-.152.0654-.299.1468-.429s.1918-.239.3224-.319l19.6928-11.598c.2612-.157.4692-.063.4692.197-.0147.152-.0647.3-.1462.43-.0814.13-.192.239-.323.319z"/><path d="m90.4804 105.267-19.6928 11.597c-.2596.156-.4692.062-.4692-.197.0151-.153.0654-.299.1468-.429s.1918-.239.3224-.319l19.6928-11.598c.2612-.157.4692-.063.4692.198-.0149.153-.0651.3-.1465.429-.0814.13-.1919.239-.3227.319z"/><path d="m90.4804 107.728-19.6928 11.598c-.2596.157-.4692.063-.4692-.198.0151-.153.0654-.299.1468-.429s.1918-.239.3224-.319l19.6928-11.598c.2612-.157.4692-.063.4692.198-.0149.153-.0651.299-.1465.429s-.1919.239-.3227.319z"/><path d="m90.4804 110.189-19.6928 11.594c-.2596.156-.4692.063-.4692-.199.0151-.152.0654-.299.1468-.428.0814-.13.1918-.239.3224-.319l19.6928-11.594c.2612-.156.4692-.063.4692.199-.0149.152-.0651.299-.1465.429-.0814.129-.1919.238-.3227.318z"/><path d="m90.4804 112.842-19.6928 11.599c-.2596.156-.4692.062-.4692-.197.0149-.153.0651-.3.1465-.43s.1919-.239.3227-.319l19.6928-11.597c.2612-.156.4692-.063.4692.197-.0149.152-.0651.299-.1465.429s-.1919.239-.3227.318z"/><path d="m90.4804 115.303-19.6928 11.599c-.2596.156-.4692.062-.4692-.197.0149-.153.0651-.3.1465-.43s.1919-.239.3227-.319l19.6928-11.597c.2612-.157.4692-.063.4692.197-.0149.152-.0651.299-.1465.429-.0814.129-.1919.239-.3227.318z"/><path d="m90.4804 117.764-19.6928 11.599c-.2596.156-.4692.062-.4692-.197.015-.153.0652-.3.1466-.43s.1919-.239.3226-.319l19.6928-11.597c.2612-.157.4692-.063.4692.197-.0149.152-.0651.299-.1465.429-.0814.129-.1919.238-.3227.318z"/><path d="m82.4359 124.966-11.6483 6.858c-.2596.157-.4692.063-.4692-.197.0149-.152.0651-.299.1465-.429.0814-.129.1919-.238.3227-.318l11.6483-6.858c.2597-.156.4693-.063.4693.197-.015.152-.0651.299-.1466.429-.0814.13-.1919.239-.3227.318z"/><path d="m90.4804 124.804-19.6928 11.598c-.2596.157-.4692.063-.4692-.198.0151-.153.0654-.299.1468-.429s.1918-.239.3224-.319l19.6928-11.598c.2612-.157.4692-.063.4692.198-.0149.153-.0651.3-.1465.429-.0814.13-.1919.239-.3227.319z"/><path d="m90.4804 127.265-19.6928 11.598c-.2596.157-.4692.063-.4692-.198.0151-.153.0654-.299.1468-.429s.1918-.239.3224-.319l19.6928-11.6c.2612-.156.4692-.064.4692.197-.0144.153-.0644.301-.1458.431-.0815.13-.1922.24-.3234.32z"/><path d="m90.4804 129.726-19.6928 11.601c-.2596.157-.4692.063-.4692-.197.0149-.152.0651-.299.1465-.429s.1919-.24.3227-.32l19.6928-11.6c.2612-.156.4692-.062.4692.197-.0149.153-.0651.299-.1465.429s-.1919.239-.3227.319z"/><path d="m90.4804 132.187-19.6928 11.599c-.2596.156-.4692.062-.4692-.197.0149-.153.0651-.3.1465-.43s.1919-.239.3227-.319l19.6928-11.597c.2612-.157.4692-.063.4692.197-.0149.152-.0651.299-.1465.429-.0814.129-.1919.238-.3227.318z"/><path d="m90.4804 134.84-19.6928 11.599c-.2596.156-.4692.063-.4692-.197.0149-.152.0651-.299.1465-.429s.1919-.239.3227-.318l19.6928-11.599c.2612-.156.4692-.063.4692.197-.0149.152-.0651.299-.1465.429s-.1919.239-.3227.318z"/><path d="m90.4804 137.301-19.6928 11.599c-.2596.156-.4692.062-.4692-.197.0149-.152.0651-.299.1465-.429s.1919-.239.3227-.318l19.6928-11.599c.2612-.156.4692-.063.4692.197-.0149.152-.0651.299-.1465.429s-.1919.239-.3227.318z"/><path d="m90.4804 139.764-19.6928 11.597c-.2596.156-.4692.062-.4692-.197.0149-.153.0651-.299.1465-.429s.1919-.239.3227-.319l19.6928-11.59c.2612-.157.4692-.063.4692.197-.0157.151-.0663.297-.1477.425-.0814.129-.1914.237-.3215.316z"/><path d="m82.4359 146.966-11.6483 6.856c-.2596.157-.4692.063-.4692-.197.0151-.152.0654-.299.1468-.428.0814-.13.1918-.239.3224-.319l11.6483-6.86c.2597-.156.4693-.062.4693.197-.0147.153-.0648.301-.1462.431-.0815.13-.1921.24-.3231.32z"/><path d="m72.4508 107.055-.7242 2.602-.9385.522 2.3728-8.31 1.0949-.608 2.3838 5.651-.9651.539-.7476-1.773zm2.2899-1.984-.6835-1.628c-.1407-.35-.2619-.708-.3629-1.072l-.0203.012c-.1033.469-.2175.96-.352 1.461l-.6851 2.403z"/><path d="m98.8741 103.612-1.9317 1.123v-4.109l1.9317-1.1211z"/><path d="m102.259 101.649-1.932 1.121v-7.6977l1.932-1.1211z"/><path d="m105.644 99.6833-1.932 1.1207v-10.4646l1.932-1.1211z"/><path d="m109.028 97.7175-1.931 1.1211v-6.5295l1.931-1.1211z"/><path d="m112.413 95.7537-1.932 1.1211v-8.2166l1.932-1.1211z"/><path d="m115.798 93.7883-1.932 1.1211v-10.4651l1.932-1.1211z"/><path d="m119.181 91.8232-1.93 1.1211v-13.059l1.93-1.1211z"/></g><path d="m98.8741 107.118-1.9317 1.121v-4.108l1.9317-1.121z" fill="url(#u)"/><path d="m102.259 105.153-1.932 1.121v-7.6963l1.932-1.1226z" fill="url(#v)"/><path d="m105.644 103.189-1.932 1.121v-10.4653l1.932-1.1211z" fill="url(#w)"/><path d="m109.028 101.223-1.931 1.121v-6.5291l1.931-1.1211z" fill="url(#x)"/><path d="m112.413 99.258-1.932 1.121v-8.2149l1.932-1.1211z" fill="url(#y)"/><path d="m115.798 97.2942-1.932 1.121v-10.465l1.932-1.1211z" fill="url(#z)"/><path d="m119.181 95.3286-1.93 1.1211v-13.0591l1.93-1.1211z" fill="url(#A)"/><path d="m154.085 105.126-1.932 1.121v-4.109l1.932-1.121z" fill="#efefef"/><path d="m157.47 103.16-1.932 1.122v-7.698l1.932-1.1211z" fill="#efefef"/><path d="m160.853 101.195-1.93 1.121v-10.4635l1.93-1.1211z" fill="#efefef"/><path d="m164.238 99.2312-1.931 1.1208v-6.5293l1.931-1.121z" fill="#efefef"/><path d="m167.623 97.2659-1.932 1.1211v-8.2166l1.932-1.1211z" fill="#efefef"/><path d="m171.008 95.3004-1.932 1.1211v-10.4635l1.932-1.1211z" fill="#efefef"/><path d="m174.393 93.3365-1.932 1.1211v-13.0591l1.932-1.1226z" fill="#efefef"/><path d="m154.085 108.63-1.932 1.121v-4.107l1.932-1.122z" fill="url(#B)"/><path d="m157.47 106.665-1.932 1.122v-7.697l1.932-1.1212z" fill="url(#C)"/><path d="m160.853 104.7-1.93 1.121v-10.4646l1.93-1.121z" fill="url(#D)"/><path d="m164.238 102.735-1.931 1.121v-6.5293l1.931-1.1211z" fill="url(#E)"/><path d="m167.623 100.771-1.932 1.121v-8.2162l1.932-1.1211z" fill="url(#F)"/><path d="m171.008 98.8059-1.932 1.1211v-10.4651l1.932-1.1211z" fill="url(#G)"/><path d="m174.393 96.8403-1.932 1.1211v-13.0591l1.932-1.1211z" fill="url(#H)"/><path d="m133.606 79.4818-.366.4144-.054-.1986.459-.5191.244-.136v2.2265l-.276.1564z" fill="#8e7b7b"/><path d="m136.052 78.9142c0 .7568-.266 1.3244-.734 1.5871-.411.2329-.69-.0188-.696-.7521s.313-1.3291.732-1.5636.698.0188.698.7286zm-1.145.6786c0 .5786.169.8131.428.6677.291-.1658.432-.6036.432-1.1727 0-.5692-.133-.8334-.428-.6677-.251.1408-.437.5661-.437 1.1727z" fill="#8e7b7b"/><path d="m137.718 77.9772c0 .7584-.266 1.3259-.734 1.5886-.411.2314-.69-.0203-.696-.7536-.006-.7334.304-1.3291.732-1.5636.429-.2346.698.0188.698.7286zm-1.145.6786c0 .5785.169.8131.428.6677.291-.1642.432-.6036.432-1.1712 0-.5675-.133-.8334-.428-.6676-.252.1407-.434.5644-.434 1.1711z" fill="#8e7b7b"/><path d="m135.858 70.5725c.125-.0688.247-.1329.374-.197v-1.7637c-.122.0594-.249.1282-.374.197-4.929 2.7457-8.916 9.652-8.916 15.4295 0 5.7774 3.994 8.2338 8.916 5.4881.125-.0688.247-.1422.374-.2157v-1.7684c-.122.0734-.249.1563-.374.2204-4.096 2.2828-7.416.2408-7.416-4.5641s3.318-10.5385 7.416-12.8261z" fill="#dbdddc"/><path d="m144.773 74.3013c0 5.6289-3.792 12.3351-8.541 15.209v-1.7684c3.911-2.4142 7.039-7.9477 7.039-12.6041 0-4.6563-3.117-6.7234-7.039-4.7626v-1.7637c4.749-2.4142 8.541.0578 8.541 5.6898z" fill="url(#J)"/><path d="m135.857 73.0427.267-.1408v-1.2618c-.086.0423-.177.0907-.267.1408-3.528 1.9654-6.385 6.9094-6.385 11.0467 0 4.1372 2.857 5.8931 6.385 3.9277.09-.05.178-.1016.269-.1564v-1.2649c-.088.0516-.179.1079-.269.1564-2.933 1.6355-5.308.1735-5.308-3.2664s2.375-7.5427 5.308-9.1813z" fill="url(#K)"/><path d="m142.24 75.7136c0 4.0278-2.716 8.8311-6.114 10.8872v-1.2649c2.804-1.7293 5.036-5.6899 5.036-9.025s-2.232-4.808-5.038-3.4086v-1.2618c3.401-1.7294 6.116.0406 6.116 4.0731z" fill="#dbdddc"/><path d="m145.24 93.1006-19.685 11.5984c-.259.157-.469.063-.469-.197.015-.152.065-.299.146-.429.082-.129.192-.238.323-.318l19.685-11.5988c.26-.1564.469-.0626.469.197-.015.1523-.065.2991-.146.4288-.082.1296-.192.2387-.323.3186z" fill="#efefef"/><path d="m145.24 95.5615-19.685 11.5985c-.259.157-.469.063-.469-.197.015-.152.065-.299.146-.429.082-.13.192-.239.323-.318l19.685-11.5989c.26-.1563.469-.0625.469.197-.015.1524-.065.2993-.146.429-.082.1297-.192.2387-.323.3184z" fill="#efefef"/><path d="m145.24 98.0162-19.685 11.5988c-.259.156-.469.062-.469-.197.015-.152.065-.299.147-.429.081-.13.192-.239.322-.319l19.685-11.5919c.26-.1564.469-.0626.469.197-.015.1513-.066.2969-.147.4254-.082.1286-.192.2366-.322.3157z" fill="#efefef"/><path d="m145.24 100.483-19.685 11.605c-.259.157-.469.063-.469-.197.015-.152.065-.299.147-.428.081-.13.192-.239.322-.319l19.685-11.5987c.26-.1563.469-.0625.469.197-.015.1514-.066.2967-.147.4257-.082.128-.192.236-.322.315z" fill="#efefef"/><path d="m136.486 98.207-10.931 6.492c-.259.156-.469.063-.469-.197.015-.152.065-.299.146-.429.082-.13.192-.239.323-.318l10.931-6.4924c.259-.1563.469-.0625.469.197-.015.1524-.065.2993-.147.429-.081.1297-.192.2387-.322.3184z" fill="#dbdddc"/><path d="m135.76 101.111-10.205 6.049c-.259.157-.469.063-.469-.197.015-.152.065-.299.146-.429.082-.129.192-.239.323-.318l10.205-6.05c.259-.156.469-.064.469.197-.015.153-.065.299-.147.429-.081.13-.192.239-.322.319z" fill="#dbdddc"/><path d="m141.098 100.484-15.543 9.137c-.259.157-.469.063-.469-.197.015-.152.065-.299.147-.428.081-.13.192-.239.322-.319l15.543-9.1375c.261-.1564.469-.0626.469.197-.014.1524-.064.2995-.146.4295-.081.129-.192.238-.323.318z" fill="#dbdddc"/><path d="m134.925 106.582-9.37 5.507c-.259.156-.469.062-.469-.197.015-.153.065-.3.147-.429.081-.13.192-.239.322-.319l9.37-5.501c.261-.156.469-.062.469.197-.016.152-.067.297-.148.426s-.191.237-.321.316z" fill="#dbdddc"/><path d="m145.24 105.459-19.685 11.598c-.259.157-.469.063-.469-.198.015-.152.065-.299.147-.429.081-.13.192-.239.322-.318l19.685-11.598c.26-.156.469-.064.469.197-.015.153-.065.3-.146.429-.082.13-.192.239-.323.319z" fill="#efefef"/><path d="m145.24 107.92-19.685 11.599c-.259.156-.469.062-.469-.197.015-.153.065-.3.146-.43.082-.13.192-.239.323-.319l19.685-11.597c.26-.157.469-.063.469.197-.015.152-.065.299-.146.428-.082.13-.192.239-.323.319z" fill="#efefef"/><path d="m145.24 110.381-19.685 11.599c-.259.156-.469.062-.469-.197.015-.153.065-.3.146-.43.082-.13.192-.239.323-.319l19.685-11.603c.26-.157.469-.063.469.197-.014.153-.064.301-.145.432-.082.131-.192.241-.324.321z" fill="#efefef"/><path d="m145.24 112.842-19.685 11.599c-.259.156-.469.062-.469-.197.015-.153.065-.3.146-.43.082-.13.192-.239.323-.319l19.685-11.597c.26-.156.469-.063.469.197-.015.152-.065.299-.146.429-.082.129-.192.238-.323.318z" fill="#efefef"/><path d="m136.486 110.565-10.931 6.492c-.259.157-.469.063-.469-.198.015-.152.065-.299.147-.429.081-.13.192-.239.322-.319l10.931-6.49c.259-.156.469-.063.469.197-.015.152-.066.299-.147.429-.081.129-.192.239-.322.318z" fill="#dbdddc"/><path d="m135.76 113.469-10.205 6.05c-.259.156-.469.062-.469-.197.015-.153.065-.3.146-.43.082-.13.192-.239.323-.319l10.205-6.05c.259-.156.469-.062.469.197-.015.153-.065.3-.147.43-.081.13-.191.239-.322.319z" fill="#dbdddc"/><path d="m141.098 112.842-15.543 9.138c-.259.156-.469.062-.469-.197.015-.153.065-.3.146-.43.082-.13.192-.239.323-.319l15.543-9.136c.261-.156.469-.063.469.197-.014.152-.065.299-.146.429s-.192.239-.323.318z" fill="#dbdddc"/><path d="m134.925 118.94-9.37 5.501c-.259.156-.469.062-.469-.197.015-.153.065-.3.146-.43.082-.13.192-.239.323-.319l9.37-5.501c.261-.156.469-.062.469.197-.015.153-.065.3-.146.43-.082.13-.192.239-.323.319z" fill="#dbdddc"/><path d="m172.15 49.5077-19.685 11.5986c-.259.1564-.469.0626-.469-.1986.015-.1523.066-.299.147-.4287s.192-.2387.322-.3186l19.685-11.5971c.26-.1564.47-.0641.47.197-.016.1523-.066.2991-.147.4287-.082.1297-.192.2388-.323.3187z" fill="#efefef"/><path d="m172.15 51.9687-19.685 11.5987c-.259.1564-.469.0625-.469-.197.015-.1526.065-.2997.147-.4297.081-.1299.192-.2392.322-.3193l19.685-11.5971c.26-.1563.47-.0625.47.197-.016.1524-.066.2991-.147.4288-.082.1297-.192.2387-.323.3186z" fill="#efefef"/><path d="m172.15 54.4297-19.685 11.5986c-.259.1564-.469.0626-.469-.197.015-.1526.065-.2997.147-.4296.081-.13.192-.2393.322-.3193l19.685-11.5971c.26-.1564.47-.0626.47.197-.016.1523-.066.2991-.147.4288-.082.1296-.192.2387-.323.3186z" fill="#efefef"/><path d="m172.15 56.894-19.685 11.5987c-.259.1564-.469.0625-.469-.197.015-.1526.065-.2997.147-.4297.081-.1299.192-.2392.322-.3193l19.685-11.5971c.26-.1563.47-.0625.47.197-.016.1524-.066.2991-.147.4288-.082.1297-.192.2387-.323.3186z" fill="#efefef"/><path d="m163.396 54.6142-10.931 6.492c-.259.1564-.469.0626-.469-.1985.015-.1524.066-.2991.147-.4288s.192-.2387.322-.3186l10.931-6.4905c.259-.1563.469-.0625.469.1971-.015.1523-.065.2991-.147.4287-.081.1297-.192.2388-.322.3186z" fill="#dbdddc"/><path d="m162.67 57.5196-10.205 6.0495c-.259.1564-.469.0626-.469-.197.015-.1526.065-.2997.147-.4296.081-.13.192-.2393.322-.3193l10.205-6.0495c.26-.1564.469-.0626.469.197-.015.1526-.065.2996-.147.4295-.081.1299-.191.2393-.322.3194z" fill="#dbdddc"/><path d="m168.008 56.894-15.543 9.1376c-.259.1564-.469.0626-.469-.197.015-.1526.065-.2997.147-.4296.081-.13.192-.2393.322-.3194l15.543-9.136c.262-.1563.47-.0625.47.197-.015.1525-.065.2994-.147.4291-.081.1297-.192.2387-.323.3183z" fill="#dbdddc"/><path d="m161.835 62.9923-9.37 5.5007c-.259.1563-.469.0625-.469-.1971.015-.1526.065-.2996.147-.4296.081-.13.192-.2392.322-.3193l9.37-5.5007c.259-.1563.469-.0625.469.197-.015.1526-.065.2997-.147.4297-.081.1299-.192.2392-.322.3193z" fill="#dbdddc"/><path d="m172.15 59.9885-19.685 11.6033c-.259.1564-.469.0626-.469-.197.015-.1523.066-.2991.147-.4288.081-.1296.192-.2387.322-.3186l19.685-11.5986c.26-.1564.47-.0626.47.197-.016.1515-.067.2975-.148.4263s-.192.2371-.322.3164z" fill="#efefef"/><path d="m172.15 62.4497-19.685 11.5987c-.259.1563-.469.0625-.469-.197.015-.1524.066-.2991.147-.4288s.192-.2387.322-.3186l19.685-11.5987c.26-.1564.47-.0625.47.197-.015.1524-.066.2993-.147.429s-.192.2387-.323.3184z" fill="#efefef"/><path d="m172.15 64.9122-19.685 11.5971c-.259.1564-.469.0625-.469-.197.015-.1524.066-.2991.147-.4288.081-.1296.192-.2387.322-.3186l19.685-11.5987c.26-.1563.47-.0625.47.197-.015.1527-.066.2997-.147.4297-.081.1299-.192.2393-.323.3193z" fill="#efefef"/><path d="m172.15 67.3702-19.685 11.5971c-.259.1564-.469.0625-.469-.197.015-.1524.066-.2991.147-.4288.081-.1296.192-.2387.322-.3186l19.685-11.5908c.26-.1564.47-.0626.47.197-.017.1512-.067.2967-.149.4252-.081.1286-.191.2366-.321.3159z" fill="#efefef"/><path d="m163.396 65.0949-10.931 6.4967c-.259.1564-.469.0625-.469-.197.015-.1524.066-.2991.147-.4288.081-.1296.192-.2387.322-.3186l10.931-6.492c.259-.1564.469-.0625.469.197-.016.1516-.066.2975-.148.4264-.081.1288-.191.2371-.321.3163z" fill="#dbdddc"/><path d="m162.67 67.9957-10.205 6.0495c-.259.1564-.469.0625-.469-.197.015-.1524.066-.2991.147-.4288s.192-.2387.322-.3186l10.205-6.0433c.26-.1563.469-.0625.469.1971-.016.1512-.067.2967-.148.4252s-.191.2366-.321.3159z" fill="#dbdddc"/><path d="m168.008 67.3702-15.543 9.136c-.259.1564-.469.0626-.469-.197.015-.1523.066-.2991.147-.4288.081-.1296.192-.2387.322-.3186l15.543-9.1297c.262-.1564.47-.0626.47.197-.016.1513-.067.297-.148.4255-.081.1286-.192.2366-.322.3156z" fill="#dbdddc"/><path d="m161.835 73.4683-9.37 5.5006c-.259.1564-.469.0626-.469-.197.015-.1523.066-.2991.147-.4287.081-.1297.192-.2388.322-.3187l9.37-5.5006c.259-.1564.469-.0626.469.197-.015.1523-.066.2991-.147.4287-.081.1297-.192.2388-.322.3187z" fill="#dbdddc"/><path d="m152.315 23.6415-.132.1486-.02-.0673.166-.1845.087-.05v.7568l-.098.0578z" fill="#8e7b7b"/><path d="m153.194 23.4067c.009.107-.01.2147-.057.3118-.046.097-.117.1799-.206.2401-.157.086-.249 0-.252-.2439-.007-.106.014-.212.06-.3076.047-.0956.117-.1777.204-.2381.16-.0923.251-.0031.251.2377zm-.412.2501c0 .197.061.2737.157.2189.058-.0487.103-.1115.13-.1823s.036-.1474.026-.2226c0-.1861-.048-.2815-.156-.2205-.057.0501-.101.1132-.129.184-.027.0708-.037.1472-.028.2225z" fill="#8e7b7b"/><path d="m153.793 23.0615c.01.1072-.01.215-.056.3121-.047.097-.119.1799-.208.2399-.147.086-.247 0-.25-.244-.007-.1062.013-.2125.06-.3084.046-.096.116-.1782.204-.2388.16-.0923.25-.0031.25.2392zm-.411.2486c0 .197.059.2736.156.2205.058-.049.103-.1117.13-.1825.028-.0708.037-.1473.027-.2225 0-.1876-.047-.2814-.157-.2204-.057.0493-.102.1121-.129.1827-.027.0707-.037.1471-.027.2222z" fill="#8e7b7b"/><path d="m152.749 26.5763c.029-.0155.057-.0327.083-.0516.069-.0499.128-.1131.172-.1859.045-.0727.074-.1536.086-.2379-.041.0765-.103.1403-.178.1845-.136.0798-.224.0266-.224-.1016.007-.0856.033-.1685.079-.2415.045-.073.107-.1339.181-.1775.157-.0907.25-.0204.25.1735-.001.1535-.046.3034-.131.4316-.08.1199-.187.219-.313.2892zm.038-.4566c0 .0938.058.1266.145.0751.067-.0354.122-.0898.157-.1564.002-.0145.002-.0293 0-.0438 0-.1282-.047-.2001-.157-.1376-.043.0288-.079.0677-.105.1135-.025.0457-.039.0969-.04.1492z" fill="#8e7b7b"/><path d="m153.348 26.2304c.022-.0109.047-.0281.083-.0516.069-.0504.127-.1139.172-.1869.044-.073.073-.154.086-.2383-.041.0746-.101.1372-.173.1813-.136.0782-.224.0266-.224-.1032.006-.0854.033-.1682.078-.2411.045-.073.106-.134.18-.1779.156-.0891.252-.0188.252.1751-.002.153-.047.3023-.131.43-.059.09-.133.1681-.221.2298-.03.0217-.061.0415-.094.0595zm.038-.4581c0 .0938.056.1282.145.0766.069-.0372.124-.0952.157-.1657.006-.0132.009-.0276.009-.0422 0-.1298-.047-.2017-.156-.1392-.048.029-.087.0697-.114.1181-.027.0485-.041.1031-.041.1587z" fill="#8e7b7b"/><path d="m152.75 29.175c.029-.0155.056-.0327.083-.0516.062-.0455.115-.1016.156-.1658.054-.0775.088-.1664.1-.2595-.041.0768-.102.1407-.178.1845-.136.0797-.223.0281-.223-.1017.006-.0856.032-.1685.078-.2415.045-.073.107-.1339.181-.1775.157-.0891.25-.0188.25.1751-.001.153-.047.3023-.131.43-.058.0896-.132.1676-.219.2299-.03.022-.062.0419-.095.0594zm.038-.4582c0 .0939.057.1283.145.0767.068-.0384.122-.0961.156-.1658.003-.0139.003-.0282 0-.0422 0-.1298-.046-.2017-.156-.1392-.045.0296-.081.0697-.107.1169-.025.0473-.038.1-.038.1536z" fill="#8e7b7b"/><path d="m153.28 28.7495c.012-.1137.068-.2181.157-.2908-.083 0-.119-.036-.119-.1017.008-.0707.034-.1383.075-.1968.04-.0586.095-.1064.158-.1393.147-.086.22-.036.22.0578-.008.0963-.053.1857-.125.2502.096-.0172.157.0156.157.1079-.011.0777-.039.1518-.084.216s-.105.1167-.174.153c-.169.1-.265.0531-.265-.0563zm.409-.2408c0-.0923-.065-.1001-.168-.0688-.037.0278-.069.0629-.092.1032-.024.0404-.038.085-.044.1313 0 .0782.055.1126.156.0563.042-.0221.077-.0542.102-.0932.026-.039.041-.0838.046-.1304zm-.284-.2158c0 .0751.058.0829.146.0563.064-.0506.105-.1241.116-.2048 0-.061-.038-.1017-.129-.0485-.036.0188-.068.0465-.091.0807-.023.0341-.038.0736-.042.1148z" fill="#8e7b7b"/><path d="m152.75 31.7722c.029-.0154.056-.0327.083-.0516.062-.045.115-.1012.156-.1657.054-.0774.088-.1663.1-.2595-.041.0764-.103.1402-.178.1845-.136.0781-.223.0265-.223-.1032.006-.0856.033-.1683.078-.2413.045-.0729.107-.1339.181-.1778.157-.0891.25-.0188.25.1751-.001.1535-.047.3033-.131.4316-.058.0895-.132.167-.219.2283-.031.0219-.063.0423-.095.0609zm.038-.4581c0 .0954.057.1282.145.0766.068-.0379.123-.0958.156-.1657.003-.014.003-.0283 0-.0422 0-.1298-.046-.2002-.156-.1392-.044.0297-.081.0699-.106.1171-.026.0472-.039.0999-.039.1534z" fill="#8e7b7b"/><path d="m153.781 30.4897v.0673l-.33.8818-.105.061.328-.8599-.37.2142v-.0845z" fill="#8e7b7b"/><path d="m152.749 34.369c.03-.0143.058-.0316.083-.0516.069-.0499.128-.1131.172-.1859.045-.0727.074-.1536.086-.2379-.041.0765-.103.1403-.178.1845-.136.0798-.224.0266-.224-.1016.007-.0857.033-.1685.079-.2415.045-.073.107-.1339.181-.1775.157-.0907.25-.0188.25.1735-.001.1535-.046.3034-.131.4316-.058.0895-.132.167-.219.2282-.03.0231-.062.0435-.095.061zm.038-.4566c0 .0938.058.1266.145.0766.068-.0383.123-.0961.157-.1657.003-.0145.003-.0293 0-.0438 0-.1282-.047-.2002-.157-.1376-.044.0292-.08.0689-.106.1155-.025.0466-.039.0988-.039.1519z" fill="#8e7b7b"/><path d="m153.721 33.1947c-.027.0143-.052.0305-.077.0485-.14.1007-.234.2523-.263.4221.042-.0803.106-.1474.183-.1939.135-.0781.229-.0359.229.1126-.005.0842-.031.1658-.075.2378s-.104.1321-.177.175c-.156.0938-.268.0297-.268-.1673.003-.1479.048-.292.129-.4159.063-.0993.146-.1854.242-.2533.024-.0175.048-.0337.074-.0485zm-.028.4534c0-.1079-.063-.1376-.157-.0829-.067.0422-.118.1047-.147.1783-.008.016-.012.0337-.012.0516 0 .1235.059.1829.167.1204.046-.0281.083-.0675.109-.1143s.04-.0995.04-.1531z" fill="#8e7b7b"/><path d="m152.75 36.9679c.029-.0154.056-.0326.083-.0516.062-.045.115-.1012.156-.1657.054-.0774.088-.1663.1-.2595-.04.0774-.102.1419-.178.186-.136.0782-.223.0266-.223-.1032.006-.0856.033-.1684.078-.2414s.107-.1339.181-.1776c.157-.0891.25-.0188.25.1751-.001.153-.046.3024-.131.43-.058.0899-.132.168-.219.2298-.03.0221-.062.042-.095.0595zm.038-.4581c0 .0954.057.1282.145.0766.068-.0379.123-.0958.156-.1657.003-.014.003-.0283 0-.0422 0-.1298-.046-.2017-.156-.1392-.045.0296-.081.0698-.107.117-.025.0472-.038.0999-.038.1535z" fill="#8e7b7b"/><path d="m153.742 35.795-.29.1673-.028.2111c.02-.015.04-.0286.061-.0407.047-.0303.101-.0485.157-.0531.059 0 .109.0359.109.1313-.009.088-.04.1724-.089.2459-.05.0736-.116.134-.194.1763-.056.0375-.121.0591-.188.0625l.025-.0923c.056-.0049.109-.0226.157-.0515.049-.0274.091-.0661.122-.1129s.05-.1003.056-.1561c0-.0969-.066-.1298-.217-.0422-.044.025-.077.05-.105.0688l.048-.3909.363-.2095z" fill="#8e7b7b"/><path d="m152.749 39.565c.029-.0154.057-.0326.083-.0516.069-.0498.128-.113.172-.1858.045-.0728.074-.1536.086-.2379-.041.0765-.103.1403-.178.1845-.136.0798-.224.0266-.224-.1016.007-.0857.033-.1686.079-.2415.045-.073.107-.134.181-.1776.157-.0907.25-.0203.25.1736-.001.1535-.046.3034-.131.4315-.08.1199-.187.2191-.313.2893zm.038-.4565c0 .0938.058.1266.145.0766.068-.0384.123-.0961.157-.1658.002-.0144.002-.0292 0-.0437 0-.1282-.047-.2002-.157-.1376-.044.0295-.081.0697-.106.1169-.026.0472-.039.1-.039.1536z" fill="#8e7b7b"/><path d="m153.606 39.1429v-.2063l-.353.2032v-.0703l.339-.6802.11-.0641v.4691l.106-.061v.0813l-.106.061v.2064zm0-.2876v-.2549c0-.0391 0-.0798 0-.1204-.023.0578-.042.1016-.064.1563l-.184.3659z" fill="#8e7b7b"/><path d="m152.75 42.1622c.029-.0142.057-.031.083-.0501.062-.0454.115-.1015.156-.1657.054-.0775.088-.1664.1-.2596-.041.0769-.102.1408-.178.1845-.136.0798-.223.0282-.223-.1016.006-.0856.032-.1685.078-.2415.045-.073.107-.1339.181-.1775.157-.0891.25-.0188.25.1751-.001.153-.047.3023-.131.43-.058.0896-.132.1675-.219.2298-.03.0221-.062.042-.095.0594zm.038-.4566c0 .0938.057.1282.145.0766.068-.0383.122-.0961.156-.1657.003-.014.003-.0283 0-.0422 0-.1298-.046-.2017-.156-.1392-.045.0295-.081.0697-.107.1169-.025.0472-.038.1-.038.1536z" fill="#8e7b7b"/><path d="m153.313 41.7913c.059-.0013.118-.0185.168-.0501.048-.0223.089-.0568.119-.0998.03-.0431.048-.0934.052-.1456 0-.1048-.095-.0954-.196-.0376l-.056.0329v-.0767l.056-.0343c.044-.0218.082-.0535.112-.0926.029-.0391.049-.0845.057-.1326 0-.061-.037-.0923-.133-.0375-.059.0363-.112.0828-.156.1376l-.027-.0595c.056-.0683.123-.1265.199-.1719.156-.0876.217-.0376.217.0547-.005.0504-.02.0994-.044.1439-.024.0446-.057.0839-.096.1156.094-.0344.169-.0093.169.097-.01.0824-.041.161-.089.2288-.048.0677-.112.1223-.187.1589-.059.0376-.127.0592-.197.0626z" fill="#8e7b7b"/><path d="m152.75 44.7605c.029-.0154.056-.0327.083-.0516.062-.045.115-.1012.156-.1657.054-.0774.088-.1664.1-.2596-.041.0765-.103.1403-.178.1845-.136.0782-.223.0266-.223-.1032.006-.0855.033-.1682.078-.2412.045-.0729.107-.1339.181-.1778.157-.0891.25-.0188.25.1751-.001.1535-.046.3034-.131.4316-.058.0895-.132.167-.219.2283-.031.0219-.063.0422-.095.0609zm.038-.4581c0 .0954.057.1282.145.0766.068-.0379.123-.0958.156-.1657.003-.014.003-.0283 0-.0423 0-.1297-.046-.2001-.156-.1391-.044.0297-.081.0699-.106.1171-.026.0472-.039.0998-.039.1534z" fill="#8e7b7b"/><path d="m153.289 44.5215v-.0641l.08-.1235c.194-.2971.281-.4456.283-.5598 0-.0766-.038-.1266-.156-.0609-.062.0413-.116.0944-.157.1563l-.033-.0532c.056-.0815.129-.1498.215-.2001.156-.0954.231-.0234.231.086 0 .1392-.102.3127-.261.5566l-.06.0923.34-.197v.086z" fill="#8e7b7b"/><path d="m152.749 47.3563c.03-.0143.058-.0316.083-.0516.069-.0499.128-.1131.172-.1859.045-.0727.074-.1536.086-.2379-.041.0765-.103.1403-.178.1845-.136.0798-.224.0266-.224-.1016.007-.0856.033-.1685.079-.2415.045-.073.107-.1339.181-.1775.157-.0907.25-.0188.25.1735-.001.1535-.046.3034-.131.4316-.058.0895-.132.167-.219.2283-.03.023-.062.0434-.095.0609zm.038-.4566c0 .0938.058.1266.145.0766.068-.0383.123-.0961.157-.1657.003-.0145.003-.0293 0-.0438 0-.1282-.047-.2002-.157-.1376-.044.0297-.081.0701-.107.1176-.025.0475-.038.1006-.038.1545z" fill="#8e7b7b"/><path d="m153.516 46.3275-.133.147-.024-.0563.166-.1845.088-.0516v.7584l-.1.0578z" fill="#8e7b7b"/><path d="m155.03 22.0498v24.4685l19.225-11.2015" stroke="#b3b3b3" stroke-miterlimit="10" stroke-width=".93"/><path d="m155.03 43.6566 19.225-11.2015" stroke="#b3b3b3" stroke-miterlimit="10" stroke-width=".93"/><path d="m155.03 40.9657 19.225-11.2015" stroke="#b3b3b3" stroke-miterlimit="10" stroke-width=".93"/><path d="m155.03 38.2748 19.225-11.2016" stroke="#b3b3b3" stroke-miterlimit="10" stroke-width=".93"/><path d="m155.03 35.5823 19.225-11.2" stroke="#b3b3b3" stroke-miterlimit="10" stroke-width=".93"/><path d="m155.03 32.8914 19.225-11.2" stroke="#b3b3b3" stroke-miterlimit="10" stroke-width=".93"/><path d="m155.03 30.2004 19.225-11.1999" stroke="#b3b3b3" stroke-miterlimit="10" stroke-width=".93"/><path d="m155.03 27.5095 19.225-11.1999" stroke="#b3b3b3" stroke-miterlimit="10" stroke-width=".93"/><path d="m155.03 24.8186 19.225-11.1999" stroke="#b3b3b3" stroke-miterlimit="10" stroke-width=".93"/><path d="m157.164 20.8975v24.4685" stroke="#b3b3b3" stroke-miterlimit="10" stroke-width=".93"/><path d="m159.314 19.6509v24.4685" stroke="#b3b3b3" stroke-miterlimit="10" stroke-width=".93"/><path d="m161.467 18.4048v24.4685" stroke="#b3b3b3" stroke-miterlimit="10" stroke-width=".93"/><path d="m163.619 17.1602v24.4685" stroke="#b3b3b3" stroke-miterlimit="10" stroke-width=".93"/><path d="m165.77 15.9141v24.4685" stroke="#b3b3b3" stroke-miterlimit="10" stroke-width=".93"/><path d="m167.922 14.668v24.4685" stroke="#b3b3b3" stroke-miterlimit="10" stroke-width=".93"/><path d="m170.074 13.4233v24.4685" stroke="#b3b3b3" stroke-miterlimit="10" stroke-width=".93"/><path d="m172.225 12.1772v24.4686" stroke="#b3b3b3" stroke-miterlimit="10" stroke-width=".93"/><path d="m154.594 39.6382 1.641-2.8238 1.04-.2565 1.027-1.7872 1.105-1.1336 1.407-2.3266 1.971-2.2672 1.095-2.5283 1.372-1.5761 1.674-4.2951 1.72-2.7128 1.186-.9867s.541.4081.541.6083c0 .2001.208 1.2508.208 1.2508v1.1149l.84-.2502.82 2.0577 1.251-.4066.671.8631" stroke="url(#L)" stroke-miterlimit="10" stroke-width="1.85"/><path d="m60.0792 104.31-4.1857 2.436c-.3692.214-.6679.089-.6679-.279v-4.184c0-.367.2987-.839.6679-1.054l4.1857-2.4309c.3676-.2142.6663-.0892.6663.2783v4.1846c0 .362-.2972.834-.6663 1.049z" fill="#fdfdfd" opacity=".56"/><path d="m60.0792 115.286-4.1857 2.431c-.3692.215-.6679.089-.6679-.278v-4.178c0-.369.2987-.841.6679-1.055l4.1857-2.436c.3676-.215.6663-.091.6663.278v4.184c0 .368-.2972.84-.6663 1.054z" fill="#fdfdfd" opacity=".56"/><path d="m60.0792 126.264-4.1857 2.436c-.3692.214-.6679.091-.6679-.278v-4.184c0-.368.2987-.84.6679-1.054l4.1857-2.438c.3676-.214.6663-.089.6663.279v4.184c0 .369-.2972.841-.6663 1.055z" fill="#fdfdfd" opacity=".56"/><path d="m60.0792 137.24-4.1857 2.438c-.3692.214-.6679.089-.6679-.279v-4.184c0-.369.2987-.841.6679-1.055l4.1857-2.436c.3676-.214.6663-.089.6663.278v4.184c0 .368-.2972.84-.6663 1.054z" fill="#fdfdfd" opacity=".56"/><path d="m60.5625 78.495-6.0283 3.651c-.2205.1345-.4004.0625-.4004-.1564.0137-.1304.0569-.256.1262-.3673.0694-.1113.1632-.2055.2742-.2753l6.0283-3.6572c.2205-.1329.4004-.0626.4004.1563-.0125.1317-.055.2587-.1245.3712-.0694.1125-.1638.2075-.2759.2777z" fill="#fdfdfd" opacity=".56"/><path d="m60.5625 80.5636-6.0283 3.6525c-.2205.1329-.4004.061-.4004-.1563.0134-.1306.0564-.2563.1258-.3677s.1633-.2054.2746-.275l6.0283-3.6509c.2205-.1345.4004-.0626.4004.1563-.0136.1303-.0567.2557-.1261.3668s-.1632.2049-.2743.2743z" fill="#fdfdfd" opacity=".56"/><path d="m60.5625 82.6337-6.0283 3.6557c-.2205.1329-.4004.0625-.4004-.1564.0134-.1305.0564-.2563.1258-.3677.0694-.1113.1633-.2054.2746-.2749l6.0283-3.651c.2205-.1345.4004-.0625.4004.1564-.0144.1296-.0579.2542-.1272.3647s-.1627.2039-.2732.2732z" fill="#fdfdfd" opacity=".56"/><path d="m60.5625 84.7026-6.0283 3.651c-.2205.1329-.4004.0625-.4004-.1564.0134-.1305.0564-.2562.1258-.3676s.1633-.2054.2746-.275l6.0283-3.6509c.2205-.133.4004-.0626.4004.1563-.0134.1305-.0564.2563-.1258.3677-.0694.1113-.1633.2054-.2746.2749z" fill="#fdfdfd" opacity=".56"/><path d="m69.449 16.8662s4.3202 14.8118 5.2649 17.8249c.9448 3.013 7.2202 5.3161 7.2202 5.3161l-3.2222 2.4611s-6.984-.7349-8.3276-4.3436c-1.3436-3.6088-.9353-21.2585-.9353-21.2585z" fill="url(#M)"/><path d="m69.0347 15.886c-2.9563-1.5714-5.5794-2.25-10.5644.9288s-9.8839 4.8112-10.3141 7.9915c-.4301 3.1803 1.1857 16.4082 1.5392 20.7956.3535 4.3875 0 7.0971 0 7.0971s4.8223 4.93 13.3297 3.0396c8.5075-1.8903 8.0789-6.7859 8.0789-6.7859s.7633-31.5625-2.0693-33.0667z" fill="url(#N)"/><path d="m66.175 5.70532s.2299 3.074 0 3.62439l-.2299.55038s.5709.78181.3316 2.24841c-.2393 1.4667-.4693 4.5876-1.2029 5.0035-.7335.4159-2.3869.505-2.3869.505v2.544s-1.927 1.4776-3.9463 1.1523c-2.0194-.3252-3.6273-1.92-3.6273-1.92v-9.3487l1.6533-5.4147z" fill="#f4caab"/><path d="m69.1654 4.64986s-1.6143 2.34537-5.24 2.47827c-3.6257.13291-4.6346-.36744-4.6346-.36744s1.0949 1.6058 0 2.34538c-1.0949.73957-.4129 2.15613-.9181 2.24843-.5053.0923-.6414-2.85979-1.3984-2.85197-.7571.00782-.208 5.78527-1.6314 6.01827-1.4234.2329-3.4412-2.3861-4.1763-4.93315-.443-1.48915-.443-3.07495 0-4.5641 0 0-1.8301-2.40323 1.8848-4.207602 3.7149-1.804375 9.6806.032843 12.6697 1.318112 2.9891 1.28526 4.3687.63481 3.4443 2.5158z" fill="url(#O)"/><path d="m62.687 17.6343c-.9425.076-1.8906-.0367-2.7889-.3315-1.4281-.4878-1.8551-1.4166-1.8551-1.4166s.4364 1.8216 2.0334 2.361c1.597.5395 1.2513 2.6847 1.2513 2.6847l1.3499-.7536z" fill="#efbc90"/><path d="m80.7511 94.5437s.5678 2.4455 1.7003 3.9231c1.1324 1.4775 2.2352 2.5342 1.22 3.3362-1.0151.803-3.8149 1.275-5.2055-.947-1.3905-2.2219-4.6925-3.6636-4.9568-5.0802-.2644-1.4166 2.6591-3.3241 2.6591-3.3241z" fill="url(#P)"/><path d="m70.0793 95.2456s-.3379 4.5516-.4239 6.0164c-.086 1.465-.8446 4.535.7289 5.354s6.3489.328 5.7702-2.581c-.5788-2.91-1.3921-8.0592-1.3921-8.0592s-3.0798.9256-4.6831-.7302z" fill="url(#Q)"/><path d="m71.1036 48.9478s15.446 7.0908 17.3262 9.7192c1.8801 2.6284-4.4 18.4096-5.6451 24.6514-1.2451 6.2419-1.5735 10.5683-1.5735 10.5683s-.0642 1.2665-2.1899.6567-3.3129-1.7559-3.3129-1.7559 1.0246-13.7236 1.7206-19.4572c.6961-5.7337 1.5751-6.9283 1.5751-6.9283l-14.5686-11.239s5.6842-1.6183 6.6681-6.2152z" fill="#364154"/><path d="m50.7788 53.5776s-2.9531 5.2083 1.6753 8.8015c4.6283 3.5931 16.9336 11.3531 16.9336 11.3531s-1.278 6.0886-1.0418 10.7059c.2362 4.6172 1.0418 10.0976 1.0418 10.0976s1.7925 2.3673 4.3577 1.8044 2.0459-2.4611 2.0459-2.4611 4.4-23.6289 2.9203-27.1813c-1.4797-3.5525-12.4523-11.9833-12.4523-11.9833s-7.8442 3.0271-15.4805-1.1368z" fill="#364154"/><path d="m70.5879 37.2088 22.8664-13.7142v25.3598l-22.8664 13.7142z" fill="url(#R)"/><path d="m70.5877 62.5683-12.7166-7.4036 12.7166-7.4333z" fill="url(#S)"/><path d="m66.4115 49.814s2.7123 1.8325 3.1565 3.0302.7899 2.7081.8165 3.2413-2.3353 1.9967-3.1971.799c-.8619-1.1977-1.2842-2.2328-2.2947-2.8254-1.0104-.5926-1.2404-1.4244-1.2404-1.4244s.2675-2.3907 2.7592-2.8207z" fill="#efbc90"/><path d="m50.4773 22.83c-2.7561-.6755-5.071 2.4048-4.2968 7.8179.7743 5.4131 1.8426 16.1643 3.9902 17.8029 2.1476 1.6387 13.3329 4.9769 13.3329 4.9769s.2675-1.7199 1.4218-2.6581c1.1544-.9381 1.9286-.9381 1.9286-.9381s-11.2541-5.6023-11.861-6.8-.305-19.1711-4.5157-20.2015z" fill="url(#T)"/><g opacity=".15"><path d="m212.728 162.327c10.869-.017 19.674-3.847 19.666-8.553-.007-4.706-8.824-8.508-19.693-8.49-10.869.017-19.674 3.846-19.667 8.552s8.824 8.508 19.694 8.491z" fill="#4a0101" opacity=".04"/><path d="m212.726 162.101c10.582-.016 19.154-3.744 19.147-8.326s-8.591-8.283-19.173-8.267c-10.581.017-19.153 3.745-19.146 8.327s8.591 8.283 19.172 8.266z" fill="#480202" opacity=".08"/><path d="m212.727 161.876c10.295-.016 18.634-3.643 18.627-8.101-.007-4.457-8.358-8.058-18.652-8.042-10.295.017-18.635 3.643-18.628 8.101s8.358 8.058 18.653 8.042z" fill="#460303" opacity=".12"/><path d="m212.726 161.651c10.007-.016 18.114-3.541 18.107-7.875-.007-4.333-8.125-7.833-18.132-7.817s-18.113 3.541-18.107 7.874c.007 4.334 8.125 7.834 18.132 7.818z" fill="#440404" opacity=".15"/><path d="m212.726 161.426c9.719-.016 17.593-3.44 17.586-7.649-.006-4.209-7.891-7.608-17.61-7.593s-17.593 3.439-17.587 7.648c.007 4.209 7.892 7.609 17.611 7.594z" fill="#420505" opacity=".19"/><path d="m212.725 161.201c9.433-.015 17.074-3.338 17.068-7.423-.007-4.084-7.658-7.384-17.091-7.369-9.432.015-17.074 3.338-17.067 7.423.006 4.084 7.658 7.384 17.09 7.369z" fill="#400606" opacity=".23"/><path d="m212.725 160.975c9.145-.014 16.553-3.236 16.547-7.196s-7.424-7.159-16.569-7.145c-9.145.015-16.553 3.237-16.547 7.197s7.424 7.159 16.569 7.144z" fill="#3e0606" opacity=".27"/><path d="m212.725 160.75c8.857-.013 16.033-3.134 16.027-6.97s-7.192-6.934-16.049-6.92c-8.857.013-16.032 3.134-16.026 6.97s7.191 6.934 16.048 6.92z" fill="#3c0707" opacity=".31"/><path d="m212.725 160.525c8.57-.013 15.513-3.033 15.507-6.745-.006-3.711-6.958-6.709-15.528-6.695-8.571.013-15.514 3.033-15.508 6.744.006 3.712 6.958 6.71 15.529 6.696z" fill="#3a0808" opacity=".35"/><path d="m212.724 160.299c8.282-.013 14.992-2.931 14.987-6.518-.006-3.586-6.725-6.483-15.008-6.47-8.282.013-14.992 2.931-14.987 6.518.006 3.586 6.725 6.483 15.008 6.47z" fill="#380909" opacity=".38"/><path d="m212.724 160.073c7.995-.012 14.471-2.829 14.466-6.291s-6.491-6.258-14.486-6.246c-7.995.013-14.472 2.83-14.467 6.291.006 3.462 6.491 6.259 14.487 6.246z" fill="#360a0a" opacity=".42"/><path d="m212.723 159.848c7.708-.012 13.953-2.727 13.948-6.065-.006-3.337-6.259-6.033-13.967-6.021s-13.953 2.727-13.947 6.065c.005 3.338 6.258 6.033 13.966 6.021z" fill="#340b0b" opacity=".46"/><path d="m212.723 159.623c7.421-.012 13.432-2.626 13.427-5.839-.005-3.214-6.025-5.809-13.445-5.797-7.421.011-13.432 2.626-13.427 5.839s6.024 5.809 13.445 5.797z" fill="#330c0c" opacity=".5"/><path d="m212.723 159.398c7.133-.011 12.911-2.524 12.906-5.613s-5.791-5.584-12.924-5.573-12.911 2.524-12.906 5.613 5.791 5.584 12.924 5.573z" fill="#310d0d" opacity=".54"/><path d="m212.722 159.173c6.846-.011 12.393-2.423 12.388-5.388-.005-2.964-5.558-5.359-12.404-5.348-6.847.011-12.393 2.423-12.388 5.387.005 2.965 5.558 5.359 12.404 5.349z" fill="#2f0e0e" opacity=".58"/><path d="m212.722 158.949c6.559-.01 11.872-2.321 11.867-5.161-.004-2.84-5.324-5.134-11.883-5.124-6.558.01-11.871 2.321-11.867 5.161.005 2.84 5.325 5.135 11.883 5.124z" fill="#2d0f0f" opacity=".62"/><path d="m212.721 158.724c6.271-.01 11.351-2.22 11.347-4.935-.005-2.716-5.091-4.91-11.362-4.9s-11.351 2.219-11.347 4.935c.005 2.716 5.091 4.91 11.362 4.9z" fill="#2b1010" opacity=".65"/><path d="m212.721 158.499c5.984-.009 10.831-2.118 10.827-4.709-.004-2.592-4.858-4.685-10.842-4.676-5.984.01-10.832 2.118-10.828 4.71.005 2.591 4.859 4.684 10.843 4.675z" fill="#291111" opacity=".69"/><path d="m212.721 158.272c5.696-.009 10.311-2.016 10.307-4.482s-4.625-4.458-10.321-4.449c-5.697.009-10.311 2.015-10.307 4.482.003 2.466 4.624 4.458 10.321 4.449z" fill="#271212" opacity=".73"/><path d="m212.721 158.047c5.408-.008 9.79-1.914 9.786-4.256s-4.391-4.233-9.8-4.225c-5.408.009-9.79 1.914-9.786 4.256.003 2.342 4.391 4.234 9.8 4.225z" fill="#251212" opacity=".77"/><path d="m212.718 157.822c5.122-.008 9.271-1.813 9.268-4.03-.004-2.218-4.159-4.009-9.28-4.001-5.122.008-9.272 1.812-9.268 4.03.003 2.218 4.158 4.009 9.28 4.001z" fill="#231313" opacity=".81"/><path d="m212.345 157.977c4.834 0 8.753-1.697 8.753-3.79 0-2.094-3.919-3.791-8.753-3.791s-8.753 1.697-8.753 3.791c0 2.093 3.919 3.79 8.753 3.79z" fill="#211414" opacity=".85"/><path d="m212.718 157.371c4.546-.007 8.23-1.609 8.227-3.577-.004-1.969-3.692-3.56-8.238-3.553-4.547.008-8.23 1.609-8.227 3.578s3.691 3.56 8.238 3.552z" fill="#1f1515" opacity=".88"/><path d="m212.716 157.146c4.259-.007 7.71-1.507 7.707-3.352-.003-1.844-3.458-3.334-7.718-3.328-4.26.007-7.71 1.508-7.708 3.352.003 1.845 3.459 3.335 7.719 3.328z" fill="#1d1616" opacity=".92"/><path d="m212.715 156.921c3.972-.006 7.19-1.406 7.188-3.126-.003-1.72-3.225-3.109-7.197-3.103s-7.19 1.406-7.187 3.126c.002 1.72 3.224 3.109 7.196 3.103z" fill="#1b1717" opacity=".96"/><path d="m212.715 156.696c3.685-.006 6.669-1.304 6.667-2.9-.003-1.596-2.991-2.885-6.676-2.879-3.684.006-6.669 1.304-6.666 2.9.002 1.596 2.991 2.885 6.675 2.879z" fill="#191818" opacity=".15"/></g><path d="m191.853 105.043 28.101-16.1346c.945-.5407 1.731-1.3216 2.278-2.2637s.834-2.0119.834-3.101v-66.2083c0-.7938-.209-1.5735-.606-2.2612s-.967-1.2593-1.654-1.6575c-.687-.3983-1.466-.6093-2.26-.612-.795-.0027-1.575.2031-2.265.5967l-27.094 15.5608c-.965.5517-1.767 1.3483-2.325 2.3093-.558.9609-.852 2.0522-.852 3.1632v67.2133c0 .684.18 1.356.522 1.948.341.593.832 1.085 1.423 1.429.592.343 1.263.526 1.947.529s1.357-.173 1.951-.511z" fill="url(#U)"/><path d="m192.895 105.668 28.101-16.1341c.946-.5406 1.732-1.3215 2.279-2.2636.546-.9421.835-2.0119.835-3.1011v-66.2083c-.001-.7938-.21-1.5736-.607-2.2612-.396-.6877-.967-1.2593-1.653-1.6575-.687-.3983-1.467-.6093-2.261-.612s-1.575.2031-2.265.5967l-27.095 15.5592c-.965.552-1.767 1.3488-2.324 2.3097-.558.9609-.852 2.0519-.853 3.1628v67.2134c0 .684.18 1.356.521 1.949s.832 1.085 1.424 1.429c.591.344 1.263.526 1.947.53.684.003 1.357-.173 1.951-.512z" fill="url(#V)"/><path d="m208.483 57.3146-13.325 7.8868c-.274.1563-.498.0719-.498-.2017.016-.1616.07-.3171.156-.4546s.203-.2533.342-.3382l13.325-7.8867c.273-.1564.497-.0719.497.2017-.016.1615-.07.3171-.156.4546s-.203.2532-.341.3381z" fill="#57db90"/><path d="m217.258 54.9098-22.1 13.0857c-.274.1563-.498.0703-.498-.2033.017-.1614.07-.3169.156-.4544.087-.1374.203-.2532.342-.3383l22.1-13.0763c.273-.1563.497-.0719.497.2017-.017.1602-.071.3142-.158.4502-.086.1361-.202.2506-.339.3347z" fill="#feffff"/><path d="m217.258 57.6996-22.1 13.0793c-.274.1564-.498.072-.498-.2017.017-.1614.07-.3169.156-.4543.087-.1375.203-.2533.342-.3384l22.1-13.0809c.273-.1564.497-.0704.497.2032-.017.1615-.07.317-.156.4544-.086.1375-.203.2533-.341.3384z" fill="#feffff"/><path d="m217.258 60.4904-22.1 13.081c-.274.1563-.498.0703-.498-.2033.017-.1615.07-.3169.156-.4544.087-.1375.203-.2532.342-.3384l22.1-13.0793c.273-.1564.497-.0719.497.2017-.016.1615-.069.3171-.156.4547-.086.1375-.203.2532-.341.338z" fill="#feffff"/><path d="m212.858 65.8801-17.7 10.476c-.274.1563-.498.0719-.498-.2017.017-.1615.07-.3169.156-.4544.087-.1375.203-.2533.342-.3384l17.7-10.476c.273-.1563.497-.0719.497.2017-.016.1615-.07.317-.156.4544-.086.1375-.203.2533-.341.3384z" fill="#feffff"/><path d="m208.483 75.5257-13.325 7.8882c-.274.1564-.498.0704-.498-.2032.017-.1615.07-.3169.156-.4544.087-.1375.203-.2533.342-.3384l13.325-7.8867c.273-.1563.497-.0703.497.2033-.016.1613-.07.3166-.156.4539-.086.1372-.203.2527-.341.3373z" fill="#57db90"/><path d="m217.258 73.1209-22.1 13.0809c-.274.1564-.498.0704-.498-.2033.016-.1613.07-.3166.156-.4539.086-.1372.203-.2527.342-.3372l22.1-13.081c.273-.1563.497-.0703.497.2033-.016.1613-.07.3167-.156.4539-.086.1373-.203.2527-.341.3373z" fill="#feffff"/><path d="m217.258 75.9103-22.1 13.081c-.274.1563-.498.0703-.498-.2033.017-.1614.07-.3169.156-.4544.087-.1374.203-.2532.342-.3383l22.1-13.0794c.273-.1564.497-.0719.497.2017-.017.1614-.07.3169-.156.4544s-.203.2532-.341.3383z" fill="#feffff"/><path d="m217.258 78.6996-22.1 13.0793c-.274.1564-.498.0704-.498-.2032.016-.1613.07-.3167.156-.4539.086-.1373.203-.2527.342-.3373l22.1-13.0809c.273-.1564.497-.0704.497.2032-.017.1615-.07.317-.156.4544-.086.1375-.203.2533-.341.3384z" fill="#feffff"/><path d="m212.858 84.0912-17.7 10.476c-.274.1563-.498.0704-.498-.2033.017-.1614.07-.3169.156-.4544.087-.1374.203-.2532.342-.3383l17.7-10.476c.273-.1564.497-.0704.497.2033-.016.1615-.069.3172-.156.4547-.086.1376-.203.2532-.341.338z" fill="#feffff"/><path d="m198.837 53.8105 16.893-9.6942c.57-.3241 1.043-.7931 1.373-1.3593.33-.5663.504-1.2096.504-1.8648v-16.2081c0-.4772-.125-.946-.364-1.3595-.238-.4135-.581-.7571-.994-.9966-.412-.2394-.881-.3661-1.358-.3675-.478-.0015-.947.1225-1.362.3595l-16.279 9.3502c-.579.3311-1.061.809-1.396 1.3855-.336.5765-.513 1.2312-.514 1.898v16.821c.001.4089.109.8104.314 1.1645.204.3542.498.6488.851.8545.354.2058.755.3156 1.164.3185.409.003.812-.101 1.168-.3017z" fill="url(#W)"/><path d="m204.254 34.8008v9.1266l6.03-7.5114z" fill="#fffffb"/><path d="m207.948 64.6744s-.663 2.9927-.273 3.5259c.389.5332.273.7208.273.7208-.465.6755-.663 1.4994-.556 2.3126.156 1.4072 1.174 4.3921 1.528 4.3921.353 0 1.733.197 1.889.5895.157.3924.274 1.9576.274 1.9576s1.647.7818 4.154.4081c2.508-.3737 2.957-1.2853 2.957-1.2853l-.548-8.3746s-4.414-5.0034-4.589-5.0832c-.175-.0797-5.109.8365-5.109.8365z" fill="#f4caab"/><path d="m206.46 62.4025c0 1.4729 1.455 3.0021 2.92 3.3148 1.466.3127-.729 3.9981 0 4.7392s0 1.8763.516 1.931c.517.0547.95-2.5971 1.812-2.4595s.141 3.6228 1.148 4.4859 5.121.7412 5.944-.8052c.822-1.5464 2.116-5.5414 1.999-6.6765-.118-1.1352-.745-2.2578-.745-2.2578s-.508-2.5831-3.702-4.1185c-3.194-1.5355-6.296-.4394-7.821-1.2415s-2.074 1.7293-2.071 3.0881z" fill="url(#Y)"/><path d="m223.072 146.429s1.059 2.74.349 3.296c-.71.557-3.128 1.387-5.09.559-1.961-.829-2.726-3.44-5.161-4.847-2.436-1.408 1.636-3.733 4.637-1.778 3.002 1.954 5.265 2.77 5.265 2.77z" fill="url(#Z)"/><path d="m206.895 152.64s-3.06.313-4.605-.818c-1.545-1.13-3.677 1.775-.599 3.492 3.078 1.716 6.158 3.788 7.935 2.841 1.777-.948 3.159-1.125 3.089-2.723s0-2.739 0-2.739z" fill="url(#aa)"/><path d="m222.026 103.858s1.325 2.796 1.408 5.832c.083 3.037-1.408 4.242-1.408 4.242l-.446 14.566s1.855 2.615 2.278 7.085c.422 4.47-.675 10.288-.675 10.288s.421.928-1.603 1.012c-1.272.029-2.527-.292-3.629-.927 0 0-.336-9.108-1.855-12.651s-3.375-25.799-3.375-25.799z" fill="url(#ab)"/><path d="m204.639 107.398s-.654 18.066-.36 20.347 2.19 8.898 2.576 14.526c.223 3.672.223 7.354 0 11.026 0 0 .534 1.293 2.659 1.141.627-.047 1.236-.227 1.787-.529.552-.302 1.032-.718 1.409-1.22 0 0 .989-7.072 1.369-13.689.38-6.618-1.674-8.746-1.674-8.746l2.173-12.167s2.925-2.282 3.305-5.933-.313-4.378-.313-4.378-6.474 3.084-12.931-.378z" fill="url(#ac)"/><path d="m226.051 76.2388s.939 11.2249-.422 14.3552-7.69 1.5636-7.69 1.5636z" fill="url(#ad)"/><path d="m225.699 75.3443c-1.473-1.3244-4.342.1985-5.695 0-1.353-.1986-1.564-.5348-2.135-.3315-.571.2032-6.836 3.1271-7.12 3.5962-.285.4691-.782 2.4611-.782 2.4611s-4.485 1.4072-4.693 3.049c-.208 1.6417-.782 11.3876-1.139 16.5119-.356 5.123-.641 6.127-.641 6.127s4.557 5.9 12.388 2.982c7.832-2.918 6.693-6.911 6.693-6.911s-1.282-6.059-.356-10.6762c.926-4.6173 5.047-15.4013 3.48-16.8085z" fill="url(#ae)"/><path d="m208.898 84.1177c-2.207-2.2765-4.556.3299-5.412 3.2976-.855 2.9677-1.066 7.6616-2.064 7.3067-.998-.355-9.825-7.1065-9.825-7.1065s-1.993-.097-3.061 1.3759-1.068 2.0327-1.068 2.0327 12.388 11.2339 15.094 11.0559 7.118-11.4937 7.475-14.2691c.357-2.7753-1.139-3.6932-1.139-3.6932z" fill="url(#af)"/><path d="m190.347 87.7843s-.607-2.6033-1.268-4.1482c-.662-1.5448-.884-2.164-1.282-1.8997-.397.2642.626 3.2679-.33 3.2241-.955-.0438-1.198-2.2344-2.135-1.9123s-1.068 3.9872-.714 5.4444c.353 1.4573 2.903 2.2922 2.903 2.2922s1.575-2.8316 2.826-3.0005z" fill="#f4caab"/><g opacity=".15"><path d="m28.7457 180.04c15.4605-.024 27.9852-5.472 27.9747-12.167s-12.5523-12.102-28.0128-12.078-27.985204 5.471-27.974684 12.166c.010521 6.695 12.552284 12.103 28.012784 12.079z" fill="#4a0101" opacity=".04"/><path d="m28.7451 179.719c15.0519-.023 27.2456-5.326 27.2353-11.844-.0102-6.518-12.2205-11.783-27.2724-11.76-15.0519.024-27.2456 5.327-27.23535 11.845.01024 6.518 12.22055 11.783 27.27245 11.759z" fill="#480202" opacity=".08"/><path d="m28.3363 179.49c14.6434 0 26.5141-5.14 26.5141-11.481s-11.8707-11.482-26.5141-11.482c-14.6433 0-26.51403 5.141-26.51403 11.482s11.87073 11.481 26.51403 11.481z" fill="#460303" opacity=".12"/><path d="m28.7438 179.078c14.2347-.022 25.7664-5.037 25.7567-11.201s-11.557-11.143-25.7917-11.121c-14.2347.023-25.76638 5.038-25.75669 11.202.00968 6.164 11.55699 11.142 25.79169 11.12z" fill="#440404" opacity=".15"/><path d="m28.3365 178.849c13.8253 0 25.0328-4.853 25.0328-10.84s-11.2075-10.841-25.0328-10.841c-13.8252 0-25.03279 4.854-25.03279 10.841s11.20759 10.84 25.03279 10.84z" fill="#420505" opacity=".19"/><path d="m28.743 178.437c13.4166-.021 24.2855-4.748 24.2764-10.558s-10.8929-10.503-24.3095-10.482-24.28551 4.748-24.27638 10.558 10.89288 10.503 24.30948 10.482z" fill="#400606" opacity=".23"/><path d="m28.7424 178.116c13.008-.02 23.5459-4.603 23.537-10.236-.0088-5.633-10.5611-10.183-23.5691-10.162-13.008.02-23.5459 4.603-23.53705 10.236s10.56115 10.183 23.56915 10.162z" fill="#3e0606" opacity=".27"/><path d="m28.7427 177.796c12.5994-.02 22.8063-4.459 22.7977-9.915-.0085-5.456-10.2293-9.862-22.8287-9.843-12.5994.02-22.80631 4.459-22.79774 9.915s10.22934 9.863 22.82874 9.843z" fill="#3c0707" opacity=".31"/><path d="m28.7421 177.476c12.1908-.019 22.0667-4.314 22.0584-9.593s-9.8976-9.543-22.0884-9.524c-12.1908.02-22.0667 4.314-22.05841 9.593.0083 5.279 9.89761 9.543 22.08841 9.524z" fill="#3a0808" opacity=".35"/><path d="m28.7409 177.155c11.7813-.018 21.3255-4.169 21.3175-9.271-.0081-5.102-9.5652-9.223-21.3465-9.204-11.7814.018-21.32552 4.169-21.3175 9.271s9.5652 9.223 21.3465 9.204z" fill="#380909" opacity=".38"/><path d="m28.7413 176.835c11.3727-.018 20.5858-4.025 20.5781-8.95-.0078-4.925-9.2334-8.902-20.6062-8.885-11.3727.018-20.58583 4.025-20.57809 8.95.00773 4.925 9.23339 8.902 20.60619 8.885z" fill="#360a0a" opacity=".42"/><path d="m28.7406 176.514c10.9641-.017 19.8463-3.88 19.8388-8.628-.0074-4.747-8.9017-8.582-19.8658-8.565s-19.84622 3.88-19.83876 8.628c.00746 4.747 8.90166 8.582 19.86576 8.565z" fill="#340b0b" opacity=".46"/><path d="m28.74 176.193c10.5555-.016 19.1066-3.735 19.0995-8.306-.0072-4.57-8.57-8.262-19.1255-8.246-10.5555.017-19.10662 3.736-19.09943 8.306.00718 4.571 8.56993 8.263 19.12543 8.246z" fill="#330c0c" opacity=".5"/><path d="m28.7388 175.873c10.1461-.016 18.3654-3.591 18.3585-7.984-.0069-4.394-8.2374-7.943-18.3835-7.927-10.146.016-18.3654 3.591-18.3585 7.984.0069 4.394 8.2375 7.943 18.3835 7.927z" fill="#310d0d" opacity=".54"/><path d="m28.7392 175.552c9.7374-.015 17.6258-3.446 17.6192-7.662-.0067-4.217-7.9058-7.623-17.6432-7.608-9.7375.016-17.6258 3.446-17.6192 7.663s7.9057 7.623 17.6432 7.607z" fill="#2f0e0e" opacity=".58"/><path d="m28.7385 175.232c9.3289-.015 16.8862-3.302 16.8799-7.341-.0064-4.04-7.574-7.303-16.9028-7.288-9.3289.015-16.8862 3.301-16.8799 7.341.0064 4.039 7.574 7.302 16.9028 7.288z" fill="#2d0f0f" opacity=".62"/><path d="m28.7379 174.911c8.9202-.014 16.1466-3.156 16.1405-7.019-.006-3.863-7.2422-6.983-16.1625-6.969-8.9202.014-16.1465 3.157-16.1405 7.02.0061 3.862 7.2423 6.982 16.1625 6.968z" fill="#2b1010" opacity=".65"/><path d="m28.7373 174.591c8.5116-.014 15.407-3.012 15.4012-6.698s-6.9106-6.662-15.4222-6.649-15.4069 3.012-15.4011 6.697c.0058 3.686 6.9105 6.663 15.4221 6.65z" fill="#291111" opacity=".69"/><path d="m28.7371 174.27c8.1021-.013 14.6657-2.867 14.6602-6.376-.0055-3.508-6.578-6.342-14.6802-6.33-8.1021.013-14.6658 2.868-14.6602 6.376.0055 3.509 6.578 6.343 14.6802 6.33z" fill="#271212" opacity=".73"/><path d="m28.7365 173.949c7.6935-.012 13.9261-2.722 13.9209-6.054-.0053-3.331-6.2464-6.022-13.9399-6.01s-13.9261 2.723-13.9209 6.054c.0052 3.332 6.2463 6.023 13.9399 6.01z" fill="#251212" opacity=".77"/><path d="m28.7358 173.629c7.285-.012 13.1866-2.578 13.1816-5.733-.005-3.154-5.9146-5.702-13.1995-5.691-7.285.012-13.1865 2.578-13.1816 5.733.005 3.154 5.9146 5.702 13.1995 5.691z" fill="#231313" opacity=".81"/><path d="m28.7352 173.308c6.8763-.01 12.4469-2.433 12.4422-5.41-.0046-2.978-5.5828-5.383-12.4591-5.372-6.8764.011-12.4469 2.433-12.4423 5.411.0047 2.977 5.5829 5.382 12.4592 5.371z" fill="#211414" opacity=".85"/><path d="m28.7336 172.988c6.4677-.01 11.7073-2.288 11.7029-5.089-.0044-2.8-5.2511-5.062-11.7188-5.052s-11.7073 2.288-11.7029 5.089c.0044 2.8 5.2511 5.062 11.7188 5.052z" fill="#1f1515" opacity=".88"/><path d="m28.7324 172.668c6.0583-.01 10.9661-2.144 10.962-4.768-.0041-2.623-4.9187-4.742-10.9769-4.733-6.0583.01-10.9661 2.144-10.962 4.768.0041 2.623 4.9187 4.742 10.9769 4.733z" fill="#1d1616" opacity=".92"/><path d="m28.7318 172.347c5.6496-.009 10.2265-1.999 10.2226-4.446-.0038-2.446-4.5869-4.422-10.2365-4.413-5.6497.009-10.2265 1.999-10.2227 4.446.0039 2.446 4.5869 4.422 10.2366 4.413z" fill="#1b1717" opacity=".96"/><path d="m28.3345 172.118c5.241 0 9.4897-1.84 9.4897-4.109 0-2.27-4.2487-4.11-9.4897-4.11-5.2411 0-9.4898 1.84-9.4898 4.11 0 2.269 4.2487 4.109 9.4898 4.109z" fill="#191818" opacity=".15"/></g><path d="m48.6566 118.863-17.1651-7.464c-3.3426-1.547-5.7155-1.095-7.7317 1.46l-20.8721 28.509 28.3285 18.908z" fill="url(#ah)"/><path d="m48.656 156.473v-37.609l-17.908 34.078-24.22261-10.704v39.135z" fill="url(#ai)"/><path d="m2.89355 141.368 3.63198.87v39.134l-3.63198-2.411z" fill="url(#aj)"/><path d="m10.4365 143.965v-25.475l33.0101-19.5276v29.0996l-12.6979 24.88z" fill="url(#ak)"/><path d="m16.8178 127.568-.8838 2.815-1.1371.664 2.8921-8.989 1.3264-.782 2.9047 5.598-1.1747.688-.9088-1.764zm2.792-2.37-.8337-1.612c-.1708-.348-.3187-.706-.4427-1.073l-.025.014c-.1267.507-.2659 1.032-.4301 1.573l-.8322 2.599z" fill="url(#al)"/><path d="m40.171 109.718-15.3663 9.078c-.2158.127-.3926.053-.3926-.156.0124-.128.0543-.251.1225-.359.0681-.109.1606-.2.2701-.266l15.3663-9.079c.2159-.126.3926-.053.3926.157-.0124.127-.0543.25-.1224.359-.0682.108-.1607.199-.2702.266z" fill="#ddd9d9"/><path d="m40.171 112.345-15.3663 9.078c-.2158.127-.3926.053-.3926-.156.0124-.128.0543-.251.1225-.359.0681-.109.1606-.2.2701-.267l15.3663-9.078c.2159-.126.3926-.053.3926.157-.0124.127-.0543.25-.1224.359-.0682.108-.1607.199-.2702.266z" fill="#ddd9d9"/><path d="m40.171 114.97-15.3663 9.08c-.2158.125-.3926.052-.3926-.156.0124-.128.0543-.251.1225-.359.0681-.109.1606-.2.2701-.267l15.3663-9.078c.2159-.126.3926-.053.3926.157-.0126.127-.0546.25-.1228.358-.0681.108-.1605.199-.2698.265z" fill="#ddd9d9"/><path d="m40.171 117.597-15.3663 9.078c-.2158.127-.3926.053-.3926-.156.0124-.128.0543-.251.1225-.359.0681-.109.1606-.2.2701-.267l15.3663-9.078c.2159-.126.3926-.053.3926.157-.0124.127-.0543.25-.1224.359-.0682.108-.1607.199-.2702.266z" fill="#ddd9d9"/><path d="m40.1707 122.505-24.9812 14.698c-.2159.127-.3926.053-.3926-.156.0124-.128.0543-.251.1224-.359.0682-.109.1607-.2.2702-.267l24.9812-14.698c.2158-.126.3926-.053.3926.157-.0124.127-.0543.25-.1225.359-.0681.108-.1606.2-.2701.266z" fill="#ddd9d9"/><path d="m40.1707 125.131-24.9812 14.697c-.2159.127-.3926.053-.3926-.156.0124-.128.0543-.251.1224-.359.0682-.109.1607-.2.2702-.267l24.9812-14.697c.2158-.125.3926-.053.3926.156-.0123.128-.0542.251-.1223.359-.0682.109-.1607.2-.2703.267z" fill="#ddd9d9"/><path d="m40.1707 127.757-24.9812 14.698c-.2159.125-.3926.051-.3926-.156.012-.128.0538-.251.122-.36.0681-.108.1608-.2.2706-.266l24.9812-14.698c.2158-.126.3926-.053.3926.157-.0124.127-.0543.25-.1225.359-.0681.108-.1606.2-.2701.266z" fill="#ddd9d9"/><path d="m29.658 136.535-14.4842 8.562c-.2064.122-.3769.052-.3769-.156v-.031c.0125-.122.053-.24.1184-.343.0654-.104.1539-.191.2585-.255l14.4842-8.562c.2064-.12.3753-.051.3753.156v.032c-.0119.122-.0521.239-.1172.343-.0652.103-.1535.19-.2581.254z" fill="#ddd9d9"/><path d="m48.6341 154.876-15.8715-18.661c-.4154-.488-.947-.864-1.5457-1.093-.5988-.229-1.2455-.304-1.8808-.218s-1.2388.33-1.7549.71c-.5161.381-.9284.884-1.1988 1.465l-19.86482 42.697.57874.61z" fill="url(#am)"/><path d="m49.2133 155.486-15.8794-18.66c-.4154-.488-.947-.864-1.5457-1.093-.5988-.229-1.2455-.304-1.8808-.218s-1.2388.331-1.7549.711-.9284.884-1.1988 1.465l-19.86483 42.695z" fill="url(#an)"/></g></svg>