<svg fill="none" height="247" viewBox="0 0 258 247" width="258" xmlns="http://www.w3.org/2000/svg" xmlns:xlink="http://www.w3.org/1999/xlink"><linearGradient id="a"><stop offset="0" stop-color="#f3f4fb"/><stop offset="1" stop-color="#e4e6f5"/></linearGradient><linearGradient id="b" gradientUnits="userSpaceOnUse" x1="131.907" x2="139.932" xlink:href="#a" y1="89.31" y2="186.014"/><linearGradient id="c"><stop offset="0" stop-color="#f3f4fb"/><stop offset="1" stop-color="#fcfcfe"/></linearGradient><linearGradient id="d" gradientUnits="userSpaceOnUse" x1="122.832" x2="134.867" xlink:href="#c" y1="168.743" y2="52.6769"/><linearGradient id="e"><stop offset="0" stop-color="#067431"/><stop offset="1" stop-color="#2e9f5a"/></linearGradient><linearGradient id="f" gradientUnits="userSpaceOnUse" x1="107.084" x2="126.945" xlink:href="#e" y1="14.1895" y2="68.5073"/><linearGradient id="g"><stop offset="0" stop-color="#f8db8b"/><stop offset="1" stop-color="#68b790"/></linearGradient><linearGradient id="h" gradientUnits="userSpaceOnUse" x1="76.8529" x2="184.053" xlink:href="#g" y1="42.9995" y2="55.7514"/><linearGradient id="i"><stop offset="0" stop-color="#fff"/><stop offset="1" stop-color="#bcc2e6"/></linearGradient><linearGradient id="j" gradientUnits="userSpaceOnUse" x1="134.836" x2="126.209" xlink:href="#i" y1="65.2092" y2="26.5747"/><linearGradient id="k" gradientUnits="userSpaceOnUse" x1="172.39" x2="180.028" xlink:href="#e" y1="60.8126" y2="64.2231"/><linearGradient id="l" gradientUnits="userSpaceOnUse" x1="92.0244" x2="95.8249" xlink:href="#e" y1="21.7187" y2="26.7378"/><linearGradient id="m" gradientUnits="userSpaceOnUse" x1="90.0625" x2="94.6048" xlink:href="#a" y1="25.1087" y2="25.1087"/><linearGradient id="n" gradientUnits="userSpaceOnUse" x1="97.7905" x2="104.845" xlink:href="#g" y1="28.9601" y2="29.4839"/><linearGradient id="o" gradientUnits="userSpaceOnUse" x1="97.7012" x2="102.243" xlink:href="#a" y1="29.7318" y2="29.7318"/><linearGradient id="p" gradientUnits="userSpaceOnUse" x1="105.34" x2="109.882" xlink:href="#a" y1="34.3543" y2="34.3543"/><linearGradient id="q"><stop offset="0" stop-color="#dbedeb"/><stop offset="1" stop-color="#d2cdd8"/></linearGradient><linearGradient id="r" gradientUnits="userSpaceOnUse" x1="107.101" x2="167.717" xlink:href="#q" y1="126.498" y2="112.68"/><linearGradient id="s" gradientUnits="userSpaceOnUse" x1="107.101" x2="167.718" xlink:href="#q" y1="115.347" y2="101.529"/><linearGradient id="t" gradientUnits="userSpaceOnUse" x1="107.101" x2="167.717" xlink:href="#q" y1="104.194" y2="90.3764"/><linearGradient id="u" gradientUnits="userSpaceOnUse" x1="107.101" x2="167.717" xlink:href="#q" y1="93.0435" y2="79.2255"/><linearGradient id="v" gradientUnits="userSpaceOnUse" x1="107.101" x2="167.718" xlink:href="#q" y1="81.8924" y2="68.0748"/><linearGradient id="w" gradientUnits="userSpaceOnUse" x1="107.745" x2="108.728" xlink:href="#q" y1="105.241" y2="105.238"/><linearGradient id="x" gradientUnits="userSpaceOnUse" x1="118.793" x2="119.776" xlink:href="#q" y1="111.615" y2="111.612"/><linearGradient id="y" gradientUnits="userSpaceOnUse" x1="129.841" x2="130.824" xlink:href="#q" y1="117.989" y2="117.986"/><linearGradient id="z" gradientUnits="userSpaceOnUse" x1="140.89" x2="141.873" xlink:href="#q" y1="124.362" y2="124.36"/><linearGradient id="A" gradientUnits="userSpaceOnUse" x1="151.937" x2="152.921" xlink:href="#q" y1="130.736" y2="130.734"/><linearGradient id="B" gradientUnits="userSpaceOnUse" x1="162.985" x2="163.969" xlink:href="#q" y1="137.11" y2="137.107"/><linearGradient id="C"><stop offset="0" stop-color="#fff"/><stop offset="1" stop-color="#cfd3ed"/></linearGradient><linearGradient id="D" gradientUnits="userSpaceOnUse" x1="102.514" x2="103.748" xlink:href="#C" y1="114.92" y2="112.828"/><linearGradient id="E" gradientUnits="userSpaceOnUse" x1="135.399" x2="136.633" xlink:href="#C" y1="134.322" y2="132.23"/><linearGradient id="F" gradientUnits="userSpaceOnUse" x1="102.514" x2="103.748" xlink:href="#C" y1="121.518" y2="119.426"/><linearGradient id="G" gradientUnits="userSpaceOnUse" x1="135.399" x2="136.633" xlink:href="#C" y1="140.921" y2="138.829"/><linearGradient id="H" gradientUnits="userSpaceOnUse" x1="102.514" x2="103.748" xlink:href="#C" y1="128.115" y2="126.024"/><linearGradient id="I" gradientUnits="userSpaceOnUse" x1="135.399" x2="136.633" xlink:href="#C" y1="147.519" y2="145.427"/><linearGradient id="J" gradientUnits="userSpaceOnUse" x1="132.791" x2="133.752" xlink:href="#C" y1="160.276" y2="158.647"/><linearGradient id="K" gradientUnits="userSpaceOnUse" x1="128.152" x2="129.114" xlink:href="#C" y1="162.68" y2="161.05"/><linearGradient id="L" gradientUnits="userSpaceOnUse" x1="125.254" x2="126.215" xlink:href="#C" y1="166.109" y2="164.479"/><linearGradient id="M" gradientUnits="userSpaceOnUse" x1="90.1425" x2="170.263" xlink:href="#g" y1="160.496" y2="168.104"/><linearGradient id="N" gradientUnits="userSpaceOnUse" x1="130.77" x2="130.634" y1="72.931" y2="83.4949"><stop offset="0" stop-color="#fdae6e"/><stop offset=".99" stop-color="#fe5a71"/></linearGradient><linearGradient id="O" gradientUnits="userSpaceOnUse" x1="113.378" x2="114.603" xlink:href="#e" y1="88.4396" y2="100.533"/><linearGradient id="P"><stop offset="0" stop-color="#f3f4fb"/><stop offset="1" stop-color="#bcc2e6"/></linearGradient><linearGradient id="Q" gradientUnits="userSpaceOnUse" x1="44.2156" x2="30.5597" xlink:href="#P" y1="47.049" y2="13.9437"/><linearGradient id="R" gradientUnits="userSpaceOnUse" x1="56.7894" x2="30.6886" xlink:href="#c" y1="21.4192" y2="58.8602"/><linearGradient id="S" gradientUnits="userSpaceOnUse" x1="21.4704" x2="66.1124" xlink:href="#P" y1="3.35654" y2="26.339"/><linearGradient id="T" gradientUnits="userSpaceOnUse" x1="56.6761" x2="32.455" y1="21.5805" y2="56.3268"><stop offset="0" stop-color="#fff"/><stop offset="1" stop-color="#fcfcfe"/></linearGradient><linearGradient id="U" gradientUnits="userSpaceOnUse" x1="43.7188" x2="44.5952" xlink:href="#i" y1="54.3862" y2="52.8486"/><linearGradient id="V" gradientUnits="userSpaceOnUse" x1="40.3187" x2="41.1893" xlink:href="#i" y1="56.7697" y2="55.2423"/><linearGradient id="W" gradientUnits="userSpaceOnUse" x1="40.3187" x2="41.1893" xlink:href="#i" y1="61.0932" y2="59.5658"/><linearGradient id="X"><stop offset="0" stop-color="#ffc444"/><stop offset="1" stop-color="#f36f56"/></linearGradient><linearGradient id="Y" gradientUnits="userSpaceOnUse" x1="28.1798" x2="23.9198" xlink:href="#X" y1="31.4261" y2="35.1601"/><linearGradient id="Z" gradientUnits="userSpaceOnUse" x1="32.4035" x2="27.175" xlink:href="#X" y1="32.1356" y2="35.6038"/><linearGradient id="aa" gradientUnits="userSpaceOnUse" x1="36.6281" x2="30.2735" xlink:href="#X" y1="30.8863" y2="33.6228"/><linearGradient id="ab" gradientUnits="userSpaceOnUse" x1="40.8517" x2="34.9762" xlink:href="#X" y1="35.0973" y2="38.2142"/><linearGradient id="ac" gradientUnits="userSpaceOnUse" x1="45.0763" x2="38.7218" xlink:href="#X" y1="35.4923" y2="38.2288"/><linearGradient id="ad" gradientUnits="userSpaceOnUse" x1="49.3009" x2="42.5412" xlink:href="#X" y1="35.0314" y2="37.3176"/><linearGradient id="ae" gradientUnits="userSpaceOnUse" x1="53.5246" x2="48.2951" xlink:href="#X" y1="43.6502" y2="47.1209"/><linearGradient id="af"><stop offset="0" stop-color="#828282"/><stop offset="1" stop-color="#c1c0bf"/></linearGradient><linearGradient id="ag" gradientUnits="userSpaceOnUse" x1="17.6092" x2="93.059" xlink:href="#af" y1="199.743" y2="199.743"/><linearGradient id="ah"><stop offset="0" stop-color="#f6f6f6"/><stop offset="1" stop-color="#fff"/></linearGradient><linearGradient id="ai" gradientUnits="userSpaceOnUse" x1="75.6865" x2="33.7274" xlink:href="#ah" y1="208.956" y2="156.508"/><linearGradient id="aj" gradientUnits="userSpaceOnUse" x1="25.9108" x2="84.7844" xlink:href="#ah" y1="174.601" y2="174.601"/><linearGradient id="ak" gradientUnits="userSpaceOnUse" x1="17.6484" x2="93.0514" xlink:href="#ah" y1="194.295" y2="194.295"/><linearGradient id="al" gradientUnits="userSpaceOnUse" x1="76.7592" x2="113.779" y1="213.7" y2="213.7"><stop offset="0" stop-color="#f6f6f6"/><stop offset="1" stop-color="#d1d0cf"/></linearGradient><linearGradient id="am" gradientUnits="userSpaceOnUse" x1="105.69" x2="115.162" xlink:href="#af" y1="222.265" y2="222.265"/><linearGradient id="an" gradientUnits="userSpaceOnUse" x1="111.484" x2="121.09" xlink:href="#af" y1="233.351" y2="218.267"/><linearGradient id="ao" gradientUnits="userSpaceOnUse" x1="51.6539" x2="78.092" xlink:href="#e" y1="82.0433" y2="121.402"/><clipPath id="ap"><path d="m0 .586914h258v246.413h-258z"/></clipPath><g clip-path="url(#ap)"><g fill="#030611" opacity=".1"><path d="m72.3516 243.266c28.0924-.397 50.6944-12.846 50.4834-27.806-.212-14.96-23.1569-26.765-51.2493-26.368-28.0925.398-50.6945 12.847-50.483 27.806.2115 14.96 23.1564 26.765 51.2489 26.368z" opacity=".04"/><path d="m72.3442 242.794c27.6044-.39 49.8138-12.622 49.6058-27.321-.208-14.7-22.754-26.299-50.3584-25.909s-49.8138 12.623-49.6059 27.322c.2078 14.699 22.7541 26.299 50.3585 25.908z" opacity=".07"/><path d="m72.3377 242.324c27.1164-.383 48.9333-12.4 48.7293-26.839-.205-14.44-22.3522-25.834-49.4686-25.451-27.1163.383-48.9329 12.4-48.7288 26.839.2042 14.44 22.3518 25.835 49.4681 25.451z" opacity=".11"/><path d="m72.3316 241.854c26.6289-.376 48.0534-12.176 47.8524-26.356-.2-14.18-21.9495-25.37-48.5784-24.994-26.6289.377-48.0534 12.177-47.8529 26.357.2004 14.18 21.95 25.37 48.5789 24.993z" opacity=".15"/><path d="m72.3242 241.384c26.1408-.37 47.1728-11.954 46.9758-25.874s-21.5477-24.905-47.6885-24.536c-26.1409.37-47.1727 11.954-46.9758 25.874.1968 13.921 21.5477 24.906 47.6885 24.536z" opacity=".19"/><path d="m72.318 240.914c25.6535-.363 46.293-11.731 46.1-25.392-.193-13.66-21.146-24.44-46.7994-24.078-25.6534.363-46.2931 11.731-46.0999 25.392.1931 13.66 21.1459 24.44 46.7993 24.078z" opacity=".22"/><path d="m72.3116 240.444c25.1654-.356 45.4124-11.508 45.2224-24.909-.189-13.401-20.7432-23.976-45.9085-23.62-25.1654.356-45.4123 11.508-45.2229 24.909.1895 13.4 20.7436 23.976 45.909 23.62z" opacity=".26"/><path d="m72.3042 239.973c24.6773-.348 44.5318-11.284 44.3458-24.426-.186-13.141-20.3413-23.511-45.0186-23.162s-44.5316 11.285-44.3458 24.426 20.3413 23.511 45.0186 23.162z" opacity=".3"/><path d="m72.298 239.502c24.1899-.342 43.652-11.061 43.47-23.942s-19.9396-23.046-44.1295-22.704-43.652 11.062-43.4699 23.942c.1821 12.881 19.9395 23.046 44.1294 22.704z" opacity=".33"/><path d="m72.2916 239.032c23.7018-.335 42.7714-10.838 42.5924-23.46-.178-12.621-19.5368-22.581-43.2386-22.246s-42.7713 10.839-42.5928 23.46c.1784 12.621 19.5372 22.581 43.239 22.246z" opacity=".37"/><path d="m72.2842 238.561c23.2137-.328 41.8908-10.615 41.7158-22.976-.175-12.362-19.135-22.117-42.3487-21.789-23.2137.329-41.8905 10.616-41.7157 22.977.1748 12.362 19.1349 22.117 42.3486 21.788z" opacity=".41"/><path d="m72.278 238.092c22.7264-.322 41.011-10.393 40.84-22.495-.171-12.101-18.7332-21.651-41.4596-21.33-22.7263.321-41.0109 10.392-40.8398 22.494s18.7331 21.652 41.4594 21.331z" opacity=".44"/><path d="m72.2716 237.621c22.2383-.314 40.1304-10.169 39.9624-22.011-.167-11.842-18.3305-21.188-40.5687-20.873-22.2382.314-40.1302 10.169-39.9627 22.011.1674 11.842 18.3308 21.188 40.569 20.873z" opacity=".48"/><path d="m72.2645 237.151c21.7508-.307 39.2505-9.946 39.0865-21.528-.163-11.583-17.9287-20.723-39.6795-20.416-21.7509.308-39.2507 9.947-39.0869 21.529.1638 11.583 17.929 20.723 39.6799 20.415z" opacity=".52"/><path d="m72.2581 236.681c21.2627-.301 38.3699-9.723 38.2099-21.046s-17.5269-20.258-38.7897-19.958c-21.2627.301-38.3698 9.724-38.2097 21.046.1601 11.323 17.5267 20.259 38.7895 19.958z" opacity=".56"/><path d="m72.2516 236.21c20.7747-.294 37.4894-9.5 37.3324-20.563-.156-11.062-17.1241-19.792-37.8988-19.498s-37.4891 9.5-37.3327 20.562c.1564 11.063 17.1244 19.792 37.8991 19.499z" opacity=".59"/><path d="m72.2445 235.739c20.2872-.287 36.6095-9.276 36.4565-20.079-.152-10.803-16.7224-19.328-37.0096-19.041-20.2873.287-36.6096 9.277-36.4568 20.079.1527 10.803 16.7226 19.328 37.0099 19.041z" opacity=".63"/><path d="m72.2381 235.269c19.7992-.28 35.7289-9.054 35.5799-19.597s-16.3205-18.863-36.1197-18.583-35.7288 9.054-35.5798 19.597c.1491 10.543 16.3204 18.863 36.1196 18.583z" opacity=".67"/><path d="m72.2316 234.799c19.3112-.273 34.8484-8.831 34.7024-19.114-.145-10.284-15.9178-18.399-35.2289-18.126s-34.848 8.831-34.7026 19.115c.1454 10.283 15.918 18.398 35.2291 18.125z" opacity=".7"/><path d="m72.2245 234.329c18.8237-.266 33.9685-8.608 33.8265-18.632-.141-10.024-15.516-17.934-34.3397-17.668s-33.9685 8.608-33.8268 18.632c.1418 10.024 15.5163 17.934 34.34 17.668z" opacity=".74"/><path d="m72.2181 233.858c18.3356-.259 33.0879-8.384 32.9499-18.148-.138-9.765-15.1142-17.47-33.4498-17.211-18.3357.26-33.0877 8.385-32.9497 18.149.1381 9.764 15.1139 17.47 33.4496 17.21z" opacity=".78"/><path d="m72.2119 233.389c17.8482-.253 32.2081-8.162 32.0741-17.667-.135-9.504-14.7125-17.004-32.5607-16.752s-32.2082 8.162-32.0738 17.666c.1344 9.505 14.7122 17.005 32.5604 16.753z" opacity=".81"/><path d="m72.2045 232.917c17.3601-.245 31.3275-7.938 31.1965-17.182s-14.3097-16.539-31.6698-16.294c-17.3602.246-31.3274 7.939-31.1967 17.183s14.3098 16.539 31.67 16.293z" opacity=".85"/><path d="m72.1981 232.447c16.872-.239 30.4469-7.715 30.3199-16.7-.127-8.984-13.9079-16.074-30.7799-15.836-16.8721.239-30.4466 7.716-30.3196 16.7.127 8.985 13.9075 16.074 30.7796 15.836z" opacity=".89"/><path d="m72.1919 231.977c16.3847-.232 29.5671-7.493 29.4441-16.217-.124-8.725-13.5061-15.61-29.8908-15.379-16.3847.232-29.5671 7.493-29.4437 16.217.1233 8.725 13.5057 15.61 29.8904 15.379z" opacity=".93"/><path d="m72.1845 231.507c15.8966-.225 28.6865-7.27 28.5665-15.735s-13.1033-15.145-28.9999-14.92-28.6863 7.269-28.5666 15.734 13.1034 15.145 29 14.921z" opacity=".96"/><path d="m72.1781 231.036c15.4085-.217 27.8055-7.046 27.6895-15.251-.116-8.206-12.7011-14.681-28.1096-14.463s-27.8056 7.046-27.6895 15.252c.116 8.205 12.7011 14.68 28.1096 14.462z" opacity=".1"/></g><g fill="#030611" opacity=".1"><path d="m37.4278 106.56c20.1696-.285 36.3973-9.2227 36.2454-19.963-.1518-10.7403-16.6257-19.2159-36.7953-18.9307-20.1697.2852-36.397379 9.223-36.245529 19.9633s16.625729 19.2154 36.795429 18.9304z" opacity=".04"/><path d="m37.423 106.223c19.8196-.28 35.7656-9.0627 35.6164-19.6167-.1493-10.5541-16.3372-18.8826-36.1568-18.6024-19.8195.2802-35.76554 9.0631-35.61633 19.6171.14922 10.554 16.33713 18.883 36.15673 18.602z" opacity=".07"/><path d="m37.4183 105.886c19.4695-.275 35.1338-8.9032 34.9872-19.2709-.1466-10.3678-16.0486-18.5494-35.5181-18.2741-19.4695.2752-35.1338 8.9031-34.98722 19.2709.14658 10.3677 16.04852 18.5491 35.51812 18.2741z" opacity=".11"/><path d="m37.4135 105.548c19.1194-.271 34.502-8.7431 34.3581-18.9239s-15.76-18.2149-34.8794-17.9446-34.50208 8.7426-34.35814 18.9235c.14395 10.1808 15.75994 18.215 34.87944 17.945z" opacity=".15"/><path d="m37.4085 105.21c18.7686-.265 33.8691-8.5825 33.7278-18.5771-.1414-9.9945-15.4709-17.8816-34.2396-17.6163-18.7686.2654-33.86906 8.5827-33.72775 18.5773.1413 9.9945 15.47085 17.8821 34.23955 17.6161z" opacity=".19"/><path d="m37.4037 104.873c18.4186-.26 33.2374-8.4224 33.0987-18.2308-.1387-9.8083-15.1823-17.5484-33.6009-17.288-18.4185.2604-33.23732 8.4227-33.09865 18.231s15.18225 17.5488 33.60085 17.2878z" opacity=".22"/><path d="m37.3989 104.534c18.0685-.255 32.6056-8.2618 32.4696-17.8832s-14.8937-17.214-32.9622-16.9585c-18.0685.2554-32.6056 8.2622-32.46956 17.8835.13603 9.6214 14.89366 17.2142 32.96216 16.9582z" opacity=".26"/><path d="m37.3932 104.197c17.7184-.25 31.9739-8.1018 31.8405-17.5369-.1334-9.4352-14.6052-16.8808-32.3236-16.6303s-31.97384 8.1023-31.84044 17.5374c.1334 9.4352 14.60514 16.8808 32.32354 16.6298z" opacity=".3"/><path d="m37.3891 103.859c17.3677-.246 31.3409-7.9421 31.2102-17.1903-.1308-9.2482-14.316-16.5463-31.6837-16.3008-17.3676.2455-31.34085 7.9417-31.2101 17.1899.13076 9.2482 14.316 16.5462 31.6836 16.3012z" opacity=".33"/><path d="m37.3844 103.522c17.0175-.241 30.7091-7.7821 30.581-16.844-.1281-9.062-14.0274-16.2131-31.045-15.9725-17.0175.2406-30.70912 7.7818-30.58099 16.8437.12812 9.062 14.02739 16.2128 31.04499 15.9728z" opacity=".37"/><path d="m37.3796 103.184c16.6675-.235 30.0774-7.6216 29.9519-16.4972-.1255-8.8757-13.7388-15.8799-30.4063-15.6442-16.6675.2356-30.07738 7.6218-29.95189 16.4975s13.73889 15.8799 30.40629 15.6439z" opacity=".41"/><path d="m37.3749 102.846c16.3173-.231 29.4456-7.4615 29.3227-16.1502-.1228-8.6888-13.4502-15.5454-29.7676-15.3147s-29.44565 7.4614-29.3228 16.1501c.12284 8.6888 13.4503 15.5458 29.7677 15.3148z" opacity=".44"/><path d="m37.3708 102.508c15.9666-.225 28.8127-7.3009 28.6925-15.8034s-13.1612-15.2121-29.1278-14.9864c-15.9666.2258-28.81266 7.3014-28.69245 15.8039s13.16115 15.2119 29.12775 14.9859z" opacity=".48"/><path d="m37.3661 102.172c15.6165-.221 28.1809-7.1418 28.0633-15.4581-.1176-8.3162-12.8726-14.8789-28.4891-14.6581s-28.18092 7.1414-28.06334 15.4576c.11757 8.3163 12.87254 14.8786 28.48914 14.6586z" opacity=".52"/><path d="m37.3613 101.833c15.2664-.216 27.5492-6.9812 27.4342-15.1105-.1149-8.1293-12.584-14.5445-27.8504-14.3286-15.2665.2158-27.54919 6.9809-27.43426 15.1102.11494 8.1293 12.58396 14.5449 27.85046 14.3289z" opacity=".56"/><path d="m36.8213 101.882c14.9178-.149 26.9467-6.7095 26.8673-14.6534-.0794-7.9438-12.2371-14.2626-27.155-14.1135-14.9178.1492-26.94674 6.7099-26.8673 14.6538.07944 7.9438 12.2371 14.2631 27.155 14.1131z" opacity=".59"/><path d="m37.3515 101.157c14.5656-.206 26.2844-6.6601 26.1748-14.4162-.1097-7.7561-12.0063-13.8767-26.5719-13.6708s-26.2844 6.6604-26.1748 14.4166c.1097 7.7561 12.0063 13.8764 26.5719 13.6704z" opacity=".63"/><path d="m37.3467 100.82c14.2156-.201 25.6527-6.5005 25.5457-14.0704-.107-7.5698-11.7177-13.5435-25.9332-13.3425s-25.6527 6.5005-25.5457 14.0703c.107 7.5699 11.7177 13.5436 25.9332 13.3426z" opacity=".67"/><path d="m37.341 100.483c13.8654-.196 25.021-6.341 24.9166-13.7246s-11.4292-13.2102-25.2946-13.0142-25.021 6.3405-24.9166 13.7241 11.4292 13.2107 25.2946 13.0147z" opacity=".7"/><path d="m37.3362 100.144c13.5154-.1909 24.3892-6.1799 24.2875-13.3765-.1018-7.1967-11.1406-12.8758-24.6559-12.6848-13.5154.1911-24.3892 6.1801-24.2875 13.3767.1018 7.1967 11.1406 12.8756 24.6559 12.6846z" opacity=".74"/><path d="m37.3322 99.8068c13.1646-.1861 23.7562-6.0201 23.6571-13.0305s-10.8514-12.5426-24.016-12.3565c-13.1646.1862-23.7562 6.0201-23.6571 13.0305s10.8514 12.5426 24.016 12.3565z" opacity=".78"/><path d="m37.3275 99.4699c12.8144-.1812 23.1244-5.8601 23.0279-12.6843-.0964-6.8241-10.5629-12.2094-23.3773-12.0282-12.8145.1812-23.1245 5.8601-23.028 12.6843.0965 6.8241 10.5629 12.2093 23.3774 12.0282z" opacity=".81"/><path d="m37.3227 99.1315c12.4644-.1762 22.4927-5.6996 22.3989-12.3369-.0939-6.6372-10.2743-11.8749-22.7387-11.6986-12.4644.1762-22.4928 5.6996-22.3989 12.3368.0938 6.6372 10.2743 11.8749 22.7387 11.6987z" opacity=".85"/><path d="m37.3179 98.7941c12.1143-.1713 21.861-5.5397 21.7698-11.9907-.0912-6.4509-9.9857-11.5416-22.1001-11.3703-12.1143.1712-21.8609 5.5396-21.7697 11.9906.0912 6.4509 9.9857 11.5416 22.1 11.3704z" opacity=".89"/><path d="m37.3119 98.4557c11.7636-.1663 21.228-5.3792 21.1394-11.6432-.0885-6.264-9.6965-11.2072-21.4601-11.0409-11.7635.1663-21.228 5.3792-21.1394 11.6432.0885 6.264 9.6966 11.2072 21.4601 11.0409z" opacity=".93"/><path d="m37.3081 98.1183c11.4135-.1614 20.5963-5.2192 20.5103-11.297-.0859-6.0778-9.408-10.874-20.8214-10.7126-11.4135.1614-20.5963 5.2192-20.5104 11.297.086 6.0777 9.4081 10.8739 20.8215 10.7126z" opacity=".96"/><path d="m36.7835 98.1676c11.0645-.1106 19.9863-4.9768 19.9274-10.8689-.059-5.8921-9.0763-10.5789-20.1407-10.4683-11.0645.1107-19.9863 4.9769-19.9274 10.869s9.0762 10.5789 20.1407 10.4682z" opacity=".1"/></g><g fill="#030611" opacity=".1"><path d="m124.104 208.585c28.092-.397 50.694-12.847 50.483-27.806-.212-14.96-23.157-26.765-51.249-26.368-28.0929.397-50.6949 12.847-50.4834 27.806.2115 14.96 23.1565 26.765 51.2494 26.368z" opacity=".04"/><path d="m124.097 208.113c27.604-.39 49.814-12.622 49.606-27.322-.208-14.699-22.754-26.299-50.359-25.908-27.6039.39-49.8132 12.622-49.6054 27.322.2078 14.699 22.7541 26.299 50.3584 25.908z" opacity=".07"/><path d="m124.091 207.643c27.116-.383 48.933-12.4 48.728-26.839-.204-14.44-22.351-25.835-49.468-25.451-27.1159.383-48.9326 12.399-48.7284 26.839.2041 14.44 22.3518 25.834 49.4684 25.451z" opacity=".11"/><path d="m124.085 207.173c26.628-.376 48.053-12.177 47.852-26.356-.2-14.18-21.95-25.37-48.579-24.994-26.6284.377-48.0529 12.177-47.8524 26.357s21.95 25.37 48.5794 24.993z" opacity=".15"/><path d="m124.077 206.703c26.141-.37 47.173-11.954 46.976-25.874s-21.548-24.905-47.689-24.536c-26.1404.37-47.1722 11.954-46.9754 25.874s21.5477 24.905 47.6884 24.536z" opacity=".19"/><path d="m124.071 206.232c25.653-.362 46.293-11.73 46.1-25.391-.193-13.66-21.146-24.44-46.799-24.078-25.6539.363-46.2936 11.731-46.1004 25.392.1931 13.66 21.1459 24.44 46.7994 24.077z" opacity=".22"/><path d="m124.065 205.763c25.165-.356 45.412-11.508 45.222-24.909-.189-13.401-20.743-23.976-45.909-23.62-25.1649.356-45.4119 11.507-45.2224 24.908.1894 13.401 20.7436 23.976 45.9094 23.621z" opacity=".26"/><path d="m124.057 205.292c24.677-.349 44.532-11.284 44.346-24.426-.186-13.141-20.341-23.511-45.019-23.162-24.677.349-44.5312 11.284-44.3454 24.426.1858 13.141 20.3413 23.511 45.0184 23.162z" opacity=".3"/><path d="m124.051 204.821c24.19-.342 43.652-11.061 43.47-23.942s-19.94-23.046-44.13-22.704c-24.1894.342-43.6516 11.061-43.4695 23.942.1822 12.881 19.9396 23.046 44.1295 22.704z" opacity=".33"/><path d="m124.045 204.351c23.701-.336 42.771-10.839 42.592-23.46-.178-12.621-19.537-22.581-43.239-22.246-23.7015.335-42.7709 10.838-42.5925 23.46.1785 12.621 19.5375 22.581 43.2395 22.246z" opacity=".37"/><path d="m124.037 203.881c23.214-.328 41.891-10.615 41.716-22.977s-19.135-22.116-42.349-21.788c-23.213.328-41.8902 10.615-41.7155 22.976.1748 12.362 19.1345 22.117 42.3485 21.789z" opacity=".41"/><path d="m124.031 203.41c22.726-.321 41.011-10.392 40.84-22.494s-18.733-21.652-41.46-21.33c-22.726.321-41.0106 10.392-40.8395 22.494s18.7335 21.652 41.4595 21.33z" opacity=".44"/><path d="m124.025 202.94c22.238-.314 40.13-10.169 39.962-22.011-.167-11.843-18.331-21.188-40.569-20.873-22.238.314-40.1299 10.169-39.9625 22.011s18.3305 21.187 40.5695 20.873z" opacity=".48"/><path d="m124.017 202.47c21.751-.307 39.251-9.946 39.087-21.529-.163-11.582-17.929-20.722-39.68-20.415-21.75.308-39.2502 9.946-39.0865 21.529.1638 11.583 17.9295 20.723 39.6795 20.415z" opacity=".52"/><path d="m124.011 202c21.263-.301 38.37-9.723 38.21-21.046s-17.527-20.258-38.79-19.958c-21.262.301-38.3696 9.723-38.2095 21.046s17.5265 20.258 38.7895 19.958z" opacity=".56"/><path d="m124.005 201.529c20.774-.294 37.489-9.5 37.332-20.563-.156-11.062-17.124-19.792-37.899-19.498-20.775.293-37.4889 9.499-37.3325 20.562.1564 11.062 17.1245 19.792 37.8995 19.499z" opacity=".59"/><path d="m123.997 201.058c20.288-.287 36.61-9.277 36.457-20.079-.153-10.803-16.722-19.328-37.01-19.041-20.287.287-36.6092 9.276-36.4565 20.079s16.7225 19.328 37.0095 19.041z" opacity=".63"/><path d="m123.991 200.588c19.799-.28 35.729-9.054 35.58-19.597s-16.321-18.863-36.12-18.583-35.7286 9.053-35.5795 19.597c.149 10.543 16.3205 18.863 36.1195 18.583z" opacity=".67"/><path d="m123.985 200.118c19.311-.273 34.848-8.831 34.702-19.114-.145-10.284-15.918-18.399-35.229-18.126s-34.8479 8.831-34.7026 19.114c.1454 10.284 15.9176 18.399 35.2296 18.126z" opacity=".7"/><path d="m123.977 199.648c18.824-.266 33.969-8.608 33.827-18.632s-15.516-17.934-34.34-17.668c-18.823.266-33.9683 8.608-33.8265 18.632.1417 10.024 15.5165 17.934 34.3395 17.668z" opacity=".74"/><path d="m123.971 199.177c18.336-.259 33.088-8.384 32.95-18.149-.138-9.764-15.114-17.469-33.45-17.21s-33.0876 8.385-32.9496 18.149c.1381 9.764 15.1136 17.47 33.4496 17.21z" opacity=".78"/><path d="m123.965 198.707c17.848-.252 32.208-8.161 32.074-17.666-.135-9.504-14.713-17.005-32.561-16.752-17.848.252-32.2079 8.161-32.0736 17.666.1344 9.504 14.7126 17.005 32.5606 16.752z" opacity=".81"/><path d="m123.957 198.236c17.361-.245 31.328-7.938 31.197-17.182s-14.31-16.539-31.67-16.294c-17.36.246-31.3273 7.938-31.1966 17.183.1307 9.244 14.3096 16.539 31.6696 16.293z" opacity=".85"/><path d="m123.951 197.766c16.872-.239 30.447-7.715 30.32-16.7-.127-8.984-13.908-16.074-30.78-15.836-16.872.239-30.4466 7.715-30.3196 16.7.127 8.984 13.9076 16.074 30.7796 15.836z" opacity=".89"/><path d="m123.945 197.295c16.385-.231 29.567-7.492 29.444-16.217-.124-8.724-13.506-15.609-29.891-15.378-16.385.232-29.5669 7.492-29.4436 16.217.1234 8.725 13.5056 15.61 29.8906 15.378z" opacity=".93"/><path d="m123.937 196.826c15.897-.225 28.687-7.27 28.567-15.735s-13.103-15.145-29-14.92c-15.897.224-28.6863 7.269-28.5666 15.734s13.1036 15.145 28.9996 14.921z" opacity=".96"/><path d="m123.931 196.355c15.409-.218 27.806-7.046 27.69-15.251-.116-8.206-12.702-14.681-28.11-14.463-15.409.218-27.8056 7.046-27.6896 15.251.116 8.206 12.7016 14.681 28.1096 14.463z" opacity=".1"/></g><path d="m91.0225 159.58v-149.4223l85.1235 49.3117v149.4236l-4.896 2.742z" fill="url(#b)"/><path d="m86.126 162.322v-149.4231l85.124 49.3129v149.4232z" fill="url(#d)"/><path d="m86.126 12.899 4.8968-2.7413 85.1242 49.3117-4.897 2.7426z" fill="url(#f)"/><path d="m86.126 12.8989 85.124 49.3129v14.6015l-85.124-49.3117z" fill="url(#h)"/><path d="m171.25 62.2119-85.1243-49.313v.0456l-.0319-.0197v.0689l85.0732 49.2846v14.5326l.049.0283v-.0443l.034.0184z" fill="url(#j)"/><path d="m171.25 62.2118 4.897-2.7426v14.6027l-4.897 2.7414z" fill="url(#k)"/><path d="m96.3004 25.3327c0-.0369 0-.0738 0-.1108 0-.0369 0-.0726-.0086-.1095-.0086-.037-.0074-.0751-.0123-.112-.005-.037-.0099-.0764-.016-.1145l-.0185-.1096c-.0074-.0394-.016-.0788-.0246-.1231s-.0185-.0787-.0283-.1231c-.0099-.0443-.0197-.0812-.0308-.1231l-.0271-.0898c-.0004-.0033-.0004-.0066 0-.0099 0-.0073 0-.0135 0-.0197-.0123-.0393-.0246-.0787-.0382-.1231-.0135-.0443-.0258-.0775-.0394-.1157l-.0418-.112c-.0148-.0369-.0295-.0738-.0455-.1108-.016-.0369-.0222-.0529-.0345-.08.0005-.0024.0005-.0049 0-.0074 0-.0073 0-.0147-.0086-.0209l-.0505-.1108c-.0197-.0394-.0382-.0788-.0579-.1231l-.0701-.1366c-.0259-.0468-.0529-.0936-.08-.1403l-.0148-.0259c0-.0111-.0111-.0221-.0185-.0332-.0529-.0911-.1095-.181-.1674-.2684-.0455-.0677-.0923-.1341-.1415-.2006-.0333-.0455-.0665-.0899-.101-.1329-.0344-.0431-.0578-.0727-.0874-.1071-.0295-.0345-.0578-.069-.0874-.1034l-.0886-.0985-.016-.016-.0074-.0074-.0689-.0739-.096-.0947-.0998-.0924c-.0332-.0307-.0677-.059-.1021-.0886l-.0493-.0406-.0123-.0099-.0394-.032-.0997-.0763-.0985-.0701-.0972-.0641-.096-.059-.0456-.0099-.0713-.0394c-.0304-.0172-.0612-.0332-.0924-.048l-.0911-.0431-.0898-.0381-.0911-.0345-.0197-.0062-.0653-.0209c-.0307-.0098-.0615-.0184-.0935-.0258l-.0923-.021-.0985-.016-.0689-.0073h-.0099-.0148-.1144c-.0394 0-.0788 0-.1231 0-.0444 0-.0874.011-.1305.0197h-.0099c-.0503.0107-.1001.0243-.1489.0406-.0635.023-.1248.0514-.1834.0849l-1.6975.9848c.1038-.0588.2165-.1003.3336-.1231.1256-.0247.2541-.0314.3815-.0197h.0099c.1422.0139.2823.0444.4173.0911.159.0554.3123.1259.4579.2105.1591.0929.3106.1982.453.3151l.0123.0098c.1477.1206.2871.251.4173.3902l.0074.0074c.136.146.2634.2997.3816.4604.1182.1613.2275.329.3274.5022l.0148.0259c.0979.1712.1867.3474.2659.5281v.0073c.0794.1817.148.3679.2056.5577v.0073c.0561.184.0997.3715.1305.5614.0291.1823.0439.3667.0443.5514.0005.1653-.0152.3302-.0468.4924v.0135c-.0249.1382-.0662.2729-.1231.4013.0005.0025.0005.005 0 .0074-.0382.0727-.0827.1419-.1329.2068-.0912.1371-.2103.2533-.3496.341l1.6962-.9848c.1397-.0878.2588-.2045.3496-.3422.0123-.0172.032-.0246.0444-.0431.0323-.05.0611-.1022.0861-.1563v-.0074s0 0 0-.0061c.0173-.037.0333-.0751.0493-.1157.016-.0407.027-.0788.0393-.1231.0124-.0444.021-.0764.0296-.117 0-.016.0074-.0332.0111-.0492v-.0136c0-.016 0-.032.0098-.048 0-.0357.0111-.0714.016-.1083s.0086-.0726.0111-.1095c.0025-.037 0-.0714.0062-.1071.0061-.0357 0-.0727 0-.1108v.0061c.0197-.0406.0184-.0738.0172-.1083z" fill="url(#l)"/><path d="m92.3373 22.4929c1.2606.7288 2.2712 2.489 2.2675 3.928s-1.0217 2.0286-2.2822 1.3011-2.2638-2.4841-2.2601-3.923c.0037-1.439 1.0217-2.0286 2.2748-1.3061z" fill="url(#m)"/><path d="m103.94 29.9549c0-.0357 0-.0727 0-.1096s0-.0738-.01-.1108c-.01-.0369-.007-.0738-.012-.1108-.005-.0369-.01-.0763-.016-.1144v-.0062c0-.0357-.013-.0726-.019-.1095-.006-.037-.016-.0788-.024-.1231-.009-.0444-.018-.0801-.028-.1231-.009-.0431-.02-.08-.032-.1231-.011-.0431-.017-.0603-.027-.0911.001-.0033.001-.0066 0-.0099 0-.0065 0-.0131 0-.0197-.012-.0394-.025-.0787-.038-.1231l-.04-.1169c-.014-.0369-.027-.0739-.042-.1108l-.045-.1108c-.011-.027-.023-.0541-.034-.08v-.0086l-.009-.0197c-.016-.0369-.033-.0738-.05-.1108-.017-.0369-.038-.08-.058-.1231s-.047-.0911-.07-.1366c-.024-.0455-.053-.0936-.079-.1403l-.015-.0271-.018-.0332c-.054-.0911-.111-.1798-.169-.2672s-.092-.1354-.14-.2006l-.1-.1317-.087-.1083-.089-.1022c-.028-.0332-.058-.0665-.088-.0985l-.017-.0172v-.0074l-.07-.0726-.096-.0948-.099-.0936-.101-.0874-.051-.0418-.012-.0099-.039-.0307c-.032-.0271-.067-.0517-.1-.0764-.033-.0246-.065-.048-.099-.0714l-.097-.064-.096-.059-.022-.0124-.072-.0406-.093-.048-.091-.0431-.09-.0381-.091-.0345-.02-.0061-.065-.0222-.092-.0246c-.032-.0086-.063-.0148-.094-.0209-.031-.0062-.065-.0124-.098-.016l-.069-.0074h-.01-.022-.106c-.041 0-.079 0-.123.0061-.044.0037-.088.0098-.131.0185h-.007c-.052.0104-.102.0244-.152.0418-.063.0226-.125.051-.183.085l-1.6975.9847c.1039-.0587.2165-.1003.3336-.1231.1253-.0241.2533-.0307.3804-.0197.1434.0135.2848.0441.421.0911h.0074c.1584.0544.3109.1246.4554.2093.1597.0929.3107.1978.4547.3139l.011.0098c.147.1206.287.251.417.3902l.007.0074c.136.146.264.2997.382.4604.118.1608.228.3281.327.501l.015.0271c.099.1704.188.3463.266.5268v.0086c.079.1813.148.3671.206.5564v.0074c.053.1847.094.3726.123.5625.029.1828.044.3676.044.5527.001.1653-.014.3302-.046.4924v.0136c-.025.1381-.066.2728-.123.4013v.0073c-.037.0731-.082.1424-.133.2068-.09.1374-.21.2537-.349.341l1.696-.9848c.14-.087.259-.2033.35-.3409.013-.0173.033-.0246.045-.0431.032-.0506.06-.1028.086-.1563 0 0 0 0 0-.0074s0 0 0-.0062c.018-.0381.035-.0763.05-.1157.014-.0394.027-.0788.039-.1231s.021-.0763.031-.1157c0-.016 0-.0332.01-.0505v-.0135c0-.016.007-.0308.009-.048.003-.0172.012-.0714.016-.1083.005-.037.009-.0727.012-.1096.002-.0369 0-.0701.007-.1071.007-.0369 0-.0726 0-.1095v-.0062c-.005-.0246-.005-.0529-.006-.0935z" fill="url(#n)"/><path d="m99.976 27.116c1.261.7275 2.272 2.4878 2.267 3.928-.004 1.4402-1.021 2.0273-2.2818 1.2998-1.2605-.7274-2.2637-2.4828-2.26-3.923s1.0217-2.0286 2.2748-1.3048z" fill="url(#o)"/><path d="m107.613 31.7385c1.262.7288 2.273 2.489 2.269 3.928s-1.023 2.0286-2.283 1.3011c-1.261-.7275-2.264-2.484-2.259-3.923s1.022-2.0286 2.273-1.3061z" fill="url(#p)"/><g stroke-width="3"><path d="m98.3652 88.5591 64.8438 37.9389" stroke="url(#r)" stroke-miterlimit="10"/><path d="m98.3652 77.4067 64.8438 37.9403" stroke="url(#s)" stroke-miterlimit="10"/><path d="m98.3652 66.2554 64.8438 37.9386" stroke="url(#t)" stroke-miterlimit="10"/><path d="m98.3652 55.1045 64.8438 37.939" stroke="url(#u)" stroke-miterlimit="10"/><path d="m98.3652 43.9521 64.8438 37.9403" stroke="url(#v)" stroke-miterlimit="10"/><path d="m107.61 49.5723v55.6687" stroke="url(#w)" stroke-miterlimit="10"/><path d="m118.658 55.9463v55.6687" stroke="url(#x)" stroke-miterlimit="10"/><path d="m129.706 62.3203v55.6687" stroke="url(#y)" stroke-miterlimit="10"/><path d="m140.755 68.6938v55.6682" stroke="url(#z)" stroke-miterlimit="10"/><path d="m151.803 75.0679v55.6681" stroke="url(#A)" stroke-miterlimit="10"/><path d="m162.851 81.4414v55.6686" stroke="url(#B)" stroke-miterlimit="10"/></g><path d="m106.342 117.824-7.6638-4.555c-.9035-.537-1.6421-1.715-1.6421-2.618 0-.904.7386-1.204 1.6421-.667l7.6638 4.554c.904.537 1.644 1.715 1.644 2.618.003.904-.737 1.204-1.644.668z" fill="url(#D)"/><path d="m158.695 148.914-46.592-27.671c-.902-.537-1.642-1.715-1.642-2.618 0-.904.739-1.204 1.642-.667l46.592 27.671c.904.537 1.642 1.715 1.642 2.617 0 .905-.738 1.204-1.642.668z" fill="url(#E)"/><path d="m106.342 124.421-7.6638-4.554c-.9035-.537-1.6421-1.715-1.6421-2.618s.7386-1.203 1.6421-.666l7.6638 4.554c.904.537 1.644 1.715 1.644 2.617.003.901-.737 1.204-1.644.667z" fill="url(#F)"/><path d="m158.695 155.512-46.592-27.671c-.902-.537-1.642-1.715-1.642-2.618 0-.904.739-1.203 1.642-.668l46.592 27.673c.904.537 1.642 1.715 1.642 2.618s-.738 1.198-1.642.666z" fill="url(#G)"/><path d="m106.342 131.02-7.6638-4.554c-.9035-.537-1.6421-1.715-1.6421-2.618 0-.904.7386-1.204 1.6421-.668l7.6638 4.555c.904.537 1.644 1.715 1.644 2.618.003.904-.737 1.203-1.644.667z" fill="url(#H)"/><path d="m158.695 162.11-46.592-27.671c-.902-.537-1.642-1.715-1.642-2.617 0-.904.739-1.204 1.642-.667l46.592 27.671c.904.536 1.642 1.714 1.642 2.617 0 .904-.738 1.204-1.642.667z" fill="url(#I)"/><path d="m146.298 169.041-27.016-16.046c-.703-.418-1.279-1.335-1.279-2.04 0-.702.576-.936 1.279-.519l27.016 16.045c.704.418 1.28 1.336 1.28 2.04.001.703-.576.94-1.28.52z" fill="url(#J)"/><path d="m146.298 174.18-36.292-21.555c-.703-.418-1.279-1.336-1.279-2.039 0-.704.576-.938 1.279-.519l36.292 21.554c.704.418 1.28 1.335 1.28 2.039.002.704-.576.938-1.28.52z" fill="url(#K)"/><path d="m140.502 175.876-30.496-18.108c-.703-.419-1.279-1.336-1.279-2.04 0-.703.576-.937 1.279-.52l30.496 18.113c.702.417 1.279 1.335 1.279 2.038 0 .702-.577.936-1.279.517z" fill="url(#L)"/><path d="m160.337 191.994-63.2989-37.593v-21.944l63.2989 37.593z" stroke="url(#M)" stroke-miterlimit="10" stroke-width="3"/><path d="m162.559 83.9085-10.845-4.6702-10.975 1.9597-11.033-2.4336-11.293 2.4914-6.7-6.9831-13.2296 2.1431-.2363-1.4575 13.9949-2.2674 6.662 6.9425 10.802-2.3818 11.064 2.4397 11.121-1.9855 11.252 4.845z" fill="url(#N)"/><path d="m98.3652 90.8463h17.2088l7.544 7.121 17.276-7.121 11.409.8542 11.048-4.0609" stroke="url(#O)" stroke-miterlimit="10" stroke-width="12"/><path d="m21.4365 63.8132 2.0951-63.226286 41.0135 23.758486v61.8255l-4.4549 2.7228z" fill="url(#Q)"/><path d="m19.0762 65.1338v-61.82423l41.0134 23.75853v61.8254z" fill="url(#R)"/><path d="m19.0762 3.30977 4.4548-2.722856 41.0135 23.758486-4.4549 2.7229z" fill="url(#S)"/><path d="m19.0762 3.30957v.3102l40.7401 23.60213v61.5141l.2733.1575v-61.8254z" fill="url(#T)"/><path d="m51.4407 58.4883-15.4499-8.8357c-.5343-.3028-.9713-.9848-.9713-1.5215 0-.5342.437-.725.9713-.4222l15.4499 8.8358c.5354.3015.9724.9847.9724 1.5214.0037.5342-.4333.7238-.9724.4222z" fill="url(#U)"/><path d="m51.4405 62.8098-22.2473-12.6665c-.5355-.3028-.9725-.9847-.9725-1.5214 0-.5343.437-.7251.9725-.4222l22.2473 12.6664c.5354.3016.9724.9847.9724 1.5214.0037.5343-.4333.7201-.9724.4223z" fill="url(#V)"/><path d="m51.4405 67.132-22.2473-12.6664c-.5355-.3016-.9725-.9848-.9725-1.5215 0-.5342.437-.725.9725-.4222l22.2473 12.6665c.5354.3028.9724.9847.9724 1.5214.0037.5342-.4333.725-.9724.4222z" fill="url(#W)"/><path d="m28.7083 36.395-2.3782-1.2962.0012-5.6857 2.377 1.2962z" fill="url(#Y)"/><path d="m32.9317 38.6981-2.377-1.2962v-7.9248l2.377 1.2961z" fill="url(#Z)"/><path d="m37.1566 41.0003-2.3783-1.2949.0013-12.9163 2.377 1.2961z" fill="url(#aa)"/><path d="m41.3799 43.3032-2.377-1.2962v-10.2341l2.377 1.2962z" fill="url(#ab)"/><path d="m45.6048 45.6063-2.3782-1.2962.0012-12.9151 2.377 1.2962z" fill="url(#ac)"/><path d="m49.8282 47.9094-2.377-1.2962v-16.7987l2.3782 1.2961z" fill="url(#ad)"/><path d="m54.053 50.2127-2.3782-1.2962.0012-7.9248 2.377 1.2962z" fill="url(#ae)"/><path d="m26.0526 192.357c.0467-.246.1231-.502.1883-.753.0775-.293.1489-.589.2523-.879.0862-.246.1995-.48.3041-.719.1329-.307.2659-.616.4284-.916.228-.429.4795-.845.7533-1.246.0456-.066.0973-.133.144-.198.3018-.419.6247-.822.9676-1.209.0665-.075.1231-.151.1945-.226.3779-.414.7964-.819 1.2396-1.218.2819-.254.597-.499.9047-.747.2721-.218.533-.439.8248-.651.3323-.246.6992-.473 1.0586-.706.3594-.234.7214-.493 1.119-.719.9005-.515 1.8265-.983 2.7746-1.404.2757-.123.5588-.246.8395-.358.7525-.315 1.5227-.607 2.3105-.875.2844-.097.5626-.202.8506-.292.4924-.156 1.002-.293 1.5079-.431.3878-.105.7706-.217 1.1633-.312.533-.13 1.0771-.237 1.62-.347.3693-.075.7386-.16 1.1177-.227 1.1005-.194 2.2157-.347 3.3445-.465.3484-.037.6992-.059 1.0488-.088.661-.055 1.3221-.103 1.9868-.133.4259-.018.8518-.027 1.279-.034.5367-.011 1.0738-.014 1.6113-.009.4506.007.8999.02 1.3541.039.4981.019.9954.046 1.4919.08.4555.03.9085.07 1.3615.113.4924.047.9823.102 1.4697.165.4407.056.879.118 1.3147.186.5256.081 1.0463.173 1.5646.272.4074.077.8137.157 1.2174.246.6155.135 1.231.288 1.8317.449.336.089.6758.174 1.0082.271 1.0807.315 2.1381.668 3.1599 1.067.5083.197.9983.414 1.4894.632.2462.113.5133.214.762.332.7386.352 1.4661.726 2.1603 1.128 2.9039 1.676 5.0803 3.615 6.5242 5.683s2.1714 4.266 2.1653 6.464l.0295-10.702c.0123-4.394-2.8866-8.794-8.6956-12.147-.6942-.402-1.4168-.775-2.1603-1.128-.2462-.123-.5096-.219-.762-.332-.4407-.196-.8727-.399-1.327-.577-.0517-.021-.1095-.035-.1612-.055-1.0217-.398-2.0779-.751-3.1599-1.067-.0874-.026-.1674-.061-.2561-.086-.2462-.07-.5071-.123-.757-.186-.6032-.16-1.2088-.313-1.8255-.448-.165-.036-.3238-.085-.4924-.123-.2462-.051-.4924-.081-.7386-.123-.517-.099-1.0353-.19-1.5584-.271-.2117-.032-.4173-.079-.629-.11-.2118-.03-.4604-.048-.6894-.076-.4874-.062-.977-.117-1.4685-.165-.2351-.022-.4678-.059-.7041-.077-.2364-.019-.4395-.021-.6586-.036-.4924-.035-.9893-.061-1.4907-.08-.2462-.01-.4998-.033-.7509-.041-.1994 0-.3976 0-.597 0-.5392-.007-1.0771 0-1.6175.008-.2671 0-.5343 0-.8014 0-.1575 0-.3126.024-.4702.03-.6684.03-1.3319.079-1.9954.133-.2659.023-.5343.027-.7989.055-.0813.007-.1613.024-.2462.033-1.1276.118-2.2432.273-3.347.466-.0542.009-.1108.013-.165.022-.3188.058-.6278.138-.9441.202-.5466.111-1.0931.219-1.6286.349-.3914.095-.7718.207-1.1571.311-.5084.139-1.018.276-1.5153.433-.1071.034-.2191.058-.3262.093-.1785.058-.3422.136-.5195.197-.7903.269-1.5613.561-2.313.876-.2819.123-.5638.234-.8395.358-.9482.421-1.8742.889-2.7746 1.404-.1231.07-.2462.141-.3595.213-.2708.162-.501.338-.7582.506-.3607.233-.7275.465-1.0611.707-.2905.211-.5515.431-.8223.649-.309.246-.6241.492-.9072.748-.0567.052-.1231.1-.1822.152-.3779.348-.7275.705-1.0574 1.066-.0677.075-.1231.151-.1933.226-.1969.223-.3976.445-.5761.671-.1391.177-.2634.358-.3914.538-.048.067-.0985.132-.1453.198-.2339.339-.453.679-.6475 1.023-.0418.074-.0652.149-.1046.223-.1637.303-.2954.616-.4296.917-.0776.179-.1822.355-.2462.534-.0234.061-.0308.123-.0529.184-.1034.291-.1748.584-.2524.879-.0517.199-.1305.395-.1711.594-.0098.053-.0086.106-.0172.159-.0579.309-.0788.615-.1059.927-.0184.202-.064.402-.0689.604v.259l-.0296 10.7c0-.288.0468-.574.0727-.861.0332-.306.0541-.612.1108-.921z" fill="#364154"/><path d="m93.0294 184.305c-.0098.191-.0209.382-.0406.573-.016.165-.0394.328-.0615.492-.0259.19-.0542.379-.0899.568-.0295.166-.0665.332-.1034.498s-.0849.369-.1342.55c-.0492.181-.0947.333-.1452.499s-.1231.369-.181.545c-.0578.176-.1231.326-.1846.493-.0763.19-.1551.38-.2462.57-.0714.158-.1453.318-.2228.476-.0923.191-.1908.379-.293.567-.0812.153-.1649.304-.2536.456-.1305.225-.2708.448-.4136.67-.0874.135-.1711.269-.2634.403-.1674.246-.3471.493-.5305.729-.0813.106-.1564.213-.2462.319-.3041.384-.6315.764-.9762 1.14-.0899.097-.1871.194-.2794.29-.2725.286-.5564.568-.8519.848-.1354.123-.272.256-.4123.383-.1773.159-.3595.316-.5441.474-.1847.158-.3422.291-.5195.433-.1772.143-.3914.311-.5921.463-.2006.153-.3693.281-.5576.419-.2093.151-.4247.301-.6413.45-.197.137-.3952.272-.5995.406-.2044.135-.453.29-.6844.434-.2881.178-.5737.359-.874.534-.8174.474-1.6717.913-2.5432 1.335-.229.111-.4592.218-.6918.325-.7878.365-1.5937.709-2.4176 1.033-.1071.042-.2105.088-.3176.123-.8814.336-1.7886.639-2.7082.927-.6364.201-1.2888.377-1.94.554-.4924.134-.9847.278-1.4771.399-.6857.166-1.3861.304-2.0853.446-.5072.102-1.0082.219-1.5215.309-.2142.036-.4308.067-.6462.102-.8625.142-1.732.265-2.6085.369-.2535.031-.5047.063-.7582.09-.5023.054-1.0082.085-1.5129.123-.8481.07-1.6975.133-2.5506.17-.5453.023-1.0906.034-1.6372.045-.6881.013-1.3774.019-2.0655.009-.5773-.007-1.1534-.025-1.7234-.048-.6376-.025-1.2744-.059-1.9104-.102-.5835-.04-1.1654-.089-1.7455-.145-.6303-.062-1.2581-.132-1.8834-.211-.5638-.073-1.1255-.153-1.6852-.239-.6705-.104-1.3377-.22-2.0016-.348-.5231-.1-1.0451-.202-1.5621-.316-.7915-.173-1.5707-.37-2.345-.574-.4998-.133-1.0057-.257-1.4981-.403-.2671-.08-.5317-.165-.7964-.246-.7763-.246-1.5408-.507-2.2933-.784-.2179-.08-.4382-.155-.6524-.239-.6869-.264-1.3541-.559-2.0102-.853-.32-.143-.6524-.272-.9675-.421-.9516-.451-1.8773-.93-2.766-1.444-7.4338-4.292-11.1452-9.926-11.1292-15.55l-.0308 10.7c-.016 5.626 3.6929 11.26 11.1292 15.551.8888.513 1.8145.992 2.766 1.444.3164.15.6512.281.9749.425.5626.246 1.1177.51 1.6988.738.0984.04.2031.073.3028.111.2166.084.4382.159.6561.246.7509.277 1.5141.538 2.2896.782.2659.083.5305.168.7989.246.1785.053.352.113.533.165.3151.09.6463.153.9651.236.7743.206 1.5522.402 2.3388.575.2117.047.4136.11.6266.154.3077.064.6265.103.9367.162.6635.124 1.3283.247 2.0016.349.2684.042.5318.101.8026.139.2917.042.5884.061.8814.098.6261.082 1.2547.153 1.8858.212.3016.028.5983.075.9011.1.2782.023.5601.026.8395.045.6376.045 1.2753.078 1.9166.103.3201.012.6389.043.9602.051.2548 0 .5084-.007.7632 0 .6918.009 1.3811 0 2.0729-.01.3422 0 .6857.008 1.0279 0 .2019-.006.4013-.03.6019-.039.8556-.037 1.7062-.1 2.5555-.17.341-.029.6869-.036 1.0267-.069.1624-.016.3212-.04.4837-.058.2536-.027.5059-.06.7595-.091.8765-.105 1.7464-.228 2.6097-.369.2142-.036.4296-.065.6426-.103.1046-.018.2104-.031.3139-.05.4111-.074.8087-.177 1.2174-.259.6955-.142 1.3922-.28 2.0766-.445.501-.123.9848-.264 1.4833-.399.6525-.178 1.3036-.353 1.9413-.554.1366-.044.2819-.076.4185-.123.7755-.251 1.5375-.52 2.2859-.807.1059-.041.2068-.086.3127-.123.8272-.323 1.6322-.67 2.4225-1.034.2314-.107.4629-.216.6918-.326.8703-.421 1.7234-.862 2.5432-1.335.1551-.091.3078-.181.4592-.272s.272-.175.4111-.261c.2327-.144.4641-.288.6881-.436.2044-.134.4026-.269.5995-.405.2167-.148.4308-.297.6389-.45.208-.153.3767-.279.5613-.42.1846-.14.3976-.306.5896-.461.1921-.155.3496-.288.5207-.434.1711-.145.3693-.315.5429-.474.0726-.066.1526-.129.224-.195.0714-.067.1231-.123.1884-.187.2962-.281.5806-.564.853-.85.0923-.097.1884-.192.277-.289.3459-.369.6733-.756.9848-1.141l.0418-.048c.0689-.089.1231-.179.1957-.268.1835-.247.3693-.485.5331-.73.091-.135.176-.27.2622-.404.144-.223.2843-.446.4148-.67.0345-.06.0775-.123.112-.181.0505-.091.0923-.183.1416-.274.1009-.189.1994-.378.2929-.568.0763-.158.1502-.317.2216-.476.0821-.19.1641-.38.2462-.571.0332-.085.0751-.17.1071-.255s.0492-.155.0763-.233c.0653-.181.1231-.369.181-.546.0578-.178.1009-.331.1452-.493.0443-.161.0936-.369.1342-.55.0222-.1.0529-.198.0726-.298.0136-.066.0197-.134.032-.2.0345-.189.0628-.378.0887-.568.0234-.164.0455-.327.0628-.492.0184-.191.0295-.382.0406-.573.0061-.11.0197-.22.0233-.331.0037-.111 0-.22 0-.331l.0308-10.702c.0013.21-.0086.431-.0271.651z" fill="url(#ag)"/><path d="m81.9275 168.083c-14.7716-8.522-38.6524-8.522-53.3317.011s-14.6018 22.361.1723 30.883 38.6524 8.534 53.3318.011c14.6891-8.544 14.5919-22.371-.1724-30.905zm2.734 17.121c.0098.011.0098.011 0 .021-.6241 3.778-3.4221 7.468-8.4149 10.363-11.4714 6.661-30.1095 6.661-41.6462 0-5.122-2.954-7.9729-6.714-8.565-10.578v-.021c-.7534-4.832 2.0557-9.815 8.4259-13.516 11.4604-6.661 30.0985-6.661 41.6339 0 6.4995 3.755 9.3627 8.821 8.5663 13.731z" fill="url(#ai)"/><path d="m76.0962 170.908c-11.5391-6.662-30.1797-6.662-41.6338 0-5.8397 3.393-8.6821 7.86-8.5466 12.309.1132-4.256 2.9543-8.493 8.5466-11.738 11.448-6.657 30.0947-6.657 41.6338 0 5.6625 3.27 8.554 7.535 8.6845 11.817.1194-4.479-2.7722-8.975-8.6845-12.388z" fill="url(#aj)"/><path d="m82.0995 198.417c-14.6744 8.528-38.5601 8.522-53.3305 0-7.2787-4.201-10.9815-9.69-11.1181-15.197-.112 5.695 3.5907 11.418 11.1181 15.764 14.7716 8.527 38.6524 8.533 53.3305 0 7.4486-4.329 11.0886-10.021 10.947-15.693-.1071 5.482-3.7458 10.941-10.947 15.126z" fill="url(#ak)"/><path d="m105.768 223.973c.019-.124.041-.247.065-.377.016-.087.032-.174.051-.261.018-.087.039-.16.059-.24.03-.113.058-.227.091-.34.019-.065.039-.123.059-.194.041-.123.083-.254.123-.381.019-.051.036-.103.056-.156.065-.174.135-.347.21-.519.009-.02.017-.04.027-.06.068-.155.141-.309.217-.46l.07-.14c.075-.146.153-.288.233-.43.016-.027.029-.054.044-.08.096-.165.196-.326.299-.492.03-.046.062-.091.092-.138.077-.113.154-.227.234-.337l.133-.18c.069-.092.141-.182.213-.272.073-.09.123-.152.185-.224.061-.073.123-.138.181-.206.103-.115.208-.226.315-.336l.158-.157c.211-.207.433-.402.666-.585l.123-.092c.236-.179.482-.344.738-.493.193-.11.392-.209.596-.296l.185-.074c.112-.043.224-.083.333-.115.07-.021.142-.042.211-.059s.129-.029.193-.042c.085-.014.169-.028.246-.038.048 0 .096-.011.143-.013.101-.006.203-.006.304 0h.069c.117.007.234.022.35.044.028 0 .055.012.083.02.088.019.175.044.26.073.026.01.054.019.08.03.107.041.211.09.31.146l-28.9276-16.812-.0258-.015c-.0768-.045-.1561-.086-.2376-.123l-.0468-.016-.0812-.028c-.0406-.015-.08-.031-.1231-.043s-.0911-.021-.1366-.032c-.0456-.011-.0554-.014-.0837-.018l-.0456-.012c-.0945-.016-.1899-.027-.2856-.033h-.0861c-.0751 0-.1502 0-.2278 0l-.0775.008c-.0468 0-.0948.008-.1416.014-.0468.007-.0874.007-.1329.014-.0456.007-.0788.017-.1231.025-.064.012-.1231.025-.1933.041-.0357.009-.0689.013-.1046.023-.0357.009-.0714.025-.1059.035-.1095.033-.2203.072-.3336.116-.0394.015-.0775.023-.1231.041-.0455.017-.0468.023-.0689.033-.2032.087-.4012.186-.5933.295-.2566.151-.5033.318-.7386.5-.0406.031-.0813.059-.1231.091-.2318.184-.4541.379-.666.586-.0184.017-.0381.031-.0554.049-.0357.035-.0677.073-.1021.109-.1071.108-.2118.22-.3152.336-.0332.037-.0689.07-.1009.107s-.0529.065-.08.097c-.0628.074-.1231.149-.1847.224-.0394.05-.0812.097-.1231.146-.0418.05-.0627.085-.0935.124-.0308.038-.0886.123-.133.179-.0295.041-.0603.08-.0898.123-.0493.071-.096.143-.144.216l-.0924.138c-.0123.019-.0258.037-.0381.056-.0837.132-.1662.266-.2462.402l-.0148.027c-.016.027-.0308.054-.0455.081-.0554.096-.1096.193-.1625.29-.0234.046-.0456.093-.069.138-.0233.046-.048.094-.0714.142l-.064.123c-.0529.111-.1034.223-.1526.335-.0099.019-.0185.039-.0271.059-.0086.019-.0061.012-.0086.017-.0603.142-.1231.283-.1736.426l-.0283.077c-.0197.052-.0369.105-.0554.158-.0184.053-.0529.142-.0763.212s-.0332.111-.0505.166c-.0172.055-.0418.13-.0603.196-.0123.04-.0258.081-.0369.123-.0209.071-.0357.144-.0529.216-.0173.073-.0419.162-.0604.247 0 .028-.0147.056-.0209.085-.0123.059-.0184.115-.0295.173-.0234.123-.0468.254-.0653.379 0 .035-.0123.069-.0172.105s0 .064-.0062.096c-.0348.275-.0529.552-.0541.83 0 1.491.5305 2.54 1.3799 3.034l28.9278 16.812c-.849-.492-1.376-1.542-1.38-3.034.001-.278.019-.555.054-.83.032-.071.04-.138.048-.205z" fill="url(#al)"/><path d="m110.412 216.823c2.616-1.51 4.741-.294 4.75 2.708.008 3.003-2.103 6.662-4.718 8.171-2.614 1.51-4.745.303-4.754-2.708-.008-3.011 2.108-6.664 4.722-8.171z" fill="url(#am)"/><path d="m131.797 240.994c.025-.171.056-.343.089-.516.022-.123.043-.237.07-.357.027-.119.053-.22.08-.329.04-.156.079-.311.123-.466.027-.088.054-.177.082-.266.054-.174.113-.348.174-.52l.077-.215c.09-.238.184-.476.288-.712.011-.027.024-.054.037-.081.093-.212.193-.421.296-.631.032-.064.064-.123.098-.192.101-.198.208-.394.318-.588.021-.037.04-.074.061-.11.13-.225.268-.447.41-.664.04-.064.083-.123.123-.19.103-.156.21-.31.32-.462.059-.082.123-.165.181-.246.096-.123.193-.246.291-.369.084-.103.168-.207.254-.308s.165-.188.246-.282c.142-.156.286-.31.431-.458.073-.073.144-.146.217-.216.29-.283.594-.55.912-.802.055-.044.112-.083.167-.123.323-.248.66-.476 1.011-.683.264-.15.536-.285.815-.405.085-.037.168-.069.252-.101.155-.06.308-.113.458-.157.096-.03.193-.058.288-.082.095-.023.177-.04.265-.056.115-.022.23-.04.343-.053.065-.008.131-.015.196-.02.14-.008.279-.012.415-.007h.095c.16.009.32.028.478.059l.115.027c.12.027.239.062.356.102.037.014.074.025.109.04.147.056.289.123.425.201l-39.621-23.034-.036-.021c-.106-.06-.214-.113-.326-.159-.02-.009-.042-.015-.063-.022-.021-.008-.074-.026-.111-.04-.056-.019-.111-.043-.168-.059-.058-.016-.124-.029-.186-.043-.038-.008-.077-.019-.116-.027l-.062-.013c-.129-.023-.26-.039-.391-.047h-.123c-.102 0-.206-.008-.312 0-.034 0-.07.007-.105.01-.064 0-.123.012-.196.019-.073.008-.123.009-.181.019s-.108.025-.161.034c-.089.016-.176.035-.266.057-.048.011-.094.017-.143.031-.049.013-.097.035-.144.049-.1515.046-.3029.098-.458.158-.0541.02-.1058.033-.1612.056-.0296.012-.0616.032-.0923.046-.2793.119-.5514.254-.8149.405-.3502.206-.6873.435-1.0094.683-.0567.042-.1133.082-.1687.123-.3172.251-.6213.519-.9109.801-.0246.024-.0529.043-.0776.067-.048.048-.091.101-.1391.149-.1468.149-.2909.303-.432.46-.0443.051-.0923.096-.1379.147-.0455.05-.0714.089-.1083.133-.0862.1-.1699.204-.2536.308-.0542.067-.1108.132-.1649.2-.0542.068-.085.123-.1231.173l-.181.247c-.0406.056-.0825.11-.1231.168-.0677.096-.1317.196-.1969.295-.0419.062-.085.123-.1231.189-.0173.026-.0357.051-.0517.078-.1158.179-.2278.362-.3361.549l-.0209.038-.0616.111c-.0751.131-.1514.263-.2228.397l-.0948.188-.0984.194c-.0284.058-.0591.114-.0862.171-.0739.152-.1416.305-.2105.459l-.0369.081-.0111.024c-.0821.192-.1613.387-.2376.582-.0135.036-.0246.071-.0381.107-.0271.071-.0517.143-.0776.215-.0345.098-.0714.194-.1046.291-.0247.076-.0456.151-.069.226s-.0554.18-.0824.27c-.016.055-.0345.111-.0505.166-.0271.099-.048.197-.0726.297-.0247.099-.0567.22-.0813.331-.0086.039-.0197.077-.0283.123-.0172.079-.0258.158-.0406.238-.0333.173-.0653.345-.0899.518 0 .047-.0185.096-.0246.143-.0062.046 0 .087-.0086.131-.0469.378-.0716.757-.0739 1.138 0 2.043.7275 3.48 1.8908 4.155l39.6278 23.029c-1.164-.676-1.885-2.112-1.89-4.156.002-.38.027-.76.074-1.137.007-.097.016-.188.029-.281z" fill="url(#an)"/><path d="m138.159 231.201c3.582-2.068 6.492-.402 6.505 3.715.012 4.116-2.88 9.125-6.463 11.193s-6.499.413-6.511-3.703c-.011-4.116 2.887-9.136 6.469-11.205z" fill="#364154"/><path d="m84.6613 185.204c.0098.011.0098.011 0 .021-.6241 3.778-3.4221 7.468-8.4149 10.363-11.4714 6.661-30.1095 6.661-41.6462 0-5.122-2.954-7.9729-6.714-8.565-10.578v-.021c.6241-3.788 3.4331-7.468 8.4259-10.373 11.4604-6.661 30.0985-6.661 41.6339 0 5.122 2.959 7.9742 6.724 8.5663 10.588z" fill="#a0ddf2" opacity=".42"/><path d="m68.7617 126.581c-.686-.001-1.3596-.182-1.9536-.525l-22.2387-12.726c-1.0613-.609-1.9434-1.488-2.5573-2.547-.6139-1.058-.9381-2.26-.9398-3.484v-28.9953h1.4771v28.9953c.0012.964.2563 1.91.7397 2.744s1.1781 1.526 2.014 2.006l22.2387 12.729c.3734.213.7963.325 1.2263.324.4301-.002.8523-.116 1.2243-.332.372-.215.6809-.525.8957-.898.2147-.372.3279-.795.3281-1.225v-29.0636c0-.5932.1598-1.1756.4625-1.6858s.7373-.9295 1.258-1.2139c.5207-.2843 1.1084-.4232 1.7013-.402.5929.0211 1.1692.2015 1.6683.5223l10.217 6.5449-.7964 1.2445-10.217-6.5462c-.2762-.1767-.5948-.2759-.9225-.2871s-.6523.066-.9399.2235c-.2875.1575-.5274.3895-.6944.6717-.167.2821-.255.604-.2548.9318v29.0599c-.0019 1.043-.4166 2.043-1.1533 2.781s-1.7356 1.154-2.7784 1.158z" fill="url(#ao)"/><path d="m98.3652 44.042v55.6683l64.8438 37.9397" stroke="#364154" stroke-miterlimit="10" stroke-width="5"/></g></svg>