<svg fill="none" height="242" viewBox="0 0 374 242" width="374" xmlns="http://www.w3.org/2000/svg" xmlns:xlink="http://www.w3.org/1999/xlink"><linearGradient id="a"><stop offset="0" stop-color="#dbedeb"/><stop offset="1" stop-color="#d2cdd8"/></linearGradient><linearGradient id="b" gradientUnits="userSpaceOnUse" x1="50.38" x2="284.271" xlink:href="#a" y1="241.999" y2="65.0771"/><linearGradient id="c" gradientUnits="userSpaceOnUse" x1="71.4511" x2="156.331" xlink:href="#a" y1="208.048" y2="71.0683"/><linearGradient id="d" gradientUnits="userSpaceOnUse" x1="91.1716" x2="162.166" xlink:href="#a" y1="232.586" y2="190.253"/><linearGradient id="e" gradientUnits="userSpaceOnUse" x1="183.507" x2="207.572" xlink:href="#a" y1="211.604" y2="198.154"/><linearGradient id="f" gradientUnits="userSpaceOnUse" x1="214.767" x2="279.663" xlink:href="#a" y1="214.784" y2="144.552"/><linearGradient id="g"><stop offset="0" stop-color="#f8db8b"/><stop offset="1" stop-color="#68b790"/></linearGradient><linearGradient id="h" gradientUnits="userSpaceOnUse" x1="217.816" x2="327.792" xlink:href="#g" y1="105.009" y2="110.664"/><linearGradient id="i" gradientUnits="userSpaceOnUse" x1="266.904" x2="359.891" xlink:href="#g" y1="117.809" y2="122.591"/><linearGradient id="j" gradientUnits="userSpaceOnUse" x1="210.937" x2="292.458" xlink:href="#g" y1="89.2811" y2="91.9225"/><linearGradient id="k"><stop offset="0" stop-color="#fff"/><stop offset="1" stop-color="#ebeff2"/></linearGradient><linearGradient id="l" gradientUnits="userSpaceOnUse" x1="245.466" x2="97.1126" xlink:href="#k" y1="-8.76264" y2="223.461"/><linearGradient id="m" gradientUnits="userSpaceOnUse" x1="92.0836" x2="286.703" xlink:href="#a" y1="197.945" y2="163.282"/><linearGradient id="n"><stop offset="0" stop-color="#444b8c"/><stop offset="1" stop-color="#26264f"/></linearGradient><linearGradient id="o" gradientUnits="userSpaceOnUse" x1="168.891" x2="183.633" xlink:href="#n" y1="138.355" y2="243.312"/><linearGradient id="p"><stop offset="0" stop-color="#ffc444"/><stop offset="1" stop-color="#f36f56"/></linearGradient><linearGradient id="q" gradientUnits="userSpaceOnUse" x1="179.723" x2="176.712" xlink:href="#p" y1="98.4032" y2="204.553"/><linearGradient id="r"><stop offset="0" stop-color="#067431"/><stop offset="1" stop-color="#2e9f5a"/></linearGradient><linearGradient id="s" gradientUnits="userSpaceOnUse" x1="177.684" x2="200.352" xlink:href="#r" y1="141.704" y2="177.367"/><linearGradient id="t" gradientUnits="userSpaceOnUse" x1="177.012" x2="187.425" xlink:href="#r" y1="158.755" y2="182.391"/><linearGradient id="u" gradientUnits="userSpaceOnUse" x1="181.142" x2="191.998" xlink:href="#k" y1="130.884" y2="208.175"/><linearGradient id="v" gradientUnits="userSpaceOnUse" x1="177.197" x2="164.174" xlink:href="#n" y1="61.7241" y2="93.8188"/><linearGradient id="w" gradientUnits="userSpaceOnUse" x1="157231" x2="154301" xlink:href="#p" y1="128890" y2="61621"/><linearGradient id="x" gradientUnits="userSpaceOnUse" x1="224.954" x2="218.004" xlink:href="#p" y1="108.4" y2="140.471"/><linearGradient id="y" gradientUnits="userSpaceOnUse" x1="238.204" x2="231.347" xlink:href="#p" y1="111.082" y2="142.728"/><linearGradient id="z" gradientUnits="userSpaceOnUse" x1="251.134" x2="244.367" xlink:href="#p" y1="113.693" y2="144.927"/><linearGradient id="A" gradientUnits="userSpaceOnUse" x1="263.755" x2="257.075" xlink:href="#p" y1="116.238" y2="147.069"/><linearGradient id="B" gradientUnits="userSpaceOnUse" x1="249" x2="205.274" xlink:href="#p" y1="121.961" y2="155.473"/><linearGradient id="C" gradientUnits="userSpaceOnUse" x1="155.688" x2="159.488" xlink:href="#k" y1="81.3895" y2="81.3895"/><linearGradient id="D" gradientUnits="userSpaceOnUse" x1="160.762" x2="163.943" xlink:href="#k" y1="84.8209" y2="84.8209"/><linearGradient id="E" gradientUnits="userSpaceOnUse" x1="164.327" x2="168.361" xlink:href="#k" y1="80.8326" y2="80.8326"/><linearGradient id="F" gradientUnits="userSpaceOnUse" x1="168.889" x2="172.738" xlink:href="#k" y1="81.9569" y2="81.9569"/><linearGradient id="G" gradientUnits="userSpaceOnUse" x1="174.248" x2="177.081" xlink:href="#k" y1="86.5919" y2="86.5919"/><linearGradient id="H" gradientUnits="userSpaceOnUse" x1="178.006" x2="181.386" xlink:href="#k" y1="84.3296" y2="84.3296"/><linearGradient id="I" gradientUnits="userSpaceOnUse" x1="181.821" x2="185.656" xlink:href="#k" y1="82.6291" y2="82.6291"/><linearGradient id="J" gradientUnits="userSpaceOnUse" x1="186.419" x2="189.888" xlink:href="#k" y1="84.1811" y2="84.1811"/><linearGradient id="K" gradientUnits="userSpaceOnUse" x1="189.984" x2="194.085" xlink:href="#k" y1="81.9657" y2="81.9657"/><linearGradient id="L" gradientUnits="userSpaceOnUse" x1="193.909" x2="198.249" xlink:href="#k" y1="81.3061" y2="81.3061"/><linearGradient id="M"><stop offset=".49" stop-color="#ebeff2"/><stop offset="1" stop-color="#fff"/></linearGradient><linearGradient id="N" gradientUnits="userSpaceOnUse" x1="136.539" x2="99.7806" xlink:href="#M" y1="124.782" y2="124.905"/><linearGradient id="O" gradientUnits="userSpaceOnUse" x1="95.7122" x2="120.777" xlink:href="#n" y1="65.7537" y2="125.656"/><linearGradient id="P" gradientUnits="userSpaceOnUse" x1="68.5749" x2="142.624" xlink:href="#g" y1="76.9731" y2="85.6406"/><linearGradient id="Q" gradientUnits="userSpaceOnUse" x1="94.3371" x2="100.116" xlink:href="#k" y1="71.8007" y2="71.8007"/><linearGradient id="R" gradientUnits="userSpaceOnUse" x1="101.478" x2="107.122" xlink:href="#k" y1="72.0303" y2="72.0303"/><linearGradient id="S" gradientUnits="userSpaceOnUse" x1="108.451" x2="113.971" xlink:href="#k" y1="72.2544" y2="72.2544"/><linearGradient id="T" gradientUnits="userSpaceOnUse" x1="115.269" x2="120.664" xlink:href="#k" y1="72.4727" y2="72.4727"/><linearGradient id="U" gradientUnits="userSpaceOnUse" x1="121.934" x2="127.209" xlink:href="#k" y1="72.6861" y2="72.6861"/><linearGradient id="V" gradientUnits="userSpaceOnUse" x1="79.5459" x2="85.6054" xlink:href="#k" y1="77.4279" y2="77.4279"/><linearGradient id="W" gradientUnits="userSpaceOnUse" x1="87.0303" x2="92.9467" xlink:href="#k" y1="77.596" y2="77.596"/><linearGradient id="X" gradientUnits="userSpaceOnUse" x1="94.3371" x2="100.116" xlink:href="#k" y1="77.7606" y2="77.7606"/><linearGradient id="Y" gradientUnits="userSpaceOnUse" x1="101.478" x2="107.122" xlink:href="#k" y1="77.9217" y2="77.9217"/><linearGradient id="Z" gradientUnits="userSpaceOnUse" x1="108.451" x2="113.971" xlink:href="#k" y1="78.0789" y2="78.0789"/><linearGradient id="aa" gradientUnits="userSpaceOnUse" x1="115.269" x2="120.664" xlink:href="#k" y1="78.2303" y2="78.2303"/><linearGradient id="ab" gradientUnits="userSpaceOnUse" x1="121.934" x2="127.209" xlink:href="#k" y1="78.3805" y2="78.3805"/><linearGradient id="ac" gradientUnits="userSpaceOnUse" x1="79.5459" x2="85.6054" xlink:href="#k" y1="83.5308" y2="83.5308"/><linearGradient id="ad" gradientUnits="userSpaceOnUse" x1="87.0303" x2="92.9467" xlink:href="#k" y1="83.6266" y2="83.6266"/><linearGradient id="ae" gradientUnits="userSpaceOnUse" x1="94.3371" x2="100.116" xlink:href="#k" y1="83.7203" y2="83.7203"/><linearGradient id="af" gradientUnits="userSpaceOnUse" x1="101.478" x2="107.122" xlink:href="#k" y1="83.8125" y2="83.8125"/><linearGradient id="ag" gradientUnits="userSpaceOnUse" x1="108.451" x2="113.971" xlink:href="#k" y1="83.9028" y2="83.9028"/><linearGradient id="ah" gradientUnits="userSpaceOnUse" x1="115.269" x2="120.664" xlink:href="#k" y1="83.9897" y2="83.9897"/><linearGradient id="ai" gradientUnits="userSpaceOnUse" x1="121.934" x2="127.209" xlink:href="#k" y1="84.0764" y2="84.0764"/><linearGradient id="aj" gradientUnits="userSpaceOnUse" x1="79.5459" x2="85.6054" xlink:href="#k" y1="89.6333" y2="89.6333"/><linearGradient id="ak" gradientUnits="userSpaceOnUse" x1="87.0303" x2="92.9467" xlink:href="#k" y1="89.6568" y2="89.6568"/><linearGradient id="al" gradientUnits="userSpaceOnUse" x1="94.3371" x2="100.116" xlink:href="#k" y1="89.6802" y2="89.6802"/><linearGradient id="am" gradientUnits="userSpaceOnUse" x1="101.478" x2="107.122" xlink:href="#k" y1="89.704" y2="89.704"/><linearGradient id="an" gradientUnits="userSpaceOnUse" x1="108.451" x2="113.971" xlink:href="#k" y1="89.7273" y2="89.7273"/><linearGradient id="ao"><stop offset="0" stop-color="#f36f56"/><stop offset="1" stop-color="#ffc444"/></linearGradient><linearGradient id="ap" gradientUnits="userSpaceOnUse" x1="105.905" x2="107.514" xlink:href="#ao" y1="69.1514" y2="69.1514"/><linearGradient id="aq" gradientUnits="userSpaceOnUse" x1="108.498" x2="122.697" xlink:href="#a" y1="78.8031" y2="74.9003"/><linearGradient id="ar" gradientUnits="userSpaceOnUse" x1="99.4324" x2="109.89" xlink:href="#r" y1="59.2948" y2="73.5933"/><linearGradient id="as" gradientUnits="userSpaceOnUse" x1="104.77" x2="97.4671" xlink:href="#ao" y1="78.3392" y2="69.8898"/><linearGradient id="at" gradientUnits="userSpaceOnUse" x1="108.497" x2="135.401" xlink:href="#a" y1="97.2725" y2="92.2285"/><linearGradient id="au" gradientUnits="userSpaceOnUse" x1="114.741" x2="122.86" xlink:href="#ao" y1="61.9771" y2="75.4516"/><linearGradient id="av" gradientUnits="userSpaceOnUse" x1="120.137" x2="120.698" xlink:href="#p" y1="67.8237" y2="73.2146"/><linearGradient id="aw" gradientUnits="userSpaceOnUse" x1="118.527" x2="120.213" xlink:href="#p" y1="68.3966" y2="73.1689"/><linearGradient id="ax" gradientUnits="userSpaceOnUse" x1="61.1649" x2="50.472" xlink:href="#p" y1="153.206" y2="181.769"/><linearGradient id="ay" gradientUnits="userSpaceOnUse" x1="43.7373" x2="45.271" xlink:href="#p" y1="158.137" y2="163.119"/><linearGradient id="az" gradientUnits="userSpaceOnUse" x1="62.982" x2="54.168" xlink:href="#p" y1="144.161" y2="175.609"/><linearGradient id="aA" gradientUnits="userSpaceOnUse" x1="68.6535" x2="59.7412" xlink:href="#p" y1="152.523" y2="170.966"/><linearGradient id="aB" gradientUnits="userSpaceOnUse" x1="51.6204" x2="56.9444" xlink:href="#M" y1="155.235" y2="164.852"/><linearGradient id="aC" gradientUnits="userSpaceOnUse" x1="60.107" x2="53.9166" xlink:href="#M" y1="165.454" y2="158.795"/><linearGradient id="aD" gradientUnits="userSpaceOnUse" x1="210.386" x2="278.382" xlink:href="#g" y1="88.1241" y2="96.805"/><linearGradient id="aE" gradientUnits="userSpaceOnUse" x1="218.883" x2="245.244" xlink:href="#g" y1="184.015" y2="186.274"/><linearGradient id="aF" gradientUnits="userSpaceOnUse" x1="250.616" x2="276" xlink:href="#r" y1="148.693" y2="187.194"/><linearGradient id="aG" gradientUnits="userSpaceOnUse" x1="259.001" x2="334.014" xlink:href="#k" y1="204.446" y2="204.446"/><linearGradient id="aH" gradientUnits="userSpaceOnUse" x1="234.485" x2="235.483" xlink:href="#r" y1="193.79" y2="209.324"/><linearGradient id="aI" gradientUnits="userSpaceOnUse" x1="243.306" x2="243.903" xlink:href="#r" y1="197.871" y2="208.201"/><linearGradient id="aJ"><stop offset="0" stop-color="#311944"/><stop offset="1" stop-color="#a03976"/></linearGradient><linearGradient id="aK" gradientUnits="userSpaceOnUse" x1="307.786" x2="308.557" xlink:href="#aJ" y1="193.94" y2="203.771"/><linearGradient id="aL" gradientUnits="userSpaceOnUse" x1="309.784" x2="309.643" xlink:href="#p" y1="199.414" y2="189.232"/><linearGradient id="aM" gradientUnits="userSpaceOnUse" x1="322.409" x2="323.18" xlink:href="#aJ" y1="192.794" y2="202.623"/><linearGradient id="aN" gradientUnits="userSpaceOnUse" x1="323.184" x2="323.045" xlink:href="#p" y1="199.23" y2="189.048"/><linearGradient id="aO" gradientUnits="userSpaceOnUse" x1="307.35" x2="314.89" y1="182.92" y2="182.92"><stop offset="0" stop-color="#444b8c"/><stop offset="1" stop-color="#3e4177"/></linearGradient><linearGradient id="aP" gradientUnits="userSpaceOnUse" x1="304.33" x2="321.439" xlink:href="#a" y1="173.989" y2="171.299"/><linearGradient id="aQ" gradientUnits="userSpaceOnUse" x1="289.524" x2="303.787" xlink:href="#p" y1="163.904" y2="174.958"/><linearGradient id="aR" gradientUnits="userSpaceOnUse" x1="314.408" x2="314.931" y1="158.908" y2="158.509"><stop offset="0" stop-color="#aa80f9"/><stop offset="1" stop-color="#6165d7"/></linearGradient><linearGradient id="aS" gradientUnits="userSpaceOnUse" x1="289.478" x2="303.778" xlink:href="#ao" y1="163.868" y2="174.951"/><linearGradient id="aT" gradientUnits="userSpaceOnUse" x1="295.184" x2="297.932" xlink:href="#p" y1="175.421" y2="175.421"/><clipPath id="aU"><path d="m0 0h373.934v242h-373.934z"/></clipPath><g clip-path="url(#aU)"><path d="m172.107 180.435c-92.2102 6.867-170.77494 8.604-172.0874892 23.59-1.2872008 14.718 72.7098892 29.769 103.5974892 34.453 46.46 7.048 78.581 3.253 83.031-9.05 1.314-3.634-.228-6.777 2.424-10.282 6.411-8.47 25.684-3.615 36.963-1.209 0 0 35.995 7.673 73.923 6.046 37.213-1.594 75.607-23.118 73.925-33.869-2.931-18.721-128.782-15.116-201.776-9.679z" fill="url(#b)" opacity=".19"/><path d="m78.3106 190.253c-10.113 1.556-49.0749 7.552-48.7707 12.095.2751 4.13 32.868 5.089 44.8312 5.443 37.7999 1.114 59.1349-1.548 104.8119-5.141 46.204-3.634 71.016-4.579 122.384-10.28 35.383-3.927 39.105-5.198 39.078-6.047-.1-3.226-54.28-3.528-126.924-3.932-44.549-.248-84.489.025-135.4104 7.862z" fill="url(#c)" opacity=".19"/><path d="m107.087 212.629c-23.7417 1.852-28.7312 1.121-29.0806 2.722-.8292 3.807 25.4416 17.138 55.7386 17.234 19.734.063 42.102-5.486 42.105-10.582 0-5.507-26.082-12.289-48.769-11.188-5.205.256-5.648.694-19.994 1.814z" fill="url(#d)" opacity=".19"/><path d="m188.272 204.465c-5.569.652-8.984 1.053-9.089 2.116-.23 2.306 15.045 8.043 27.566 3.025 1.774-.712 4.661-1.869 4.544-3.025-.236-2.331-12.574-3.342-23.021-2.116z" fill="url(#e)" opacity=".19"/><path d="m213.337 200.425c-14.576 1.627-17.822 2.773-17.873 3.931-.181 4.12 39.916 11.566 79.972 10.281 26.189-.837 63.386-5.751 63.31-10.583-.105-6.645-70.592-9.764-125.409-3.629z" fill="url(#f)" opacity=".19"/><path d="m229.221 174.551c-4.81-8.19-.143-21.828 5.573-29.817 6.671-9.323 12.093-7.196 16.717-14.849 8.608-14.249-6.652-27.468.889-42.5199 6.155-12.3083 18.701-8.1483 24.906-22.0902 4.479-10.0584.101-17.061 6.89-24.5352.579-.6379 6.938-7.4399 14.664-6.2074 7.785 1.2433 12.416 9.9391 13.93 15.9496 2.795 11.1029-4.622 14.6593-6.156 29.0349-2.074 19.5729 10.448 24.5642 5.937 38.6612-3.726 11.64-13.124 10.921-16.998 23.91-3.598 12.061 3.199 17.063 0 24.938-7.356 18.147-56.539 24.23-66.352 7.525z" fill="url(#h)"/><path d="m235.738 187.398c-.026 0-.051-.009-.07-.027-.019-.017-.031-.041-.034-.067-.001-.013 0-.027.004-.04s.01-.025.019-.036c.008-.011.019-.019.031-.026.012-.006.025-.01.039-.012 8.204-.832 16.125-3.459 23.197-7.694 6.666-4.003 13.556-8.132 16.617-15.764 2.316-5.768 1.043-10.015-.57-15.391-1.568-5.224-3.518-11.725-2.44-21.66.613-5.673 1.379-12.731 6.302-19.407 2.866-3.889 5.648-5.555 8.103-7.024 2.582-1.5451 4.62-2.7649 5.812-6.0376 1.94-5.3274.668-9.903-.806-15.2015-.905-3.2655-1.849-6.6448-2.205-10.662-1.001-11.2836 4.345-23.4184 15.87-36.0682.009-.0118.02-.0216.033-.0289.012-.0072.027-.0116.041-.013.015-.0014.03.0002.044.0049s.026.0122.037.0222c.011.0099.02.022.026.0355.005.0134.008.028.008.0427s-.003.0292-.009.0425c-.006.0134-.015.0253-.026.035-11.491 12.6047-16.812 24.6853-15.816 35.9093.362 3.9901 1.293 7.3585 2.198 10.615 1.484 5.3328 2.764 9.9391.802 15.3297-1.219 3.3414-3.389 4.6407-5.902 6.1444-2.437 1.46-5.201 3.113-8.042 6.968-4.888 6.63-5.65 13.66-6.262 19.307-1.074 9.892.871 16.371 2.433 21.577 1.629 5.422 2.908 9.694.563 15.529-3.087 7.689-10.01 11.845-16.703 15.863-7.097 4.254-15.047 6.895-23.284 7.734z" fill="#fff" opacity=".7"/><path d="m276.821 110.731c-.02 0-.039-.006-.056-.017s-.03-.026-.038-.044c-6.735-15.2181-7.785-26.9969-7.495-34.1983.324-7.8122 2.27-12.0824 2.29-12.1239.015-.0165.036-.0277.058-.032.022-.0042.045-.0012.065.0085s.037.0256.047.0455c.011.0198.015.0425.011.0647-.02.0434-1.951 4.2847-2.272 12.0607-.295 7.176.764 18.9169 7.477 34.0898.011.025.012.053.002.079s-.029.047-.054.058c-.011.005-.023.008-.035.009z" fill="#fff" opacity=".7"/><path d="m272.378 134.887c-.023 0-.045-.008-.064-.022-.018-.014-.031-.033-.037-.056-.004-.013-.004-.027-.003-.04.002-.014.007-.027.014-.038.007-.012.016-.023.027-.031.01-.008.023-.014.036-.017 8.556-2.268 15.932-5.893 21.906-10.774 4.749-3.87 8.692-8.631 11.607-14.014 4.975-9.186 5.375-17.2638 5.377-17.3488.002-.0276.014-.0534.035-.072.02-.0185.047-.0284.075-.0274.028.0015.054.0136.072.0339.019.0203.029.0471.028.0746 0 .0813-.404 8.1987-5.399 17.4237-2.926 5.41-6.887 10.194-11.657 14.082-5.998 4.902-13.397 8.542-21.982 10.817z" fill="#fff" opacity=".7"/><path d="m266.376 175.402c-.026 0-.05-.009-.069-.025-6.391-5.494-11.42-11.522-14.949-17.918-2.765-4.952-4.65-10.344-5.57-15.939-1.489-9.297.479-15.74.497-15.803.009-.026.027-.049.052-.062.024-.013.053-.015.08-.007.026.008.049.026.062.051.013.024.015.053.007.08-.02.065-1.973 6.467-.49 15.722.918 5.569 2.796 10.937 5.55 15.866 3.516 6.37 8.527 12.377 14.897 17.851.01.009.019.02.025.032s.01.026.011.04c.001.013-.001.027-.005.04-.005.013-.012.026-.021.036-.009.011-.021.02-.035.026-.013.007-.028.01-.042.01z" fill="#fff" opacity=".7"/><path d="m290.051 66.5109c-.023-.0006-.046-.0093-.064-.0247-.019-.0153-.031-.0364-.036-.0597-.004-.0233-.001-.0476.01-.0687s.029-.0378.051-.0475c6.195-2.6167 11.351-6.258 15.319-10.8246 3.204-3.7036 5.655-7.9939 7.217-12.6318 2.748-8.0507 2.172-14.7822 2.172-14.8508-.001-.0136.001-.0272.005-.0402.004-.0129.01-.0249.019-.0353s.019-.019.032-.0253c.012-.0063.025-.0101.038-.0113.014-.0012.028.0003.041.0044.012.0041.025.0107.035.0194s.019.0194.025.0315c.007.012.01.0252.012.0387 0 .0668.588 6.8435-2.173 14.9376-1.571 4.6626-4.035 8.9756-7.256 12.6986-3.983 4.5919-9.17 8.2531-15.389 10.8825-.018.0082-.038.0107-.058.0072z" fill="#fff" opacity=".7"/><path d="m276.547 176.608c-4.068-6.925-.119-18.456 4.707-25.208 5.642-7.882 10.225-6.084 14.136-12.556 7.278-12.048-5.625-23.221.751-35.952 5.212-10.4073 15.812-6.8888 21.059-18.6767 3.787-8.5061.087-14.4262 5.826-20.7457.491-.5421 5.866-6.2905 12.394-5.2496 6.59 1.0517 10.5 8.4067 11.779 13.4865 2.364 9.397-3.909 12.395-5.196 24.5497-1.755 16.5498 8.833 20.7708 5.018 32.6888-3.15 9.843-11.096 9.234-14.373 20.218-3.041 10.198 2.705 14.428 0 21.093-6.217 15.335-47.802 20.476-56.101 6.352z" fill="url(#i)"/><path d="m282.059 187.483c-.026-.002-.05-.013-.068-.031s-.029-.042-.03-.068.007-.051.023-.071.039-.033.064-.038c6.935-.704 13.629-2.925 19.607-6.505 5.634-3.382 11.458-6.878 14.043-13.319 1.957-4.879.88-8.461-.482-13.011-1.325-4.419-2.976-9.918-2.065-18.321.521-4.798 1.168-10.768 5.331-16.417 2.426-3.291 4.782-4.699 6.858-5.944 2.173-1.305 3.902-2.335 4.907-5.096 1.64-4.5.564-8.367-.681-12.8432-.77-2.763-1.564-5.6201-1.865-9.012-.847-9.5452 3.668-19.8097 13.421-30.5078.019-.0176.044-.0274.07-.0275.026-.0002.051.0094.071.0267.019.0174.031.0413.034.0672.003.0258-.004.0518-.02.0728-9.712 10.662-14.21 20.8649-13.368 30.3505.299 3.3721 1.087 6.2201 1.858 8.9741 1.254 4.5182 2.339 8.4082.677 12.9712-1.032 2.83-2.87 3.931-4.997 5.203-2.06 1.234-4.396 2.631-6.796 5.888-4.132 5.602-4.774 11.543-5.292 16.316-.905 8.362.737 13.839 2.057 18.239 1.374 4.581 2.46 8.201.478 13.142-2.613 6.505-8.47 10.02-14.133 13.419-6.003 3.596-12.726 5.827-19.691 6.535z" fill="#fff" opacity=".7"/><path d="m316.797 122.662c-.021 0-.041-.006-.058-.017s-.031-.027-.038-.046c-5.696-12.869-6.59-22.8316-6.337-28.9143.274-6.6086 1.921-10.2229 1.937-10.259.013-.0239.034-.042.06-.0506.025-.0086.053-.007.078.0044.024.0114.043.0317.053.0568s.01.053-.001.0779c-.016.0344-1.649 3.6143-1.919 10.1922-.248 6.0665.647 15.9916 6.321 28.8166.011.025.011.053.001.079-.009.026-.029.047-.054.058-.014.003-.029.004-.043.002z" fill="#fff" opacity=".7"/><path d="m313.039 143.086c-.026 0-.05-.01-.069-.027s-.031-.04-.034-.065.003-.05.017-.071c.015-.021.036-.036.06-.043 7.231-1.915 13.459-4.978 18.51-9.106 4.014-3.269 7.346-7.292 9.809-11.842 4.205-7.771 4.542-14.591 4.546-14.659.002-.028.014-.053.034-.072.02-.018.047-.028.074-.028.014.001.028.004.04.01.012.005.024.014.033.024s.016.022.021.035c.005.012.007.026.006.04 0 .068-.34 6.935-4.566 14.74-2.475 4.575-5.824 8.621-9.859 11.909-5.07 4.157-11.332 7.229-18.595 9.152z" fill="#fff" opacity=".7"/><path d="m307.962 177.343c-.024 0-.048-.009-.067-.025-5.406-4.646-9.658-9.746-12.644-15.154-2.337-4.189-3.93-8.75-4.707-13.481-1.267-7.867.406-13.317.424-13.373.004-.013.01-.025.019-.036s.02-.019.032-.026c.012-.006.025-.01.039-.011.013-.001.027 0 .04.004.026.009.048.027.061.052.013.024.016.052.008.078-.018.055-1.667 5.467-.414 13.288.776 4.707 2.364 9.244 4.692 13.411 2.971 5.383 7.209 10.459 12.592 15.087.01.009.019.02.025.033.006.012.01.025.011.039s-.001.028-.005.041c-.005.013-.011.025-.021.035-.01.013-.023.023-.038.03-.014.006-.03.009-.047.008z" fill="#fff" opacity=".7"/><path d="m327.983 85.2709c-.024.0009-.048-.0068-.067-.0218-.02-.015-.033-.0363-.038-.0601s-.001-.0486.01-.07c.012-.0214.031-.038.053-.0469 5.238-2.2119 9.596-5.2912 12.948-9.1494 2.709-3.1295 4.782-6.755 6.103-10.6747 2.323-6.8056 1.836-12.4944 1.831-12.5504 0-.0262.009-.0514.027-.0708.017-.0194.042-.0315.068-.034s.052.0048.073.0205.035.0387.04.0644c0 .0579.496 5.7828-1.841 12.6372-1.329 3.9448-3.414 7.5938-6.139 10.7433-3.375 3.8835-7.758 6.9809-13.025 9.2054-.013.0056-.028.008-.043.0073z" fill="#fff" opacity=".7"/><path d="m232.634 181.041c-9.49-4.032-14.407-15.785-14.721-25.119-.485-14.392 10.206-16.716 11.491-32.181 1.365-16.445-10.223-19.842-8.264-35.4377 1.794-14.2853 11.767-13.3727 16.136-30.2006 4.401-16.9272-3.952-23.8991 3.078-37.6386 1.341-2.6185 6.856-13.38712 16.52-14.09551 8.085-.59273 15.388 6.12611 18.466 12.54321 3.467 7.2556.058 11.0794.393 23.9117.458 17.5291 7.01 17.7188 5.82 29.6259-1.589 15.9135-13.44 19.2295-12.008 31.9696.965 8.568 6.966 8.586 10.467 18.622 5.006 14.344-1.135 31.838-10.954 42.869-1.295 1.458-20.101 22.067-36.424 15.131z" fill="url(#j)"/><g fill="#fff"><path d="m238.246 186.039c-.021.001-.042-.005-.06-.016-.018-.012-.032-.028-.04-.048s-.01-.041-.006-.062.015-.04.03-.054c10.763-11.449 16.053-22.994 15.726-34.316-.156-5.365-1.525-8.562-3.109-12.263s-3.389-7.917-4.597-15.371c-.877-5.133-1.274-10.336-1.185-15.541.181-8.6493 1.81-16.7362 4.841-24.0351 2.639-6.3448 5.357-9.6645 7.54-12.33 2.491-3.0431 4.459-5.4448 5.25-10.7993.92-6.24-.807-10.3927-2.806-15.2033-1.685-4.0515-3.594-8.6434-4.191-15.3189-.88-9.8235.695-20.1276 4.68-30.6233775.01-.0258882.03-.0467986.055-.05827578.026-.01147722.055-.01261292.081-.00316554.013.00459759.025.01176204.035.02106132.01.0092993.018.0205387.023.0330397.006.0125009.009.0260045.009.0396906 0 .0136862-.002.0272702-.008.0399332-3.982 10.468594-5.543 20.740294-4.667 30.540294.594 6.6429 2.497 11.2186 4.175 15.2575 2.011 4.8376 3.749 9.0175 2.822 15.3135-.798 5.4105-2.782 7.8338-5.293 10.9005-2.173 2.6565-4.888 5.9635-7.51 12.2775-3.027 7.2755-4.651 15.337-4.825 23.9604-.086 5.191.31 10.378 1.183 15.496 1.205 7.429 3 11.624 4.584 15.325s2.969 6.933 3.124 12.337c.33 11.385-4.98 22.975-15.781 34.465-.01.011-.022.02-.036.027-.014.006-.029.009-.044.009z" opacity=".7"/><path d="m262.423 52.5875c-.014.0025-.029.0025-.044 0-11.248-5.3346-18.082-15.8159-21.833-23.6732-4.061-8.5043-5.486-15.8448-5.498-15.9189-.003-.0134-.003-.0272 0-.0405.003-.0134.008-.026.016-.0373.008-.0112.018-.0208.029-.0283.012-.0074.024-.0125.038-.015.013-.0025.027-.0023.041.0005.013.0028.026.0083.037.016s.021.0176.028.029c.008.0114.013.0242.015.0376.015.0723 1.434 7.3911 5.486 15.8719 3.736 7.8194 10.54 18.2519 21.725 23.563.021.0105.038.0277.048.049.01.0212.013.0453.008.0682-.006.023-.018.0435-.037.0583-.018.0148-.041.023-.065.0233z" opacity=".7"/><path d="m248.952 87.0383c-.028 0-.055-.0111-.075-.0307-.019-.0197-.03-.0463-.03-.0741s.011-.0545.03-.0742c.02-.0196.047-.0307.075-.0307 6.711-.2512 12.622-2.2137 17.573-5.8297 3.963-2.8914 7.323-6.8472 9.988-11.7463 4.541-8.3579 5.497-16.6851 5.506-16.7682.001-.0136.005-.0267.012-.0387.006-.012.015-.0226.026-.0311.01-.0086.022-.015.036-.0188.013-.0039.026-.0051.04-.0036.014.0014.027.0055.039.012.013.0066.023.0155.032.0262.009.0108.015.0232.019.0365s.006.0272.004.041c-.011.0831-.97 8.4501-5.531 16.8441-2.679 4.9316-6.059 8.9091-10.046 11.8222-4.986 3.6395-10.938 5.6147-17.689 5.8695z" opacity=".7"/><path d="m244.949 104.251c-.014.003-.028.003-.042 0-5.724-2.472-10.348-5.9637-13.748-10.3767-2.716-3.5293-4.664-7.6531-5.777-12.254-1.897-7.8321-.713-14.428-.701-14.4949.003-.0134.008-.0262.015-.0376.008-.0115.017-.0213.029-.029.011-.0078.024-.0132.037-.016s.027-.003.04-.0005c.014.0025.027.0076.038.015.012.0074.022.0171.029.0283.008.0112.013.0239.016.0372.003.0134.003.0271.001.0406-.011.065-1.188 6.6248.7 14.4153 1.108 4.572 3.04 8.6742 5.741 12.1728 3.377 4.3822 7.966 7.8505 13.663 10.3005.013.005.025.013.034.022.01.01.017.022.022.034.006.013.008.026.008.04-.001.014-.004.027-.009.04-.008.018-.022.034-.039.046-.017.011-.037.017-.057.017z" opacity=".7"/><path d="m253.539 147.208c-.025-.001-.048-.01-.067-.025-.018-.015-.031-.037-.036-.06-.003-.014-.003-.028 0-.041.002-.014.008-.026.016-.038.007-.011.017-.021.029-.029.011-.007.024-.012.038-.015 6.085-1.155 11.416-3.71 15.845-7.59 3.544-3.11 6.517-7.075 8.856-11.782 3.97-8.02 4.689-15.513 4.694-15.589.004-.027.018-.051.039-.069.021-.017.048-.026.076-.025.013.002.027.005.039.012.012.006.023.015.032.026.008.01.015.022.019.036.004.013.005.027.004.04 0 .074-.724 7.608-4.707 15.661-2.343 4.733-5.339 8.719-8.904 11.845-4.459 3.911-9.823 6.484-15.944 7.646z" opacity=".7"/><path d="m248.535 172.283h-.016c-5.462-.788-10.32-3.117-14.446-6.923-3.296-3.043-6.13-7.029-8.422-11.851-3.901-8.202-4.888-16.083-4.906-16.166-.002-.014-.001-.028.003-.041.003-.013.01-.025.018-.036s.019-.02.031-.026c.012-.007.025-.011.039-.013.027-.003.054.005.076.022.021.017.035.041.039.068.852 5.575 2.498 11 4.889 16.109 2.282 4.794 5.099 8.759 8.374 11.782 4.092 3.777 8.915 6.087 14.334 6.867.013.001.026.005.038.011.013.006.023.015.032.025s.016.022.02.035c.005.013.006.026.005.04 0 .013-.004.026-.01.039-.006.012-.015.023-.025.031-.01.009-.022.016-.035.02-.013.005-.026.006-.04.005z" opacity=".7"/></g><path d="m65.7933 203.012c-4.6256.299-8.4076-2.914-8.4076-7.164v-148.5015c0-4.2503 3.782-7.561 8.4076-7.3821l198.2817 10.7072c3.509.1355 7.271.2494 7.271 3.9251v128.4123c0 3.673-2.842 6.849-6.351 7.076z" fill="#364154" opacity=".54"/><path d="m67.4104 203.012c-4.6257.299-8.4094-2.914-8.4094-7.164v-148.5015c0-4.2503 3.7837-7.561 8.4094-7.3821l199.1996 7.72c3.509.1374 6.351 3.2366 6.351 6.9123v128.4123c0 3.673-2.842 6.849-6.351 7.076z" fill="url(#l)"/><path d="m266.61 52.1155-199.1997-7.0731c-1.566-.0542-2.8351 1.0626-2.8351 2.4993v147.9723c0 1.435 1.2673 2.521 2.8351 2.425l199.1947-12.288c1.191-.073 2.156-1.146 2.156-2.395v-128.8021c0-1.2487-.965-2.2969-2.151-2.3384z" fill="url(#m)"/><g fill="#fff" opacity=".53"><path d="m137.649 182.676c-.198 0-.388-.078-.529-.218-.14-.14-.219-.33-.219-.528v-122.7158c-.005-.101.011-.2019.046-.2967.036-.0947.09-.1814.16-.2546.069-.0732.153-.1315.246-.1714.094-.0398.194-.0603.295-.0603s.202.0205.295.0603c.093.0399.177.0982.247.1714.069.0732.124.1599.159.2546.035.0948.051.1957.046.2967v122.7158c0 .098-.019.195-.056.286-.038.09-.093.172-.162.242-.069.069-.152.124-.242.162-.091.037-.188.056-.286.056z" opacity=".53"/><path d="m208.133 178.876c-.098 0-.195-.019-.286-.056-.09-.038-.173-.092-.242-.162-.07-.069-.125-.151-.162-.241-.038-.091-.057-.188-.057-.286v-116.9617c-.005-.101.01-.2019.046-.2967.035-.0948.089-.1814.159-.2546.07-.0733.154-.1316.247-.1714s.193-.0604.294-.0604c.102 0 .202.0206.295.0604s.177.0981.247.1714c.07.0732.124.1598.159.2546.036.0948.051.1957.046.2967v116.9617c0 .198-.078.387-.218.527-.14.139-.33.218-.528.218z" opacity=".53"/></g><path d="m148.285 101.661v45.935c0 .253.054.504.158.735.104.23.255.437.445.605.189.168.412.294.654.37s.497.1.749.07l39.196-4.651c.307-.037.603-.139.867-.299.265-.16.492-.375.667-.63.174-.255.292-.544.346-.848s.041-.617-.036-.916c-1.086-4.208-3.182-13.065-3.191-19.233 0-.079-.021-.157-.062-.226-.04-.068-.098-.124-.168-.162l-38.96-21.144c-.069-.039-.146-.059-.225-.058-.078 0-.155.022-.223.062-.067.04-.123.097-.161.166-.038.068-.058.146-.056.224z" fill="url(#o)" opacity=".3"/><path d="m149.055 100.837 47.337-4.8409c.178-.0189.357.0312.5.1401s.238.2683.267.4454c.628 3.9124 4.238 24.4844 12.635 37.6544.061.096.098.205.107.318.01.113-.008.226-.052.331-.044.104-.112.196-.2.269-.087.072-.191.122-.302.145l-42.353 9.061c-.105.022-.214.021-.319-.005-.104-.026-.201-.076-.284-.145-1.765-1.489-11.619-11.007-17.956-42.534-.019-.096-.018-.195.004-.291.021-.096.062-.186.121-.265.058-.079.132-.145.217-.193.085-.049.18-.079.278-.09z" fill="url(#q)"/><path d="m205.7 140.549-.514-3.087s.905-1.503-.434-2.611c-1.34-1.108 1.969-.579 2.23 1.904l-.831 1.495 1.416 1.988z" fill="#f4caab"/><path d="m169.965 148.594-1.267-3.125s.272-1.05-.413-1.637c-.684-.587-.362-.415-.362.181s-.905.04-1.662-.504-.376.688.058 1.313c.435.626.672 1.009 1.465 1.224s.834 2.541.834 2.541z" fill="#f4caab"/><path d="m194.443 206.586c.125-.452 1.204-.103 1.909.134.704.236.954.602 1.002.903.049.302-.191.944-.791.508-.492-.363-2.228-1.147-2.12-1.545z" fill="#26264f"/><path d="m196.186 205.129.099 1.885s.429.474.639.336l.288-2.078z" fill="#efbc90"/><path d="m192.806 203.237 1.525 1.137-.487.791-1.597-.84z" fill="#efbc90"/><path d="m191.929 206.554s1.062.556 1.72 0c.421-.362.861-1.019 1.12-1.446.068-.112.091-.246.063-.375-.027-.128-.102-.242-.209-.317-.326-.228-.779-.495-1.014-.427-.395.114-.373 1.49-.605 1.793-.232.304-1.023.34-1.075.772z" fill="#26264f"/><path d="m196.274 176.178c-1.661 9.777-1.808 19.751-.435 29.573.209.168.451.291.71.362.296.078.606.084.905.018.773-2.046 1.334-3.795 1.724-5.098 1.032-3.446 1.546-5.214 1.558-7.409 0-2.057-.385-1.988-.345-4.254.034-2.015.372-3.492.878-5.653.46-1.96 1.038-3.891 1.73-5.783z" fill="#364154"/><path d="m196.4 204.362c-.11-1.551.931-2.005 1.267-3.862.401-2.27-.966-2.66-.811-5.282.123-2.108 1.02-2.082 1.373-4.596.373-2.673-.543-3.444.05-4.964.324-.844 1.114-1.916 3.207-2.794.423-1.665.93-3.308 1.52-4.923l-6.724-1.763c-1.661 9.777-1.807 19.751-.434 29.573.209.168.451.291.71.362.16.04.325.061.49.059-.366-.539-.589-1.162-.648-1.81z" fill="#364154" opacity=".3"/><path d="m190.934 174.168c-.456 1.408-.987 2.789-1.593 4.139-1.73 3.863-2.929 4.949-3.787 7.539-.685 2.144-.897 4.411-.621 6.645.711 6.816 6.038 11.159 7.462 12.25.315-.539.632-1.082.949-1.626-.409-.932-.73-1.9-.958-2.892-.497-2.168-.293-3.33-.494-5.401-.362-3.732-1.372-3.452-1.173-5.262.315-2.872 2.835-3.47 6.123-8.329.724-1.073 1.378-2.191 1.959-3.347z" fill="#364154"/><path d="m204.678 138.579 2.775-.154c1.674 3.007 2.547 6.392 2.535 9.831-.011 2.886-.664 5.734-1.912 8.338-1.217 2.475-2.962 4.654-5.114 6.383 0 5.114.096 8.34.271 10.271.127 1.565.107 3.138-.061 4.699-.082.768-.123 1.156-.228 1.368-1.461 2.942-9.831.611-12.092-.362-.587-.252-1.184-.605-1.448-1.23-.328-.803-.015-1.529.114-2.169.313-1.561-.616-2.741-2.482-5.77-.788-1.281-1.934-3.204-3.272-5.701-1.548.45-5.196 1.265-8.768-.443-5.25-2.499-8.244-9.421-6.716-16.922l1.598-.455c.462 1.934 1.285 3.763 2.426 5.392.844 1.2 1.548 2.198 2.768 2.756 1.918.876 3.621-.013 6.111-.627 1.359-.334.941-.063 11.184-.166 4.371-.045 5.25-.094 6.592-.568.923-.329 3.661-1.301 5.399-3.851 3.083-4.498.507-10.219.32-10.62z" fill="url(#s)"/><path d="m191.424 150.217s-.261 1.043.107 1.511c.367.468 1.595 2.258 1.991 2.349.228.05.799.135 1.248.2.051.007.099.031.136.067s.061.084.068.135c.008.051-.002.103-.026.149-.025.045-.064.082-.111.103-.446.193-1.233.389-2.584.374-1.476-.035-2.922-.429-4.211-1.147-.021-.012-.038-.03-.047-.052s-.01-.047-.003-.07.022-.042.042-.056c.02-.013.044-.018.068-.016l.88.065c.176.014.354-.012.52-.075.165-.063.315-.162.438-.289.123-.128.216-.281.273-.448.057-.168.076-.346.056-.521l-.054-.488z" fill="#f4caab"/><path d="m190.616 152.317c-.119-.067-1.103-.181-1.238-.714-.181-.723.461-1.587.543-1.726.337-.587.42-.667.577-.766l.216-.127h.027c.231-.041.467-.05.701-.027.3.072.595 1.31.463 3.051.013.065.022.133.033.2.025.168-1.331.17-1.322.109z" fill="#f4caab"/><path d="m189.693 148.874c-.042.213.521.636.762.819.075.062.14.135.192.217.012.02.021.042.029.065.11.343-.44.723-.339.885.073.112.444-.027.485.069.042.096-.269.269-.226.378.043.108.225.012.34.139.056.063.038.112.098.303.03.101.069.198.116.291.181.322.706.448.811.326.029-.037 0-.065.036-.181.026-.082.063-.16.109-.233.114-.181.382-.304.652-.49.296-.175.535-.434.686-.743.003-.011.008-.022.012-.032 0-.017.013-.035.019-.051.106-.345-.334-.945-.334-.945-.311-.407-.704-.745-1.153-.992-.508-.103-1.03-.127-1.546-.072-.3.029-.715.079-.749.247z" fill="#364154"/><path d="m189.487 150.665s.416.497.965-.102l.271.08s-.662 1.457-.805 1.457c-.188-.02-.373-.051-.556-.094-.075-.032-.137-.088-.175-.16s-.049-.155-.032-.234c.083-.325.194-.642.332-.947z" fill="#364154"/><path d="m190.587 150.737c.137-.181.362 0 .362.233s-.237.474-.458.423c-.221-.05-.087-.415.096-.656z" fill="#efbc90"/><path d="m200.711 178.466c-2.835.997-6.141-.461-6.964-2.451-.61-1.471.693-2.873-.23-4.387-.887-1.459-2.489-.805-3.596-2.279-1.205-1.609.212-3.033-.856-5.187-.806-1.626-2.732-3.081-4.626-3.072-2.25 0-3.09 2.071-5.023 1.652-1.011-.219-.987-.828-2.397-1.823-2.45-1.728-4.092-1.005-6.111-2.223-.743-.457-1.38-1.067-1.868-1.789 1.204 3.056 3.29 5.473 5.96 6.744 3.572 1.7 7.22.893 8.768.443 1.338 2.497 2.484 4.42 3.271 5.701 1.867 3.029 2.795 4.209 2.482 5.77-.128.636-.441 1.363-.114 2.169.255.625.853.977 1.449 1.23 2.261.976 10.63 3.307 12.091.362.105-.212.147-.6.228-1.368.051-.477.085-.934.107-1.365-.657.86-1.55 1.51-2.571 1.873z" fill="url(#t)" opacity=".3"/><path d="m194.696 122.033c-5.344-1.337-6.72-6.894-11.612-6.854-4.839.041-5.883 5.499-10.199 5.24-4.908-.292-5.864-7.49-12.219-9.173-2.19-.58-4.323-.318-6.155.224 3.568 16.705 11.782 28.318 11.782 28.318l38.868-7.98c-1.849-2.908-3.462-6.434-4.836-10.046-2.33.708-4.175.634-5.629.271z" fill="url(#u)" opacity=".19"/><path d="m153.396 105.536c-.192 0-.376-.074-.515-.206-.139-.133-.221-.313-.231-.504-.009-.191.056-.379.181-.524s.302-.236.493-.255l40.191-3.88c.195-.014.387.048.537.174.149.126.243.305.262.499.018.194-.04.388-.162.54-.123.152-.3.249-.494.272l-40.191 3.88z" fill="#fff"/><path d="m168.549 107.963c-.19-.002-.372-.076-.509-.207s-.219-.309-.229-.499c-.011-.189.051-.375.173-.52s.295-.239.484-.261l25.744-2.823c.097-.011.196-.002.29.025.094.028.182.073.259.134.076.062.14.137.187.223s.077.18.088.277c.01.098.002.196-.026.29-.027.094-.073.182-.134.258-.062.077-.137.14-.223.187s-.181.077-.278.088l-25.744 2.822z" fill="#fff"/><path d="m148.285 55.813v39.4873c0 .6437.256 1.261.712 1.7161.456.4552 1.075.7108 1.72.7108h41.501c.32 0 .636-.0627.931-.1847s.563-.3007.789-.5261c.225-.2254.405-.4929.527-.7873.122-.2945.185-.6101.185-.9288v-25.0882z" fill="url(#v)" opacity=".3"/><path d="m204.719 94.4022h-51.146c-3.367-7.2936-5.974-22.092-5.288-38.5892l51.613 2.4324c-1.12 15.3821.856 29.7957 4.821 36.1568z" fill="url(#w)"/><path d="m222.964 115.592 1.644 3.136 3.673.455c.087.007.17.039.239.092s.121.125.149.207c.029.082.032.171.011.255s-.067.161-.131.219l-2.655 2.485.628 3.445c.01.087-.003.175-.039.256-.036.08-.093.149-.165.2s-.156.081-.244.088-.176-.01-.255-.049l-3.298-1.571-3.321 1.704c-.076.045-.164.067-.253.065-.089-.003-.175-.03-.249-.08-.074-.049-.133-.117-.17-.198s-.05-.17-.039-.258l.637-3.488-2.699-2.423c-.065-.06-.111-.138-.132-.224-.022-.085-.018-.176.011-.259.029-.084.081-.157.151-.211.069-.055.153-.088.241-.096l3.726-.558 1.659-3.177c.041-.08.104-.147.181-.195.077-.047.165-.073.255-.075.09-.001.179.022.258.067.078.045.143.11.187.188z" fill="url(#x)"/><path d="m236.83 115.448 1.61 3.092 3.584.448c.085.008.166.04.233.093s.118.124.145.205c.028.081.031.168.011.25-.021.083-.065.158-.128.216l-2.591 2.454.614 3.401c.012.086 0 .174-.034.254-.034.079-.09.148-.161.198-.07.051-.153.081-.24.088-.087.006-.173-.011-.251-.05l-3.219-1.55-3.237 1.68c-.075.044-.161.065-.248.062s-.171-.03-.244-.078c-.072-.049-.129-.116-.165-.196-.035-.079-.048-.166-.036-.252l.619-3.446-2.633-2.393c-.063-.06-.107-.136-.128-.22-.021-.085-.017-.173.011-.255.028-.083.079-.155.147-.209s.15-.088.237-.097l3.633-.542 1.619-3.137c.04-.077.1-.142.174-.188.075-.046.16-.072.247-.073.087-.002.174.02.249.063.076.043.139.106.182.182z" fill="url(#y)"/><path d="m250.358 115.305 1.571 3.054 3.498.445c.083.009.163.041.228.094.066.052.115.123.142.202.026.079.03.165.01.246-.021.082-.064.156-.125.213l-2.534 2.425.597 3.36c.012.084.001.169-.033.247-.033.078-.087.146-.156.196-.069.049-.15.079-.235.086s-.17-.009-.246-.047l-3.141-1.532-3.157 1.659c-.074.042-.159.063-.244.06-.086-.003-.168-.03-.239-.078s-.127-.115-.162-.193c-.034-.078-.046-.164-.034-.248l.606-3.403-2.569-2.366c-.061-.058-.105-.134-.126-.216-.02-.083-.017-.17.01-.251.028-.081.077-.152.144-.206.066-.053.146-.087.231-.096l3.547-.543 1.579-3.099c.038-.077.098-.143.171-.189.073-.045.158-.07.245-.071s.172.022.246.066c.075.045.136.109.176.185z" fill="url(#z)"/><path d="m263.561 115.166 1.534 3.018 3.414.441c.083.009.161.042.225.094.065.052.113.121.139.199.026.079.029.163.009.243-.02.081-.063.153-.123.21l-2.467 2.395.583 3.319c.012.083.002.167-.03.244s-.085.144-.152.193c-.068.049-.147.079-.23.086-.084.007-.167-.009-.242-.046l-3.065-1.516-3.078 1.639c-.072.042-.156.063-.24.06-.083-.003-.165-.03-.234-.078-.069-.047-.124-.113-.157-.19-.033-.078-.043-.163-.03-.245l.591-3.362-2.508-2.336c-.06-.058-.103-.132-.123-.214-.02-.081-.016-.167.01-.246.027-.08.075-.15.14-.203.065-.054.143-.087.227-.098l3.461-.542 1.541-3.061c.038-.073.096-.135.167-.178s.152-.065.235-.066c.082 0 .164.022.235.064s.129.103.168.176z" fill="url(#A)"/><path d="m276.452 115.03 1.497 2.984 3.335.435c.08.011.156.044.219.095.063.052.109.121.135.198.025.077.028.16.008.238-.019.079-.061.151-.12.207l-2.41 2.365.571 3.28c.013.081.003.164-.028.24s-.082.142-.148.19c-.066.049-.144.079-.226.086-.081.007-.164-.008-.237-.044l-2.993-1.498-3.011 1.626c-.071.041-.153.06-.235.056-.082-.003-.162-.03-.229-.077-.068-.047-.121-.112-.153-.187-.032-.076-.042-.159-.029-.24l.578-3.323-2.448-2.308c-.06-.058-.102-.131-.122-.211-.019-.08-.016-.165.01-.243.025-.079.073-.149.137-.202.063-.053.141-.087.223-.098l3.378-.527 1.505-3.025c.035-.075.09-.138.159-.182.07-.045.15-.069.232-.071s.163.02.234.061c.071.042.129.103.168.175z" fill="#d8dee8"/><path d="m284.861 133.546-65.591 1.836c-1.646.045-2.986-1.171-2.986-2.711v-.619c0-1.547 1.34-2.83 2.986-2.868l65.591-1.475c.343-.01.685.049 1.005.174.32.124.612.312.858.551.246.24.441.526.574.842.132.317.2.656.199.999v.56c0 .706-.275 1.383-.767 1.89-.492.506-1.163.8-1.869.821z" fill="#d8dee8"/><path d="m257.965 128.306-38.572.867c-1.715.038-3.109 1.375-3.109 2.985v.389c0 1.61 1.394 2.877 3.109 2.83l34.524-.967z" fill="url(#B)"/><path d="m197.175 63.1843c-.021-.2934-.15-.5688-.361-.7739-.211-.2052-.49-.3259-.785-.3393l-44.199-1.9751c-.163-.0074-.325.0182-.477.0751s-.291.144-.408.2559c-.117.112-.211.2465-.275.3956-.064.149-.097.3094-.097.4715v.2566c0 .3102.12.6085.336.8323.215.2237.509.3555.819.3676l44.211 1.7186c.168.0052.335-.0248.491-.0883.156-.0634.296-.1587.413-.2798s.206-.2653.264-.4232c.057-.1579.08-.3261.068-.4936z" fill="#fff"/><path d="m177.261 65.9363-25.377-.8584c-.17-.0058-.34.0226-.499.0834-.16.0609-.305.153-.428.2709s-.221.2593-.289.4157c-.067.1564-.102.3247-.104.495v.159c.003.3303.134.6467.366.8827.231.2359.546.3729.876.3823l25.37.7228c.338.0106.667-.1135.913-.3448.247-.2313.391-.5509.402-.8885.011-.3377-.114-.6657-.345-.9119-.232-.2462-.552-.3905-.891-.401z" fill="#fff"/><g opacity=".19"><path d="m159.488 88.2692-2.522-.0055-1.278-13.7539 2.482.0379z" fill="url(#C)" opacity=".19"/><path d="m163.943 88.2779-2.501-.0054-.68-6.9068 2.48.0217z" fill="url(#D)" opacity=".19"/><path d="m168.361 88.2888-2.481-.0072-1.553-14.9051 2.437.0415z" fill="url(#E)" opacity=".19"/><path d="m172.738 88.2981-2.457-.0055-1.392-12.6769 2.422.0362z" fill="url(#F)" opacity=".19"/><path d="m177.081 88.3069-2.438-.0055-.395-3.4244 2.428.0126z" fill="url(#G)" opacity=".19"/><path d="m181.386 88.3161-2.417-.0036-.963-7.9712 2.395.0253z" fill="url(#H)" opacity=".19"/><path d="m185.656 88.327-2.397-.0054-1.438-11.3885 2.367.0325z" fill="url(#I)" opacity=".19"/><path d="m189.888 88.3356-2.377-.0054-1.092-8.3019 2.353.0235z" fill="url(#J)" opacity=".19"/><path d="m194.085 88.3448-2.355-.0054-1.746-12.751 2.323.0343z" fill="url(#K)" opacity=".19"/><path d="m198.249 88.3538-2.337-.0054-2.003-14.0901 2.299.0379z" fill="url(#L)" opacity=".19"/></g><path d="m198.567 90.5528h-41.39l-.139-1.4981 41.321.0596z" fill="#fff"/><path d="m91.3734 216.78c-.0777 0-.152-.031-.2069-.086s-.0859-.129-.0864-.207v-92.072c0-.078.0309-.152.0859-.207s.1296-.086.2074-.086c.0777 0 .1523.031.2073.086.0551.055.086.129.086.207v92.078c-.0019.076-.0336.149-.0883.203-.0548.053-.1283.084-.205.084z" fill="#a2a7ae"/><path d="m131.669 214.886c-.038 0-.076-.008-.112-.022-.035-.015-.067-.037-.094-.064s-.049-.059-.063-.095c-.015-.035-.022-.073-.022-.112v-90.175c.006-.073.039-.142.093-.192s.126-.078.199-.078c.074 0 .145.028.199.078.055.05.088.119.094.192v90.175c0 .039-.007.077-.022.113-.015.035-.036.068-.064.095-.027.027-.059.049-.095.063-.036.015-.074.022-.113.022z" fill="#a2a7ae"/><path d="m127.602 227.57c-.066 0-.13-.022-.182-.062-.051-.041-.088-.098-.103-.162l-24.198-102.037c-.018-.075-.005-.154.036-.22.04-.066.105-.113.181-.131.075-.018.154-.006.221.035.066.04.113.105.131.181l24.198 102.038c.009.038.01.076.004.114s-.02.074-.04.107c-.02.032-.047.061-.078.083s-.066.038-.103.047c-.022.005-.045.008-.067.007z" fill="#fafbfc"/><path d="m165.046 222.556c-.065-.001-.129-.022-.18-.062s-.088-.096-.104-.159l-24.803-97.02c-.013-.038-.018-.079-.015-.119.004-.04.016-.079.035-.115.019-.035.046-.066.077-.091.032-.025.069-.043.108-.053s.08-.011.12-.005c.04.007.078.021.112.043s.063.051.085.084c.022.034.037.072.044.111l24.803 97.021c.011.037.013.077.008.115-.005.039-.018.076-.038.11-.019.034-.046.063-.077.086-.031.024-.067.041-.105.05-.023.004-.047.005-.07.004z" fill="#fafbfc"/><path d="m141.664 125.324-38.596.826-12.3668-.826v-1.818l28.7588-.582 22.204.582z" fill="#d8dee8"/><path d="m141.665 125.324-38.597.826v-1.818l38.597-.826z" fill="url(#N)"/><path d="m108.628 147.567c-.074-.003-.144-.034-.196-.087s-.082-.123-.084-.197.024-.146.073-.201c.048-.056.117-.091.19-.098l36.361-2.021c.077-.004.153.023.211.074.057.052.092.124.096.201.005.077-.022.153-.073.211-.052.057-.124.092-.202.096l-36.36 2.022z" fill="#fafbfc"/><path d="m113.439 167.852c-.074-.002-.145-.033-.197-.085-.053-.053-.083-.123-.086-.197-.002-.074.024-.146.072-.202.049-.056.117-.091.191-.099l36.978-2.46c.038-.002.076.003.113.015.036.012.07.031.098.056.029.026.053.056.07.091.017.034.027.071.03.109.003.039-.002.077-.015.113-.012.036-.031.07-.056.099-.026.029-.056.052-.091.069-.034.017-.071.028-.11.03l-36.977 2.463z" fill="#fafbfc"/><path d="m118.221 188.02c-.074-.003-.144-.033-.197-.085-.053-.053-.084-.123-.086-.197-.003-.074.022-.146.071-.202s.117-.092.191-.1l37.251-2.83c.038-.003.077.001.113.013.037.011.071.03.1.055.03.025.054.055.071.09.018.034.028.071.031.11.005.077-.02.153-.07.212-.051.059-.123.096-.2.102l-37.246 2.832z" fill="#fafbfc"/><path d="m122.977 208.074c-.074-.002-.145-.032-.198-.084-.054-.052-.085-.122-.088-.196-.004-.075.022-.147.07-.204.049-.056.117-.092.191-.1l37.475-3.336c.04-.006.081-.004.12.006s.075.028.107.053c.031.024.058.055.077.091.019.035.031.074.034.114.004.04-.001.08-.014.118s-.033.073-.06.103-.06.054-.096.071c-.037.016-.077.025-.117.026l-37.475 3.336z" fill="#fafbfc"/><path d="m74.9775 62.725v28.4006c.0007 4.243.5663 8.467 1.6819 12.5614l.4273 1.565c.0776.282.2459.532.479.71.2332.177.5183.274.8118.275h54.2275c.172 0 .342-.039.497-.114.155-.074.292-.183.399-.317.108-.134.183-.291.222-.459.038-.167.039-.341.001-.509-.65-2.891-2.055-9.5958-2.055-13.4793l-3.114-24.5768c0-1.1981 2.16-3.757.959-3.7949l-53.1587-1.5939c-.1787-.005-.3565.0256-.5231.0902s-.3186.1618-.447.2859-.2306.2726-.3006.4368c-.07.1641-.1064.3406-.1071.519z" fill="url(#O)" opacity=".3"/><path d="m74.9775 57.1881v28.4024c.0005 4.2424.5661 8.4659 1.6819 12.5595l.4273 1.5649c.0771.2828.2452.5321.4785.7101.2332.178.5187.275.8123.275h54.2275c.172 0 .342-.039.497-.114.155-.074.291-.182.398-.316.108-.135.184-.2911.222-.4584.039-.1673.039-.3412.002-.5087-.65-2.8914-2.055-9.5958-2.055-13.4793v-26.158c.001-.5768-.224-1.1311-.626-1.5452-.403-.4141-.951-.6552-1.529-.6721l-53.1587-1.5957c-.179-.0051-.3571.0257-.524.0905-.1668.0648-.3189.1624-.4474.2869-.1284.1245-.2305.2734-.3003.4379-.0698.1646-.1059.3415-.1061.5202z" fill="url(#P)"/><path d="m126.665 66.5021h-.02l-46.5799-1.1746c-.106-.0026-.2105-.026-.3075-.0689-.0969-.043-.1845-.1045-.2576-.1812s-.1304-.167-.1686-.2658c-.0381-.0988-.0564-.2041-.0538-.3099.0026-.1059.0261-.2102.0691-.3069.043-.0968.1046-.1842.1815-.2572.0768-.073.1673-.1302.2662-.1683.099-.0381.2045-.0563.3105-.0537l46.5861 1.1692c.214.0033.419.0918.569.2458.149.154.231.361.228.5755s-.092.4189-.246.5681c-.155.1493-.362.2313-.577.2279z" fill="#fff"/><g opacity=".19"><path d="m100.116 73.8862-5.7771-.1681v-4.0028l5.7771.206z" fill="url(#Q)" opacity=".19"/><path d="m107.122 74.0904-5.644-.1644v-3.9558l5.644.2006z" fill="url(#R)" opacity=".19"/><path d="m113.969 74.2892-5.518-.1608v-3.9106l5.518.1969z" fill="url(#S)" opacity=".19"/><path d="m120.664 74.4841-5.395-.1573v-3.8654l5.395.1916z" fill="url(#T)" opacity=".19"/><path d="m127.209 74.6757-5.275-.1536v-3.8239l5.275.188z" fill="url(#U)" opacity=".19"/><path d="m85.6054 79.535-6.0595-.1175v-4.0967l6.0595.1554z" fill="url(#V)" opacity=".19"/><path d="m92.9467 79.6778-5.9164-.1139v-4.0497l5.9164.1536z" fill="url(#W)" opacity=".19"/><path d="m100.116 79.8171-5.7771-.112v-4.001l5.7771.15z" fill="url(#X)" opacity=".19"/><path d="m107.122 79.9547-5.644-.1103v-3.9557l5.644.1463z" fill="url(#Y)" opacity=".19"/><path d="m113.969 80.0866-5.518-.1067v-3.9106l5.518.1428z" fill="url(#Z)" opacity=".19"/><path d="m120.664 80.2163-5.395-.1048v-3.8654l5.395.1391z" fill="url(#aa)" opacity=".19"/><path d="m127.209 80.3448-5.275-.103v-3.8238l5.275.1373z" fill="url(#ab)" opacity=".19"/><path d="m85.6054 85.609-6.0595-.0596v-4.0968l6.0595.0976z" fill="url(#ac)" opacity=".19"/><path d="m92.9467 85.6795-5.9164-.056v-4.0498l5.9164.0958z" fill="url(#ad)" opacity=".19"/><path d="m100.116 85.7497-5.7771-.056v-4.0028l5.7771.094z" fill="url(#ae)" opacity=".19"/><path d="m107.122 85.8166-5.644-.0542v-3.9558l5.644.0922z" fill="url(#af)" opacity=".19"/><path d="m113.969 85.8834-5.518-.0524v-3.9106l5.518.0886z" fill="url(#ag)" opacity=".19"/><path d="m120.664 85.9486-5.395-.0524v-3.8654l5.395.0867z" fill="url(#ah)" opacity=".19"/><path d="m127.209 86.0118-5.275-.0506v-3.822l5.275.0849z" fill="url(#ai)" opacity=".19"/><path d="m85.6054 91.6807h-6.0595v-4.0967l6.0595.0397z" fill="url(#aj)" opacity=".19"/><path d="m92.9467 91.6808h-5.9164v-4.048l5.9164.038z" fill="url(#ak)" opacity=".19"/><path d="m100.116 91.6806h-5.7771v-4.0009l5.7771.0379z" fill="url(#al)" opacity=".19"/><path d="m107.122 91.681h-5.644v-3.9539l5.644.0361z" fill="url(#am)" opacity=".19"/><path d="m113.969 91.6808h-5.518v-3.9088l5.518.0343z" fill="url(#an)" opacity=".19"/></g><path d="m107.096 71.5205c-.398-.2072-.743-.5027-1.008-.8638-.35-.5422-.169-1.3337.318-1.9083.487-.5747.716-1.9662.716-1.9662s.581 1.265.329 1.7638c-.252.4987-.74 1.5288-.74 1.5288l.803.8801z" fill="url(#ap)"/><path d="m107.121 70.2173-.715 1.0499s1.796 5.2913 7.564 7.1146c5.768 1.8234 7.966-2.8679 7.966-2.8679s-8.377-.4987-14.815-5.2966z" fill="#fff"/><path d="m107.703 71.4627c-.422-.123-.858-.1887-1.297-.1951 0 0 1.796 5.2912 7.564 7.1146s7.966-2.8679 7.966-2.8679c-1.613-.5247-3.295-.8108-4.991-.8493-3.049-.0651-3.815.7391-5.251-.0199-1.64-.8656-1.866-2.5589-3.991-3.1824z" fill="url(#aq)" opacity=".3"/><path d="m95.7836 64.7347 4.0879 10.7686c.0958.2479.2595.464.4725.6234.213.1595.467.2559.732.2783.265.0225.531-.03.768-.1514.237-.1215.435-.3069.571-.5352l9.125-15.3786c.187-.3157.244-.6919.159-1.0489-.085-.3571-.306-.6672-.616-.8648l-.543-.3488c-.16-.1012-.339-.1693-.526-.2003s-.379-.0242-.563.0199c-.185.0442-.358.1248-.511.2371s-.282.254-.379.4168l-6.825 11.3758c-.045.0745-.109.1351-.187.1749-.077.0398-.164.0572-.251.0503-.087-.007-.17-.038-.24-.0896s-.124-.1218-.156-.2025l-2.468-6.1442c-.1396-.3458-.4102-.6227-.7531-.7707-.3428-.148-.7303-.1551-1.0784-.0198s-.6287.4021-.781.7426c-.1522.3405-.1639.7271-.0325 1.0762z" fill="url(#ar)"/><path d="m101.051 73.0926s-.543.1481-.805-.9036c-.205-.8258-.4112-1.0445-.5434-.8295-.1322.2151.0398.6705.0398.6705-.561-.1857-1.0732-.4944-1.499-.9036-.5902-.6252-.4997.0741-.4001.4717s1.0428 1.3571 1.3886 1.4637c.3458.1067 1.1221.9036 1.1221.9036z" fill="url(#as)"/><path d="m127.32 122.342c.288.589.208.842.136.952-.212.327-.724.018-2.044.181-.273.041-.552.031-.822-.029-.317-.074-.69-.242-.673-.327 0-.031.061-.043.083-.049.362-.078 2.668-.782 2.668-.782z" fill="#364154"/><path d="m127.496 121.045-.205 1.315s-.566.398-.724-.087c-.107-.348-.103-1.286-.103-1.286z" fill="#f4caab"/><path d="m121.048 121.135.556 1.512.805-.128-.186-1.4z" fill="#f4caab"/><path d="m121.855 123.482c.39-.462.739-.421.81-.739.021-.132 0-.268-.059-.388s-.153-.22-.271-.284c-.326-.165-.724.092-.807.15-.605.392-.44 1.005-1.011 1.265-.178.065-.343.164-.487.289-.081.076-.282.264-.235.394s.413.144.755.141c.409 0 .614-.009.811-.132.274-.165.192-.34.494-.696z" fill="#364154"/><path d="m131.814 89.6025c-.124 2.6256-.488 5.2345-1.087 7.7941-.543 2.2896-.829 2.6804-1.015 4.2664-.404 3.454.702 3.976.823 7.888.134 4.323-1.086 7.731-1.571 9.036-.339.918-.733 1.815-1.179 2.687-.403.336-1.008.192-1.643.047-.153-3.921-.363-7.613-.518-11.535-.634-5.913-1.267-11.8231-1.899-17.7312z" fill="#364154"/><path d="m126.142 121.316c-.153-3.922-.363-7.614-.518-11.535-.634-5.909-1.267-11.8181-1.899-17.7262l8.089-2.4523c-.01.2024-.024.3976-.037.5964-3.827 3.1751-4.616 5.7394-4.618 7.4995 0 2.136 1.146 3.2186.851 6.3086-.212 2.208-.887 2.584-.929 4.581-.054 2.57 1.019 4.039 1.526 5.537.489 1.446.63 3.484-.436 6.356-.139.296-.27.56-.386.788-.396.336-1.008.191-1.643.047z" fill="#364154" opacity=".3"/><path d="m127.241 91.8865c-1.91 2.3195-3.464 4.9098-4.61 7.6857-.961 2.3368-1.658 4.0898-1.448 6.3578.241 2.497 1.374 3.393 2.127 5.522.724 2.066 1.086 5.241-.818 9.97l-1.449.497c-.318-1.278-.834-3.19-1.605-5.465-.982-2.867-2.138-5.671-3.462-8.397-1.448-3.253-1.597-9.036 4.439-20.222z" fill="#364154"/><path d="m99.7881 73.942c.4129-.6614.8249-1.324 1.2369-1.9878 2.588 4.0822 4.947 5.1123 6.649 5.2785 3.112.3036 7.367-2.3275 12.63-5.4918.735-.4427 2.19-1.3372 3.878-1.0246.405.0741 1.712.3813 3.258 2.3275 2.884 3.6432 1.143 6.1551 3.551 8.77 1.736 1.8848 2.846.8005 5.366 3.2727 1.861 1.827 1.77 2.9239 3.439 3.6793 2.026.9216 3.426-.141 4.557.9686.905.8945 1.123 2.6817.397 3.5618-.905 1.0843-2.656.0795-5.522.1446-4.832.1084-5.542 3.11-11.203 3.6793-1.89.1807-4.215.3885-5.81-1.0373-.794-.712-1.098-1.5433-1.846-5.0599-1.483-6.9773-1.499-7.4634-2.153-8.0164-2.21-1.8722-5.409 1.0987-9.548.2439-2.433-.4987-5.742-2.4215-8.8799-9.3084z" fill="#fff"/><path d="m130.542 95.0329c-1.168-1.0102-.833-2.5445-2.408-3.6866-2.006-1.4565-3.829.1049-5.24-1.0029-2.411-1.8939 1.449-7.6098-1.309-11.0812-1.319-1.6572-3.707-2.2481-5.431-2.1198-3.843.2837-4.792 4.1311-8.328 4.5576-.836.1012-1.883.018-3.144-.5422 1.448 1.2849 2.817 1.8541 3.983 2.0927 4.138.8547 7.337-2.1162 9.548-.244.653.5548.67 1.0391 2.152 8.0164.748 3.522 1.052 4.3533 1.847 5.0599 1.691 1.5126 4.198 1.2234 5.809 1.0373 1.717-.2034 3.395-.6557 4.981-1.3427-1.177.0108-1.944-.2982-2.46-.7445z" fill="url(#at)" opacity=".3"/><path d="m119.829 68.1284s.528 1.303 1.291 2.1505c.689.7644 2.847.6379 3.316.6993.469.0615-.467 1.0464-1.571 1.565-1.105.5186-4.468 1.4132-5.212 1.1873s.333-.5675 1.044-1.1548c.712-.5873.619-2.3492.219-3.0251-.4-.6758.913-1.4222.913-1.4222z" fill="url(#au)"/><path d="m118.046 70.3098c-.43-.7373-.229-1.574-.182-1.7547.182-.7572.258-.871.401-1.0301l.201-.2096.025-.018c.243-.1189.502-.2029.769-.2494.362-.0145 1.074 1.265 1.474 3.2401.065.1428.132.2856.197.4265.696-.3614.933-.3614 1.005-.2837.158.1807.091 1.6029-.518 2.0944-.764.6181-2.006-1.2884-2.013-1.4818-.163-.0343-1.043-.1915-1.359-.7337z" fill="url(#av)"/><path d="m118.815 69.3174c.096-.2403.406-.1174.474.1446.069.262-.114.6018-.374.6126-.261.0109-.228-.4319-.1-.7572z" fill="url(#aw)"/><path d="m151.197 60.9977c-3.165-2.3493-8.647.3054-9.485.7102-2.368 1.1457-3.087 2.3221-5.453 2.6041-2.133.253-2.256-.6163-4.269-.4735-4.086.2909-5.325 3.9973-8.062 3.3142-.684-.1807-1.501-.6252-3.389-1.0842-.473-.1139-1.218-.2747-1.897.0939-.154.085-.667.3615-.743.8855-.014.2146.024.4294.111.626.087.1967.221.3695.389.5035.181.1445.252.1211.335.2439.23.3452-.259.9488-.1 1.0843.116.1012.395-.1807.563-.0741.169.1066-.05.5187.116 1.0409-.134.3958.046.9885.458 1.6481.477.8002 1.108 1.4985 1.856 2.0547 2.218 1.7963 1.646 3.757 3.259 4.3371 1.142.4084 1.653-.5096 3.919-.8909 2.032-.3398 3.639.0578 5.091.4174 3.914.9686 3.916 2.5209 6.639 3.0721 3.217.656 7.37-.6614 9.01-3.3142 1.163-1.8794.049-2.7866 1.423-6.1551 1.087-2.6817 2.093-2.8209 2.372-4.7328s-.328-4.563-2.143-5.9111z" fill="#364154"/><path d="m54.3406 165.837c-2.6287-1.281-7.754 3.36-10.2505 7.805-.9939 1.771-2.1617 3.851-1.8738 6.325.5069 4.384 5.3787 8.23 12.0845 9.513.1883-.672.3772-1.345.5667-2.019-.7242-.762-1.8304-1.863-3.2316-3.122-2.1526-1.937-2.5943-2.066-2.6975-2.678-.3386-2.003 4.8211-3.68 6.6569-7.2 1.5768-3.03.7658-7.639-1.2547-8.624z" fill="#364154"/><path d="m50.8889 201.069s.4309 1.063.2172 1.48c-.2136.418-1.251.152-2.7156.376s-2.4676.562-2.549.26c-.0815-.301 2.9455-1.895 3.1863-2.116.2408-.22 1.8611 0 1.8611 0z" fill="#364154"/><path d="m50.5015 199.48-1.021 1.589c.1729.145.3781.248.5984.298.2204.051.4496.048.6689-.007l1.1224-1.505z" fill="#f4caab"/><path d="m55.5957 174.459c1.5769-3.028.7658-7.637-1.2546-8.621-.5287-.259-1.1605-.273-1.8521-.1.3621 1.046.2915 1.807.1123 2.349-.8002 2.393-4.2581 2.12-5.339 4.845-.6825 1.722.4038 2.577-.5666 3.956-1.0048 1.431-2.6468 1.191-3.1556 2.584-.3765 1.039.3621 1.627.0815 2.505-.0983.282-.2717.532-.5015.723 1.776 3.191 5.9128 5.783 11.1811 6.789.1883-.672.3772-1.345.5667-2.018-.7242-.763-1.8303-1.864-3.2316-3.123-2.1526-1.937-2.5943-2.066-2.6975-2.678-.3386-2.013 4.8211-3.69 6.6569-7.211z" fill="#364154" opacity=".3"/><path d="m52.5488 166.797c.1122 4.588.0488 9.549-.2843 14.829-.3908 6.204-1.1233 12.381-2.1942 18.505l1.2963.412c4.4482-4.324 5.7788-8.132 6.1427-10.866.2589-1.936-.1322-2.102.2154-4.518.6627-4.61 2.3898-6.189 3.601-10.507.6562-2.362.9695-4.807.9305-7.259z" fill="#364154"/><path d="m49.3603 158.569c.0796.018.4309.134.5703 1.596.3331 3.525-1.5045 4.953-1.0519 6.867.4345 1.834 2.6505 2.725 4.9316 3.641 1.5244.613 6.2405 2.507 8.9833.376 1.1532-.904 1.2799-1.988 2.1037-5.964 2.091-10.105 2.8966-10.974 2.0222-13.163-1.5117-3.757-5.5562-5.312-6.2296-5.571-7.1765-2.759-15.6529 2.313-19.0094 8.132-.4417.768-3.0777 5.351-1.2256 7.525 1.1206 1.316 3.6932 1.527 5.3896.631 2.2793-1.184 2.7608-4.243 3.5158-4.07z" fill="url(#ax)"/><path d="m41.5177 161.242c-.0231-.001-.0458-.006-.067-.015-.0193-.008-.0366-.021-.051-.036-.0145-.016-.0257-.034-.0331-.054s-.0108-.041-.01-.062c.0007-.021.0056-.042.0144-.061.0616-.135 1.5425-3.309 4.966-4.561.0391-.01.0805-.005.1163.013.0357.019.0633.05.0772.088.014.038.0134.079-.0016.117-.015.037-.0434.068-.0796.085-3.2932 1.204-4.7687 4.359-4.7832 4.392-.0131.028-.0341.052-.0604.068-.0263.017-.0569.026-.088.026z" fill="url(#ay)"/><path d="m62.2289 150.636c-.4526 1.232.9052 2.298.3241 3.634-.8346 1.915-4.1531.932-5.3407 2.826-1.4049 2.245 1.8104 5.928.487 7.187-.6065.575-1.3054-.161-3.0777.242-2.5201.575-3.2769 2.563-4.4482 2.263-.3621-.096-.8165-.43-1.1913-1.459-.1858.548-.2214 1.135-.1032 1.701.4345 1.834 2.6505 2.725 4.9316 3.641 1.5244.613 6.2405 2.507 8.9833.376 1.1532-.903 1.2799-1.988 2.1037-5.963 2.091-10.106 2.8966-10.975 2.0222-13.163-.4585-1.111-1.1456-2.112-2.0168-2.941-1.7271.389-2.4368 1.011-2.674 1.656z" fill="url(#az)" opacity=".3"/><path d="m57.8912 158.358c.1937.18 2.1562 1.902 4.526 1.313 2.0566-.513 3.3185-2.51 3.5412-4.189.525-3.995-4.689-7.347-4.0463-8.157.3838-.481 2.435.452 3.8019 1.292 1.4193.873 5.2502 3.233 6.0703 7.863.0706.392.9722 5.911-2.1852 8.192-2.9184 2.107-8.6357.961-12.5063-4.025.2631-.762.5292-1.526.7984-2.289z" fill="url(#aA)"/><path d="m45.2314 154.709 2.339 7.454c.0374.12.111.224.2105.3.0996.076.2202.119.3453.123l12.5788.445c.0921.003.1837-.015.2679-.052.0842-.038.1587-.094.2178-.165.0592-.07.1015-.153.1237-.243.0221-.089.0236-.182.0043-.272l-1.6294-7.485c-.0286-.132-.1004-.25-.2041-.336-.1036-.086-.2332-.135-.368-.139l-13.2902-.412c-.0963-.003-.1918.017-.2788.058-.0869.042-.1626.103-.2209.18-.0582.076-.0974.166-.114.26-.0167.095-.0105.192.0181.284z" fill="#d8dee8"/><path d="m45.3437 154.955 2.2703 7.228c.0365.117.1084.219.2058.292.0973.074.2152.115.3373.119l12.2094.431c.0893.003.178-.014.2595-.051.0815-.036.1535-.091.2108-.159.0572-.069.098-.149.1195-.236.0214-.086.0228-.177.004-.264l-1.5787-7.264c-.0278-.128-.0976-.243-.1983-.326-.1008-.084-.2266-.131-.3574-.135l-12.9047-.396c-.0934-.002-.1861.017-.2703.058-.0843.04-.1577.1-.2141.174-.0564.075-.0943.162-.1105.253-.0162.092-.0102.187.0174.276z" fill="url(#aB)"/><path d="m60.956 162.321-1.508-6.934c-.2553.603-.5848.903-.9052 1.064-.9052.448-1.6167-.361-3.6009-.284-.7586.031-2.3101.091-3.2769 1.085-.9052.939-.5214 1.906-1.0862 3.229-.2879.669-.822 1.426-1.8503 2.132l11.6337.411c.0885.002.1765-.015.2573-.051.0809-.036.1525-.09.2096-.158.057-.067.0981-.147.1201-.233.022-.085.0243-.175.0068-.261z" fill="url(#aC)"/><path d="m53.2947 145.639c.0315.112.0402.228.0257.343-.0146.114-.0521.225-.1104.325s-.1361.187-.2289.256-.1986.119-.311.146c-.5739.138-1.2673.329-1.5769.503-.554.316 1.6909-.051 3.7566-.098.9373-.016 1.8716-.11 2.7935-.28.0313-.006.0598-.022.0808-.046.0211-.024.0335-.054.0354-.086s-.007-.063-.0251-.089c-.0181-.027-.0444-.046-.0748-.056-.6723-.226-1.3628-.394-2.0639-.502-.8781-.11-1.8195-2.044-1.8195-2.044l-.7513.682z" fill="#f4caab"/><path d="m45.8214 157.086.1431-.233c.0609-.234.2045-.437.4042-.573s.442-.195.682-.166l.7495.092c.0555.007.109.025.157.054s.0896.067.1221.112c.0325.046.0552.098.0666.152.0115.055.0116.111.0001.166-.0706.333-.2498.734-.7115.703-.7821-.054-1.2836 1.084-1.2836 1.084l-.2987-.423c-.0997-.14-.1559-.307-.1613-.479-.0055-.173.0399-.343.1305-.489z" fill="#f4caab"/><path d="m51.6165 144.647c-.6481-.095-1.3741-.639-1.3615-1.084.02-.618 1.4357-.958 2.1508-1.128s1.0211-.11 1.2275.047c.2078.177.3469.422.3928.691.0256.228.0256.458 0 .686-.0199.326-.0144.311-.0235.407-.0427.414-.147.82-.3096 1.204-.1144-.127-.2398-.243-.3747-.347-.1763-.137-.3691-.25-.5739-.338-.4653-.194-.7332-.08-1.1279-.138z" fill="#364154"/><path d="m54.0406 144.835c-.024.275-.1189.54-.2757.767-.1567.228-.3699.411-.6187.532-.7622.362-1.7742-1.236-1.4954-1.841.0733-.123.171-.231.287-.315.1161-.085.2482-.145.3883-.177.1811-.039.2589 0 .5431-.077.2843-.078.3114-.127.4128-.105s.2861.168.4074.723c.0615-.219.2009-.362.3512-.374.0529 0 .1049.014.1502.041.2064.138.1666.472-.1502.826z" fill="#f4caab"/><path d="m216.28 70.2969c.1 17.735.996 33.6411 6.99 37.8541l47.118-.32c-3.159-11.3165-7.115-23.2091-6.295-36.036z" fill="url(#aD)"/><path d="m259.56 69.3574c0-9.5542-8.146-17.4947-17.883-16.7755-7.49.5422-13.607 6.4587-14.454 14.0305-.398 3.556.345 7.1464 2.124 10.2533 1.778 3.1069 4.499 5.5698 7.77 7.0336.783.3659 1.444.9488 1.905 1.6793.46.7305.701 1.5778.693 2.4409v2.8787c-.003.6811.264 1.3357.742 1.8218s1.128.7646 1.81.7751l2.535.018c.334 0 .665-.0659.974-.1941.308-.1282.588-.316.824-.5526.236-.2367.422-.5175.548-.8263.127-.3089.191-.6396.189-.9732v-2.8552c0-1.7421.979-3.3577 2.554-4.0209 5.705-2.4089 9.669-8.0597 9.669-14.7334z" fill="#fff"/><path d="m240.926 99.7893c-.058.0008-.114.0139-.166.0385s-.098.06-.135.1039-.064.0953-.079.1503c-.016.055-.019.113-.01.17.101.72.459 1.381 1.008 1.859s1.253.742 1.982.744c.729.001 1.434-.26 1.985-.736.552-.476.912-1.134 1.016-1.854.036-.243.215-1.6269-.386-1.4118z" fill="#f4f7fa"/><path d="m243.54 91.7892c-.095-.0025-.187-.038-.258-.1003-.072-.0623-.12-.1476-.135-.2412l-3.04-17.6881c-.009-.0524-.008-.1062.003-.1582.012-.052.033-.1011.064-.1446.031-.0434.07-.0803.116-.1083.045-.0281.096-.0468.148-.0551.108-.0157.218.0116.305.0758.088.0643.147.1603.164.2675l2.658 15.4834 2.942-15.3605c.009-.0518.029-.1012.058-.1452s.067-.0817.111-.1109.093-.0492.145-.0589.105-.0089.157.0024c.105.0242.197.0881.256.1783.06.0903.082.1998.062.306l-3.356 17.529c-.017.0933-.066.1776-.14.2379-.073.0602-.165.0925-.26.091z" fill="#fff"/><path d="m245.932 97.8861-4.912.9397c-.149.0223-.301-.0138-.423-.1007-.123-.0868-.208-.2178-.236-.3654s.002-.3004.084-.4264.209-.2155.356-.2496l4.913-.9361c.148-.0212.299.0154.421.1021.121.0867.205.2169.233.3636.028.1466-.002.2983-.083.4236s-.208.2145-.353.2492z" fill="#f4f7fa"/><path d="m245.932 95.9578-4.912.9325c-.149.0223-.301-.0138-.423-.1006-.123-.0869-.208-.2178-.236-.3654s.002-.3004.084-.4264c.082-.1261.209-.2155.356-.2497l4.913-.9288c.148-.0212.299.0153.421.1021.121.0867.205.2169.233.3635s-.002.2984-.083.4237-.208.2145-.353.2491z" fill="#f4f7fa"/><path d="m237.624 189.975c.78.396 1.764.033 2.193-.811s.144-1.851-.638-2.246c-.04-.021-.081-.039-.123-.055.144-.461.253-.932.328-1.409h.136c.443-.054.851-.271 1.143-.609s.448-.772.437-1.218c.003-.212-.038-.423-.121-.618s-.206-.371-.361-.515c-.155-.145-.339-.256-.54-.326-.201-.069-.414-.096-.625-.079-.047 0-.094.011-.14.018-.092-.457-.219-.907-.38-1.344.04-.026.082-.049.121-.078.367-.255.626-.636.726-1.07s.035-.89-.182-1.279c-.112-.181-.259-.337-.434-.457-.175-.121-.374-.204-.582-.243-.209-.04-.424-.035-.631.013-.207.049-.402.14-.571.267-.039.027-.077.056-.112.087-.304-.335-.635-.643-.991-.922.026-.041.051-.083.073-.126.431-.846.992-1.767.204-2.151-1.823-.889-2.603-.128-3.034.723-.022.044-.042.089-.06.134-.435-.122-.879-.207-1.329-.253.003-.047.003-.095 0-.143-.018-.929.259-1.431-.637-1.445-1.952-.038-2.609.807-2.591 1.736 0 .049 0 .096.011.143-.45.129-.889.292-1.314.488-.02-.042-.042-.083-.065-.123-.111-.181-.259-.337-.434-.458-.174-.121-.373-.204-.582-.243-.209-.04-.424-.035-.631.013-.207.049-.402.14-.571.269-.367.254-.625.636-.726 1.07-.1.434-.035.89.183 1.279.023.038.049.076.076.112-.342.341-.659.708-.947 1.095-.038-.023-.076-.047-.116-.067-.782-.395-1.763-.032-2.192.812s-.145 1.85.635 2.246c.041.02.083.038.125.054-.144.461-.254.932-.329 1.41h-.134c-.444.053-.853.27-1.145.608s-.448.772-.436 1.219c-.003.212.038.422.121.618.083.195.206.371.361.516s.339.255.54.325c.201.069.414.096.626.079.047 0 .092-.011.137-.018.093.457.221.906.382 1.344-.041.025-.081.049-.121.078-.367.254-.626.635-.726 1.07-.101.434-.035.89.183 1.279.461.764 1.991 1.12 2.753.587.04-.027-.459-.224-.423-.255.303.335.633.643.988.922-.025.042-.05.083-.072.127-.429.845-.145 1.85.637 2.246s1.763.032 2.193-.812c.021-.043.041-.088.059-.133.435.122.88.207 1.329.253v.142c-.003.213.038.423.121.618.083.196.206.371.362.516.155.145.338.256.539.326s.414.097.626.08c.444-.054.851-.271 1.144-.608.292-.338.447-.773.436-1.219.003-.047.003-.095 0-.143.45-.129.889-.292 1.314-.488.02.042.042.084.066.123.11.182.258.338.433.459.175.12.373.203.582.243.209.039.424.035.631-.014s.402-.14.571-.268c.367-.254.626-.636.727-1.07.1-.435.035-.891-.183-1.28-.024-.038-.049-.076-.075-.112.342-.341.658-.707.945-1.095.035.021.071.039.107.056zm-9.742.123c-2.837-1.446-3.872-5.089-2.312-8.155 1.561-3.067 5.124-4.386 7.966-2.948 2.843 1.439 3.873 5.089 2.314 8.156-1.559 3.066-5.131 4.386-7.968 2.947z" fill="#d8dee8"/><path d="m239.519 185.448c.444-.054.851-.271 1.143-.609.293-.337.448-.772.437-1.218.004-.212-.038-.422-.121-.617s-.206-.371-.361-.516-.339-.256-.54-.325c-.2-.07-.413-.097-.625-.08-.047 0-.094.011-.14.019-.092-.458-.219-.907-.38-1.345.04-.025.082-.049.122-.078.762-.542 1.705-1.821 1.167-2.53-1.021-1.355-2.078-.768-2.84-.235-.039.027-.077.056-.112.087-.304-.334-.635-.643-.991-.921.026-.042.051-.084.073-.127.111-.214.177-.448.194-.688s-.015-.482-.095-.709c-.735 1.294-1.459 2.594-2.172 3.9 2.263 1.655 2.983 4.919 1.569 7.7-1.2 2.349-3.583 3.679-5.909 3.513-.103.269-.206.542-.317.806-.302.723-.644 1.429-.988 2.136.217.04.432.072.65.094v.143c.018.929.585 1.718 2.199 1.626.895-.047 1.049-.992 1.029-1.921.002-.047.002-.095 0-.143.45-.129.889-.292 1.314-.487.02.041.042.083.065.122.462.767 2.064 1.085 2.826.557s.399-1.722-.065-2.488c-.023-.038-.049-.076-.074-.112.341-.342.657-.708.945-1.096.038.025.077.047.118.067.78.396 1.763.033 2.192-.811s.145-1.851-.637-2.246c-.04-.021-.081-.039-.123-.055.143-.461.253-.932.327-1.409z" fill="#d8dee8"/><path d="m238.464 190.071c.782.396 1.763.033 2.192-.813s.145-1.849-.637-2.246c-.04-.02-.082-.037-.123-.055.144-.46.253-.931.328-1.407h.135c.444-.055.852-.272 1.144-.609.292-.338.448-.772.437-1.218.003-.213-.038-.423-.121-.619-.083-.195-.206-.371-.361-.516s-.339-.256-.54-.326c-.201-.069-.414-.096-.626-.079l-.137.02c-.093-.458-.221-.908-.382-1.346.04-.024.081-.049.121-.076.367-.255.625-.636.726-1.07.1-.435.035-.891-.183-1.28-.111-.181-.258-.337-.433-.458s-.373-.204-.582-.243c-.209-.04-.424-.035-.631.014-.208.048-.402.14-.572.268-.039.027-.076.056-.112.087-.303-.335-.633-.643-.988-.922.025-.041.049-.083.07-.126.431-.846.145-1.851-.635-2.246-.78-.396-1.764-.033-2.194.811-.022.043-.04.088-.06.132-.435-.121-.88-.206-1.329-.253 0-.047 0-.094 0-.141.003-.212-.038-.423-.121-.618-.083-.196-.207-.372-.362-.517s-.339-.256-.54-.325c-.201-.07-.414-.097-.626-.08-.444.054-.852.272-1.144.609-.292.338-.448.772-.437 1.218 0 .049 0 .096.011.143-.45.129-.889.292-1.314.486-.02-.04-.042-.081-.065-.121-.111-.181-.259-.337-.434-.458s-.373-.204-.582-.244c-.209-.039-.424-.035-.631.014-.207.048-.402.139-.571.267-.367.254-.626.636-.726 1.07s-.035.89.183 1.279c.023.04.05.076.076.112-.341.343-.658.71-.947 1.097-.037-.024-.076-.047-.116-.067-.782-.395-1.763-.032-2.192.812s-.145 1.85.637 2.246c.04.02.081.038.123.054-.144.461-.253.932-.328 1.41h-.135c-.444.053-.852.27-1.144.607-.293.338-.448.772-.437 1.218-.003.212.038.423.121.618s.206.371.361.516.339.256.54.326c.2.07.414.097.625.08.047-.004.093-.011.138-.02.093.458.221.908.382 1.346-.042.024-.082.049-.121.078-.367.254-.626.635-.726 1.07-.1.434-.035.89.183 1.279.111.181.259.337.433.457.175.12.374.203.583.243.208.039.423.035.63-.014.207-.048.402-.139.571-.267.038-.027.076-.056.113-.087.303.335.634.643.988.922-.025.042-.049.083-.072.127-.429.844-.143 1.85.637 2.246s1.763.032 2.192-.812c.023-.043.043-.088.06-.133.436.121.881.206 1.331.253v.142c-.003.213.038.423.121.618.083.196.206.372.362.516.155.145.339.256.54.326.201.069.414.096.626.078.444-.053.851-.27 1.143-.608.293-.337.448-.771.438-1.217 0-.049 0-.096-.011-.144.45-.128.889-.291 1.314-.487.02.042.042.084.065.123.111.181.259.337.434.457.175.121.373.204.582.243.209.04.424.035.631-.013.207-.049.401-.14.571-.267.367-.255.625-.636.726-1.07.1-.435.035-.891-.183-1.28-.023-.039-.051-.076-.076-.112.342-.342.658-.708.947-1.095.037.025.076.047.116.067zm-9.74.123c-2.837-1.446-3.873-5.089-2.314-8.156 1.559-3.066 5.124-4.385 7.966-2.949 2.842 1.437 3.872 5.091 2.314 8.156-1.559 3.065-5.129 4.387-7.966 2.949z" fill="url(#aE)"/><path d="m275.675 179.91c1.682.853 3.802.068 4.722-1.75.919-1.818.311-3.986-1.373-4.839-.087-.043-.181-.081-.264-.116.309-.993.545-2.008.706-3.036.096 0 .194 0 .291-.011 1.921-.171 3.44-1.931 3.404-3.934-.036-2.002-1.629-3.486-3.548-3.316-.102 0-.199.026-.297.044-.2-.984-.475-1.95-.822-2.892.087-.05.181-.105.26-.164 1.644-1.149 2.173-3.417 1.174-5.06-1-1.643-3.132-2.053-4.776-.904-.083.06-.163.123-.241.181-.654-.721-1.366-1.386-2.131-1.988.054-.088.107-.18.154-.273.927-1.818 2.134-3.805.44-4.631-3.925-1.914-5.612-.277-6.534 1.543-.049.094-.089.181-.128.286-.938-.261-1.896-.442-2.864-.543 0-.101.01-.202 0-.305-.04-2 .555-3.085-1.373-3.123-4.204-.081-5.612 1.741-5.581 3.743 0 .105.011.206.021.307-.969.277-1.915.628-2.829 1.05-.044-.09-.089-.181-.141-.266-.996-1.648-3.134-2.053-4.776-.903-1.642 1.149-2.173 3.417-1.173 5.06.05.083.106.162.163.24-.737.736-1.418 1.526-2.039 2.362-.081-.052-.165-.101-.252-.146-1.682-.853-3.802-.069-4.721 1.749-.92 1.818-.312 3.986 1.37 4.839.089.044.181.082.266.116-.309.993-.545 2.008-.706 3.036-.096 0-.193 0-.291.011-1.921.18-3.44 1.932-3.406 3.934.035 2.002 1.63 3.486 3.551 3.316.101 0 .199-.025.297-.043.199.983.474 1.949.822 2.891-.087.051-.182.105-.261.164-1.644 1.15-2.173 3.418-1.173 5.06.999 1.643 4.289 2.413 5.931 1.265.083-.059-.993-.484-.906-.542.654.721 1.366 1.386 2.131 1.988-.054.089-.107.181-.155.273-.926 1.818-.31 3.976 1.372 4.837 1.682.862 3.802.071 4.723-1.749.047-.094.089-.18.129-.285.937.26 1.894.441 2.862.542v.305c.04 2.001 1.629 3.486 3.548 3.314 1.919-.171 3.44-1.931 3.406-3.934 0-.104-.011-.206-.022-.307.969-.277 1.915-.628 2.83-1.05.043.091.088.181.141.266.996 1.648 3.134 2.053 4.776.903 1.642-1.149 2.172-3.417 1.173-5.059-.051-.084-.107-.163-.163-.241.737-.736 1.418-1.526 2.039-2.362.079.053.16.102.244.147zm-20.983.265c-6.11-3.097-8.34-10.962-4.98-17.567s11.043-9.447 17.146-6.352c6.103 3.096 8.343 10.962 4.983 17.567-3.361 6.605-11.037 9.448-17.149 6.347z" fill="#d8dee8"/><path d="m279.758 170.158c1.92-.171 3.439-1.932 3.403-3.934s-1.629-3.486-3.548-3.316c-.102 0-.199.025-.297.043-.2-.983-.475-1.949-.822-2.891.087-.051.181-.105.261-.164 1.644-1.15 3.675-3.925 2.516-5.463-2.2-2.919-4.475-1.656-6.119-.506-.083.059-.163.123-.241.18-.653-.72-1.366-1.385-2.131-1.987.055-.089.107-.181.154-.273.24-.461.382-.965.419-1.482.037-.518-.032-1.037-.203-1.527-1.586 2.786-3.149 5.587-4.689 8.401 4.875 3.566 6.427 10.593 3.38 16.584-2.582 5.076-7.716 7.928-12.728 7.57-.222.578-.443 1.16-.682 1.735-.65 1.554-1.387 3.072-2.127 4.599.466.088.932.157 1.399.206v.305c.04 2.001 1.257 3.703 4.738 3.519 1.924-.103 2.256-2.136 2.216-4.138 0-.105-.011-.206-.022-.308.969-.276 1.915-.627 2.83-1.05.043.091.089.181.141.266.996 1.648 4.447 2.349 6.09 1.198 1.644-1.151.855-3.712-.141-5.36-.051-.083-.107-.162-.163-.24.737-.736 1.418-1.526 2.039-2.362.081.053.165.102.251.146 1.682.853 3.802.069 4.722-1.749s.311-3.986-1.372-4.839c-.087-.044-.181-.082-.265-.116.309-.993.545-2.008.706-3.036.089 0 .187-.002.285-.011z" fill="#d8dee8"/><path d="m277.484 180.114c1.683.853 3.802.07 4.723-1.75.922-1.819.311-3.975-1.372-4.837-.087-.044-.181-.082-.265-.118.31-.993.546-2.008.707-3.036.095 0 .193 0 .291-.011 1.921-.169 3.44-1.931 3.404-3.932-.037-2-1.63-3.488-3.549-3.316-.101.009-.199.025-.297.042-.199-.984-.475-1.951-.823-2.892.088-.052.181-.105.262-.164 1.644-1.15 2.173-3.417 1.173-5.06-.999-1.643-3.134-2.053-4.776-.904-.083.058-.163.121-.24.181-.654-.721-1.367-1.386-2.131-1.988.054-.088.107-.18.154-.273.925-1.819.311-3.984-1.371-4.837s-3.802-.071-4.723 1.749c-.048.093-.091.188-.129.286-.937-.262-1.896-.443-2.864-.543 0-.101.011-.202 0-.305-.04-2.002-1.629-3.486-3.55-3.316s-3.44 1.934-3.404 3.934c0 .105.011.208.022.309-.969.277-1.915.627-2.83 1.048-.043-.088-.09-.181-.141-.264-.996-1.648-3.134-2.053-4.776-.903-1.642 1.149-2.172 3.415-1.173 5.06.051.085.107.164.163.242-.736.736-1.417 1.525-2.038 2.36-.082-.051-.165-.099-.252-.145-1.682-.853-3.802-.07-4.723 1.75-.922 1.819-.31 3.975 1.372 4.837.089.045.181.082.266.118-.31.993-.546 2.008-.706 3.036-.098 0-.194 0-.292.011-1.92.169-3.439 1.931-3.405 3.934.034 2.002 1.629 3.486 3.55 3.314.1-.008.199-.022.297-.042.2.984.475 1.95.822 2.892-.089.052-.181.105-.262.166-1.642 1.147-2.173 3.415-1.174 5.06 1 1.644 3.134 2.053 4.778.903.083-.059.163-.122.241-.18.653.721 1.366 1.386 2.131 1.988-.055.088-.107.18-.156.272-.925 1.818-.311 3.976 1.372 4.838 1.684.862 3.802.069 4.724-1.749.047-.094.088-.19.128-.286.938.26 1.895.441 2.863.542 0 .1-.011.203 0 .304.039 2.002 1.629 3.486 3.548 3.316s3.44-1.932 3.405-3.934c0-.105-.007-.208-.021-.309.969-.275 1.915-.626 2.829-1.048.043.09.09.178.141.264.994 1.648 3.134 2.053 4.776.903 1.642-1.149 2.173-3.417 1.173-5.06-.05-.085-.106-.162-.162-.24.736-.737 1.417-1.526 2.038-2.362.083.051.165.101.252.145zm-20.981.265c-6.11-3.095-8.341-10.96-4.981-17.565 3.361-6.605 11.044-9.449 17.147-6.352s8.342 10.962 4.982 17.567-11.036 9.448-17.148 6.35z" fill="url(#aF)"/><path d="m204.281 202.939v-5.501l54.72.832 75.013 2.201v5.501l-56.625 5.482z" fill="#364154"/><path d="m277.389 197.438-18.388.832 75.013 2.201v5.501l-56.625 5.482z" fill="url(#aG)" opacity=".19"/><path d="m204.281 197.439 54.72-4.67 75.013 7.702-56.625 5.483z" fill="url(#aH)"/><path d="m279.754 207.541c-.071-.002-.139-.03-.19-.08s-.081-.117-.084-.188.02-.14.067-.194c.046-.055.111-.089.182-.097l52.643-5.107c.072-.003.141.022.195.069s.088.113.095.184-.014.142-.057.199c-.044.056-.108.094-.179.105l-52.643 5.109z" fill="#fff"/><path d="m279.722 209.94c-.072-.001-.14-.029-.191-.079-.051-.049-.082-.116-.085-.187-.004-.071.02-.141.066-.195.046-.055.112-.089.182-.097l52.683-5.214c.072-.003.142.022.196.069s.087.113.094.184-.013.142-.057.199c-.044.056-.108.094-.178.105l-52.683 5.213z" fill="#fff"/><path d="m316.918 202.126c-8.69-2.951-15.944-3.574-21.622-3.386-8.791.294-11.427 2.461-23.157 2.553-15.273.123-20.331-3.475-31.91-4.032-5.126-.245-11.6.105-19.261 2.122l56.421 6.571z" fill="url(#aI)"/><path d="m281.802 204.006h-.042l-51.021-5.729c-.098-.011-.188-.061-.25-.138s-.09-.176-.079-.274.06-.188.138-.25c.077-.062.176-.09.274-.079l51.021 5.729c.094.012.179.06.239.132.059.073.09.165.084.259-.005.094-.045.182-.113.248-.067.065-.157.103-.251.105z" fill="#fff" opacity=".67"/><path d="m261.878 198.756h-.04l-18.466-1.988c-.049-.005-.096-.02-.139-.043-.044-.024-.081-.056-.112-.094s-.054-.082-.068-.128c-.014-.047-.018-.097-.013-.145.005-.049.02-.096.044-.139.023-.043.055-.081.093-.112.038-.03.082-.053.129-.067s.096-.018.145-.013l18.466 1.988c.096.009.184.055.247.128.062.073.094.167.089.262-.005.096-.047.186-.117.252-.07.065-.162.101-.258.101z" fill="#fff" opacity=".67"/><path d="m309.294 198.843s-3.113 1.413-3.164 1.639c-.051.225 2.002-.076 2.84-.044.839.033 1.528-.215 1.449-.569-.08-.354-.362-1.247-.362-1.247z" fill="url(#aK)"/><path d="m309.181 197.699.181 1.399s.492.18.823-.031l.142-1.536z" fill="url(#aL)"/><path d="m323.85 197.729.363.581c.049.08.082.169.097.262.014.093.009.188-.014.28-.127.482-.38 1.424-.491 1.668-.15.334-2.172.542-2.172.542s-.181-.253.237-.557c.418-.303.688-.361.836-.804.149-.443.247-1.722.247-1.722z" fill="url(#aM)"/><path d="m322.342 196.253c.132.105.778 2.066.778 2.066s.21.267.609-.127c.398-.394.181-.18.181-.18l-.076-1.93z" fill="url(#aN)"/><path d="m307.467 169.573c-.164 4.176-.181 8.712.069 13.553.272 5.458.817 10.501 1.503 15.075h.804c.188 0 .369-.009.543-.027.452-1.206.838-2.436 1.155-3.685.357-1.42.626-2.86.805-4.313.6-4.729-.103-5.143.384-8.647.431-3.105 1.043-3.226 1.764-7.634.78-4.781.199-5.499-.084-5.759-1.198-1.095-4.024-.345-6.943 1.437z" fill="#364154"/><path d="m314.416 168.143c-1.148-1.052-3.773-.415-6.545 1.191 3.188 3.434 3.536 5.671 3.154 7.12-.431 1.626-1.745 2.107-1.74 3.896 0 2.199 1.991 2.781 1.952 5.109-.029 1.538-.906 1.522-1.108 3.423-.245 2.248.896 3.023.527 4.687-.16.723-.612 1.65-1.905 2.613.092.683.188 1.358.288 2.024h.804c.181 0 .362-.012.543-.025.452-1.206.838-2.436 1.155-3.685.357-1.42.626-2.86.805-4.313.6-4.729-.103-5.143.384-8.647.431-3.105 1.043-3.226 1.764-7.634.785-4.781.204-5.499-.078-5.759z" fill="url(#aO)" opacity=".3"/><path d="m309.442 169.508c5.761 8.412 10.11 17.704 12.878 27.511.287.134.606.183.92.143.403-.057.772-.256 1.041-.562.354-2.201.434-4.437.239-6.658-.126-1.698-.44-3.377-.938-5.005-.759-2.44-1.28-2.577-2.269-5.16-1.026-2.681-.778-3.35-1.761-6.704-.592-2.01-1.326-3.976-2.196-5.882z" fill="#364154"/><path d="m296.763 174.593c.528.82 2.353.723 3.588.28 2.897-1.036 4.761-4.72 4.924-7.653.035-.629.013-1.245.142-1.265.32-.047 1.146 3.759 1.794 6.986.704.272 1.467.356 2.214.246 1.477-.242 1.655-1.159 3.306-1.757.965-.347 1.91-.348 3.801-.35 2.133 0 2.191.262 2.602.07.76-.352 1.657-1.76-2.866-19.247-.297-1.15-.798-2.988-2.199-3.522-1.146-.438-2.622.377-5.522 2.025-1.449.824-3.078 1.757-4.973 3.414-1.295 1.129-2.196 1.916-2.941 3.007-2.994 4.399.468 8.065-2.25 13.691-.936 1.937-2.172 3.216-1.62 4.075z" fill="#fff"/><path d="m315.826 168.765c-.849-.441-.633-1.366-1.372-1.896-1.099-.788-2.44.649-3.903.421-3.194-.497-3.518-8.387-5.593-8.425-.975-.019-1.919 1.714-2.216 3.054-.519 2.35 1.472 3.392 1.161 6.325-.056.524-.114.439-1.477 4.318-.181.516-.348.993-.498 1.427 1.991-1.561 3.215-4.406 3.347-6.764.035-.629.013-1.245.141-1.265.321-.047 1.146 3.759 1.795 6.986.704.272 1.467.357 2.214.246 1.477-.242 1.654-1.158 3.305-1.756.965-.347 1.91-.349 3.802-.351 2.133 0 2.191.262 2.602.071.311-.145.644-.467.621-1.988-.476-.317-1.034-.49-1.606-.497-.903-.004-1.561.49-2.323.094z" fill="url(#aP)" opacity=".3"/><path d="m304.81 149.615c.471.525 1.016.977 1.619 1.343.757.414 2.428-.284 2.813-.362.386-.077-.078.956-.805 1.672-.728.716-3.14 2.349-3.79 2.38s.105-.542.505-1.202c.401-.659-.164-2.029-.668-2.45-.503-.421.326-1.381.326-1.381z" fill="#f4caab"/><path d="m327.844 152.899-16.475 12.492c-.224.17-.507.244-.786.206-.278-.038-.531-.185-.701-.409s-.244-.506-.206-.785c.038-.278.185-.53.41-.7l16.474-12.492c.225-.17.507-.244.786-.206s.531.185.702.409c.17.224.244.506.206.784-.038.279-.186.531-.41.701z" fill="#d8dee8"/><path d="m325.979 148.372 3.382-2.565c.087-.067.197-.095.305-.081.109.015.207.072.273.159l1.073 1.409c.066.087.095.196.08.305-.015.108-.072.206-.159.272l-3.381 2.566-1.57-2.062z" fill="#d8dee8"/><path d="m264.097 197.67-1.535 1.165c-.083.063-.188.091-.291.077s-.197-.069-.26-.152c-.063-.082-.091-.187-.077-.29s.069-.197.152-.26l1.535-1.164z" fill="#26264f"/><path d="m262.973 198.031c.117.154.283.262.471.307s.385.024.559-.059l7.405-3.54-3-3.94-5.399 6.177c-.126.145-.199.329-.206.521-.006.193.054.381.17.534z" fill="#d8dee8"/><path d="m263.185 197.438c.065.087.345 0 .668-.225l6.266-5.037-.821-1.084-5.717 5.757c-.297.259-.463.503-.396.589z" fill="#fff"/><path d="m328.508 151.305-57.254 43.551c-1.086.828-4.09-3.112-3-3.939l57.254-43.552c.155-.117.331-.203.519-.252.187-.05.383-.062.575-.036.193.027.378.09.546.188.167.098.314.228.431.382l1.212 1.59c.117.154.203.33.252.518.05.187.062.382.036.574-.027.192-.09.377-.188.545-.098.167-.228.313-.383.431z" fill="url(#aQ)"/><path d="m314.291 158.49-44.998 34.252-.708-.927 44.998-34.254z" fill="#fff"/><path d="m313.406 156.565-.525.398 3.011 3.956.525-.398z" fill="url(#aR)"/><path d="m325.421 147.394-.525.398 3.012 3.955.525-.398z" fill="#fff"/><path d="m325.508 147.365-27.413 20.912c-1.414 5.118-3.426 7.048-5.209 7.771-1.238.497-3.108.705-5.114 2.411-1.936 1.648-1.516 2.582-3.221 3.72-2.526 1.69-4.571.387-6.137 2.169-.844.954-.326 1.413-1.217 3.173-.331.651-1.707 3.367-4.631 4.337-1.474.46-3.056.436-4.515-.068.279 1.409 2.339 3.746 3.202 3.09l57.255-43.552c.154-.117.284-.263.382-.431.098-.167.162-.352.188-.544s.015-.387-.035-.575c-.049-.187-.135-.363-.253-.517l-1.211-1.59c-.116-.156-.261-.288-.428-.388s-.352-.166-.544-.194c-.192-.029-.389-.019-.577.029-.189.047-.366.131-.522.247z" fill="url(#aS)" opacity=".3"/><path d="m297.93 174.568s-1.121.542-1.915.645c-.795.103-.965.745-.744.978.22.233 1.482-.024 1.904-.261.422-.236.755-1.362.755-1.362z" fill="url(#aT)"/><path d="m319.755 160.472s-.88-.132-1.309.291-1.542 1.028-2.042.817l1.662-1.265 1.689-.477z" fill="#f4caab"/><path d="m319.415 160.761c.64-.021 3.258-.18 5.204-2.248 1.947-2.067 2.734-5.562 1.268-7.933-1.172-1.894-3.33-2.383-5.538-2.891-1.995-.464-4.073-.434-6.053.088-1.538.416-3.917 1.059-4.173 2.48-.28 1.57 2.07 3.876 4.358 3.988 2.289.112 3.545-2.055 5.634-1.397.143.045 1.144.378 1.617 1.265.744 1.401-.1 3.696-2.296 5.533-.008.374-.015.746-.021 1.115z" fill="#fff"/><path d="m303.025 150.307c-.423-.199-.709-.889-.499-1.411.155-.387.528-.542.8-.66.127-.054 1.017-.419 1.588.036.19.169.318.397.362.647.024.214.024.43 0 .644-.02.305-.015.292-.022.383-.041.387-.138.766-.29 1.125-.111-.118-.232-.227-.362-.325-.166-.128-.349-.234-.543-.314-.494-.21-.697.03-1.034-.125z" fill="#364154"/><path d="m305.295 150.482c-.022.258-.111.505-.257.719-.147.213-.346.384-.579.497-.725.333-1.662-1.156-1.402-1.724.069-.115.16-.215.269-.294.109-.08.232-.136.363-.166.163-.038.243 0 .509-.073.266-.072.291-.117.387-.099s.268.159.38.685c.06-.206.181-.344.33-.362.05.001.098.015.141.04.194.132.156.446-.141.777z" fill="#f4caab"/><path d="m304.88 149.559s.071.694 0 .916c-.071.163-.185.302-.331.404-.145.101-.316.16-.493.171-.252.028-.506.028-.758 0 0 0 .342.795.485.826s1.014-.011 1.171-.157c.158-.147.362-.788.308-1.072-.08-.315-.183-.623-.308-.923z" fill="#364154"/></g></svg>