<svg fill="none" height="273" viewBox="0 0 309 273" width="309" xmlns="http://www.w3.org/2000/svg" xmlns:xlink="http://www.w3.org/1999/xlink"><linearGradient id="a"><stop offset="0" stop-color="#f8db8b"/><stop offset="1" stop-color="#68b790"/></linearGradient><linearGradient id="b" gradientUnits="userSpaceOnUse" x1="108.778" x2="144.415" xlink:href="#a" y1="136.281" y2="138.013"/><linearGradient id="c"><stop offset="0" stop-color="#ebebeb"/><stop offset="1" stop-color="#fbfafb"/></linearGradient><linearGradient id="d" gradientUnits="userSpaceOnUse" x1="80.414" x2="80.414" xlink:href="#c" y1="252.61" y2="231.625"/><linearGradient id="e" gradientUnits="userSpaceOnUse" x1="99.2206" x2="99.2206" xlink:href="#c" y1="258.734" y2="247.362"/><linearGradient id="f" gradientUnits="userSpaceOnUse" x1="46.6491" x2="84.7893" xlink:href="#c" y1="233.214" y2="266.069"/><linearGradient id="g"><stop offset="0" stop-color="#067431"/><stop offset="1" stop-color="#2e9f5a"/></linearGradient><linearGradient id="h" gradientUnits="userSpaceOnUse" x1="54.4003" x2="62.3551" xlink:href="#g" y1="219.783" y2="241.309"/><linearGradient id="i" gradientUnits="userSpaceOnUse" x1="47.2083" x2="50.8648" xlink:href="#g" y1="236.675" y2="240.843"/><linearGradient id="j"><stop offset="0" stop-color="#b6b5b4"/><stop offset="1" stop-color="#fbfafb"/></linearGradient><linearGradient id="k" gradientUnits="userSpaceOnUse" x1="71.6564" x2="72.1837" xlink:href="#j" y1="233.557" y2="234.456"/><linearGradient id="l" gradientUnits="userSpaceOnUse" x1="76.147" x2="76.6737" xlink:href="#j" y1="234.213" y2="235.111"/><linearGradient id="m" gradientUnits="userSpaceOnUse" x1="78.9379" x2="79.4652" xlink:href="#j" y1="235.866" y2="236.765"/><linearGradient id="n" gradientUnits="userSpaceOnUse" x1="81.7303" x2="82.2569" xlink:href="#j" y1="237.519" y2="238.417"/><linearGradient id="o" gradientUnits="userSpaceOnUse" x1="84.5214" x2="85.0487" xlink:href="#j" y1="239.172" y2="240.071"/><linearGradient id="p" gradientUnits="userSpaceOnUse" x1="91.3124" x2="91.839" xlink:href="#j" y1="238.478" y2="239.376"/><linearGradient id="q" gradientUnits="userSpaceOnUse" x1="80.414" x2="80.414" xlink:href="#c" y1="245.844" y2="224.859"/><linearGradient id="r" gradientUnits="userSpaceOnUse" x1="99.2206" x2="99.2206" xlink:href="#c" y1="251.968" y2="240.596"/><linearGradient id="s" gradientUnits="userSpaceOnUse" x1="46.6491" x2="84.7893" xlink:href="#c" y1="226.448" y2="259.303"/><linearGradient id="t" gradientUnits="userSpaceOnUse" x1="54.4003" x2="62.3551" xlink:href="#g" y1="213.017" y2="234.543"/><linearGradient id="u" gradientUnits="userSpaceOnUse" x1="47.2083" x2="50.8648" xlink:href="#g" y1="229.909" y2="234.077"/><linearGradient id="v" gradientUnits="userSpaceOnUse" x1="71.6739" x2="72.2012" xlink:href="#j" y1="226.767" y2="227.665"/><linearGradient id="w" gradientUnits="userSpaceOnUse" x1="76.1645" x2="76.6912" xlink:href="#j" y1="227.423" y2="228.321"/><linearGradient id="x" gradientUnits="userSpaceOnUse" x1="78.9554" x2="79.4827" xlink:href="#j" y1="229.076" y2="229.974"/><linearGradient id="y" gradientUnits="userSpaceOnUse" x1="67.4812" x2="97.684" xlink:href="#a" y1="231.206" y2="235.807"/><linearGradient id="z" gradientUnits="userSpaceOnUse" x1="70.2791" x2="100.481" xlink:href="#a" y1="232.85" y2="237.451"/><linearGradient id="A" gradientUnits="userSpaceOnUse" x1="91.3299" x2="91.8566" xlink:href="#j" y1="231.688" y2="232.586"/><linearGradient id="B" gradientUnits="userSpaceOnUse" x1="247.143" x2="247.143" xlink:href="#c" y1="154.96" y2="133.975"/><linearGradient id="C" gradientUnits="userSpaceOnUse" x1="265.95" x2="265.95" xlink:href="#c" y1="161.084" y2="149.712"/><linearGradient id="D" gradientUnits="userSpaceOnUse" x1="213.38" x2="251.52" xlink:href="#c" y1="135.564" y2="168.419"/><linearGradient id="E" gradientUnits="userSpaceOnUse" x1="221.13" x2="229.085" xlink:href="#g" y1="122.134" y2="143.659"/><linearGradient id="F" gradientUnits="userSpaceOnUse" x1="212.402" x2="218.118" xlink:href="#a" y1="141.479" y2="141.847"/><linearGradient id="G" gradientUnits="userSpaceOnUse" x1="238.574" x2="239.101" xlink:href="#j" y1="135.719" y2="136.617"/><linearGradient id="H" gradientUnits="userSpaceOnUse" x1="243.064" x2="243.592" xlink:href="#j" y1="136.375" y2="137.274"/><linearGradient id="I" gradientUnits="userSpaceOnUse" x1="245.857" x2="246.383" xlink:href="#j" y1="138.028" y2="138.926"/><linearGradient id="J" gradientUnits="userSpaceOnUse" x1="248.647" x2="249.175" xlink:href="#j" y1="139.681" y2="140.58"/><linearGradient id="K" gradientUnits="userSpaceOnUse" x1="251.439" x2="251.965" xlink:href="#j" y1="141.334" y2="142.232"/><linearGradient id="L" gradientUnits="userSpaceOnUse" x1="258.23" x2="258.757" xlink:href="#j" y1="140.64" y2="141.539"/><linearGradient id="M" gradientUnits="userSpaceOnUse" x1="247.143" x2="247.143" xlink:href="#c" y1="148.194" y2="127.208"/><linearGradient id="N" gradientUnits="userSpaceOnUse" x1="265.95" x2="265.95" xlink:href="#c" y1="154.317" y2="142.946"/><linearGradient id="O" gradientUnits="userSpaceOnUse" x1="213.38" x2="251.52" xlink:href="#c" y1="128.798" y2="161.653"/><linearGradient id="P" gradientUnits="userSpaceOnUse" x1="221.13" x2="229.085" xlink:href="#g" y1="115.366" y2="136.892"/><linearGradient id="Q" gradientUnits="userSpaceOnUse" x1="212.402" x2="218.118" xlink:href="#a" y1="134.713" y2="135.081"/><linearGradient id="R" gradientUnits="userSpaceOnUse" x1="238.592" x2="239.118" xlink:href="#j" y1="128.929" y2="129.827"/><linearGradient id="S" gradientUnits="userSpaceOnUse" x1="243.082" x2="243.609" xlink:href="#j" y1="129.585" y2="130.484"/><linearGradient id="T" gradientUnits="userSpaceOnUse" x1="245.874" x2="246.401" xlink:href="#j" y1="131.239" y2="132.136"/><linearGradient id="U" gradientUnits="userSpaceOnUse" x1="248.665" x2="249.192" xlink:href="#j" y1="132.891" y2="133.79"/><linearGradient id="V" gradientUnits="userSpaceOnUse" x1="251.456" x2="251.983" xlink:href="#j" y1="134.544" y2="135.442"/><linearGradient id="W" gradientUnits="userSpaceOnUse" x1="258.247" x2="258.775" xlink:href="#j" y1="133.85" y2="134.749"/><linearGradient id="X" gradientUnits="userSpaceOnUse" x1="153.428" x2="211.735" xlink:href="#g" y1="69.5219" y2="130.122"/><linearGradient id="Y" gradientUnits="userSpaceOnUse" x1="155.229" x2="213.579" xlink:href="#g" y1="71.0308" y2="129.48"/><linearGradient id="Z" gradientUnits="userSpaceOnUse" x1="138.881" x2="143.258" xlink:href="#g" y1="102.578" y2="102.83"/><linearGradient id="aa" gradientUnits="userSpaceOnUse" x1="165.172" x2="198.932" xlink:href="#a" y1="99.8016" y2="104.064"/><linearGradient id="ab"><stop offset="0" stop-color="#b8b8b8"/><stop offset="1" stop-color="#fffeff"/></linearGradient><linearGradient id="ac" gradientUnits="userSpaceOnUse" x1="154.564" x2="155.248" xlink:href="#ab" y1="125.213" y2="126.505"/><linearGradient id="ad" gradientUnits="userSpaceOnUse" x1="165.172" x2="198.932" xlink:href="#a" y1="108.797" y2="113.059"/><linearGradient id="ae" gradientUnits="userSpaceOnUse" x1="157.22" x2="157.903" xlink:href="#ab" y1="128.991" y2="130.281"/><linearGradient id="af" gradientUnits="userSpaceOnUse" x1="173.749" x2="174.432" xlink:href="#ab" y1="94.2598" y2="95.5503"/><linearGradient id="ag" gradientUnits="userSpaceOnUse" x1="154.564" x2="155.248" xlink:href="#ab" y1="134.209" y2="135.501"/><linearGradient id="ah" gradientUnits="userSpaceOnUse" x1="154.564" x2="155.247" xlink:href="#ab" y1="110.368" y2="111.658"/><linearGradient id="ai" gradientUnits="userSpaceOnUse" x1="157.22" x2="157.903" xlink:href="#ab" y1="114.144" y2="115.435"/><linearGradient id="aj" gradientUnits="userSpaceOnUse" x1="154.564" x2="155.247" xlink:href="#ab" y1="119.363" y2="120.654"/><linearGradient id="ak" gradientUnits="userSpaceOnUse" x1="165.172" x2="198.932" xlink:href="#a" y1="117.793" y2="122.056"/><linearGradient id="al" gradientUnits="userSpaceOnUse" x1="257.644" x2="305.056" xlink:href="#g" y1="58.6172" y2="119.362"/><linearGradient id="am" gradientUnits="userSpaceOnUse" x1="249.356" x2="275.569" xlink:href="#c" y1="71.5432" y2="71.5432"/><linearGradient id="an" gradientUnits="userSpaceOnUse" x1="249.356" x2="275.569" xlink:href="#c" y1="87.479" y2="87.479"/><linearGradient id="ao" gradientUnits="userSpaceOnUse" x1="279.347" x2="305.56" xlink:href="#c" y1="95.8107" y2="95.8107"/><linearGradient id="ap"><stop offset="0" stop-color="#ffac06"/><stop offset="1" stop-color="#f25227"/></linearGradient><linearGradient id="aq" gradientUnits="userSpaceOnUse" x1="253.995" x2="255.67" xlink:href="#ap" y1="78.2279" y2="78.2279"/><linearGradient id="ar" gradientUnits="userSpaceOnUse" x1="257.19" x2="258.865" xlink:href="#ap" y1="78.8819" y2="78.8819"/><linearGradient id="as" gradientUnits="userSpaceOnUse" x1="260.387" x2="262.061" xlink:href="#ap" y1="80.0069" y2="80.0069"/><linearGradient id="at" gradientUnits="userSpaceOnUse" x1="263.582" x2="265.257" xlink:href="#ap" y1="80.8428" y2="80.8428"/><linearGradient id="au" gradientUnits="userSpaceOnUse" x1="266.777" x2="268.453" xlink:href="#ap" y1="85.5457" y2="85.5457"/><linearGradient id="av" gradientUnits="userSpaceOnUse" x1="254.457" x2="256.82" xlink:href="#g" y1="87.8446" y2="93.6807"/><linearGradient id="aw" gradientUnits="userSpaceOnUse" x1="255.86" x2="259.531" xlink:href="#g" y1="90.4395" y2="99.905"/><linearGradient id="ax" gradientUnits="userSpaceOnUse" x1="255.86" x2="259.532" xlink:href="#g" y1="92.7628" y2="102.229"/><linearGradient id="ay" gradientUnits="userSpaceOnUse" x1="284.819" x2="287.181" xlink:href="#g" y1="88.5525" y2="94.3875"/><linearGradient id="az" gradientUnits="userSpaceOnUse" x1="286.226" x2="289.898" xlink:href="#g" y1="91.1433" y2="100.611"/><linearGradient id="aA" gradientUnits="userSpaceOnUse" x1="286.226" x2="289.897" xlink:href="#g" y1="93.4688" y2="102.934"/><linearGradient id="aB" gradientUnits="userSpaceOnUse" x1="284.819" x2="287.182" xlink:href="#g" y1="97.4061" y2="103.242"/><linearGradient id="aC" gradientUnits="userSpaceOnUse" x1="286.226" x2="289.897" xlink:href="#g" y1="99.9986" y2="109.464"/><linearGradient id="aD" gradientUnits="userSpaceOnUse" x1="286.226" x2="289.897" xlink:href="#g" y1="102.322" y2="111.788"/><linearGradient id="aE" gradientUnits="userSpaceOnUse" x1="284.819" x2="287.182" xlink:href="#g" y1="106.258" y2="112.094"/><linearGradient id="aF" gradientUnits="userSpaceOnUse" x1="286.226" x2="289.897" xlink:href="#g" y1="108.852" y2="118.318"/><linearGradient id="aG" gradientUnits="userSpaceOnUse" x1="286.226" x2="289.898" xlink:href="#g" y1="111.173" y2="120.641"/><linearGradient id="aH" gradientUnits="userSpaceOnUse" x1="257.599" x2="274.927" xlink:href="#g" y1="55.499" y2="98.6678"/><linearGradient id="aI"><stop offset="0" stop-color="#ebebeb"/><stop offset="1" stop-color="#fffeff"/></linearGradient><linearGradient id="aJ" gradientUnits="userSpaceOnUse" x1="82.1326" x2="105.061" xlink:href="#aI" y1="102.763" y2="188.418"/><linearGradient id="aK" gradientUnits="userSpaceOnUse" x1="84.0532" x2="92.0301" xlink:href="#g" y1="121.115" y2="144.333"/><linearGradient id="aL" gradientUnits="userSpaceOnUse" x1="78.066" x2="74.6504" xlink:href="#c" y1="165.929" y2="165.929"/><linearGradient id="aM" gradientUnits="userSpaceOnUse" x1="99.6712" x2="98.8041" xlink:href="#ab" y1="136.284" y2="134.733"/><linearGradient id="aN" gradientUnits="userSpaceOnUse" x1="95.8933" x2="95.0262" xlink:href="#ab" y1="141.859" y2="140.309"/><linearGradient id="aO" gradientUnits="userSpaceOnUse" x1="95.8933" x2="95.0262" xlink:href="#ab" y1="145.323" y2="143.772"/><linearGradient id="aP" gradientUnits="userSpaceOnUse" x1="95.8933" x2="95.0262" xlink:href="#ab" y1="148.786" y2="147.236"/><linearGradient id="aQ" gradientUnits="userSpaceOnUse" x1="97.2253" x2="96.3582" xlink:href="#ab" y1="151.504" y2="149.954"/><linearGradient id="aR" gradientUnits="userSpaceOnUse" x1="99.6712" x2="98.8041" xlink:href="#ab" y1="157.326" y2="155.776"/><linearGradient id="aS" gradientUnits="userSpaceOnUse" x1="95.8933" x2="95.0268" xlink:href="#ab" y1="162.902" y2="161.353"/><linearGradient id="aT" gradientUnits="userSpaceOnUse" x1="95.8933" x2="95.0262" xlink:href="#ab" y1="166.367" y2="164.816"/><linearGradient id="aU" gradientUnits="userSpaceOnUse" x1="95.8933" x2="95.0262" xlink:href="#ab" y1="169.83" y2="168.28"/><linearGradient id="aV" gradientUnits="userSpaceOnUse" x1="97.2253" x2="96.3582" xlink:href="#ab" y1="172.548" y2="170.997"/><linearGradient id="aW" gradientUnits="userSpaceOnUse" x1="86.674" x2="97.1128" xlink:href="#g" y1="122.837" y2="147.597"/><linearGradient id="aX" gradientUnits="userSpaceOnUse" x1="75.4456" x2="78.8303" xlink:href="#g" y1="140.29" y2="143.479"/><linearGradient id="aY" gradientUnits="userSpaceOnUse" x1="215.956" x2="215.956" xlink:href="#aI" y1="54.3379" y2="21.983"/><linearGradient id="aZ" gradientUnits="userSpaceOnUse" x1="200.651" x2="211.542" xlink:href="#g" y1="2.26097" y2="32.9262"/><linearGradient id="a0" gradientUnits="userSpaceOnUse" x1="191.387" x2="188.551" xlink:href="#c" y1="45.3597" y2="45.3597"/><linearGradient id="a1" gradientUnits="userSpaceOnUse" x1="203.327" x2="202.749" xlink:href="#ab" y1="27.894" y2="26.8599"/><linearGradient id="a2" gradientUnits="userSpaceOnUse" x1="203.327" x2="202.748" xlink:href="#ab" y1="31.1223" y2="30.0872"/><linearGradient id="a3" gradientUnits="userSpaceOnUse" x1="202.827" x2="215.759" xlink:href="#g" y1="3.69151" y2="35.653"/><linearGradient id="a4" gradientUnits="userSpaceOnUse" x1="189.211" x2="192.022" xlink:href="#g" y1="28.3043" y2="30.9531"/><linearGradient id="a5" gradientUnits="userSpaceOnUse" x1="211.504" x2="237.874" xlink:href="#a" y1="20.4706" y2="23.4081"/><linearGradient id="a6" gradientUnits="userSpaceOnUse" x1="203.327" x2="202.748" xlink:href="#ab" y1="35.2122" y2="34.177"/><linearGradient id="a7" gradientUnits="userSpaceOnUse" x1="203.327" x2="202.748" xlink:href="#ab" y1="38.4391" y2="37.404"/><linearGradient id="a8" gradientUnits="userSpaceOnUse" x1="211.504" x2="237.874" xlink:href="#a" y1="27.7875" y2="30.725"/><linearGradient id="a9" gradientUnits="userSpaceOnUse" x1="203.327" x2="202.748" xlink:href="#ab" y1="42.5286" y2="41.4935"/><linearGradient id="ba" gradientUnits="userSpaceOnUse" x1="203.327" x2="202.748" xlink:href="#ab" y1="45.7557" y2="44.7205"/><linearGradient id="bb" gradientUnits="userSpaceOnUse" x1="211.504" x2="237.874" xlink:href="#a" y1="35.1044" y2="38.0419"/><linearGradient id="bc"><stop offset="0" stop-color="#ffac06"/><stop offset="1" stop-color="#ff7c0a"/></linearGradient><linearGradient id="bd" gradientUnits="userSpaceOnUse" x1="169.99" x2="182.575" xlink:href="#bc" y1="196.072" y2="159.756"/><linearGradient id="be" gradientUnits="userSpaceOnUse" x1="169.055" x2="185.824" xlink:href="#aI" y1="220.22" y2="152.446"/><linearGradient id="bf" gradientUnits="userSpaceOnUse" x1="160.494" x2="159.147" y1="165.792" y2="209.418"><stop offset="0" stop-color="#ebebeb"/><stop offset="1" stop-color="#939393"/></linearGradient><linearGradient id="bg" gradientUnits="userSpaceOnUse" x1="175.156" x2="180.417" xlink:href="#bc" y1="163.363" y2="148.184"/><linearGradient id="bh" gradientUnits="userSpaceOnUse" x1="177.406" x2="180.664" xlink:href="#bc" y1="150.126" y2="170.079"/><linearGradient id="bi" gradientUnits="userSpaceOnUse" x1="161.084" x2="158.425" xlink:href="#bc" y1="169.502" y2="169.502"/><linearGradient id="bj" gradientUnits="userSpaceOnUse" x1="122.242" x2="129.697" xlink:href="#a" y1="89.5738" y2="89.9676"/><linearGradient id="bk" gradientUnits="userSpaceOnUse" x1="143.929" x2="158.185" xlink:href="#a" y1="45.6828" y2="48.3706"/><linearGradient id="bl" gradientUnits="userSpaceOnUse" x1="117.493" x2="144.969" xlink:href="#a" y1="62.3363" y2="64.273"/><linearGradient id="bm" gradientUnits="userSpaceOnUse" x1="141.657" x2="148.181" xlink:href="#a" y1="30.8261" y2="31.8696"/><linearGradient id="bn" gradientUnits="userSpaceOnUse" x1="105.872" x2="117.055" xlink:href="#a" y1="87.5202" y2="88.289"/><linearGradient id="bo" gradientUnits="userSpaceOnUse" x1="135.614" x2="148.646" xlink:href="#a" y1="34.431" y2="35.5619"/><linearGradient id="bp" gradientUnits="userSpaceOnUse" x1="129.713" x2="142.382" xlink:href="#a" y1="38.8133" y2="42.247"/><linearGradient id="bq" gradientUnits="userSpaceOnUse" x1="107.52" x2="116.799" xlink:href="#a" y1="80.3961" y2="81.106"/><linearGradient id="br" gradientUnits="userSpaceOnUse" x1="115.667" x2="129.081" xlink:href="#a" y1="46.8116" y2="48.2457"/><linearGradient id="bs" gradientUnits="userSpaceOnUse" x1="107.644" x2="116.976" xlink:href="#a" y1="63.9022" y2="64.4538"/><linearGradient id="bt" gradientUnits="userSpaceOnUse" x1="122.029" x2="129.433" xlink:href="#a" y1="39.5317" y2="39.8774"/><linearGradient id="bu" gradientUnits="userSpaceOnUse" x1="122.496" x2="136.105" xlink:href="#a" y1="33.747" y2="35.854"/><linearGradient id="bv" gradientUnits="userSpaceOnUse" x1="100.415" x2="114.924" xlink:href="#a" y1="70.7003" y2="72.5995"/><linearGradient id="bw" gradientUnits="userSpaceOnUse" x1="100.924" x2="107.287" xlink:href="#a" y1="76.6839" y2="76.9754"/><linearGradient id="bx" gradientUnits="userSpaceOnUse" x1="110.173" x2="122.749" xlink:href="#a" y1="49.2707" y2="52.0118"/><linearGradient id="by" gradientUnits="userSpaceOnUse" x1="106.003" x2="117.108" xlink:href="#a" y1="57.8733" y2="59.167"/><linearGradient id="bz" gradientUnits="userSpaceOnUse" x1="105.97" x2="117.544" xlink:href="#a" y1="52.0791" y2="53.0043"/><linearGradient id="bA" gradientUnits="userSpaceOnUse" x1="141.991" x2="118.104" xlink:href="#aI" y1="86.2441" y2="35.5612"/><linearGradient id="bB" gradientUnits="userSpaceOnUse" x1="49.8887" x2="78.3351" xlink:href="#a" y1="148.973" y2="150.415"/><linearGradient id="bC" gradientUnits="userSpaceOnUse" x1="77.8814" x2="105.032" xlink:href="#a" y1="99.8968" y2="100.869"/><linearGradient id="bD" gradientUnits="userSpaceOnUse" x1="150.76" x2="193.405" xlink:href="#a" y1="48.2529" y2="54.3806"/><linearGradient id="bE" gradientUnits="userSpaceOnUse" x1="201.345" x2="222.644" xlink:href="#a" y1="73.0454" y2="73.6054"/><linearGradient id="bF" gradientUnits="userSpaceOnUse" x1="90.0786" x2="167.509" xlink:href="#a" y1="201.233" y2="211.175"/><linearGradient id="bG" gradientUnits="userSpaceOnUse" x1="86.6683" x2="207.011" xlink:href="#a" y1="233.733" y2="249.767"/><linearGradient id="bH" gradientUnits="userSpaceOnUse" x1="179.173" x2="294.887" xlink:href="#a" y1="179.743" y2="197.822"/><linearGradient id="bI" gradientUnits="userSpaceOnUse" x1="181.672" x2="229.994" xlink:href="#a" y1="155.292" y2="159.237"/><linearGradient id="bJ"><stop offset="0" stop-color="#f8a16a"/><stop offset="1" stop-color="#ea8b57"/></linearGradient><linearGradient id="bK" gradientUnits="userSpaceOnUse" x1="33.0738" x2="19.2702" xlink:href="#bJ" y1="122.544" y2="160.329"/><linearGradient id="bL" gradientUnits="userSpaceOnUse" x1="27.5557" x2="27.5557" y1="122.57" y2="157.267"><stop offset="0" stop-color="#d1d2d7"/><stop offset="1" stop-color="#b7b6b6"/></linearGradient><linearGradient id="bM" gradientUnits="userSpaceOnUse" x1="36.3117" x2="21.3492" y1="153.839" y2="118.047"><stop offset="0" stop-color="#d1d2d7"/><stop offset="1" stop-color="#f5f5f6"/></linearGradient><linearGradient id="bN" gradientUnits="userSpaceOnUse" x1="32.2944" x2="31.6978" xlink:href="#ab" y1="121.518" y2="120.45"/><linearGradient id="bO" gradientUnits="userSpaceOnUse" x1="28.8262" x2="28.2296" xlink:href="#ab" y1="126.637" y2="125.57"/><linearGradient id="bP" gradientUnits="userSpaceOnUse" x1="28.8262" x2="28.2296" xlink:href="#ab" y1="129.817" y2="128.75"/><linearGradient id="bQ" gradientUnits="userSpaceOnUse" x1="28.8262" x2="28.2296" xlink:href="#ab" y1="132.997" y2="131.93"/><linearGradient id="bR" gradientUnits="userSpaceOnUse" x1="30.0491" x2="29.4518" xlink:href="#ab" y1="135.494" y2="134.426"/><linearGradient id="bS" gradientUnits="userSpaceOnUse" x1="37.953" x2="24.1509" xlink:href="#bJ" y1="125.536" y2="163.32"/><linearGradient id="bT" gradientUnits="userSpaceOnUse" x1="14.1807" x2="52.9358" y1="147.241" y2="147.241"><stop offset="0" stop-color="#f9a76a"/><stop offset="1" stop-color="#ffc969"/></linearGradient><linearGradient id="bU"><stop offset="0" stop-color="#fff3dd"/><stop offset="1" stop-color="#ffcf7b"/></linearGradient><linearGradient id="bV" gradientUnits="userSpaceOnUse" x1="31.2945" x2="52.4428" xlink:href="#bU" y1="128.415" y2="128.415"/><linearGradient id="bW" gradientUnits="userSpaceOnUse" x1="14.1809" x2="28.3559" xlink:href="#bU" y1="151.798" y2="151.798"/><clipPath id="bX"><path d="m0 0h309v273h-309z"/></clipPath><g clip-path="url(#bX)"><path d="m111.825 163.483 14.609-8.062c.598-.33 1.095-.813 1.442-1.4s.529-1.255.529-1.937v-30.9c0-.78.206-1.547.597-2.223s.954-1.237 1.631-1.626l9.161-5.268" stroke="url(#b)" stroke-miterlimit="10" stroke-width="7"/><g fill="#190c00" opacity=".1"><path d="m249.356 174.216c17.492 0 31.671-7.932 31.671-17.716s-14.179-17.716-31.671-17.716c-17.491 0-31.67 7.932-31.67 17.716s14.179 17.716 31.67 17.716z" opacity=".04"/><path d="m249.356 173.869c17.148 0 31.049-7.776 31.049-17.369 0-9.592-13.901-17.369-31.049-17.369-17.147 0-31.048 7.777-31.048 17.369 0 9.593 13.901 17.369 31.048 17.369z" opacity=".08"/><path d="m249.356 173.522c16.805 0 30.428-7.621 30.428-17.022s-13.623-17.021-30.428-17.021c-16.804 0-30.427 7.62-30.427 17.021s13.623 17.022 30.427 17.022z" opacity=".13"/><path d="m249.357 173.174c16.462 0 29.807-7.465 29.807-16.674s-13.345-16.675-29.807-16.675-29.807 7.466-29.807 16.675 13.345 16.674 29.807 16.674z" opacity=".17"/><path d="m249.356 172.826c16.119 0 29.186-7.31 29.186-16.326 0-9.017-13.067-16.326-29.186-16.326s-29.186 7.309-29.186 16.326c0 9.016 13.067 16.326 29.186 16.326z" opacity=".21"/><path d="m249.356 172.479c15.776 0 28.565-7.154 28.565-15.979s-12.789-15.979-28.565-15.979-28.565 7.154-28.565 15.979 12.789 15.979 28.565 15.979z" opacity=".25"/><path d="m249.356 172.132c15.432 0 27.943-6.999 27.943-15.632s-12.511-15.632-27.943-15.632-27.943 6.999-27.943 15.632 12.511 15.632 27.943 15.632z" opacity=".29"/><path d="m249.356 171.785c15.09 0 27.322-6.844 27.322-15.285 0-8.442-12.232-15.285-27.322-15.285-15.089 0-27.322 6.843-27.322 15.285 0 8.441 12.233 15.285 27.322 15.285z" opacity=".33"/><path d="m249.356 171.436c14.747 0 26.701-6.687 26.701-14.936s-11.954-14.936-26.701-14.936c-14.746 0-26.701 6.687-26.701 14.936s11.955 14.936 26.701 14.936z" opacity=".38"/><path d="m249.357 171.089c14.403 0 26.08-6.532 26.08-14.589s-11.677-14.589-26.08-14.589c-14.404 0-26.081 6.532-26.081 14.589s11.677 14.589 26.081 14.589z" opacity=".42"/><path d="m249.357 170.742c14.061 0 25.459-6.377 25.459-14.242 0-7.866-11.398-14.242-25.459-14.242s-25.46 6.376-25.46 14.242c0 7.865 11.399 14.242 25.46 14.242z" opacity=".46"/><path d="m249.356 170.394c13.718 0 24.838-6.22 24.838-13.894s-11.12-13.895-24.838-13.895-24.838 6.221-24.838 13.895 11.12 13.894 24.838 13.894z" opacity=".5"/><path d="m249.356 170.047c13.374 0 24.216-6.065 24.216-13.547s-10.842-13.548-24.216-13.548-24.216 6.066-24.216 13.548 10.842 13.547 24.216 13.547z" opacity=".54"/><path d="m249.356 169.699c13.031 0 23.595-5.909 23.595-13.199s-10.564-13.199-23.595-13.199-23.595 5.909-23.595 13.199 10.564 13.199 23.595 13.199z" opacity=".58"/><path d="m249.356 169.352c12.689 0 22.975-5.754 22.975-12.852s-10.286-12.852-22.975-12.852c-12.688 0-22.974 5.754-22.974 12.852s10.286 12.852 22.974 12.852z" opacity=".63"/><path d="m249.356 169.005c12.346 0 22.354-5.599 22.354-12.505s-10.008-12.505-22.354-12.505c-12.345 0-22.353 5.599-22.353 12.505s10.008 12.505 22.353 12.505z" opacity=".67"/><path d="m249.357 168.658c12.002 0 21.732-5.443 21.732-12.158s-9.73-12.158-21.732-12.158c-12.003 0-21.733 5.443-21.733 12.158s9.73 12.158 21.733 12.158z" opacity=".71"/><path d="m249.356 168.309c11.659 0 21.112-5.287 21.112-11.809s-9.453-11.809-21.112-11.809c-11.66 0-21.112 5.287-21.112 11.809s9.452 11.809 21.112 11.809z" opacity=".75"/><path d="m249.357 167.962c11.316 0 20.489-5.132 20.489-11.462 0-6.331-9.173-11.462-20.489-11.462s-20.49 5.131-20.49 11.462c0 6.33 9.174 11.462 20.49 11.462z" opacity=".79"/><path d="m249.356 167.615c10.973 0 19.868-4.977 19.868-11.115 0-6.139-8.895-11.115-19.868-11.115s-19.869 4.976-19.869 11.115c0 6.138 8.896 11.115 19.869 11.115z" opacity=".83"/><path d="m249.356 167.268c10.63 0 19.248-4.821 19.248-10.768s-8.618-10.768-19.248-10.768-19.248 4.821-19.248 10.768 8.618 10.768 19.248 10.768z" opacity=".88"/><path d="m249.356 166.919c10.288 0 18.627-4.665 18.627-10.419 0-5.755-8.339-10.419-18.627-10.419-10.287 0-18.627 4.664-18.627 10.419 0 5.754 8.34 10.419 18.627 10.419z" opacity=".92"/><path d="m249.356 166.572c9.945 0 18.006-4.509 18.006-10.072s-8.061-10.072-18.006-10.072c-9.944 0-18.005 4.509-18.005 10.072s8.061 10.072 18.005 10.072z" opacity=".96"/><path d="m249.357 166.225c9.601 0 17.385-4.354 17.385-9.725s-7.784-9.725-17.385-9.725c-9.602 0-17.385 4.354-17.385 9.725s7.783 9.725 17.385 9.725z" opacity=".1"/></g><g fill="#190c00" opacity=".1"><path d="m268.453 125.135c17.491 0 31.671-7.931 31.671-17.715 0-9.7847-14.18-17.7164-31.671-17.7164s-31.671 7.9317-31.671 17.7164c0 9.784 14.18 17.715 31.671 17.715z" opacity=".04"/><path d="m268.453 124.788c17.148 0 31.049-7.776 31.049-17.368 0-9.593-13.901-17.3692-31.049-17.3692s-31.049 7.7762-31.049 17.3692c0 9.592 13.901 17.368 31.049 17.368z" opacity=".08"/><path d="m268.453 124.441c16.805 0 30.428-7.621 30.428-17.021 0-9.4012-13.623-17.0221-30.428-17.0221s-30.428 7.6209-30.428 17.0221c0 9.4 13.623 17.021 30.428 17.021z" opacity=".13"/><path d="m268.453 124.094c16.462 0 29.807-7.466 29.807-16.675 0-9.2089-13.345-16.6744-29.807-16.6744s-29.807 7.4655-29.807 16.6744c0 9.209 13.345 16.675 29.807 16.675z" opacity=".17"/><path d="m268.453 123.745c16.119 0 29.186-7.309 29.186-16.326 0-9.0163-13.067-16.3257-29.186-16.3257s-29.186 7.3094-29.186 16.3257c0 9.017 13.067 16.326 29.186 16.326z" opacity=".21"/><path d="m268.453 123.398c15.776 0 28.565-7.154 28.565-15.979 0-8.8246-12.789-15.9786-28.565-15.9786s-28.565 7.154-28.565 15.9786c0 8.825 12.789 15.979 28.565 15.979z" opacity=".25"/><path d="m268.453 123.051c15.432 0 27.942-6.998 27.942-15.632 0-8.6328-12.51-15.6314-27.942-15.6314-15.433 0-27.943 6.9986-27.943 15.6314 0 8.634 12.51 15.632 27.943 15.632z" opacity=".29"/><path d="m268.453 122.704c15.089 0 27.322-6.843 27.322-15.285 0-8.4411-12.233-15.2842-27.322-15.2842-15.09 0-27.322 6.8431-27.322 15.2842 0 8.442 12.232 15.285 27.322 15.285z" opacity=".33"/><path d="m268.453 122.356c14.747 0 26.701-6.687 26.701-14.936 0-8.2495-11.954-14.9366-26.701-14.9366s-26.701 6.6871-26.701 14.9366c0 8.249 11.954 14.936 26.701 14.936z" opacity=".38"/><path d="m268.453 122.009c14.404 0 26.08-6.532 26.08-14.589 0-8.0577-11.676-14.5894-26.08-14.5894-14.403 0-26.08 6.5317-26.08 14.5894 0 8.057 11.677 14.589 26.08 14.589z" opacity=".42"/><path d="m268.452 121.661c14.061 0 25.46-6.376 25.46-14.241 0-7.866-11.399-14.2423-25.46-14.2423-14.06 0-25.459 6.3763-25.459 14.2423 0 7.865 11.399 14.241 25.459 14.241z" opacity=".46"/><path d="m268.453 121.314c13.718 0 24.838-6.221 24.838-13.895 0-7.6737-11.12-13.8946-24.838-13.8946s-24.839 6.2209-24.839 13.8946c0 7.674 11.121 13.895 24.839 13.895z" opacity=".5"/><path d="m268.452 120.967c13.375 0 24.217-6.066 24.217-13.548 0-7.4819-10.842-13.5474-24.217-13.5474-13.374 0-24.216 6.0655-24.216 13.5474 0 7.482 10.842 13.548 24.216 13.548z" opacity=".54"/><path d="m268.453 120.618c13.031 0 23.595-5.909 23.595-13.199 0-7.289-10.564-13.1988-23.595-13.1988-13.032 0-23.596 5.9098-23.596 13.1988 0 7.29 10.564 13.199 23.596 13.199z" opacity=".58"/><path d="m268.453 120.271c12.688 0 22.974-5.754 22.974-12.852s-10.286-12.8516-22.974-12.8516c-12.689 0-22.974 5.7536-22.974 12.8516s10.285 12.852 22.974 12.852z" opacity=".63"/><path d="m268.453 119.924c12.346 0 22.354-5.598 22.354-12.505 0-6.906-10.008-12.5044-22.354-12.5044-12.345 0-22.353 5.5984-22.353 12.5044 0 6.907 10.008 12.505 22.353 12.505z" opacity=".67"/><path d="m268.453 119.577c12.003 0 21.733-5.443 21.733-12.158 0-6.714-9.73-12.1573-21.733-12.1573-12.002 0-21.732 5.4433-21.732 12.1573 0 6.715 9.73 12.158 21.732 12.158z" opacity=".71"/><path d="m268.453 119.229c11.659 0 21.111-5.287 21.111-11.809s-9.452-11.8096-21.111-11.8096c-11.66 0-21.112 5.2876-21.112 11.8096s9.452 11.809 21.112 11.809z" opacity=".75"/><path d="m268.453 118.881c11.316 0 20.49-5.131 20.49-11.462 0-6.33-9.174-11.462-20.49-11.462s-20.489 5.132-20.489 11.462c0 6.331 9.173 11.462 20.489 11.462z" opacity=".79"/><path d="m268.453 118.534c10.973 0 19.868-4.976 19.868-11.115 0-6.138-8.895-11.1148-19.868-11.1148-10.974 0-19.869 4.9768-19.869 11.1148 0 6.139 8.895 11.115 19.869 11.115z" opacity=".83"/><path d="m268.453 118.187c10.63 0 19.247-4.821 19.247-10.768s-8.617-10.7676-19.247-10.7676-19.248 4.8206-19.248 10.7676 8.618 10.768 19.248 10.768z" opacity=".88"/><path d="m268.453 117.839c10.287 0 18.627-4.665 18.627-10.42 0-5.754-8.34-10.419-18.627-10.419s-18.627 4.665-18.627 10.419c0 5.755 8.34 10.42 18.627 10.42z" opacity=".92"/><path d="m268.453 117.492c9.945 0 18.006-4.51 18.006-10.073 0-5.562-8.061-10.0718-18.006-10.0718-9.944 0-18.006 4.5098-18.006 10.0718 0 5.563 8.062 10.073 18.006 10.073z" opacity=".96"/><path d="m268.453 117.145c9.602 0 17.385-4.355 17.385-9.726s-7.783-9.7247-17.385-9.7247c-9.601 0-17.385 4.3537-17.385 9.7247s7.784 9.726 17.385 9.726z" opacity=".1"/></g><g fill="#190c00" opacity=".1"><path d="m174.173 154.646c17.491 0 31.671-7.932 31.671-17.716s-14.18-17.716-31.671-17.716-31.671 7.932-31.671 17.716 14.18 17.716 31.671 17.716z" opacity=".04"/><path d="m174.173 154.299c17.147 0 31.048-7.777 31.048-17.369 0-9.593-13.901-17.369-31.048-17.369-17.148 0-31.049 7.776-31.049 17.369 0 9.592 13.901 17.369 31.049 17.369z" opacity=".08"/><path d="m174.173 153.951c16.805 0 30.428-7.62 30.428-17.021s-13.623-17.022-30.428-17.022-30.428 7.621-30.428 17.022 13.623 17.021 30.428 17.021z" opacity=".13"/><path d="m174.173 153.604c16.462 0 29.807-7.466 29.807-16.675s-13.345-16.674-29.807-16.674-29.807 7.465-29.807 16.674 13.345 16.675 29.807 16.675z" opacity=".17"/><path d="m174.172 153.256c16.119 0 29.186-7.31 29.186-16.326 0-9.017-13.067-16.326-29.186-16.326s-29.186 7.309-29.186 16.326c0 9.016 13.067 16.326 29.186 16.326z" opacity=".21"/><path d="m174.173 152.908c15.776 0 28.565-7.154 28.565-15.978 0-8.825-12.789-15.979-28.565-15.979-15.777 0-28.566 7.154-28.566 15.979 0 8.824 12.789 15.978 28.566 15.978z" opacity=".25"/><path d="m174.172 152.561c15.433 0 27.943-6.998 27.943-15.631 0-8.634-12.51-15.632-27.943-15.632-15.432 0-27.943 6.998-27.943 15.632 0 8.633 12.511 15.631 27.943 15.631z" opacity=".29"/><path d="m174.173 152.214c15.089 0 27.321-6.843 27.321-15.284 0-8.442-12.232-15.285-27.321-15.285-15.09 0-27.322 6.843-27.322 15.285 0 8.441 12.232 15.284 27.322 15.284z" opacity=".33"/><path d="m174.173 151.866c14.746 0 26.701-6.687 26.701-14.936s-11.955-14.936-26.701-14.936c-14.747 0-26.701 6.687-26.701 14.936s11.954 14.936 26.701 14.936z" opacity=".38"/><path d="m174.173 151.519c14.404 0 26.08-6.532 26.08-14.589s-11.676-14.589-26.08-14.589-26.08 6.532-26.08 14.589 11.676 14.589 26.08 14.589z" opacity=".42"/><path d="m174.173 151.171c14.061 0 25.459-6.376 25.459-14.242 0-7.865-11.398-14.241-25.459-14.241s-25.459 6.376-25.459 14.241c0 7.866 11.398 14.242 25.459 14.242z" opacity=".46"/><path d="m174.172 150.824c13.718 0 24.839-6.221 24.839-13.895 0-7.673-11.121-13.894-24.839-13.894-13.717 0-24.838 6.221-24.838 13.894 0 7.674 11.121 13.895 24.838 13.895z" opacity=".5"/><path d="m174.172 150.477c13.374 0 24.216-6.065 24.216-13.548 0-7.482-10.842-13.547-24.216-13.547s-24.216 6.065-24.216 13.547c0 7.483 10.842 13.548 24.216 13.548z" opacity=".54"/><path d="m174.172 150.129c13.032 0 23.596-5.91 23.596-13.199 0-7.29-10.564-13.2-23.596-13.2-13.031 0-23.595 5.91-23.595 13.2 0 7.289 10.564 13.199 23.595 13.199z" opacity=".58"/><path d="m174.173 149.782c12.688 0 22.974-5.754 22.974-12.852s-10.286-12.852-22.974-12.852c-12.689 0-22.975 5.754-22.975 12.852s10.286 12.852 22.975 12.852z" opacity=".63"/><path d="m174.173 149.435c12.345 0 22.353-5.599 22.353-12.505 0-6.907-10.008-12.505-22.353-12.505-12.346 0-22.354 5.598-22.354 12.505 0 6.906 10.008 12.505 22.354 12.505z" opacity=".67"/><path d="m174.173 149.087c12.003 0 21.733-5.443 21.733-12.157 0-6.715-9.73-12.158-21.733-12.158s-21.733 5.443-21.733 12.158c0 6.714 9.73 12.157 21.733 12.157z" opacity=".71"/><path d="m174.172 148.739c11.66 0 21.112-5.287 21.112-11.809s-9.452-11.809-21.112-11.809c-11.659 0-21.111 5.287-21.111 11.809s9.452 11.809 21.111 11.809z" opacity=".75"/><path d="m174.173 148.392c11.316 0 20.489-5.132 20.489-11.463 0-6.33-9.173-11.462-20.489-11.462s-20.489 5.132-20.489 11.462c0 6.331 9.173 11.463 20.489 11.463z" opacity=".79"/><path d="m174.172 148.044c10.973 0 19.869-4.976 19.869-11.115 0-6.138-8.896-11.115-19.869-11.115s-19.868 4.977-19.868 11.115c0 6.139 8.895 11.115 19.868 11.115z" opacity=".83"/><path d="m174.172 147.697c10.631 0 19.248-4.821 19.248-10.768 0-5.946-8.617-10.767-19.248-10.767-10.63 0-19.247 4.821-19.247 10.767 0 5.947 8.617 10.768 19.247 10.768z" opacity=".88"/><path d="m174.173 147.349c10.287 0 18.626-4.665 18.626-10.419 0-5.755-8.339-10.42-18.626-10.42-10.288 0-18.627 4.665-18.627 10.42 0 5.754 8.339 10.419 18.627 10.419z" opacity=".92"/><path d="m174.173 147.002c9.944 0 18.006-4.51 18.006-10.072 0-5.563-8.062-10.073-18.006-10.073-9.945 0-18.006 4.51-18.006 10.073 0 5.562 8.061 10.072 18.006 10.072z" opacity=".96"/><path d="m174.173 146.655c9.602 0 17.385-4.354 17.385-9.725s-7.783-9.725-17.385-9.725c-9.601 0-17.385 4.354-17.385 9.725s7.784 9.725 17.385 9.725z" opacity=".1"/></g><g fill="#190c00" opacity=".1"><path d="m94.3174 199.611c17.4916 0 31.6706-7.932 31.6706-17.716 0-9.785-14.179-17.716-31.6706-17.716-17.4914 0-31.6709 7.931-31.6709 17.716 0 9.784 14.1795 17.716 31.6709 17.716z" opacity=".04"/><path d="m94.3172 199.263c17.1478 0 31.0488-7.776 31.0488-17.368 0-9.593-13.901-17.369-31.0488-17.369-17.1477 0-31.0486 7.776-31.0486 17.369 0 9.592 13.9009 17.368 31.0486 17.368z" opacity=".08"/><path d="m94.3174 198.916c16.8046 0 30.4276-7.621 30.4276-17.021 0-9.401-13.623-17.022-30.4276-17.022-16.8048 0-30.4278 7.621-30.4278 17.022 0 9.4 13.623 17.021 30.4278 17.021z" opacity=".13"/><path d="m94.3176 198.569c16.4624 0 29.8064-7.466 29.8064-16.675s-13.344-16.674-29.8064-16.674c-16.4619 0-29.8069 7.465-29.8069 16.674s13.345 16.675 29.8069 16.675z" opacity=".17"/><path d="m94.3168 198.22c16.1192 0 29.1862-7.309 29.1862-16.326 0-9.016-13.067-16.326-29.1862-16.326-16.1189 0-29.1859 7.31-29.1859 16.326 0 9.017 13.067 16.326 29.1859 16.326z" opacity=".21"/><path d="m94.317 197.873c15.776 0 28.565-7.154 28.565-15.979 0-8.824-12.789-15.978-28.565-15.978s-28.565 7.154-28.565 15.978c0 8.825 12.789 15.979 28.565 15.979z" opacity=".25"/><path d="m94.3169 197.526c15.4321 0 27.9431-6.998 27.9431-15.632 0-8.633-12.511-15.631-27.9431-15.631-15.4324 0-27.9429 6.998-27.9429 15.631 0 8.634 12.5105 15.632 27.9429 15.632z" opacity=".29"/><path d="m94.3171 197.179c15.0899 0 27.3219-6.843 27.3219-15.285 0-8.441-12.232-15.284-27.3219-15.284-15.0895 0-27.322 6.843-27.322 15.284 0 8.442 12.2325 15.285 27.322 15.285z" opacity=".33"/><path d="m94.3173 196.831c14.7467 0 26.7007-6.687 26.7007-14.936s-11.954-14.937-26.7007-14.937c-14.7466 0-26.7011 6.688-26.7011 14.937s11.9545 14.936 26.7011 14.936z" opacity=".38"/><path d="m94.3175 196.484c14.4035 0 26.0805-6.532 26.0805-14.589 0-8.058-11.677-14.589-26.0805-14.589-14.4037 0-26.0802 6.531-26.0802 14.589 0 8.057 11.6765 14.589 26.0802 14.589z" opacity=".42"/><path d="m94.3167 196.136c14.0603 0 25.4593-6.376 25.4593-14.242 0-7.865-11.399-14.242-25.4593-14.242-14.0608 0-25.4593 6.377-25.4593 14.242 0 7.866 11.3985 14.242 25.4593 14.242z" opacity=".46"/><path d="m94.3169 195.789c13.7181 0 24.8381-6.221 24.8381-13.895s-11.12-13.894-24.8381-13.894c-13.7179 0-24.8384 6.22-24.8384 13.894s11.1205 13.895 24.8384 13.895z" opacity=".5"/><path d="m94.3167 195.442c13.3743 0 24.2163-6.066 24.2163-13.548s-10.842-13.547-24.2163-13.547c-13.3742 0-24.2161 6.065-24.2161 13.547s10.8419 13.548 24.2161 13.548z" opacity=".54"/><path d="m94.3169 195.094c13.0311 0 23.5951-5.91 23.5951-13.2 0-7.289-10.564-13.199-23.5951-13.199-13.0313 0-23.5952 5.91-23.5952 13.199 0 7.29 10.5639 13.2 23.5952 13.2z" opacity=".58"/><path d="m94.3171 194.746c12.6889 0 22.9749-5.754 22.9749-12.852 0-7.097-10.286-12.852-22.9749-12.852-12.6884 0-22.9743 5.755-22.9743 12.852 0 7.098 10.2859 12.852 22.9743 12.852z" opacity=".63"/><path d="m94.3173 194.399c12.3457 0 22.3537-5.598 22.3537-12.504 0-6.907-10.008-12.505-22.3537-12.505-12.3454 0-22.3534 5.598-22.3534 12.505 0 6.906 10.008 12.504 22.3534 12.504z" opacity=".67"/><path d="m94.3175 194.052c12.0025 0 21.7325-5.443 21.7325-12.157 0-6.715-9.73-12.158-21.7325-12.158s-21.7325 5.443-21.7325 12.158c0 6.714 9.73 12.157 21.7325 12.157z" opacity=".71"/><path d="m94.3168 193.703c11.6592 0 21.1112-5.287 21.1112-11.809s-9.452-11.809-21.1112-11.809c-11.6597 0-21.1117 5.287-21.1117 11.809s9.452 11.809 21.1117 11.809z" opacity=".75"/><path d="m94.3176 193.356c11.3164 0 20.4894-5.131 20.4894-11.462 0-6.33-9.173-11.462-20.4894-11.462-11.316 0-20.4895 5.132-20.4895 11.462 0 6.331 9.1735 11.462 20.4895 11.462z" opacity=".79"/><path d="m94.3168 193.009c10.9732 0 19.8682-4.976 19.8682-11.115 0-6.138-8.895-11.115-19.8682-11.115-10.9731 0-19.8686 4.977-19.8686 11.115 0 6.139 8.8955 11.115 19.8686 11.115z" opacity=".83"/><path d="m94.317 192.662c10.63 0 19.248-4.821 19.248-10.768s-8.618-10.768-19.248-10.768c-10.6302 0-19.2477 4.821-19.2477 10.768s8.6175 10.768 19.2477 10.768z" opacity=".88"/><path d="m94.3172 192.314c10.2868 0 18.6268-4.665 18.6268-10.42 0-5.754-8.34-10.419-18.6268-10.419-10.2873 0-18.6268 4.665-18.6268 10.419 0 5.755 8.3395 10.42 18.6268 10.42z" opacity=".92"/><path d="m94.3174 191.967c9.9446 0 18.0056-4.51 18.0056-10.072 0-5.563-8.061-10.073-18.0056-10.073-9.9444 0-18.0059 4.51-18.0059 10.073 0 5.562 8.0615 10.072 18.0059 10.072z" opacity=".96"/><path d="m94.3176 191.62c9.6014 0 17.3854-4.354 17.3854-9.725s-7.784-9.726-17.3854-9.726c-9.6015 0-17.385 4.355-17.385 9.726s7.7835 9.725 17.385 9.725z" opacity=".1"/></g><g fill="#190c00" opacity=".1"><path d="m32.292 182.578c17.4914 0 31.6709-7.931 31.6709-17.716 0-9.784-14.1795-17.716-31.6709-17.716s-31.670906 7.932-31.670906 17.716c0 9.785 14.179506 17.716 31.670906 17.716z" opacity=".04"/><path d="m32.2918 182.231c17.1477 0 31.0487-7.776 31.0487-17.369 0-9.592-13.901-17.368-31.0487-17.368s-31.04864 7.776-31.04864 17.368c0 9.593 13.90094 17.369 31.04864 17.369z" opacity=".08"/><path d="m32.292 181.884c16.8048 0 30.4278-7.621 30.4278-17.022 0-9.4-13.623-17.021-30.4278-17.021s-30.42774 7.621-30.42774 17.021c0 9.401 13.62294 17.022 30.42774 17.022z" opacity=".13"/><path d="m32.2922 181.537c16.4619 0 29.8069-7.466 29.8069-16.675s-13.345-16.674-29.8069-16.674-29.80685 7.465-29.80685 16.674 13.34495 16.675 29.80685 16.675z" opacity=".17"/><path d="m32.2915 181.188c16.1189 0 29.1859-7.309 29.1859-16.326 0-9.016-13.067-16.326-29.1859-16.326-16.119 0-29.18603 7.31-29.18603 16.326 0 9.017 13.06703 16.326 29.18603 16.326z" opacity=".21"/><path d="m32.2917 180.841c15.776 0 28.5651-7.154 28.5651-15.979s-12.7891-15.979-28.5651-15.979c-15.7761 0-28.56514 7.154-28.56514 15.979s12.78904 15.979 28.56514 15.979z" opacity=".25"/><path d="m32.2915 180.494c15.4324 0 27.9428-6.999 27.9428-15.632s-12.5104-15.632-27.9428-15.632-27.94287 6.999-27.94287 15.632 12.51047 15.632 27.94287 15.632z" opacity=".29"/><path d="m32.2917 180.147c15.0895 0 27.3219-6.843 27.3219-15.285 0-8.441-12.2324-15.284-27.3219-15.284s-27.32197 6.843-27.32197 15.284c0 8.442 12.23247 15.285 27.32197 15.285z" opacity=".33"/><path d="m32.2919 179.799c14.7466 0 26.701-6.688 26.701-14.937s-11.9544-14.936-26.701-14.936-26.70108 6.687-26.70108 14.936 11.95448 14.937 26.70108 14.937z" opacity=".38"/><path d="m32.2921 179.451c14.4037 0 26.0802-6.531 26.0802-14.589 0-8.057-11.6765-14.589-26.0802-14.589s-26.08019 6.532-26.08019 14.589c0 8.058 11.67649 14.589 26.08019 14.589z" opacity=".42"/><path d="m32.2913 179.104c14.0608 0 25.4593-6.376 25.4593-14.242s-11.3985-14.242-25.4593-14.242-25.45927 6.376-25.45927 14.242 11.39847 14.242 25.45927 14.242z" opacity=".46"/><path d="m32.2915 178.757c13.7179 0 24.8384-6.221 24.8384-13.895s-11.1205-13.895-24.8384-13.895-24.83838 6.221-24.83838 13.895 11.12048 13.895 24.83838 13.895z" opacity=".5"/><path d="m32.2913 178.41c13.3742 0 24.2162-6.066 24.2162-13.548s-10.842-13.548-24.2162-13.548-24.2161 6.066-24.2161 13.548 10.8419 13.548 24.2161 13.548z" opacity=".54"/><path d="m32.2915 178.061c13.0313 0 23.5953-5.909 23.5953-13.199 0-7.289-10.564-13.199-23.5953-13.199s-23.59521 5.91-23.59521 13.199c0 7.29 10.56391 13.199 23.59521 13.199z" opacity=".58"/><path d="m32.2917 177.714c12.6884 0 22.9744-5.754 22.9744-12.852s-10.286-12.852-22.9744-12.852c-12.6883 0-22.97432 5.754-22.97432 12.852s10.28602 12.852 22.97432 12.852z" opacity=".63"/><path d="m32.2919 177.367c12.3455 0 22.3535-5.598 22.3535-12.505 0-6.906-10.008-12.505-22.3535-12.505-12.3454 0-22.35342 5.599-22.35342 12.505 0 6.907 10.00802 12.505 22.35342 12.505z" opacity=".67"/><path d="m32.2921 177.02c12.0026 0 21.7326-5.443 21.7326-12.158 0-6.714-9.73-12.157-21.7326-12.157-12.0025 0-21.7325 5.443-21.7325 12.157 0 6.715 9.73 12.158 21.7325 12.158z" opacity=".71"/><path d="m32.2914 176.672c11.6596 0 21.1117-5.287 21.1117-11.81 0-6.522-9.4521-11.809-21.1117-11.809-11.6597 0-21.1117 5.287-21.1117 11.809 0 6.523 9.452 11.81 21.1117 11.81z" opacity=".75"/><path d="m32.2922 176.324c11.316 0 20.4894-5.132 20.4894-11.462s-9.1734-11.462-20.4894-11.462-20.4895 5.132-20.4895 11.462 9.1735 11.462 20.4895 11.462z" opacity=".79"/><path d="m32.2914 175.977c10.9731 0 19.8685-4.976 19.8685-11.115s-8.8954-11.115-19.8685-11.115-19.8685 4.976-19.8685 11.115 8.8954 11.115 19.8685 11.115z" opacity=".83"/><path d="m32.2916 175.63c10.6302 0 19.2477-4.821 19.2477-10.768s-8.6175-10.768-19.2477-10.768-19.2477 4.821-19.2477 10.768 8.6175 10.768 19.2477 10.768z" opacity=".88"/><path d="m32.2918 175.282c10.2873 0 18.6268-4.665 18.6268-10.42 0-5.754-8.3395-10.419-18.6268-10.419s-18.6268 4.665-18.6268 10.419c0 5.755 8.3395 10.42 18.6268 10.42z" opacity=".92"/><path d="m32.292 174.935c9.9444 0 18.0059-4.51 18.0059-10.073 0-5.562-8.0615-10.072-18.0059-10.072s-18.0059 4.51-18.0059 10.072c0 5.563 8.0615 10.073 18.0059 10.073z" opacity=".96"/><path d="m32.2922 174.587c9.6015 0 17.385-4.354 17.385-9.725s-7.7835-9.725-17.385-9.725-17.385 4.354-17.385 9.725 7.7835 9.725 17.385 9.725z" opacity=".1"/></g><g fill="#190c00" opacity=".1"><path d="m81.5479 272.652c17.4913 0 31.6711-7.932 31.6711-17.716 0-9.785-14.1798-17.716-31.6711-17.716-17.4914 0-31.6709 7.931-31.6709 17.716 0 9.784 14.1795 17.716 31.6709 17.716z" opacity=".04"/><path d="m81.5477 272.304c17.1477 0 31.0483-7.776 31.0483-17.368 0-9.593-13.9006-17.369-31.0483-17.369s-31.0487 7.776-31.0487 17.369c0 9.592 13.901 17.368 31.0487 17.368z" opacity=".08"/><path d="m81.5479 271.957c16.8048 0 30.4281-7.621 30.4281-17.021 0-9.401-13.6233-17.022-30.4281-17.022s-30.4278 7.621-30.4278 17.022c0 9.4 13.623 17.021 30.4278 17.021z" opacity=".13"/><path d="m81.5481 271.61c16.4619 0 29.8069-7.466 29.8069-16.675s-13.345-16.674-29.8069-16.674-29.8069 7.465-29.8069 16.674 13.345 16.675 29.8069 16.675z" opacity=".17"/><path d="m81.5473 271.261c16.119 0 29.1857-7.309 29.1857-16.326 0-9.016-13.0667-16.326-29.1857-16.326s-29.186 7.31-29.186 16.326c0 9.017 13.067 16.326 29.186 16.326z" opacity=".21"/><path d="m81.5475 270.914c15.7761 0 28.5655-7.154 28.5655-15.979 0-8.824-12.7894-15.978-28.5655-15.978s-28.5651 7.154-28.5651 15.978c0 8.825 12.789 15.979 28.5651 15.979z" opacity=".25"/><path d="m81.5473 270.567c15.4324 0 27.9427-6.998 27.9427-15.632 0-8.633-12.5103-15.631-27.9427-15.631s-27.9428 6.998-27.9428 15.631c0 8.634 12.5104 15.632 27.9428 15.632z" opacity=".29"/><path d="m81.5475 270.22c15.0895 0 27.3225-6.843 27.3225-15.284 0-8.442-12.233-15.285-27.3225-15.285s-27.3219 6.843-27.3219 15.285c0 8.441 12.2324 15.284 27.3219 15.284z" opacity=".33"/><path d="m81.5477 269.872c14.7466 0 26.7013-6.687 26.7013-14.936s-11.9547-14.936-26.7013-14.936c-14.7465 0-26.701 6.687-26.701 14.936s11.9545 14.936 26.701 14.936z" opacity=".38"/><path d="m81.5479 269.525c14.4037 0 26.0801-6.532 26.0801-14.589 0-8.058-11.6764-14.589-26.0801-14.589-14.4036 0-26.0801 6.531-26.0801 14.589 0 8.057 11.6765 14.589 26.0801 14.589z" opacity=".42"/><path d="m81.5472 269.177c14.0607 0 25.4588-6.376 25.4588-14.242 0-7.865-11.3981-14.242-25.4588-14.242-14.0608 0-25.4593 6.377-25.4593 14.242 0 7.866 11.3985 14.242 25.4593 14.242z" opacity=".46"/><path d="m81.5474 268.83c13.7178 0 24.8386-6.221 24.8386-13.895s-11.1208-13.894-24.8386-13.894c-13.7179 0-24.8384 6.22-24.8384 13.894s11.1205 13.895 24.8384 13.895z" opacity=".5"/><path d="m81.5472 268.483c13.3742 0 24.2158-6.066 24.2158-13.548s-10.8416-13.547-24.2158-13.547-24.2161 6.065-24.2161 13.547 10.8419 13.548 24.2161 13.548z" opacity=".54"/><path d="m81.5474 268.135c13.0313 0 23.5956-5.91 23.5956-13.2 0-7.289-10.5643-13.199-23.5956-13.199s-23.5953 5.91-23.5953 13.199c0 7.29 10.564 13.2 23.5953 13.2z" opacity=".58"/><path d="m81.5476 267.787c12.6884 0 22.9744-5.754 22.9744-12.851 0-7.098-10.286-12.853-22.9744-12.853s-22.9744 5.755-22.9744 12.853c0 7.097 10.286 12.851 22.9744 12.851z" opacity=".63"/><path d="m81.5478 267.44c12.3455 0 22.3532-5.598 22.3532-12.504 0-6.907-10.0077-12.505-22.3532-12.505s-22.3535 5.598-22.3535 12.505c0 6.906 10.008 12.504 22.3535 12.504z" opacity=".67"/><path d="m81.548 267.093c12.0026 0 21.733-5.443 21.733-12.157 0-6.715-9.7304-12.158-21.733-12.158s-21.7326 5.443-21.7326 12.158c0 6.714 9.73 12.157 21.7326 12.157z" opacity=".71"/><path d="m81.5472 266.745c11.6597 0 21.1118-5.287 21.1118-11.809s-9.4521-11.81-21.1118-11.81c-11.6596 0-21.1117 5.288-21.1117 11.81s9.4521 11.809 21.1117 11.809z" opacity=".75"/><path d="m81.548 266.397c11.316 0 20.489-5.131 20.489-11.462 0-6.33-9.173-11.462-20.489-11.462s-20.4894 5.132-20.4894 11.462c0 6.331 9.1734 11.462 20.4894 11.462z" opacity=".79"/><path d="m81.5473 266.05c10.973 0 19.8687-4.976 19.8687-11.115 0-6.138-8.8957-11.115-19.8687-11.115-10.9731 0-19.8686 4.977-19.8686 11.115 0 6.139 8.8955 11.115 19.8686 11.115z" opacity=".83"/><path d="m81.5475 265.703c10.6301 0 19.2475-4.821 19.2475-10.768s-8.6174-10.768-19.2475-10.768c-10.6302 0-19.2477 4.821-19.2477 10.768s8.6175 10.768 19.2477 10.768z" opacity=".88"/><path d="m81.5477 265.355c10.2872 0 18.6263-4.665 18.6263-10.42 0-5.754-8.3391-10.419-18.6263-10.419-10.2873 0-18.6268 4.665-18.6268 10.419 0 5.755 8.3395 10.42 18.6268 10.42z" opacity=".92"/><path d="m81.5479 265.008c9.9443 0 18.0058-4.51 18.0058-10.072 0-5.563-8.0615-10.073-18.0058-10.073-9.9444 0-18.0059 4.51-18.0059 10.073 0 5.562 8.0615 10.072 18.0059 10.072z" opacity=".96"/><path d="m81.5481 264.661c9.6014 0 17.3849-4.354 17.3849-9.725s-7.7835-9.726-17.3849-9.726c-9.6015 0-17.385 4.355-17.385 9.726s7.7835 9.725 17.385 9.725z" opacity=".1"/></g><g fill="#190c00" opacity=".1"><path d="m174.618 215.313c17.492 0 31.671-7.932 31.671-17.716s-14.179-17.716-31.671-17.716c-17.491 0-31.671 7.932-31.671 17.716s14.18 17.716 31.671 17.716z" opacity=".04"/><path d="m174.618 214.966c17.148 0 31.049-7.777 31.049-17.369 0-9.593-13.901-17.369-31.049-17.369s-31.049 7.776-31.049 17.369c0 9.592 13.901 17.369 31.049 17.369z" opacity=".08"/><path d="m174.618 214.618c16.805 0 30.428-7.62 30.428-17.021s-13.623-17.022-30.428-17.022-30.428 7.621-30.428 17.022 13.623 17.021 30.428 17.021z" opacity=".13"/><path d="m174.618 214.271c16.462 0 29.807-7.466 29.807-16.675s-13.345-16.674-29.807-16.674c-16.461 0-29.806 7.465-29.806 16.674s13.345 16.675 29.806 16.675z" opacity=".17"/><path d="m174.618 213.923c16.119 0 29.186-7.31 29.186-16.326 0-9.017-13.067-16.326-29.186-16.326s-29.186 7.309-29.186 16.326c0 9.016 13.067 16.326 29.186 16.326z" opacity=".21"/><path d="m174.618 213.575c15.776 0 28.565-7.154 28.565-15.978 0-8.825-12.789-15.979-28.565-15.979s-28.565 7.154-28.565 15.979c0 8.824 12.789 15.978 28.565 15.978z" opacity=".25"/><path d="m174.618 213.228c15.432 0 27.942-6.998 27.942-15.631 0-8.634-12.51-15.632-27.942-15.632-15.433 0-27.943 6.998-27.943 15.632 0 8.633 12.51 15.631 27.943 15.631z" opacity=".29"/><path d="m174.618 212.881c15.089 0 27.322-6.843 27.322-15.284 0-8.442-12.233-15.285-27.322-15.285-15.09 0-27.322 6.843-27.322 15.285 0 8.441 12.232 15.284 27.322 15.284z" opacity=".33"/><path d="m174.618 212.533c14.747 0 26.701-6.687 26.701-14.936s-11.954-14.936-26.701-14.936-26.701 6.687-26.701 14.936 11.954 14.936 26.701 14.936z" opacity=".38"/><path d="m174.618 212.186c14.404 0 26.08-6.532 26.08-14.589s-11.676-14.589-26.08-14.589c-14.403 0-26.08 6.532-26.08 14.589s11.677 14.589 26.08 14.589z" opacity=".42"/><path d="m174.617 211.838c14.061 0 25.46-6.376 25.46-14.242 0-7.865-11.399-14.242-25.46-14.242-14.06 0-25.459 6.377-25.459 14.242 0 7.866 11.399 14.242 25.459 14.242z" opacity=".46"/><path d="m174.618 211.491c13.718 0 24.838-6.221 24.838-13.895 0-7.673-11.12-13.894-24.838-13.894s-24.839 6.221-24.839 13.894c0 7.674 11.121 13.895 24.839 13.895z" opacity=".5"/><path d="m174.618 211.144c13.374 0 24.216-6.065 24.216-13.548 0-7.482-10.842-13.547-24.216-13.547-13.375 0-24.217 6.065-24.217 13.547 0 7.483 10.842 13.548 24.217 13.548z" opacity=".54"/><path d="m174.618 210.796c13.031 0 23.595-5.91 23.595-13.199 0-7.29-10.564-13.2-23.595-13.2-13.032 0-23.596 5.91-23.596 13.2 0 7.289 10.564 13.199 23.596 13.199z" opacity=".58"/><path d="m174.618 210.449c12.688 0 22.974-5.754 22.974-12.852s-10.286-12.852-22.974-12.852-22.974 5.754-22.974 12.852 10.286 12.852 22.974 12.852z" opacity=".63"/><path d="m174.618 210.102c12.346 0 22.354-5.599 22.354-12.505 0-6.907-10.008-12.505-22.354-12.505-12.345 0-22.353 5.598-22.353 12.505 0 6.906 10.008 12.505 22.353 12.505z" opacity=".67"/><path d="m174.618 209.754c12.003 0 21.733-5.443 21.733-12.157 0-6.715-9.73-12.158-21.733-12.158-12.002 0-21.732 5.443-21.732 12.158 0 6.714 9.73 12.157 21.732 12.157z" opacity=".71"/><path d="m174.618 209.406c11.659 0 21.111-5.288 21.111-11.81s-9.452-11.809-21.111-11.809c-11.66 0-21.112 5.287-21.112 11.809s9.452 11.81 21.112 11.81z" opacity=".75"/><path d="m174.618 209.059c11.316 0 20.49-5.132 20.49-11.463 0-6.33-9.174-11.462-20.49-11.462s-20.489 5.132-20.489 11.462c0 6.331 9.173 11.463 20.489 11.463z" opacity=".79"/><path d="m174.618 208.711c10.973 0 19.868-4.976 19.868-11.115 0-6.138-8.895-11.115-19.868-11.115-10.974 0-19.869 4.977-19.869 11.115 0 6.139 8.895 11.115 19.869 11.115z" opacity=".83"/><path d="m174.618 208.364c10.63 0 19.247-4.821 19.247-10.768 0-5.946-8.617-10.767-19.247-10.767s-19.248 4.821-19.248 10.767c0 5.947 8.618 10.768 19.248 10.768z" opacity=".88"/><path d="m174.618 208.016c10.287 0 18.627-4.665 18.627-10.419 0-5.755-8.34-10.42-18.627-10.42s-18.627 4.665-18.627 10.42c0 5.754 8.34 10.419 18.627 10.419z" opacity=".92"/><path d="m174.618 207.669c9.945 0 18.006-4.51 18.006-10.072 0-5.563-8.061-10.073-18.006-10.073-9.944 0-18.006 4.51-18.006 10.073 0 5.562 8.062 10.072 18.006 10.072z" opacity=".96"/><path d="m174.618 207.322c9.602 0 17.385-4.354 17.385-9.725s-7.783-9.725-17.385-9.725c-9.601 0-17.385 4.354-17.385 9.725s7.784 9.725 17.385 9.725z" opacity=".1"/></g><path d="m83.7755 258.088-37.6134-21.896 30.8918-18.01 37.6121 21.896z" fill="url(#d)"/><path d="m114.666 240.078v3.825l-30.8906 17.799v-3.614z" fill="url(#e)"/><path d="m46.1621 236.192v3.616l37.6134 21.895v-3.615z" fill="url(#f)"/><path d="m77.0539 218.182-30.8918 18.01 4.4937 2.67 30.8917-18.01z" fill="url(#h)"/><path d="m50.6558 238.862v3.565l-4.4937-2.619v-3.616z" fill="url(#i)"/><path d="m63.0037 240.425 19.3328-11.332c.2774-.162.2584-.438-.0392-.614-.1597-.086-.3378-.133-.5194-.137-.1815-.004-.3615.035-.5249.115l-19.3328 11.332c-.2773.162-.2584.438.0392.613.1597.086.3378.134.5194.138.1815.004.3615-.036.5249-.115z" fill="url(#k)"/><path d="m65.8007 242.076 22.7254-13.322c.2706-.163.2584-.438-.0392-.614-.1595-.086-.3375-.134-.5192-.138-.1816-.004-.3617.035-.5251.114l-22.7254 13.322c-.2706.162-.2584.438.0405.613.1594.087.3372.134.5186.139.1814.004.3611-.035.5244-.114z" fill="url(#l)"/><path d="m68.6036 243.719 22.7254-13.322c.2706-.162.2584-.437-.0392-.612-.1595-.086-.3375-.134-.5192-.138-.1816-.004-.3617.035-.5251.114l-22.7255 13.322c-.2705.162-.2583.438.0393.613.1597.087.3377.134.5193.138s.3616-.036.525-.115z" fill="url(#m)"/><path d="m71.3946 245.365 22.7254-13.322c.2706-.162.2598-.438-.0392-.614-.1595-.086-.3375-.134-.5192-.138-.1816-.004-.3617.035-.5251.114l-22.7254 13.322c-.2706.162-.2584.438.0392.613.1595.087.3375.135.5192.139.1816.004.3617-.035.5251-.114z" fill="url(#n)"/><path d="m74.1923 247.008 22.7255-13.322c.2705-.162.2583-.437-.0393-.613-.1597-.086-.3378-.133-.5193-.137-.1816-.004-.3616.035-.525.114l-22.7254 13.322c-.2706.162-.2584.438.0405.614.1596.086.3374.133.5187.137.1814.004.3611-.036.5243-.115z" fill="url(#o)"/><path d="m84.9781 243.97 14.7445-8.644c.2705-.162.2583-.438-.0393-.613-.1595-.087-.3375-.135-.5191-.139-.1817-.004-.3617.035-.5251.114l-14.7446 8.645c-.2705.162-.2597.437.0393.613.1595.087.3375.134.5192.139.1816.004.3617-.035.5251-.115z" fill="url(#p)"/><path d="m83.7755 251.321-37.6134-21.895 30.8918-18.01 37.6121 21.895z" fill="url(#q)"/><path d="m114.666 233.311v3.825l-30.8906 17.799v-3.614z" fill="url(#r)"/><path d="m46.1621 229.426v3.615l37.6134 21.895v-3.615z" fill="url(#s)"/><path d="m77.0539 211.416-30.8918 18.01 4.4937 2.67 30.8917-18.011z" fill="url(#t)"/><path d="m50.6558 232.097v3.564l-4.4937-2.62v-3.615z" fill="url(#u)"/><path d="m63.0037 233.671 19.3328-11.332c.2774-.162.2584-.438-.0392-.613-.1595-.087-.3375-.135-.5192-.139-.1816-.004-.3617.035-.5251.114l-19.3328 11.333c-.2773.162-.2584.438.0392.613.1595.087.3375.135.5192.139.1816.004.3617-.035.5251-.115z" fill="url(#v)"/><path d="m65.8007 235.309 22.7254-13.322c.2706-.161.2584-.438-.0392-.612-.1595-.087-.3375-.135-.5192-.139-.1816-.004-.3617.035-.5251.114l-22.7254 13.322c-.2706.163-.2584.438.0405.614.1596.086.3374.133.5187.137.1814.004.3611-.035.5243-.114z" fill="url(#w)"/><path d="m68.6036 236.954 22.7254-13.323c.2706-.162.2584-.437-.0392-.613-.1595-.087-.3375-.134-.5192-.138-.1816-.005-.3617.035-.5251.114l-22.7255 13.322c-.2705.162-.2583.438.0393.613.1595.087.3375.135.5192.139.1816.004.3616-.035.5251-.114z" fill="url(#x)"/><path d="m71.3946 238.597 22.7254-13.322c.2706-.161.2598-.437-.0392-.612-.1595-.087-.3375-.134-.5192-.138-.1816-.005-.3617.035-.5251.114l-22.7254 13.322c-.2706.162-.2584.438.0392.613.1597.087.3378.134.5194.138.1815.004.3615-.036.5249-.115z" fill="url(#y)"/><path d="m74.1923 240.243 22.7255-13.322c.2705-.163.2583-.438-.0393-.614-.1595-.087-.3375-.134-.5192-.138-.1816-.004-.3616.035-.5251.114l-22.7254 13.322c-.2706.162-.2584.438.0405.613.1594.087.3372.134.5186.139.1814.004.3611-.035.5244-.114z" fill="url(#z)"/><path d="m84.9781 237.203 14.7445-8.644c.2705-.161.2583-.438-.0393-.612-.1595-.087-.3375-.134-.5191-.139-.1817-.004-.3617.035-.5251.115l-14.7446 8.644c-.2705.162-.2597.439.0393.613.1596.087.3377.134.5193.138.1817.004.3617-.035.525-.115z" fill="url(#A)"/><path d="m250.505 160.437-37.613-21.895 30.891-18.01 37.612 21.895z" fill="url(#B)"/><path d="m281.395 142.427v3.825l-30.89 17.8v-3.615z" fill="url(#C)"/><path d="m212.892 138.542v3.615l37.613 21.895v-3.615z" fill="url(#D)"/><path d="m243.783 120.532-30.891 18.01 4.493 2.67 30.892-18.01z" fill="url(#E)"/><path d="m217.385 141.213v3.564l-4.493-2.62v-3.615z" fill="url(#F)"/><path d="m229.732 142.781 19.335-11.333c.27-.162.258-.437-.041-.613-.159-.087-.337-.134-.519-.138-.182-.005-.362.035-.525.114l-19.333 11.332c-.271.162-.258.438.039.614.16.086.338.134.519.138.182.004.362-.035.525-.114z" fill="url(#G)"/><path d="m232.53 144.425 22.726-13.321c.277-.162.259-.439-.039-.613-.16-.087-.338-.134-.52-.139-.181-.004-.361.035-.525.115l-22.725 13.322c-.271.162-.259.437.039.613.16.086.338.133.519.137.182.004.362-.035.525-.114z" fill="url(#H)"/><path d="m235.328 146.07 22.725-13.322c.271-.162.259-.438-.039-.614-.159-.086-.337-.134-.519-.138s-.362.035-.525.114l-22.725 13.322c-.271.162-.259.438.04.613.159.087.337.134.519.139.181.004.361-.035.524-.114z" fill="url(#I)"/><path d="m238.124 147.713 22.726-13.32c.27-.162.258-.439-.04-.613-.159-.087-.337-.135-.519-.139s-.362.035-.525.114l-22.725 13.322c-.271.162-.259.438.039.613.16.087.338.134.519.138.182.004.362-.035.525-.115z" fill="url(#J)"/><path d="m240.921 149.359 22.725-13.322c.271-.162.26-.438-.039-.613-.16-.087-.338-.135-.519-.139-.182-.004-.362.035-.525.114l-22.726 13.322c-.277.162-.258.438.039.614.16.086.338.134.52.138.181.004.361-.035.525-.114z" fill="url(#K)"/><path d="m251.708 146.319 14.738-8.644c.27-.162.258-.439-.04-.613-.159-.087-.337-.135-.519-.139-.181-.004-.361.035-.525.114l-14.744 8.645c-.271.161-.259.438.039.612.16.088.339.136.522.141.183.004.365-.035.529-.116z" fill="url(#L)"/><path d="m250.505 153.671-37.613-21.895 30.891-18.011 37.612 21.896z" fill="url(#M)"/><path d="m281.395 135.661v3.825l-30.89 17.8v-3.615z" fill="url(#N)"/><path d="m212.892 131.776v3.615l37.613 21.895v-3.615z" fill="url(#O)"/><path d="m243.783 113.765-30.891 18.011 4.493 2.669 30.892-18.01z" fill="url(#P)"/><path d="m217.385 134.445v3.566l-4.493-2.62v-3.615z" fill="url(#Q)"/><path d="m229.732 136.015 19.335-11.332c.27-.162.258-.439-.041-.613-.159-.087-.337-.135-.519-.139s-.362.035-.525.114l-19.333 11.333c-.271.162-.258.437.039.613.16.086.338.133.519.137.182.005.362-.034.525-.113z" fill="url(#R)"/><path d="m232.53 137.659 22.726-13.322c.277-.162.259-.438-.039-.613-.16-.087-.338-.135-.52-.139-.181-.004-.361.035-.525.115l-22.725 13.322c-.271.162-.259.437.039.613.16.087.338.134.519.138.182.005.362-.035.525-.114z" fill="url(#S)"/><path d="m235.328 139.304 22.725-13.322c.271-.162.259-.439-.039-.613-.159-.087-.337-.134-.519-.139-.182-.004-.362.035-.525.115l-22.725 13.322c-.271.162-.259.437.04.613.16.086.337.133.519.137.181.004.361-.034.524-.113z" fill="url(#T)"/><path d="m238.124 140.948 22.726-13.322c.27-.162.258-.438-.04-.614-.159-.086-.337-.134-.519-.138s-.362.035-.525.114l-22.725 13.322c-.271.162-.259.438.039.613.159.087.337.135.519.139s.362-.035.525-.114z" fill="url(#U)"/><path d="m240.921 142.593 22.725-13.322c.271-.162.26-.439-.039-.613-.16-.087-.338-.134-.519-.139-.182-.004-.362.035-.525.115l-22.726 13.322c-.277.162-.258.437.039.613.16.086.338.133.52.137.181.005.361-.034.525-.113z" fill="url(#V)"/><path d="m251.708 139.554 14.738-8.645c.27-.162.258-.437-.04-.613-.159-.087-.337-.134-.519-.138-.181-.005-.361.034-.525.114l-14.744 8.644c-.271.162-.259.438.039.614.16.088.34.136.522.14.183.004.365-.036.529-.116z" fill="url(#W)"/><path d="m138.335 97.586 62.486-35.7047 2.345 1.5088-2.345 61.4339-62.486 35.705z" fill="url(#X)"/><path d="m140.682 99.0948 62.484-35.7047v62.9429l-62.484 35.706z" fill="url(#Y)"/><path d="m201.488 125.355v-59.0933l-59.128 33.8113v59.095z" fill="#fff"/><path d="m138.335 97.5859 2.347 1.5088v62.9443l-2.347-1.51z" fill="url(#Z)"/><path d="m194.953 95.5396-26.855 14.3134v-4.686l26.855-14.313z" stroke="url(#aa)" stroke-miterlimit="10" stroke-width=".75"/><path d="m158.199 124.129-7.267 3.872c-.481.257-.873.076-.873-.405 0-.482.392-1.081.873-1.337l7.267-3.874c.482-.257.873-.074.873.405 0 .481-.391 1.079-.873 1.339z" fill="url(#ac)"/><path d="m194.953 104.535-26.855 14.314v-4.686l26.855-14.3134z" stroke="url(#ad)" stroke-miterlimit="10" stroke-width=".75"/><path d="m163.509 126.479-12.58 6.704c-.482.256-.874.074-.874-.405 0-.483.392-1.081.874-1.339l12.58-6.702c.481-.257.872-.076.872.405-.005.481-.391 1.081-.872 1.337z" fill="url(#ae)"/><path d="m180.036 91.6863-12.58 6.7022c-.483.2566-.874.0756-.874-.4052 0-.4809.391-1.0806.874-1.3372l12.58-6.7036c.483-.2566.874-.0743.874.4052 0 .4822-.391 1.0806-.874 1.3386z" fill="url(#af)"/><path d="m158.199 133.123-7.267 3.873c-.481.256-.873.075-.873-.405 0-.481.392-1.081.873-1.338l7.267-3.873c.482-.257.873-.075.873.405 0 .482-.391 1.08-.873 1.338z" fill="url(#ag)"/><path d="m158.199 109.281-7.267 3.872c-.481.258-.873.076-.873-.405s.392-1.081.873-1.337l7.267-3.873c.482-.258.873-.076.873.405s-.391 1.081-.873 1.338z" fill="url(#ah)"/><path d="m163.509 111.634-12.58 6.702c-.482.256-.874.075-.874-.405 0-.483.392-1.081.874-1.338l12.58-6.703c.481-.257.872-.075.872.405-.005.482-.391 1.081-.872 1.339z" fill="url(#ai)"/><path d="m158.199 118.276-7.267 3.874c-.481.256-.873.074-.873-.405 0-.483.392-1.081.873-1.339l7.267-3.872c.482-.257.873-.076.873.405 0 .482-.391 1.08-.873 1.337z" fill="url(#aj)"/><path d="m194.953 113.531-26.855 14.314v-4.686l26.855-14.313z" stroke="url(#ak)" stroke-miterlimit="10" stroke-width=".75"/><path d="m309.001 134.847-66.941-38.2711v-44.3586l66.941 38.271z" fill="url(#al)" opacity=".7"/><path d="m275.569 95.1129-26.213-14.9861v-15.6209l26.213 14.9861z" fill="url(#am)"/><path d="m275.569 109.551-26.213-14.9864v-12.6237l26.213 14.9861z" fill="url(#an)"/><path d="m305.56 126.268-26.211-14.986v-29.2385l26.211 14.9861z" fill="url(#ao)"/><path d="m255.67 81.9257-1.675-.9603v-4.4952l1.675.9604z" fill="url(#aq)"/><path d="m258.866 83.7563-1.676-.9603v-6.8468l1.676.959z" fill="url(#ar)"/><path d="m262.061 85.5849-1.674-.959v-8.2582l1.674.959z" fill="url(#as)"/><path d="m265.258 87.4151-1.676-.959v-10.2452l1.676.959z" fill="url(#at)"/><path d="m268.453 89.2452-1.675-.959v-4.4952l1.675.959z" fill="url(#au)"/><path d="m260.824 93.0626-7.942-4.556c-.143-.0855-.264-.2034-.353-.3441-.089-.1408-.144-.3005-.16-.4663 0-.2823.23-.3796.513-.2188l7.942 4.5613c.143.0855.264.2034.353.3442.089.1407.143.3005.159.4662-.002.2796-.232.3769-.512.2135z" fill="url(#av)" opacity=".56"/><path d="m266.86 98.8531-13.981-8.0205c-.143-.0855-.264-.2034-.353-.3442s-.144-.3005-.16-.4663c0-.2809.23-.3795.513-.2174l13.981 8.0205c.143.0857.264.2037.353.3444s.144.3003.16.466c0 .2823-.231.3796-.513.2175z" fill="url(#aw)" opacity=".56"/><path d="m266.86 101.178-13.981-8.0209c-.143-.0855-.264-.2033-.353-.3441s-.144-.3005-.16-.4663c0-.2823.23-.3809.513-.2188l13.981 8.0221c.143.085.264.203.353.344.09.141.144.3.16.466 0 .281-.231.38-.513.218z" fill="url(#ax)" opacity=".56"/><path d="m291.187 93.7702-7.942-4.556c-.143-.0855-.264-.2033-.353-.3441s-.144-.3005-.161-.4663c0-.2823.232-.3796.514-.2175l7.942 4.556c.143.0857.264.2036.353.3444.089.1407.144.3003.16.466 0 .2809-.231.3795-.513.2175z" fill="url(#ay)" opacity=".56"/><path d="m297.226 99.5593-13.981-8.0218c-.143-.0855-.264-.2034-.353-.3441-.089-.1408-.144-.3005-.161-.4663 0-.2823.232-.3809.514-.2189l13.981 8.0206c.143.0854.264.2033.353.3441.09.1407.145.3004.161.4663 0 .2836-.232.3822-.514.2201z" fill="url(#az)" opacity=".56"/><path d="m297.226 101.883-13.981-8.0208c-.143-.0855-.264-.2034-.353-.3441-.089-.1408-.144-.3005-.161-.4664 0-.2823.232-.3795.514-.2174l13.981 8.0207c.143.085.264.203.353.344.09.141.145.3.161.466 0 .281-.232.38-.514.218z" fill="url(#aA)" opacity=".56"/><path d="m291.187 102.624-7.942-4.5559c-.143-.0854-.264-.2033-.353-.3441-.089-.1407-.144-.3005-.161-.4663 0-.2823.232-.3795.514-.2188l7.942 4.5561c.143.086.264.204.353.344.089.141.144.301.16.466 0 .283-.231.383-.513.219z" fill="url(#aB)" opacity=".56"/><path d="m297.226 108.412-13.981-8.02c-.143-.086-.264-.204-.353-.344-.089-.1412-.144-.3009-.161-.4668 0-.2809.232-.3795.514-.2174l13.981 8.0202c.143.086.264.204.353.344.09.141.145.301.161.467 0 .282-.232.379-.514.217z" fill="url(#aC)" opacity=".56"/><path d="m297.226 110.737-13.981-8.021c-.143-.085-.264-.203-.353-.344s-.144-.3-.161-.466c0-.283.232-.381.514-.219l13.981 8.022c.143.085.264.203.354.344.089.141.144.3.16.466 0 .281-.232.38-.514.218z" fill="url(#aD)" opacity=".56"/><path d="m291.187 111.477-7.942-4.556c-.143-.086-.264-.204-.353-.344-.089-.141-.144-.301-.161-.467 0-.282.232-.381.514-.218l7.942 4.555c.143.086.264.204.353.345s.144.3.16.466c0 .284-.231.381-.513.219z" fill="url(#aE)" opacity=".56"/><path d="m297.226 117.266-13.981-8.021c-.143-.085-.264-.203-.353-.344-.089-.14-.144-.3-.161-.466 0-.282.232-.38.514-.217l13.981 8.02c.143.086.264.203.353.344.09.141.145.301.161.467 0 .28-.232.379-.514.217z" fill="url(#aF)" opacity=".56"/><path d="m297.226 119.589-13.981-8.022c-.143-.085-.264-.203-.353-.344s-.144-.3-.161-.466c0-.282.232-.381.514-.219l13.981 8.021c.143.085.264.203.353.344.09.14.145.3.161.466 0 .285-.232.382-.514.22z" fill="url(#aG)" opacity=".56"/><path d="m308.807 94.5877-66.747-38.1616v-4.2088l66.747 38.1616z" fill="url(#aH)"/><path d="m78.0664 141.359 36.9726-20.431v50.654l-36.9726 20.431z" fill="url(#aJ)"/><path d="m74.6504 139.846 3.4156 1.513 36.972-20.431-3.415-1.513z" fill="url(#aK)"/><path d="m78.066 192.013-3.4156-1.513v-50.654l3.4156 1.513z" fill="url(#aL)"/><path d="m90.5053 144.93 18.3337-9.705c.459-.259.835-.847.835-1.306s-.376-.624-.835-.364l-18.3337 9.704c-.4613.261-.8373.848-.8373 1.307 0 .457.376.62.8373.364z" fill="url(#aM)"/><path d="m82.9506 152.65 25.8884-13.963c.46-.261.836-.849.836-1.308s-.376-.623-.836-.363l-25.8884 13.965c-.4599.259-.8373.847-.8373 1.306s.3774.623.8373.363z" fill="url(#aN)"/><path d="m82.9506 156.114 25.8884-13.964c.46-.259.836-.848.836-1.307 0-.46-.376-.623-.836-.364l-25.8884 13.965c-.4599.26-.8373.847-.8373 1.306 0 .46.3774.624.8373.364z" fill="url(#aO)"/><path d="m82.9506 159.578 25.8884-13.965c.46-.259.836-.848.836-1.307s-.376-.623-.836-.363l-25.8884 13.965c-.4599.259-.8373.846-.8373 1.306 0 .459.3774.624.8373.364z" fill="url(#aP)"/><path d="m85.6123 161.544 23.2257-12.463c.46-.26.836-.849.836-1.308s-.376-.622-.836-.363l-23.2257 12.463c-.4599.259-.8359.848-.8359 1.307 0 .456.376.619.8359.364z" fill="url(#aQ)"/><path d="m90.5053 165.971 18.3337-9.705c.459-.259.835-.847.835-1.307 0-.459-.376-.623-.835-.364l-18.3337 9.705c-.4613.26-.8373.849-.8373 1.308s.376.622.8373.363z" fill="url(#aR)"/><path d="m82.9506 173.7 25.8884-13.965c.46-.259.836-.847.836-1.306 0-.461-.376-.624-.836-.365l-25.8884 13.96c-.4599.259-.8373.848-.8373 1.307s.3774.623.8373.369z" fill="url(#aS)"/><path d="m82.9506 177.158 25.8884-13.965c.46-.259.836-.847.836-1.306 0-.461-.376-.624-.836-.365l-25.8884 13.965c-.4599.259-.8373.848-.8373 1.308 0 .459.3774.622.8373.363z" fill="url(#aT)"/><path d="m82.9506 180.621 25.8884-13.965c.46-.259.836-.847.836-1.306s-.376-.624-.836-.363l-25.8884 13.963c-.4599.26-.8373.849-.8373 1.308 0 .466.3774.622.8373.363z" fill="url(#aU)"/><path d="m85.6123 182.583 23.2257-12.464c.46-.259.836-.847.836-1.306s-.376-.624-.836-.363l-23.2257 12.463c-.4599.259-.8359.846-.8359 1.307 0 .459.376.623.8359.363z" fill="url(#aV)"/><path d="m115.039 125.149-36.9726 20.429v-4.219l36.9726-20.431z" fill="url(#aW)"/><path d="m78.066 141.359-3.4156-1.513v4.221l3.4156 1.511z" fill="url(#aX)"/><path d="m191.388 29.1917 49.135-27.93535v33.59215l-49.135 27.9354z" fill="url(#aY)"/><path d="m188.551 27.9354 2.836 1.2561 49.136-27.93534-2.837-1.25616z" fill="url(#aZ)"/><path d="m191.387 62.7839-2.836-1.2562v-33.5922l2.836 1.2562z" fill="url(#a0)"/><path d="m197.69 34.712 11.275-6.3983c.406-.2324.749-.7591.749-1.1711s-.336-.5579-.749-.3255l-11.275 6.3983c-.406.2323-.751.7591-.751 1.171 0 .4053.339.5511.751.3256z" fill="url(#a1)"/><path d="m197.69 37.9322 11.275-6.3983c.406-.2324.749-.7591.749-1.1711s-.336-.5578-.749-.3255l-11.275 6.3983c-.406.2323-.751.7591-.751 1.1711 0 .4119.339.5578.751.3255z" fill="url(#a2)"/><path d="m240.523 4.76279-49.135 27.93401v-3.5051l49.135-27.93535z" fill="url(#a3)"/><path d="m191.387 29.1917-2.836-1.2562v3.5051l2.836 1.2562z" fill="url(#a4)"/><path d="m234.685 16.8932-20.904 12.444v-4.3168l20.904-12.4428z" stroke="url(#a5)" stroke-miterlimit="10" stroke-width=".75"/><path d="m197.69 42.022 11.275-6.3983c.406-.2323.749-.7591.749-1.1711 0-.4119-.336-.5578-.749-.3255l-11.275 6.3929c-.406.2324-.751.7591-.751 1.1711 0 .4174.339.5632.751.3309z" fill="url(#a6)"/><path d="m197.69 45.2476 11.275-6.3983c.406-.2323.749-.7591.749-1.1711 0-.4119-.336-.5578-.749-.3255l-11.275 6.3983c-.406.2323-.751.7591-.751 1.1711 0 .4133.339.5592.751.3255z" fill="url(#a7)"/><path d="m234.685 24.21-20.904 12.4441v-4.3168l20.904-12.4428z" stroke="url(#a8)" stroke-miterlimit="10" stroke-width=".75"/><path d="m197.69 49.3385 11.275-6.3983c.406-.2324.749-.7591.749-1.1711 0-.4052-.336-.5578-.749-.3255l-11.275 6.3983c-.406.2323-.751.7591-.751 1.1711 0 .4119.339.5564.751.3255z" fill="url(#a9)"/><path d="m197.69 52.5655 11.275-6.3983c.406-.2323.749-.7591.749-1.171 0-.4053-.336-.5579-.749-.3256l-11.275 6.3983c-.406.2324-.751.7591-.751 1.1711s.339.5579.751.3255z" fill="url(#ba)"/><path d="m234.685 31.5269-20.904 12.4441v-4.3168l20.904-12.4428z" stroke="url(#bb)" stroke-miterlimit="10" stroke-width=".75"/><path d="m194.28 189.864-35.855 22.519v-46.71l35.855-20.458z" fill="url(#bd)"/><path d="m196.939 193.228-35.855 20.458v-46.709l35.855-20.457z" fill="url(#be)"/><path d="m158.425 165.673 2.659 1.305v46.709l-2.659-1.304z" fill="url(#bf)"/><path d="m196.939 146.52-2.659-1.305-35.855 20.458 2.659 1.304z" fill="url(#bg)"/><path d="m196.939 146.52-35.855 20.457v6.353l35.855-20.458z" fill="url(#bh)"/><path d="m161.084 166.978-2.659-1.305v6.352l2.659 1.305z" fill="url(#bi)"/><g stroke-miterlimit="10"><path d="m191.968 190.125-25.912 14.786v-26.998l25.912-14.785z" stroke="#7c7777" stroke-width="2"/><path d="m182.843 168.396v26.996" stroke="#7c7777" stroke-width="2"/><path d="m174.618 173.027v26.997" stroke="#7c7777" stroke-width="2"/><path d="m191.968 168.396-25.912 14.784" stroke="#7c7777" stroke-width="2"/><path d="m191.968 172-25.912 14.786" stroke="#7c7777" stroke-width="2"/><path d="m191.968 175.603-25.912 14.786" stroke="#7c7777" stroke-width="2"/><path d="m191.968 179.207-25.912 14.786" stroke="#7c7777" stroke-width="2"/><path d="m191.968 182.811-25.912 14.786" stroke="#7c7777" stroke-width="2"/><path d="m191.968 186.416-25.912 14.784" stroke="#7c7777" stroke-width="2"/></g><path d="m127.667 87.692-4.787-2.7784 1.067 7.1182 4.786 2.7771z" fill="url(#bj)"/><path d="m156.747 45.8811-4.787-2.7771-6.772 2.6987 4.786 2.7771z" fill="url(#bk)"/><path d="m124.636 76.1908-4.787-2.7771c.207.1182.423.2206.646.3066l.09.0365c.203.0722.41.1318.62.1783.041.0094.079.0243.119.0324.244.0478.49.079.738.0932h.154c.249.0105.499.0055.748-.0148l.092-.0082c.273-.0269.544-.0689.812-.1256l.085-.0189c.293-.0661.583-.1472.868-.2431l.06-.0189c.307-.1054.619-.231.936-.3742l.062-.0297c.322-.1499.648-.316.977-.5065.328-.1904.662-.4052.987-.6254l.058-.0418c.302-.2108.601-.435.893-.6754l.099-.081c.284-.2324.564-.4768.839-.7308l.097-.0905c.279-.262.549-.5344.812-.8172l.066-.0688c.284-.3035.562-.6187.833-.9455l.008-.0095c.277-.3341.545-.6767.805-1.0279.238-.3228.464-.6524.685-.986.135-.2053.27-.4174.395-.6281.11-.1783.224-.3539.33-.5403.05-.0851.096-.1715.144-.258.172-.3025.338-.6064.497-.9157.017-.0338.035-.0676.051-.1013.191-.3755.369-.7564.541-1.1387.008-.0202.016-.0405.026-.0608.164-.3755.316-.7537.457-1.1346l.029-.0742c.143-.3891.27-.7808.393-1.1711l.02-.0716c.113-.3769.214-.7523.302-1.1278l.025-.1081c.089-.3877.166-.7753.228-1.1589-.001-.0063-.001-.0126 0-.0189.062-.389.107-.774.135-1.1562l.008-.0959c.03-.3836.046-.7632.045-1.1373-.001-.3742-.019-.7321-.051-1.0806 0-.0311 0-.0621-.01-.0932-.031-.3188-.077-.624-.135-.9171-.008-.0405-.015-.0797-.023-.1189-.057-.2758-.128-.5485-.212-.8172-.015-.0499-.032-.0972-.048-.1445-.078-.2381-.168-.4721-.27-.701-.012-.0257-.022-.054-.034-.0784-.116-.2474-.248-.4866-.396-.7158-.018-.0297-.041-.0554-.06-.0851-.118-.1751-.246-.3433-.383-.5038-.048-.0581-.1-.1121-.151-.1662-.117-.1257-.24-.2452-.37-.3579-.052-.0459-.104-.0932-.159-.1351-.177-.1378-.363-.2628-.557-.3741l4.787 2.7784c.199.1179.389.2502.569.3957.054.0433.107.0905.16.1351.129.1122.252.2313.369.3566.052.0554.102.1094.152.1661.137.1612.265.3304.382.5065.019.0284.041.0527.06.0824l.013.019c.138.2174.262.4429.372.6753l.011.0243c.011.0257.021.0527.033.0784.067.1485.135.2985.192.4565.03.0797.055.1634.082.2458.017.0473.033.0946.048.1432s.029.0851.043.1283c.047.1635.092.3309.135.5038.014.0608.025.1243.037.1864.008.0379.016.077.024.1175.011.0595.024.1162.035.177.027.154.05.3107.071.47.01.0892.019.181.028.2702 0 .031 0 .0608.01.0918l.012.1108c.012.1526.021.3079.028.4646s.01.3147.011.4768v.0284.4444c0 .1499-.012.316-.023.4754 0 .0716-.011.1446-.018.2175v.0932c0 .0567-.008.1121-.013.1675-.015.1607-.033.3201-.054.4822-.022.1621-.044.3282-.071.4943v.0095c.001.0072.001.0144 0 .0216-.024.1553-.051.3107-.079.466-.029.1553-.068.3417-.106.5133-.012.0608-.028.1215-.042.1823l-.024.1067c-.019.0757-.035.1499-.053.2256-.043.1738-.088.348-.135.5227-.035.127-.073.2539-.111.3809-.008.023-.014.0473-.022.0703-.008.0229-.012.0459-.019.0688-.053.1689-.107.3391-.163.5079-.057.1688-.115.335-.175.5025-.012.0297-.024.0607-.035.0918l-.029.0757c-.039.1053-.077.2093-.117.3133-.062.1594-.127.3201-.194.4782-.047.1148-.097.2296-.147.3431l-.024.0594c-.011.0216-.021.0446-.03.0662-.071.1594-.135.3174-.217.4754-.081.1581-.165.3472-.251.52l-.041.0784c-.016.0338-.035.0675-.053.0999-.069.1351-.135.2702-.212.4052-.091.1702-.188.3364-.284.5052-.047.0851-.095.1716-.145.258-.019.0338-.036.0675-.057.1013-.086.1459-.181.2864-.27.4309-.135.212-.26.4241-.396.6308-.023.0337-.042.0675-.064.1013-.2.2985-.406.5929-.62.8806-.143.1945-.289.385-.438.5741-.12.1526-.243.3039-.366.4525l-.009.0094c-.125.15-.251.2999-.38.4444-.128.1445-.254.2864-.384.4255-.02.0229-.043.0446-.065.0675-.021.023-.043.0446-.065.0676-.09.0959-.181.1931-.27.2863-.135.1351-.271.2701-.415.4052l-.136.1202-.099.0905c-.067.0635-.135.1351-.204.1905-.145.1314-.291.2589-.438.3822l-.195.1594-.099.0797-.144.1189c-.144.1121-.288.2215-.433.3282-.104.077-.21.1513-.317.2242l-.058.0419-.054.0391c-.138.0946-.277.1846-.418.2702-.135.0878-.271.1729-.417.2553l-.097.0567c-.104.0594-.208.1175-.314.1742-.135.073-.27.1432-.406.2094-.086.0432-.173.0824-.259.1216l-.063.0297-.077.0365c-.135.058-.27.1148-.393.1661s-.271.104-.398.1499l-.068.0216-.061.0203c-.089.0297-.178.0608-.27.0864-.135.0419-.271.0784-.406.1121-.065.0163-.135.0298-.193.0433l-.086.0189-.125.0283c-.145.0284-.288.0514-.432.0703-.086.0121-.173.0189-.258.027l-.092.0094c-.029 0-.058 0-.088.0082-.156.0121-.31.0162-.463.0162-.067 0-.135 0-.199-.0095l-.152-.0081c-.053 0-.107 0-.16 0-.19-.0175-.38-.045-.567-.0824h-.008c-.043-.0081-.081-.0243-.122-.0324-.189-.0411-.375-.0925-.558-.154l-.063-.0257c-.031-.0108-.059-.0243-.089-.0364-.23-.0798-.453-.1768-.668-.2904z" fill="url(#bl)"/><path d="m111.62 93.5676-4.786-2.7771c.626.5652 1.31 1.0632 2.04 1.4858l4.787 2.7784c-.731-.4225-1.415-.9205-2.041-1.4858" fill="#7c8484"/><path d="m149.566 33.3354-4.786-2.777c-.667-.387-1.37-.709-2.098-.9617l4.784 2.777c.729.2531 1.431.5751 2.098.9617" fill="#7c8484"/><path d="m147.467 32.3739-4.786-2.7771c-.15-.0527-.302-.1013-.453-.1486l4.785 2.7785c.153.0459.305.0959.454.1472z" fill="url(#bm)"/><path d="m115.628 84.9138-4.787-2.7771-4.011 8.654 4.787 2.7771z" fill="url(#bn)"/><path d="m147.015 32.2253-4.787-2.7771-5.494 7.8017 4.788 2.7784z" fill="url(#bo)"/><path d="m130.873 37.8927c.119-.0391.237-.0756.354-.1107.076-.023.149-.0406.224-.0622.121-.0351.243-.0688.364-.0999.055-.0149.112-.0324.167-.0459.056-.0135.146-.0325.219-.05.136-.0297.261-.0594.391-.0865.053-.0108.109-.0256.163-.0364l.197-.0324c.145-.0257.287-.05.429-.0703.058-.0094.118-.0216.174-.0297l.161-.0162c.163-.0203.324-.0365.483-.05l.195-.0202h.108c.214-.0136.426-.0203.636-.0217h.149.031c.292 0 .578.0163.862.0392h.077c.161.0149.32.0324.477.0527l4.788 2.7784c-.183-.0243-.37-.0419-.556-.0567-.283-.023-.57-.0379-.861-.0392-.059 0-.12 0-.18 0-.209 0-.422.0081-.637.0216l-.301.0243c-.16.0135-.322.0297-.483.0487l-.336.0459c-.135.0216-.285.0445-.429.0716-.12.0198-.24.0427-.361.0688-.135.0257-.258.0554-.389.0865-.132.0311-.259.0608-.389.0945l-.362.1c-.192.0554-.384.1108-.578.1729z" fill="url(#bp)"/><path d="m108.425 76.8836c-.038-.1662-.075-.335-.109-.5052l4.792 2.7717c.044.2255.096.443.147.6605.046.1904.095.3768.146.5605.03.1108.06.2215.092.3309.092.3067.19.6079.296.8983v.0094c.124.3323.26.6484.406.959.049.1054.099.2094.15.312.05.1013.102.2026.155.3012.063.1203.135.2364.196.3526.061.1161.111.1904.168.2823.056.0918.094.1459.135.2188.193.3018.402.5935.625.8739l-4.786-2.7784c-.224-.2797-.433-.571-.626-.8726-.023-.0351-.049-.0648-.072-.0999s-.046-.0797-.07-.1189c-.057-.0932-.113-.1877-.168-.2836-.056-.0959-.135-.2324-.196-.3512-.061-.1189-.105-.1999-.155-.3026-.032-.0648-.067-.1269-.098-.1931-.019-.0378-.033-.0797-.05-.1189-.144-.3093-.282-.6254-.406-.9576v-.0095c-.108-.2904-.206-.5903-.298-.8982-.009-.0311-.02-.0594-.03-.0905-.023-.0784-.04-.1608-.062-.2404-.051-.1837-.1-.3688-.144-.5579-.01-.0473-.026-.0986-.038-.1526z" fill="url(#bq)"/><path d="m124.502 48.1581-.195.2039c-.424.4503-.841.91-1.25 1.3791l-.175.2053c-.433.5079-.857 1.0279-1.271 1.5601l-4.787-2.7771c.087-.1121.173-.2242.261-.335.234-.2958.471-.5889.712-.8766.099-.1175.199-.2323.299-.3484.058-.0689.116-.1351.176-.2053.077-.0892.151-.181.228-.2702.24-.2701.48-.5403.725-.801.098-.1053.196-.2053.295-.3093l.195-.2039c.091-.0932.177-.1891.27-.281.263-.2701.528-.5317.796-.7847.078-.0757.16-.1473.238-.2216l.215-.1999c.123-.1134.245-.2296.368-.3417.271-.2485.556-.4903.836-.728l.229-.1905 4.78 2.7798c-.486.4052-.962.8239-1.431 1.2588-.073.0662-.145.1351-.217.2013-.434.4151-.867.8437-1.297 1.2859z" fill="url(#br)"/><path d="m113.68 67.6474c-.011.0419-.019.0824-.028.1243-.161.6659-.305 1.3318-.422 1.9923l-4.788-2.7704c.018-.0986.036-.1985.054-.2971.06-.3174.125-.6335.194-.9455.054-.2472.114-.4957.174-.7442l.029-.1243c.008-.0324.015-.0648.023-.0973.08-.3241.166-.6497.257-.9752.09-.3255.184-.647.284-.9711.1-.3242.2-.6376.307-.955s.212-.6213.325-.9306c.017-.0486.036-.0959.054-.1445.017-.0487.036-.0946.054-.1432.076-.2053.151-.4052.231-.6146.115-.2945.233-.588.355-.8807.067-.162.135-.3241.205-.4862l4.787 2.7716c-.282.6565-.546 1.3174-.792 1.9829l-.053.1351c-.492 1.3336-.909 2.6937-1.25 4.0737z" fill="url(#bs)"/><path d="m128.472 37.0768-4.787-2.7785-1.023 8.3353 4.787 2.777z" fill="url(#bt)"/><path d="m128.472 37.077-4.787-2.7703c.231-.1648.461-.3269.694-.4862.206-.1351.415-.2702.622-.4053l.291-.1918.135-.0918c.353-.2242.709-.4412 1.066-.651l.247-.1446c.271-.1567.541-.3075.812-.4525.179-.0972.356-.185.541-.2769l.304-.158.186-.0959c.333-.1648.666-.321.997-.4687l.23-.1013 4.786 2.7784c-.467.2026-.938.4282-1.411.6659-.102.05-.203.1054-.305.1567-.446.231-.894.4701-1.352.7294-.489.2827-.973.579-1.453.8888-.099.0621-.195.135-.292.1918-.443.2742-.877.5727-1.311.8833z" fill="url(#bu)"/><path d="m113.229 69.7644-4.786-2.7771-6.769 5.1057 4.787 2.7784z" fill="url(#bv)"/><path d="m101.484 74.8806c0-.1958.019-.393.027-.5889 0-.1175.011-.2337.018-.3512 0-.0918 0-.1823.012-.2701.026-.3985.057-.7983.096-1.2008.011-.1229.024-.2472.036-.3715l4.788 2.7771c-.065.62-.113 1.2359-.146 1.8464 0 .1175-.011.235-.017.3512-.027.5876-.044 1.1724-.043 1.7559 0 .4849.015.959.037 1.4264.006.1229.016.2418.023.3647.024.4119.051.8212.093 1.2156l-4.786-2.7784c-.022-.1945-.039-.3917-.055-.5916-.017-.1999-.026-.416-.04-.624-.006-.123-.016-.2445-.021-.3688 0-.0486-.008-.0959-.01-.1459-.016-.3962-.025-.7982-.028-1.2061v-.077c-.001-.3863.004-.774.016-1.163z" fill="url(#bw)"/><path d="m121.611 51.5066-4.787-2.7784-5.527-1.4479 4.786 2.7784z" fill="url(#bx)"/><path d="m111.75 57.4685-4.787-2.7771 4.026 3.9792 4.787 2.7771z" fill="url(#by)"/><path d="m114.245 52.933c-.16.2701-.326.5268-.481.7942-.088.1486-.168.2999-.253.4484-.287.5025-.571 1.005-.844 1.5142-.315.5889-.621 1.1823-.917 1.7802l-4.786-2.7784c.039-.081.08-.1621.12-.2431.237-.4764.482-.9509.733-1.4237.021-.0378.044-.0742.064-.1134.271-.5079.556-1.0117.844-1.5128.079-.1351.15-.2702.23-.4147l.022-.0351c.154-.2701.319-.5241.477-.7861.21-.3471.417-.697.635-1.0414.166-.2702.342-.5227.512-.7834.206-.3161.406-.6349.62-.9455l.076-.1121 4.787 2.7784c-.236.3431-.459.6943-.687 1.0427-.173.2702-.352.5295-.522.7983-.216.3404-.414.6875-.63 1.0333z" fill="url(#bz)"/><path d="m106.255 78.8193c-.003-1.3188.066-2.6367.206-3.9481l6.763-5.1071c.531-2.8574 1.387-5.6448 2.551-8.3082l-4.02-3.9859c1.266-2.5693 2.713-5.0459 4.329-7.4114l5.527 1.448c1.715-2.2392 3.672-4.283 5.835-6.0944l1.023-8.3352c1.001-.7204 2.021-1.3791 3.06-1.9761.991-.5737 2.013-1.0923 3.061-1.5533l1.067 7.1222c2.105-.6848 4.08-.882 5.862-.6415l5.493-7.8017c1.606.4863 3.091 1.3035 4.361 2.3988l-3.982 8.5865c1.185 1.3818 2.069 3.185 2.582 5.369l6.772-2.7014c.148 1.2276.223 2.4631.223 3.6996 0 1.0455-.037 2.1031-.135 3.1742l-6.687 5.0557c-.479 2.9693-1.311 5.8712-2.477 8.6445l4.045 4.0062c-1.22 2.5172-2.609 4.9495-4.157 7.2804l-5.488-1.4426c-1.851 2.5036-3.997 4.7764-6.39 6.7698l-1.019 8.3203c-.972.6848-1.962 1.3264-2.963 1.9032-.961.5545-1.95 1.0599-2.963 1.5141l-1.067-7.1182c-2.321.7645-4.482.9455-6.401.5916l-5.461 7.7558c-1.552-.5291-2.979-1.3699-4.193-2.4705l4.01-8.6526c-1.198-1.4858-2.061-3.4173-2.524-5.7581l-6.696 2.6717c-.099-.9987-.149-2.0017-.147-3.0053zm25.392-3.316c5.442-3.1377 9.839-10.7436 9.822-16.9879-.018-6.2443-4.444-8.7634-9.886-5.6257s-9.841 10.7395-9.822 16.9879 4.444 8.762 9.886 5.6257z" fill="url(#bA)"/><path d="m52.3213 134.61 7.517-3.906c.3462-.18.733-.268 1.1232-.256.3902.013.7705.126 1.1043.328s.6097.487.8013.827c.1915.339.2921.722.2921 1.112v33.872c0 .556.1452 1.102.4211 1.584.2759.483.673.886 1.1521 1.168.4792.283 1.0239.436 1.5804.444.5565.009 1.1055-.128 1.593-.396l6.746-3.714" stroke="url(#bB)" stroke-miterlimit="10" stroke-width="7"/><path d="m94.8459 127.999v-16.498c.0001-.32-.0834-.634-.2422-.912-.1589-.279-.3876-.51-.6637-.673-.276-.163-.5897-.251-.9103-.256s-.6368.074-.9176.229l-7.682 4.222c-.4345.239-.9238.36-1.4197.352-.4959-.007-.9812-.144-1.4081-.396-.427-.252-.7808-.61-1.0267-1.04-.2458-.43-.3752-.917-.3754-1.412v-20.246c.0007-1.0747.2782-2.1311.8058-3.0678.5275-.9367 1.2874-1.7222 2.2067-2.281l18.2733-11.1393" stroke="url(#bC)" stroke-miterlimit="10" stroke-width="7"/><path d="m154.473 44.5611 10.927-6.0674c.263-.1461.56-.2209.861-.2172.302.0037.597.086.856.2385.26.1526.475.3701.625.6313.149.2611.228.5567.228.8575v16.7839c0 .4704.124.9325.361 1.3395.236.4071.575.7447.984.9788.409.234.872.3562 1.343.3542.471-.0019.934-.128 1.34-.3655l16.555-9.6603" stroke="url(#bD)" stroke-miterlimit="10" stroke-width="7"/><path d="m219.851 46.3481v32.0362c.001.4845-.126.9607-.37 1.3799-.243.4193-.593.7666-1.015 1.0068l-7.881 4.4843c-.48.2729-.879.6679-1.156 1.1448-.278.4769-.424 1.0186-.424 1.5701v9.6036c0 .4087-.098.8113-.287 1.1742-.188.3628-.461.6753-.795.9113l-4.76 3.3767" stroke="url(#bE)" stroke-miterlimit="10" stroke-width="7"/><path d="m97.9146 181.044 21.6864 13.187c.349.212.637.512.834.869.197.358.297.761.29 1.169s-.121.807-.33 1.158c-.21.35-.508.64-.864.84l-21.5082 12.062c-.3699.208-.6783.511-.8943.876s-.332.781-.3364 1.205.103.842.3114 1.212c.2085.369.5105.678.876.894l15.0155 8.832c.618.364 1.322.559 2.04.565s1.425-.176 2.05-.528l16.584-9.357c.89-.502 1.895-.768 2.918-.771 1.022-.004 2.029.255 2.922.752l6.763 3.765c.426.236.905.359 1.391.356.487-.003.964-.132 1.387-.374l9.368-5.373" stroke="url(#bF)" stroke-miterlimit="10" stroke-width="7"/><path d="m97.1152 254.016 20.8818 12.529c1.283.77 2.748 1.184 4.245 1.198 1.496.015 2.97-.37 4.268-1.114l64.543-37.033c.595-.342 1.09-.834 1.435-1.428.344-.593.526-1.267.527-1.953.001-.687-.179-1.361-.523-1.955-.343-.595-.836-1.089-1.431-1.432l-9.353-5.395c-.268-.156-.489-.381-.642-.65-.153-.27-.231-.575-.228-.884.004-.31.089-.613.248-.88.158-.266.385-.485.656-.636l4.724-2.593c.282-.154.52-.379.691-.652.17-.272.268-.584.283-.906.015-.321-.053-.641-.197-.928-.144-.288-.36-.534-.627-.714l-7.604-5.132" stroke="url(#bG)" stroke-miterlimit="10" stroke-width="7"/><path d="m189.284 197.597 16.392 9.293c1.069.606 2.276.925 3.505.925s2.437-.319 3.505-.925l67.827-38.538c.478-.271.877-.664 1.155-1.137.278-.474.426-1.013.43-1.562s-.136-1.09-.408-1.568c-.271-.478-.663-.876-1.137-1.154l-13.913-8.176" stroke="url(#bH)" stroke-miterlimit="10" stroke-width="7"/><path d="m196.939 177.339 25.119-14.264c.559-.319 1.025-.779 1.35-1.335s.498-1.187.501-1.83c.003-.644-.164-1.277-.484-1.836-.32-.558-.781-1.023-1.338-1.347l-36.266-21.06" stroke="url(#bI)" stroke-miterlimit="10" stroke-width="7"/><path d="m45.8406 144.95 1.8938-24.788c0-1.004-2.4728-2.455-3.8539-1.633l-18.6146 11.053c-.4545.27-1.3919-.238-1.8302-.534l-2.2157-1.243c-.2693-.181-.5839-.284-.9085-.296-.3245-.013-.6461.066-.9285.226l-10.94338 6.196c-.41125.234-.75303.573-.99062.982s-.36251.874-.36208 1.346v30.06c0 1.778 2.8542 3.091 3.75238 2.576l33.7514-21.785c.38-.219.6956-.534.915-.913.2195-.379.335-.809.3349-1.247z" fill="url(#bK)"/><path d="m48.0574 146.194v-25.307c0-.228-.0607-.452-.1757-.65-.1151-.197-.2805-.361-.4794-.474-.1989-.112-.4242-.171-.653-.168-.2287.002-.4528.065-.6493.182l-18.6186 11.049c-.2226.132-.4782.198-.737.191-.2589-.007-.5104-.087-.7253-.232l-2.5837-1.737c-.2693-.18-.5836-.283-.9078-.295s-.6454.065-.9278.225l-10.9434 6.197c-.4113.234-.75319.573-.99081.982-.23762.408-.36248.873-.36188 1.345v30.062c.00215.235.0656.465.18408.668s.28789.371.49153.489c.20368.117.43448.18.66968.181s.4667-.059.6716-.174l35.4855-20.374c.3804-.218.6964-.533.916-.912.2197-.379.3354-.81.3353-1.248z" fill="#ffac73"/><path d="m8.82324 168.49 4.83326 3.054v-2.601l-4.83326-3.054z" fill="#ea8b57"/><path d="m9.30078 166.19 2.66352-1.309v2.992z" fill="#ffcca9"/><path d="m12.2417 165.353 32.9032-18.37v-40.182c-.0001-.197-.0516-.39-.1495-.561s-.2388-.313-.4087-.413c-.1699-.099-.3629-.153-.5599-.155s-.3912.047-.5633.143l-31.771 17.741c-.5231.293-.9587.719-1.2619 1.235-.3031.517-.46292 1.105-.46283 1.703v37.527c.00014.266.06993.527.20233.758.1325.231.3231.423.5529.558.2298.134.4908.206.7572.209s.5289-.064.7615-.193z" fill="url(#bL)"/><path d="m13.5727 166.033 32.9032-18.369v-40.184c.0002-.197-.0513-.39-.1492-.561s-.2389-.313-.4088-.412c-.17-.1-.3632-.153-.5602-.155-.1971-.002-.3912.047-.5632.143l-31.7696 17.742c-.5234.292-.9593.718-1.2627 1.234s-.4634 1.104-.4634 1.702v37.528c.0002.267.0699.528.2024.759.1325.23.323.423.5528.557.2298.135.4909.207.7572.21.2664.003.5289-.064.7615-.194z" fill="url(#bM)"/><path d="m24.2039 125.253 16.1824-9.073c.4221-.239.7683-.779.7683-1.201 0-.421-.3462-.571-.7683-.333l-16.1824 9.078c-.4221.239-.7684.778-.7684 1.201 0 .42.3463.565.7684.328z" fill="url(#bN)"/><path d="m17.2674 132.344 23.1191-12.985c.422-.237.7683-.778.7683-1.201 0-.421-.3463-.571-.7683-.333l-23.1191 12.984c-.4221.239-.7684.78-.7684 1.201s.3463.573.7684.334z" fill="url(#bO)"/><path d="m17.2674 135.523 23.1191-12.984c.422-.238.7683-.778.7683-1.199 0-.423-.3463-.573-.7683-.334l-23.1191 12.983c-.4221.238-.7684.778-.7684 1.199 0 .422.3463.574.7684.335z" fill="url(#bP)"/><path d="m17.2674 138.704 23.1191-12.984c.422-.239.7683-.779.7683-1.201 0-.421-.3463-.571-.7683-.333l-23.1191 12.984c-.4221.239-.7684.778-.7684 1.201 0 .421.3463.571.7684.333z" fill="url(#bQ)"/><path d="m19.7117 140.505 20.6748-11.606c.422-.237.7683-.778.7683-1.2s-.3463-.572-.7683-.334l-20.6748 11.607c-.422.237-.7683.778-.7683 1.199 0 .423.3463.571.7683.334z" fill="url(#bR)"/><path d="m50.7199 147.942 1.8938-24.789c0-1.003-2.4741-2.454-3.8553-1.633l-18.6145 11.053c-.4545.27-1.392-.237-1.8302-.54l-2.2158-1.243c-.2692-.181-.5839-.284-.9084-.296-.3246-.013-.6462.066-.9286.226l-10.9433 6.196c-.4113.234-.7531.573-.9907.982s-.3625.874-.3621 1.346v30.06c0 1.778 2.8556 3.091 3.7525 2.576l33.7513-21.785c.3793-.218.6945-.532.9142-.91.2196-.378.3358-.806.3371-1.243z" fill="url(#bS)"/><path d="m52.9371 149.186v-25.311c.0003-.229-.0601-.453-.175-.65-.1149-.198-.2802-.361-.4791-.474-.1988-.113-.4241-.171-.6528-.169-.2287.003-.4527.065-.6491.183l-18.6146 11.052c-.2228.133-.4786.199-.7377.192s-.5108-.088-.7259-.232l-2.5837-1.737c-.2692-.181-.5836-.283-.9078-.296-.3242-.012-.6455.066-.9278.226l-10.9434 6.197c-.4113.234-.7532.572-.9908.981s-.3625.873-.3619 1.346v30.06c.0019.235.0652.465.1836.668.1184.204.2878.372.4914.49.2037.118.4346.18.6699.182.2354.001.467-.059.672-.174l35.4815-20.374c.3802-.219.6961-.534.9158-.913s.3354-.809.3354-1.247z" fill="url(#bT)"/><path d="m31.3852 134.016c.2149.144.4664.225.7252.232.2589.007.5145-.059.737-.191l18.6146-11.053c.1457-.088.3076-.146.476-.17.1685-.025.3401-.015.5048.028-.2048-.163-.4546-.26-.7159-.277-.2614-.018-.5218.045-.7464.18l-18.6146 11.053c-.1599.093-.3372.154-.5211.177s-.3707.009-.5489-.042z" fill="url(#bV)"/><path d="m14.6652 170.795v-30.06c-.0006-.473.1243-.938.3619-1.347s.5794-.748.9908-.982l10.9434-6.196c.2092-.118.4408-.192.6801-.217s.4812 0 .7104.073l-.0365-.026c-.2692-.181-.5836-.283-.9078-.296-.3242-.012-.6455.066-.9278.226l-10.9434 6.197c-.4113.234-.7532.572-.9908.981s-.3625.873-.3619 1.346v30.06c-.0009.297.0971.586.2785.821.1815.235.4361.404.7239.479-.1631-.125-.295-.285-.3854-.469-.0904-.183-.1368-.386-.1354-.59z" fill="url(#bW)"/></g></svg>