<svg fill="none" height="207" viewBox="0 0 294 207" width="294" xmlns="http://www.w3.org/2000/svg" xmlns:xlink="http://www.w3.org/1999/xlink"><linearGradient id="a"><stop offset="0" stop-color="#067431"/><stop offset="1" stop-color="#2e9f5a"/></linearGradient><linearGradient id="b" gradientUnits="userSpaceOnUse" x1="102.348" x2="147.937" xlink:href="#a" y1="55.9877" y2="163.134"/><linearGradient id="c"><stop offset="0" stop-color="#dbedeb"/><stop offset="1" stop-color="#d2cdd8"/></linearGradient><linearGradient id="d" gradientUnits="userSpaceOnUse" x1="88.9964" x2="232.19" xlink:href="#c" y1="152.203" y2="120.318"/><linearGradient id="e"><stop offset="0" stop-color="#ffc444"/><stop offset="1" stop-color="#f36f56"/></linearGradient><linearGradient id="f" gradientUnits="userSpaceOnUse" x1="86.0886" x2="79.9691" xlink:href="#e" y1="96.3799" y2="107.893"/><linearGradient id="g" gradientUnits="userSpaceOnUse" x1="99.2371" x2="87.5875" xlink:href="#e" y1="91.2674" y2="104.975"/><linearGradient id="h" gradientUnits="userSpaceOnUse" x1="112.386" x2="96.4871" xlink:href="#e" y1="86.3374" y2="100.08"/><linearGradient id="i" gradientUnits="userSpaceOnUse" x1="125.533" x2="106.229" xlink:href="#e" y1="80.6773" y2="93.4675"/><linearGradient id="j" gradientUnits="userSpaceOnUse" x1="138.68" x2="125.722" xlink:href="#e" y1="89.8984" y2="103.756"/><linearGradient id="k"><stop offset="0" stop-color="#f8db8b"/><stop offset="1" stop-color="#68b790"/></linearGradient><linearGradient id="l" gradientUnits="userSpaceOnUse" x1="77.1014" x2="86.7121" xlink:href="#k" y1="123.773" y2="126.862"/><linearGradient id="m" gradientUnits="userSpaceOnUse" x1="82.3295" x2="95.1001" xlink:href="#k" y1="123.773" y2="150.708"/><linearGradient id="n" gradientUnits="userSpaceOnUse" x1="77.1014" x2="86.7121" xlink:href="#k" y1="128.642" y2="131.731"/><linearGradient id="o" gradientUnits="userSpaceOnUse" x1="82.3295" x2="95.1002" xlink:href="#k" y1="128.642" y2="155.577"/><linearGradient id="p" gradientUnits="userSpaceOnUse" x1="77.1014" x2="86.7121" xlink:href="#k" y1="133.511" y2="136.6"/><linearGradient id="q" gradientUnits="userSpaceOnUse" x1="82.3295" x2="95.1001" xlink:href="#k" y1="133.511" y2="160.447"/><linearGradient id="r" gradientUnits="userSpaceOnUse" x1="77.1014" x2="86.7121" xlink:href="#k" y1="138.381" y2="141.47"/><linearGradient id="s" gradientUnits="userSpaceOnUse" x1="82.3295" x2="95.1001" xlink:href="#k" y1="138.381" y2="165.317"/><linearGradient id="t" gradientUnits="userSpaceOnUse" x1="77.1014" x2="86.7121" xlink:href="#k" y1="143.251" y2="146.34"/><linearGradient id="u" gradientUnits="userSpaceOnUse" x1="82.3295" x2="95.1001" xlink:href="#k" y1="143.251" y2="170.186"/><linearGradient id="v" gradientUnits="userSpaceOnUse" x1="169.739" x2="220.269" xlink:href="#c" y1="106.681" y2="97.0211"/><linearGradient id="w" gradientUnits="userSpaceOnUse" x1="169.913" x2="170.168" xlink:href="#c" y1="75.0939" y2="71.4599"/><linearGradient id="x" gradientUnits="userSpaceOnUse" x1="169.913" x2="170.168" xlink:href="#c" y1="79.6176" y2="75.9837"/><linearGradient id="y" gradientUnits="userSpaceOnUse" x1="169.913" x2="170.168" xlink:href="#c" y1="84.1423" y2="80.5083"/><linearGradient id="z" gradientUnits="userSpaceOnUse" x1="169.913" x2="170.168" xlink:href="#c" y1="88.666" y2="85.032"/><linearGradient id="A" gradientUnits="userSpaceOnUse" x1="169.913" x2="170.168" xlink:href="#c" y1="93.1911" y2="89.5572"/><linearGradient id="B" gradientUnits="userSpaceOnUse" x1="169.913" x2="170.168" xlink:href="#c" y1="97.7145" y2="94.0806"/><linearGradient id="C" gradientUnits="userSpaceOnUse" x1="169.913" x2="170.168" xlink:href="#c" y1="102.238" y2="98.604"/><linearGradient id="D" gradientUnits="userSpaceOnUse" x1="166.942" x2="167.414" xlink:href="#c" y1="106.432" y2="106.432"/><linearGradient id="E" gradientUnits="userSpaceOnUse" x1="172.4" x2="172.872" xlink:href="#c" y1="106.432" y2="106.432"/><linearGradient id="F" gradientUnits="userSpaceOnUse" x1="177.859" x2="178.331" xlink:href="#c" y1="106.432" y2="106.432"/><linearGradient id="G" gradientUnits="userSpaceOnUse" x1="183.317" x2="183.789" xlink:href="#c" y1="106.432" y2="106.432"/><linearGradient id="H" gradientUnits="userSpaceOnUse" x1="188.778" x2="189.25" xlink:href="#c" y1="106.432" y2="106.432"/><linearGradient id="I" gradientUnits="userSpaceOnUse" x1="194.235" x2="194.707" xlink:href="#c" y1="106.432" y2="106.432"/><linearGradient id="J" gradientUnits="userSpaceOnUse" x1="199.695" x2="200.167" xlink:href="#c" y1="106.432" y2="106.432"/><linearGradient id="K" gradientUnits="userSpaceOnUse" x1="205.154" x2="205.626" xlink:href="#c" y1="106.432" y2="106.432"/><linearGradient id="L" gradientUnits="userSpaceOnUse" x1="210.613" x2="211.085" xlink:href="#c" y1="106.432" y2="106.432"/><linearGradient id="M" gradientUnits="userSpaceOnUse" x1="156.307" x2="161.44" xlink:href="#k" y1="69.7294" y2="71.2176"/><linearGradient id="N" gradientUnits="userSpaceOnUse" x1="156.307" x2="161.44" xlink:href="#k" y1="74.8073" y2="76.2955"/><linearGradient id="O" gradientUnits="userSpaceOnUse" x1="156.307" x2="161.44" xlink:href="#k" y1="79.8839" y2="81.3721"/><linearGradient id="P" gradientUnits="userSpaceOnUse" x1="156.307" x2="161.44" xlink:href="#k" y1="84.9615" y2="86.4498"/><linearGradient id="Q" gradientUnits="userSpaceOnUse" x1="156.307" x2="161.44" xlink:href="#k" y1="90.0394" y2="91.5277"/><linearGradient id="R" gradientUnits="userSpaceOnUse" x1="156.307" x2="161.44" xlink:href="#k" y1="95.1171" y2="96.6053"/><linearGradient id="S" gradientUnits="userSpaceOnUse" x1="156.307" x2="161.44" xlink:href="#k" y1="100.195" y2="101.683"/><linearGradient id="T" gradientUnits="userSpaceOnUse" x1="204.186" x2="198.747" xlink:href="#e" y1="79.6035" y2="109.438"/><linearGradient id="U" gradientUnits="userSpaceOnUse" x1="175.172" x2="178.376" xlink:href="#a" y1="86.8392" y2="104.428"/><linearGradient id="V" gradientUnits="userSpaceOnUse" x1="164.414" x2="185.423" xlink:href="#c" y1="138.448" y2="135.526"/><linearGradient id="W" gradientUnits="userSpaceOnUse" x1="180.839" x2="175.492" xlink:href="#e" y1="123.773" y2="136.25"/><linearGradient id="X" gradientUnits="userSpaceOnUse" x1="174.684" x2="180.34" xlink:href="#a" y1="128.816" y2="137.348"/><linearGradient id="Y" gradientUnits="userSpaceOnUse" x1="195.737" x2="216.745" xlink:href="#c" y1="138.447" y2="135.526"/><linearGradient id="Z" gradientUnits="userSpaceOnUse" x1="197.734" x2="190.685" xlink:href="#e" y1="123.773" y2="133.358"/><linearGradient id="aa" gradientUnits="userSpaceOnUse" x1="195.938" x2="199.697" xlink:href="#a" y1="131.278" y2="138.424"/><linearGradient id="ab" gradientUnits="userSpaceOnUse" x1="185.8" x2="185.497" xlink:href="#e" y1="144.743" y2="147.55"/><linearGradient id="ac" gradientUnits="userSpaceOnUse" x1="80.8286" x2="89.2615" xlink:href="#c" y1="71.5925" y2="61.979"/><linearGradient id="ad" gradientUnits="userSpaceOnUse" x1="79.9699" x2="88.197" xlink:href="#c" y1="77.8235" y2="71.476"/><linearGradient id="ae" gradientUnits="userSpaceOnUse" x1="159.531" x2="166.166" xlink:href="#c" y1="114.003" y2="110.818"/><linearGradient id="af" gradientUnits="userSpaceOnUse" x1="213.729" x2="213.426" xlink:href="#e" y1="144.743" y2="147.55"/><linearGradient id="ag" gradientUnits="userSpaceOnUse" x1="187.461" x2="194.097" xlink:href="#c" y1="114.003" y2="110.818"/><linearGradient id="ah" gradientUnits="userSpaceOnUse" x1="75.0545" x2="78.9079" y1="53.1649" y2="53.1649"><stop offset="0" stop-color="#fff"/><stop offset="1" stop-color="#dfe2f3"/></linearGradient><linearGradient id="ai" gradientUnits="userSpaceOnUse" x1="81.9036" x2="86.7757" xlink:href="#k" y1="53.064" y2="53.5463"/><linearGradient id="aj" gradientUnits="userSpaceOnUse" x1="89.1722" x2="94.0443" xlink:href="#k" y1="53.064" y2="53.5463"/><linearGradient id="ak" gradientUnits="userSpaceOnUse" x1="142.54" x2="100.543" xlink:href="#a" y1="10.558" y2="46.9942"/><linearGradient id="al"><stop offset="0" stop-color="#f6fbfd"/><stop offset="1" stop-color="#fff"/></linearGradient><linearGradient id="am" gradientUnits="userSpaceOnUse" x1="116.248" x2="116.248" xlink:href="#al" y1="1.646" y2="41.333"/><linearGradient id="an" gradientUnits="userSpaceOnUse" x1="103.092" x2="143.167" xlink:href="#c" y1="39.0823" y2="32.1694"/><linearGradient id="ao" gradientUnits="userSpaceOnUse" x1="103.231" x2="103.478" xlink:href="#c" y1="11.5038" y2="8.33086"/><linearGradient id="ap" gradientUnits="userSpaceOnUse" x1="103.231" x2="103.478" xlink:href="#c" y1="15.4535" y2="12.2806"/><linearGradient id="aq" gradientUnits="userSpaceOnUse" x1="103.231" x2="103.478" xlink:href="#c" y1="19.4041" y2="16.2313"/><linearGradient id="ar" gradientUnits="userSpaceOnUse" x1="103.231" x2="103.478" xlink:href="#c" y1="23.3536" y2="20.1807"/><linearGradient id="as" gradientUnits="userSpaceOnUse" x1="103.231" x2="103.478" xlink:href="#c" y1="27.3043" y2="24.1314"/><linearGradient id="at" gradientUnits="userSpaceOnUse" x1="103.231" x2="103.478" xlink:href="#c" y1="31.255" y2="28.0821"/><linearGradient id="au" gradientUnits="userSpaceOnUse" x1="103.231" x2="103.478" xlink:href="#c" y1="35.2044" y2="32.0315"/><linearGradient id="av" gradientUnits="userSpaceOnUse" x1="100.89" x2="101.26" xlink:href="#c" y1="38.8657" y2="38.8651"/><linearGradient id="aw" gradientUnits="userSpaceOnUse" x1="105.19" x2="105.561" xlink:href="#c" y1="38.8657" y2="38.8651"/><linearGradient id="ax" gradientUnits="userSpaceOnUse" x1="109.491" x2="109.862" xlink:href="#c" y1="38.8657" y2="38.8651"/><linearGradient id="ay" gradientUnits="userSpaceOnUse" x1="113.792" x2="114.162" xlink:href="#c" y1="38.8657" y2="38.8651"/><linearGradient id="az" gradientUnits="userSpaceOnUse" x1="118.094" x2="118.464" xlink:href="#c" y1="38.8657" y2="38.8651"/><linearGradient id="aA" gradientUnits="userSpaceOnUse" x1="122.394" x2="122.764" xlink:href="#c" y1="38.8657" y2="38.8651"/><linearGradient id="aB" gradientUnits="userSpaceOnUse" x1="126.695" x2="127.066" xlink:href="#c" y1="38.8657" y2="38.8651"/><linearGradient id="aC" gradientUnits="userSpaceOnUse" x1="130.996" x2="131.367" xlink:href="#c" y1="38.8657" y2="38.8651"/><linearGradient id="aD" gradientUnits="userSpaceOnUse" x1="135.297" x2="135.667" xlink:href="#c" y1="38.8657" y2="38.8651"/><linearGradient id="aE" gradientUnits="userSpaceOnUse" x1="93.3463" x2="96.2751" xlink:href="#c" y1="7.43913" y2="6.29469"/><linearGradient id="aF" gradientUnits="userSpaceOnUse" x1="93.3463" x2="96.2751" xlink:href="#c" y1="11.8732" y2="10.7288"/><linearGradient id="aG" gradientUnits="userSpaceOnUse" x1="93.3463" x2="96.2751" xlink:href="#c" y1="16.3063" y2="15.1619"/><linearGradient id="aH" gradientUnits="userSpaceOnUse" x1="93.3463" x2="96.2751" xlink:href="#c" y1="20.7394" y2="19.595"/><linearGradient id="aI" gradientUnits="userSpaceOnUse" x1="93.3463" x2="96.2751" xlink:href="#c" y1="25.1725" y2="24.0281"/><linearGradient id="aJ" gradientUnits="userSpaceOnUse" x1="93.3463" x2="96.2751" xlink:href="#c" y1="29.6066" y2="28.4622"/><linearGradient id="aK" gradientUnits="userSpaceOnUse" x1="93.3463" x2="96.2751" xlink:href="#c" y1="34.0397" y2="32.8953"/><linearGradient id="aL" gradientUnits="userSpaceOnUse" x1="97.5195" x2="139.578" y1="20.07" y2="20.07"><stop offset="0" stop-color="#fdae6e"/><stop offset=".99" stop-color="#fe5a71"/></linearGradient><linearGradient id="aM" gradientUnits="userSpaceOnUse" x1="169.999" x2="224.334" y1="25.5409" y2="25.5409"><stop offset="0" stop-color="#31a25d"/><stop offset="1" stop-color="#006d2c"/></linearGradient><linearGradient id="aN" gradientUnits="userSpaceOnUse" x1="197.159" x2="197.159" xlink:href="#al" y1="7.21313" y2="41.8447"/><linearGradient id="aO" gradientUnits="userSpaceOnUse" x1="185.683" x2="220.649" xlink:href="#c" y1="39.88" y2="33.8487"/><linearGradient id="aP" gradientUnits="userSpaceOnUse" x1="185.801" x2="186.017" xlink:href="#c" y1="15.8156" y2="13.048"/><linearGradient id="aQ" gradientUnits="userSpaceOnUse" x1="185.801" x2="186.017" xlink:href="#c" y1="19.2617" y2="16.494"/><linearGradient id="aR" gradientUnits="userSpaceOnUse" x1="185.801" x2="186.017" xlink:href="#c" y1="22.709" y2="19.9413"/><linearGradient id="aS" gradientUnits="userSpaceOnUse" x1="185.801" x2="186.017" xlink:href="#c" y1="26.156" y2="23.3883"/><linearGradient id="aT" gradientUnits="userSpaceOnUse" x1="185.801" x2="186.017" xlink:href="#c" y1="29.6032" y2="26.8356"/><linearGradient id="aU" gradientUnits="userSpaceOnUse" x1="185.801" x2="186.017" xlink:href="#c" y1="33.0503" y2="30.2826"/><linearGradient id="aV" gradientUnits="userSpaceOnUse" x1="185.801" x2="186.017" xlink:href="#c" y1="36.4963" y2="33.7286"/><linearGradient id="aW" gradientUnits="userSpaceOnUse" x1="183.758" x2="184.082" xlink:href="#c" y1="39.6917" y2="39.6912"/><linearGradient id="aX" gradientUnits="userSpaceOnUse" x1="187.51" x2="187.834" xlink:href="#c" y1="39.6917" y2="39.6912"/><linearGradient id="aY" gradientUnits="userSpaceOnUse" x1="191.263" x2="191.587" xlink:href="#c" y1="39.6917" y2="39.6912"/><linearGradient id="aZ" gradientUnits="userSpaceOnUse" x1="195.016" x2="195.34" xlink:href="#c" y1="39.6917" y2="39.6912"/><linearGradient id="a0" gradientUnits="userSpaceOnUse" x1="198.77" x2="199.094" xlink:href="#c" y1="39.6917" y2="39.6912"/><linearGradient id="a1" gradientUnits="userSpaceOnUse" x1="202.522" x2="202.846" xlink:href="#c" y1="39.6917" y2="39.6912"/><linearGradient id="a2" gradientUnits="userSpaceOnUse" x1="206.276" x2="206.6" xlink:href="#c" y1="39.6917" y2="39.6912"/><linearGradient id="a3" gradientUnits="userSpaceOnUse" x1="210.03" x2="210.354" xlink:href="#c" y1="39.6917" y2="39.6912"/><linearGradient id="a4" gradientUnits="userSpaceOnUse" x1="213.782" x2="214.106" xlink:href="#c" y1="39.6917" y2="39.6912"/><linearGradient id="a5" gradientUnits="userSpaceOnUse" x1="177.175" x2="179.73" xlink:href="#c" y1="12.2685" y2="11.2701"/><linearGradient id="a6" gradientUnits="userSpaceOnUse" x1="177.175" x2="179.73" xlink:href="#c" y1="16.1369" y2="15.1385"/><linearGradient id="a7" gradientUnits="userSpaceOnUse" x1="176.445" x2="180.025" xlink:href="#k" y1="19.4656" y2="20.4024"/><linearGradient id="a8" gradientUnits="userSpaceOnUse" x1="176.445" x2="180.025" xlink:href="#k" y1="23.334" y2="24.2708"/><linearGradient id="a9" gradientUnits="userSpaceOnUse" x1="177.175" x2="179.73" xlink:href="#c" y1="27.7431" y2="26.7447"/><linearGradient id="ba" gradientUnits="userSpaceOnUse" x1="177.175" x2="179.73" xlink:href="#c" y1="31.6115" y2="30.6131"/><linearGradient id="bb" gradientUnits="userSpaceOnUse" x1="177.175" x2="179.73" xlink:href="#c" y1="35.4811" y2="34.4827"/><linearGradient id="bc" gradientUnits="userSpaceOnUse" x1="191.471" x2="212.48" xlink:href="#c" y1="36.2233" y2="33.3023"/><linearGradient id="bd" gradientUnits="userSpaceOnUse" x1="207.897" x2="202.55" xlink:href="#e" y1="21.5487" y2="34.0243"/><linearGradient id="be" gradientUnits="userSpaceOnUse" x1="201.741" x2="207.396" xlink:href="#a" y1="26.5952" y2="35.1261"/><linearGradient id="bf" gradientUnits="userSpaceOnUse" x1="50.6442" x2="-6.70969" xlink:href="#e" y1="79.8481" y2="153.642"/><linearGradient id="bg"><stop offset="0" stop-color="#fbffff"/><stop offset="1" stop-color="#bcc2e6"/></linearGradient><linearGradient id="bh" gradientUnits="userSpaceOnUse" x1="24.3673" x2="50.2083" xlink:href="#bg" y1="76.1739" y2="76.1739"/><linearGradient id="bi" gradientUnits="userSpaceOnUse" x1="30.2186" x2="21.8554" xlink:href="#e" y1="71.1544" y2="82.5274"/><linearGradient id="bj" gradientUnits="userSpaceOnUse" x1="28.0872" x2="32.5521" xlink:href="#a" y1="80.0515" y2="88.5336"/><linearGradient id="bk" gradientUnits="userSpaceOnUse" x1="23.2187" x2="29.3125" xlink:href="#a" y1="126.441" y2="129.902"/><linearGradient id="bl" gradientUnits="userSpaceOnUse" x1="29.6777" x2="36.8341" xlink:href="#a" y1="119.814" y2="122.356"/><linearGradient id="bm" gradientUnits="userSpaceOnUse" x1="36.1367" x2="43.6822" xlink:href="#a" y1="113.423" y2="115.392"/><linearGradient id="bn" gradientUnits="userSpaceOnUse" x1="42.5957" x2="50.345" xlink:href="#a" y1="106.086" y2="107.636"/><linearGradient id="bo" gradientUnits="userSpaceOnUse" x1="49.0556" x2="56.3543" xlink:href="#a" y1="118.039" y2="120.395"/><linearGradient id="bp" gradientUnits="userSpaceOnUse" x1="55.2944" x2="19.2802" xlink:href="#bg" y1="25.9337" y2="25.9337"/><linearGradient id="bq" gradientUnits="userSpaceOnUse" x1="33.2741" x2="24.4318" xlink:href="#e" y1="18.9383" y2="39.5706"/><linearGradient id="br" gradientUnits="userSpaceOnUse" x1="24.7089" x2="34.0618" xlink:href="#a" y1="27.2787" y2="41.3875"/><linearGradient id="bs" gradientUnits="userSpaceOnUse" x1="106.752" x2="80.001" xlink:href="#a" y1="158.754" y2="203.503"/><linearGradient id="bt" gradientUnits="userSpaceOnUse" x1="40.4607" x2="110.947" xlink:href="#c" y1="181.776" y2="154.873"/><linearGradient id="bu" gradientUnits="userSpaceOnUse" x1="72.1265" x2="72.1265" xlink:href="#bg" y1="158.151" y2="159.744"/><linearGradient id="bv" gradientUnits="userSpaceOnUse" x1="60.7318" x2="70.6764" xlink:href="#k" y1="163.163" y2="182.098"/><linearGradient id="bw" gradientUnits="userSpaceOnUse" x1="82.6636" x2="82.6636" xlink:href="#bg" y1="166.583" y2="168.176"/><linearGradient id="bx" gradientUnits="userSpaceOnUse" x1="60.7318" x2="70.6764" xlink:href="#k" y1="171.594" y2="190.53"/><linearGradient id="by" gradientUnits="userSpaceOnUse" x1="60.7318" x2="70.6764" xlink:href="#k" y1="175.811" y2="194.747"/><linearGradient id="bz" gradientUnits="userSpaceOnUse" x1="51.2144" x2="44.232" xlink:href="#e" y1="163.842" y2="181.822"/><linearGradient id="bA" gradientUnits="userSpaceOnUse" x1="73.3692" x2="86.6742" xlink:href="#c" y1="48.2638" y2="47.3105"/><linearGradient id="bB" gradientUnits="userSpaceOnUse" x1="150.41" x2="171.991" xlink:href="#c" y1="38.1223" y2="34.2469"/><linearGradient id="bC" gradientUnits="userSpaceOnUse" x1="2.59839" x2="21.5269" xlink:href="#c" y1="89.8566" y2="89.0919"/><linearGradient id="bD" gradientUnits="userSpaceOnUse" x1="233.651" x2="300.529" xlink:href="#c" y1="85.1859" y2="75.7944"/><linearGradient id="bE" gradientUnits="userSpaceOnUse" x1="117.452" x2="144.823" xlink:href="#c" y1="168.134" y2="160.408"/><linearGradient id="bF" gradientUnits="userSpaceOnUse" x1="3.70756" x2="30.6544" xlink:href="#c" y1="169.229" y2="167.517"/><linearGradient id="bG" gradientUnits="userSpaceOnUse" x1="234.518" x2="282.593" y1="102.991" y2="102.991"><stop offset="0" stop-color="#007e33"/><stop offset="1" stop-color="#55b079"/></linearGradient><linearGradient id="bH" gradientUnits="userSpaceOnUse" x1="258.552" x2="258.552" y1="57.6453" y2="146.714"><stop offset="0" stop-color="#fbffff"/><stop offset="1" stop-color="#dee4f3"/></linearGradient><linearGradient id="bI" gradientUnits="userSpaceOnUse" x1="255.966" x2="266.48" xlink:href="#k" y1="65.1237" y2="74.6452"/><linearGradient id="bJ" gradientUnits="userSpaceOnUse" x1="255.966" x2="266.48" xlink:href="#k" y1="68.6578" y2="78.1794"/><linearGradient id="bK" gradientUnits="userSpaceOnUse" x1="255.966" x2="266.48" xlink:href="#k" y1="72.1932" y2="81.7148"/><linearGradient id="bL" gradientUnits="userSpaceOnUse" x1="240.645" x2="249.771" xlink:href="#k" y1="75.7274" y2="91.6148"/><linearGradient id="bM" gradientUnits="userSpaceOnUse" x1="240.645" x2="249.771" xlink:href="#k" y1="79.2616" y2="95.1489"/><linearGradient id="bN" gradientUnits="userSpaceOnUse" x1="240.645" x2="249.771" xlink:href="#k" y1="82.797" y2="98.6843"/><linearGradient id="bO" gradientUnits="userSpaceOnUse" x1="252.406" x2="248.374" xlink:href="#e" y1="65.7868" y2="76.983"/><linearGradient id="bP" gradientUnits="userSpaceOnUse" x1="255.966" x2="266.48" xlink:href="#k" y1="120.076" y2="129.597"/><linearGradient id="bQ" gradientUnits="userSpaceOnUse" x1="255.966" x2="266.48" xlink:href="#k" y1="123.61" y2="133.132"/><linearGradient id="bR" gradientUnits="userSpaceOnUse" x1="255.966" x2="266.48" xlink:href="#k" y1="127.146" y2="136.667"/><linearGradient id="bS" gradientUnits="userSpaceOnUse" x1="240.645" x2="249.771" xlink:href="#k" y1="130.68" y2="146.567"/><linearGradient id="bT" gradientUnits="userSpaceOnUse" x1="240.645" x2="249.771" xlink:href="#k" y1="134.214" y2="150.101"/><linearGradient id="bU" gradientUnits="userSpaceOnUse" x1="240.645" x2="249.771" xlink:href="#k" y1="137.749" y2="153.636"/><linearGradient id="bV" gradientUnits="userSpaceOnUse" x1="246.364" x2="251.666" xlink:href="#a" y1="118.573" y2="127.622"/><linearGradient id="bW" gradientUnits="userSpaceOnUse" x1="244.86" x2="257.429" xlink:href="#c" y1="106.469" y2="104.791"/><linearGradient id="bX" gradientUnits="userSpaceOnUse" x1="254.673" x2="251.253" xlink:href="#e" y1="97.3373" y2="104.999"/><linearGradient id="bY" gradientUnits="userSpaceOnUse" x1="250.995" x2="254.568" xlink:href="#a" y1="100.48" y2="105.654"/><linearGradient id="bZ" gradientUnits="userSpaceOnUse" x1="263.492" x2="268.401" xlink:href="#c" y1="95.4978" y2="90.5068"/><linearGradient id="b0" gradientUnits="userSpaceOnUse" x1="259.026" x2="268.501" xlink:href="#k" y1="97.8196" y2="106.396"/><linearGradient id="b1" gradientUnits="userSpaceOnUse" x1="259.026" x2="268.501" xlink:href="#k" y1="100.845" y2="109.422"/><linearGradient id="b2" gradientUnits="userSpaceOnUse" x1="259.026" x2="268.501" xlink:href="#k" y1="103.871" y2="112.447"/><linearGradient id="b3" gradientUnits="userSpaceOnUse" x1="225.681" x2="235.7" xlink:href="#c" y1="121.564" y2="121.191"/><clipPath id="b4"><path d="m0 0h293.657v207h-293.657z"/></clipPath><g clip-path="url(#b4)"><path d="m221.236 47.7026h-152.8277c-1.6957 0-3.0704 1.3738-3.0704 3.0684v100.832c0 1.695 1.3747 3.069 3.0704 3.069h152.8277c1.696 0 3.071-1.374 3.071-3.069v-100.832c0-1.6946-1.375-3.0684-3.071-3.0684z" fill="url(#b)"/><path d="m218.974 60.6606h-148.3014c-1.2517 0-2.2664 1.014-2.2664 2.2648v87.0126c0 1.251 1.0147 2.265 2.2664 2.265h148.3014c1.251 0 2.266-1.014 2.266-2.265v-87.0126c0-1.2508-1.015-2.2648-2.266-2.2648z" fill="url(#d)"/><g fill="#fff"><path d="m147.555 65.0254h-72.8055c-1.3837 0-2.5054 1.1209-2.5054 2.5036v42.818c0 1.382 1.1217 2.503 2.5054 2.503h72.8055c1.384 0 2.505-1.121 2.505-2.503v-42.818c0-1.3827-1.121-2.5036-2.505-2.5036z"/><path d="m218.877 65.0254h-65.07c-.09 0-.162.0727-.162.1623v85.2923c0 .089.072.162.162.162h65.07c.09 0 .163-.073.163-.162v-85.2923c0-.0896-.073-.1623-.163-.1623z"/><path d="m149.898 117.559h-77.4914c-.0897 0-.1625.072-.1625.162v32.759c0 .089.0728.162.1625.162h77.4914c.09 0 .162-.073.162-.162v-32.759c0-.09-.072-.162-.162-.162z"/></g><path d="m88.0374 92.9214h-8.7698v11.9956h8.7698z" fill="url(#f)"/><path d="m101.186 85.7378h-8.77v19.1792h8.77z" fill="url(#g)"/><path d="m114.334 78.8105h-8.77v26.1065h8.77z" fill="url(#h)"/><path d="m127.482 70.8574h-8.77v34.0596h8.77z" fill="url(#i)"/><path d="m140.629 83.8142h-8.77v21.1028h8.77z" fill="url(#j)"/><path d="m86.24 122.686h-8.1659c-.0377 0-.0682.031-.0682.068v2.171c0 .038.0305.068.0682.068h8.1659c.0377 0 .0683-.03.0683-.068v-2.171c0-.037-.0306-.068-.0683-.068z" fill="url(#l)"/><path d="m142.679 122.686h-54.3461c-.0377 0-.0683.031-.0683.068v2.171c0 .038.0306.068.0683.068h54.3461c.038 0 .068-.03.068-.068v-2.171c0-.037-.03-.068-.068-.068z" fill="url(#m)"/><path d="m86.24 127.555h-8.1659c-.0377 0-.0682.031-.0682.068v2.171c0 .038.0305.068.0682.068h8.1659c.0377 0 .0683-.03.0683-.068v-2.171c0-.037-.0306-.068-.0683-.068z" fill="url(#n)"/><path d="m142.679 127.555h-54.3461c-.0377 0-.0683.031-.0683.068v2.171c0 .038.0306.068.0683.068h54.3461c.038 0 .068-.03.068-.068v-2.171c0-.037-.03-.068-.068-.068z" fill="url(#o)"/><path d="m86.24 132.425h-8.1659c-.0377 0-.0682.03-.0682.068v2.171c0 .037.0305.068.0682.068h8.1659c.0377 0 .0683-.031.0683-.068v-2.171c0-.038-.0306-.068-.0683-.068z" fill="url(#p)"/><path d="m142.679 132.425h-54.3461c-.0377 0-.0683.03-.0683.068v2.171c0 .037.0306.068.0683.068h54.3461c.038 0 .068-.031.068-.068v-2.171c0-.038-.03-.068-.068-.068z" fill="url(#q)"/><path d="m86.24 137.294h-8.1659c-.0377 0-.0682.031-.0682.069v2.17c0 .038.0305.069.0682.069h8.1659c.0377 0 .0683-.031.0683-.069v-2.17c0-.038-.0306-.069-.0683-.069z" fill="url(#r)"/><path d="m142.679 137.294h-54.3461c-.0377 0-.0683.031-.0683.069v2.17c0 .038.0306.069.0683.069h54.3461c.038 0 .068-.031.068-.069v-2.17c0-.038-.03-.069-.068-.069z" fill="url(#s)"/><path d="m86.24 142.164h-8.1659c-.0377 0-.0682.031-.0682.068v2.171c0 .038.0305.068.0682.068h8.1659c.0377 0 .0683-.03.0683-.068v-2.171c0-.037-.0306-.068-.0683-.068z" fill="url(#t)"/><path d="m142.679 142.164h-54.3461c-.0377 0-.0683.031-.0683.068v2.171c0 .038.0306.068.0683.068h54.3461c.038 0 .068-.03.068-.068v-2.171c0-.037-.03-.068-.068-.068z" fill="url(#u)"/><path d="m215.825 106.681h-53.262v-37.1615h53.262zm-52.782-.496h52.306v-36.1702h-52.306z" fill="url(#v)"/><path d="m215.585 74.5986h-52.783v.4953h52.783z" fill="url(#w)"/><path d="m215.585 79.1223h-52.783v.4953h52.783z" fill="url(#x)"/><path d="m215.585 83.647h-52.783v.4953h52.783z" fill="url(#y)"/><path d="m215.585 88.1707h-52.783v.4953h52.783z" fill="url(#z)"/><path d="m215.585 92.6958h-52.783v.4953h52.783z" fill="url(#A)"/><path d="m215.585 97.2192h-52.783v.4953h52.783z" fill="url(#B)"/><path d="m215.585 101.743h-52.783v.495h52.783z" fill="url(#C)"/><path d="m167.357 69.7678h-.479v36.6642h.479z" fill="url(#D)"/><path d="m172.815 69.7678h-.479v36.6642h.479z" fill="url(#E)"/><path d="m178.274 69.7678h-.479v36.6642h.479z" fill="url(#F)"/><path d="m183.732 69.7678h-.479v36.6642h.479z" fill="url(#G)"/><path d="m189.193 69.7678h-.479v36.6642h.479z" fill="url(#H)"/><path d="m194.65 69.7678h-.479v36.6642h.479z" fill="url(#I)"/><path d="m200.11 69.7678h-.479v36.6642h.479z" fill="url(#J)"/><path d="m205.569 69.7678h-.479v36.6642h.479z" fill="url(#K)"/><path d="m211.028 69.7678h-.479v36.6642h.479z" fill="url(#L)"/><path d="m161.098 69.0972h-4.277c-.022 0-.04.0179-.04.04v1.2624c0 .0221.018.04.04.04h4.277c.023 0 .04-.0179.04-.04v-1.2624c0-.0221-.017-.04-.04-.04z" fill="url(#M)"/><path d="m161.098 74.175h-4.277c-.022 0-.04.018-.04.0401v1.2623c0 .0221.018.04.04.04h4.277c.023 0 .04-.0179.04-.04v-1.2623c0-.0221-.017-.0401-.04-.0401z" fill="url(#N)"/><path d="m161.098 79.2517h-4.277c-.022 0-.04.0179-.04.04v1.2624c0 .0221.018.04.04.04h4.277c.023 0 .04-.0179.04-.04v-1.2624c0-.0221-.017-.04-.04-.04z" fill="url(#O)"/><path d="m161.098 84.3293h-4.277c-.022 0-.04.018-.04.04v1.2624c0 .0221.018.04.04.04h4.277c.023 0 .04-.0179.04-.04v-1.2624c0-.022-.017-.04-.04-.04z" fill="url(#P)"/><path d="m161.098 89.4072h-4.277c-.022 0-.04.0179-.04.04v1.2624c0 .0221.018.04.04.04h4.277c.023 0 .04-.0179.04-.04v-1.2624c0-.0221-.017-.04-.04-.04z" fill="url(#Q)"/><path d="m161.098 94.4849h-4.277c-.022 0-.04.0179-.04.04v1.2624c0 .022.018.04.04.04h4.277c.023 0 .04-.018.04-.04v-1.2624c0-.0221-.017-.04-.04-.04z" fill="url(#R)"/><path d="m161.098 99.563h-4.277c-.022 0-.04.0179-.04.04v1.262c0 .022.018.04.04.04h4.277c.023 0 .04-.018.04-.04v-1.262c0-.0221-.017-.04-.04-.04z" fill="url(#S)"/><path d="m162.939 97.4264-.273-1.4589 4.316-.8694 5.193-2.3742 5.578-5.3672h5.741l5.101-1.2036 5.477-5.4966 5.724-3.093 10.699-1.1483 4.629-4.0319.924 1.1353-4.966 4.3284-10.998 1.1788-5.244 2.8919-5.53 5.5919-5.659 1.3142-5.331.0176-5.456 5.1919-5.458 2.4742z" fill="url(#T)"/><path d="m178.272 101.011-5.781-.711-9.642.675-.093-1.4828 9.773-.6706 5.266.6353 5.381-5.0072 5.922-.8201 4.909-1.8353 5.618-6.1449 6.125 1.4059 4.966 3.7119 4.366-4.4366 1.006 1.06-5.229 5.3155-5.827-4.3554-4.917-1.0765-5.463 5.8578-5.217 1.933-5.626.7953z" fill="url(#U)"/><path d="m183.257 128.012c.006 1.489-.328 2.959-.976 4.3-1.57 3.344-4.922 5.732-8.887 6.081-.337.037-.676.055-1.015.055-6.014 0-10.899-4.667-10.899-10.436 0-5.77 4.885-10.453 10.899-10.453 2.706-.01 5.322.97 7.355 2.755 2.164 1.911 3.523 4.648 3.523 7.698z" fill="url(#V)"/><path d="m183.257 128.012c.005 1.489-.329 2.959-.976 4.3l-9.905-4.3 7.355-7.698c2.166 1.911 3.526 4.648 3.526 7.698z" fill="url(#W)"/><path d="m182.281 132.312c-1.57 3.343-4.922 5.732-8.887 6.081l-1.015-10.381z" fill="url(#X)"/><path d="m203.681 117.559c-2.706-.01-5.322.97-7.354 2.755-2.164 1.911-3.524 4.648-3.524 7.698-.005 1.489.329 2.959.977 4.3 1.571 3.344 4.922 5.732 8.886 6.081.337.037.676.055 1.015.054 6.015 0 10.899-4.666 10.899-10.435 0-5.77-4.883-10.453-10.899-10.453zm0 16.903c-.211 0-.401-.019-.612-.037h-.019c-2.452-.221-4.521-1.691-5.478-3.748v-.019c-.409-.822-.619-1.728-.613-2.646.002-.903.197-1.795.574-2.616s.926-1.551 1.61-2.142c1.25-1.108 2.867-1.717 4.538-1.708 3.736 0 6.743 2.902 6.743 6.471 0 3.568-3.007 6.445-6.743 6.445z" fill="url(#Y)"/><path d="m196.959 128.012c-.006.918.204 1.824.613 2.646v.019l-3.792 1.635c-.648-1.341-.982-2.811-.977-4.3 0-3.05 1.36-5.787 3.524-7.698l2.816 2.941c-.684.591-1.233 1.321-1.61 2.141-.376.821-.572 1.713-.574 2.616z" fill="url(#Z)"/><path d="m203.05 134.425-.383 3.968c-3.964-.353-7.316-2.738-8.887-6.081l3.791-1.631c.959 2.053 3.027 3.523 5.479 3.744z" fill="url(#aa)"/><path d="m187.577 144.078h-8.166c-.038 0-.068.031-.068.068v2.171c0 .038.03.068.068.068h8.166c.038 0 .068-.03.068-.068v-2.171c0-.037-.03-.068-.068-.068z" fill="url(#ab)"/><path d="m97.8237 69.2854h-19.5835c-.0378 0-.0683.0306-.0683.0682v2.1707c0 .0377.0305.0682.0683.0682h19.5835c.0377 0 .0683-.0305.0683-.0682v-2.1707c0-.0376-.0306-.0682-.0683-.0682z" fill="url(#ac)"/><path d="m91.4497 75.5164h-13.2095c-.0378 0-.0683.0305-.0683.0682v2.1706c0 .0377.0305.0683.0683.0683h13.2095c.0377 0 .0683-.0306.0683-.0683v-2.1706c0-.0377-.0306-.0682-.0683-.0682z" fill="url(#ad)"/><path d="m166.646 111.696h-8.166c-.037 0-.068.031-.068.069v2.17c0 .038.031.068.068.068h8.166c.038 0 .069-.03.069-.068v-2.17c0-.038-.031-.069-.069-.069z" fill="url(#ae)"/><path d="m215.506 144.078h-8.166c-.038 0-.069.031-.069.068v2.171c0 .038.031.068.069.068h8.166c.037 0 .068-.03.068-.068v-2.171c0-.037-.031-.068-.068-.068z" fill="url(#af)"/><path d="m194.577 111.696h-8.166c-.038 0-.068.031-.068.069v2.17c0 .038.03.068.068.068h8.166c.038 0 .068-.03.068-.068v-2.17c0-.038-.03-.069-.068-.069z" fill="url(#ag)"/><path d="m76.9818 54.9026c1.0637 0 1.9261-.778 1.9261-1.7377s-.8624-1.7377-1.9261-1.7377c-1.0638 0-1.9261.778-1.9261 1.7377s.8623 1.7377 1.9261 1.7377z" fill="url(#ah)"/><path d="m84.2493 54.9026c1.0638 0 1.9261-.778 1.9261-1.7377s-.8623-1.7377-1.9261-1.7377c-1.0637 0-1.9261.778-1.9261 1.7377s.8624 1.7377 1.9261 1.7377z" fill="url(#ai)"/><path d="m91.5179 54.9026c1.0638 0 1.9261-.778 1.9261-1.7377s-.8623-1.7377-1.9261-1.7377-1.9261.778-1.9261 1.7377.8623 1.7377 1.9261 1.7377z" fill="url(#aj)"/><path d="m147.359 42.9047v-40.45992c0-1.35021-1.095-2.44478-2.446-2.44478h-57.3297c-1.3512 0-2.4465 1.09457-2.4465 2.44478v40.45992c0 1.3503 1.0953 2.4448 2.4465 2.4448h57.3297c1.351 0 2.446-1.0945 2.446-2.4448z" fill="url(#ak)"/><path d="m144.072 43.7037h-55.6504c-.4342-.0007-.8504-.1735-1.1573-.4805-.3068-.3071-.4791-.7233-.4791-1.1572v-38.78231c0-.43414.1725-.85052.4795-1.15761.3071-.30709.7237-.47977 1.1581-.48008h55.6512c.434 0 .851.17254 1.158.47966.308.30713.48.72368.48 1.15803v38.78231c0 .2151-.042.4282-.124.627-.083.1987-.204.3793-.356.5314s-.333.2727-.532.3549c-.199.0823-.412.1245-.628.1244z" fill="url(#am)"/><path d="m139.403 39.0823h-41.9645v-32.44558h41.9645zm-41.5866-.4329h41.2066v-31.57973h-41.2066z" fill="url(#an)"/><path d="m139.214 11.0708h-41.5861v.433h41.5861z" fill="url(#ao)"/><path d="m139.214 15.0205h-41.5861v.433h41.5861z" fill="url(#ap)"/><path d="m139.214 18.9712h-41.5861v.4329h41.5861z" fill="url(#aq)"/><path d="m139.214 22.9207h-41.5861v.4329h41.5861z" fill="url(#ar)"/><path d="m139.214 26.8713h-41.5861v.433h41.5861z" fill="url(#as)"/><path d="m139.214 30.822h-41.5861v.433h41.5861z" fill="url(#at)"/><path d="m139.214 34.7715h-41.5861v.4329h41.5861z" fill="url(#au)"/><path d="m101.216 6.85303h-.377v32.01267h.377z" fill="url(#av)"/><path d="m105.516 6.85303h-.376v32.01267h.376z" fill="url(#aw)"/><path d="m109.817 6.85303h-.377v32.01267h.377z" fill="url(#ax)"/><path d="m114.118 6.85303h-.377v32.01267h.377z" fill="url(#ay)"/><path d="m118.42 6.85303h-.377v32.01267h.377z" fill="url(#az)"/><path d="m122.72 6.85303h-.377v32.01267h.377z" fill="url(#aA)"/><path d="m127.021 6.85303h-.376v32.01267h.376z" fill="url(#aB)"/><path d="m131.322 6.85303h-.377v32.01267h.377z" fill="url(#aC)"/><path d="m135.623 6.85303h-.377v32.01267h.377z" fill="url(#aD)"/><path d="m96.2768 6.26733h-3.353c-.0221 0-.04.01791-.04.04001v1.09179c0 .02209.0179.04.04.04h3.353c.0221 0 .0401-.01791.0401-.04v-1.09179c0-.0221-.018-.04001-.0401-.04001z" fill="url(#aE)"/><path d="m96.2768 10.7014h-3.353c-.0221 0-.04.0179-.04.04v1.0918c0 .0221.0179.04.04.04h3.353c.0221 0 .0401-.0179.0401-.04v-1.0918c0-.0221-.018-.04-.0401-.04z" fill="url(#aF)"/><path d="m96.2768 15.1345h-3.353c-.0221 0-.04.0179-.04.04v1.0918c0 .0221.0179.04.04.04h3.353c.0221 0 .0401-.0179.0401-.04v-1.0918c0-.0221-.018-.04-.0401-.04z" fill="url(#aG)"/><path d="m96.2768 19.5676h-3.353c-.0221 0-.04.0179-.04.04v1.0918c0 .0221.0179.04.04.04h3.353c.0221 0 .0401-.0179.0401-.04v-1.0918c0-.0221-.018-.04-.0401-.04z" fill="url(#aH)"/><path d="m96.2768 24.0007h-3.353c-.0221 0-.04.0179-.04.04v1.0918c0 .0221.0179.04.04.04h3.353c.0221 0 .0401-.0179.0401-.04v-1.0918c0-.0221-.018-.04-.0401-.04z" fill="url(#aI)"/><path d="m96.2768 28.4348h-3.353c-.0221 0-.04.0179-.04.04v1.0918c0 .0221.0179.04.04.04h3.353c.0221 0 .0401-.0179.0401-.04v-1.0918c0-.0221-.018-.04-.0401-.04z" fill="url(#aJ)"/><path d="m96.2768 32.8679h-3.353c-.0221 0-.04.0179-.04.04v1.0918c0 .0221.0179.04.04.04h3.353c.0221 0 .0401-.0179.0401-.04v-1.0918c0-.0221-.018-.04-.0401-.04z" fill="url(#aK)"/><path d="m97.735 31.002-.2155-1.2729 3.4005-.7589 4.092-2.073 4.394-4.686h4.523l4.021-1.0518 4.314-4.7989 4.51-2.7001 8.429-1.0024 3.648-3.52128.727.99178-3.912 3.7789-8.665 1.0295-4.133 2.5248-4.356 4.8825-4.459 1.1482-4.2.0153-4.298 4.5319-4.301 2.1601z" fill="url(#aL)"/><path d="m170.011 42.7541v-34.38212c0-.68711.272-1.34619.758-1.83271.485-.48653 1.144-.76079 1.832-.76266h49.105c.688 0 1.349.27344 1.836.76017s.761 1.14686.761 1.8352v34.38212c0 .6884-.274 1.3485-.761 1.8352-.487.4868-1.148.7602-1.836.7602h-49.095c-.341.0005-.679-.0663-.995-.1965-.315-.1303-.602-.3214-.843-.5624-.242-.2411-.433-.5273-.564-.8424-.131-.3152-.198-.6529-.198-.9941z" fill="url(#aM)"/><path d="m221.211 43.913h-48.105c-.44 0-.861-.1745-1.172-.4852-.311-.3106-.486-.732-.486-1.1713v-33.38567c0-.21763.043-.43317.126-.63428.083-.20112.205-.38387.359-.53782.154-.15394.337-.27606.538-.35939.201-.08332.417-.12621.635-.12621h48.105c.218 0 .434.04289.635.12621.201.08333.384.20545.538.35939.154.15395.276.3367.359.53782.083.20111.126.41665.126.63428v33.38567c0 .4393-.175.8607-.486 1.1713-.311.3107-.732.4852-1.172.4852z" fill="url(#aN)"/><path d="m217.365 39.88h-36.615v-28.3114h36.615zm-36.29-.3777h35.96v-27.556h-35.96z" fill="url(#aO)"/><path d="m217.202 15.438h-36.29v.3776h36.29z" fill="url(#aP)"/><path d="m217.202 18.884h-36.29v.3777h36.29z" fill="url(#aQ)"/><path d="m217.202 22.3313h-36.29v.3777h36.29z" fill="url(#aR)"/><path d="m217.202 25.7783h-36.29v.3777h36.29z" fill="url(#aS)"/><path d="m217.202 29.2256h-36.29v.3776h36.29z" fill="url(#aT)"/><path d="m217.202 32.6726h-36.29v.3777h36.29z" fill="url(#aU)"/><path d="m217.202 36.1187h-36.29v.3776h36.29z" fill="url(#aV)"/><path d="m184.044 11.7568h-.33v27.9349h.33z" fill="url(#aW)"/><path d="m187.795 11.7568h-.329v27.9349h.329z" fill="url(#aX)"/><path d="m191.548 11.7568h-.329v27.9349h.329z" fill="url(#aY)"/><path d="m195.301 11.7568h-.329v27.9349h.329z" fill="url(#aZ)"/><path d="m199.055 11.7568h-.329v27.9349h.329z" fill="url(#a0)"/><path d="m202.807 11.7568h-.329v27.9349h.329z" fill="url(#a1)"/><path d="m206.561 11.7568h-.33v27.9349h.33z" fill="url(#a2)"/><path d="m210.315 11.7568h-.33v27.9349h.33z" fill="url(#a3)"/><path d="m214.067 11.7568h-.33v27.9349h.33z" fill="url(#a4)"/><path d="m179.727 11.2461h-2.915c-.023 0-.041.0179-.041.04v.9424c0 .0221.018.04.041.04h2.915c.022 0 .04-.0179.04-.04v-.9424c0-.0221-.018-.04-.04-.04z" fill="url(#a5)"/><path d="m179.727 15.1145h-2.915c-.023 0-.041.0179-.041.04v.9424c0 .0221.018.04.041.04h2.915c.022 0 .04-.0179.04-.04v-.9424c0-.0221-.018-.04-.04-.04z" fill="url(#a6)"/><path d="m179.727 18.9841h-2.915c-.023 0-.041.0179-.041.04v.9424c0 .0221.018.04.041.04h2.915c.022 0 .04-.0179.04-.04v-.9424c0-.0221-.018-.04-.04-.04z" fill="url(#a7)"/><path d="m179.727 22.8525h-2.915c-.023 0-.041.0179-.041.04v.9424c0 .0221.018.04.041.04h2.915c.022 0 .04-.0179.04-.04v-.9424c0-.0221-.018-.04-.04-.04z" fill="url(#a8)"/><path d="m179.727 26.7207h-2.915c-.023 0-.041.0179-.041.04v.9424c0 .0221.018.04.041.04h2.915c.022 0 .04-.0179.04-.04v-.9424c0-.0221-.018-.04-.04-.04z" fill="url(#a9)"/><path d="m179.727 30.5891h-2.915c-.023 0-.041.0179-.041.04v.9424c0 .0221.018.04.041.04h2.915c.022 0 .04-.0179.04-.04v-.9424c0-.0221-.018-.04-.04-.04z" fill="url(#ba)"/><path d="m179.727 34.4587h-2.915c-.023 0-.041.0179-.041.04v.9424c0 .0221.018.04.041.04h2.915c.022 0 .04-.0179.04-.04v-.9424c0-.0221-.018-.04-.04-.04z" fill="url(#bb)"/><path d="m210.314 25.7877c.005 1.4885-.329 2.9586-.977 4.299-1.571 3.3436-4.923 5.7319-8.887 6.0813-.337.0366-.675.0551-1.014.0553-6.015 0-10.899-4.6672-10.899-10.4356s4.884-10.4544 10.899-10.4544c2.706-.0095 5.322.971 7.354 2.7566 2.164 1.9106 3.524 4.6472 3.524 7.6978z" fill="url(#bc)"/><path d="m210.314 25.7877c.005 1.4885-.329 2.9586-.977 4.299l-9.901-4.299 7.354-7.6979c2.164 1.9107 3.524 4.6472 3.524 7.6979z" fill="url(#bd)"/><path d="m209.337 30.0902c-1.571 3.3436-4.923 5.7319-8.887 6.0814l-1.014-10.3803z" fill="url(#be)"/><path d="m58.9026 52.1226h-43.2301c-1.34 0-2.4264 1.0856-2.4264 2.4247v91.3157c0 1.339 1.0864 2.425 2.4264 2.425h43.2301c1.3401 0 2.4264-1.086 2.4264-2.425v-91.3157c0-1.3391-1.0863-2.4247-2.4264-2.4247z" fill="url(#bf)"/><path d="m57.6261 57.6453h-40.6764c-1.2731 0-2.3052 1.0313-2.3052 2.3036v84.2291c0 1.273 1.0321 2.304 2.3052 2.304h40.6764c1.2732 0 2.3052-1.031 2.3052-2.304v-84.2291c0-1.2723-1.032-2.3036-2.3052-2.3036z" fill="#fff"/><path d="m37.2766 63.7806c-3.211-.0113-6.3152 1.1516-8.7275 3.2695-2.5677 2.2671-4.1818 5.5155-4.1818 9.1344-.0059 1.7663.3906 3.5109 1.1596 5.1013 1.8637 3.9684 5.8407 6.8025 10.5453 7.2167.4.0436.802.0656 1.2044.0659 7.1357 0 12.9317-5.5378 12.9317-12.3839s-5.796-12.4039-12.9317-12.4039zm0 20.0559c-.2496 0-.4768-.0212-.7276-.0436h-.0224c-2.9091-.2612-5.3639-2-6.5-4.4471v-.0212c-.4846-.9756-.7338-2.051-.7276-3.1401.0021-1.0717.2344-2.1305.6813-3.1048.4468-.9742 1.0978-1.8413 1.9088-2.5424 1.4844-1.3154 3.4023-2.0372 5.3863-2.0272 4.4314 0 7.9999 3.4437 7.9999 7.6732s-3.5673 7.6532-7.9987 7.6532z" fill="url(#bh)"/><path d="m29.299 76.1844c-.0062 1.0892.243 2.1646.7276 3.1401v.0212l-4.4997 1.94c-.769-1.5904-1.1655-3.3349-1.1596-5.1013 0-3.6189 1.6141-6.8672 4.1818-9.1344l3.3412 3.4884c-.8111.7009-1.4622 1.5677-1.9093 2.5417-.447.9741-.6796 2.0327-.682 3.1043z" fill="url(#bi)"/><path d="m36.5261 83.793-.4545 4.706c-4.7093-.4141-8.6815-3.2483-10.5452-7.2167l4.4997-1.94c1.1361 2.4459 3.5908 4.1895 6.5 4.4507z" fill="url(#bj)"/><path d="m26.5236 125.512h-4.3078v11.995h4.3078z" fill="url(#bk)"/><path d="m32.9826 118.328h-4.3078v19.179h4.3078z" fill="url(#bl)"/><path d="m39.4416 111.401h-4.3078v26.107h4.3078z" fill="url(#bm)"/><path d="m45.9006 103.448h-4.3078v34.06h4.3078z" fill="url(#bn)"/><path d="m52.3605 116.404h-4.3078v21.103h4.3078z" fill="url(#bo)"/><path d="m55.4013 142.528h-35.694c-.6413-.001-1.256-.256-1.7093-.709-.4534-.454-.7083-1.068-.7089-1.709v-39.136c.0021-.64.2578-1.2528.711-1.7046s1.067-.7058 1.7072-.7064h35.694c.6406 0 1.2552.2537 1.7091.7055s.7101 1.0645.7126 1.7055v39.136c-.0009.641-.2564 1.256-.7105 1.709-.454.454-1.0695.708-1.7112.709zm-35.694-43.2462c-.4487.0007-.8789.1791-1.196.4963-.3172.3169-.4955.7469-.4958 1.1959v39.136c.0003.448.1786.878.4958 1.196.3171.317.7473.495 1.196.496h35.694c.4488-.001.879-.179 1.1964-.496s.4959-.747.4965-1.196v-39.136c-.0006-.449-.1791-.879-.4965-1.196-.3174-.3171-.7476-.4955-1.1964-.4962z" fill="#364154"/><path d="m19.2813 25.949c-.0084 2.4617.5439 4.893 1.6153 7.1096 2.5972 5.5296 8.14 9.4803 14.6965 10.0579.5576.0601 1.118.0903 1.6789.0906 9.946 0 18.0236-7.7178 18.0236-17.2581s-8.0776-17.28873-18.0236-17.28873c-4.4753-.01597-8.8016 1.60523-12.1629 4.55773-3.5791 3.1601-5.8278 7.6873-5.8278 12.731z" fill="url(#bp)"/><path d="m19.2813 25.949c-.0084 2.4616.5439 4.8929 1.6153 7.1096l16.3754-7.1096-12.1629-12.731c-3.5791 3.1601-5.8278 7.6873-5.8278 12.731z" fill="url(#bq)"/><path d="m20.8965 33.0586c2.5972 5.5296 8.14 9.4803 14.6965 10.0579l1.6788-17.1675z" fill="url(#br)"/><path d="m113.404 180.483v-26.109c0-1.756-1.424-3.179-3.181-3.179h-79.5301c-1.7569 0-3.1812 1.423-3.1812 3.179v26.109c0 1.755 1.4243 3.179 3.1812 3.179h79.5301c1.757 0 3.181-1.424 3.181-3.179z" fill="url(#bs)"/><path d="m108.703 153.08h-76.4917c-1.5541 0-2.8138 1.258-2.8138 2.811v23.073c0 1.553 1.2597 2.812 2.8138 2.812h76.4917c1.554 0 2.814-1.259 2.814-2.812v-23.073c0-1.553-1.26-2.811-2.814-2.811z" fill="url(#bt)"/><path d="m79.5307 158.151h-14.8071c-.0378 0-.0683.031-.0683.069v1.553c0 .037.0305.068.0683.068h14.8071c.0377 0 .0683-.031.0683-.068v-1.553c0-.038-.0306-.069-.0683-.069z" fill="url(#bu)"/><path d="m100.604 162.367h-35.8804c-.0378 0-.0683.031-.0683.068v1.553c0 .038.0305.069.0683.069h35.8804c.037 0 .068-.031.068-.069v-1.553c0-.037-.031-.068-.068-.068z" fill="url(#bv)"/><path d="m100.604 166.583h-35.8804c-.0378 0-.0683.031-.0683.069v1.553c0 .037.0305.068.0683.068h35.8804c.037 0 .068-.031.068-.068v-1.553c0-.038-.031-.069-.068-.069z" fill="url(#bw)"/><path d="m100.604 170.799h-35.8804c-.0378 0-.0683.03-.0683.068v1.553c0 .038.0305.068.0683.068h35.8804c.037 0 .068-.03.068-.068v-1.553c0-.038-.031-.068-.068-.068z" fill="url(#bx)"/><path d="m100.604 175.016h-35.8804c-.0378 0-.0683.03-.0683.068v1.553c0 .038.0305.068.0683.068h35.8804c.037 0 .068-.03.068-.068v-1.553c0-.038-.031-.068-.068-.068z" fill="url(#by)"/><path d="m46.5416 175.805c4.6452 0 8.4108-3.763 8.4108-8.405s-3.7656-8.405-8.4108-8.405c-4.6451 0-8.4107 3.763-8.4107 8.405s3.7656 8.405 8.4107 8.405z" fill="url(#bz)"/><path d="m47.7143 166.615c.4225-.256.7496-.643.9314-1.102s.2082-.965.0753-1.44c-.1329-.476-.4178-.895-.8114-1.193-.3935-.299-.8739-.46-1.3679-.46-.4941 0-.9745.161-1.368.46-.3936.298-.6785.717-.8114 1.193-.1329.475-.1065.981.0753 1.44s.5089.846.9314 1.102c-1.0609.284-1.9823.944-2.5925 1.857s-.8675 2.016-.724 3.105c.1434 1.088.6779 2.087 1.5038 2.811.8259.723 1.8869 1.122 2.9854 1.122 1.0984 0 2.1594-.399 2.9853-1.122.8259-.724 1.3604-1.723 1.5038-2.811.1435-1.089-.1138-2.192-.724-3.105-.6101-.913-1.5315-1.573-2.5925-1.857z" fill="#fff"/><path d="m72.9499 48.2638h-1.4128v-20.5547c.0016-1.263.5047-2.4737 1.399-3.3663.8942-.8925 2.1065-1.3938 3.3703-1.3938h8.8299v1.4118h-8.8299c-.8882.0012-1.7398.3544-2.3679.9821-.6281.6276-.9815 1.4786-.9827 2.3662z" fill="url(#bA)"/><path d="m170.011 38.1223h-12.446c-1.227-.0012-2.403-.4887-3.271-1.3556-.867-.8668-1.355-2.0421-1.356-3.268v-7.4402c-.001-.8876-.354-1.7385-.982-2.3662s-1.48-.9809-2.368-.9822h-2.23v-1.4118h2.23c1.263.0016 2.474.5036 3.366 1.396.893.8924 1.395 2.1023 1.397 3.3642v7.4437c.001.8515.34 1.6677.942 2.2698.603.602 1.42.9408 2.272.9421h12.446z" fill="url(#bB)"/><path d="m13.2458 89.8566h-9.57983c-.97173-.0009-1.90339-.3871-2.59051-1.0737-.687113-.6867-1.07354833-1.6177-1.07448344-2.5887v-56.324c.00093511-.971.38737044-1.9021 1.07448344-2.5887.68712-.6866 1.61878-1.0728 2.59051-1.0737h15.61483v1.4118h-15.61483c-.59713.0006-1.16963.2379-1.59186.6599-.42224.4219-.65973.994-.66035 1.5907v56.324c.00062.5967.23811 1.1688.66035 1.5907.42223.422.99473.6593 1.59186.6599h9.58103z" fill="url(#bC)"/><path d="m288.148 85.1859h-7.257v-1.4118h7.257c2.258 0 4.096-1.6471 4.096-3.6837v-31.9091c0-2.0307-1.838-3.6825-4.096-3.6825h-45.615c-3.05 0-5.522-2.2906-5.522-5.1083v-14.9346c0-2.0542-1.859-3.726-4.143-3.726h-8.56v-1.4118h8.56c3.061 0 5.556 2.3048 5.556 5.1378v14.9346c0 2.0377 1.843 3.6965 4.11 3.6965h45.615c3.037 0 5.509 2.2848 5.509 5.0943v31.9103c-.002 2.8083-2.473 5.0943-5.51 5.0943z" fill="url(#bD)"/><path d="m140.02 168.134h-26.617v-1.412h26.617c.956 0 2.022-1.764 2.022-4.307v-8.48h1.412v8.48c0 3.209-1.509 5.719-3.434 5.719z" fill="url(#bE)"/><path d="m27.5102 169.229h-8.7121c-.9718-.001-1.9034-.387-2.5905-1.073-.6872-.687-1.0736-1.618-1.0745-2.589v-5.163c-.0007-.528-.2109-1.034-.5846-1.407s-.8803-.583-1.4086-.583h-9.47393c-.97163-.002-1.90311-.388-2.59016-1.074-.687055-.687-1.07358735-1.618-1.07483344-2.589v-39.61c.00093456-.971.38733144-1.903 1.07441344-2.589.68709-.687 1.61875-1.074 2.59058-1.075h9.58103v1.412h-9.58103c-.59724.001-1.16973.238-1.59194.661-.4222.422-.65965.994-.66027 1.591v39.61c.00062.597.23811 1.169.66035 1.591.42223.422.99473.659 1.59186.66h9.47743c.9025.002 1.7673.361 2.4056.999.6382.637.9979 1.501 1.0004 2.403v5.163c.0006.597.2381 1.169.6603 1.591.4223.422.9948.659 1.5919.659h8.7122z" fill="url(#bF)"/><path d="m279.817 52.1226h-42.533c-1.533 0-2.775 1.2415-2.775 2.773v96.1714c0 1.531 1.242 2.773 2.775 2.773h42.533c1.532 0 2.775-1.242 2.775-2.773v-96.1714c0-1.5315-1.243-2.773-2.775-2.773z" fill="url(#bG)"/><path d="m278.779 57.6453h-40.455c-1.334 0-2.416 1.0808-2.416 2.4141v89.5586c0 1.334 1.082 2.415 2.416 2.415h40.455c1.334 0 2.416-1.081 2.416-2.415v-89.5586c0-1.3333-1.082-2.4141-2.416-2.4141z" fill="url(#bH)"/><path d="m274.758 110.483h-32.412c-.392 0-.768-.156-1.045-.433-.277-.276-.433-.652-.434-1.043v-18.5303c.001-.3917.157-.7672.434-1.0442s.653-.4329 1.045-.4335h32.412c.391.0006.767.1566 1.044.4336s.433.6525.433 1.0441v18.5303c0 .391-.156.767-.433 1.043-.277.277-.653.433-1.044.433zm-32.412-21.1216c-.296.0003-.58.1179-.789.327s-.327.4926-.327.7883v18.5303c0 .295.118.578.327.787.21.209.493.326.789.327h32.412c.295-.001.579-.118.788-.327s.326-.492.326-.787v-18.5303c0-.2955-.117-.5788-.326-.7879-.209-.209-.493-.3268-.788-.3274z" fill="#c4c0c0"/><path d="m272.522 64.4277h-14.863c-.033 0-.06.0269-.06.06v1.3577c0 .0332.027.06.06.06h14.863c.034 0 .06-.0268.06-.06v-1.3577c0-.0331-.026-.06-.06-.06z" fill="url(#bI)"/><path d="m272.522 67.9619h-14.863c-.033 0-.06.0269-.06.06v1.3577c0 .0331.027.06.06.06h14.863c.034 0 .06-.0269.06-.06v-1.3577c0-.0331-.026-.06-.06-.06z" fill="url(#bJ)"/><path d="m272.522 71.4973h-14.863c-.033 0-.06.0269-.06.06v1.3577c0 .0331.027.06.06.06h14.863c.034 0 .06-.0269.06-.06v-1.3577c0-.0331-.026-.06-.06-.06z" fill="url(#bK)"/><path d="m272.523 75.0315h-28.681c-.033 0-.06.0269-.06.06v1.3577c0 .0331.027.06.06.06h28.681c.033 0 .06-.0269.06-.06v-1.3577c0-.0331-.027-.06-.06-.06z" fill="url(#bL)"/><path d="m272.523 78.5657h-28.681c-.033 0-.06.0268-.06.06v1.3577c0 .0331.027.06.06.06h28.681c.033 0 .06-.0269.06-.06v-1.3577c0-.0332-.027-.06-.06-.06z" fill="url(#bM)"/><path d="m272.523 82.1011h-28.681c-.033 0-.06.0268-.06.06v1.3577c0 .0331.027.06.06.06h28.681c.033 0 .06-.0269.06-.06v-1.3577c0-.0332-.027-.06-.06-.06z" fill="url(#bN)"/><path d="m254.803 62.8242h-10.954c-.037 0-.067.03-.067.0671v10.1414c0 .0371.03.0671.067.0671h10.954c.037 0 .067-.03.067-.0671v-10.1414c0-.0371-.03-.0671-.067-.0671z" fill="url(#bO)"/><path d="m272.522 119.38h-14.863c-.033 0-.06.027-.06.06v1.358c0 .033.027.06.06.06h14.863c.034 0 .06-.027.06-.06v-1.358c0-.033-.026-.06-.06-.06z" fill="url(#bP)"/><path d="m272.522 122.914h-14.863c-.033 0-.06.027-.06.06v1.358c0 .033.027.06.06.06h14.863c.034 0 .06-.027.06-.06v-1.358c0-.033-.026-.06-.06-.06z" fill="url(#bQ)"/><path d="m272.522 126.45h-14.863c-.033 0-.06.027-.06.06v1.357c0 .034.027.06.06.06h14.863c.034 0 .06-.026.06-.06v-1.357c0-.033-.026-.06-.06-.06z" fill="url(#bR)"/><path d="m272.523 129.984h-28.681c-.033 0-.06.027-.06.06v1.358c0 .033.027.06.06.06h28.681c.033 0 .06-.027.06-.06v-1.358c0-.033-.027-.06-.06-.06z" fill="url(#bS)"/><path d="m272.523 133.518h-28.681c-.033 0-.06.027-.06.06v1.358c0 .033.027.06.06.06h28.681c.033 0 .06-.027.06-.06v-1.358c0-.033-.027-.06-.06-.06z" fill="url(#bT)"/><path d="m272.523 137.053h-28.681c-.033 0-.06.027-.06.06v1.358c0 .033.027.06.06.06h28.681c.033 0 .06-.027.06-.06v-1.358c0-.033-.027-.06-.06-.06z" fill="url(#bU)"/><path d="m254.803 117.777h-10.954c-.037 0-.067.03-.067.067v10.142c0 .037.03.067.067.067h10.954c.037 0 .067-.03.067-.067v-10.142c0-.037-.03-.067-.067-.067z" fill="url(#bV)"/><path d="m256.117 99.9745c.002.9245-.199 1.8375-.589 2.6755-.471 1.043-1.21 1.943-2.143 2.608-.932.665-2.025 1.07-3.165 1.176-.202.023-.404.035-.607.035-1.286.001-2.544-.38-3.614-1.094-1.069-.714-1.903-1.728-2.396-2.916-.493-1.187-.622-2.494-.371-3.7548s.87-2.4189 1.78-3.3279c.909-.9089 2.068-1.5279 3.33-1.7785s2.569-.1216 3.758.3706c1.188.4923 2.204 1.3257 2.918 2.3948s1.095 2.3259 1.094 3.6113z" fill="url(#bW)"/><path d="m256.117 99.9746c.002.9244-.199 1.8374-.589 2.6754l-5.91-2.6754 4.394-4.7895c.664.6086 1.194 1.3488 1.557 2.1733.362.8246.549 1.7156.548 2.6162z" fill="url(#bX)"/><path d="m255.533 102.655c-.471 1.043-1.21 1.943-2.143 2.608-.932.665-2.025 1.07-3.166 1.175l-.606-6.4585z" fill="url(#bY)"/><path d="m272.222 94.166h-10.044c-.03 0-.054.0242-.054.0541v1.2236c0 .0299.024.0541.054.0541h10.044c.03 0 .054-.0242.054-.0541v-1.2236c0-.0299-.024-.0541-.054-.0541z" fill="url(#bZ)"/><path d="m273.939 97.1924h-13.389c-.03 0-.054.0242-.054.0541v1.2236c0 .0299.024.0541.054.0541h13.389c.03 0 .054-.0242.054-.0541v-1.2236c0-.0299-.024-.0541-.054-.0541z" fill="url(#b0)"/><path d="m273.939 100.218h-13.389c-.03 0-.054.024-.054.054v1.224c0 .03.024.054.054.054h13.389c.03 0 .054-.024.054-.054v-1.224c0-.03-.024-.054-.054-.054z" fill="url(#b1)"/><path d="m273.939 103.244h-13.389c-.03 0-.054.024-.054.054v1.224c0 .03.024.054.054.054h13.389c.03 0 .054-.024.054-.054v-1.224c0-.03-.024-.054-.054-.054z" fill="url(#b2)"/><path d="m226.748 121.564h-2.441v-1.412h2.441c.628-.001 1.229-.25 1.673-.694.444-.443.693-1.044.694-1.671v-30.4138c0-.638.254-1.2497.706-1.701.451-.4513 1.063-.7052 1.701-.7061h2.987v1.4118h-2.987c-.264.0003-.517.1053-.703.2919-.187.1866-.291.4396-.291.7034v30.4138c-.002 1.001-.4 1.961-1.109 2.669-.708.708-1.669 1.106-2.671 1.108z" fill="url(#b3)"/></g></svg>