<svg fill="none" height="195" viewBox="0 0 225 195" width="225" xmlns="http://www.w3.org/2000/svg" xmlns:xlink="http://www.w3.org/1999/xlink"><linearGradient id="a"><stop offset="0" stop-color="#f8db8b"/><stop offset="1" stop-color="#68b790"/></linearGradient><linearGradient id="b" gradientUnits="userSpaceOnUse" x1="5.35537" x2="210.236" xlink:href="#a" y1="97.5487" y2="128.83"/><linearGradient id="c"><stop offset="0" stop-color="#007e33"/><stop offset="1" stop-color="#55b079"/></linearGradient><linearGradient id="d" gradientUnits="userSpaceOnUse" x1="90.9258" x2="106.19" xlink:href="#c" y1="79.5375" y2="79.5375"/><linearGradient id="e" gradientUnits="userSpaceOnUse" x1="81.7661" x2="89.1296" xlink:href="#c" y1="85.8821" y2="85.8821"/><linearGradient id="f" gradientUnits="userSpaceOnUse" x1="111.155" x2="158.233" xlink:href="#a" y1="45.1338" y2="49.7469"/><linearGradient id="g" gradientUnits="userSpaceOnUse" x1="159.743" x2="189.403" y1="49.9834" y2="47.4196"><stop offset="0" stop-color="#dbedeb"/><stop offset="1" stop-color="#d2cdd8"/></linearGradient><linearGradient id="h" gradientUnits="userSpaceOnUse" x1="83.6606" x2="101.146" xlink:href="#c" y1="74.3908" y2="74.3908"/><clipPath id="i"><path d="m0 0h225v195h-225z"/></clipPath><clipPath id="j"><path d="m0 0h230v217h-230z"/></clipPath><g clip-path="url(#i)"><g clip-path="url(#j)"><path d="m187.396 96.6237c-.052 3.6223-.204 7.5973-.631 10.9513-.64 5.883-2.801 12.781-8.439 14.717-13.455 7.374-1.398 23.493-30.639 22.755-3.135.131-7.504 3.301-16.534.839-5.138-1.404-14.534-2.193-22.414 0-15.4385 4.295-23.0941 2.173-39.4433-.265-6.4665-.965-14.9923-2.149-17.9122-2.21-2.9198-.061-23.7267-5.793-26.7436-22.544-4.3774-13.264 2.3876-16.572 8.0847-26.0593 5.697-9.4873 2.2774-21.722 7.2049-26.6976 9.5722-9.6696 21.3355-3.1465 24.5442-10.0999s15.9189-6.8803 22.8241-3.264c6.9053 3.6164 14.4592 6.6526 25.9852 4.1498s24.613-6.4332 34.499 1.9298c9.885 8.3631 3.392 8.9696 9.588 14.0902 6.197 5.1207 30.221 8.7982 30.026 21.7077z" fill="url(#b)"/><path d="m203.74 117.84c7.626.479 14.915-.147 22.398-1.725 1.147-.24 2.365-.566 3.143-1.463 1.178-1.36.823-3.649-.447-4.915-1.271-1.266-3.186-1.649-4.953-1.473-1.13.12-2.291.425-3.383.102-1.364-.404-2.267-1.678-3.182-2.793-.914-1.115-2.157-2.213-3.562-2.038-1.056.131-1.889.945-2.829 1.455-.94.511-2.306.564-2.844-.375-1.155-2.01.465-7.5214-5.476-7.5214-8.576 0-7.175 5.5474-8.207 6.7244-1.565 1.785-4.351 1.392-6.617.788-2.267-.605-4.966-1.177-6.712.418-1.517 1.384-1.679 3.921-3.286 5.185-1.716 1.346-4.153.628-6.233.023-2.079-.605-4.761-.826-5.969 1.011-1.011 1.54-.256 3.777 1.182 4.904 1.438 1.128 3.337 1.405 5.147 1.518 11.744.722 22.408-.412 31.83.175z" fill="#fff"/><path d="m60.1266 14.7842c3.5959 0 10.9782 6.6574.4243 7.723-10.5538 1.0656-26.3601.5765-32.7571.5993-10.44.0372-13.0302-.4087-12.9451-4.8642.0491-2.5783 1.382-4.2468 6.8861-4.924 5.7246-.7024 2.8-7.3526 9.7891-7.15122 5.9536.1726 6.5601 8.87602 12.0078 6.74242s4.3055 3.6799 8.2897 4.7467c4.3761 1.1747 4.713-2.872 8.3052-2.872z" fill="#fff"/><path clip-rule="evenodd" d="m53.3811 136.623c.4063 1.422.6125 2.775-1.6277 4.727-1.7476 1.525-3.6199.488-5.5137 1.49-2.5866 1.368-2.263 3.514-5.6251 3.785-2.9019.232-3.5659-4.196-7.7983-2.448-3.1955 1.318-6.8093.147-6.6991-2.918.1103-3.065-3.108-3.635-1.1674-6.639 1.9789-3.061 5.2164-.557 6.7626-1.274 2.3769-1.103 2.6741-3.379 6.2089-3.214 4.5104.21 4.0225 2.93 8.1614 2.757 3.7289-.146 6.6056 1.291 7.2984 3.734z" fill="#fff" fill-rule="evenodd"/><path d="m224.154 216.999h-218.92441l-5.22959-1.419c15.3915-11.987 33.9126-29.752 47.5469-41.428 2.1048-1.798 4.0933-3.457 5.9356-4.927 5.0198-3.999 8.9561-6.592 11.2155-6.911 6.4726-.897 10.4892-5.252 13.9556-10.238 2.0041-2.877 4.5835-5.081 6.5852-7.837 1.1735-1.616 2.4092-3.116 3.7829-4.391.801-.751 1.6733-1.423 2.6046-2.006.8919-.557 1.8456-1.009 2.8419-1.346 1.3604-.457 3.0313-.874 4.6818-.874.959 0 1.587-.466 2.44-.814l1.177-.054c8.167-.389 7.361-7.523 13.25-3.609 1.39.924 3.312-1.38 5.121-.995 5.344 1.136 8.928 7.322 10.214 8.423.013.011.024.022.036.03 4.994 4.034 18.839 13.785 22.929 15.836 6.352 3.176 9.768 13.513 16.283 13.564.12 0 .252 0 .382-.012 1.067-.07 2.291.112 3.649.514h.017c5.425 1.61 11.6 6.73 18.134 13.425 10.078 10.323 21.01 24.384 31.372 35.069z" fill="#364154"/><path d="m57.2678 188.201c10.1235.159 26.432 12.175 31.2492 20.887.3668.664-23.2532 7.267-23.1945 7.911h-60.09291l-5.22959-1.419c15.3915-11.987 24.1822-21.121 37.8165-32.796 5.4202 11.002 11.8999 5.297 19.4513 5.417z" fill="#1f1f3d" opacity=".37"/><path d="m192.782 181.932c-27.358 1.942-30.01-9.445-43.031-9.617-10.798-.141-24.143 4.709-35.443 4.624-9.769-.075-15.9419-11.627-26.1985-12.329-9.9305-.685-11.8987 8.391-34.6329 4.615 5.0198-3.999 8.9561-6.592 11.2155-6.911 6.4725-.897 10.4891-5.252 13.9555-10.238 2.0041-2.877 4.5836-5.081 6.5852-7.837 1.1735-1.616 2.4093-3.116 3.7829-4.391.801-.751 1.6734-1.423 2.6046-2.006.8919-.557 1.8456-1.009 2.8419-1.346 1.3605-.457 3.0313-.874 4.6818-.874.959 0 1.587-.466 2.44-.814.401-.167.822-.279 1.252-.334 5.468-.681 9.109-4.453 10.308-6.45.94-1.566 1.939-3.653 4.381-3.611 5.463.096 7.833 2.954 15.196 13.828 3.363 4.968 16.781 9.931 21.917 14.726 5.192 4.846 9.246 11.815 15.962 15.036.111.053.252 0 .382-.012 1.067-.07 2.291.112 3.649.514h.017c5.425 1.614 11.6 6.735 18.134 13.427z" fill="#fdfffd"/><path d="m126.648 156.218c0 .647 1.786 1.398 3.844 1.398s3.726-.525 3.726-1.171-1.668-1.171-3.726-1.171-3.844.297-3.844.944z" fill="#32323f" opacity=".23"/><path d="m130.729 156.74c1.512.562 3.201.385 3.634-.897.433-1.281-2.941-4.357-4.153-3.588-1.212.768-.636 2.652-1.904 2.493-1.268-.16-2.687.467-1.211 1.607.442.342 1.984-.228 3.634.385z" fill="#3b3b4c"/><path d="m105.68 134.884c0 .75-1.119 1.62-2.41 1.62s-2.336-.607-2.336-1.358c0-.75 1.046-1.358 2.336-1.358 1.289 0 2.41.345 2.41 1.096z" fill="#32323f" opacity=".23"/><path d="m103.121 135.489c-.948.652-2.008.445-2.278-1.041-.269-1.485 1.283-3.663 2.37-3.228 1.428.571.633 2.144 1.429 1.959s1.685.542.76 1.864c-.28.396-1.247-.265-2.281.446z" fill="#3b3b4c"/><path d="m70.2174 162.054s-1.0668.61-2.1288.563c-.4764-.006-.9329-.191-1.2777-.52-.2002-.194-.7-2.445-.1966-3.535.0407-.092.0926-.178.1546-.257l2.5639-.515s2.2354.12 2.3421 1.456c.1067 1.337-1.4575 2.808-1.4575 2.808z" fill="#3b3b4c"/><path d="m68.0886 162.617c-.4763-.006-.9329-.192-1.2777-.52-.2002-.194-.7-2.446-.1966-3.535.4699.526 1.0788 1.678 1.2394 2.372.1114.556.1899 1.118.2349 1.683z" fill="#1f1f3d" opacity=".22"/><path d="m117.183 121.124c0-1.065-.348-3.731-.348-3.731l-2.835.182.556 4 1.995 1.088z" fill="#fff"/><path d="m117.205 120.647c.239-.195.785.453.907.896.281 1.011 3.45 1.053 4.017 1.13.292.04.803 1.525-.646 1.558-1.254.029-5.267.137-6.638.161-.139.003-.275-.04-.388-.123-.112-.082-.193-.199-.232-.333-.273-.978-.368-3.285.014-3.328.519.109 2.073.785 2.966.039z" fill="#1f1f39"/><path d="m91.0172 134.85c.471-.959 1.5486-3.436 1.5486-3.436l-2.8216-1.158-1.2813 3.828 1.3029 1.863z" fill="#fff"/><path d="m117.791 118.86c-.193 1.248-2.65 1.079-4.16.761-.569-.282-2.088-11.463-3.057-14.614-.229-.744-3.716-1.678-7.515-1.845l-.29-.012c-2.305-.078-4.7265-.239-6.2139-.302-.5322-.021-.9458-.03-1.1915-.015-.1762.009-.2601-.017-.2505.018.2253.757 1.8663 6.222 3.4532 12.39 1.1987 4.641-6.1405 17.439-6.1405 17.439-1.9657-.012-4.6746-1.379-4.4445-1.798.2301-.418 5.4777-11.685 5.0175-14.983-.3081-2.206-3.8069-7.451-6.2497-11.84-1.1854-2.13-2.5387-5.2849-2.7628-5.8938-.1781-.4866-.3313-.9819-.4591-1.484-1.0404-4.0538 11.695-3.2364 11.695-3.2364 4.7381 2.6371 16.9788 2.9224 19.7998 7.3862 1.819 2.878 2.769 18.029 2.769 18.029z" fill="#3b3b4c"/><g fill="#1f1f39"><path d="m91.9316 101.754c.0091-.01.0172-.021.0241-.032z" opacity=".46"/><path d="m85.3248 101.225c1.1303-1.4381 3.9087-3.6268 3.7685-5.3301 0 0-3.6426.7192-5.4322 1.2766z" opacity=".45"/><path d="m103.342 103.124-.283.038-.29-.012c-2.305-.078-4.7262-.239-6.2137-.302-.3951-.052-.7951-.057-1.1914-.015-.0877.012-.1737.034-.2565.066-.2865-.839-.5322-1.699-.5322-1.699 1.0728-.048 5.3554.45 8.7668 1.924z" opacity=".65"/><path d="m91.5595 133.793c.2948.079.1833.36.2013.816.0384 1.049 3.4461 2.397 3.9795 2.606.2756.107.4302 1.669-.9877 1.368-1.2262-.26-5.1541-1.079-6.4965-1.374-.1361-.028-.2587-.101-.3488-.207-.09-.106-.1423-.239-.1487-.378-.0419-1.014.3992-3.688.7803-3.643.4807.222 1.6745.45 3.0206.812z"/></g><path d="m105.138 63.9663c-1.257-2.9355.839-2.305.55-4.1953-.046-.3104-2.277-1.3569-3.022-.2337-.746 1.1231-.651 3.1596-.33 4.0442s1.516.7768 1.798.609c.281-.1679 1.004-.2242 1.004-.2242z" fill="#efaea6"/><path d="m87.7342 75.133 2.4787-.0504s2.4045-.0815 1.8687-.5058c-.7192-.567-.8163-1.2946-1.1375-1.7081-.2301-.3334-.408-.7-.5274-1.0872-.165-.4871-.2999-.9839-.4039-1.4875l-.006-.1954-.3596-.489-1.056-1.43s-1.4084 1.1339-1.2813 2.2127c.115.9841.0887 3.7038.4243 4.7407z" fill="#efaea6"/><path d="m90.4168 71.7816c-.165-.4871-.2999-.9839-.4039-1.4876l-.006-.1953-.3596-.4891-.2937-.0503s-.64.8306-.7887 1.1483c-.2145.4555.7636 1.6194 1.8519 1.074z" fill="#1f1f39" opacity=".14"/><path d="m87.4127 72.267c.9697-.4375 1.3305 1.2742 2.3637 1.1986.5453-.0371.3895-.2625.5993-.5573.133-.181.2529-.38.5405-.1559 5.8469 4.5717 2.637 18.8189 3.4233 19.658.6413.688-3.3693 3.0098-6.1489 2.7425-3.8128-.368-4.2132-4.5177-4.2264-5.3208-.0131-.8031.3285-14.5229.3285-14.5229 1.1459-.8995 2.1919-1.9194 3.12-3.0422z" fill="#fff"/><path d="m105.346 63.2148c.05.3715 2.499 10.8801-1.189 12.6697-1.631.7912-7.4532 2.8385-8.3066 3.7638-.6497.7048-1.0788 2.6371-.7815 3.608.2397.7827.495 1.5343.6436 2.0988.3848 1.448 2.4824 7.4724 1.0057 9.63-.9385 1.3701-1.8842 1.3893-2.6502.8583-1.3184-.9122-.9097-6.0041-2.0796-10.7544-.9049-3.6727.4411-6.1131-.4099-9.1349-.6449-2.2847-.6556-3.1968-.6556-3.1968 6.0086 1.3856 9.5891.0707 10.7771-.567 1.527-.8187-.48-7.826.04-8.3738.211-.2158 3.482-1.4935 3.606-.6017z" fill="url(#d)"/><path d="m105.346 63.2148c.05.3715 2.499 10.8801-1.189 12.6697-1.631.7912-7.4532 2.8385-8.3066 3.7638-.6497.7048-1.0788 2.6371-.7815 3.608.2397.7827.495 1.5343.6436 2.0988.3848 1.448 2.4824 7.4724 1.0057 9.63-.9385 1.3701-1.8842 1.3893-2.6502.8583-1.3184-.9122-.9097-6.0041-2.0796-10.7544-.9049-3.6727.4411-6.1131-.4099-9.1349-.6449-2.2847-.6556-3.1968-.6556-3.1968 6.0086 1.3856 9.5891.0707 10.7771-.567 1.527-.8187-.48-7.826.04-8.3738.211-.2158 3.482-1.4935 3.606-.6017z" fill="#1f1f39" opacity=".14"/><path d="m81.8458 98.9011c.7827 1.8269 5.7234-1.0428 6.904-2.7929.9781-1.4515-.4566-2.9199-.0407-6.022.2109-1.5678.4794-4.2504.4087-6.2845 0-.2002-.0168-.3956-.0299-.5814-.1199-1.5582-.3225-3.2364-.555-4.8066-.1067-.712-.2181-1.4024-.3284-2.0485-.0695-.4147-.1403-.8115-.2086-1.1843-.2517-1.382-.4794-2.444-.5825-2.9091 0 0-2.5411.4507-4.2947 3.0218-.2268.3729-.3867.7826-.4722 1.2106-.0971.4148-.8151 2.3374-.6173 4.2744.2397 2.3374.5262 4.0191.7192 5.4192.2073 1.545.1882 3.1165.0611 5.6732-.1175 2.2355-1.3712 6.0712-.9637 7.0301z" fill="url(#e)"/><path d="m85.3213 77.5651c.0827.6125 3.3393 6.74 3.7888 7.9027 0-.2002-.0096-2.0665-.0227-2.2523-.1199-1.5582-.3225-3.2363-.555-4.8066z" fill="#1f1f39" opacity=".18"/><path d="m89.7493 65.9381c.4795.8247 2.1719 2.0257 1.5918 2.3002-.5802.2745 1.0032 1.7429.3955 2.0581-1.4695.7636-3.6306.6389-4.1628.0096s-1.3736-2.6898-1.3736-2.6898z" fill="#efaea6"/><path d="m88.599 67.5048c.4963-.1703.5634-.0648.8187-.3824.2553-.3177-.5298-.5011.0384-.8978.5681-.3968 1.2249-.7576.9589-1.4935-.386-1.0656-1.2142-.4795-1.7165-.0899-.3236.2481-.7791-.4915-1.4815-.1139-.5501.2961-.3296.5933-.809.8786-.2901.1726-1.1159-.0443-1.4168.5478-.5586 1.0968.5633 1.5798.1726 2.6514-.4543 1.2502 2.3589 2.1073 2.4847 1.7812.1475-.3812-.6544-1.068-.4794-1.4024.2625-.5034.4794-.1798.9673-.0216.525.169 1.207-.1318.4638-.5885-.7431-.4567-.4506-.7144-.0012-.869z" fill="#1f1f39"/><path d="m108.16 64.0874c-.295.7275-.857 1.3413-1.743 1.7332-.088.0384-.178.0767-.27.1103l-.332.1199-.049.0167-.325.1199-.099.0372c-.489.1766-.959.344-1.411.5022h-.012c-.189.0683-.375.133-.559.1966l-.032.0096-.36.1258-.187.0648-.288.0994c-2.9502.9961-4.9819 1.5715-6.1026 1.9071-.1654.048-.3092.0935-.4363.1319-1.0787.3392-2.0017.2049-2.7352-.2206-2.3194-1.3413-2.7856-5.5773-.6772-6.8875.2912-.181 1.4131-.8546 2.7568-1.6553 1.9573-1.1723 4.3785-2.6155 5.3335-3.1849l.282-.169c.017-.0084.031-.0191.047-.0287.011-.0048.022-.0113.031-.0192.008-.0022.015-.0064.02-.012.014-.0062.027-.0138.04-.0228.129-.0527.259-.0995.388-.139.13-.0396.277-.0791.414-.1079.147-.0319.295-.056.444-.0719 3.848-.4231 7.056 4.4003 5.862 7.3442z" fill="#1f1f39"/><path d="m108.936 63.8416c-.33.7792-.967 1.4217-1.983 1.798l-.526.193-.279.1019-.332.1199-.049.0167-.325.1199-.101.036-1.409.5034h-.012l-.559.1966-.032.0096-.36.1258-.187.0648-.289.0995c-2.9423 1.0056-4.576 1.4731-5.5685 1.7716-.1834.0539-.3596.1007-.5334.1354-1.189.2397-2.1575.0288-2.9031-.4567-2.3205-1.5055-2.4607-5.6468-.2397-6.9522.2397-.1402 1.0392-.6173 2.0569-1.2262 1.678-1.0033 3.9554-2.365 5.3178-3.1872l.282-.169c.017-.0084.031-.0192.047-.0288.011-.0048.022-.0112.031-.0192.008-.0022.015-.0063.02-.012.014-.0062.028-.0138.04-.0228l.397-.2397.376-.2265c.157-.0646.317-.1206.48-.1678 4.219-1.2155 7.986 4.2384 6.64 7.416z" fill="#3b3b4c"/><path d="m122.778 62.1803c-.038.0492-.077.0947-.12.1403-.27.2999-.595.5442-.959.7192-.126.0626-.256.1174-.389.1642l-.33.1198c-1.227.4327-2.368.8127-3.424 1.1495l-.331.1055c-3.747 1.1843-6.37 1.8064-7.833 2.178-.249.0635-.465.1198-.649.1702-1.24.3428-2.397.0252-3.402-.706-.372-.2721-.714-.5823-1.022-.9254-1.938-2.1396-3.098-5.7775-2.888-8.3714 0-.0324 0-.0659.008-.0983.105-1.1135.479-2.0245 1.148-2.5256.223-.1666.874-.6292 1.739-1.2406.014-.0095.028-.0179.041-.0287l.09-.0636.49-.3476c2.966-2.0904 7.566-5.3148 7.566-5.3148.442-.1853.913-.2893 1.392-.3069.403-.0136.806.0267 1.198.1199l.095.024c4.169 1.05 8.263 7.5515 8.39 12.0285.042 1.1962-.206 2.2463-.81 3.0098z" fill="#1f1f39"/><path d="m123.186 62.3937c-.059.0455-.12.0875-.184.1282-.223.1413-.46.2563-.709.3428l-.558.1966c-.143.0516-.284.0995-.424.1475l-.329.1198c-1.269.4387-2.405.8187-3.425 1.1495l-.33.1055c-3.871 1.2418-6.004 1.7477-7.278 2.0773-.183.0471-.368.0808-.555.1007-1.065.1115-2.068-.2553-2.967-.929l-.01-.0084c-.345-.2639-.666-.5588-.958-.881-1.934-2.1012-3.185-5.5857-3.165-8.1952 0-.1055 0-.2098.009-.3129.06-1.207.411-2.1935 1.118-2.7173.144-.1067.467-.338.911-.6545.013-.0096.027-.018.041-.0287l.089-.0636.491-.3476c2.85-2.0161 8.474-5.9561 8.474-5.9561.171-.0713.346-.1306.525-.1774.38-.0964.773-.1368 1.165-.1199h.108c4.49.2841 9.242 7.6199 9.349 12.4888.031 1.5091-.381 2.7833-1.388 3.5349z" fill="#3b3b4c"/><path d="m148.98 56.1558c-.454.3471-.959.6231-1.497.8187-.131.0492-.262.0983-.394.1451-.489.1814-.968.3572-1.438.5274-.368.1318-.729.2625-1.086.3883-3.156 1.1232-5.935 2.027-8.326 2.7569h-.021c-4.215 1.2898-7.234 2.0509-9.024 2.5424-.271.0755-.514.1426-.728.205-1.678.4938-3.274.2565-4.729-.4867l-.034-.0168c-1.05-.5418-2.026-1.3473-2.909-2.3326-3.182-3.5528-5.139-9.4394-4.886-13.7138.009-.1738.024-.344.042-.5118.184-1.7536.771-3.1872 1.838-4.0035.204-.1571.619-.4651 1.189-.8834l.013-.0096c3.438-2.5292 12.445-9.0547 14.756-10.7268.35-.2553.546-.3968.546-.3968.17-.0743.342-.1402.514-.2001l.13-.042c8.017-2.5639 17.787 10.8311 18.285 19.7503.144 2.6274-.51 4.8593-2.241 6.1898z" fill="#1f1f39"/><path d="m152.424 49.5489c.032 2.9487-.982 5.3939-3.444 6.6058-.059.0311-.12.0587-.177.0863-.624.2853-1.238.5562-1.843.8127-.458.1966-.911.3859-1.359.5681-.338.1367-.67.2709-1.001.3992l-.036.0144c-.451.1774-.896.3476-1.335.5106-.014.0061-.029.0113-.044.0156l-.079.0288c-1.864.6904-3.596 1.2573-5.199 1.7284-.573.1702-1.13.33-1.669.4795l-.022.0072c-4.051 1.1063-6.988 1.5906-8.432 2.0149-1.629.4795-3.179.2697-4.598-.4219-.137-.0671-.273-.1391-.407-.2146-.911-.5252-1.736-1.187-2.447-1.9622-2.225-2.3661-3.882-5.8734-4.652-9.2524-.272-1.1654-.429-2.3545-.471-3.5504v-.2745c0-.2637 0-.5226.016-.7731.101-2.0306.695-3.7087 1.885-4.6185 1.069-.8175 7.958-5.8218 12.49-9.1098l1.141-.8258.999-.7252 1.066-.7731.131-.0935.674-.4903c2.023-.8786 4.167-.7048 6.258.193 1.821.7839 3.596 2.1156 5.222 3.7829 4.162 4.29 7.278 10.7963 7.333 15.8379z" fill="url(#f)"/><path d="m148.937 56.4939c-.612.2269-1.211.4463-1.798.658-.492.1798-.975.354-1.448.5227-.86.3068-1.685.5973-2.474.8714l-.044.0168c-1.963.6808-3.716 1.2597-5.274 1.756-5.068 1.6146-8.151 2.3625-9.993 2.8768-.236.0655-.476.1168-.719.1534-1.479.2301-2.89-.0983-4.195-.8211-.114-.0647-.229-.1318-.341-.2014-.9-.5734-1.716-1.2716-2.421-2.0736-3.049-3.3946-5.034-8.8701-5.131-13.1301-.007-.2553 0-.5082 0-.7552.072-2.1036.654-3.8357 1.863-4.7622l.013-.0096c1.318-1.0033 10.695-7.8069 14.756-10.7484l1.066-.7743.799-.5778c8.155-3.5432 18.549 10.6717 19.057 19.9721.186 3.2951-.873 5.9741-3.716 7.0265z" fill="#3b3b4c"/><path d="m170.947 47.4632c-.03.0396-.057.0803-.087.1199-.135.1881-.276.3739-.418.5573-.143.1834-.281.3596-.428.525-1.356 1.5913-2.999 2.9136-4.843 3.8981-17.207 9.268-8.03 6.3361-10.78 7.3238l-.688.2397c-3.248 1.1423-6.398.706-9.291-.7875l-.057-.03c-.015-.0084-.031-.018-.049-.0264-.405-.2117-.805-.4451-1.199-.7-.015-.0066-.029-.0155-.041-.0263-1.514-.9971-2.897-2.182-4.113-3.5265-.207-.2229-.409-.4507-.607-.6832-3.011-3.4953-5.434-8.031-6.964-12.6003-.538-1.6-.969-3.2342-1.29-4.8917-.269-1.3916-.435-2.801-.497-4.2169 0-.0731-.006-.145-.008-.2181-.001-.0064-.001-.0128 0-.0192-.012-.4315-.014-.8559 0-1.2706 0-.0815 0-.163.008-.2397-.001-.0072-.001-.0144 0-.0216.135-3.2544 1.056-5.9645 2.933-7.5659.18-.1535.41-.3285.686-.5202 4.01-2.8037 17.462-9.4814 17.462-9.4814 1.183-.6122 2.439-1.0726 3.738-1.3701.518-.1149 1.042-.199 1.57-.2517 14.627-1.4624 24.012 22.9423 14.963 35.7835z" fill="#1f1f39"/><path d="m183.613 50.9429c-.191.1031-.386.2002-.588.2889-.563.2505-1.149.4974-1.751.7383-8.956 3.6068-21.669 6.3158-26.241 7.735-.214.0671-.428.127-.642.1798-2.945.7372-5.797.2469-8.442-1.098l-.064-.0335-.135-.0696c-.371-.1966-.739-.4087-1.1-.6377-.016-.0081-.031-.0182-.044-.0299-1.523-.9851-2.917-2.1569-4.149-3.4881-.208-.2206-.413-.4471-.616-.6773-3.116-3.542-5.633-8.1616-7.231-12.8256-.563-1.6342-1.013-3.305-1.347-5.0008-.277-1.3913-.451-2.8011-.52-4.218 0-.072-.006-.1463-.009-.2182 0-.0072 0-.012 0-.0192-.013-.4291-.018-.851-.008-1.2658-.002-.0179-.002-.0359 0-.0539 0-.0719 0-.1414 0-.211.105-3.0374.888-5.6097 2.487-7.265.142-.1491.292-.2907.449-.4243 2.785-2.3746 26.25-21.0964 26.25-21.0964 16.31-9.88172 39.176 41.3357 23.701 49.6903z" fill="#3b3b4c"/><path d="m181.34 51.5178c7.079-2.9758 8.115-16.5754 2.314-30.3755-5.801-13.80012-16.242-22.57495-23.321-19.59914s-8.115 16.57534-2.314 30.37544c5.801 13.8002 16.242 22.575 23.321 19.5992z" fill="#1f1f39"/><path d="m184.328 26.4363c.737 2.4294 1.248 4.9216 1.526 7.4449.052.4795.092.9537.12 1.4228.154 2.4441.022 4.7167-.397 6.7125-.167.8164-.4 1.618-.696 2.3973-.69 1.798-1.689 3.2508-2.997 4.2277-.085.0623-.171.1198-.258.1845-1.141.7725-2.49 1.1762-3.867 1.1568-1.66 0-3.444-.5418-5.256-1.5463-.47-.2613-.942-.5534-1.417-.8762-1.507-1.0487-2.894-2.2585-4.139-3.608-.518-.5514-1.029-1.1375-1.535-1.7584-.1-.1199-.2-.2481-.301-.3752-.523-.6616-1.037-1.3585-1.541-2.0904-.958-1.3956-1.835-2.8452-2.625-4.3416-.276-.5202-.545-1.0508-.807-1.5918-.832-1.7186-1.562-3.4849-2.185-5.2897-.828-2.3793-1.448-4.8256-1.854-7.3118-.21-1.2843-.347-2.5792-.412-3.8788-.07-1.3408-.042-2.6849.084-4.0215.178-1.7896.548-3.4174 1.111-4.82102.709-1.76323 1.723-3.17524 3.043-4.11619.045-.03356.092-.06592.139-.09829 1.184-.80148 2.593-1.2057 4.022-1.1543 1.678.03835 3.476.61251 5.298 1.65654 1.079.62716 2.099 1.35134 3.047 2.16358 1.521 1.30724 2.91 2.76102 4.146 4.34038.413.5226.821 1.0668 1.223 1.6325 1.424 2.0238 2.679 4.1619 3.751 6.3925.027.0563.054.1126.081.1678 1.079 2.2527 1.981 4.5864 2.696 6.9797z" fill="url(#g)"/><path d="m176.065 17.0617c-1.355.4567-1.361 1.0152-2.247 1.1986-.163.0336-.422.2973-.625.4232-.151.0935-.271.1102-.296-.1019-.057-.4855-.525-3.6188-.546-3.765.075.0252.147.0515.214.0755 1.127.4123 1.349.6772 1.964.5694.435-.0755.565-.2398 1.005-.2805.568-.0552.801.3512 1.647-.3536.249-.2146.283 1.762-1.116 2.2343z" fill="#419980"/><path d="m172.564 14.8862.629 3.7961c-.151.0935-.271.1103-.296-.1019-.057-.4854-.525-3.6187-.546-3.765.079.0204.146.0468.213.0708z" fill="#1f1f3b" opacity=".14"/><path d="m176.414 38.423c-.07.0107-.306.0335-.324-.0552-2.278-11.0276-3.932-23.5224-3.956-23.6471-.005-.018-.006-.037-.004-.0556.003-.0186.009-.0364.019-.0523.01-.016.023-.0296.039-.0401.015-.0106.033-.0177.052-.021.039.0023.077.0191.105.0471.028.0281.044.0655.047.1051.019.1199 1.835 12.5176 4.11 23.5393.012.0354.009.0741-.007.1078-.016.0336-.045.0594-.081.072z" fill="#3b3b4c"/><path d="m170 47.4998c.088-1.0956-1.299-3.7249.656-8.4632.529-1.2813.821-3.0877 1.011-5.0415.506-5.225.983-11.5659 1.84-11.639.69-.0575 3.955 6.8324 6.55 12.8017 1.782 4.0982 4.285 10.1107 4.936 11.5514.507 7.2906-15.082 1.8862-14.993.7906z" fill="#364154"/><path d="m169.5 46.7092c.088-1.0955-.799-2.9343 1.156-7.6726.529-1.2813.821-3.0877 1.011-5.0415.506-5.225.983-11.5659 1.84-11.639.69-.0575 3.955 6.8324 6.55 12.8017 1.782 4.0982 4.285 10.1107 4.936 11.5514.507 8.2906-15.582 1.0956-15.493 0z" fill="#1f1f3d" opacity=".24"/><path d="m180.057 35.1578c-.725-.1199-1.318-.1271-2.072-.9182-1.05-1.1087-1.727-.6281-2.152.5514-.424 1.1795-1.293 2.6526-2.195.3488-.33-.839-.733-1.611-1.971-1.1447.506-5.225.983-11.5658 1.84-11.639.69-.0575 3.958 6.8288 6.55 12.8017z" fill="#fff"/><path d="m171 47.4999c0-.5-3.34-1-5-4.5.433-1.0464.003.4059.158-1.1919.413-4.2637.223-9.3891 1.502-9.497 1.044-.0875 3.225 5.5726 5.344 10.4451 1.455 3.3454 2.877 6.3193 3.886 6.812 2.478 1.213-4.89-1.0682-5.89-2.0682z" fill="#364154"/><path d="m173.008 42.7561c-.591-.0959-1.581-.9589-2.193-1.6038-.857-.905-.907.3428-1.253 1.3053-.347.9625-1.12.8043-1.541-.0479-.323-.6581-.849-.9817-1.86-.5994.414-4.2636.223-9.389 1.502-9.4969 1.044-.0899 3.225 5.5761 5.345 10.4427z" fill="#fff"/><path d="m183.612 50.9429c-.19.1031-.386.2002-.587.2889-.563.2505-1.15.4974-1.751.7384-8.956 3.6067-21.669 6.3157-26.242 7.7349-.213.0671-.428.1271-.641.1798l-.688.2397c-3.248 1.1424-6.398.706-9.29-.7875l-.058-.0299c-.014-.0084-.031-.018-.049-.0264-.405-.2118-.805-.4451-1.199-.7-1.864.6904-3.596 1.2574-5.198 1.7284-5.068 1.6146-8.151 2.3626-9.993 2.8768-.236.0656-.477.1168-.719.1534-.271.0756-.514.1415-.728.2062-1.678.4926-3.274.2553-4.73-.4879l-.423.1487c-.11.0371-.22.0767-.329.1199l-.24.0815c-1.064.3739-2.063.7088-2.997 1.0044-.065.0228-.129.042-.194.0624l-.329.1054c-3.871 1.2431-6.004 1.7489-7.278 2.0785-.183.0472-.368.0808-.555.1007-.25.0623-.467.1199-.649.1702-1.242.3428-2.397.024-3.403-.706-.488.1766-.958.344-1.409.5022-.005-.0005-.009-.0005-.013 0-.189.0696-.376.1331-.56.1966-.011.0021-.021.0053-.031.0096l-.36.1259c-.062.0215-.12.0443-.186.0647l-.291.0983c-2.9402 1.0069-4.5752 1.4743-5.5676 1.7728-.1822.0551-.3596.1007-.5334.1354l-.4363.1319c-1.0788.3392-2.0017.205-2.7365-.2206l-.2397-.2097.5106-.1582c1.3653-.422 5.3674-1.6614 10.8389-3.3791l1.134-.3596 2.707-.8534.775-.2397c3.048-.959 6.382-2.0186 9.858-3.1297l1.446-.4639.091-.03c1.081-.3452 2.169-.6944 3.265-1.0476l.976-.3152c4.578-1.478 9.268-3.0075 13.775-4.5046.498-.1666.993-.332 1.488-.495.24-.0827.48-.1631.728-.2398l1.412-.4734c3.266-1.0992 6.39-2.1648 9.245-3.1657l1.199-.4243.239-.0815c6.192-2.1924 10.946-4.0227 12.896-5.0943.202-.1115.372-.2122.512-.3069.012-.009.024-.0174.036-.0251l4.122 3.0757.628.4675 1.069.7947.753.1534 6.464 1.3185.719.1439.34.4279 2.457.3764z" fill="#1f1f39" opacity=".65"/><path d="m97.4742 66.5878c-.0899-.3788.9398-1.6662.7288-1.8807-.3943-.3992-.839.3991-1.4084-.3464-.4411-.5826.6509-1.8783-.2469-1.7884-2.1012.2121-2.637 1.7668-1.5774 3.216.8247 1.1267.4543 2.2774.9122 3.3562.4578 1.0788 2.2618-.9469 2.2618-.9469s-.4987-.8918-.6701-1.6098z" fill="#efaea6"/><path d="m86.3905 73.3278c5.7018 1.9466 14.6785 10.9258 8.7967-5.1878-.1415-.3872 2.7987-2.2115 3.0433-1.6278 10.5625 25.2497-10.7876 13.0139-13.2952 12.1556-1.0631-.3596-1.9753-3.8657-.531-4.411 1.4444-.5454 1.9862-.929 1.9862-.929z" fill="url(#h)"/><path d="m89.7064 73.8109c-.1199-.042-.6305 2.2139-1.8399 3.222-.3315.2849-.7154.5024-1.1303.6401-1.5083.4612-3.0528.7944-4.6171.9961.1942-.7851.1499-1.1328.5562-1.9035 1.2262.0719 2.9726-.0791 3.6054-.3152.4561-.1747.8832-.4172 1.267-.7192.6395-.5119 1.1973-1.1182 1.6541-1.798.2038-.2937.1546-.6485.4651-.7408.4183-.1247.1917.6724.0395.6185z" fill="#1f1f39" opacity=".18"/><path d="m90.233 73.2427c-.0197-.0706-.0538-.1364-.1-.1932-.0463-.0569-.1038-.1037-.1688-.1374-.0651-.0337-.1365-.0537-.2096-.0587s-.1465.0051-.2156.0297c-.3092.0923-.3032.2265-.507.519-.6113.881-1.5702 2.0162-2.921 2.5172-1.3509.501-4.9827-.5166-6.9245.4519-1.9417.9685-2.0999 2.9703-4.9467 4.1953-2.8467 1.225-6.3527.7815-7.1917 1.1531s-1.3185.6988-1.2082 1.0404c.1103.3417.6916.8043 1.3688.8942s6.1873-.9169 7.5681-1.4719c2.2558-.9074 3.7277-3.5229 5.1984-4.0383.6185-.2169 1.5762-.332 2.607-.4339 1.4192-.139 2.9786-.2517 3.9854-.5682 1.9394-.6089 2.9582-3.3047 3.1105-3.2507.0827.0413.1745.061.2669.0575.0924-.0036.1824-.0304.2617-.0779.1606-.0815.0887-.4339.0263-.6281z" fill="#f4ad00"/><path d="m91.4821 64.2468 63.9599-45.368 1.611 7.8093-65.6956 38.55z" fill="#fff" opacity=".18"/><path d="m192.267 44.0806c4.47-.676 5.109-2.619 5.939-8.6447.579 5.7164 1.318 7.8848 5.865 8.5368-3.965 1.6302-5.359 2.2212-6.067 8.8281-.976-6.6909-1.841-7.283-5.737-8.7202z" fill="#fff"/><path d="m144.569 22.434c2.847-.4303 3.253-1.6673 3.782-5.5042.369 3.6403.839 5.02 3.734 5.4347-2.525 1.0381-3.412 1.4144-3.862 5.6217-.622-4.26-1.176-4.6376-3.654-5.5522z" fill="#fff"/></g></g></svg>