<svg fill="none" height="175" viewBox="0 0 178 175" width="178" xmlns="http://www.w3.org/2000/svg" xmlns:xlink="http://www.w3.org/1999/xlink"><linearGradient id="a"><stop offset="0" stop-color="#31a25d"/><stop offset="1" stop-color="#006d2c"/></linearGradient><linearGradient id="b" gradientUnits="userSpaceOnUse" x1="30.5344" x2="74.9805" xlink:href="#a" y1="74.5395" y2="74.5395"/><linearGradient id="c" gradientUnits="userSpaceOnUse" x1="82.8389" x2="127.969" xlink:href="#a" y1="76.4594" y2="76.4594"/><linearGradient id="d" gradientUnits="userSpaceOnUse" x1="23.3996" x2="67.9299" xlink:href="#a" y1="142.933" y2="142.933"/><linearGradient id="e" gradientUnits="userSpaceOnUse" x1="81.9683" x2="129.415" xlink:href="#a" y1="141.146" y2="141.146"/><linearGradient id="f" gradientUnits="userSpaceOnUse" x1="132.885" x2="170.379" xlink:href="#a" y1="139.698" y2="139.698"/><linearGradient id="g"><stop offset="0" stop-color="#067431"/><stop offset="1" stop-color="#2e9f5a"/></linearGradient><linearGradient id="h" gradientUnits="userSpaceOnUse" x1="43.9641" x2="78.9723" xlink:href="#g" y1="48.7595" y2="89.3773"/><linearGradient id="i" gradientUnits="userSpaceOnUse" x1="95.8015" x2="129.421" xlink:href="#g" y1="51.9662" y2="90.7578"/><linearGradient id="j" gradientUnits="userSpaceOnUse" x1="28.5791" x2="58.9294" xlink:href="#g" y1="114.618" y2="181.401"/><linearGradient id="k" gradientUnits="userSpaceOnUse" x1="96.1396" x2="129.571" xlink:href="#g" y1="118.408" y2="158.324"/><linearGradient id="l" gradientUnits="userSpaceOnUse" x1="145.682" x2="177.985" xlink:href="#g" y1="118.068" y2="153.007"/><linearGradient id="m"><stop offset="0" stop-color="#311944"/><stop offset="1" stop-color="#6b3976"/></linearGradient><linearGradient id="n" gradientUnits="userSpaceOnUse" x1="147.713" x2="152.12" xlink:href="#m" y1="112.338" y2="112.212"/><linearGradient id="o"><stop offset="0" stop-color="#ffc444"/><stop offset="1" stop-color="#f36f56"/></linearGradient><linearGradient id="p" gradientUnits="userSpaceOnUse" x1="149.641" x2="146.783" xlink:href="#o" y1="113.13" y2="101.426"/><linearGradient id="q" gradientUnits="userSpaceOnUse" x1="136.141" x2="149.217" xlink:href="#m" y1="89.0553" y2="88.6789"/><linearGradient id="r" gradientUnits="userSpaceOnUse" x1="157.135" x2="161.134" xlink:href="#m" y1="112.465" y2="112.35"/><linearGradient id="s" gradientUnits="userSpaceOnUse" x1="156.692" x2="153.834" xlink:href="#o" y1="111.408" y2="99.7038"/><linearGradient id="t"><stop offset="0" stop-color="#f8db8b"/><stop offset="1" stop-color="#68b790"/></linearGradient><linearGradient id="u" gradientUnits="userSpaceOnUse" x1="131.569" x2="164.168" xlink:href="#t" y1="51.9583" y2="55.6085"/><linearGradient id="v" gradientUnits="userSpaceOnUse" x1="131.567" x2="164.164" xlink:href="#t" y1="51.9605" y2="55.6105"/><linearGradient id="w" gradientUnits="userSpaceOnUse" x1="161.174" x2="158.164" y1="58.6451" y2="45.1313"><stop offset="0" stop-color="#26264f"/><stop offset="1" stop-color="#444b8c"/></linearGradient><linearGradient id="x" gradientUnits="userSpaceOnUse" x1="159.634" x2="160.978" xlink:href="#o" y1="50.282" y2="50.2433"/><linearGradient id="y" gradientUnits="userSpaceOnUse" x1="97.6613" x2="154.848" xlink:href="#t" y1="59.4075" y2="64.834"/><linearGradient id="z" gradientUnits="userSpaceOnUse" x1="104.724" x2="124.624" xlink:href="#g" y1="42.9907" y2="86.1134"/><linearGradient id="A" gradientUnits="userSpaceOnUse" x1="122.593" x2="128.752" xlink:href="#o" y1="51.7916" y2="69.6458"/><linearGradient id="B" gradientUnits="userSpaceOnUse" x1="100.704" x2="123.774" xlink:href="#t" y1="48.0658" y2="52.6771"/><linearGradient id="C" gradientUnits="userSpaceOnUse" x1="134.296" x2="140.457" xlink:href="#o" y1="47.7536" y2="65.6077"/><linearGradient id="D" gradientUnits="userSpaceOnUse" x1="129.185" x2="135.675" xlink:href="#m" y1="42.7972" y2="35.0982"/><linearGradient id="E" gradientUnits="userSpaceOnUse" x1="134.274" x2="130.539" xlink:href="#o" y1="37.3575" y2="50.4755"/><linearGradient id="F" gradientUnits="userSpaceOnUse" x1="130.109" x2="136.606" xlink:href="#m" y1="43.5825" y2="35.8748"/><linearGradient id="G" gradientUnits="userSpaceOnUse" x1="135.335" x2="134.607" xlink:href="#o" y1="39.3794" y2="40.9405"/><path d="m157.917 92.3409c3.624 2.3233 8.184.8496 10.181-3.2951s.671-9.3921-2.962-11.7091c-.187-.1197-.38-.2231-.572-.3233.672-2.3184 1.181-4.6808 1.525-7.0701.208.0157.417.0288.63.0251 4.146-.0746 7.442-3.9906 7.355-8.7474-.087-4.7569-3.523-8.5431-7.67-8.4586-.216.0051-.429.0257-.641.0508-.43-2.3727-1.022-4.713-1.773-7.0043.188-.1078.38-.2193.564-.3477 3.545-2.4543 4.679-7.7449 2.53-11.8113s-6.755-5.3602-10.292-2.9003c-.181.1253-.351.2637-.519.4041-1.393-1.794-2.924-3.476-4.58-5.0306.117-.2012.23-.4048.333-.6203 1.988-4.1573 4.588-8.6716.939-10.8859-8.419-5.11331-12.025-1.5037-14.005 2.6479-.102.2149-.19.4342-.276.6541-1.983-.7548-4.03-1.3318-6.116-1.7243.013-.2368.023-.4749.019-.7174-.086-4.7236 1.184-7.18788-2.929-7.56444-8.949-.82016-11.963 3.24994-11.878 7.96234.005.2462.023.4881.045.7287-2.056.5015-4.066 1.1812-6.005 2.0313-.092-.2162-.188-.4317-.299-.6423-2.108-4.0218-6.637-5.2944-10.107-2.8477-3.4709 2.4467-4.5735 7.6766-2.4748 11.6935.1077.2055.2254.3991.345.5908-1.5655 1.6242-3.0031 3.3671-4.3001 5.213-.1716-.1328-.3457-.2619-.5297-.3797-3.5457-2.2606-7.9943-.7594-9.939 3.3496s-.653 9.268 2.8845 11.5349c.1828.1178.3707.2187.5579.3133-.6546 2.2919-1.151 4.6261-1.4858 6.9861-.2028-.015-.4063-.0269-.6129-.0232-4.0335.084-7.2311 3.9474-7.1465 8.6303.0845 4.6829 3.4192 8.4215 7.4507 8.3495.211-.0038.4183-.0238.6262-.0476.4193 2.3443.9971 4.6574 1.7293 6.9234-.1878.1053-.3707.2149-.5516.3403-3.453 2.4022-4.5569 7.612-2.4663 11.6414s9.0267 6.4141 12.4916 4.0175c.1779-.1253-2.0931-1.3101-1.9278-1.4473 1.3667 1.7919 2.8701 3.475 4.4963 5.0343-.114.198-.226.3985-.327.611-1.9535 4.0968-.6568 9.2858 2.899 11.5948 3.556 2.31 8.038.866 10-3.237.102-.212.188-.429.273-.647 1.969.781 4.003 1.386 6.079 1.808-.013.237-.023.474-.019.716.086 4.715 3.465 8.504 7.554 8.462 4.088-.041 7.347-3.908 7.263-8.634-.005-.251-.023-.49-.046-.732 2.07-.472 4.094-1.125 6.05-1.951.093.22.191.439.301.65 2.129 4.073 6.713 5.429 10.239 3.02 3.525-2.41 4.659-7.68 2.52-11.7597-.11-.2087-.23-.4054-.352-.6003 1.595-1.6219 3.06-3.3659 4.383-5.2161.174.1385.352.2713.539.391zm-44.824-3.1228c-12.933-8.3426-17.6394-27.1538-10.547-42.0796 7.108-14.9604 23.416-20.4421 36.458-12.1797 13.098 8.2981 17.893 27.2697 10.674 42.3109-7.203 15.006-23.598 20.3268-36.585 11.9484z" fill="#97a6b7"/><path d="m166.718 69.9684c4.146-.0746 7.442-3.9906 7.355-8.7474s-3.523-8.5438-7.67-8.4585c-.216.0043-.429.0256-.641.0507-.43-2.3727-1.022-4.713-1.773-7.0043.188-.1078.38-.2193.563-.3477 3.546-2.4543 7.937-8.7092 5.432-12.5406-4.749-7.2681-9.657-4.6309-13.193-2.171-.181.1253-.351.2638-.52.4041-1.392-1.7941-2.923-3.4761-4.579-5.0306.117-.2012.23-.4048.333-.6203 1.082-2.2619 1.177-4.8364.463-7.0801-3.407 6.3441-6.759 12.7141-10.058 19.11 10.456 9.2148 13.793 26.0943 7.245 39.7357-5.537 11.5374-16.515 17.3431-27.196 15.6013-.475 1.3214-.942 2.651-1.451 3.9561-1.381 3.5412-2.95 6.9892-4.519 10.4302.987.293 1.978.539 2.973.74-.012.237-.022.474-.018.716.085 4.716 2.674 8.944 10.086 9.164 4.107.122 4.814-4.609 4.729-9.336-.005-.247-.024-.489-.046-.731 2.069-.472 4.094-1.125 6.049-1.951.094.22.191.439.303.65 2.129 4.073 9.53 6.372 13.059 3.962 3.528-2.411 1.837-8.622-.302-12.7018-.109-.2087-.229-.4054-.351-.6003 1.595-1.622 3.06-3.366 4.383-5.2161.175.1353.353.2682.541.3878 3.624 2.3233 8.183.8497 10.181-3.295 1.997-4.1447.671-9.3928-2.962-11.7092-.188-.1196-.38-.2236-.572-.3233.672-2.3179 1.182-4.6799 1.526-7.0688.208.0157.417.0288.63.0251z" fill="#97a6b7"/><path d="m161.816 93.1535c3.631 2.3252 8.194.8515 10.194-3.2963 1.999-4.1478.672-9.3984-2.966-11.7166-.188-.1197-.38-.2237-.573-.3233.673-2.32 1.183-4.6841 1.526-7.0751.209.0163.418.0294.631.0257 4.152-.074 7.45-3.9925 7.365-8.7524-.086-4.76-3.528-8.5488-7.68-8.4636-.217.0044-.43.0257-.642.0501-.431-2.3742-1.024-4.716-1.776-7.0086.191-.1078.381-.22.564-.3484 3.55-2.4549 4.686-7.7487 2.534-11.8182-2.151-4.0694-6.762-5.3645-10.305-2.9034-.181.1253-.352.2638-.52.4041-1.394-1.7949-2.926-3.4777-4.583-5.0331.116-.2012.23-.4054.333-.6209 1.991-4.1598.669-9.3803-2.949-11.654-3.619-2.2738-8.149-.7438-10.131 3.4103-.102.2149-.191.4349-.277.6548-1.986-.756-4.035-1.3337-6.124-1.7262.014-.2375.024-.4755.019-.718-.086-4.7268-3.48-8.46546-7.576-8.35017-4.095.11529-7.334 4.02937-7.249 8.74427.004.2468.023.4887.045.7293-2.059.5016-4.07 1.1815-6.011 2.0319-.092-.2168-.187-.4323-.299-.6428-2.111-4.0244-6.643-5.2988-10.12-2.8509-3.478 2.448-4.586 7.6804-2.483 11.6998.108.2061.226.3997.346.5914-1.568 1.6257-3.007 3.37-4.3061 5.2174-.1715-.1322-.3462-.2619-.5303-.3791-3.5501-2.2631-8.0043-.7613-9.9515 3.3496-1.9472 4.1108-.6536 9.273 2.8883 11.5431.1834.1178.3706.2186.5585.3164-.6551 2.2933-1.1522 4.629-1.4877 6.9905-.2028-.015-.4063-.0276-.6136-.0232-4.0384.0827-7.2397 3.9473-7.1552 8.6346s3.423 8.4272 7.462 8.3558c.2094-.0056.4184-.0217.6261-.0483.4204 2.3455.9994 4.6597 1.7331 6.9266-.1878.1053-.3712.215-.5522.3409-3.4574 2.4028-4.5625 7.6158-2.4694 11.6477s6.6005 5.3665 10.0667 2.9686c.1778-.1253.3456-.2581.5103-.3953 1.369 1.7932 2.874 3.4776 4.502 5.0381-.114.198-.226.3992-.327.6116-1.956 4.0978-.658 9.2908 2.903 11.6028 3.56 2.311 8.048.867 10.012-3.238.102-.213.188-.429.274-.648 1.971.782 4.008 1.388 6.086 1.811-.013.236-.023.474-.019.716.086 4.718 3.469 8.51 7.563 8.468 4.093-.041 7.356-3.909 7.27-8.639-.004-.25-.023-.49-.045-.731 2.072-.473 4.098-1.125 6.057-1.952.094.219.191.439.303.65 2.132 4.078 6.72 5.433 10.25 3.023 3.53-2.411 4.665-7.683 2.524-11.7665-.11-.2086-.23-.4054-.352-.6002 1.596-1.6228 3.063-3.3679 4.388-5.2192.173.1353.35.2681.539.3884zm-44.881-3.1328c-12.949-8.3495-17.6619-27.1732-10.56-42.1047 7.117-14.9691 23.444-20.4521 36.502-12.1828 13.115 8.3051 17.916 27.2891 10.688 42.3391-7.211 15.0136-23.626 20.3355-36.63 11.9503z" fill="#d8dee8"/><g fill="#fcfdfe" opacity=".5"><path d="m109.909 135.034.41-.091c-.54-2.444-1.115-4.905-1.71-7.311-4.4-17.81-10.3017-34.565-17.5427-49.7991-6.1359-12.9071-13.3156-24.9082-21.3405-35.6656-6.454-8.6515-13.4872-16.5499-20.9035-23.4759-5.2143-4.8696-10.5625-9.21039-15.8964-12.90708-.9298-.64347-1.9166-1.25312-2.8701-1.83707-1.2735-.78006-2.5884-1.58832-3.778-2.4912l-.2505.33521c1.2059.91541 2.5289 1.72868 3.8087 2.51564.9498.58395 1.9309 1.19046 2.8513 1.82453 5.317 3.68291 10.649 8.01177 15.8482 12.86827 7.3982 6.909 14.4145 14.7868 20.8534 23.4201 8.0087 10.7355 15.1745 22.7115 21.298 35.5948 7.2285 15.2084 13.1211 31.9374 17.5141 49.7194.594 2.401 1.168 4.861 1.708 7.3z" opacity=".5"/><path d="m78.6105 55.909.3619-.2137c-9.1519-15.5462-5.2769-46.21932-5.2356-46.52946l-.4169-.05451c-.0407.30952-3.9346 31.12867 5.2906 46.79767z" opacity=".5"/><path d="m100.403 101.643.384-.17c-4.9842-11.2938-27.6407-18.2429-27.8693-18.3119l-.1208.4029c.226.0696 22.6998 6.963 27.6061 18.079z" opacity=".5"/><path d="m102.677 108.296.408-.099c-1.899-7.832-.308-19.5278 4.481-32.933.24-.6742.24-.6742.222-.7519l-.409.094.205-.047-.207-.0326c-.011.0464-.101.3007-.207.5959-4.819 13.4822-6.412 25.2636-4.493 33.1736z" opacity=".5"/><path d="m108.862 130.585.362-.212c-4.471-7.666-17.4794-9.635-17.6096-9.653l-.0626.416c.1283.018 12.9382 1.958 17.3102 9.449z" opacity=".5"/><path d="m110.544 135.007c.923-7.098 3.914-14.16 9.141-21.597l-.344-.242c-5.267 7.492-8.282 14.618-9.214 21.785z" opacity=".5"/><path d="m52.8364 23.1494.3493-.2331c-5.5724-8.3595-9.4843-18.43396-10.7691-21.74156-.3131-.801372-.422-1.0833235-.4778-1.17480104l-.3587.21866804c.0419.070175.2197.528815.4451 1.108383 1.2886 3.31825 5.2162 13.42461 10.8112 21.82241z" opacity=".5"/><path d="m63.9015 35.4011.2655-.3258c-7.2986-5.9523-26.0245-3.9793-26.8184-3.8928l.0457.4179c.1929-.0207 19.3451-2.0401 26.5072 3.8007z" opacity=".5"/></g><g fill="#beb8f2" opacity=".5"><path d="m87.8564 136.47-.3951.111c-.0682-.245-7.0018-24.749-21.1952-46.9669-13.0751-20.4684-35.1676-43.1279-66.160286-34.8416l-.105814-.3966c13.7958-3.6886 27.0043-1.6579 39.2574 6.035 9.7899 6.1459 18.9932 15.8995 27.3543 28.9889 14.2291 22.2682 21.1765 46.8252 21.2447 47.0702z" opacity=".5"/><path d="m44.2464 63.8475-.3889.1329c-4.4228-12.9328-17.5024-27.9871-17.6339-28.1381l.3087-.2707c.1302.1516 13.263 15.2673 17.7141 28.2759z" opacity=".5"/><path d="m35.9396 58.9453c-16.1901-1.6842-25.9838 7.691-26.0796 7.7862l-.28676-.2938c.0983-.0965 10.01786-9.6058 26.40826-7.9009z" opacity=".5"/><path d="m74.7547 104.645c-12.6006-15.3918-38.3383-8.12-38.5843-8.0279l-.1684-.3759c.2316-.1128 26.3531-7.3871 39.0695 8.1448z" opacity=".5"/><path d="m71.2762 97.2148-.3982.1009c-3.1219-12.3081 5.2456-25.9069 5.3307-26.0429l.3475.2174c-.0839.1348-8.3586 13.5882-5.28 25.7246z" opacity=".5"/><path d="m86.2857 132.749c-3.8325-6.516-16.1106-7.164-16.2339-7.169l.0194-.411c.5134.024 12.6231.665 16.5682 7.372z" opacity=".5"/><path d="m84.7224 126.924-.3938.115c-1.6768-5.737 3.4486-15.539 5.1341-18.76.2379-.456.4433-.849.4665-.926l.395.111c-.0306.109-.1665.371-.5008 1.003-1.6636 3.187-6.7314 12.879-5.101 18.457z" opacity=".5"/></g><g fill="#fcfdfe" opacity=".5"><path d="m77.5612 160.298.3951-.132c-9.6296-28.927-33.2417-53.035-61.6209-62.9173l-.1372.3941c28.2604 9.8402 51.7728 33.8482 61.363 62.6552z" opacity=".5"/><path d="m70.9598 144.977.4139-.051c-1.467-11.892 7.5634-22.419 7.6549-22.524l-.3131-.273c-.0952.106-9.2452 10.768-7.7557 22.848z" opacity=".5"/><path d="m75.6447 155.025.34-.241c-7.0294-9.904-29.1062-8.703-29.3285-8.689l.0251.416c.2198-.014 22.0674-1.202 28.9634 8.514z" opacity=".5"/><path d="m53.0942 121.03.3594-.211c-4.8838-8.305-.8278-22.514-.7864-22.6562l-.4001-.1171c-.042.1441-4.1487 14.5263.8271 22.9843z" opacity=".5"/><path d="m38.1787 108.695.1728-.38c-9.9821-4.561-23.9639.366-24.1054.417l.1409.393c.1396-.05 13.9648-4.92 23.7917-.43z" opacity=".5"/></g><path d="m30.5439 104.876v-57.8854l3.1989-2.8659 17.5531 4.0012c7.2629.3979 12.7314 2.0676 16.4499 4.9962 3.6953 2.9114 5.5403 6.9504 5.5349 12.117 0 2.9816-.6529 5.5047-1.9585 7.5694-1.3098 2.071-3.2435 3.5704-5.801 4.4981 2.8889.8843 5.0991 2.4317 6.6306 4.6422 1.5294 2.2042 2.2939 4.8608 2.2934 7.9698 0 5.639 1.8314 6.4498-1.4507 9.4021-4.4454 3.9973-12.2036 5.6913-19.052 5.7013zm14.0044-32.518 7.1765.2507c2.9807.0764 5.1005-.4133 6.3594-1.4693s1.888-2.652 1.8871-4.7882c0-2.4615-.6803-4.2643-2.0411-5.4084-1.3607-1.1441-3.573-1.7882-6.6368-1.9323l-6.7476-.3089zm0 9.322v14.1464l9.006.1372c2.4565.0376 4.339-.5144 5.6475-1.656 1.3086-1.1415 1.9621-2.7631 1.9604-4.8646 0-4.8501-2.3204-7.3514-6.9868-7.5036z" fill="url(#b)"/><path d="m102.532 87.2571-6.8374-.1604 3.1995 17.1323-3.1995 1.056-12.846-.08v-55.3497l3.1995-2.3364c6.1321.3358 28.5109 5.5362 31.9109 8.6346 3.381 3.081 5.069 7.2705 5.063 12.5687 0 3.8383-.71 6.9976-2.129 9.478-1.422 2.4874-3.658 4.4776-6.709 5.9704l13.759 20.2374-3.197 1.057-13.091-.082zm-6.8374-10.644 7.9814.2588c2.376.0772 4.159-.5383 5.349-1.8465 1.191-1.3083 1.785-3.1643 1.784-5.5682 0-2.4073-.6-4.3227-1.801-5.7462s-2.978-2.1911-5.332-2.3026l-7.9814-.3665z" fill="url(#c)"/><path d="m60.5829 158.689-18.7384.848-14.3693 15.018-4.066-2.975 21.3956-60.123 12.8554-.075 4.0697 2.975 6.1741 58.001-4.0697-2.975zm-15.4244-10.272 12.1936-.443-6.0858-20.12z" fill="url(#d)"/><path d="m125.323 166.042-8.044 3.634-4.066-2.974-18.3847-34.18-8.78 38.851-4.0698-2.975v-57.158l12.8467-.075 4.0659 2.975 14.2839 31.542v-34.624l12.146-.071 4.066 2.975z" fill="url(#e)"/><path d="m132.893 165.631v-54.689l15.664-.089c4.222-.024 7.994 1.023 11.315 3.142 3.303 2.104 5.872 5.079 7.707 8.924 1.832 3.835 2.758 8.147 2.778 12.935v2.433c0 4.843-.894 9.221-2.682 13.134-1.795 3.931-4.337 7.071-7.626 9.419-3.312 2.364-7.032 3.673-11.162 3.925l-11.93 3.844zm11.766-44.685v34.009l4.032-.182c3.305-.15 5.834-1.583 7.588-4.299 1.753-2.704 2.628-6.649 2.626-11.834v-2.311c0-5.161-.876-9.034-2.626-11.621-1.757-2.595-4.33-3.869-7.72-3.822z" fill="url(#f)"/><path d="m33.7432 103.82v-59.6953l20.7519 1.1366c7.263.3978 12.7321 2.0676 16.4506 4.9962 3.6953 2.9114 5.5402 6.9504 5.5348 12.117 0 2.982-.653 5.5051-1.9591 7.5694-1.3094 2.071-3.2429 3.5704-5.8003 4.4981 2.888.8839 5.098 2.4312 6.6299 4.6422 1.5302 2.2042 2.2949 4.8608 2.2941 7.9698 0 5.639-1.7024 9.8591-5.1072 12.6602-3.4299 2.8198-8.5471 4.2408-15.3956 4.2508zm14.0049-34.3241 7.1765.2507c2.9812.0764 5.101-.4134 6.3595-1.4693 1.2585-1.056 1.8875-2.6522 1.8871-4.7888 0-2.4611-.6806-4.2637-2.0418-5.4078-1.3611-1.1441-3.5734-1.7882-6.6368-1.9323l-6.747-.3089zm0 9.322v14.1464l9.006.1372c2.4565.0376 4.339-.5144 5.6476-1.656s1.962-2.7631 1.9604-4.8646c0-4.8502-2.3204-7.3514-6.9869-7.5043z" fill="url(#h)"/><path d="m105.732 84.9206-6.8381-.1604v19.9968l-12.846-.08v-57.1581l20.8281 1.1409c6.132.3359 10.881 2.0589 14.282 5.1572 3.381 3.0806 5.069 7.2702 5.063 12.5688 0 3.8383-.71 6.9976-2.129 9.4779-1.423 2.4875-3.659 4.4776-6.71 5.9705l10.56 22.5368v.568l-13.09-.082zm-6.8375-10.6439 7.9815.2587c2.376.0773 4.159-.5382 5.349-1.8464 1.191-1.3083 1.785-3.1648 1.784-5.5695 0-2.4073-.601-4.3226-1.801-5.7462-1.201-1.4235-2.978-2.1913-5.332-2.3032l-7.9815-.3653z" fill="url(#i)"/><path d="m64.6483 161.667-18.7384.848-3.3328 11.223-15.1025.821 21.3956-60.123 12.856-.075 20.3857 57.229-14.2128.772zm-15.4237-10.275 12.1929-.442-6.0852-20.121z" fill="url(#j)"/><path d="m129.389 169.017-12.11.658-18.3842-34.18v35.179l-12.846.698v-57.157l12.846-.075 18.3502 34.517v-34.625l12.147-.071z" fill="url(#k)"/><path d="m136.96 168.606v-54.689l15.667-.091c4.221-.025 7.993 1.022 11.313 3.141 3.304 2.104 5.873 5.079 7.708 8.925 1.832 3.834 2.758 8.145 2.777 12.934v2.433c0 4.842-.893 9.22-2.681 13.134-1.795 3.931-4.337 7.071-7.626 9.419-3.312 2.365-7.033 3.673-11.162 3.925zm11.766-44.685v34.01l4.032-.183c3.305-.15 5.835-1.583 7.589-4.299 1.753-2.704 2.628-6.648 2.624-11.833v-2.312c0-5.161-.875-9.034-2.624-11.621-1.757-2.595-4.331-3.869-7.72-3.822z" fill="url(#l)"/><path d="m147.75 110.415s-.178.799.04 1.378 3.793 2.346 4.301 2.529c.509.183-1.233-2.901-2.375-3.562-.84-.488-1.827-.756-1.966-.345z" fill="url(#n)"/><path d="m147.589 107.897.461 2.707s.734.735 1.377.363l-.089-3.105z" fill="url(#p)"/><path d="m144.753 67.4089c1.881 7.7779 3.236 15.674 4.055 23.6344.618 6.0123.929 12.0527.932 18.0967l-2.337-.177c-1.399-2.193-3.175-5.514-4.171-9.8252-1.285-5.5557.097-6.817-.84-11.6784-1.745-9.0544-7.941-11.9566-6.496-15.7987.59-1.5702 2.519-3.4555 8.857-4.2518z" fill="#364154"/><path d="m146.542 91.7732c-1.102-2.6359.439-4.3859-.645-8.4447-.781-2.9261-2.036-3.7212-3.52-6.4724-1.029-1.9085-2.093-4.6277-2.485-8.3827-2.582.916-3.597 2.124-3.997 3.1873-1.445 3.842 4.751 6.7443 6.496 15.7987.94 4.8614-.445 6.1227.84 11.6784.996 4.3092 2.772 7.6322 4.171 9.8252l2.337.177c0-4.461-.172-9.2572-.587-14.3424-1.454-.9925-2.207-2.0626-2.61-3.0244z" fill="url(#q)" opacity=".3"/><path d="m157.117 111.73s.28-1.052.783-.803 2.316 1.1 2.896 2.061c.58.96.547.962-.427.923-.975-.039-3.061-1.406-3.252-2.181z" fill="url(#r)"/><path d="m156.486 109.622 1.224 1.598s.35.586-.251.604l-2.015-1.057z" fill="url(#s)"/><path d="m128.354 76.3687c1.315 5.9974 3.693 11.7104 7.022 16.8682 6.806 10.5191 15.787 15.8521 20.357 18.1531l1.457-1.856c-1.507-5.926-4.102-9.3-6.266-11.3046-2.455-2.2744-3.789-2.2638-6.005-4.8559-2.912-3.4053-3.846-7.2123-4.537-10.1627-1.643-7.0175-.159-10.2681-1.999-11.4203-1.22-.7638-3.817-.5508-10.029 4.5782z" fill="#364154"/><path d="m134.989 42.2501c1.402.2318 3.525.7518 5.724 2.0676 5.08 3.0488 5.178 7.1478 10.21 9.1409.964.3815 3.811 1.5093 5.979.1253.872-.5564 1.366-1.3484 1.642-1.9217l1.544.3333c.26 1.8766.352 4.9862-1.488 7.4154-3.623 4.7856-12.773 4.3445-18.251.2318-4.977-3.7349-7.11-10.6383-5.36-17.3926z" fill="url(#u)"/><path d="m154.978 59.211c-2.176.3189-3.187-1.8866-8.819-4.0676-4.06-1.5714-5.089-1.0276-6.712-2.3252-1.612-1.2888-3.28-3.973-2.959-10.253-.557-.1428-1.064-.2431-1.502-.3132-1.75 6.7543.384 13.6589 5.36 17.3932 5.479 4.1127 14.628 4.5538 18.251-.2318 1.691-2.2312 1.749-5.0325 1.547-6.9297-1.79 5.1377-3.683 6.5099-5.166 6.7273z" fill="url(#v)" opacity=".3"/><path d="m161.146 46.3954-2.261-.5477c-.139-.0336-.284-.0126-.407.0586-.124.0712-.215.1871-.255.3236l-1.565 5.3258c-.021.073-.027.1497-.018.2252.01.0755.035.1482.073.2137.039.0654.091.1221.153.1666.061.0445.132.0757.206.0919l2.205.4774c.135.0296.276.0074.396-.0622.119-.0696.209-.1815.25-.3137l1.62-5.2537c.022-.0724.03-.1487.022-.2243-.007-.0755-.031-.1486-.068-.2148-.037-.0661-.087-.1239-.148-.1698-.06-.0458-.13-.0787-.203-.0966z" fill="url(#w)"/><path d="m159.925 52.3508s.899-1.5451 1.043-2.1096c.143-.5645-1.162-2.0401-1.162-2.0401s-.343 1.1347-.104 2.0764c.238.9417.223 2.0733.223 2.0733z" fill="url(#x)"/><path d="m146.996 71.1952c-2.328-11.4961-3.36-11.654-4.957-19.2579-.725-3.4505-.907-5.2963-2.603-7.1371-1.623-1.7625-3.648-2.4492-7.161-3.2581-3.443-.7964-8.259-2.005-14.262-2.1598-2.344-.0626-15.761 1.5295-15.424 6.2399.279 3.901 15.222 6.2819 20.349 6.9855.72 3.396 1.681 9.2731.354 16.1953-1.293 6.7505-3.947 10.2348-2.167 12.1552 1.35 1.4549 4.212.8929 6.056.5307 5.62-1.1027 6.182-4.5156 10.519-5.0557 4.768-.594 7.661 3.0915 9.422 1.6598.961-.7876.777-2.4386-.126-6.8978z" fill="url(#y)"/><path d="m137.355 67.5887c-1.308-4.1804-4.821-3.53-7.067-7.6553-2.421-4.4486.685-6.9999-1.842-11.5337-1.433-2.5689-4.308-5.114-7.61-5.5231-3.046-.3759-4.435 1.312-10.08 3.1115-2.202.7021-4.455 1.2321-6.738 1.5852 3.902 2.7481 14.713 4.4542 18.921 5.0312.72 3.396 1.681 9.2731.354 16.1953-1.293 6.7506-3.947 10.2349-2.167 12.1553 1.35 1.4548 4.212.8928 6.056.5307 5.62-1.1028 6.182-4.5157 10.519-5.0558.413-.051.829-.072 1.246-.0626-.367-.6503-.666-1.3361-.894-2.047-.953-2.9912.111-4.1434-.698-6.7317z" fill="url(#z)" opacity=".5"/><path d="m121.563 50.5613s2.442.8697 3.127 3.755.41 1.7337-.46 1.5081c-.87-.2255-4.035-4.7505-2.667-5.2631z" fill="url(#A)"/><path d="m104.918 44.1567s13.315-.9029 16.618 5.4511l-.326 2.8991s-25.9913-4.3903-16.292-8.3502z" fill="url(#B)"/><path d="m132.544 36.9976s-.827 3.4743-1.252 3.5626c-.424.0884-3.827-.0871-3.827-.0871s6.109 3.0294 9.527 2.5351l-2.003-1.0288s-1.16-1.5182-1.19-3.3559z" fill="url(#C)"/><path d="m136.368 38.0327c.631-.428 1.002-1.4267.72-2.2343-.243-.6955-.893-1.0057-1.283-1.1905-1.127-.5382-2.779-.5551-3.665.3509-.525.5369-.32 2.0958-.298 2.3709.024.3132.205.4768.332.7518.175.376.447.9756.885 1.9693.159-.2507.34-.4872.54-.7068.259-.2848.554-.5356.876-.7462.872-.542 1.295-.1585 1.893-.5651z" fill="url(#D)"/><path d="m132.283 39.0709s.338 1.5332 1.91 1.9599c1.409.3816 2.667-2.6397 2.011-3.5971-.218-.3189-.775-.6109-1.299-.641-.309-.0175-.444.0671-.95.0289-.465-.0357-.57-.1253-.736-.0627-.208.0802-.438.3759-.479 1.369-.172-.3558-.452-.5639-.712-.5369-.091.0151-.176.0552-.245.1159-.313.2901-.145.8515.5 1.364z" fill="url(#E)"/><path d="m133.218 36.5553c.049.0727-.238.2506-.376.5971-.262.671.147 1.7243.827 2.0344.401.1836.601-.0282 1.315.1347.346.0804.678.2158.982.401-.039.8214-.497 1.4963-1.114 1.6711-.665.1879-1.274-.2726-1.529-.4649-.17-.1291-.717-.5408-.845-1.2156-.134-.703.316-.9448.068-1.4743-.125-.2669-.35-.4385-.465-.9147-.025-.1018-.042-.2052-.051-.3095.488-.2551 1.119-.5639 1.188-.4593z" fill="url(#F)"/><path d="m135.374 39.8284s-.35.0532-.855-.1516c-.025-.0101-.055-.0119-.063 0-.028.0444.227.3759.56.3947.236.0131.474-.1335.463-.1955-.005-.0257-.054-.0401-.105-.0476z" fill="url(#G)"/></svg>