<svg fill="none" height="195" viewBox="0 0 195 195" width="195" xmlns="http://www.w3.org/2000/svg" xmlns:xlink="http://www.w3.org/1999/xlink"><linearGradient id="a"><stop offset="0" stop-color="#f8db8b"/><stop offset="1" stop-color="#68b790"/></linearGradient><linearGradient id="b" gradientUnits="userSpaceOnUse" x1="83.1152" x2="192.252" xlink:href="#a" y1="83.011" y2="89.5022"/><linearGradient id="c" gradientUnits="userSpaceOnUse" x1="84.4739" x2="149.28" xlink:href="#a" y1="81.1226" y2="83.1026"/><linearGradient id="d" gradientUnits="userSpaceOnUse" x1="107.276" x2="123.658" xlink:href="#a" y1="80.5401" y2="80.6622"/><linearGradient id="e" gradientUnits="userSpaceOnUse" x1="118.638" x2="143.047" xlink:href="#a" y1="42.2351" y2="43.4323"/><linearGradient id="f" gradientUnits="userSpaceOnUse" x1="100.151" x2="124.503" xlink:href="#a" y1="37.73" y2="39.6368"/><linearGradient id="g" gradientUnits="userSpaceOnUse" x1="86.1395" x2="116.316" xlink:href="#a" y1="99.271" y2="100.877"/><linearGradient id="h" gradientUnits="userSpaceOnUse" x1="111.14" x2="138.774" xlink:href="#a" y1="101.391" y2="104.44"/><linearGradient id="i" gradientUnits="userSpaceOnUse" x1="95.4645" x2="111.154" xlink:href="#a" y1="147.206" y2="148.151"/><linearGradient id="j" gradientUnits="userSpaceOnUse" x1="107.741" x2="126.042" xlink:href="#a" y1="140.624" y2="142.023"/><linearGradient id="k" gradientUnits="userSpaceOnUse" x1="-8.90432" x2="148.514" xlink:href="#a" y1="100.036" y2="118.325"/><linearGradient id="l"><stop offset="0" stop-color="#007e33"/><stop offset="1" stop-color="#55b079"/></linearGradient><linearGradient id="m" gradientUnits="userSpaceOnUse" x1="9.85717" x2="125.404" xlink:href="#l" y1="102.009" y2="102.009"/><linearGradient id="n" gradientUnits="userSpaceOnUse" x1="-15.7964" x2="119.472" xlink:href="#a" y1="150.573" y2="269.794"/><linearGradient id="o" gradientUnits="userSpaceOnUse" x1="2.84352" x2="111.625" xlink:href="#a" y1="38.2887" y2="118.298"/><linearGradient id="p"><stop offset="0" stop-color="#f68252"/><stop offset=".04" stop-color="#f99a4d"/><stop offset=".08" stop-color="#fcad49"/><stop offset=".13" stop-color="#feba46"/><stop offset=".2" stop-color="#ffc244"/><stop offset=".32" stop-color="#ffc444"/><stop offset=".45" stop-color="#fdb946"/><stop offset=".69" stop-color="#f99c4c"/><stop offset="1" stop-color="#f36f56"/></linearGradient><linearGradient id="q" gradientUnits="userSpaceOnUse" x1="14.4205" x2="74.062" xlink:href="#p" y1="181.851" y2="181.851"/><linearGradient id="r"><stop offset="0" stop-color="#ffdb44"/><stop offset="1" stop-color="#feef06"/></linearGradient><linearGradient id="s" gradientUnits="userSpaceOnUse" x1="44.5155" x2="47.6944" xlink:href="#r" y1="175.095" y2="201.561"/><linearGradient id="t" gradientUnits="userSpaceOnUse" x1="44.3787" x2="45.3552" xlink:href="#r" y1="173.915" y2="182.043"/><linearGradient id="u"><stop offset="0" stop-color="#f36f56"/><stop offset=".31" stop-color="#f99c4c"/><stop offset=".55" stop-color="#fdb946"/><stop offset=".68" stop-color="#ffc444"/><stop offset=".8" stop-color="#ffc244"/><stop offset=".87" stop-color="#feba46"/><stop offset=".92" stop-color="#fcad49"/><stop offset=".96" stop-color="#f99a4d"/><stop offset="1" stop-color="#f57e53"/></linearGradient><linearGradient id="v" gradientUnits="userSpaceOnUse" x1="45.2862" x2="44.3132" xlink:href="#u" y1="181.192" y2="173.093"/><linearGradient id="w" gradientUnits="userSpaceOnUse" x1="7.21443" x2="66.8567" xlink:href="#p" y1="175.778" y2="175.778"/><linearGradient id="x" gradientUnits="userSpaceOnUse" x1="37.3094" x2="40.4883" xlink:href="#r" y1="169.022" y2="195.487"/><linearGradient id="y" gradientUnits="userSpaceOnUse" x1="37.1719" x2="38.1484" xlink:href="#r" y1="167.842" y2="175.969"/><linearGradient id="z" gradientUnits="userSpaceOnUse" x1="38.0801" x2="37.1079" xlink:href="#u" y1="175.118" y2="167.02"/><linearGradient id="A" gradientUnits="userSpaceOnUse" x1="13.4322" x2="73.0738" xlink:href="#p" y1="169.723" y2="169.723"/><linearGradient id="B" gradientUnits="userSpaceOnUse" x1="43.5272" x2="46.706" xlink:href="#r" y1="162.967" y2="189.432"/><linearGradient id="C" gradientUnits="userSpaceOnUse" x1="43.3904" x2="44.367" xlink:href="#r" y1="161.786" y2="169.914"/><linearGradient id="D" gradientUnits="userSpaceOnUse" x1="44.2979" x2="43.3248" xlink:href="#u" y1="169.064" y2="160.964"/><linearGradient id="E" gradientUnits="userSpaceOnUse" x1="17.2047" x2="76.8469" xlink:href="#p" y1="163.65" y2="163.65"/><linearGradient id="F" gradientUnits="userSpaceOnUse" x1="47.3003" x2="50.4791" xlink:href="#r" y1="156.894" y2="183.359"/><linearGradient id="G" gradientUnits="userSpaceOnUse" x1="47.1638" x2="48.1403" xlink:href="#r" y1="155.713" y2="163.841"/><linearGradient id="H" gradientUnits="userSpaceOnUse" x1="48.0714" x2="47.0983" xlink:href="#u" y1="162.99" y2="154.891"/><linearGradient id="I" gradientUnits="userSpaceOnUse" x1="14.4205" x2="74.062" xlink:href="#p" y1="157.098" y2="157.098"/><linearGradient id="J" gradientUnits="userSpaceOnUse" x1="44.5162" x2="47.695" xlink:href="#r" y1="150.342" y2="176.807"/><linearGradient id="K" gradientUnits="userSpaceOnUse" x1="44.3787" x2="45.3552" xlink:href="#r" y1="149.162" y2="157.289"/><linearGradient id="L" gradientUnits="userSpaceOnUse" x1="45.2862" x2="44.3132" xlink:href="#u" y1="156.439" y2="148.339"/><linearGradient id="M" gradientUnits="userSpaceOnUse" x1="7.21443" x2="66.8567" xlink:href="#p" y1="151.025" y2="151.025"/><linearGradient id="N" gradientUnits="userSpaceOnUse" x1="37.3094" x2="40.4882" xlink:href="#r" y1="144.269" y2="170.734"/><linearGradient id="O" gradientUnits="userSpaceOnUse" x1="37.1719" x2="38.1485" xlink:href="#r" y1="143.088" y2="151.216"/><linearGradient id="P" gradientUnits="userSpaceOnUse" x1="38.0801" x2="37.1078" xlink:href="#u" y1="150.365" y2="142.266"/><linearGradient id="Q" gradientUnits="userSpaceOnUse" x1="13.4322" x2="73.0738" xlink:href="#p" y1="144.97" y2="144.97"/><linearGradient id="R" gradientUnits="userSpaceOnUse" x1="43.5279" x2="46.7068" xlink:href="#r" y1="138.214" y2="164.679"/><linearGradient id="S" gradientUnits="userSpaceOnUse" x1="43.3904" x2="44.367" xlink:href="#r" y1="137.033" y2="145.161"/><linearGradient id="T" gradientUnits="userSpaceOnUse" x1="44.2979" x2="43.3249" xlink:href="#u" y1="144.31" y2="136.211"/><linearGradient id="U" gradientUnits="userSpaceOnUse" x1="10.1978" x2="69.8401" xlink:href="#p" y1="138.897" y2="138.897"/><linearGradient id="V" gradientUnits="userSpaceOnUse" x1="40.2938" x2="43.4728" xlink:href="#r" y1="132.14" y2="158.606"/><linearGradient id="W" gradientUnits="userSpaceOnUse" x1="40.1563" x2="41.1329" xlink:href="#r" y1="130.96" y2="139.088"/><linearGradient id="X" gradientUnits="userSpaceOnUse" x1="41.0635" x2="40.0913" xlink:href="#u" y1="138.237" y2="130.138"/><linearGradient id="Y" gradientUnits="userSpaceOnUse" x1="68.3772" x2="103.226" xlink:href="#p" y1="136.871" y2="185.268"/><linearGradient id="Z" gradientUnits="userSpaceOnUse" x1="91.2741" x2="71.68" xlink:href="#r" y1="157.466" y2="175.269"/><linearGradient id="aa" gradientUnits="userSpaceOnUse" x1="92.1452" x2="86.1281" xlink:href="#r" y1="156.671" y2="162.138"/><linearGradient id="ab" gradientUnits="userSpaceOnUse" x1="85.3482" x2="91.3439" xlink:href="#u" y1="162.09" y2="156.642"/><linearGradient id="ac" gradientUnits="userSpaceOnUse" x1="67.9111" x2="43.8614" y1="30.3828" y2="233.668"><stop offset="0" stop-color="#f36f56"/><stop offset="1" stop-color="#ffc444"/></linearGradient><linearGradient id="ad"><stop offset="0" stop-color="#ffc444"/><stop offset="1" stop-color="#f36f56"/></linearGradient><linearGradient id="ae" gradientUnits="userSpaceOnUse" x1="62.5541" x2="45.9061" xlink:href="#ad" y1="55.4207" y2="196.139"/><linearGradient id="af" gradientUnits="userSpaceOnUse" x1="72.2012" x2="55.3173" xlink:href="#ad" y1="61.9489" y2="204.663"/><linearGradient id="ag" gradientUnits="userSpaceOnUse" x1="81.2334" x2="73.4021" xlink:href="#ad" y1="52.5914" y2="61.7543"/><linearGradient id="ah" gradientUnits="userSpaceOnUse" x1="96.3404" x2="90.9087" xlink:href="#ad" y1="54.4408" y2="65.4686"/><linearGradient id="ai" gradientUnits="userSpaceOnUse" x1="99.6346" x2="97.9861" xlink:href="#ad" y1="69.6239" y2="77.51"/><linearGradient id="aj" gradientUnits="userSpaceOnUse" x1="136.657" x2="140.311" xlink:href="#ad" y1="94.3891" y2="94.3891"/><linearGradient id="ak"><stop offset="0" stop-color="#067431"/><stop offset="1" stop-color="#2e9f5a"/></linearGradient><linearGradient id="al" gradientUnits="userSpaceOnUse" x1="128.67" x2="134.735" xlink:href="#ak" y1="80.0608" y2="96.4865"/><linearGradient id="am" gradientUnits="userSpaceOnUse" x1="162.645" x2="162.645" xlink:href="#ad" y1="184.314" y2="180.006"/><linearGradient id="an" gradientUnits="userSpaceOnUse" x1="142.671" x2="142.671" xlink:href="#ad" y1="186.218" y2="181.27"/><linearGradient id="ao" gradientUnits="userSpaceOnUse" x1="148.752" x2="154.73" xlink:href="#ad" y1="98.6578" y2="98.6578"/><linearGradient id="ap" gradientUnits="userSpaceOnUse" x1="150.062" x2="151.189" xlink:href="#ad" y1="98.1353" y2="98.1353"/><linearGradient id="aq" gradientUnits="userSpaceOnUse" x1="143.326" x2="161.082" xlink:href="#ak" y1="103.948" y2="129.594"/><linearGradient id="ar" gradientUnits="userSpaceOnUse" x1="124.903" x2="147.281" xlink:href="#l" y1="107.751" y2="107.751"/><linearGradient id="as" gradientUnits="userSpaceOnUse" x1="141.908" x2="150.896" xlink:href="#ak" y1="116.271" y2="133.8"/><linearGradient id="at" gradientUnits="userSpaceOnUse" x1="154.563" x2="157.983" xlink:href="#ad" y1="126.209" y2="126.209"/><linearGradient id="au" gradientUnits="userSpaceOnUse" x1="156.187" x2="171.746" xlink:href="#ak" y1="102.752" y2="128.662"/><linearGradient id="av" gradientUnits="userSpaceOnUse" x1="52.6647" x2="76.3571" xlink:href="#ak" y1="12.8279" y2="52.0181"/><linearGradient id="aw" gradientUnits="userSpaceOnUse" x1="52.6648" x2="67.6369" xlink:href="#ak" y1="12.3042" y2="45.4876"/><path d="m112.531 146.95c-1.382-.112-4.292-1.581-4.893-2.278-4.002-4.642-12.0601-12.842-11.9901-19.334.0112-1.108 4.8771-2.374 5.5171-3.423 2.908-1.563 4.013-1.925 6.051-4.777 6.016-8.42-9.3233-22.9391 7.417-29.116 12.261-4.5253 22.984-.7219 20.712-20.0928-2.271-19.3708 11.354-55.5311 32.413-42.9633 12.086 7.2122.989 24.3172 7.601 36.216 6.283 11.3064 1.857 21.0802-10.048 28.6262-11.904 7.5461-5.113 12.5739-1.025 23.4099 4.907 13.017-15.21 16.34-24.627 17.08-7.583.592-26.494 7.251-27.128 16.652z" fill="#d8dee8"/><path d="m92.457 123.814c3.3787 8.965 6.4492 18.228 9.805 27.275 5.438.178 11.837.255 12.715-6.499 1.22-9.391 17.12-13.759 24.7-14.313 9.385-.685 29.527-4.061 24.613-17.064-4.09-10.825-10.878-15.8645 1.026-23.4084 11.903-7.544 16.325-17.3185 10.045-28.6298-6.61-11.9029 4.482-28.996-7.601-36.2146-21.058-12.5783-34.69 23.6137-32.411 42.9563 2.278 19.3427-8.475 15.657-20.708 20.0787-16.6992 6.036-1.512 21.0708-7.383 28.9598-4.602 6.186-8.5066 5.284-14.801 6.859z" fill="url(#b)"/><g fill="#d8dee8" opacity=".8"><path d="m101.829 135.529-.115-.211c39.84-21.975 62.398-65.3364 60.343-115.9937l.239-.0098c.974 23.9981-3.787 47.2385-13.766 67.2087-5.141 10.2872-11.627 19.6228-19.269 27.7468-7.988 8.479-17.243 15.652-27.432 21.259z" opacity=".8"/><path d="m122.955 120.261-.08-.226c12.315-4.381 32.116-5.234 44.139-1.902l-.063.232c-11.981-3.321-31.72-2.47-43.996 1.896z" opacity=".8"/><path d="m109.592 131.13-.168-.17c4.804-4.803 7.009-11.861 6.553-20.981-.334-6.683-2.062-14.2976-5.138-22.6318l.224-.0838c3.082 8.3575 4.818 15.9956 5.152 22.7036.46 9.19-1.769 16.311-6.623 21.163z" opacity=".8"/><path d="m149.842 83.6264-.177-.1613c8.576-9.5034 21.646-12.5686 31.101-13.4666l.022.2395c-9.412.8938-22.422 3.9421-30.946 13.3884z" opacity=".8"/><path d="m159.278 55.8221-.239-.0064c.35-14.4716-8.513-26.7788-13.825-32.8261l.179-.1592c5.336 6.0769 14.234 18.4405 13.885 32.9917z" opacity=".8"/></g><path d="m117.391 159.503c-6.609.188-13.234.224-19.8774.107-.0883.114-4.6604-13.593.7004-22.153 10.651-16.629-.4511-27.902-4.3074-35.063-5.919-10.0123-6.1249-23.4169 6.0513-23.0513 11.8141.0803 9.4091-23.9236 4.2431-41.8308-3.239-8.5871 3.213-20.8415 11.102-24.7758 8.016-4.23011 17.468-.1408 23.161 17.1107 7.516 19.8117-5.205 34.808-8.919 46.0623-3.659 11.0514 10.383 16.9881 1.792 27.7249-7.151 9.455-16.915 17.069-11.234 26.355 5.77 9.154 6.211 17.394-2.712 29.514z" fill="#bfc6d1"/><path d="m117.39 159.503c-6.608.188-13.234.224-19.8767.107-.0883.114-4.6604-13.593.7003-22.153 10.6514-16.629-.451-27.902-4.3073-35.063-5.877-10.0116-5.7999-21.9913 5.0196-24.0803 11.9581-2.5539 10.6401-22.9678 5.2751-40.8018-3.24-8.5871 3.213-20.8415 11.102-24.7758 8.016-4.23011 17.468-.1408 23.161 17.1107 7.515 19.8117-5.206 34.808-8.919 46.0623-3.659 11.0515 10.382 16.9882 1.792 27.7249-7.151 9.455-16.916 17.069-11.234 26.355 5.77 9.154 6.211 17.394-2.713 29.514z" fill="url(#c)"/><g opacity=".8"><path d="m108.674 161.901c-.024-.124.953-30.819 6.531-61.534.65-4.9306 1.42-9.9172 2.165-14.7425 4.147-26.8873 8.065-52.2829-5.334-77.39669l.21-.1141c6.034 11.30919 9.059 23.84189 9.245 38.31489.169 12.9312-1.891 26.3027-3.888 39.2304-.744 4.8239-1.514 9.8119-2.164 14.743-5.351 29.466-6.612 60.534-6.532 61.459z" fill="url(#d)" opacity=".8"/><path d="m120.927 60.6924-.202-.1275c5.778-9.2935 12.45-22.2275 16.035-29.1756 2.772-5.3747 2.899-5.5817 3.053-5.5846l.005.2402v-.1204l.065.0986c-.165.157-1.375 2.5045-2.908 5.4768-3.589 6.9516-10.264 19.8913-16.048 29.1925z" fill="url(#e)" opacity=".8"/><path d="m121.199 49.3071c-3.097-8.9449-7.927-14.3308-11.433-17.2755-3.852-3.2399-7.048-4.3668-7.4-4.3668h-.009c.019-.003.036-.0119.05-.0253l-.166-.174c.054-.0521.13-.0542.313-.0099.855.2071 4.15 1.5495 7.945 4.8929 4.782 4.2111 8.56 10.0485 10.927 16.8811z" fill="url(#f)" opacity=".8"/><path d="m112.177 120.307c-1.034-18.716-16.3985-33.6275-22.9562-39.1697-.3257-.2747-.4595-.3888-.5001-.4374l.1828-.155c.0294.0352.2241.2.4714.4085 4.7192 3.9886 8.8627 8.325 12.3161 12.889 6.631 8.7646 10.239 17.6646 10.725 26.4496z" fill="url(#g)" opacity=".8"/><path d="m113.747 110.768-.222-.089c5.519-13.8861 21.597-17.6359 21.794-17.6359l.108.0958-.061.1303-.056-.1036.009.117c-.154.0204-16.088 3.6906-21.572 17.4854z" fill="url(#h)" opacity=".8"/><path d="m108.903 156.875c-.516-3.752-2.95-9.87-11.6268-17.717-.4665-.422-.4665-.422-.4686-.493l.1191-.004.1008-.062c.026.033.2032.194.4084.379 8.7271 7.895 11.1791 14.071 11.7011 17.862z" fill="url(#i)" opacity=".8"/><path d="m109.549 149.533-.237-.026c.748-6.931 9.074-13.382 13.972-16.615.158-.104.26-.171.296-.199l.144.192c-.037.029-.14.099-.309.211-4.865 3.204-13.129 9.604-13.866 16.437z" fill="url(#j)" opacity=".8"/></g><path d="m192.892 149.752-188.1879-1.614v4.773c0 1.296.82085 2.395 1.93237 2.594l53.21343 9.398c.63.112 1.2717.142 1.9093.088l129.0868-10.715c1.153-.096 2.046-1.201 2.046-2.536z" fill="#26264f"/><path d="m124.6 142.101-117.94984 8.733c-2.11027.157-3.82692-1.504-3.82692-3.709v-88.3251c0-2.2052 1.71665-3.9921 3.82692-3.9921h117.94984c1.738 0 3.144 1.6157 3.144 3.6082v79.846c0 1.992-1.406 3.712-3.144 3.839z" fill="#26264f"/><path d="m126.48 142.101-117.94968 8.733c-2.11027.157-3.82622-1.504-3.82622-3.709v-88.3251c0-2.2052 1.71595-3.9921 3.82622-3.9921h117.94968c1.738 0 3.145 1.6157 3.145 3.6082v79.846c0 1.992-1.41 3.712-3.145 3.839z" fill="url(#k)"/><path d="m122.805 136.473-109.8568 7.585c-1.7174.118-3.11324-1.244-3.11324-3.044v-77.3297c0-1.7995 1.39584-3.2645 3.11324-3.2722l109.8568-.4762c1.435-.0063 2.595 1.3178 2.595 2.9582v70.4319c0 1.639-1.16 3.049-2.595 3.147z" fill="url(#m)"/><path d="m71.6719 57.2236c0 .8206-.6072 1.4883-1.3567 1.4904-.7494.0021-1.3601-.6628-1.3601-1.4847 0-.822.6093-1.4903 1.3601-1.4903.7509 0 1.3567.6641 1.3567 1.4846z" fill="#fff"/><path d="m8.53032 150.834 117.35168-8.687.598-.044c.798-.059 1.523-.456 2.077-1.057-8.445-.464-13.69-3.478-17.074-6.592-6.794-6.254-5.616-12.421-12.943-16.532-9.1393-5.128-16.326 1.37-23.2613-5.042-4.2023-3.887-2.1404-6.785-7.3141-12.594-5.7299-6.4337-9.4609-4.2714-15.2195-10.0616-7.284-7.3249-3.642-13.0179-9.9119-18.2743-7.609-6.3775-15.8147-.4747-23.0581-6.591-3.1245-2.6376-4.8383-6.4726-5.7334-10.5506h-5.51138c-2.11027 0-3.82622 1.7868-3.82622 3.992v88.3245c0 2.205 1.71385 3.865 3.82622 3.709z" fill="#fff" opacity=".48"/><path d="m131.181 141.618-126.4769 9.191 55.1458 9.74c.6301.111 1.2717.141 1.9093.088l131.1328-10.885-59.699-8.074c-.667-.089-1.341-.109-2.012-.06z" fill="url(#n)"/><path d="m23.1602 150.888 105.2958-7.765 32.588 4.369-104.3892 8.301z" fill="#26264f"/><path d="m146.722 40.3975v78.9885c0 2.118-1.378 2.275-3.137 2.363l-43.6855 2.776-79.2419 5.034-1.0569.07c-2.2741.116-4.1253-1.753-4.1232-4.173l.0533-83.4168v-6.8206c0-2.4179 1.8406-4.2963 4.1147-4.197l.1478.007 29.4885 1.2819 94.3032 4.1132c1.761.0761 3.137 1.8552 3.137 3.9738z" fill="#364154"/><path d="m148.394 46.7209v72.5901c0 2.123-1.377 3.914-3.139 4.002l-45.12 2.279-78.9004 3.983c-.1942.009-.3887.004-.5821-.016-1.9975-.203-3.553-1.956-3.5509-4.167l.0406-82.9259v-.643l35.2372 1.3128 94.2886 3.5216z" fill="#fff"/><path d="m148.393 40.1764v6.5445l-1.717-.0564-94.2866-3.0553-35.2478-1.1431v-.643l.0238-6.8319c0-1.8524 1.0898-3.3885 2.6174-3.9639.4858-.1825 1.0032-.2644 1.5212-.2409l27.8124 1.2143 96.1386 4.1991c1.76.0746 3.138 1.8559 3.138 3.9766z" fill="url(#o)"/><path d="m26.7292 36.6569c0 1.067-.8111 1.9016-1.8112 1.8664-1.0002-.0352-1.8162-.9346-1.8155-2.0052s.8153-1.9066 1.8211-1.8664c1.0057.0401 1.8091.9381 1.8056 2.0052z" fill="#fff"/><g fill="#d8dee8"><path d="m139.698 76.4628-111.1609-.2437v-24.1644l111.1609 2.9109z"/><path d="m76.1096 119.011-47.5725 2.013v-35.2396l47.5725-.3493z"/><path d="m139.699 116.321-53.7879 2.274v-33.2311l53.7879-.3916z"/><path d="m100.157 125.592-78.9118 3.983c-.1959.009-.3924.004-.5876-.016l-1.0569.071c-2.2741.115-4.1253-1.754-4.1232-4.174l.0533-83.4168v-6.8206c0-2.4179 1.8406-4.2963 4.1148-4.197l.1477.007c.4846-.1824 1.0009-.2644 1.5178-.2408l27.8096 1.2142c.0581.1028.1114.2057.1653.3113 1.4841 2.8314 2.7497 6.4396 3.1125 10.8254.0126.157.0245.3141.0329.4733.3173 4.728-.416 10.3365-3.0284 16.8268-7.214 17.9404.8103 35.7659 11.7034 42.8532.3369.219.6752.427 1.0177.624 3.35 1.942 6.9282 2.87 10.3903 2.487 6.3035-.698 12.6483.764 17.7366 4.24.6504.445 1.2808.922 1.891 1.431 3.6014 3.029 6.3785 7.199 7.7624 12.454.0902.349.1746.704.2526 1.064z" opacity=".3"/></g><path d="m18.8525 177.269v5.781c0 1.869 11.6055 3.381 25.9214 3.381s25.9214-1.514 25.9214-3.381v-5.781z" fill="url(#q)"/><path d="m70.6953 177.269c0 1.868-11.6055 3.381-25.9214 3.381s-25.9214-1.515-25.9214-3.381c0-1.867 11.6055-3.381 25.9214-3.381s25.9214 1.513 25.9214 3.381z" fill="url(#s)"/><path d="m44.7737 180.885c-12.677 0-25.9368-1.218-25.9368-3.567 0-.129.0462-.356.1744-.356s.07.178.07.307c0 1.489 10.55 3.149 25.6896 3.149s25.6889-1.66 25.6889-3.149c0-.129.0217-.25.1505-.25.1289 0 .0967.172.0967.301.0028 2.349-13.2549 3.565-25.9333 3.565z" fill="url(#t)"/><path d="m42.3242 177.458c.2549-.178.5253-.353.8153-.524.3512-.2.7248-.357 1.1129-.467.5595-.16 1.131-.274 1.7089-.34.8498-.098 1.7046-.145 2.5599-.141 1.0016-.005 1.942.027 2.8212.097.7787.055 1.5534.158 2.3197.308.6663.137 1.2093.307 1.6291.509s.6679.433.7445.693l2.9185.03c.188-.001.3757.016.5603.052.1632.033.2424.076.2424.127v.242l-3.7527-.036c-.1317.295-.4669.566-1.0058.812-.5388.245-1.2247.458-2.0577.638l-1.3665-.191c-.1026-.014-.2037-.037-.3018-.07-.0785-.029-.117-.061-.117-.095 0-.046.1051-.099.3166-.159s.4503-.134.7158-.222c.2669-.088.5284-.192.783-.311.2549-.119.4251-.262.5141-.429l-8.8564-.088c-.2514.183-.5126.352-.7824.507-.3636.196-.7495.347-1.1493.449-.585.153-1.1806.261-1.7818.324-.8928.092-1.7899.136-2.6874.132-.8117.004-1.6018-.027-2.3757-.093-.6929-.054-1.3816-.152-2.0619-.295-.511-.101-1.0077-.265-1.4792-.487-.3839-.194-.5996-.416-.6444-.667l-2.403-.025c-.1902 0-.3801-.017-.5673-.05-.166-.033-.2501-.075-.2508-.129v-.242l3.2848.031c.1457-.255.4434-.476.8986-.665.5404-.216 1.0981-.384 1.667-.504l1.1003.151c.334.047.5.103.5.166 0 .035-.07.077-.2052.128-.1351.05-.3039.111-.4937.181-.1877.071-.3705.153-.547.248-.1555.077-.2922.187-.4.323zm-8.1049.328c.0658.159.2101.296.4364.41.2653.129.5458.224.8348.282.3709.079.7467.134 1.1248.163.4203.035.8575.051 1.3119.048.465 0 .9297-.023 1.3923-.07.3507-.036.6986-.096 1.0415-.178.268-.064.53-.151.7831-.26.2076-.091.4079-.199.5988-.321zm19.2803-.215c-.0658-.161-.2269-.301-.477-.423-.3071-.139-.6294-.241-.9602-.304-.4492-.091-.9038-.152-1.3609-.184-.5159-.04-1.086-.058-1.7103-.055-.4789-.002-.9575.023-1.4337.074-.3513.038-.6993.102-1.0415.19-.2584.066-.5091.16-.748.279-.1981.101-.3897.214-.5736.339z" fill="#fcb048"/><path d="m44.777 174.252c-11.5564 0-23.5926 1.023-25.5172 3.003.0748.069.145.144.2101.223 1.6228-1.375 11.5564-2.759 25.3071-2.759 14.1002 0 24.1963 1.456 25.4192 2.865.0601-.078.1249-.152.194-.222-1.5899-2.049-13.8502-3.11-25.6132-3.11z" fill="url(#v)"/><path d="m11.6465 171.196v5.782c0 1.868 11.6054 3.381 25.9214 3.381 14.3159 0 25.9213-1.515 25.9213-3.381v-5.782z" fill="url(#w)"/><path d="m37.5679 174.579c14.316 0 25.9213-1.515 25.9213-3.383s-11.6053-3.383-25.9213-3.383-25.9214 1.515-25.9214 3.383 11.6054 3.383 25.9214 3.383z" fill="url(#x)"/><path d="m37.5669 174.812c-12.677 0-25.936-1.218-25.936-3.567 0-.128.0455-.355.1737-.355.1281 0 .0735.177.0735.306 0 1.49 10.5499 3.149 25.6888 3.149s25.6896-1.659 25.6896-3.149c0-.129.0217-.25.1499-.25.1281 0 .0973.172.0973.301 0 2.349-13.2583 3.565-25.9368 3.565z" fill="url(#y)"/><path d="m35.1184 171.384c.2543-.177.5246-.352.8146-.524.3517-.199.7255-.355 1.1136-.466.5594-.16 1.131-.274 1.7089-.34.8496-.098 1.7042-.145 2.5593-.141 1.0015-.005 1.9419.027 2.8211.096.779.055 1.5539.159 2.3204.309.6654.137 1.2096.306 1.6284.508.4188.201.6647.433.7445.693l2.9192.03c.188-.001.3757.017.5604.052.1631.034.2423.076.2423.128v.241l-3.752-.036c-.1317.295-.4672.566-1.0064.812-.5393.245-1.225.458-2.0571.638l-1.3671-.191c-.1026-.013-.2035-.037-.3012-.071-.0792-.028-.117-.059-.1177-.094 0-.047.1058-.1.3173-.158.2115-.059.4501-.133.7158-.222.2667-.089.5281-.193.783-.312.2543-.119.4245-.262.5134-.428l-8.8564-.085c-.2511.184-.5123.353-.7823.508-.3635.196-.7492.346-1.1487.448-.5852.154-1.181.262-1.7825.324-.8925.092-1.7894.136-2.6866.132-.8118.004-1.6025-.027-2.3765-.092-.6929-.054-1.3816-.153-2.0619-.296-.5109-.101-1.0076-.265-1.4792-.487-.3838-.193-.5996-.415-.6437-.667l-2.403-.024c-.1905 0-.3806-.017-.568-.051-.1653-.032-.2501-.075-.2501-.129v-.241l3.2856.031c.1449-.255.4426-.477.8979-.665.5405-.215 1.0981-.384 1.6669-.505l1.1003.153c.3341.047.5001.102.5008.165 0 .035-.0701.077-.2059.128-.1359.05-.3033.111-.4903.181-.1878.071-.3707.154-.5477.249-.1555.076-.2921.186-.3999.322zm-8.1084.33c.0701.158.2136.295.4364.41.2653.129.5459.223.8348.282.371.079.7467.133 1.1249.162.4202.035.8575.051 1.3118.049.465.001.9298-.023 1.3924-.071.3506-.036.6985-.095 1.0414-.177.2681-.064.5303-.151.7838-.26.2075-.091.4075-.199.5981-.322zm19.281-.216c-.0665-.161-.2269-.302-.4776-.423-.307-.139-.629-.241-.9596-.304-.4492-.091-.9038-.152-1.3608-.184-.5165-.04-1.0868-.059-1.7111-.056-.4786-.001-.957.024-1.433.075-.3512.038-.6992.102-1.0415.19-.2583.066-.509.16-.748.278-.1983.102-.3901.215-.5743.341z" fill="#fcb048"/><path d="m37.571 168.18c-11.5565 0-23.5919 1.022-25.5173 3.002.0748.07.145.144.2101.223 1.6221-1.375 11.5564-2.759 25.3065-2.759 14.1002 0 24.1963 1.456 25.4199 2.865.0596-.078.1242-.152.1933-.221-1.5892-2.05-13.8495-3.11-25.6125-3.11z" fill="url(#z)"/><path d="m17.8643 165.141v5.781c0 1.869 11.6054 3.381 25.9213 3.381 14.316 0 25.9214-1.514 25.9214-3.381v-5.781z" fill="url(#A)"/><path d="m69.707 165.14c0 1.869-11.6054 3.381-25.9214 3.381-14.3159 0-25.9213-1.514-25.9213-3.381 0-1.866 11.6054-3.38 25.9213-3.38 14.316 0 25.9214 1.513 25.9214 3.38z" fill="url(#B)"/><path d="m43.7854 168.756c-12.677 0-25.9368-1.217-25.9368-3.566 0-.129.0463-.356.1744-.356.1282 0 .0701.177.0701.306 0 1.49 10.5506 3.15 25.6895 3.15s25.6889-1.66 25.6889-3.15c0-.129.0217-.249.1506-.249s.0973.172.0973.301c.0028 2.349-13.2555 3.564-25.934 3.564z" fill="url(#C)"/><path d="m41.3352 165.329c.255-.177.5253-.352.8153-.524.3517-.199.7254-.356 1.1136-.467.5592-.16 1.1305-.273 1.7082-.339.8498-.098 1.7046-.145 2.5599-.141 1.0016-.005 1.942.027 2.8212.096.7788.056 1.5534.159 2.3197.309.6658.137 1.2089.307 1.6291.508.4202.202.6684.433.7445.694l2.9185.03c.188-.001.3757.016.5603.052.1632.034.2424.076.2424.127v.242l-3.7527-.037c-.1317.296-.4669.567-1.0058.812-.5388.246-1.2247.459-2.0577.639l-1.3665-.191c-.1026-.014-.2037-.038-.3018-.071-.0785-.029-.117-.06-.117-.094 0-.047.1051-.1.3166-.159.2115-.06.4503-.134.7158-.222.2667-.088.5282-.192.783-.311.255-.12.4251-.263.5141-.429l-8.8557-.087c-.2512.184-.5124.353-.7823.508-.3637.195-.7497.346-1.1494.448-.585.153-1.1806.261-1.7818.324-.8928.092-1.7899.136-2.6874.132-.8117.004-1.6017-.027-2.3757-.092-.6928-.055-1.3816-.153-2.0619-.296-.5109-.101-1.0077-.265-1.4792-.487-.3838-.193-.5996-.416-.6444-.667l-2.403-.025c-.1902.001-.3801-.016-.5673-.05-.166-.032-.2501-.075-.2508-.129v-.242l3.2848.032c.1457-.255.4434-.477.8986-.665.5404-.216 1.0981-.385 1.667-.505l1.1003.152c.3341.048.5001.103.5001.166 0 .034-.0701.077-.2053.127-.1351.051-.3039.112-.4937.182-.1877.071-.3705.154-.547.249-.1556.076-.2923.186-.4.322zm-8.1049.33c.0659.158.2101.294.4364.409.2652.129.5458.224.8348.282.371.079.7467.133 1.1249.162.4202.035.8575.051 1.3118.049.465 0 .9297-.023 1.3924-.07.3506-.037.6985-.096 1.0414-.178.2679-.064.5298-.151.7831-.26.2075-.091.4077-.199.5988-.322zm19.2803-.216c-.0658-.161-.2269-.302-.477-.423-.3071-.139-.6294-.241-.9602-.304-.4492-.091-.9038-.152-1.3608-.184-.5165-.04-1.0866-.059-1.7104-.056-.4789-.001-.9575.024-1.4337.075-.3512.038-.6992.102-1.0415.19-.2584.067-.5091.162-.748.282-.1982.101-.3898.215-.5736.34z" fill="#fcb048"/><path d="m43.7887 162.124c-11.5564 0-23.5925 1.022-25.5172 3.002.0748.07.145.145.2101.224 1.6228-1.375 11.5564-2.759 25.3071-2.759 14.1003 0 24.1964 1.456 25.4192 2.864.06-.077.1248-.151.1941-.22-1.5899-2.05-13.8502-3.111-25.6133-3.111z" fill="url(#D)"/><path d="m21.6367 159.068v5.782c0 1.868 11.6055 3.381 25.9214 3.381s25.9214-1.515 25.9214-3.381v-5.782z" fill="url(#E)"/><path d="m47.5581 162.451c14.316 0 25.9213-1.515 25.9213-3.383s-11.6053-3.383-25.9213-3.383-25.9214 1.515-25.9214 3.383 11.6054 3.383 25.9214 3.383z" fill="url(#F)"/><path d="m47.5588 162.684c-12.677 0-25.9367-1.218-25.9367-3.567 0-.129.0462-.352.1744-.352.1281 0 .07.177.07.306 0 1.49 10.5507 3.149 25.6895 3.149 15.1389 0 25.6889-1.659 25.6889-3.149 0-.129.0224-.25.1506-.25.1281 0 .0973.172.0973.302.0028 2.346-13.2555 3.561-25.934 3.561z" fill="url(#G)"/><path d="m45.1097 159.256c.2542-.177.5245-.352.8145-.524.3517-.199.7255-.356 1.1136-.466.5592-.161 1.1306-.274 1.7083-.341.8498-.097 1.7046-.144 2.5599-.141 1.0015-.005 1.9419.027 2.8212.096.779.056 1.5539.159 2.3203.309.6654.138 1.2096.307 1.6285.508.4188.202.6646.433.7445.695l2.9185.029c.188-.001.3757.017.5603.052.1632.034.2423.076.2423.127v.242l-3.7527-.037c-.1312.297-.4664.568-1.0057.813s-1.225.459-2.0571.64l-1.3664-.191c-.1024-.013-.2033-.037-.3012-.07-.0791-.029-.1176-.061-.1176-.095 0-.047.1057-.1.3172-.159.2115-.058.4499-.132.7151-.221.2671-.089.5288-.193.7838-.312.2542-.12.4244-.263.5133-.429l-8.8564-.088c-.2512.184-.5124.353-.7823.507-.3634.196-.7491.347-1.1486.449-.5853.153-1.1811.261-1.7825.324-.8926.092-1.7895.136-2.6867.132-.8118.004-1.6025-.027-2.3764-.093-.6929-.053-1.3817-.152-2.062-.295-.5108-.102-1.0075-.265-1.4792-.487-.3838-.194-.5995-.416-.6444-.667l-2.4023-.025c-.1905.001-.3806-.016-.568-.05-.166-.032-.2501-.075-.2501-.129v-.241l3.2849.031c.1456-.254.4433-.476.8986-.666.5405-.215 1.0981-.384 1.6669-.504l1.1003.152c.3341.047.5001.102.5008.166 0 .034-.0701.076-.2059.127-.1359.051-.304.112-.4903.182-.1878.071-.3708.154-.5477.248-.1555.077-.2921.187-.3999.323zm-8.1057.329c.0659.159.2102.296.4364.41.2654.129.5459.224.8349.282.3709.079.7467.134 1.1248.163.4202.034.8575.05 1.3118.048.465.001.9298-.022 1.3924-.07.3507-.036.6986-.095 1.0415-.178.268-.064.5302-.151.7837-.259.2074-.092.4074-.199.5981-.322zm19.2804-.216c-.0659-.16-.2263-.301-.477-.422-.3068-.14-.6289-.242-.9595-.305-.4495-.091-.9043-.153-1.3616-.184-.5136-.04-1.0837-.058-1.7104-.056-.4786-.001-.957.024-1.4329.075-.3513.038-.6993.102-1.0415.191-.2584.065-.5092.158-.748.277-.1982.102-.39.215-.5744.34z" fill="#fcb048"/><path d="m47.5622 156.051c-11.5564 0-23.5919 1.023-25.5173 3.003.0748.069.145.144.2101.222 1.6221-1.374 11.5565-2.758 25.3065-2.758 14.1002 0 24.1963 1.456 25.4192 2.865.0601-.078.1249-.152.194-.221-1.5892-2.05-13.8495-3.111-25.6125-3.111z" fill="url(#H)"/><path d="m18.8525 152.516v5.784c0 1.869 11.6055 3.381 25.9214 3.381s25.9214-1.514 25.9214-3.381v-5.782z" fill="url(#I)"/><path d="m44.7739 155.898c14.316 0 25.9214-1.514 25.9214-3.382 0-1.869-11.6054-3.383-25.9214-3.383s-25.9214 1.514-25.9214 3.383c0 1.868 11.6054 3.382 25.9214 3.382z" fill="url(#J)"/><path d="m44.7737 156.131c-12.677 0-25.9368-1.217-25.9368-3.566 0-.129.0462-.356.1744-.356s.07.178.07.306c0 1.49 10.55 3.149 25.6896 3.149s25.6889-1.659 25.6889-3.149c0-.128.0217-.25.1505-.25.1289 0 .0967.173.0967.302.0028 2.352-13.2549 3.564-25.9333 3.564z" fill="url(#K)"/><path d="m42.3242 152.704c.2549-.177.5253-.352.8153-.524.3512-.199.7248-.356 1.1129-.467.5595-.159 1.131-.273 1.7089-.34.8498-.097 1.7046-.144 2.5599-.141 1.0016-.004 1.942.028 2.8212.097.7787.055 1.5534.158 2.3197.308.6663.138 1.2093.307 1.6291.509.4198.201.6679.433.7445.694l2.9185.029c.188-.001.3757.016.5603.052.1632.033.2424.076.2424.127v.242l-3.7527-.036c-.1317.296-.4669.566-1.0058.812-.5388.245-1.2247.458-2.0577.638l-1.3665-.191c-.1026-.014-.2037-.037-.3018-.07-.0785-.029-.117-.061-.117-.095 0-.046.1051-.099.3166-.159s.4503-.134.7158-.222c.2668-.088.5283-.192.783-.311.2549-.119.4251-.263.5141-.429l-8.8564-.088c-.2514.183-.5126.353-.7824.507-.3636.196-.7495.347-1.1493.449-.585.153-1.1806.261-1.7818.324-.8928.092-1.7899.136-2.6874.132-.8117.004-1.6018-.027-2.3757-.093-.6929-.054-1.3816-.152-2.0619-.295-.511-.101-1.0077-.265-1.4792-.487-.3839-.194-.5996-.416-.6444-.667l-2.403-.025c-.1902 0-.3801-.016-.5673-.05-.166-.032-.2501-.075-.2508-.129v-.241l3.2848.031c.1457-.255.4434-.477.8986-.665.5404-.216 1.0981-.384 1.667-.505l1.1003.152c.334.047.5.103.5.166 0 .034-.07.077-.2052.128-.1351.05-.3039.111-.4937.181-.1877.07-.3705.153-.547.248-.1555.076-.2922.187-.4.323zm-8.1049.329c.0658.159.2101.295.4364.41.2654.129.5459.224.8348.282.3709.079.7467.134 1.1248.163.4203.034.8575.05 1.3119.048.465 0 .9297-.023 1.3923-.07.3507-.036.6986-.096 1.0415-.178.268-.064.53-.151.7831-.26.2076-.091.4079-.199.5988-.321zm19.2803-.215c-.0658-.161-.2269-.302-.477-.423-.3072-.139-.6294-.241-.9602-.305-.4492-.091-.9037-.152-1.3609-.183-.5159-.04-1.086-.059-1.7103-.056-.4789-.001-.9575.024-1.4337.075-.3513.038-.6993.102-1.0415.19-.2585.067-.5093.162-.748.282-.1981.101-.3897.214-.5736.34z" fill="#fcb048"/><path d="m44.777 149.496c-11.5564 0-23.5926 1.023-25.5172 3.003.0746.069.1448.144.2101.222 1.6228-1.374 11.5564-2.758 25.3071-2.758 14.1002 0 24.1963 1.456 25.4192 2.865.0601-.078.1249-.152.194-.222-1.5899-2.046-13.8502-3.11-25.6132-3.11z" fill="url(#L)"/><path d="m11.6465 146.443v5.782c0 1.867 11.6054 3.38 25.9214 3.38 14.3159 0 25.9213-1.514 25.9213-3.38v-5.782z" fill="url(#M)"/><path d="m37.5679 149.826c14.316 0 25.9213-1.515 25.9213-3.383s-11.6053-3.383-25.9213-3.383-25.9214 1.515-25.9214 3.383 11.6054 3.383 25.9214 3.383z" fill="url(#N)"/><path d="m37.5669 150.06c-12.677 0-25.936-1.218-25.936-3.567 0-.13.0455-.352.1737-.352.1281 0 .0735.177.0735.306 0 1.49 10.5499 3.149 25.6888 3.149s25.6896-1.659 25.6896-3.149c0-.129.0217-.25.1499-.25.1281 0 .0973.172.0973.301 0 2.345-13.2583 3.562-25.9368 3.562z" fill="url(#O)"/><path d="m35.1184 146.631c.2543-.177.5246-.352.8146-.524.3518-.199.7256-.355 1.1136-.467.5594-.16 1.131-.273 1.7089-.339.8496-.098 1.7042-.145 2.5593-.141 1.0015-.005 1.9419.026 2.8211.096.779.055 1.5539.158 2.3204.309.6654.136 1.2096.306 1.6284.508.4188.201.6647.433.7445.693l2.9192.03c.188-.001.3757.016.5604.052.1631.034.2423.076.2423.127v.242l-3.752-.037c-.1317.296-.4672.567-1.0064.813-.5393.245-1.225.458-2.0571.638l-1.3671-.191c-.1026-.013-.2035-.037-.3012-.071-.0792-.029-.117-.06-.1177-.094 0-.047.1058-.1.3173-.159.2115-.058.4501-.132.7158-.221.2667-.089.5281-.193.783-.312.2543-.119.4245-.262.5134-.429l-8.8564-.088c-.2511.184-.5123.353-.7823.507-.3635.196-.7492.347-1.1487.449-.5852.153-1.181.261-1.7825.324-.8925.092-1.7894.136-2.6866.132-.8118.004-1.6025-.027-2.3765-.092-.6928-.055-1.3815-.154-2.0619-.296-.5109-.102-1.0076-.265-1.4792-.487-.3838-.194-.5996-.416-.6437-.667l-2.403-.025c-.1905.001-.3806-.016-.568-.05-.1653-.033-.2501-.075-.2501-.129v-.242l3.2856.032c.1449-.255.4426-.477.8979-.666.5405-.215 1.0981-.383 1.6669-.504l1.1003.152c.3341.047.5001.102.5008.166 0 .034-.0701.076-.2059.127-.1359.051-.3033.111-.4903.182-.1878.071-.3707.154-.5477.248-.1555.077-.2921.186-.3999.322zm-8.1084.33c.0701.158.2136.294.4364.409.2652.129.5458.224.8348.282.371.079.7467.133 1.1249.162.4202.035.8575.051 1.3118.049.465 0 .9297-.023 1.3924-.071.3506-.036.6985-.095 1.0414-.177.2681-.064.5303-.151.7838-.26.2072-.092.4072-.199.5981-.322zm19.281-.217c-.0665-.16-.2269-.301-.4776-.422-.307-.139-.629-.241-.9596-.304-.4492-.091-.9038-.153-1.3608-.184-.5165-.041-1.0868-.059-1.7111-.056-.4786-.001-.957.024-1.433.075-.3512.038-.6992.102-1.0415.19-.2584.067-.5091.162-.748.282-.1983.101-.3901.214-.5743.34z" fill="#fcb048"/><path d="m37.571 143.426c-11.5565 0-23.5919 1.023-25.5173 3.003.0748.069.145.144.2101.222 1.6221-1.374 11.5564-2.758 25.3065-2.758 14.1002 0 24.1963 1.456 25.4199 2.864.0598-.077.1244-.151.1933-.22-1.5892-2.051-13.8495-3.111-25.6125-3.111z" fill="url(#P)"/><path d="m17.8643 140.387v5.782c0 1.869 11.6054 3.381 25.9213 3.381 14.316 0 25.9214-1.514 25.9214-3.381v-5.782z" fill="url(#Q)"/><path d="m43.7856 143.77c14.316 0 25.9214-1.514 25.9214-3.383 0-1.868-11.6054-3.383-25.9214-3.383-14.3159 0-25.9213 1.515-25.9213 3.383 0 1.869 11.6054 3.383 25.9213 3.383z" fill="url(#R)"/><path d="m43.7854 144.002c-12.677 0-25.9368-1.217-25.9368-3.566 0-.129.0463-.352.1744-.352.1282 0 .0701.177.0701.306 0 1.49 10.5506 3.15 25.6895 3.15s25.6889-1.66 25.6889-3.15c0-.129.0217-.249.1506-.249s.0973.172.0973.3c.0028 2.346-13.2555 3.561-25.934 3.561z" fill="url(#S)"/><path d="m41.3359 140.576c.255-.177.5253-.352.8153-.524.3516-.199.7254-.356 1.1136-.467.5592-.16 1.1305-.273 1.7082-.339.8498-.098 1.7046-.146 2.56-.141 1.0015-.006 1.9419.027 2.8211.096.7788.055 1.5534.159 2.3197.309.6658.137 1.2089.306 1.6291.508s.6684.433.7445.694l2.9185.029c.188 0 .3757.017.5603.053.1632.033.2424.076.2424.126v.242l-3.7527-.036c-.1317.296-.4669.567-1.0058.812-.5388.246-1.2247.458-2.0577.638l-1.3665-.191c-.1026-.013-.2037-.037-.3018-.07-.0785-.029-.117-.06-.117-.094 0-.047.1051-.1.3166-.16s.4503-.133.7158-.221c.2667-.088.5282-.192.783-.311.255-.12.4252-.263.5141-.43l-8.8564-.088c-.2512.184-.5124.354-.7823.508-.3637.196-.7496.346-1.1494.449-.585.152-1.1806.261-1.7818.323-.8927.093-1.7898.137-2.6873.132-.8118.005-1.6018-.026-2.3758-.092-.6928-.054-1.3816-.153-2.0619-.296-.5109-.101-1.0077-.265-1.4792-.487-.3838-.193-.5996-.416-.6444-.667l-2.403-.025c-.1902.001-.3801-.016-.5673-.05-.166-.032-.2501-.075-.2508-.129v-.241l3.2849.032c.1456-.255.4433-.477.8985-.666.5404-.215 1.0981-.384 1.667-.504l1.1003.151c.3341.048.5001.103.5001.166 0 .035-.0701.077-.2053.128-.1351.05-.3039.111-.4937.181-.1876.071-.3703.154-.547.248-.1555.077-.2922.187-.4.323zm-8.1049.327c.0659.159.2101.295.4364.41.2652.129.5458.224.8348.281.371.08.7467.134 1.1249.163.4202.035.8575.051 1.3118.049.465 0 .9297-.024 1.3924-.071.3506-.036.6985-.095 1.0414-.177.2679-.064.5298-.151.7831-.26.2075-.092.4077-.199.5988-.322zm19.2803-.211c-.0658-.16-.2269-.301-.4769-.422-.3072-.139-.6295-.241-.9603-.305-.4492-.09-.9037-.152-1.3608-.183-.5165-.041-1.0866-.059-1.7104-.056-.4789-.002-.9575.023-1.4337.075-.3512.038-.6992.101-1.0415.19-.2583.066-.509.159-.748.278-.198.101-.3896.214-.5736.339z" fill="#fcb048"/><path d="m43.7887 137.371c-11.5564 0-23.5925 1.022-25.5172 3.002.0748.07.145.144.2101.223 1.6228-1.374 11.5564-2.758 25.3071-2.758 14.1003 0 24.1964 1.455 25.4192 2.864.06-.077.1248-.151.1941-.22-1.5899-2.051-13.8502-3.111-25.6133-3.111z" fill="url(#T)"/><path d="m14.6299 134.315v5.781c0 1.868 11.6054 3.381 25.9214 3.381 14.3159 0 25.9213-1.515 25.9213-3.381v-5.781z" fill="url(#U)"/><path d="m40.5522 137.697c14.316 0 25.9214-1.514 25.9214-3.382 0-1.869-11.6054-3.383-25.9214-3.383-14.3159 0-25.9213 1.514-25.9213 3.383 0 1.868 11.6054 3.382 25.9213 3.382z" fill="url(#V)"/><path d="m40.5513 137.931c-12.677 0-25.9361-1.218-25.9361-3.567 0-.129.0456-.356.1737-.356.1282 0 .0701.178.0701.307 0 1.489 10.5499 3.149 25.6888 3.149s25.6896-1.66 25.6896-3.149c0-.129.0217-.25.1499-.25.1281 0 .0973.171.0973.301.0035 2.348-13.2548 3.565-25.9333 3.565z" fill="url(#W)"/><path d="m38.1018 134.503c.2543-.177.5246-.353.8146-.524.3517-.199.7255-.356 1.1136-.467.5594-.16 1.131-.274 1.7089-.34.8496-.097 1.7042-.144 2.5593-.141 1.0015-.005 1.9419.027 2.8211.096.779.056 1.5539.159 2.3204.309.6654.137 1.2096.307 1.6284.508.4188.202.6647.433.7445.695l2.9192.029c.1881-.001.3758.016.5604.052.1631.033.2423.076.2423.127v.242l-3.752-.037c-.1317.297-.4672.568-1.0065.813s-1.2249.458-2.057.638l-1.3665-.191c-.1026-.014-.2037-.037-.3018-.07-.0792-.029-.117-.061-.1177-.096 0-.046.1058-.099.3173-.158s.4501-.133.7158-.222c.2668-.088.5283-.192.783-.311.2543-.12.4245-.263.5134-.429l-8.8564-.088c-.2513.183-.5124.353-.7823.507-.3633.196-.7491.347-1.1487.449-.5852.153-1.181.261-1.7825.324-.8925.092-1.7894.136-2.6866.132-.8118 0-1.6018-.027-2.3765-.093-.6929-.054-1.3817-.152-2.0619-.296-.5108-.101-1.0076-.265-1.4792-.486-.3838-.194-.5996-.416-.6437-.667l-2.403-.025c-.1905 0-.3806-.017-.568-.051-.1653-.031-.2501-.074-.2501-.128v-.242l3.2856.031c.1449-.254.4426-.476.8979-.665.5405-.215 1.0981-.384 1.6669-.504l1.1003.152c.3341.047.5001.102.5008.166 0 .034-.0701.076-.206.127-.1358.05-.3032.112-.4902.182-.1877.07-.3704.153-.547.248-.156.076-.2929.186-.4006.323zm-8.1056.329c.0701.159.2137.295.4364.41.2655.129.5463.224.8355.282.3707.079.7463.134 1.1242.163.4202.034.8575.051 1.3118.048.465.001.9298-.023 1.3924-.07.3506-.036.6986-.095 1.0414-.178.2681-.064.5303-.151.7838-.26.2074-.091.4074-.198.5981-.321zm19.281-.216c-.07-.161-.2269-.301-.4776-.423-.3069-.139-.6289-.241-.9596-.305-.4492-.09-.9038-.152-1.3608-.183-.5165-.041-1.0868-.059-1.7111-.056-.4786-.001-.957.024-1.433.075-.3512.038-.6992.102-1.0415.19-.2583.066-.509.159-.748.278-.1982.101-.39.215-.5743.34z" fill="#fcb048"/><path d="m40.5544 131.298c-11.5564 0-23.5919 1.023-25.5173 3.003.0748.069.145.143.2101.222 1.6221-1.375 11.5564-2.759 25.3065-2.759 14.1002 0 24.1963 1.457 25.4199 2.866.0596-.078.1242-.152.1933-.222-1.5892-2.049-13.8495-3.11-25.6125-3.11z" fill="url(#X)"/><path d="m73.8463 138.391-4.6856 3.351c-1.5135 1.082 3.9859 11.47 12.2835 23.202 8.2975 11.732 16.249 20.363 17.766 19.28l4.6848-3.351z" fill="url(#Y)"/><path d="m103.895 180.873c-1.513 1.083-9.4676-7.549-17.7651-19.281s-13.7977-22.115-12.2835-23.201c1.5143-1.087 9.4679 7.548 17.7654 19.28s13.7972 22.119 12.2832 23.202z" fill="url(#Z)"/><path d="m85.9408 161.727c-7.3492-10.389-14.0471-21.959-12.1434-23.32.1044-.075.3145-.169.3894-.064.075.106-.1015.163-.2059.238-1.2075.863 3.5629 10.47 12.3381 22.876 8.7751 12.406 16.235 20.089 17.44 19.228.105-.075.215-.127.29-.022.074.105-.084.18-.188.254-1.902 1.36-10.5718-8.8-17.9202-19.19z" fill="url(#aa)"/><path d="m87.2981 157.737c.2914.105.589.226.8972.363.365.173.7085.389 1.0233.642.454.366.8776.768 1.2663 1.203.571.641 1.104 1.314 1.5962 2.018.5841.817 1.1031 1.606 1.5569 2.367.4068.67.7724 1.365 1.0947 2.08.2746.625.452 1.168.5323 1.629.0803.462.0367.799-.1309 1.012l1.6676 2.41c.1091.153.2029.316.2801.488.0701.154.0792.242.0379.273l-.1954.14-2.1453-3.099c-.3157.065-.7294-.053-1.2411-.352-.5118-.299-1.0812-.737-1.7083-1.314l-.6366-1.23c-.0481-.093-.0873-.189-.117-.289-.0224-.082-.0189-.131.0084-.152.0378-.026.142.03.3124.168.1716.141.3691.292.5946.459.2264.167.4624.321.7067.46.2445.141.4588.197.6451.173l-5.0617-7.309c-.2945-.099-.5833-.215-.865-.346-.3694-.185-.7151-.414-1.0296-.682-.463-.391-.8959-.816-1.295-1.273-.5923-.678-1.1481-1.387-1.6648-2.125-.4739-.663-.9079-1.33-1.302-2.001-.3578-.599-.6771-1.22-.9561-1.861-.2136-.477-.369-.979-.4629-1.494-.0652-.427-.0105-.733.1674-.916l-1.3728-1.984c-.1104-.155-.2068-.32-.2879-.493-.07-.155-.0838-.249-.0413-.281l.1954-.141 1.8785 2.71c.2906-.028.6429.086 1.0604.352.4874.318.9473.677 1.3748 1.073l.5148.99c.1555.301.2101.47.1555.506-.028.021-.1016-.01-.2227-.094-.1212-.084-.2662-.185-.4329-.299-.1661-.113-.3392-.214-.5183-.305-.151-.083-.3184-.131-.4902-.141zm-4.965-6.451c-.0897.146-.1149.345-.0785.595.0488.291.1342.575.2543.845.1505.35.3241.69.5197 1.017.2143.363.4545.73.7207 1.103.2691.381.5573.748.8635 1.1.2325.267.4822.518.7474.751.2072.183.4296.348.6646.493.1944.117.3974.219.6073.304zm11.354 15.671c.0917-.147.1127-.361.0651-.634-.0651-.332-.169-.655-.3096-.963-.1866-.421-.4002-.829-.6394-1.222-.2666-.445-.5823-.923-.947-1.434-.2763-.393-.5737-.77-.8908-1.131-.2347-.265-.488-.514-.7579-.743-.2034-.173-.4243-.325-.659-.452-.1969-.104-.4-.195-.608-.273z" fill="#fcb048"/><path d="m91.3172 157.886c-6.6992-9.471-14.5036-18.74-17.2239-19.169-.013.101-.0324.202-.0581.301 2.0542.532 8.9355 7.872 16.9038 19.141 8.1729 11.555 12.844 20.672 12.412 22.49.098.005.195.016.292.031.739-2.494-5.5075-13.153-12.3258-22.794z" fill="url(#ab)"/><path d="m84.3514 65.7184c-.1728-.1488-.3817-.2487-.6054-.2895-.2237-.0409-.4543-.0212-.6679.057l-29.2721 10.7275c-.2118.0777-.3995.2102-.5441.3841-.1447.1739-.2413.3831-.28.6065-.0387.2233-.0182.453.0595.6659s.2097.4014.3829.5466l4.9321 4.1322-.0252.0183c-.1653.1303-.3292.2677-.4902.4078l-8.82 7.7905c-3.3437 2.9543-6.6862 5.9094-10.0275 8.8652-.1389.1228-.2498.2743-.325.4445-.0752.17-.113.354-.1108.54s.0443.369.1236.537c.0792.168.1936.317.3353.437 5.6171 4.742 11.2137 9.466 16.7897 14.172.0443.037.0911.072.1401.103 0 0 1.8763 1.67 3.7527-.796-.5197-.141-1.0723-.307-1.4638-.431 1.6809-2.677 3.3637-5.349 5.0484-8.017 2.6376-4.174 5.2839-8.3416 7.9389-12.5022.1113-.1732.2143-.3521.3145-.5268l5.2017 4.3569c.0372.0324.077.0616.1191.0873.101.067.2109.1191.3264.155.402.1408 1.0842.2232 2.0858-.1472 1.7509-.6501 1.7509-1.4418 1.8168-1.777.0378-.1923-1.0506-.3677-1.9891-.4818l5.6731-28.8361c.0448-.224.0295-.4559-.0442-.672s-.2032-.4086-.3753-.5577z" fill="url(#ac)"/><path d="m73.0333 80.643c-2.9157-2.4426-8.3675-1.8468-12.4872 1.2557-.166.1303-.3292.2677-.4903.4079-2.9416 2.597-5.8819 5.194-8.8207 7.7911-3.3432 2.9539-6.6854 5.9087-10.0268 8.8645-.1389.1228-.2497.2743-.3249.4442s-.113.3542-.1108.5401c.0021.1865.0443.3695.1235.5375s.1936.317.3354.436l16.7897 14.173c.1404.118.3042.205.4806.254.1763.049.3611.06.542.032s.3536-.095.5068-.196c.1531-.101.2831-.233.3812-.388 1.8519-2.952 3.7079-5.899 5.5681-8.842 2.6377-4.175 5.2838-8.3426 7.9383-12.5028.1148-.1775.2213-.3585.3242-.5416 2.4101-4.5041 2.1726-9.8393-.7291-12.2656z" fill="url(#ae)"/><path d="m86.5669 65.0486c-.1728-.1488-.3819-.2487-.6058-.2894s-.4545-.0208-.6682.0577l-29.272 10.726c-.2118.0777-.3995.2102-.5442.3841s-.2412.3831-.2799.6065-.0182.453.0595.6659c.0776.2129.2097.4014.3829.5466l23.3173 19.5328c.171.1431.3761.2391.5951.2784.2191.0394.4445.0208.6542-.0539.2098-.0748.3966-.2031.5421-.3723.1455-.1693.2448-.3737.288-.5932l5.9533-30.2595c.0441-.2242.0283-.4562-.0459-.6722-.0742-.2161-.2041-.4084-.3764-.5575z" fill="url(#af)"/><path d="m81.9744 54.8022c.6345 3.6948.7417 6.772.2633 6.9494-.4854.1606-2.3056-2.315-4.0937-5.6049s-1.9835-6.6128-.3502-7.1918c1.6333-.5789 3.5467 2.1573 4.1806 5.8473z" fill="url(#ag)"/><path d="m95.1983 58.2512c-2.7028 2.5828-5.1878 4.3816-5.6031 4.0794-.402-.3162.6346-3.2138 2.361-6.536 1.7265-3.3223 4.3677-5.3317 5.7551-4.2851 1.3875 1.0466.187 4.1625-2.513 6.7417z" fill="url(#ah)"/><path d="m95.1819 72.4742c-3.1063-2.0728-5.4042-4.1076-5.2039-4.5781.2171-.4648 3.2568-.0951 6.8638.8565 3.6072.9515 6.1422 3.0912 5.4372 4.6844s-3.9944 1.1079-7.0971-.9628z" fill="url(#ai)"/><path d="m134.499 80.8881.303-.8868-.9-.8311c-.097-.0905-.221-.1474-.353-.1622s-.265.0132-.38.0798c-1.251.7234-5.015 3.2695-5.985 8.2004-.025.1264-.011.2574.041.3753s.138.217.248.2839c.286.169.581.3209.885.455z" fill="#364154"/><path d="m139.2 91.314-.413 2.8799s0 .829-.119 1.1537c.34.4176 1.159.593 1.159.593l1.501-3.2892-2.031-1.3501z" fill="#364154"/><path d="m136.952 96.807-.295-1.8834s-.047-1.6502 1.579-2.751c1.626-1.1009 2.075-.1465 2.075-.1465l-.967.9064s-.63.5811-.602 1.9017c-.164 1.4431-.63 2.3003-.63 2.3003z" fill="url(#aj)"/><path d="m143.934 91.7175s-7.483-6.6995-9.135-11.7163c-5.089 1.6157-6.444 8.4018-6.444 8.4018s10.478 3.0137 13.967 5.5429c1.206-.3134 1.612-2.2284 1.612-2.2284z" fill="url(#al)"/><path d="m142.903 92.6508s.35-.6818 1.031-.9332c.301-.1268.104 1.8551-1.611 2.2284.193-.4315.386-.8632.579-1.2952z" fill="#364154"/><path d="m124.279 88.2207c.145-.0578.272-.1536.368-.2775.096-.1238.157-.2712.177-.4268 1.16-9.0519 7.354-10.7141 7.417-10.7296.221-.0595.411-.2043.527-.4031.117-.1988.151-.4357.095-.6595-.056-.2239-.197-.4167-.393-.5369s-.431-.1581-.654-.1056c-.303.076-7.415 1.9812-8.725 12.21-.019.1519.001.3063.059.448.058.1416.152.2656.272.3595.12.094.263.1547.414.1761s.304.0028.446-.0539z" fill="#364154"/><path d="m161.474 180.345s.935 2.367.689 3.417c.555-.006 1.108-.055 1.656-.149 0 0-.405-1.079-.484-1.614-.106-.722-.098-1.891-.098-1.891z" fill="url(#am)"/><path d="m144.174 186.539c.099.116.158.261.168.414.003.095-.014.19-.05.278-.152.403-.391.455-.649.882-.158.261-.127.34-.272.457-.19.155-.421.164-.62.167-.479.004-.957-.023-1.433-.081.32-.416.661-.836 1.023-1.262.158-.187.317-.369.475-.547l.941-.319z" fill="#26264f"/><path d="m143.39 181.946s-.538 2.822.147 3.612c.583.789-.281.226-.281.226l-1.033.906-.619 1.076s.57-2.762.42-3.858c-.15-1.095-.229-1.834-.229-1.834z" fill="url(#an)"/><path d="m138.126 128.962c-1.043 3.466-1.813 7.01-2.304 10.598-1.803 13.197 2.032 13.618 1.315 28.243-.228 4.669 4.022 15.432 4.396 15.669.195.021.392.028.588.024.508-.018 1.011-.102 1.497-.251.673-.116 3.1-6.728 2.537-10.658-.398-2.783-.28-5.768-.052-11.74.038-.968 2.5-18.825 2.5-18.825.749 6.61 1.611 12.226 2.356 16.58 2.399 13.99 10.199 22.457 10.605 22.593.08.033.812.3 1.41-.097.155-.098.279-.238.358-.404.21-.164-.062-13.967-2.441-24.355-3.453-15.077-1.949-18.605-3.043-25.34-.947-5.829-19.722-2.037-19.722-2.037z" fill="#364154"/><path d="m161.918 184.658s-.234 0-.215.303c.019.302-.105 1.344 1.082 1.393 1.186.05 1.368-.084 1.407-.084.038 0-.311-.997-.311-.997l-.379-.488-1.021-.108z" fill="#26264f"/><path d="m164.546 185.704c-.025-.252-.165-.648-.306-.967-.21-.473-.038-.65-.238-1.081-.063-.162-.158-.308-.28-.431-.23-.21-.53-.325-.841-.321-.136-.001-.271.031-.393.093-.152.089-.275.22-.355.377-.124.203-.096.266-.286.851-.059.178-.095.363-.106.55.311 0 1.507.049 1.76.235.121.096.219.219.285.36s.098.295.094.451c0 .312.155.459.311.449.14-.009.416-.268.355-.566z" fill="#444b8c"/><path d="m143.246 185.161c.254.005.441.208.582.698.141.491.816.925.028.822-.789-.104-1.362 1.019-1.643 1.434-.282.416-1.038.784-1.019.378.019-.405.35-.595.447-1.01.096-.415 1.024-2.331 1.605-2.322z" fill="#444b8c"/><path d="m148.79 98.6374c-.22-1.3847.577-2.5517.752-2.8025.733-1.0508.905-1.186 1.216-1.3466l.429-.2021.049-.0127c.269-.062 1.148.0134 1.321.0704.553.1874 1.553 2.7673.341 5.8461-.14.352.084.834.05.774.708 1.289 1.711.766 1.772.939.133.374-1.12.47-2.343.867-1.528.497-3.361.317-3.474-.189-.046-.206.171-.54 1.218-1.116.102-.299.204-.598.306-.897-.215-.146-1.474-.91-1.637-1.9306z" fill="url(#ao)"/><path d="m150.482 93.5495c-.343.6184-.219 1.4791.099 2.0305.19.3304.312.3346.364.5719.148.667-.952 1.3044-.79 1.6143.116.2212.708-.0479.901.2155.21.2888-.383.7691-.435 1.67-.008.1408-.057.9923.43 1.3383.454.325 1.163.005 1.961-.352.586-.258 1.134-.596 1.628-1.0039.529-.4487 1.097-.9311 1.443-1.7545.082-.1951.556-1.3706.102-2.6813-.596-1.7214-2.487-2.7806-4.051-2.5736-.252.0374-1.23.167-1.652.9248z" fill="#26264f"/><path d="m150.546 97.569c.288-.3134.687.0592.638.5029-.048.4437-.528.855-.932.7191-.405-.1359-.092-.7994.294-1.222z" fill="url(#ap)"/><path d="m152.073 101.616c-2.293-.07-6.733-.82-9.636 1.805-.05.046-.285.304-.578.65-.774.918-1.46 1.909-2.048 2.958-.612 1.097-1.165 2.377-1.722 4.283-.709 2.438-1.165 4.944-1.36 7.476-.531 7.016-.005 10.253.473 12.454 2.072 1.071 7.414 2.987 13.777 2.035 2.401-.363 4.723-1.133 6.869-2.275-1.652-5.028-.356-7.718.255-10.198 1.207-4.896 1.48-6.819 4.891-13.859.94-1.942 3.845-.442 2.415-2.146-2.194-2.616-11.284-3.122-13.336-3.183z" fill="url(#aq)"/><path d="m144.332 102.323c-2.161.619-6.308 2.485-6.709 1.945-.065-.089-.126-.251.281-1.388.815-2.275 1.513-2.9022 1.44-4.0073-.026-.3916-.157-.9635-.675-1.6375-.006 0-1.34-.7043-1.345-.7043-.393-.3036-.787-.6079-1.346-.7044-1.019.1554-2.011.461-2.941.9072-6.168 2.9772-10.382 12.7923-6.853 18.3303 3.239 5.082 13.212 6.903 21.094.536.065-10.239-1.473-13.698-2.946-13.277z" fill="url(#ar)"/><path d="m146.21 125.804c3.032-1.329 2.171-6.51 5.097-7.465 1.86-.61 3.075 1.197 4.807.293 1.857-.969 1.78-3.73 2.913-3.809.166-.012.362.036.586.195-.58 1.832-.941 3.48-1.51 5.786-.611 2.48-1.907 5.171-.255 10.198-2.145 1.143-4.468 1.912-6.869 2.276-6.363.951-11.705-.964-13.777-2.035-.28-1.297-.578-2.962-.667-5.541 1.074-.482 2.213-.768 3.412-.775 3.005-.012 4.304 1.737 6.263.877z" fill="url(#as)" opacity=".3"/><path d="m157.385 125.282c-.247.138-.536.176-.81.108-.49-.108-1.088-.515-1.621-.686-.533-.172-.576.621.21 1.029.787.407 1.471 1.222 1.771 1.844s1.045-.751 1.045-.751z" fill="url(#at)"/><path d="m157.726 102.652c1.212-.049 6.72-.141 11.27 4.01.915.836 5.263 4.805 4.895 10.483-.442 6.809-7.443 12.576-12.826 11.754-1.256-.191-2.275-.719-3.037-1.242l-.896-2.547c-.014-1.821.976-3.093 1.485-3.796 1.255-1.733 3.044-2.036 3.308-3.572.147-.849-.266-1.545-.634-2.167-1.255-2.117-3.258-2.379-4.295-3.461-1.069-1.119-2.293-3.92.73-9.462z" fill="url(#au)"/><path d="m59.8096 41.461 5.7081 12.8002.7936.2987s-.4966-4.7366-.6087-5.0711c-.112-.3346-2.2552-7.1552-2.2552-7.1552z" fill="#26264f"/><path d="m85.737 13.7694-43.2791-4.45626c-.7963-.04931-1.454.68459-1.454 1.61996v28.4671c0 .9599.6934 1.8115 1.5114 1.8502l39.6378-.6973c.9659.0381 5.926 2.0883 5.926 1.0783v-27.6458c0-1.0424-1.323-.1479-2.3421-.2162z" fill="#26264f"/><path d="m87.1158 12.029-44.0054-2.70244c-.8005-.0486-1.461.68674-1.461 1.61994v28.5354c0 .9621.7004 1.8157 1.5185 1.8552l17.9005.8451 5.2431 12.3777 4.2955-11.9663 16.5859.8508c.9959.0479 1.7706-.698 1.7706-1.7108v-27.7219c-.002-.5041-.1937-.9887-.5364-1.3565s-.8112-.5915-1.3113-.6262z" fill="url(#av)"/><path d="m88.4671 12.703-46.3061-3.01373c-.1659.16468-.2967.36153-.3846.57863s-.131.4499-.1267.6842v4.2083c.7634-.3458 1.4127-.3916 1.9429-.3183 1.4757.2042 1.8301 1.2966 4.7066 2.9982 2.7441 1.62 3.0348 1.0058 4.2632 2.1531 2.3975 2.2377 1.3441 4.5851 3.4628 7.0031 2.2412 2.5552 4.2023.8733 7.5053 3.4441 3.572 2.7792 2.422 5.5556 5.4091 7.5925 4.2871 2.9229 8.7906-1.2445 12.6406 1.684 1.183.9002 1.9436 2.1968 2.436 3.5787l3.1769.1521c.996.0479 1.7706-.698 1.7706-1.7108v-27.7254c-.0014-.4825-.178-.9479-.4966-1.3087z" fill="url(#aw)" opacity=".3"/><path d="m53.8671 15.726c.1673.0375.3172.1306.4255.2642.1083.1337.1686.3001.1713.4725v1.1854c.6688.1301 1.3293.3007 1.9778.5106.4861.1564.9689.3353 1.4484.5367.143.0622.2633.1673.3444.301s.1191.2893.1088.4456l-.1401 1.479c-.0371.3923-.4118.5952-.7641.4043-.3148-.1697-.6394-.3203-.9721-.4507-.5926-.2303-1.2077-.397-1.8351-.4973l-.1688-.0275v3.4026c1.7181.6289 2.9774 1.3945 3.7912 2.3003.8139.9058 1.2117 1.977 1.2117 3.2349 0 1.3594-.4468 2.4175-1.3405 3.1744-.9.7628-2.1635 1.1389-3.7996 1.1269v1.3114c0 .348-.2669.6008-.5968.5635h-.0105c-.1667-.0253-.3188-.1098-.4288-.2383-.11-.1284-.1706-.2923-.1707-.4618v-1.2938l-.2661-.031c-.7446-.0859-1.4829-.2197-2.2105-.4008-.5182-.1295-1.0291-.2872-1.5303-.4726-.1487-.0555-.2757-.1576-.3623-.2913-.0865-.1337-.1279-.2918-.1182-.451l.1653-1.908c.0364-.4128.4385-.6255.8188-.4423.4373.2112.8866.3965 1.3454.555.698.2421 1.4169.4185 2.1474.5268l.0105-3.7864c-1.6536-.5466-2.8933-1.2678-3.712-2.1637-.8188-.8959-1.2313-2.0052-1.2313-3.3103 0-1.3523.445-2.3618 1.3349-3.0285.8832-.66 2.1383-.9241 3.7541-.798v-1.215c.0035-.3493.2724-.5853.6023-.5268zm-.5988 4.4978c-.5104 0-.9084.1152-1.1942.3458-.2857.2305-.4288.5606-.4293.9903-.007.3871.1353.7619.3971 1.0459.2638.2916.6726.539 1.2264.7423zm1.0562 6.9326v3.4708c.5547.0409.98-.0662 1.2761-.3211.296-.255.4438-.6334.4433-1.1354.0108-.4271-.1351-.8432-.4097-1.1692-.276-.3235-.7125-.6052-1.3097-.8451z" fill="#fff"/><path d="m65.8114 16.6656c.1658.0375.3142.1301.4212.2629s.1663.2979.1685.4688v1.1812c.6616.1294 1.3148.2987 1.9562.5071.4804.1559.9576.3336 1.4316.5332.1416.0622.2606.167.3409.2998.0802.1329.1177.2874.1073.4425l-.1401 1.4685c-.0371.3895-.4069.5916-.7557.4022-.3108-.1691-.6317-.3187-.9609-.448-.5858-.2287-1.1941-.394-1.8147-.493l-.1667-.0275v3.3808c1.6984.624 2.9416 1.3853 3.7485 2.2855.8068.9001 1.1976 1.9657 1.1976 3.2159 0 1.3523-.4414 2.4048-1.3244 3.1574-.8902.7586-2.1397 1.1333-3.7569 1.1199v1.3037c0 .3465-.264.598-.5904.5634h-.0105c-.1651-.0258-.3155-.1102-.4242-.2378-.1086-.1276-.1683-.29-.1684-.458v-1.2868l-.2633-.031c-.7362-.0845-1.4661-.2169-2.1852-.3965-.5126-.129-1.0179-.2858-1.5136-.4698-.147-.0558-.2725-.1575-.3579-.2902-.0855-.1327-.1265-.2894-.1169-.4472l.1639-1.8982c.0357-.4099.4328-.6219.8089-.4395.4328.2093.8771.3934 1.3308.5515.6902.24 1.4011.415 2.1235.5226l.0105-3.7653c-1.6354-.5423-2.8611-1.2593-3.6672-2.1495-.8061-.8903-1.2173-1.994-1.2173-3.2927 0-1.3448.4399-2.3475 1.3196-3.0082.8734-.6564 2.1137-.9198 3.712-.7951v-1.2086c-.0021-.348.2634-.5825.5933-.524zm-.5919 4.4717c-.5052 0-.8988.115-1.1808.3451-.2821.2301-.4235.5587-.4245.986-.0069.3846.1336.757.3923 1.0403.2614.2892.6658.535 1.213.7374zm1.0464 6.8952v3.4512c.5477.0399.9679-.0667 1.2607-.3198s.4389-.6287.4385-1.1269c.0109-.4254-.1342-.8401-.4077-1.1649-.2745-.3226-.7062-.6025-1.295-.8396z" fill="#fff"/><path d="m77.6131 17.5945c.3222.0571.5834.3832.5834.7269v1.1748c.6541.1286 1.2999.2968 1.9338.5036.4749.1545.9467.331 1.4155.5296.1403.0622.2581.1664.3375.2983.0793.132.1163.2853.1058.4391l-.14 1.4601c-.0365.3874-.4021.5888-.7474.4007-.307-.1681-.6242-.3167-.9497-.4451-.5789-.2283-1.1804-.3936-1.7944-.493l-.1646-.0268v3.3667c1.681.6198 2.9108 1.3762 3.7058 2.2714.7949.8952 1.185 1.9538 1.185 3.1969 0 1.3443-.4368 2.3911-1.3104 3.1405s-2.111 1.1211-3.712 1.115v1.2966c0 .3444-.2613.5944-.5842.5585h-.0105c-.3228-.0359-.5855-.3451-.5855-.6909v-1.2812l-.2605-.0302c-.728-.0842-1.4498-.216-2.1607-.3945-.5068-.1278-1.0062-.2834-1.4961-.4662-.146-.0556-.2704-.1568-.355-.2888s-.1249-.2877-.1149-.4444l.1625-1.8869c.035-.4078.4279-.6184.7998-.4381.4289.2081.8695.3908 1.3195.5473.6828.2385 1.3862.4123 2.1012.5191l.0105-3.7435c-1.617-.5395-2.8256-1.2515-3.6259-2.1362-.8003-.8846-1.2016-1.9758-1.204-3.2736 0-1.3368.435-2.3341 1.3048-2.992.8636-.6529 2.09-.9156 3.6701-.7923v-1.2002c-.0049-.3458.2577-.5789.5806-.5212zm-.5855 4.4471c-.4996 0-.8888.1143-1.1676.343-.2787.2287-.4188.555-.4202.979-.0071.3821.1318.7524.388 1.0346.2587.2874.6584.5316 1.1991.7325zm1.0352 6.8551v3.4321c.5416.0399.9572-.0662 1.2466-.3183.2895-.2522.4343-.6266.4343-1.1234.0107-.4226-.1328-.8345-.4034-1.1579-.269-.3188-.6948-.5963-1.2775-.8325z" fill="#fff"/></svg>