<svg fill="none" height="186" viewBox="0 0 215 186" width="215" xmlns="http://www.w3.org/2000/svg" xmlns:xlink="http://www.w3.org/1999/xlink"><linearGradient id="a"><stop offset="0" stop-color="#f8db8b"/><stop offset="1" stop-color="#68b790"/></linearGradient><linearGradient id="b" gradientUnits="userSpaceOnUse" x1="-17.3388" x2="183.717" xlink:href="#a" y1="63.6874" y2="84.8228"/><linearGradient id="c"><stop offset="0" stop-color="#003848"/><stop offset=".18" stop-color="#003e4e"/><stop offset=".42" stop-color="#004f5f"/><stop offset=".7" stop-color="#006c7a"/><stop offset="1" stop-color="#00929f"/></linearGradient><linearGradient id="d" gradientUnits="userSpaceOnUse" x1="157.617" x2="137.019" xlink:href="#c" y1="138.845" y2="157.315"/><linearGradient id="e" gradientUnits="userSpaceOnUse" x1="100.459" x2="79.921" xlink:href="#c" y1="76.3794" y2="94.7972"/><linearGradient id="f"><stop offset="0" stop-color="#067431"/><stop offset="1" stop-color="#2e9f5a"/></linearGradient><linearGradient id="g" gradientUnits="userSpaceOnUse" x1="117.225" x2="140.74" xlink:href="#f" y1="102.098" y2="139.272"/><linearGradient id="h" gradientUnits="userSpaceOnUse" x1="98.9421" x2="109.841" xlink:href="#f" y1="91.3349" y2="108.552"/><linearGradient id="i" gradientUnits="userSpaceOnUse" x1="123.046" x2="128.107" xlink:href="#f" y1="151.492" y2="163.763"/><linearGradient id="j" gradientUnits="userSpaceOnUse" x1="121.236" x2="135.949" xlink:href="#f" y1="145.054" y2="168.426"/><linearGradient id="k" gradientUnits="userSpaceOnUse" x1="141.055" x2="181.871" xlink:href="#a" y1="87.0739" y2="90.7245"/><linearGradient id="l" gradientUnits="userSpaceOnUse" x1="129.122" x2="194.803" xlink:href="#a" y1="86.4896" y2="92.3786"/><linearGradient id="m" gradientUnits="userSpaceOnUse" x1="45.1839" x2="143.699" xlink:href="#a" y1="117.806" y2="128.162"/><linearGradient id="n" gradientUnits="userSpaceOnUse" x1="57.137" x2="176.001" xlink:href="#a" y1="43.7698" y2="56.2649"/><linearGradient id="o" gradientUnits="userSpaceOnUse" x1="147.21" x2="157.543" y1="95.9438" y2="96.8761"><stop offset="0" stop-color="#000c2b"/><stop offset=".22" stop-color="#041131"/><stop offset=".49" stop-color="#0e2141"/><stop offset=".69" stop-color="#182f50"/><stop offset=".79" stop-color="#153355"/><stop offset=".91" stop-color="#0b4063"/><stop offset="1" stop-color="#004e73"/></linearGradient><linearGradient id="p" gradientUnits="userSpaceOnUse" x1="34.3026" x2="84.8651" y1="53.5261" y2="53.5261"><stop offset="0" stop-color="#31a25d"/><stop offset="1" stop-color="#006d2c"/></linearGradient><linearGradient id="q"><stop offset=".15" stop-color="#82aab9"/><stop offset=".19" stop-color="#90b3c1"/><stop offset=".29" stop-color="#b2cbd4"/><stop offset=".4" stop-color="#cedee4"/><stop offset=".51" stop-color="#e4ecf0"/><stop offset=".64" stop-color="#f3f7f8"/><stop offset=".79" stop-color="#fcfdfd"/><stop offset="1" stop-color="#fff"/></linearGradient><linearGradient id="r" gradientUnits="userSpaceOnUse" x1="36.898" x2="35.4882" xlink:href="#q" y1="33.5296" y2="32.5012"/><linearGradient id="s" gradientUnits="userSpaceOnUse" x1="68.1022" x2="66.7131" y1="44.3069" y2="45.0746"><stop offset="0" stop-color="#220e07"/><stop offset=".3" stop-color="#26120b"/><stop offset=".6" stop-color="#321e17"/><stop offset=".9" stop-color="#46332b"/><stop offset="1" stop-color="#4e3b33"/></linearGradient><linearGradient id="t"><stop offset="0" stop-color="#35221c"/><stop offset=".25" stop-color="#39261f"/><stop offset=".5" stop-color="#453029"/><stop offset=".75" stop-color="#5a4239"/><stop offset="1" stop-color="#765b50"/></linearGradient><linearGradient id="u" gradientUnits="userSpaceOnUse" x1="75.4794" x2="76.2127" xlink:href="#t" y1="46.2439" y2="42.0226"/><linearGradient id="v" gradientUnits="userSpaceOnUse" x1="79.0122" x2="84.529" xlink:href="#t" y1="51.1924" y2="51.2306"/><linearGradient id="w" gradientUnits="userSpaceOnUse" x1="137.735" x2="171.791" y1="101.254" y2="123.899"><stop offset="0" stop-color="#001431"/><stop offset=".34" stop-color="#182f50"/><stop offset=".56" stop-color="#153355"/><stop offset=".81" stop-color="#0b4063"/><stop offset="1" stop-color="#004e73"/></linearGradient><linearGradient id="x"><stop offset=".15" stop-color="#82aab9"/><stop offset=".23" stop-color="#98b9c5"/><stop offset=".39" stop-color="#bdd2da"/><stop offset=".55" stop-color="#dae6ea"/><stop offset=".7" stop-color="#eef4f6"/><stop offset=".85" stop-color="#fbfcfd"/><stop offset="1" stop-color="#fff"/></linearGradient><linearGradient id="y" gradientUnits="userSpaceOnUse" x1="120.932" x2="84.237" xlink:href="#x" y1="69.7647" y2="82.6705"/><linearGradient id="z" gradientUnits="userSpaceOnUse" x1="77.6914" x2="83.4819" xlink:href="#x" y1="63.2148" y2="63.2148"/><linearGradient id="A" gradientUnits="userSpaceOnUse" x1="75.6787" x2="78.162" xlink:href="#x" y1="68.6932" y2="68.6932"/><linearGradient id="B" gradientUnits="userSpaceOnUse" x1="99.8142" x2="119.95" xlink:href="#f" y1="57.3602" y2="105.718"/><linearGradient id="C" gradientUnits="userSpaceOnUse" x1="118.101" x2="116.888" xlink:href="#q" y1="90.9988" y2="92.757"/><linearGradient id="D" gradientUnits="userSpaceOnUse" x1="100.89" x2="119.886" xlink:href="#f" y1="56.7313" y2="94.2878"/><linearGradient id="E"><stop offset="0" stop-color="#ffc444"/><stop offset="1" stop-color="#f36f56"/></linearGradient><linearGradient id="F" gradientUnits="userSpaceOnUse" x1="80.4032" x2="77.3758" xlink:href="#E" y1="68.1633" y2="73.0896"/><linearGradient id="G" gradientUnits="userSpaceOnUse" x1="120.245" x2="116.004" xlink:href="#E" y1="69.5634" y2="95.9479"/><linearGradient id="H"><stop offset="0" stop-color="#3f6475"/><stop offset=".77" stop-color="#9fa69e"/></linearGradient><linearGradient id="I" gradientUnits="userSpaceOnUse" x1="173.737" x2="163.453" xlink:href="#H" y1="101.396" y2="109.177"/><linearGradient id="J" gradientUnits="userSpaceOnUse" x1="138.265" x2="141.693" xlink:href="#H" y1="144.219" y2="132.256"/><linearGradient id="K" gradientUnits="userSpaceOnUse" x1="189.643" x2="158.2" y1="96.4854" y2="181.047"><stop offset="0" stop-color="#b5bab3"/><stop offset=".16" stop-color="#acb5b1"/><stop offset=".42" stop-color="#93a6ac"/><stop offset=".75" stop-color="#6b8fa5"/><stop offset=".77" stop-color="#688da4"/><stop offset=".85" stop-color="#557a8e"/><stop offset=".94" stop-color="#456a7c"/><stop offset="1" stop-color="#3f6475"/></linearGradient><linearGradient id="L" gradientUnits="userSpaceOnUse" x1="121.438" x2="222.19" xlink:href="#a" y1="127.011" y2="135.474"/><linearGradient id="M" gradientUnits="userSpaceOnUse" x1="137.069" x2="172.103" xlink:href="#f" y1="93.7777" y2="173.592"/><linearGradient id="N" gradientUnits="userSpaceOnUse" x1="135.089" x2="204.252" xlink:href="#a" y1="126.511" y2="132.294"/><linearGradient id="O" gradientUnits="userSpaceOnUse" x1="157.545" x2="181.662" xlink:href="#f" y1="108.974" y2="144.593"/><linearGradient id="P" gradientUnits="userSpaceOnUse" x1="151.169" x2="187.476" xlink:href="#a" y1="126.675" y2="129.687"/><linearGradient id="Q" gradientUnits="userSpaceOnUse" x1="163.713" x2="173.069" xlink:href="#f" y1="120.646" y2="134.441"/><linearGradient id="R" gradientUnits="userSpaceOnUse" x1="162.195" x2="172.126" xlink:href="#f" y1="67.6417" y2="76.3113"/><linearGradient id="S" gradientUnits="userSpaceOnUse" x1="155.072" x2="171.066" xlink:href="#a" y1="97.494" y2="98.2602"/><linearGradient id="T" gradientUnits="userSpaceOnUse" x1="175.661" x2="180.236" xlink:href="#f" y1="84.469" y2="91.6097"/><linearGradient id="U" gradientUnits="userSpaceOnUse" x1="142.812" x2="150.166" xlink:href="#f" y1="120.619" y2="136.571"/><linearGradient id="V" gradientUnits="userSpaceOnUse" x1="105.497" x2="107.802" xlink:href="#f" y1="130.205" y2="138.141"/><linearGradient id="W" gradientUnits="userSpaceOnUse" x1="118.181" x2="144.757" xlink:href="#a" y1="137.665" y2="142.107"/><linearGradient id="X" gradientUnits="userSpaceOnUse" x1="122.103" x2="126.549" xlink:href="#f" y1="119.95" y2="126.418"/><linearGradient id="Y" gradientUnits="userSpaceOnUse" x1="164.585" x2="175.75" xlink:href="#f" y1="110.762" y2="120.458"/><clipPath id="Z"><path d="m0 0h215v186h-215z"/></clipPath><g clip-path="url(#Z)"><path d="m159.164 110.148-123.0472-100.93102 4.6988-5.73448-40.8156-3.4825 11.2161 39.6057 4.6311-5.6521 123.4678 101.2784z" fill="url(#b)" opacity=".73"/><g opacity=".69"><path d="m174.537 123.612-.294.257c.071-.005.137-.032.191-.079.053-.046.089-.108.103-.178z" fill="url(#d)" opacity=".4761"/><path d="m166.21 117.383c-8.067-8.463-15.726-11.31-15.629-14.465 0-.145 0-.295 0-.43 6.326-6.0202 5.378-8.3958 5.378-8.3958s-4.922-6.9768-21.375-13.6886c3.933-6.2409 6.52-12.1196 3.48-13.5179-7.061-3.2558-22.196-5.8728-33.009-7.486-1.839-.2838-3.691-.4636-5.5496-.5387-.3354-.0148-.6768-.0236-1.0269-.0207-1.5273-.0337-3.0535.1076-4.5488.421-2.5707.422-5.0889 1.1178-7.5117 2.0754v2.5993h-11.931v-10.892h-6.0053c-.2034.4287-.364.8763-.4796 1.3365-3.3983-2.0018-6.07-3.5737-6.5113-3.8269-1.3446-.7772-22.6175-14.1302-22.6175-14.1302l-.3707.474-1.1593-.945-.3236-.3503-.0854-.0677c-.7885-.8831-1.7653-1.987-1.8919-2.2991-.2353-.5387-1.0062-2.9232-1.0062-2.9232-.7317-.5503-1.4908-1.0632-2.2744-1.5366-.228-.1431-.4939-.2137-.7628-.2027s-.5282.1032-.7437.2645l-.0471-.0265c-1.9772-.9979-2.3097-1.151-2.7128-.7094-.0824.0912-.2471.2767-.459.5328-.3756.447-.7244.9159-1.0445 1.4042-.7238 1.0774-1.4711 2.4639-1.7654 3.8563 0 0-.3795 1.1128 1.6418 2.5199.3266.2267.6091.4062.8533.5475.6238.4004 1.2181.6065 1.5477.4828.915-.3444 2.2802 2.9438 5.7345 2.3551l.1412.1207-.2589.3238 1.1534 1.0744-.5178.6918s19.7575 16.447 22.2732 18.3781c1.8331 1.4101 14.1789 10.8684 21.0257 16.3733.762 3.1351 3.6249 7.9129 8.8269 11.2276 5.8375 3.7298 17.9155 8.5105 24.3745 11.0892-.018.8096-2.425 3.8591-2.466 4.0121s.106 1.301 1.218 1.263c.028.2.113.388.244.542-4.805 3.474-8.638 6.27-9.456 6.935-2.5719 2.093-5.0846 7.843.997 11.101 5.617 3.012 39.044 3.533 58.552 7.678 2.96 1.065 4.834 1.675 4.834 1.675l9.318-8.416c-.603.103-2.433-.586-8.053-6.486zm-41.23-2.832s-.112-.103.78-.474c-.274.135-.535.293-.78.474z" fill="url(#e)" opacity=".4761"/></g><path d="m140.033 139.703 3.357-2.402-1.635-4.154c.677-.727 1.286-1.515 1.818-2.355l4.484.822 1.706-3.76-3.845-3.058c.15-.822.242-1.653.274-2.488l4.775-1.701-.4-4.122-5.349-.797c-.223-.651-.483-1.289-.777-1.911l3.545-4.171-2.401-3.359-5.087 2.008c-.495-.478-1.016-.929-1.559-1.352l.977-5.304-3.761-1.7106-3.154 3.9746c-.799-.238-1.614-.42-2.439-.545l-1.648-4.6277-4.119.4004-.674 4.5073c-.961.234-1.899.557-2.801.965l-3.401-2.894-3.357 2.403 1.636 4.153c-.678.727-1.286 1.516-1.819 2.355l-4.481-.821-1.709 3.759 3.845 3.059c-.15.821-.241 1.653-.273 2.487l-4.776 1.702.401 4.121 5.349.801c.222.651.482 1.289.776 1.91l-3.53 4.169 2.401 3.359 5.084-2.029c.493.481 1.012.933 1.556 1.354l-.974 5.323 3.758 1.707 3.154-3.968c.799.238 1.614.42 2.439.545l1.648 4.63 4.119-.403.671-4.507c.963-.234 1.903-.557 2.807-.966zm-21.049-11.866c-4.078-5.705-2.904-13.542 2.616-17.478 5.52-3.935 13.302-2.528 17.377 3.177s2.904 13.541-2.616 17.477c-5.519 3.936-13.302 2.526-17.377-3.176z" fill="url(#g)" opacity=".35"/><path d="m97.4877 92.3436-1.2975 1.4248 1.1504 1.7338c-.2386.3959-.4405.8127-.6032 1.2453l-2.1243.0618-.4119 1.884 2.0596 1.0185c.0112.3952.0495.7882.1147 1.1772l-2.0096 1.243.5885 1.837 2.5186-.159c.1638.275.3436.54.5385.794l-1.2093 2.249 1.4211 1.299 2.1277-1.413c.271.171.552.326.841.465l.074 2.523 1.88.415 1.053-2.12c.392.029.785.029 1.177 0l1.203 1.952 1.836-.589-.132-2.122c.413-.202.807-.441 1.177-.713l1.833.986 1.298-1.421-1.151-1.737c.234-.396.431-.813.589-1.245l2.124-.062.412-1.881-2.06-1.022c-.01-.3887-.048-.7763-.114-1.1597l2.012-1.2423-.588-1.8369-2.516.156c-.166-.2746-.347-.5399-.541-.7948l1.212-2.2491-1.424-1.2982-2.128 1.4131c-.271-.1716-.552-.3269-.841-.4652l-.074-2.5228-1.88-.4121-1.053 2.1283c-.392-.027-.785-.027-1.177 0l-1.198-1.9723-1.836.5888.133 2.1224c-.414.2018-.8076.4412-1.1771.7154zm10.7513 3.3677c2.416 2.2048 2.648 5.8877.509 8.2277s-5.82 2.452-8.239.247c-2.4181-2.204-2.6476-5.8872-.509-8.2275 2.14-2.3403 5.823-2.458 8.239-.2472z" fill="url(#h)" opacity=".35"/><path d="m124.874 152.526-1.301 1.472.489.883c-.129.273-.228.56-.294.854l-.939.394.106 1.946 1.003.295c.102.269.229.528.38.774l-.4.974 1.453 1.301.924-.506c.26.124.531.222.809.294l.403.966 1.948-.106.294-.977c.285-.102.558-.233.815-.392l.942.386 1.3-1.451-.514-.945c.105-.248.187-.505.244-.769l1.021-.427-.109-1.945-1.177-.345c-.086-.192-.184-.379-.294-.559l.468-1.142-1.454-1.301-1.083.588c-.191-.085-.388-.159-.588-.22l-.471-1.122-1.945.109-.312 1.06c-.254.088-.5.198-.735.329zm1.624 2.726c.296-.344.687-.593 1.124-.714s.901-.109 1.331.034c.431.144.809.412 1.086.772.277.359.441.793.471 1.246.029.453-.077.905-.305 1.297-.227.393-.567.708-.975.907-.408.198-.866.271-1.315.208-.45-.063-.87-.259-1.208-.562-.448-.394-.721-.949-.76-1.545-.039-.595.159-1.182.551-1.631z" fill="url(#i)" opacity=".35"/><path d="m119.325 146.468-2.059 2.331.853 1.122c-.283.439-.536.897-.759 1.369l-1.41-.144-.918 2.964 1.286.707c-.067.497-.103.999-.109 1.501l-1.424.471.365 3.079 1.583.133c.134.451.293.894.477 1.327l-1.186 1.089 1.586 2.65 1.586-.554c.289.343.596.671.921.981l-.683 1.551 2.533 1.79 1.233-1.16c.401.201.811.382 1.23.542v1.681l3.042.606.624-1.493c.471.027.942.027 1.412 0l.654 1.449 3.021-.683-.032-1.502c.472-.173.933-.374 1.38-.603l1.097.977 2.484-1.854-.603-1.281c.369-.371.715-.764 1.035-1.177l1.342.429 1.515-2.708-1.077-.927c.181-.48.329-.972.445-1.472l1.43-.156.294-3.091-1.451-.436c-.039-.489-.105-.975-.2-1.457l1.333-.777-.994-2.944-1.607.203c-.221-.405-.464-.798-.727-1.177l.96-1.334-2.104-2.278-1.436.883c-.177-.138-.356-.274-.541-.403-.186-.13-.374-.256-.562-.377l.341-1.643-2.848-1.224-.936 1.348c-.446-.124-.899-.222-1.356-.295l-.345-1.583-3.101.041-.294 1.519c-.485.068-.966.167-1.439.294l-.882-1.221-2.822 1.321.329 1.402c-.436.277-.855.582-1.253.912zm14.85 2.423c4.413 3.117 5.505 9.14 2.457 13.456-3.048 4.315-9.095 5.299-13.5 2.169-4.404-3.129-5.508-9.14-2.456-13.456 3.051-4.315 9.091-5.287 13.499-2.169z" fill="url(#j)" opacity=".35"/><path d="m171.398 76.241c-6.635-6.0554-16.819-5.6962-22.741.8007-5.923 6.4969-5.35 16.6736 1.285 22.7319 6.635 6.0584 16.818 5.6994 22.744-.8007 5.926-6.4999 5.346-16.6736-1.288-22.7319zm-17.545 5.9288c3.236-3.5326 8.765-3.7327 12.375-.4357s3.925 8.8313.7 12.3639c-3.225 3.5325-8.765 3.7386-12.36.4357-3.596-3.303-3.94-8.8314-.715-12.3639z" fill="url(#k)" opacity=".35"/><path d="m178.13 107.192 3.825-4.363-1.594-2.102c.527-.821 1-1.6755 1.418-2.5577l2.648.2649 1.721-5.5431-2.407-1.3218c.124-.9332.191-1.873.203-2.8143l2.666-.8831-.68-5.7669-2.963-.2443c-.246-.8455-.54-1.6761-.882-2.4875l2.242-2.0371-2.984-4.9956-2.969 1.0392c-.541-.6418-1.117-1.254-1.724-1.834l1.277-2.9026-4.737-3.35-2.31 2.1696c-.757-.3808-1.524-.7193-2.3-1.0156v-3.144l-5.694-1.1334-1.177 2.7937c-.881-.0562-1.766-.0621-2.648-.0177l-1.218-2.7112-5.661 1.2805.062 2.8084c-.884.3226-1.747.7002-2.583 1.1304l-2.06-1.831-4.652 3.4707 1.13 2.3992c-.693.6872-1.34 1.4199-1.936 2.1931l-2.513-.8066-2.836 5.0663 2.012 1.7339c-.335.9084-.611 1.8377-.826 2.7818l-2.678.2944-.532 5.7816 2.709.8154c.073.9162.199 1.8274.377 2.7289l-2.495 1.4572 1.862 5.496 3.007-.3827c.413.7635.868 1.503 1.363 2.217l-1.798 2.496 3.94 4.263 2.686-1.631c.328.261.665.514 1.012.759.344.245.698.48 1.051.704l-.639 3.073 5.329 2.293 1.765-2.525c.836.23 1.685.412 2.542.547l.642 2.962 5.802-.074.538-2.844c.91-.128 1.811-.312 2.698-.55l1.675 2.284 5.269-2.428-.618-2.626c.821-.518 1.607-1.089 2.354-1.708zm-27.79-4.536c-8.238-5.8321-10.298-17.1067-4.599-25.1845 5.7-8.0777 17.019-9.894 25.266-4.0595 8.247 5.8346 10.298 17.1093 4.599 25.1841-5.699 8.0749-17.019 9.8819-25.266 4.0479z" fill="url(#l)" opacity=".35"/><path d="m131.668 140.572-60.2904-49.456 2.3039-2.8084-20.0018-1.7074 5.4962 19.4088 2.2685-2.771 60.4996 49.624z" fill="url(#m)" opacity=".17"/><path d="m161.486 71.2366-72.746-59.6705 2.7775-3.39121-24.1298-2.0577 6.629 23.41481 2.7393-3.3412 72.996 59.8766z" fill="url(#n)" opacity=".17"/><path d="m155.686 89.9091s1.389 3.5914-10.451 13.0939l1.445-10.2591s6.75-5.0633 9.006-2.8348z" fill="url(#o)"/><path d="m36.8081 29.7381s-2.2302-1.7663-2.4274-2.4492c-.1971-.683-.6296-2.3109-1.3034-2.7172-.6738-.4062-4.8195-2.9938-5.4963-2.7141-.6767.2796-3.4042 4.1537-3.3807 6.0171.0236 1.8634 2.96 4.1213 3.8751 3.7621.915-.3591 2.2773 3.0174 5.7286 2.4345l1.1769 1.0156 3.1071-3.9358z" fill="#efbc90"/><path d="m24.0332 27.9836s-.3796 1.1451 1.6418 2.5935c1.7418 1.2481 2.2214 1.0951 2.3244 1.0597.2942-.1.7268-.5004.7297-.8537.0029-.3532.7415-.5122.8827-1.045s.5885-.5681.6502-1.1392c.0618-.5711.1766-.0795.5032-.7595s1.2093-2.2138.9592-2.9262.2442-1.1304-1.7331-2.1577c-1.9772-1.0274-2.3067-1.1776-2.7128-.7331-.406.4446-2.7187 3.2058-3.2453 5.9612z" fill="#efbc90"/><path d="m31.7917 31.0098s-2.3097-2.2284-.8032-5.1104c0 0-1.4888 2.3374-2.4362 2.3933-1.0181.0589-1.2593-.5711-1.2593-.5711s1.833-3.1322 2.0596-3.9299c.2265-.7978 1.1445-1.7074 2.2067-1.0745.7852.4869 1.5443 1.0145 2.2744 1.5808 0 0 .7709 2.4522 1.0063 3.0085.2354.5564 2.9423 3.5591 2.9423 3.5591l-1.5594 2.6317s-3.2454-.9979-4.4312-2.4875z" fill="#f4caab"/><path d="m34.3135 36.3263s19.7428 16.9238 22.2585 18.9109c2.5157 1.987 25.8187 21.3012 25.8187 21.3012l2.4451-17.1446s-22.2056-13.4796-23.5384-14.2803c-1.3329-.8007-22.6028-14.5482-22.6028-14.5482z" fill="url(#p)"/><path d="m38.3001 31.054-1.1622-.9626-3.4514 4.4362 1.1711 1.1216z" fill="url(#r)"/><path d="m71.4186 44.7837s-3.2748.6918-3.8485 5.4196c-.5885 4.8101.9444 12.3197.9444 12.3197l3.5102-.5888s6.8261 5.4166 5.6669 9.0109l10.504-6.7029s-11.6751-5.2989-6.5348-15.6757c0 .003-2.3921-5.8051-10.2422-3.7828z" fill="#f4caab"/><path d="m72.0244 61.9372 1.7978-.3856s2.9982.2767 8.2384 6.6147l-4.3576 2.7818s1.6301-3.1204-5.6786-9.0109z" fill="#efbc90" opacity=".4"/><path d="m66.6193 42.0637s-.8621 3.6032 1.9213 5.0751l1.836-1.8958z" fill="url(#s)"/><path d="m84.4152 49.9942s1.0857-7.0856-6.3378-7.9982c-8.3649-1.0303-11.4573.0677-11.4573.0677s.9121 3.7651 4.2134 3.768c3.3012.003 8.5915.4799 9.2123 3.3883z" fill="url(#u)"/><path d="m84.1465 47.2065s1.4447 2.0813-1.3594 6.809c-2.1714 3.6561-2.036 3.3206-3.363-.8832-2.5951-8.2043 3.6455-8.2661 4.7224-5.9258z" fill="url(#v)"/><path d="m146.841 90.6568c.294-.7507 3.649 2.2814 3.463 8.3339-.097 3.2383 7.559 6.1823 15.618 14.8833 8.059 8.702 8.324 6.409 8.324 6.409l-9.595 8.923s-43.626-14.546-42.528-26.592z" fill="url(#w)"/><path d="m133.972 83.1236s-31.136 22.9264-33.654 25.0364c-2.572 2.155-5.0818 8.072.994 11.422 6.076 3.35 44.723 3.712 63.018 9.035l6.497-6.744s-38.068-17.177-46.106-10.913c0 0-.415-.383 6.535-2.334 7.718-2.164 17.033-8.57 18.372-12.3496 1.312-3.7062 1.718-13.5179-15.656-13.1528z" fill="#364154"/><path d="m77.7062 68.8521s-.7297 9.2847 8.4062 15.2812c9.1358 5.9965 28.4636 13.303 28.4636 13.303l14.712-10.8155s-23.08-31.8812-40.3334-29.9059l-6.0787 1.0215z" fill="url(#y)"/><path d="m77.6914 66.5737 4.1604 3.035 1.6301-11.9841-2.5804-.8037z" fill="url(#z)"/><path d="m75.6787 65.77 2.0125.8037.4708 5.0456-2.0449-2.9261z" fill="url(#A)"/><path d="m83.4822 57.6275s-3.7279 10.3474 7.0144 16.9267c10.7424 6.5794 28.3584 8.5547 34.5694 10.5299 6.211 1.9753 16.444 7.751 18.271 16.5269 0 0 7.453-14.7724 12.358-11.702 0 0-5.119-7.4566-22.332-14.4775-17.212-7.021-27.246-19.7057-30.285-21.0157-5.0697-2.1696-15.9503.6712-19.5958 3.2117z" fill="url(#B)"/><path d="m35.3695 36.2821c.0041.0966.0368.1897.0938.2677.0571.0779.1359.1372.2266.1703.0907.0332.1892.0387.283.0158.0939-.0228.1788-.073.2442-.1441.0653-.0711.1081-.16.123-.2555.0148-.0955.0011-.1932-.0396-.2808-.0406-.0877-.1063-.1613-.1888-.2116-.0824-.0503-.1779-.075-.2744-.071-.1293.0061-.251.063-.3386.1584-.0876.0953-.134.2214-.1292.3508z" fill="#001f3a" opacity=".89"/><path d="m36.6165 37.2654c.0036.0966.0358.1901.0925.2684.0567.0784.1354.1382.2261.1717.0906.0336.1892.0395.2833.017.094-.0225.1792-.0725.2449-.1435.0656-.0711.1087-.16.1238-.2555.0151-.0956.0014-.1935-.0391-.2813-.0406-.0878-.1063-.1616-.1889-.212-.0825-.0504-.1781-.0752-.2747-.0712-.1291.0054-.2508.0617-.3384.1566-.0877.0948-.1342.2206-.1295.3498z" fill="#001f3a" opacity=".89"/><path d="m119.051 89.3439-3.633 1.2835s-6.644 4.1419-6.979 4.1713c0 0-.083 4.192-.13 4.3715-.047.1796.106 1.3368 1.218 1.3008.029.202.11.393.235.554s.289.286.477.365c.648.294 1.033.091 1.033.091s-.191.489.689.836c.879.347 1.176-.079 1.176-.079s-.12.312.677.494c.365.118.761.094 1.109-.068l1.16-.706v-2.1608c-.011-.0344-.029-.0663-.053-.0936-.023-.0273-.052-.0496-.085-.0653-.032-.0157-.068-.0246-.104-.0261s-.072.0043-.105.0172l-.889.6916s3.963-3.2085 4.413-5.9344l2.222-2.6288z" fill="#efbc90"/><path d="m108.439 94.7987s-.171 2.8996 6.405 5.5223c0 0 3.796-2.5874 4.39-5.4811 0 0 .421-4.0713-3.483-4.345z" fill="#f4caab"/><g fill="#ed9071"><path d="m114.709 101.378s0 .015.35-.182c.019-.263-.007-.527-.076-.781 0 0-.109.46-.133.548-.029.144-.076.283-.141.415z"/><path d="m109.527 100.439.13-3.0793c.126 1.0266.083 2.067-.13 3.0793z"/><path d="m111.281 101.443.141-2.6762c.125.8928.077 1.8012-.141 2.6762z"/><path d="m113.278 102.367v-2.5875c.156 1.0655.183 1.0865 0 2.5875z"/></g><path d="m115.071 89.6765-.765 1.2158 5.316 3.3118 1.054-1.2158s-5.032-3.1175-5.605-3.3118z" fill="url(#C)"/><path d="m91.0552 55.2902s2.2509-2.8319 13.7528-1.0686c10.807 1.6603 25.927 4.3509 32.989 7.7009 7.061 3.35-16.257 31.5897-16.257 31.5897s-6.473-4.0477-6.914-4.0182l10.404-20.7125s-23.833 2.8378-30.1498-.3797c-5.3226-2.7171-7.3734-8.8991-3.825-13.1116z" fill="url(#D)"/><path d="m121.138 92.0285c.012.0959.053.1859.117.2587.063.0727.147.125.24.1501.093.0252.192.0221.284-.0089.091-.031.172-.0884.23-.1651.059-.0766.094-.169.101-.2655.006-.0964-.016-.1926-.065-.2764-.048-.0837-.12-.1513-.207-.1941-.086-.0428-.184-.0589-.279-.0463-.129.0168-.245.084-.324.1866-.079.1027-.114.2325-.097.3609z" fill="#001f3a" opacity=".89"/><path d="m122.241 90.6832c.005.0658.024.1298.055.1881.03.0584.073.1099.124.1514s.11.0723.174.0903c.063.0181.13.023.195.0147.066-.0084.129-.0299.186-.0633s.106-.078.145-.1311c.04-.0531.068-.1136.083-.1779.015-.0642.017-.1308.006-.1959-.008-.0634-.029-.1247-.06-.1802-.032-.0555-.074-.1042-.125-.1434-.051-.0391-.108-.0678-.17-.0845s-.126-.0211-.19-.0128c-.128.0169-.244.0835-.323.1854s-.115.2309-.1.3592z" fill="#001f3a" opacity=".89"/><path d="m77.6914 66.5736.2266 4.5011 2.4244 1.0126.8356-3.1469z" fill="url(#F)"/><path d="m80.7511 70.5507s10.6688 22.3727 30.7379 4.71c14.226-12.5375 15.274-12.0342 15.274-12.0342l5.296 1.784-2.742 4.607s-2.91.4445-6.815 3.2588c-3.201 2.3079-15.132 12.5876-24.2677 12.3315-6.9174-.1914-13.9642-3.2382-19.3398-13.721z" fill="url(#G)"/><path d="m160.491 105.455 5.591 4.807s6.832-5.378 13.422-7.259l-7.962-4.8278z" fill="url(#I)"/><path d="m139.618 130.395 5.317 4.195s-2.418 8.934-2.704 11.695l-9.042-.262s4.702-13.099 6.429-15.628z" fill="url(#J)"/><g opacity=".86"><path d="m213.364 180.324c0 3.088-31.104 5.517-79.298 5.517-48.1954 0-95.231-2.429-95.231-5.517s39.0738-5.593 87.266-5.593c48.192 0 87.263 2.505 87.263 5.593z" fill="#008a84" opacity=".01"/><path d="m211.728 180.277c0 3.023-30.339 5.402-77.256 5.402-46.9185 0-92.6566-2.379-92.6566-5.402s38.0381-5.478 84.9566-5.478c46.917 0 84.956 2.455 84.956 5.478z" fill="#008681" opacity=".02"/><path d="m210.092 180.227c0 2.962-29.571 5.299-75.215 5.299-45.6435 0-90.084-2.329-90.084-5.299s37.0053-5.36 82.649-5.36c45.644 0 82.65 2.387 82.65 5.36z" fill="#00837d" opacity=".02"/><path d="m208.456 180.18c0 2.897-28.803 5.178-73.175 5.178-44.3733 0-87.5193-2.281-87.5193-5.178s35.9756-5.249 80.3423-5.249c44.367 0 80.352 2.349 80.352 5.249z" fill="#007f7a" opacity=".03"/><path d="m206.82 180.13c0 2.835-28.035 5.066-71.134 5.066-43.0984 0-84.938-2.231-84.938-5.066s34.9428-5.131 78.036-5.131c43.093 0 78.036 2.296 78.036 5.131z" fill="#007b77" opacity=".04"/><path d="m205.175 180.083c0 2.77-27.267 4.954-69.091 4.954-41.8253 0-82.3555-2.19-82.3555-4.954s33.9071-5.019 75.7265-5.019c41.819 0 75.72 2.246 75.72 5.019z" fill="#007774" opacity=".05"/><path d="m203.549 180.036c0 2.705-26.499 4.839-67.05 4.839-40.5505 0-79.792-2.134-79.792-4.839 0-2.706 32.8744-4.905 73.419-4.905 40.545 0 73.423 2.197 73.423 4.905z" fill="#007370" opacity=".05"/><path d="m201.913 179.986c0 2.649-25.734 4.73-65.008 4.73-39.2736 0-77.2204-2.087-77.2204-4.73 0-2.644 31.8416-4.793 71.1124-4.793 39.271 0 71.116 2.149 71.116 4.793z" fill="#00706d" opacity=".06"/><path d="m200.277 179.939c0 2.581-24.966 4.616-62.966 4.616-37.9996 0-74.646-2.035-74.646-4.616 0-2.582 30.806-4.675 68.806-4.675s68.806 2.093 68.806 4.675z" fill="#006c6a" opacity=".07"/><path d="m198.641 179.903c0 2.52-24.198 4.507-60.924 4.507s-72.0861-1.987-72.0861-4.507c0-2.519 29.7761-4.559 66.4961-4.559s66.514 2.028 66.514 4.559z" fill="#006867" opacity=".08"/><path d="m197.005 179.842c0 2.455-23.43 4.392-58.882 4.392s-69.5029-1.937-69.5029-4.392c0-2.456 28.7434-4.446 64.1919-4.446 35.449 0 64.193 1.99 64.193 4.446z" fill="#006464" opacity=".09"/><path d="m195.369 179.791c0 2.394-22.656 4.284-56.84 4.284-34.183 0-66.9343-1.89-66.9343-4.284 0-2.393 27.7106-4.33 61.8853-4.33 34.175 0 61.889 1.94 61.889 4.33z" fill="#006060" opacity=".09"/><path d="m193.733 179.744c0 2.329-21.894 4.169-54.801 4.169s-64.3539-1.84-64.3539-4.169c0-2.328 26.6749-4.215 59.5759-4.215s59.579 1.887 59.579 4.215z" fill="#005d5d" opacity=".1"/><path d="m192.097 179.697c0 2.264-21.129 4.054-52.759 4.054s-61.7882-1.79-61.7882-4.054 25.6422-4.103 57.2692-4.103 57.278 1.837 57.278 4.103z" fill="#00595a" opacity=".11"/><path d="m190.464 179.647c0 2.202-20.361 3.945-50.717 3.945s-59.2109-1.743-59.2109-3.945 24.6099-3.986 54.9619-3.986c30.353 0 54.966 1.784 54.966 3.986z" fill="#005557" opacity=".12"/><path d="m188.825 179.609c0 2.137-19.593 3.827-48.675 3.827s-56.6393-1.693-56.6393-3.827 23.5793-3.874 52.6673-3.874 52.647 1.725 52.647 3.874z" fill="#005153" opacity=".12"/><path d="m187.189 179.55c0 2.076-18.831 3.721-46.633 3.721s-54.0648-1.645-54.0648-3.721c0-2.075 22.5438-3.768 50.3488-3.768s50.349 1.693 50.349 3.768z" fill="#004d50" opacity=".13"/><path d="m185.553 179.503c0 2.011-18.057 3.606-44.591 3.606s-51.4903-1.595-51.4903-3.606 21.5113-3.644 48.0423-3.644c26.53 0 48.039 1.63 48.039 3.644z" fill="#00494d" opacity=".14"/><path d="m183.917 179.453c0 1.949-17.289 3.497-42.549 3.497s-48.9217-1.548-48.9217-3.497 20.4787-3.533 45.7347-3.533c25.257 0 45.736 1.584 45.736 3.533z" fill="#00464a" opacity=".15"/><path d="m182.282 179.406c0 1.884-16.524 3.382-40.507 3.382s-46.3473-1.498-46.3473-3.382 19.4423-3.415 43.4253-3.415 43.429 1.528 43.429 3.415z" fill="#004246" opacity=".15"/><path d="m180.646 179.356c0 1.822-15.756 3.273-38.465 3.273s-43.7757-1.451-43.7757-3.273 18.4097-3.297 41.1187-3.297 41.122 1.489 41.122 3.297z" fill="#003e43" opacity=".16"/><path d="m179.01 179.315c0 1.766-14.989 3.158-36.426 3.158-21.438 0-41.192-1.401-41.192-3.158 0-1.758 17.38-3.186 38.812-3.186 21.431 0 38.806 1.419 38.806 3.186z" fill="#003a40" opacity=".17"/><path d="m177.374 179.262c0 1.692-14.221 3.046-34.384 3.046-20.164 0-38.63-1.354-38.63-3.046 0-1.693 16.348-3.071 36.506-3.071 20.157 0 36.508 1.375 36.508 3.071z" fill="#00363d" opacity=".18"/><path d="m175.752 179.212c0 1.63-13.452 2.943-32.342 2.943-18.889 0-36.055-1.304-36.055-2.943 0-1.64 15.3-2.944 34.199-2.944 18.898 0 34.198 1.313 34.198 2.944z" fill="#00333a" opacity=".19"/><path d="m174.102 179.164c0 1.567-12.685 2.824-30.306 2.824-17.622 0-33.484-1.257-33.484-2.824 0-1.566 14.279-2.84 31.892-2.84s31.898 1.271 31.898 2.84z" fill="#002f36" opacity=".19"/><path d="m172.466 179.114c0 1.505-11.92 2.712-28.247 2.712-16.326 0-30.911-1.207-30.911-2.712 0-1.504 13.24-2.723 29.584-2.723 16.345 0 29.574 1.219 29.574 2.723z" fill="#002b33" opacity=".2"/><path d="m170.83 179.067c0 1.44-11.152 2.597-26.216 2.597-15.065 0-28.338-1.157-28.338-2.597 0-1.439 12.214-2.611 27.276-2.611 15.061 0 27.278 1.169 27.278 2.611z" fill="#002730" opacity=".21"/><path d="m169.194 179.02c0 1.378-10.384 2.488-24.174 2.488-13.791 0-25.76-1.113-25.76-2.488s11.181-2.493 24.968-2.493c13.788 0 24.966 1.113 24.966 2.493z" fill="#00232d" opacity=".22"/><path d="m167.558 178.97c0 1.313-9.616 2.373-22.132 2.373-12.517 0-23.195-1.06-23.195-2.373s10.148-2.381 22.656-2.381 22.671 1.065 22.671 2.381z" fill="#002029" opacity=".22"/><path d="m165.922 178.92c0 1.251-8.848 2.264-20.09 2.264-11.243 0-20.623-1.013-20.623-2.264s9.121-2.264 20.355-2.264 20.358 1.013 20.358 2.264z" fill="#001c26" opacity=".23"/><path d="m164.277 178.873c0 1.178-8.08 2.149-18.051 2.149-9.972 0-18.045-.963-18.045-2.149s8.079-2.152 18.045-2.152c9.965 0 18.051.963 18.051 2.152z" fill="#001823" opacity=".24"/></g><path d="m210.998 95.1901c-.741-.68-4.899-4.6306-5.802-5.0839 10.457 11.5128-.589 35.9138-17.983 55.1228-18.328 20.232-44.2 34.442-54.804 21.31.653 1.548 5.482 6.95 6.67 8.045 9.613 8.831 33.507-1.766 53.368-23.683 19.86-21.916 28.167-46.868 18.551-55.7109z" fill="url(#K)"/><path d="m205.49 90.3653c-8.338-7.6185-27.281-.8684-44.999 15.0897l12.213-3.644-.691 8.619 4.434 2.061-9.292 14.156-10.692 3.801v5.552l-9.636 4.86-3.305-1.319-6.284 3.471 2.38-12.617c-9.96 16.305-12.652 31.622-5.479 38.169 9.636 8.799 33.419-1.572 53.121-23.168 19.701-21.595 27.866-46.2317 18.23-55.0307z" fill="url(#L)"/><path d="m199.191 96.2588c-6.22-5.6786-19.025-2.3756-31.997 7.1972l5.511-1.645-.692 8.619 4.449 2.114-9.295 14.153-10.704 3.751v5.622l-9.639 4.861-3.316-1.381-6.005 3.327c-.08.052-.163.097-.25.135-2.498 8.198-2.036 15.187 2.042 18.914 8.335 7.612 27.269-1.711 43.814-19.844 16.544-18.134 24.421-38.208 16.082-45.8232z" fill="url(#M)"/><path d="m193.148 100.992c-3.967-3.6204-11.902-1.9307-20.67 3.601l-.497 5.837 4.643 2.12-9.295 14.153-10.701 3.745v5.623l-9.786 4.801-3.331-1.322-.739.409c-2.436 6.795-2.424 12.611.707 15.473 6.27 5.725 22.102-1.973 35.816-17.006 13.714-15.034 20.123-31.708 13.853-37.434z" fill="url(#N)"/><path d="m187.407 106.806c-2.807-2.564-8.753-.998-15.412 3.471v.165l4.611 2.114-9.295 14.153-10.719 3.739v5.623l-8.071 4.071c-.929 3.632-.653 6.532 1.071 8.11 4.379 3.998 16.392-2.04 26.834-13.483 10.443-11.442 15.359-23.965 10.981-27.963z" fill="url(#O)"/><path d="m182.046 112.823c-1.177-1.077-3.419-.8-6.179.533l-8.756 13.336-8.586 3.005c-.767 1.14-1.474 2.319-2.118 3.533v2.811l-1.545.795c-.824 2.526-.794 4.495.295 5.481 2.698 2.464 10.907-2.143 18.339-10.285 7.432-8.143 11.245-16.745 8.55-19.209z" fill="url(#P)"/><path d="m171.427 120.083-4.337 6.582-4.516 1.604c-2.336 3.406-3.237 6.53-2.004 7.654 1.61 1.472 6.214-.962 10.298-5.428s6.073-9.276 4.467-10.742c-.76-.689-2.19-.515-3.908.33z" fill="url(#Q)"/><path d="m164.549 66.3293-4.531 8.9197 9.353 8.0248z" fill="url(#R)"/><path d="m165.796 86.4736-9.357 7.3301 12.552 16.0703z" fill="url(#S)"/><path d="m182.108 83.8096-8.403 3.7533 6.832 4.7601z" fill="url(#T)"/><path d="m137.591 119.353 22.426 5.934-12.855 10.416z" fill="url(#U)"/><path d="m101.81 131.622 7.358 5.293 8.48-7.274z" fill="url(#V)"/><path d="m120.511 132.282 5.269 11.431 16.121-9.029z" fill="url(#W)"/><path d="m120.379 119.326 2.201 8.052 5.205-5.467z" fill="url(#X)"/><path d="m107.756 149.297 1.094-4.728 5.976-.065z" fill="#f6eae3"/><path d="m120.511 132.282v1.955l5.155 11.786 16.235-9.546v-1.793l-16.121 9.029z" fill="#b2aca8"/><path d="m107.756 149.297v1.083l7.07-4.786v-1.09z" fill="#b2aca8"/><path d="m137.591 119.353v2.193l9.421 15.876 13.005-10.283v-1.852l-12.855 10.416z" fill="#7f2125"/><path d="m101.81 131.622v1.045l7.294 5.332 8.603-7.478-.059-.88-8.615 7.192z" fill="#7f2125"/><path d="m120.379 119.326v1.166l2.077 7.71 5.329-5.62v-.671l-5.17 5.313z" fill="#7f2125"/><path d="m162.147 124.643.13 1.416 10.46 3.573-.094-1.286z" fill="#7f2125"/><path d="m171.016 111.051 1.721 18.581.312-.276z" fill="#952c30"/><path d="m156.439 93.8037.318 2.3668 12.234 14.5895v-.886z" fill="#b2aca8"/><path d="m172.616 128.349-10.469-3.706 3.64-15.358 5.229 1.766z" fill="url(#Y)"/><path d="m160.018 75.249v1.0303l9.353 7.9836v-.9891z" fill="#7f2125"/><path d="m173.705 87.5629v.9656l6.809 4.6982 1.594-8.6606v-.7565l-1.7 8.4163z" fill="#7f2125"/><path d="m148.548 77.6658-.706-4.1655 4.781-2.0577z" fill="#f6eae3"/><path d="m148.548 77.6658.365.8714 4.078-6.2203-.368-.8743z" fill="#b2aca8"/></g></svg>