<svg fill="none" height="180" viewBox="0 0 234 180" width="234" xmlns="http://www.w3.org/2000/svg" xmlns:xlink="http://www.w3.org/1999/xlink"><linearGradient id="a" gradientUnits="userSpaceOnUse" x1="36.0056" x2="196.979" y1="115.471" y2="115.471"><stop offset="0" stop-color="#007e33"/><stop offset="1" stop-color="#55b079"/></linearGradient><linearGradient id="b"><stop offset="0" stop-color="#067431"/><stop offset="1" stop-color="#2e9f5a"/></linearGradient><linearGradient id="c" gradientUnits="userSpaceOnUse" x1="70.1179" x2="104.693" xlink:href="#b" y1="13.4786" y2="33.8525"/><linearGradient id="d" gradientUnits="userSpaceOnUse" x1="62.3258" x2="90.8776" xlink:href="#b" y1="52.6968" y2="74.8299"/><linearGradient id="e" gradientUnits="userSpaceOnUse" x1="68.425" x2="71.7772" xlink:href="#b" y1="53.4274" y2="70.3546"/><path d="m105.848 55.5957c.063.9702.623 6.9038 1.176 7.0078.553.1041 1.408-.4656 1.457-.9299.048-.4644-1.993-5.9206-1.077-6.0506.917-.1301-1.556-.0273-1.556-.0273z" fill="#775155"/><path d="m37.1349 130.54s35.7395-15.248 38.5969-18.771c3.3664-4.152 23.6554-50.3348 28.7522-51.729 8.548-2.3347 43.948 15.2681 46.798 19.291s26.961 49.414 28.58 52.156c3.367 5.709 12.607-13.582 16.487-10.987 3.173 2.12-6.566 48.665-10.534 50.432-4.663 2.081-53.617-16.695-51.03-22.317.964-2.092 25.16-.971 21.759-7.786-3.626-7.267-19.945-36.648-22.362-37.686-2.418-1.038-17.275-9.9407-19.864-8.2473-3.367 2.2111-14.5063 33.4773-19.1683 38.1473-4.414 4.423-38.0958 20.86-45.5892 25.865-2.0604 1.385-17.9509-25.603-12.4256-28.368z" fill="url(#a)"/><path d="m35.0591 13.0687c2.7821 0 8.4996 4.9424.3284 5.7371s-20.4097.4266-25.3613.4435c-8.08284.0273-10.0886247-.3043-10.02371237-3.6132.03635097-1.9145 1.06845237-3.1553 5.33060237-3.6573 4.43222-.5203 2.16807-5.46272 7.57921-5.31184 4.6087.13006 5.0787 6.59294 9.2967 5.00874s3.3339 2.7313 6.4172 3.5247c3.3898.8714 3.6507-2.1317 6.4329-2.1317z" fill="#fff"/><path d="m207.757 77.5856c-5.18.346-10.126-.1067-15.216-1.259-.779-.1769-1.607-.4136-2.135-1.0691-.801-.9937-.56-2.6663.304-3.5924.863-.9261 2.164-1.2057 3.363-1.0769.769.0832 1.558.3108 2.3.0741.925-.2939 1.539-1.2278 2.161-2.0394s1.463-1.6167 2.42-1.4892c.718.0949 1.284.6893 1.923 1.0626.638.3733 1.565.4123 1.932-.2744.778-1.4685-.316-5.4939 3.72-5.4939 5.826 0 4.874 4.0515 5.576 4.9125 1.064 1.3006 2.955 1.0158 4.495.5749 1.54-.441 3.375-.8598 4.562.3056 1.031 1.0106 1.137 2.8614 2.233 3.7875 1.168.9832 2.822.4591 4.235.0169 1.412-.4422 3.234-.6035 4.054.7387.688 1.1238.175 2.7574-.802 3.582-.978.8246-2.268 1.0262-3.496 1.1081-7.982.532-15.227-.2952-21.629.1314z" fill="#fff"/><path d="m82.3896 93.2568.0091.0091c.0182-.0455.026-.0651.0273-.0716-.0133.0201-.0255.041-.0364.0625z" fill="#1f1f39" opacity=".46"/><path d="m108.801 60.0073c.755 1.3839 12.05 21.3799 12.05 21.3799l3.844 2.6676s-12.514-23.5558-13.298-23.6443c-1.042-.1144-2.596-.4032-2.596-.4032z" fill="#1f1f39" opacity=".21"/><path d="m107.404 55.623c1.55 2.4036 14.783 24.8422 16.421 29.9264 1.639 5.0842 4.002 8.9145 4.202 14.5336.058 1.614 6.447 4.267 6.217 3.056-.405-2.13-5.154-15.4202-6.793-18.9735-1.638-3.5533-16.965-29.5439-18.083-30.418-1.28-.9976-3.195-.0247-1.964 1.8755z" fill="#775155"/><path d="m72.1982 99.3126c1.5761.3902 4.3037-1.1029 5.2904-2.0251.9867-.9221 4.4595-3.2763 5.5825-3.2113 1.1229.0651 9.3473-.541 12.8241-1.1341 3.4767-.5931 16.2888-2.9642 18.7958-2.7157 1.428.1404 29 12.9756 30.898 11.4756 1.623-1.281 5.996 3.391 8.116 2.134 2.986-1.77 4.951-9.458 4.951-9.458l-12.359 4.8852-11.106-4.8722-21.032-7.506-20.7721 2.7652-13.4563 1.5139z" fill="#1f1f39" opacity=".21"/><path d="m151.728 95.6696c-1.914-1.0405-7.03-3.0383-7.03-3.0383l-2.419 5.2351 7.711 2.9316 3.885-2.4907z" fill="#fff"/><path d="m150.463 94.9529c.169-.5983.547-.0949 1.449.1561 2.065.5775 5.812-6.0271 6.533-6.935.372-.4682 3.505.2029 2.063 2.7665-1.248 2.211-5.218 9.3295-6.599 11.7455-.14.247-.357.44-.617.549-.261.109-.55.128-.823.054-1.997-.552-4.652-2.211-4.332-2.916.245-1.2099 1.624-2.9268 2.326-5.4201z" fill="#1f1f39"/><path d="m87.0795 70.8275c3.6793-1.7779 6.2628-3.2516 13.5735-6.3939-1.9386 2.6663-6.559 12.9335-6.8343 13.563-3.996 9.1019-11.7634 5.2-11.7634 5.2 2.6225-3.063 4.8503-5.4549 9.9095-5.1597 5.3306.3122 17.4532.4891 24.2422 1.7039s30.759 12.1778 32.212 13.1039c1.453.926-1.808 8.0263-3.021 8.1833-2.417.311-24.756-10.9017-30.102-12.0176-5.347-1.116-44.3173 12.0176-45.9168-3.781-.1389-1.3747 6.1394-8.7506 9.9069-10.7302 7.8635-4.1347 7.7934-3.6717 7.7934-3.6717z" fill="#3b3b4c"/><path d="m93.7305 78.1929c-.9633-.0312-2.1797-.1963-2.1797-.1963s.6906-1.2174 1.2814-2.271c.6205-.7803 6.4406-9.0862 6.4406-9.0862s-4.9139 10.1268-5.5423 11.5535z" fill="#1f1f39" opacity=".63"/><path d="m71.4061 10.5637c-.0753-1.54909.3894-3.0006-.5077-3.64832-.897-.64772-2.786-1.29023-2.3251-1.92364s1.4281.35767 1.885-.27573c.457-.63341-.7984-2.93944-.0856-4.136029.7685-1.290231 4.1946-.198997 4.5438 1.040509.5349 1.88982-.2129 5.02566.0455 6.39523.2583 1.36957.614 3.77188-.0273 4.13338-.6413.3616-3.5286-1.5854-3.5286-1.5854z" fill="#efaea6"/><path d="m63.8791 51.4793c-.7405.1652-1.509.1583-2.2465-.0203s-1.4243-.524-2.0078-1.0098c-1.4034-1.4619-1.9734-5.7358-2.2265-7.6959-.2792-2.1486-.3895-1.471-.3895-1.471l3.7065.9104 1.7383.424s.0598.9014.7206 2.2436c.4297.8715.6725 1.2122 1.7747 1.7676 1.2152.6074-.483 2.8341-1.0698 4.8514z" fill="#efaea6"/><path d="m62.395 42.4956s.3894 1.8014 1.1684 3.0812c-3.0067 1.1628-5.1683-1.631-4.7113-2.6468.2869-.6334 1.8032-.8597 1.8032-.8597z" fill="#1f1f39" opacity=".14"/><path d="m58.6337 48.7724c1.3138-1.5256 4.4581.8636 5.8421.1041.8399-.4618-.1454-.8038-.1467-1.4008 0-1.5725-.3506-1.6908.3894-1.5114 12.6995 3.0175 19.2232 23.6716 19.2634 26.2338.0403 2.5623-4.1141 7.813-6.969 10.7511-4.4711 4.6042-7.966.7505-8.532-.5502-2.1694-4.9853-10.4509-27.2353-10.4509-27.2353s-.3324-2.5453.6037-6.3913z" fill="#fff"/><path d="m64.3213 45.9032c2.1733-6.044 5.6383-14.9287 5.8979-19.1401.2934-4.6589-.2596-16.80555.1597-18.20893.1908-.62691 5.4526.02471 5.5617.80249.1454 1.09904.9983 13.69044.7309 18.12304-.2233 3.7237-3.3014 14.2511-2.3109 17.9488.6089 2.2774 7.5883 15.4164 9.2747 17.4571s5.6785 5.9517 5.5825 7.3837c-.1519 2.3815-3.4365 5.1258-5.0502 4.8345-2.7653-.4982-4.2245-6.1013-6.6561-9.9109-3.5988-5.6356-3.8441-10.1358-7.4429-14.3551-1.652-1.9302-3.5904-3.5945-5.7473-4.9346z" fill="url(#c)"/><path d="m64.3213 45.9032c2.1733-6.044 5.6383-14.9287 5.8979-19.1401.2934-4.6589-.2596-16.80555.1597-18.20893.1908-.62691 5.4526.02471 5.5617.80249.1454 1.09904.9983 13.69044.7309 18.12304-.2233 3.7237-3.3014 14.2511-2.3109 17.9488.6089 2.2774 7.5883 15.4164 9.2747 17.4571s5.6785 5.9517 5.5825 7.3837c-.1519 2.3815-3.4365 5.1258-5.0502 4.8345-2.7653-.4982-4.2245-6.1013-6.6561-9.9109-3.5988-5.6356-3.8441-10.1358-7.4429-14.3551-1.652-1.9302-3.5904-3.5945-5.7473-4.9346z" fill="#1f1f39" opacity=".11"/><path d="m72.8351 63.255c1.7825 3.2191 2.3083 9.414 3.1795 12.356 2.0135 6.8089 5.6058 9.2502 4.9839 13.0532-.5193 3.1814-3.4819 10.6067-9.5629 9.9785-2.3719-.2445-1.8539-3.0682-2.0161-8.4372-.1493-4.9125-2.3538-8.3592-3.7377-11.776-1.3424-3.3153-4.0648-7.264-6.9352-12.0881-1.8319-3.0812-2.368-8.4671-1.9993-10.7419.8776-5.412 1.8539-6.7633 1.8539-6.7633 1.3527 1.7532 10.4379 7.5671 14.2339 14.4188z" fill="url(#d)"/><path d="m76.4599 76.986c-.1545-.437-.3051-.8935-.4453-1.3722-.8711-2.9433-1.3956-9.1395-3.1794-12.356-.6491-1.1705-2.3135-3.327-3.2105-4.4221l-7.0651 4.6237c5.2267 2.708 12.0945 10.9956 13.9003 13.5266z" fill="#1f1f39" opacity=".17"/><path d="m100.028 55.208c2.422-2.8107 3.23-2.7652 4.732-3.686 1.503-.9209 4.744-2.414 5.83.9494.476 1.4763.468 2.3971-1.065 3.2217s-3.505-.4383-6.016 1.3449c-2.511 1.7831-3.481-1.83-3.481-1.83z" fill="#efaea6"/><path d="m60.6609 52.4663c7.9129 1.7325 18.1989 7.7297 21.0316 7.1678 2.2629-.45 19.9805-6.8153 20.6875-7.3135.858-.6061 2.856 5.1024 2.406 5.5277-.848.7986-17.9667 8.3826-21.7965 9.2085-3.4196.7375-19.0544-3.3621-19.0544-3.3621s-7.5532-1.3969-6.4549-5.7852c1.0983-4.3884 3.1807-5.4432 3.1807-5.4432z" fill="url(#e)"/><path d="m64.2023 49.9925c-.1921-.082-1.2762 3.6209-3.3897 5.1726-.5816.4396-1.243.7617-1.9474.9481-.8776.2212-2.207.2459-2.207.2459s.0104-1.2877.7634-3.2087c2.0291.2471-.2597 1.2083.8114.8805.7759-.2415 1.5108-.5993 2.1797-1.0613 1.2321-.8337 2.207-1.9145 2.9354-2.8302.3687-.4669.3232-1.0639.849-1.1849.6998-.1599.2519 1.1433.0052 1.038z" fill="#1f1f39" opacity=".18"/><path d="m65.0185 48.273c-.0281-.1273-.0819-.2476-.1582-.3532-.0763-.1057-.1735-.1946-.2854-.2611-.112-.0666-.2364-.1094-.3655-.1259s-.2603-.0062-.3853.0301c-.5622.1301-.566.3681-.9607.8688-1.1866 1.5036-3.0197 3.422-5.4799 4.1712-2.4602.7491-8.8164-1.4737-12.3814.0377-3.565 1.5113-4.0674 5.0633-9.2721 6.935-5.2047 1.8716-11.4025.6893-12.9344 1.2603-1.532.5709-2.4252 1.1003-2.2668 1.7207s1.1412 1.5113 2.3369 1.7468c1.1956.2354 11.1195-.9495 13.6407-1.7871 4.1154-1.367 7.0274-5.8698 9.7018-6.6332 2.6743-.7635 8.6982-.2758 11.8504-1.0562 3.5195-.8701 5.6331-5.568 5.8966-5.4548.2636.1131.5102.2237.9451.0234.2986-.1327.2091-.77.1182-1.1225z" fill="#f4ad00"/><path d="m63.0361 35.7153c.7284 1.5764 3.6196 4.045 2.5213 4.443-1.0984.398 1.5423 3.3283.3894 3.794-2.7938 1.1263-6.7002.5202-7.5662-.7089-.8659-1.2291-2.0603-5.1245-2.0603-5.1245z" fill="#efaea6"/><path d="m60.6933 38.3413c.9296-.2211 1.0386-.0208 1.5488-.5514.5102-.5307-.8815-.9989.2142-1.618 1.0958-.6191 2.3473-1.1576 1.9812-2.5375-.5284-1.9965-2.1292-1.0705-3.1029-.4605-.6283.3902-1.3359-1.0249-2.6718-.4656-1.0476.4396-.6958 1.0171-1.6137 1.4515-.5543.2601-2.0188-.2757-2.6614.7427-1.1918 1.8898.7686 2.9589-.1116 4.8318-1.0283 2.1851 3.9453 4.2271 4.2284 3.6574.3284-.6646-1.0192-2.0472-.6492-2.6221.5557-.8662.8919-.2445 1.7605.1301.9269.398 2.2135-.0273.9373-.9846s-.7024-1.3735.1402-1.5738z" fill="#1f1f39"/><g fill="#603a3e" opacity=".76"><path d="m155.206 76.4226c-.051-.003-.101-.0188-.145-.0461-.044-.0272-.081-.065-.107-.1099-1.988-3.4129-4.795-5.4848-8.578-6.3341-.079-.0207-.148-.0713-.19-.1412-.043-.07-.057-.1537-.039-.2337.018-.0799.066-.1498.135-.1949.068-.0451.151-.0618.231-.0467 3.965.8896 6.903 3.0591 8.985 6.6332.029.0494.044.1057.044.163-.001.0572-.017.1132-.047.1619s-.073.0883-.124.1144c-.051.0262-.108.038-.165.0341z" opacity=".76"/><path d="m153.928 70.9223c-.075-.005-.145-.0363-.199-.0885-1.491-1.4424-2.922-2.4269-4.503-3.0968-1.539-.6503-3.229-1.008-5.323-1.1211-.083-.0049-.161-.0426-.217-.1051-.055-.0624-.084-.1444-.079-.2279s.043-.1616.105-.2172.144-.0842.227-.0793c4.284.2302 7.242 1.5035 10.229 4.3935.046.045.078.103.09.1664s.005.129-.021.1881-.069.1088-.124.1424c-.055.0335-.119.0494-.184.0455z" opacity=".76"/></g><g fill="#603a3e" opacity=".76"><path d="m38.7344 124.278c-.0073.052-.027.1-.0573.142s-.0703.076-.1167.099c-3.5468 1.73-5.8213 4.378-6.9508 8.094-.0244.08-.0797.147-.1536.187-.0738.039-.1603.047-.2404.023-.08-.025-.1471-.08-.1864-.154s-.0477-.161-.0233-.241c1.184-3.893 3.565-6.666 7.278-8.477.0514-.026.1087-.036.1656-.031.057.005.1115.025.1578.059s.0825.079.1049.132.0301.111.0222.167z" opacity=".76"/><path d="m33.1621 125.143c-.0104.074-.0467.142-.1026.191-1.5475 1.382-2.6341 2.732-3.4208 4.267-.7634 1.488-1.2451 3.15-1.5151 5.232-.0149.08-.0598.151-.1253.198-.0656.048-.1469.068-.227.057-.0802-.011-.1531-.052-.2038-.115-.0506-.063-.0751-.144-.0684-.224.5518-4.256 2.0422-7.122 5.1424-9.885.0484-.042.1085-.069.1721-.076.0637-.007.1281.006.1844.036.0564.031.1022.078.1313.135.029.057.04.122.0315.186z" opacity=".76"/></g><g fill="#fff"><path d="m169.48 167.816c1.401-.143 2.525 1.847.349 3.121-2.176 1.275-1.455 2.526-1.402 3.065.053.538-1.209 1.43-3.07.568-1.862-.862-1.374-3.426-3.195-3.893-1.822-.467-2.41-3.012-.883-3.902 1.527-.889 2.834-.275 3.29-1.951.455-1.675 4.65-2.814 4.403-.902-.246 1.912-1.437 4.094.508 3.894z"/><path d="m185.993 178.978c.278.442-.633 1.277-1.112.48-.39-.651-.984-.943-1.182-.87-.703.26-1.051-.439-.561-.885.557-.503.89-.91.779-1.561-.11-.65.542-.999 1.122-.604.58.394.599 1.525 1.298 1.477.7-.048 1.039 1.336.287 1.48-.751.145-.631.483-.631.483z"/></g></svg>