<svg fill="none" height="37" viewBox="0 0 114 37" width="114" xmlns="http://www.w3.org/2000/svg"><path d="m48.9068 19.4671c0 5.3006-4.161 9.2065-9.2674 9.2065s-9.2673-3.9059-9.2673-9.2065c0-5.338 4.1609-9.2066 9.2673-9.2066s9.2674 3.8686 9.2674 9.2066zm-4.0569 0c0-3.3124-2.4115-5.5788-5.2105-5.5788-2.7989 0-5.2105 2.2664-5.2105 5.5788 0 3.2791 2.4116 5.5787 5.2105 5.5787 2.799 0 5.2105-2.3037 5.2105-5.5787z" fill="#ea4335"/><path d="m68.8999 19.4671c0 5.3006-4.1609 9.2065-9.2673 9.2065s-9.2674-3.9059-9.2674-9.2065c0-5.3339 4.161-9.2066 9.2674-9.2066s9.2673 3.8686 9.2673 9.2066zm-4.0568 0c0-3.3124-2.4116-5.5788-5.2105-5.5788-2.799 0-5.2106 2.2664-5.2106 5.5788 0 3.2791 2.4116 5.5787 5.2106 5.5787 2.7989 0 5.2105-2.3037 5.2105-5.5787z" fill="#fbbc05"/><path d="m88.0596 10.8167v16.5286c0 6.7991-4.0235 9.576-8.78 9.576-4.4775 0-7.1723-2.9844-8.1886-5.4251l3.532-1.4653c.6289 1.4985 2.17 3.2667 4.6524 3.2667 3.0447 0 4.9315-1.872 4.9315-5.3961v-1.3241h-.1416c-.908 1.1166-2.6574 2.092-4.8649 2.092-4.6191 0-8.8508-4.0097-8.8508-9.1691 0-5.1969 4.2317-9.2398 8.8508-9.2398 2.2034 0 3.9527.9754 4.8649 2.0588h.1416v-1.4984h3.8527zm-3.5653 8.6836c0-3.2418-2.17-5.612-4.9315-5.612-2.7989 0-5.1439 2.3702-5.1439 5.612 0 3.2085 2.345 5.5455 5.1439 5.5455 2.7615 0 4.9315-2.337 4.9315-5.5455z" fill="#4285f4"/><path d="m94.411 1.12866v26.98044h-3.9569v-26.98044z" fill="#34a853"/><path d="m109.83 22.4972 3.149 2.092c-1.016 1.4984-3.466 4.0802-7.697 4.0802-5.248 0-9.1677-4.0429-9.1677-9.2065 0-5.475 3.9527-9.2066 8.7137-9.2066 4.794 0 7.139 3.8022 7.905 5.8569l.421 1.046-12.35 5.0972c.946 1.8471 2.416 2.7894 4.478 2.7894 2.066 0 3.498-1.0128 4.548-2.5486zm-9.692-3.3124 8.255-3.4161c-.454-1.1498-1.82-1.9509-3.428-1.9509-2.062 0-4.931 1.8139-4.827 5.367z" fill="#ea4335"/><path d="m15.3944 17.0721v-3.9059h13.2075c.1291.6807.1958 1.486.1958 2.3577 0 2.9305-.8039 6.5541-3.3946 9.136-2.5199 2.615-5.7395 4.0097-10.0046 4.0097-7.90531 0-14.552797-6.4172-14.552797-14.2955s6.647487-14.2954867 14.552797-14.2954867c4.3734 0 7.4889 1.7101467 9.8297 3.9391467l-2.7657 2.75615c-1.6785-1.56902-3.9526-2.78936-7.0681-2.78936-5.77284 0-10.28781 4.63648-10.28781 10.38955 0 5.753 4.51497 10.3895 10.28781 10.3895 3.7444 0 5.8769-1.4984 7.2431-2.8599 1.1079-1.1041 1.8368-2.6814 2.1242-4.8357z" fill="#4285f4"/></svg>