<svg fill="none" height="36" viewBox="0 0 125 36" width="125" xmlns="http://www.w3.org/2000/svg"><path d="m119.176 31.3471c2.452 0 4.189-.4415 5.484-1.3924v-4.3132c-1.329.917-2.93 1.4943-5.178 1.4943-3.78 0-5.347-2.9207-5.347-7.5396 0-4.8566 1.907-7.3359 5.381-7.3359 2.044 0 4.054.7132 5.109 1.3925v-4.48303c-1.124-.61132-3.065-1.05283-5.722-1.05283-6.778 0-10.286 4.85656-10.286 11.64906.034 7.4377 3.474 11.5811 10.559 11.5811zm-33.1405-1.9698v-4.3132c-1.6348 1.1208-4.4278 2.1057-6.9822 2.1057-3.8829 0-5.3475-1.834-5.5859-5.5698h12.8066v-2.7849c0-7.7774-3.4401-10.69816-8.7194-10.69816-6.4714 0-9.5368 4.92456-9.5368 11.68306 0 7.7773 3.8488 11.5471 10.5927 11.5471 3.3719 0 5.8583-.9169 7.425-1.9698zm-48.6035-20.85281v8.83021h-7.0845v-8.83021h-5.3133v22.38111h5.3133v-9.3396h7.0845v9.3396h5.3134v-22.38111zm29.2575 18.16981h-2.3501v-18.16981h-15.4633v1.90191c0 5.4679-.3406 12.5321-2.2139 16.2679h-1.703v9.3057h4.9047v-5.0944h11.8869v5.0944h4.9046v-9.3057zm36.2735 4.2113h6.029l-8.515-12.0566 7.493-10.32451h-5.347l-7.4935 10.32451v-10.32451h-5.3133v22.38111h5.3133v-11.0038zm-25.5446-18.6453c2.6226 0 3.44 2.1736 3.44 4.9925v.4415h-7.391c.1363-3.566 1.4305-5.434 3.951-5.434zm-18.3924 14.434h-7.4932c1.4646-3.3623 1.8733-9.4755 1.8733-13.3472v-.6792h5.6199z" fill="#000"/><path d="m20.6063 30.9057h-5.4156v-26.72834h-2.4182c-4.42781 0-6.74389 2.20755-6.74389 5.50188 0 3.73586 1.60082 5.46796 4.90459 7.67546l2.7248 1.834-7.83375 11.717h-5.82425l7.05041-10.4604c-4.05313-2.8868-6.335151-5.7057-6.335151-10.46039 0-5.9434 4.155311-9.98491 12.023141-9.98491h7.8338z" fill="#fc3f1d"/></svg>