<svg fill="none" height="116" viewBox="0 0 114 116" width="114" xmlns="http://www.w3.org/2000/svg" xmlns:xlink="http://www.w3.org/1999/xlink"><linearGradient id="a"><stop offset="0" stop-color="#f8db8b"/><stop offset="1" stop-color="#68b790"/></linearGradient><linearGradient id="b" gradientUnits="userSpaceOnUse" x1="-12.4188" x2="132.051" xlink:href="#a" y1="54.3141" y2="67.0689"/><linearGradient id="c" gradientUnits="userSpaceOnUse" x1="-4.63001" x2="120.422" xlink:href="#a" y1="54.3593" y2="71.9332"/><linearGradient id="d" gradientUnits="userSpaceOnUse" x1="13.3589" x2="107.855" xlink:href="#a" y1="27.2924" y2="44.2858"/><linearGradient id="e" gradientUnits="userSpaceOnUse" x1="16.3645" x2="104.919" xlink:href="#a" y1="27.8724" y2="44.4823"/><linearGradient id="f" gradientUnits="userSpaceOnUse" x1="13.3275" x2="77.6486" xlink:href="#a" y1="13.8953" y2="60.1609"/><linearGradient id="g"><stop offset="0" stop-color="#067431"/><stop offset="1" stop-color="#2e9f5a"/></linearGradient><linearGradient id="h" gradientUnits="userSpaceOnUse" x1="19.7759" x2="35.343" xlink:href="#g" y1="50.424" y2="71.8699"/><linearGradient id="i" gradientUnits="userSpaceOnUse" x1="8.22144" x2="13.7595" xlink:href="#g" y1="51.109" y2="63.0205"/><linearGradient id="j" gradientUnits="userSpaceOnUse" x1="7.88729" x2="23.8622" y1="64.5449" y2="64.5449"><stop offset="0" stop-color="#febbba"/><stop offset="1" stop-color="#ff928e"/></linearGradient><linearGradient id="k" gradientUnits="userSpaceOnUse" x1="65.7586" x2="101.44" xlink:href="#a" y1="92.0216" y2="94.2002"/><linearGradient id="l" gradientUnits="userSpaceOnUse" x1="69.1096" x2="103.44" xlink:href="#a" y1="105.753" y2="111.675"/><clipPath id="m"><path d="m0 0h114v116h-114z"/></clipPath><g clip-path="url(#m)"><path d="m109.222 77.9139c-11.0607 26.1001-40.5229 40.7221-66.073 36.7781-4.1576-.642-15.5551-2.554-25.6466-11.573-19.42619-17.3619-23.58085-51.7426-7.91024-75.9709 11.40544-17.63406 31.85084-27.63036 51.27824-27.1303168 4.1845.1077138 20.2219.7713998 34.3156 12.4186168 2.0699 1.711 6.636 5.776 10.751 12.2252 9.663 15.1438 10.493 36.2425 3.285 53.2523z" fill="url(#b)" opacity=".3"/><path d="m44.8835 84.5155-2.4392 21.8945h28.3014l-3.6864-21.8945z" fill="#364154"/><path d="m76.842 110.889h-41.4211c-1.1252 0-1.9705-.801-1.7528-1.663l.5316-2.103c.1598-.633.8552-1.097 1.6811-1.123l39.9317-1.247c.8631-.027 1.6273.432 1.8153 1.089l.9579 3.35c.2492.871-.5999 1.697-1.7437 1.697z" fill="#364154"/><path d="m2.72559 28.5535v56.1771c-.00009 2.2222.86718 4.3565 2.41692 5.9479 1.54974 1.5915 3.65936 2.5142 5.87909 2.5715 20.5026.529 73.3088 1.812 92.8264 1.5241 1.614-.0245 3.156-.6715 4.305-1.806 1.149-1.1346 1.817-2.6692 1.863-4.284.376-13.05.987-44.4313-1.275-59.0005-.23-1.4869-.972-2.8466-2.098-3.844-1.125-.9973-2.564-1.5696-4.067-1.6179-17.1797-.5498-74.292-2.296-93.79976-1.8577-1.61654.0364-3.15468.7044-4.28543 1.861-1.13075 1.1567-1.76433 2.7103-1.76522 4.3285z" fill="#364154"/><path d="m6.24707 28.28v53.3704c.0004 1.2965.51038 2.5408 1.41979 3.4643.90941.9234 2.14527 1.4518 3.44064 1.471l89.9315 1.3456c.635.0095 1.266-.1072 1.855-.3431s1.126-.5865 1.579-1.0314c.454-.4449.814-.9753 1.061-1.5606.247-.5852.376-1.2137.379-1.849l.182-52.8931c.003-.9195-.354-1.8037-.994-2.463-.641-.6592-1.514-1.041-2.432-1.0634l-92.5235-2.2529c-.5073-.0125-1.01194.0767-1.48425.2623s-.90276.4638-1.26601.8184c-.36324.3546-.65195.7783-.84914 1.2462-.19718.4679-.29885.9705-.29903 1.4783z" fill="url(#c)"/><path d="m106.732 90.117h-.003l-100.48257-2.0357c-.03796-.0027-.07345-.0198-.09914-.0479s-.03961-.065-.03886-.103c.00074-.0381.01609-.0744.04285-.1015.02677-.027.06292-.0427.10095-.0439l100.48377 2.0358c.038.0023.074.0191.1.0469s.04.0644.04.1024c-.001.038-.016.0744-.042.1018-.026.0273-.062.0435-.1.0451z" fill="#fff" opacity=".65"/><path d="m57.7185 106.583c-.0379-.002-.0736-.019-.0997-.046-.0261-.028-.0407-.064-.0407-.102s.0146-.075.0407-.102c.0261-.028.0618-.044.0997-.046l1.711-.025c.0392 0 .0768.015.1045.043s.0433.065.0433.105c0 .039-.0156.077-.0433.104-.0277.028-.0653.044-.1045.044z" fill="#fff"/><path d="m35.201 109.744c-.0078 0-.0156-.001-.0232-.002-.0193-.003-.0379-.009-.0546-.019-.0167-.011-.0313-.024-.0428-.04-.0116-.015-.0199-.033-.0245-.052s-.0054-.039-.0023-.058l.2442-1.53c.0634-.401.2662-.766.5726-1.031.3065-.266.6968-.414 1.102-.419l18.149-.266c.0194 0 .0387.004.0567.011.0181.007.0345.018.0484.031.0139.014.0251.03.0327.048.0077.018.0118.037.0121.056.0003.02-.0033.039-.0105.057s-.0178.034-.0313.048c-.0136.014-.0297.025-.0475.033-.0179.008-.037.012-.0564.012l-18.1479.263c-.3355.004-.6587.127-.9125.347-.2537.22-.4217.522-.4743.854l-.2417 1.533c-.0058.035-.0239.067-.0511.09-.0272.022-.0617.035-.0971.034z" fill="#fff"/><path d="m12.8878 81.6557 20.3117.3152c.5546.0087 1.0901-.202 1.4903-.5863.4001-.3843.6325-.9112.6466-1.466l.2401-9.3977c.0072-.2808-.0419-.5602-.1443-.8218s-.256-.5-.4519-.7013c-.1958-.2013-.4299-.3613-.6884-.4707-.2586-.1094-.5364-.1659-.8171-.1663l-20.3192-.0261c-.5492-.0005-1.0769.2138-1.4704.5973-.3935.3834-.6217.9056-.6359 1.4551l-.2322 9.1081c-.0071.2783.0409.5552.1413.8148.1005.2596.2513.4967.4439.6976.1925.2008.4229.3616.6779.4728s.5295.1708.8076.1753z" fill="#f4f7fa"/><g fill="#f4f7fa" opacity=".7"><path d="m77.001 61.1552 3.7257.0435.6951-27.2509-3.722-.191z" opacity=".7"/><path d="m70.2764 61.076 3.7978.0448.351-13.7568-3.7961-.1197z" opacity=".7"/><path d="m63.4209 60.9957 3.8723.0455.7762-30.4135-3.8682-.2125z" opacity=".7"/><path d="m56.4307 60.9136 3.9493.0464.6673-26.1563-3.9456-.1914z" opacity=".7"/><path d="m49.3008 60.83 4.028.0472.1809-7.083-4.0272-.087z" opacity=".7"/><path d="m42.0273 60.7443 4.1092.0484.4292-16.8146-4.107-.1437z" opacity=".7"/><path d="m34.6055 60.6572 4.1931.0493.6247-24.4793-4.1894-.1894z" opacity=".7"/><path d="m27.0312 60.5682 4.2797.0505.46-18.0342-4.2768-.1546z" opacity=".7"/><path d="m19.2998 60.4774 4.3687.0513.7211-28.2625-4.3645-.2163z" opacity=".7"/><path d="m11.4062 60.385 4.4602.0522.8102-31.7421-4.4556-.2399z" opacity=".7"/></g><path d="m85.2199 55.8545 16.4671.3227c.245.0048.482-.0877.659-.2573.178-.1696.281-.4025.287-.6479.003-.1223-.018-.2439-.062-.358s-.11-.2184-.194-.307c-.084-.0885-.185-.1595-.297-.2089s-.232-.0762-.354-.079l-16.4659-.3687c-.2458-.0054-.4837.0868-.6616.2566-.1779.1697-.2814.4031-.2876.6491v.0455c-.0032.1224.0179.2442.0619.3584.0441.1142.1102.2186.1947.3072.0845.0885.1856.1595.2976.2088.1119.0493.2325.076.3548.0785z" fill="#f4f7fa"/><path d="m85.2984 52.5952 16.4646.4011c.247.0062.485-.0857.664-.2554.178-.1697.282-.4035.289-.6499.006-.2461-.086-.4846-.255-.6632-.17-.1786-.403-.2828-.649-.2896l-16.4631-.4466c-.1219-.0031-.2432.0178-.3571.0616-.1138.0438-.2179.1096-.3063.1936-.0884.0841-.1594.1848-.209.2963-.0495.1115-.0766.2317-.0797.3537v.0456c-.0063.2459.0851.4842.2541.6628s.4019.2829.6475.29z" fill="#f4f7fa"/><path d="m85.2162 81.2415 16.4648.401c.122.0031.243-.0178.357-.0616s.218-.1096.306-.1936c.089-.0841.16-.1848.209-.2963.05-.1115.077-.2317.08-.3537.006-.2462-.085-.4848-.254-.6635-.17-.1787-.403-.2827-.649-.2894l-16.465-.4486c-.1219-.0032-.2433.0177-.3571.0614-.1139.0438-.218.1096-.3064.1937-.0885.084-.1595.1847-.209.2963-.0495.1115-.0766.2318-.0796.3538v.0455c-.0035.1221.0172.2437.0608.3578.0435.114.1091.2184.193.3071s.1844.1599.2959.2097c.1114.0498.2316.0771.3536.0804z" fill="#f4f7fa"/><path d="m84.4372 75.5571c-.0058.1952.0275.3896.0982.5717.0706.1821.177.3481.313.4883.1359.1401.2985.2516.4783.3277.1797.0761.3729.1153.5681.1153h15.3862c.173.0078.346-.0191.509-.0791s.312-.1518.439-.2702.229-.2609.3-.4193c.071-.1583.11-.3293.115-.5028l.396-15.5536c.009-.346-.12-.6814-.358-.9325-.238-.251-.566-.3972-.912-.4064l-15.5238-.411c-.1714-.0045-.342.0248-.5021.0863s-.3065.154-.4309.2721c-.1244.1182-.2242.2597-.2939.4165s-.1079.3258-.1123.4974z" fill="#f4f7fa"/><path d="m17.7007 73.7014c1.5557.0982 1.8099-.7979 3.3453-.8464 2.6044-.0828 3.1769 2.4675 5.6835 2.4928 2.0467.0207 2.6047-1.6762 4.6249-1.4351 1.5019.1794 1.7727 1.1898 3.2365 1.3713.2866.0352.5765.0352.8631 0l-.113 4.4328c-.0156.6093-.2709 1.1879-.7103 1.6099-.4394.4221-1.0275.6536-1.6365.6442l-19.8485-.3082c-.312-.0047-.6201-.0712-.9063-.1959-.2862-.1246-.5449-.3048-.761-.5302s-.3854-.4914-.498-.7827c-.1127-.2913-.1665-.6021-.1583-.9143l.207-8.1333c1.3119.1285 2.2636.4503 2.9429.7693 1.6344.7656 2.1589 1.7251 3.7287 1.8258z" fill="#f4f7fa"/><path d="m87.0802 48.6467h13.2408c.664 0 1.302-.2596 1.777-.7233.475-.4638.751-1.095.768-1.7591l.269-10.5759c.009-.3397-.051-.6777-.175-.994s-.31-.6045-.547-.8477-.521-.4365-.834-.5685c-.313-.1319-.649-.1999-.988-.1998h-13.2409c-.6637 0-1.3012.2595-1.7765.7231-.4753.4637-.7508 1.0948-.7678 1.7589l-.2699 10.5759c-.0084.3397.0512.6776.1753.9939s.3102.6045.5473.8478c.237.2432.5204.4365.8332.5686.3129.132.649.2.9885.2001z" fill="#f4f7fa"/><path d="m12.7294 66.8814 66.4227.2126c.3804.0012.7462-.1467 1.019-.4119.2729-.2653.4312-.6269.4411-1.0075.0049-.1935-.0287-.386-.0989-.5663-.0703-.1803-.1757-.3448-.3101-.4839-.1345-.1391-.2953-.2499-.4731-.3261s-.3689-.1162-.5623-.1176l-66.4161-.4922c-.3814-.0028-.7487.1443-1.0229.4098-.2741.2654-.4332.6279-.443 1.0096l-.007.2796c-.005.194.0288.387.0995.5677.0706.1808.1766.3456.3117.4847.1351.1392.2967.2499.4751.3257.1785.0759.3704.1152.5643.1158z" fill="#f4f7fa"/><path d="m40.3955 81.2415 37.6523 1.1186c.2802.0082.5592-.0389.8211-.1388s.5015-.2506.7051-.4434.3671-.424.4812-.6802.1766-.5324.1838-.8128l.2484-9.7771c.0072-.2836-.0421-.5657-.1452-.8298-.1032-.2642-.258-.5051-.4553-.7086-.1974-.2035-.4334-.3656-.6942-.4766s-.5411-.1688-.8245-.17l-37.6771-.1582c-.5568-.0023-1.0922.2138-1.4917.602-.3994.3881-.6311.9174-.6452 1.4744l-.2244 8.8168c-.0143.5634.1951 1.1095.5822 1.5187.3872.4093.9206.6484 1.4835.665z" fill="#f4f7fa"/><path d="m92.5236 47.3624h-68.115c-.3584 0-.7133-.0707-1.0444-.2079-.3311-.1373-.632-.3385-.8854-.5921-.2534-.2537-.4544-.5548-.5915-.8862s-.2077-.6865-.2076-1.0452v-31.3925c0-.7169.2816-1.405.7841-1.9159s1.1855-.8037 1.9018-.8151l68.2363-1.08043c.7128-.01132 1.4208.11941 2.0827.38459.6619.26514 1.2645.65954 1.7727 1.16004.5081.5005.9116 1.0971 1.1871 1.7552s.4173 1.3645.4174 2.078v27.0172c-.0001.7278-.1434 1.4483-.4217 2.1206-.2784.6723-.6864 1.2831-1.2007 1.7976s-1.1248.9225-1.7966 1.2008c-.6719.2784-1.392.4215-2.1192.4213z" fill="url(#d)"/><path d="m90.7587 45.9546h-64.0085c-1.4162 0-2.5666-1.102-2.5666-2.4608v-28.2833c0-1.344 1.1235-2.4389 2.5252-2.4605l64.121-.9735c2.82-.0415 5.1305 2.1389 5.1305 4.8471v24.341c.0008 2.7549-2.3283 4.99-5.2016 4.99z" fill="url(#e)"/><path d="m98.0717 18.9155v-4.1105c0-3.004-2.4644-5.42717-5.4645-5.37787l-68.2524 1.08047c-1.4903.0236-2.7025 1.2395-2.7025 2.731v5.6757z" fill="url(#f)"/><g fill="#fff"><path d="m27.0027 15.8495c.1269-.5382-.2062-1.0775-.744-1.2046-.5378-.127-1.0767.2063-1.2037.7446-.1269.5382.2062 1.0775.744 1.2045.5378.1271 1.0767-.2063 1.2037-.7445z" opacity=".37"/><path d="m38.0308 29.5933c.305-.5594.7431-1.0349 1.2756-1.3844.5325-.3494 1.1429-.5621 1.7771-.6191l.0927-5.5373c-3.7671.0244-7.009 2.2429-8.4604 5.4831z" opacity=".74"/><path d="m42.1387 27.6328c1.7801.3083 3.164 1.7877 3.3292 3.5907l5.4553.3248c-.0691-4.8662-3.8499-8.9486-8.6935-9.4458z"/><path d="m45.4258 32.2659c-.1618.9065-.6413 1.7257-1.3523 2.3104-.711.5846-1.607.8965-2.5271.8796-.5587-.0065-1.1099-.1298-1.6182-.3621l-2.9516 4.705c1.4024.7647 2.9728 1.1681 4.5698 1.1741 4.9061.022 8.8864-3.6627 9.3356-8.3897z" opacity=".74"/><path d="m36.0654 39.2354 2.9595-4.7084c-.4559-.3744-.8234-.8451-1.0762-1.3783s-.3846-1.1158-.386-1.706c-.0001-.2915.0322-.582.0965-.8663l-5.3204-2.0511c-.2869.9114-.4321 1.8615-.4306 2.8171 0 3.2542 1.6497 6.1464 4.1572 7.893z" opacity=".74"/><path d="m58.3333 30.0137c.2804-.5383.6905-.9983 1.1931-1.3383.5026-.3399 1.082-.5492 1.6857-.6088l.0869-5.3779c-3.5523.0269-6.6074 2.1837-7.9748 5.3302z"/><path d="m62.208 28.1068c1.6787.2983 2.9839 1.7346 3.14 3.4854l5.1474.3128c-.0654-4.7274-3.6343-8.6892-8.2005-9.1673z" opacity=".74"/><path d="m65.3086 32.6042c-.3043 1.7815-1.8215 3.1221-3.6591 3.0993-.5278-.0063-1.0481-.1261-1.5255-.3513l-2.7832 4.5692c1.316.7404 2.799 1.1327 4.3087 1.1397 4.6278.0207 8.3834-3.5596 8.8069-8.1519z" opacity=".74"/><path d="m56.4813 39.3762 2.7898-4.5725c-.5414-.4627-.9471-1.0639-1.1738-1.7393s-.266-1.3997-.1136-2.0957l-5.0145-1.9886c-.2704.8862-.4072 1.8077-.4057 2.7343-.002 1.4967.3523 2.9724 1.0337 4.3047.6813 1.3324 1.67 2.4832 2.8841 3.3571z" opacity=".74"/><path d="m77.4919 30.4106c.5382-1.0461 1.5408-1.7773 2.7186-1.8937l.0828-5.2266c-3.3532.0294-6.2398 2.1278-7.5306 5.1856z" opacity=".74"/><path d="m81.1494 28.5555c1.586.29 2.8192 1.6836 2.9666 3.3855l4.8646.3016c-.0617-4.5986-3.436-8.4452-7.7492-8.9072z" opacity=".74"/><path d="m84.0788 32.9261c-.2873 1.7326-1.7217 3.0351-3.4567 3.014-.4995-.0066-.9915-.123-1.441-.341l-2.6284 4.4412c1.2369.7175 2.6398 1.099 4.0694 1.1065 4.372.0195 7.9214-3.4618 8.3209-7.9265z"/><path d="m75.7415 39.5092 2.6345-4.444c-.5129-.4587-.8955-1.0449-1.109-1.6993-.2134-.6544-.2502-1.3537-.1064-2.0268l-4.7343-1.9289c-.2556.8619-.3847 1.7564-.3833 2.6555 0 3.0703 1.4675 5.7971 3.6985 7.4435z" opacity=".74"/></g><path d="m25.5797 111.168s-.2898 1.632-.4293 3.248c-.0126.15.0053.3.0525.443s.1229.275.2223.387c.0995.113.2207.204.3564.269.1357.064.283.101.4331.107 2.1498.089 6.7478.264 8.3987.19.0577-.003.1139-.019.1639-.048s.0924-.07.1236-.118c.0311-.049.0502-.105.0556-.162.0054-.058-.0031-.116-.0247-.169-.0769-.194-.2251-.35-.414-.437l-7.596-3.494z" fill="#364154"/><path d="m25.3418 110.209.2314 1.952s1.3309.622 2.2396-.078l-.551-2.175z" fill="#efbc90"/><path d="m25.516 73.5067c-.1002.5096-.5382 25.4405 2.1262 36.6133.0216.088.0112.18-.0296.261s-.1092.145-.1928.18c-.4085.166-1.2092.409-2.1688.441-.1445.005-.2866-.039-.4037-.124-.1172-.085-.2029-.206-.2437-.345-.7613-2.592-4.4085-15.5795-4.8849-27.9861-.5316-13.8633 0-.4719 0-.4719l.3133-8.5695z" fill="#364154"/><path d="m16.8395 112.02s-.4583.823-.9025 3.013c-.0193.093-.0189.189.0014.282s.0598.181.1162.257c.0563.077.1282.141.2108.188.0827.047.1743.077.269.086.7095.07 1.8024.16 2.678.154.0952-.001.1894-.021.2763-.06.0868-.039.1644-.097.2277-.168.0632-.071.1107-.155.1392-.246.0286-.091.0377-.187.0266-.282-.0969-.799-.3991-2.11-1.3322-3.132z" fill="#364154"/><path d="m16.4365 109.509.5411 2.952s.5348.398 1.5925.109l-.2583-3.176z" fill="#f4caab"/><path d="m14.9761 74.2715c-2.1779 13.154.4724 32.5105 1.3661 36.2995.0264.113.0857.216.1705.296s.1913.133.306.152c.3991.067 1.0561.121 1.7035-.068.1087-.031.2047-.096.2745-.185.0698-.09.1099-.198.1147-.312.1196-3.062-.0961-21.8661 1.9332-29.2975.1029-.3764.3328-.7055.6508-.9313l3.9386-2.8023.3022-4.5293z" fill="#364154"/><path d="m28.8531 49.3476c-6.5268-.1077-13.7283 1.7152-13.7283 1.7152-1.9456 11.3605-.3402 24.464-.3402 24.464 5.0529 1.3257 10.753-.8108 10.753-.8108.8399-4.7485 4.7582-18.1121 4.7582-18.1121 3.1876-.3961 5.8159-1.3166 7.9793-2.5342-1.6501-1.914-2.4283-4.35-2.7661-5.7897-2.3075.7176-4.6428 1.1029-6.6559 1.0676z" fill="url(#h)"/><path d="m48.1331 39.7267c-.6412-.7747-1.4526-.4081-1.4526-.4081-.9605 4.06-5.9965 7.3524-11.1707 8.9615.3378 1.4396 1.1177 3.8756 2.7661 5.7896 8.5867-4.8314 9.8572-14.343 9.8572-14.343z" fill="#f4caab"/><path d="m47.9756 39.9238c.0671.2134-.7095.5386-1.167-.3343-.0161-.4184-.2703-2.211-.0207-2.5516 1.3305-1.8154 3.91-4.0906 3.91-4.0906.4359.4304.077.8534.077.8534l-1.2514 1.3042c.2616.4735.5795.8729.7306 1.4454.1094.4371.0467.8996-.1751 1.2917-.2194.3961-.5191.9115-.8027 1.3137-.5344.7623-1.3007.7681-1.3007.7681z" fill="#f4caab"/><path d="m48.9775 35.9518-1.1405.9673-.3585.9633 1.0167 1.1285s.342-1.9111.5962-2.3246c.2542-.4134.1225-.6135-.1139-.7345z" fill="#efbc90"/><path d="m17.6291 57.3872-2.5033-6.3245s-6.09664 4.1454-7.09846 9.4014c1.1521.0829 3.24806.3845 5.29886 1.4214.4513-2.4819 4.3029-4.4983 4.3029-4.4983z" fill="url(#i)"/><path d="m22.9568 63.3385s-6.8451 3.8715-9.1546.566c-.4794-.6865-.5941-1.3672-.4757-2.0189-2.0521-1.0357-4.14802-1.3369-5.29887-1.4214-.3022 1.5843-.14241 3.2696.78655 4.9715 4.04532 7.4057 15.04802-.4094 15.04802-.4094z" fill="url(#j)"/><path d="m22.1335 68.2363 3.7353-13.0534c.0205-.0724.0619-.1372.1192-.186.0573-.0489.1278-.0796.2025-.0882.6768-.0788 2.6378-.3008 4.9023-.4926 2.7277-.2308 5.895-.418 7.7877-.2585.0621.0049.1221.025.1747.0585.0526.0334.0962.0793.127.1335.0308.0543.0478.1152.0496.1776.0019.0623-.0116.1242-.0392.1801-1.0763 2.1792-5.5038 11.0436-7.721 13.9474-.036.0475-.0826.086-.1361.1123-.0534.0263-.1123.0398-.1719.0393l-8.667-.0808c-.059-.0005-.1171-.0147-.1697-.0414-.0526-.0268-.0983-.0654-.1335-.1128s-.0589-.1023-.0693-.1605c-.0104-.0581-.0071-.1179.0094-.1745z" fill="#364154"/><path d="m23.0361 65.0818s-.5203-2.141-.3104-2.9c.2098-.759.6168-1.7367 1.9721-1.5196 1.3554.2171 2.955.7872 2.955.7872s-.0828.9893-1.1111.6703l.6387.4946s-.0915.7921-.9616.3692l.5944.6558s-.3725.6508-1.0142.2336c-.6416-.4172-.9472 1.467-2.7629 1.2089z" fill="#efbc90"/><path d="m22.242 44.0448-2.0765 6.0105c-.0168.0481-.0162.1007.0018.1484s.0523.0876.0967.1126c.5663.3132 2.6056 1.2184 5.0634-.341.1269-.0794.2347-.1859.3159-.3117.0811-.1259.1335-.2681.1535-.4166l.6723-5.2022z" fill="#efbc90"/><path d="m26.5191 37.3272c.0613.0866 1.9262 6.8287 1.9262 6.8287l-3.8694.9839-2.7165-6.1273s3.6392-3.1316 4.6597-1.6853z" fill="#f4caab"/><path d="m23.3173 39.9442 1.1773 3.3374c.0151.0425.0359.0828.0617.1198.1598.227.7667.9681 1.4866.3007.6532-.6061 1.2584-1.1492 1.8177-1.2478.121-.0215.2456.003.3494.0686.1039.0656.1796.1676.2124.286.1693.6128.5253 2.0002.6507 3.253.0117.1227-.0229.2453-.0971.3437s-.1825.1654-.3036.1878c-.7559.1438-2.3596.4019-3.6959.3074-.0888-.0057-.1744-.0354-.2477-.0859s-.1317-.1198-.1688-.2008c-.3684-.8062-1.4982-3.2521-1.9179-3.8851-.3946-.5941-1.3612-.5775-1.7665-.5415-.0655.0059-.1316-.0015-.1941-.022-.0626-.0204-.1203-.0534-.1698-.0969-.3547-.3111-1.0295-1.1057-.0803-2.0565.0469-.0471.0838-.1031.1087-.1647s.0371-.1275.0361-.194c-.0011-.0664-.0154-.1319-.0422-.1927s-.0654-.1156-.1137-.1612c-.4078-.3836-.8441-1.0643-.1656-1.9082.6905-.8575 1.6021-.7212 2.1605-.5174.1092.0385.2284.0376.337-.0025s.1998-.1169.2579-.2171c.0699-.1181.1917-.2071.4032-.1889.0674.0045.1351-.0051.1986-.0282s.1216-.0592.1704-.1059c.0488-.0468.0874-.1032.1132-.1657.0259-.0625.0384-.1297.0369-.1973-.0099-.5498.1867-1.2429 1.1393-1.5408 1.6902-.5261 2.7442 1.1078 2.8489 2.3275.1048 1.2196-1.7606 1.6857-2.8564 1.6037-.8337-.0626-1.4526.7643-1.7014 1.1645-.0386.0623-.0627.1325-.0706.2053-.0079.0729.0007.1466.0251.2157z" fill="#364154"/><path d="m23.0827 43.94s-.2728-2.117-1.1529-2.221-1.7387.6214-.8615 1.8083c1.0884 1.4782 2.0144.4127 2.0144.4127z" fill="#f4caab"/><path d="m70.7025 113.724c14.0797-6.994 24.9419-17.9975 26.1536-41.0219-.0004 0-36.6471 12.2443-26.1536 41.0219z" fill="url(#k)"/><path d="m72.9798 108.559c.0385 0 .0762-.012.1077-.034s.0553-.054.0682-.09c6.3996-18.2578 18.8081-28.8217 18.9327-28.9261.0361-.0324.0582-.0775.0617-.1258.0035-.0484-.012-.0962-.0431-.1334s-.0755-.0608-.1237-.0658c-.0482-.0051-.0964.0088-.1346.0387-.1242.1052-12.61 10.73-19.0453 29.0884-.0163.047-.0134.098.008.143.0214.044.0596.079.1063.095.0199.007.0409.01.0621.01z" fill="#fff"/><path d="m72.125 113.155c9.8961.914 19.3906-1.398 27.6804-13.3839 0 0-23.7799-5.5862-27.6804 13.3839z" fill="url(#l)"/><path d="m77.7401 109.99c.0272 0 .0541-.006.0788-.017.0246-.012.0465-.029.064-.049 5.5854-6.587 18.0804-8.715 18.2063-8.736.0488-.008.0924-.035.1212-.075.0289-.04.0407-.09.0328-.139-.0037-.025-.0123-.048-.0251-.069-.0129-.021-.0299-.039-.0499-.054-.02-.014-.0427-.024-.0667-.03-.024-.005-.0489-.006-.0732-.001-.1266.02-12.757 2.17-18.4302 8.862-.023.027-.0378.06-.0427.096-.0048.035.0006.071.0155.103.0149.033.0388.06.0688.079.03.02.0648.03.1004.03z" fill="#fff"/></g></svg>