<svg fill="none" height="115" viewBox="0 0 116 115" width="116" xmlns="http://www.w3.org/2000/svg" xmlns:xlink="http://www.w3.org/1999/xlink"><linearGradient id="a"><stop offset="0" stop-color="#f8db8b"/><stop offset="1" stop-color="#68b790"/></linearGradient><linearGradient id="b" gradientUnits="userSpaceOnUse" x1="-2.39328" x2="75.3236" xlink:href="#a" y1="58.5666" y2="62.959"/><linearGradient id="c" gradientUnits="userSpaceOnUse" x1="58.6005" x2="75.1671" xlink:href="#a" y1="99.8932" y2="101.343"/><linearGradient id="d"><stop offset="0" stop-color="#067431"/><stop offset="1" stop-color="#2e9f5a"/></linearGradient><linearGradient id="e" gradientUnits="userSpaceOnUse" x1="64.0224" x2="71.2117" xlink:href="#d" y1="94.3388" y2="105.479"/><linearGradient id="f" gradientUnits="userSpaceOnUse" x1="59.9389" x2="75.7497" xlink:href="#a" y1="99.6073" y2="100.991"/><linearGradient id="g" gradientUnits="userSpaceOnUse" x1="60.214" x2="75.4831" xlink:href="#a" y1="99.6203" y2="100.956"/><linearGradient id="h" gradientUnits="userSpaceOnUse" x1="66.1132" x2="72.0319" xlink:href="#d" y1="95.7497" y2="101.298"/><linearGradient id="i" gradientUnits="userSpaceOnUse" x1="60.7426" x2="69.8952" xlink:href="#a" y1="99.6394" y2="100.118"/><linearGradient id="j" gradientUnits="userSpaceOnUse" x1="71.1251" x2="100.256" xlink:href="#a" y1="94.8307" y2="97.3801"/><linearGradient id="k" gradientUnits="userSpaceOnUse" x1="80.6595" x2="93.3014" xlink:href="#d" y1="85.063" y2="104.653"/><linearGradient id="l" gradientUnits="userSpaceOnUse" x1="73.4807" x2="101.282" xlink:href="#a" y1="94.3266" y2="96.7594"/><linearGradient id="m" gradientUnits="userSpaceOnUse" x1="73.9636" x2="100.815" xlink:href="#a" y1="94.3498" y2="96.6994"/><linearGradient id="n" gradientUnits="userSpaceOnUse" x1="84.3377" x2="94.7453" xlink:href="#d" y1="87.5438" y2="97.2964"/><linearGradient id="o" gradientUnits="userSpaceOnUse" x1="74.8939" x2="90.9888" xlink:href="#a" y1="94.3798" y2="95.2221"/><linearGradient id="p" gradientUnits="userSpaceOnUse" x1="78.3493" x2="118.722" xlink:href="#a" y1="70.3711" y2="73.9041"/><linearGradient id="q" gradientUnits="userSpaceOnUse" x1="84.7904" x2="100.352" xlink:href="#d" y1="54.4541" y2="91.4183"/><linearGradient id="r" gradientUnits="userSpaceOnUse" x1="81.6133" x2="120.142" xlink:href="#a" y1="69.6719" y2="73.0436"/><linearGradient id="s" gradientUnits="userSpaceOnUse" x1="82.2811" x2="119.493" xlink:href="#a" y1="69.7062" y2="72.9624"/><linearGradient id="t" gradientUnits="userSpaceOnUse" x1="96.6592" x2="111.083" xlink:href="#d" y1="60.273" y2="73.7935"/><linearGradient id="u" gradientUnits="userSpaceOnUse" x1="83.5707" x2="105.876" xlink:href="#a" y1="69.7474" y2="70.9147"/><linearGradient id="v" gradientUnits="userSpaceOnUse" x1="51.7715" x2="65.7123" xlink:href="#d" y1="17.1631" y2="49.1075"/><linearGradient id="w" gradientUnits="userSpaceOnUse" x1="62.4249" x2="71.1539" xlink:href="#a" y1="89.5178" y2="92.3894"/><linearGradient id="x" gradientUnits="userSpaceOnUse" x1="59.0649" x2="75.651" xlink:href="#a" y1="82.7276" y2="84.2256"/><linearGradient id="y" gradientUnits="userSpaceOnUse" x1="41.212" x2="81.5055" xlink:href="#a" y1="46.3816" y2="70.0231"/><linearGradient id="z" gradientUnits="userSpaceOnUse" x1="92.8632" x2="80.2929" xlink:href="#a" y1="47.6713" y2="24.8052"/><linearGradient id="A" gradientUnits="userSpaceOnUse" x1="41.212" x2="81.5055" xlink:href="#a" y1="48.2987" y2="71.9402"/><linearGradient id="B" gradientUnits="userSpaceOnUse" x1="59.0659" x2="71.5098" xlink:href="#a" y1="76.5731" y2="83.8689"/><linearGradient id="C" gradientUnits="userSpaceOnUse" x1="41.212" x2="94.4134" xlink:href="#a" y1="61.7407" y2="68.9012"/><linearGradient id="D" gradientUnits="userSpaceOnUse" x1="56.553" x2="92.8082" xlink:href="#a" y1="61.0772" y2="64.035"/><linearGradient id="E" gradientUnits="userSpaceOnUse" x1="27.7444" x2="41.4947" xlink:href="#d" y1="80.7851" y2="86.5599"/><linearGradient id="F" gradientUnits="userSpaceOnUse" x1="14.1694" x2="26.7434" y1="94.279" y2="94.279"><stop offset="0" stop-color="#007e33"/><stop offset="1" stop-color="#55b079"/></linearGradient><linearGradient id="G" gradientUnits="userSpaceOnUse" x1="30.4235" x2="51.0866" xlink:href="#a" y1="57.8856" y2="59.7403"/><linearGradient id="H" gradientUnits="userSpaceOnUse" x1="33.7652" x2="25.0546" y1="100.833" y2="89.1717"><stop offset="0" stop-color="#aa80f9"/><stop offset="1" stop-color="#6165d7"/></linearGradient><linearGradient id="I" gradientUnits="userSpaceOnUse" x1="30.4214" x2="50.9601" xlink:href="#a" y1="60.0147" y2="62.466"/><linearGradient id="J" gradientUnits="userSpaceOnUse" x1="1.15419" x2="42.542" xlink:href="#a" y1="67.1933" y2="70.3605"/><linearGradient id="K" gradientUnits="userSpaceOnUse" x1="2.16348" x2="31.856" xlink:href="#a" y1="68.9378" y2="70.8847"/><linearGradient id="L" gradientUnits="userSpaceOnUse" x1="11.743" x2="28.2669" xlink:href="#a" y1="58.4099" y2="59.5533"/><clipPath id="M"><path d="m0 0h116v115h-116z"/></clipPath><g clip-path="url(#M)"><path d="m108.945 77.6183c-8.192 9.319-21.8652 8.3998-21.8349 12.7925.0335 4.8508 16.7029 5.6702 17.0149 10.2342.421 6.186-29.2699 18.084-60.2656 13.212-10.6789-1.677-20.7894-3.3-29.5113-11.2-23.90292-21.6482-6.39734-67.4751-3.545-75.0603 5.6386-14.9915 12.6214-19.82466 14.7823-21.33123 11.2425-7.83954 24.1778-6.551389 35.729-5.401393 8.747.870883 21.846 2.352303 33.8034 12.236723 2.039 1.6854 6.5372 5.6912 10.5902 12.0458 9.849 15.4391 14.202 39.9991 3.237 52.4717z" fill="#f4f7fa"/><path d="m53.718 11.0227 11.1488 92.8993c.1673 1.392-.7906 2.641-2.1318 2.774l-46.4376 5.112c-2.8448.177-4.4022-1.28-4.5779-2.761l-11.7048795-98.7674c-.1748605-1.47299 1.2208395-2.80707 4.0763695-2.80707l46.85991.98948c1.3578.02316 2.6006 1.17515 2.7671 2.56069z" fill="#364154"/><path d="m55.8079 10.863 11.2102 93.363c.1681 1.4-.793 2.655-2.1393 2.79l-48.1425 4.805c-1.5092.151-2.8926-.944-3.069-2.433l-11.77106-99.2773c-.17566-1.48061.93285-2.67054 2.4588-2.64459l48.67626.82297c1.3618.02196 2.6093 1.17994 2.7766 2.57392z" fill="#364154"/><path d="m54.8944 16.0128 10.3904 86.5662c.157 1.308-.7428 2.479-2.0031 2.601l-45.2766 4.413c-1.4029.136-2.6886-.886-2.8531-2.271l-10.87805-91.7097c-.1637-1.3784.86555-2.494 2.28275-2.4788l45.7414.4883c1.2731.0136 2.4401 1.0893 2.5963 2.391z" fill="url(#b)"/><path d="m30.615 10.7987c.0594.4971-.2967.8948-.7966.8884s-.9528-.4152-1.0121-.9132c-.0594-.4979.2975-.89562.7966-.88843s.9528.41603 1.0121.91323z" fill="#364154"/><g fill="#fff"><path d="m47.0665 74.1216c-9.2692-17.1797-23.1159-22.3211-27.2847-40.0275-2.2536-9.5709-.7169-18.7309 1.8677-26.3357l-17.29446-.29229c-1.52595-.02595-2.63446 1.16398-2.4588 2.64459l11.77106 99.2773c.1764 1.489 1.5594 2.584 3.069 2.433l37.8448-3.777c.2796-15.3939-3.3829-26.2646-7.5146-33.9224z" opacity=".25"/><g opacity=".63"><path d="m54.5667 64.0983-36.7303 1.473c-.5031.02-.9959-.1464-1.3844-.4675-.3885-.3212-.6453-.7745-.7215-1.2735l-.0283-.1861c-.0436-.2863-.0264-.5787.0507-.8579s.2123-.5389.3966-.762c.1844-.2231.4137-.4045.673-.5324s.5427-.1993.8315-.2095l36.7578-1.2914c.5015-.0176.992.15 1.3784.471s.6417.7731.7175 1.2704v.006c.0433.2853.0261.5766-.0505.8548-.0765.2783-.2108.5372-.394.7599-.1831.2227-.4111.4041-.669.5325-.2578.1284-.5398.2009-.8275.2127z" opacity=".63"/><path d="m55.6506 71.0889-36.6849 1.7793c-.506.0246-1.003-.1397-1.3951-.4611-.3922-.3214-.6515-.7771-.728-1.2791l-.029-.1896c-.0435-.2851-.0266-.576.0496-.8541.0762-.278.2099-.5368.3925-.7596.1825-.2228.4099-.4045.6672-.5333.2573-.1289.5387-.202.8261-.2145l36.7108-1.5972c.5039-.0216.998.1441 1.3876.4652s.6472.7751.7235 1.2749v.01c.043.2836.0263.5732-.0491.8499-.0754.2768-.2079.5346-.3888.7569-.181.2223-.4064.4041-.6617.5336-.2553.1296-.5349.2041-.8207.2187z" opacity=".63"/><path d="m56.7343 78.0795-36.6363 2.0871c-.5084.029-1.0094-.133-1.4052-.4543-.3957-.3213-.6579-.7788-.7353-1.2834l-.0295-.1933c-.0434-.2837-.027-.5734.0481-.8503.0751-.277.2073-.5351.3881-.7576.1807-.2226.406-.4047.6613-.5347.2553-.1299.5349-.2048.8208-.2197l36.6626-1.9067c.507-.0264 1.0057.1369 1.3993.4583.3937.3215.6541.778.7309 1.2811v.0136c.0431.2824.0269.5708-.0475.8466-.0744.2759-.2055.5331-.3848.7552s-.4029.4043-.6564.5348c-.2536.1306-.5315.2066-.8161.2233z" opacity=".63"/></g><path d="m105.009 40.4119c1.41.7187 3.182.0587 3.957-1.4718.775-1.5306.26-3.3542-1.15-4.0706-.073-.0371-.147-.0682-.222-.0982.259-.8363.457-1.6904.592-2.5555.08 0 .162 0 .244-.0092 1.609-.1438 2.886-1.6256 2.852-3.3098-.034-1.6843-1.365-2.9329-2.974-2.7892-.084.0076-.167.0208-.249.0355-.166-.8296-.397-1.6451-.688-2.4393.074-.0431.147-.0882.219-.1386 1.376-.9667 1.816-2.875.983-4.2609-.833-1.386-2.625-1.7274-4.001-.7607-.07.0495-.137.103-.202.1573-.547-.6059-1.145-1.1647-1.785-1.6703.045-.0742.09-.1497.13-.2292.775-1.5305 1.788-3.202.367-3.8976-3.2873-1.6088-4.6978-.2316-5.4729 1.299-.0398.0798-.0749.1597-.1083.2395-.785-.2201-1.5872-.3736-2.3979-.4588.0048-.085.0088-.1705.0072-.2567-.0339-1.6843.4648-2.5955-1.15-2.627-3.5211-.0687-4.7088 1.4634-4.6754 3.1477.002.0878.0092.1741.0179.2595-.8117.2322-1.6043.527-2.3707.8817-.0367-.0751-.0745-.1498-.1195-.222-.8337-1.3868-2.6249-1.7274-4.0011-.7587s-1.8164 2.875-.9827 4.261c.0426.071.0893.1373.1367.2028-.6168.6194-1.1876 1.2832-1.7076 1.9862-.0681-.0428-.1375-.0847-.2103-.1218-1.4101-.7188-3.1814-.0587-3.9565 1.4718s-.2605 3.3542 1.1495 4.0701c.0733.0375.1478.0687.2223.0986-.2591.8363-.457 1.6904-.5919 2.5556-.0797 0-.1617 0-.2442.0088-1.6084.1441-2.8854 1.6255-2.8515 3.3098.0338 1.6843 1.365 2.9333 2.9734 2.7895.0841-.0075.1669-.0207.249-.0355.1666.8295.3969 1.6449.6886 2.439-.0741.0435-.1477.0882-.2194.1389-1.3762.9663-1.8164 2.875-.9827 4.261s3.5924 2.0309 4.9686 1.0641c.0705-.0495-.8309-.4065-.7655-.4608.5473.6057 1.1443 1.1643 1.7848 1.6699-.0454.0747-.0896.1502-.1298.2292-.7752 1.5306-.2605 3.3542 1.1495 4.0705 1.41.7164 3.1809.0587 3.9561-1.4714.0398-.0799.0749-.1597.1083-.2396.785.2203 1.5871.3739 2.3979.4592-.0048.0851-.0088.1701-.0072.2568.0339 1.6838 1.365 2.9329 2.9738 2.7891 1.6088-.1437 2.885-1.6255 2.8516-3.3098-.002-.0879-.0092-.1741-.0179-.2596.8117-.2325 1.6043-.5274 2.3707-.882.0367.075.0745.1497.1195.2224.8333 1.3868 2.6246 1.7274 4.0006.7607 1.376-.9668 1.816-2.875.983-4.261-.043-.0711-.089-.1374-.137-.2033.617-.6192 1.188-1.2831 1.708-1.9861.068.0407.138.0831.21.1198zm-17.5753.2236c-5.1191-2.6059-6.9876-9.2239-4.1735-14.7791 2.8141-5.5551 9.2457-7.9489 14.3645-5.3434 5.1183 2.6054 6.9873 9.2239 4.1733 14.7786-2.8139 5.5547-9.2455 7.9494-14.3643 5.3439z"/><path d="m108.43 32.2083c1.609-.1438 2.886-1.6256 2.852-3.3099-.034-1.6842-1.365-2.9329-2.974-2.7891-.084.0076-.167.0207-.249.0355-.166-.8296-.397-1.6452-.688-2.4393.074-.0431.147-.0883.219-.1386 1.376-.9667 3.079-3.3022 2.108-4.5956-1.843-2.4553-3.75-1.3927-5.126-.426-.07.0495-.137.103-.202.1573-.547-.6059-1.145-1.1647-1.785-1.6703.045-.0743.089-.1497.13-.2292.2-.3876.319-.812.35-1.2474.031-.4353-.027-.8724-.17-1.2846-1.329 2.3455-2.639 4.7014-3.9284 7.0677 4.0834 3 5.3844 8.9117 2.8314 13.9521-2.1631 4.2725-6.4629 6.6684-10.6615 6.3685-.1873.4871-.3713.9767-.572 1.459-.5441 1.3086-1.1623 2.5903-1.7813 3.8701.389.0737.7798.1314 1.1722.1729-.0047.085-.0087.1701-.0071.2563.0338 1.6843 1.0539 3.1146 3.9692 2.9605 1.6124-.0859 1.8896-1.7969 1.8562-3.4808-.002-.0878-.0092-.174-.018-.2595.8117-.2325 1.6043-.5274 2.3708-.8821.0367.0751.0745.1498.1195.2225.8333 1.3867 3.725 1.9757 5.101 1.009s.717-3.1226-.12-4.5093c-.042-.0711-.089-.1374-.136-.2033.617-.6193 1.187-1.2831 1.707-1.9861.068.0431.138.085.211.1222 1.41.7187 3.181.0587 3.956-1.4719.775-1.5305.261-3.3541-1.149-4.0705-.074-.0371-.148-.0683-.223-.0982.259-.8363.457-1.6904.592-2.5556.082.0024.163.0008.245-.0063z"/></g><path d="m106.526 40.5848c1.41.7187 3.182.0587 3.957-1.4719.775-1.5305.26-3.3541-1.15-4.0705-.073-.0371-.147-.0682-.222-.0982.259-.8362.457-1.6904.592-2.5555.08 0 .162 0 .244-.0088 1.609-.1438 2.886-1.6256 2.852-3.3098-.034-1.6843-1.365-2.9329-2.974-2.7892-.084.0076-.167.0208-.249.0356-.166-.8293-.396-1.6444-.688-2.4382.074-.0431.148-.0882.22-.1386 1.376-.9667 1.816-2.8749.983-4.2609s-2.625-1.7274-4.001-.7587c-.071.0495-.137.103-.203.1573-.547-.6059-1.144-1.1646-1.784-1.6703.045-.0742.089-.1501.129-.2292.776-1.5305.261-3.3541-1.149-4.0705-1.41-.7163-3.181-.0587-3.9561 1.4719-.0399.0798-.0749.1597-.108.2395-.7852-.2205-1.5876-.3744-2.3986-.46.0047-.085.0087-.1705.0071-.2567-.0338-1.6843-1.365-2.9329-2.9734-2.7891-1.6084.1437-2.8854 1.6255-2.8516 3.3098 0 .0878.0088.1737.0176.2595-.8116.2322-1.6041.527-2.3704.8817-.037-.0751-.0749-.1497-.1195-.222-.8313-1.3868-2.6237-1.7274-4.0003-.7619s-1.8163 2.875-.9826 4.261c.0426.0707.0892.1373.137.2028-.6168.6195-1.1877 1.2833-1.708 1.9862-.0681-.0428-.137-.0847-.2103-.1198-1.4096-.7188-3.181-.0587-3.9561 1.4718s-.2605 3.3542 1.1492 4.0701c.0733.0375.1477.0687.2226.0986-.2595.8362-.4573 1.6904-.5919 2.5556-.0796 0-.1621 0-.2445.0088-1.6084.1437-2.885 1.6255-2.8516 3.3098.0335 1.6843 1.365 2.9329 2.9738 2.7891.0841-.0071.1665-.0207.2486-.0351.1667.8295.3969 1.6449.6887 2.439-.0741.0435-.1478.0882-.2195.1389-1.3762.9663-1.8163 2.875-.9826 4.2606.8336 1.3856 2.6245 1.7274 4.0006.7611.0705-.05.1371-.1031.2024-.1574.5473.6057 1.1443 1.1643 1.7848 1.6699-.0454.0747-.0896.1502-.1298.2292-.7751 1.5306-.2605 3.3542 1.1495 4.0705 1.4101.7164 3.181.0587 3.9561-1.4714.0398-.0799.0749-.1597.1084-.2396.785.2203 1.5871.3739 2.3978.4592-.0048.0851-.0087.1701-.0071.2568.0338 1.6838 1.365 2.9329 2.9738 2.7891 1.6088-.1437 2.885-1.6256 2.8515-3.3098 0-.0883-.0091-.1741-.0179-.2596.8117-.2325 1.6043-.5274 2.3708-.882.0366.075.0745.1497.1195.2224.833 1.3864 2.624 1.7274 4.001.7587 1.376-.9688 1.816-2.875.983-4.261-.043-.0711-.09-.1374-.137-.2033.617-.6192 1.187-1.2831 1.707-1.9861.067.0415.136.083.209.1206zm-17.5753.2232c-5.1192-2.6055-6.9877-9.2219-4.1736-14.7786 2.8141-5.5568 9.2457-7.949 14.3649-5.3435 5.119 2.6054 6.987 9.2239 4.173 14.7786s-9.244 7.9494-14.3643 5.3435z" fill="#d8dee8"/><path d="m78.8329 13.8294c.5751.2927 1.2981.024 1.6143-.5989.3163-.623.1064-1.3681-.4692-1.6608-.0295-.0155-.0601-.0279-.0904-.0399.1057-.341.1863-.6893.2414-1.0422.033 0 .0661 0 .0996-.0036.6564-.0587 1.1774-.66321 1.1634-1.35041-.0139-.6872-.5576-1.19791-1.2132-1.13802-.0343.0028-.0677.00839-.1012.01438-.0681-.33844-.1621-.67112-.2812-.99507.0303-.01797.0601-.03634.0896-.0567.5616-.39451.7409-1.17276.4011-1.73857-.3397-.56582-1.0711-.70477-1.6331-.31066-.0287.02036-.0557.04233-.0824.06429-.2234-.24717-.4671-.47505-.7285-.68121.0187-.03075.0366-.0615.0533-.09384.3163-.62451.7293-1.30652.1494-1.59043-1.3411-.65606-1.9167-.09424-2.233.53028-.0163.03234-.0302.06508-.0438.09783-.3204-.08961-.6478-.15225-.9786-.18728.0019-.03434.0035-.06948.0027-.10462-.0135-.6872.19-1.05895-.4692-1.07173-1.4363-.02795-1.921.59696-1.9075 1.28416 0 .03594.0036.07108.0072.10582-.3312.09464-.6545.21479-.9671.35937-.0152-.03074-.0307-.06149-.0482-.09104-.3402-.56581-1.0711-.70477-1.6331-.31026-.5621.39452-.7401 1.17156-.4 1.73658.0172.02915.0363.0563.0558.08305-.2516.25264-.4845.52343-.6966.81019-.0279-.01757-.0562-.03434-.0861-.04951-.5751-.29309-1.2981-.02396-1.6144.59895-.3162.62292-.1063 1.36842.4693 1.66111.0298.01517.0601.02795.0908.03993-.1059.34101-.1867.68934-.2418 1.04218-.0331 0-.0661 0-.0996.0036-.6564.05869-1.1774.66324-1.1635 1.35043.014.6872.5577 1.1979 1.2133 1.1384.0343-.0032.0681-.0088.1016-.0147.0673.3384.1606.6712.2788.9954-.0303.0176-.0601.036-.0896.0567-.5612.3941-.7409 1.1728-.4007 1.7386.3401.5658 1.4658.8285 2.0274.434.0287-.0199-.3394-.1657-.3127-.188.2234.2473.4671.4753.7285.6816-.0187.0303-.0366.0611-.0529.0934-.3163.6245-.1064 1.368.4688 1.6611s1.2981.024 1.6144-.5989c.0163-.0324.0306-.0655.0442-.0983.3203.0899.6475.1525.9782.1873-.002.0347-.0035.0695-.0027.1046.0135.6872.5576 1.1979 1.2132 1.138.6557-.0599 1.1774-.6632 1.1635-1.3504 0-.0359-.0036-.0711-.0072-.1058.3311-.0948.6544-.215.9671-.3594.0152.0308.0307.0611.0482.0906.3402.5659 1.0711.7048 1.6331.3103.5621-.3945.7409-1.1727.4011-1.7386-.0175-.0287-.0366-.0559-.0561-.0826.2517-.2529.4846-.5238.697-.8106.0299.0176.0574.0347.0873.0499zm-7.1697.091c-2.0888-1.0629-2.8512-3.7626-1.7028-6.02945 1.1483-2.26685 3.7724-3.24314 5.8612-2.1802 2.0888 1.06295 2.8507 3.76305 1.7028 6.02945-1.1479 2.2665-3.7741 3.2436-5.8628 2.1802z" fill="#fff"/><path d="m80.2279 10.4821c.6564-.0587 1.1774-.66328 1.1634-1.35048-.0139-.68721-.5576-1.19792-1.2132-1.13802-.0343.00279-.0678.00838-.1012.01437-.0681-.33843-.1621-.67111-.2812-.99506.0302-.01797.0601-.03634.0896-.0567.5616-.39451 1.2563-1.34725.86-1.87673-.7521-1.00186-1.53-.56821-2.0916-.1741-.0287.02037-.0558.04233-.0824.06429-.2234-.24717-.4671-.47504-.7286-.68121.0188-.03075.0367-.0615.0534-.09384.0817-.15813.1303-.33131.1429-.50892.0126-.17762-.0111-.35595-.0696-.52408-.5422.95833-1.0765 1.91972-1.6028 2.88417 1.6665 1.22427 2.1967 3.63647 1.1551 5.69291-.8827 1.7425-2.6373 2.7212-4.3504 2.5986-.0765.1997-.1514.3993-.2334.5954-.2219.5339-.4744 1.0566-.727 1.5789.1594.0303.3187.0539.478.0706-.002.0348-.0036.0695-.0028.1046.0136.6873.4298 1.271 1.6196 1.2079.658-.0351.7711-.7331.7568-1.4203 0-.0359-.0036-.0711-.0072-.1058.3311-.0948.6544-.215.9671-.3594.0152.0308.0307.0611.0482.0907.3402.5658 1.52.8062 2.0816.4117.5617-.3946.292-1.2742-.0478-1.84-.0175-.0288-.0366-.0559-.0561-.0827.2517-.2529.4846-.5238.697-.8106.0275.0176.0558.0348.0857.0499.5751.2927 1.2981.024 1.6143-.5989.3163-.6229.1064-1.368-.4688-1.6611-.0299-.0152-.0605-.0276-.0908-.04.1056-.341.1863-.6893.2414-1.0421.0342-.0004.0673-.0012.1008-.004z" fill="#fff"/><path d="m79.452 13.9013c.5752.2931 1.2978.024 1.614-.5989.3163-.623.1064-1.3685-.4688-1.6611-.0299-.0152-.0601-.028-.0908-.04.1057-.341.1864-.6893.2414-1.0422.033 0 .0661 0 .0999-.0036.6565-.0587 1.1771-.6632 1.1635-1.3504-.0135-.6872-.5576-1.19792-1.2132-1.13842-.0343.0032-.0682.00879-.1016.01478-.068-.33861-.162-.67142-.2812-.99547.0302-.01757.0605-.03594.0896-.0567.5616-.39411.7413-1.17276.4011-1.73857-.3402-.56582-1.0711-.70477-1.6331-.31026-.0291.02036-.0562.04193-.0829.06429-.2231-.24729-.4667-.4753-.7281-.68162.0183-.03034.0367-.06109.053-.09343.3163-.62451.1064-1.36802-.4692-1.66111s-1.2977-.02396-1.614.59896c-.0163.03234-.0307.06548-.0442.09823-.3204-.08987-.6478-.15252-.9787-.18728.0024-.03474.004-.06948.0032-.10462-.0139-.6872-.5576-1.19791-1.2133-1.13801-.6556.05989-1.1774.66324-1.1634 1.35045 0 .03593.0036.07107.0071.10581-.3312.09474-.6546.21489-.9675.35937-.0147-.03074-.0302-.06109-.0482-.09064-.3397-.56581-1.071-.70477-1.6331-.31026-.562.39451-.7412 1.17276-.4011 1.73857.0175.02875.0367.05591.0558.08266-.2516.25286-.4844.52378-.6967.81059-.0279-.01757-.0561-.03474-.086-.04992-.5752-.29269-1.2977-.02395-1.614.59896-.3162.62292-.1063 1.36802.4688 1.66111.0299.01517.0602.02755.0909.03993-.1059.34099-.1866.68932-.2414 1.04218-.0331 0-.0661 0-.1.00359-.656.0587-1.177.66325-1.1635 1.35043.0136.6872.5577 1.1979 1.2133 1.138.0342-.0028.0681-.0083.1016-.0143.0679.3384.1619.6711.2812.995-.0303.018-.0606.0364-.0897.0567-.5616.3945-.7412 1.1728-.4011 1.7386.3402.5658 1.0711.7048 1.6331.3107.0287-.0204.0558-.0424.0825-.0643.2232.2471.4668.475.7281.6812-.0183.0307-.0366.0615-.053.0938-.3162.6245-.1063 1.368.4693 1.6607.5755.2927 1.2977.024 1.6139-.5989.0164-.0324.0307-.0651.0442-.0979.3205.0897.6478.1524.9787.1873-.002.0348-.0036.0695-.0032.1046.014.6872.5577 1.1979 1.2133 1.1381.6556-.0599 1.1774-.6633 1.1635-1.3505 0-.0359-.0036-.0711-.0072-.1058.3313-.0946.6547-.2147.9675-.3594.0148.0308.0303.0615.0482.0911.3402.5658 1.0711.7047 1.6331.3102s.7413-1.1727.4011-1.7386c-.0175-.0291-.0366-.0563-.0557-.083.2516-.2526.4844-.5234.6966-.8102.0275.016.0558.0327.0864.0495zm-7.1716.0915c-2.0888-1.0634-2.8512-3.7631-1.7029-6.02954 1.1484-2.26645 3.7725-3.24355 5.8613-2.1802s2.8511 3.76304 1.7028 6.02954c-1.1484 2.2664-3.7733 3.2415-5.862 2.1786z" fill="#d8dee8"/><path d="m73.0952 100.723c0 3.544-2.7651 6.333-6.2994 6.224-3.6777-.113-6.7714-3.297-6.7714-7.1074 0-3.8102 3.0933-6.5766 6.7714-6.1928 3.5355.3685 6.2994 3.531 6.2994 7.0762z" fill="url(#c)"/><path d="m74.0498 100.417c0 3.545-2.7651 6.333-6.2989 6.225-3.6781-.114-6.7714-3.298-6.7714-7.1079 0-3.8102 3.0929-6.577 6.7714-6.1928 3.5338.3685 6.2989 3.5306 6.2989 7.0757z" fill="url(#e)"/><path d="m73.7723 100.398c0 3.389-2.6456 6.05-6.0217 5.941-3.5052-.114-6.4527-3.153-6.4527-6.7838 0-3.6309 2.9443-6.2719 6.4527-5.9097 3.3769.345 6.0217 3.3637 6.0217 6.7525z" fill="url(#f)"/><path d="m73.5734 100.385c0 3.277-2.56 5.847-5.823 5.737-3.3856-.114-6.224-3.048-6.224-6.5516 0-3.5031 2.8388-6.0538 6.224-5.71 3.263.331 5.823 3.2475 5.823 6.5246z" fill="url(#g)"/><path d="m67.7173 94.9748c.0858.0102.1651.0513.2229.1158.0578.0644.0903.1477.0913.2344v.6034c.3511.0395.6994.1 1.0432.1813.2565.0606.5115.1327.7648.216.0744.025.1383.0742.1816.1399.0433.0656.0635.1438.0574.2222l-.0737.7567c-.0035.046-.018.0904-.0424.1295-.0245.0391-.058.0716-.0978.0948-.0397.0231-.0845.0362-.1305.0381-.0459.0019-.0917-.0074-.1332-.0272-.167-.0746-.3384-.1387-.5134-.1916-.3154-.0946-.6398-.1554-.9679-.1813l-.0889-.0072v1.7278c.9058.2539 1.571.5957 2.0008 1.0256.4298.43.6413.961.6413 1.601 0 .692-.2364 1.247-.709 1.665-.4727.417-1.1411.653-2.0052.708v.665c.0007.042-.007.083-.0227.121-.0156.038-.0389.072-.0684.101-.0294.029-.0645.052-.1029.066-.0385.015-.0795.022-.1206.02h-.0056c-.0852-.004-.1654-.042-.2241-.104s-.0914-.144-.0914-.23v-.657l-.1398-.006c-.3895-.017-.7776-.058-1.1619-.124-.2706-.047-.5386-.109-.8026-.185-.0769-.022-.144-.069-.1899-.135-.046-.065-.0679-.144-.0622-.224l.0872-.973c.0044-.049.0202-.095.0462-.137.0259-.041.0613-.075.1032-.1s.0891-.039.1376-.042c.0486-.003.0971.006.1416.025.2306.092.4664.169.7062.232.3696.098.7475.162 1.1289.19l.0055-1.923c-.8694-.215-1.5188-.535-1.9481-.9579-.4294-.4233-.6445-.9667-.6453-1.6304 0-.6846.2331-1.2127.6994-1.584.4663-.3714 1.1238-.5554 1.9725-.5522v-.6166c-.0012-.0407.0064-.0813.0222-.1189.0158-.0375.0395-.0713.0695-.0989.0299-.0276.0654-.0484.1041-.0611.0387-.0126.0796-.0168.1201-.0122zm-.3151 2.3068c-.2687.0197-.4783.0937-.6286.222s-.2254.3014-.2254.5191c-.0024.0957.0149.1909.0508.2796s.0897.169.1579.2359c.1386.1379.3537.2479.6453.3299zm.5576 3.4804v1.762c.2921 0 .5163-.069.6724-.209s.2342-.338.2342-.593c.007-.215-.0712-.423-.2175-.58-.1455-.155-.3753-.282-.6895-.38z" fill="url(#h)"/><path d="m66.6971 101.189c.1968-1.9476 1.9828-2.7722 1.7498-4.5643-.1438-1.104-.9786-2.0364-1.9119-2.7615-2.8248.297-5.0096 2.6422-5.0096 5.71 0 3.5028 2.8388 6.4378 6.2241 6.5518.3214.011.6431-.005.9619-.047-1.3431-1.344-2.1832-3.217-2.0143-4.889z" fill="url(#i)" opacity=".3"/><path d="m96.6126 96.2882c0 6.2338-4.8623 11.1378-11.0768 10.9468-6.4675-.2-11.9069-5.799-11.9069-12.4985 0-6.6996 5.4394-11.5651 11.9069-10.8899 6.2145.6469 11.0768 6.208 11.0768 12.4416z" fill="url(#j)"/><path d="m98.2922 95.7507c0 6.2343-4.8622 11.1373-11.0767 10.9463-6.4675-.2-11.9069-5.799-11.9069-12.4984 0-6.6995 5.4394-11.565 11.9069-10.8898 6.2141.6473 11.0767 6.2084 11.0767 12.4419z" fill="url(#k)"/><path d="m97.8046 95.7187c0 5.9593-4.6524 10.6393-10.5893 10.4463-6.1671-.2-11.3452-5.544-11.3452-11.9289 0-6.3848 5.1781-11.0287 11.3452-10.395 5.9389.6089 10.5893 5.9176 10.5893 11.8776z" fill="url(#l)"/><path d="m97.4567 95.6944c0 5.7626-4.501 10.2826-10.2399 10.0896-5.9532-.2-10.9453-5.362-10.9453-11.5215 0-6.1596 4.9921-10.6462 10.9453-10.0417 5.7389.5822 10.2399 5.7109 10.2399 11.4736z" fill="url(#m)"/><path d="m87.1567 86.181c.151.0178.2904.0901.3921.2034s.1589.2599.1607.4123v1.061c.6166.0698 1.2284.1765 1.8323.3194.4514.1065.8998.2331 1.3451.3798.1311.0437.2438.1302.3202.2456s.112.2532.1012.3912l-.1298 1.3301c-.0059.081-.0314.1592-.0743.2281-.0428.0688-.1018.1261-.1718.1669s-.1488.0639-.2297.0672-.1614-.0132-.2344-.0481c-.2935-.1313-.595-.2439-.9026-.337-.5546-.1666-1.1253-.2736-1.7024-.3194l-.1558-.0128v3.0383c1.5933.4468 2.7624 1.0477 3.5184 1.8036s1.1272 1.6903 1.1272 2.8159c0 1.2171-.4154 2.1925-1.2463 2.9265-.8365.74-2.0095 1.155-3.5263 1.245v1.171c.0012.073-.0124.145-.0399.212-.0276.067-.0685.128-.1202.178-.0518.051-.1133.09-.1809.116-.0675.026-.1396.038-.2119.035h-.0072c-.1497-.008-.2907-.073-.3939-.183-.1031-.109-.1607-.253-.1609-.404v-1.155l-.2462-.011c-.6849-.03-1.3672-.103-2.0429-.219-.4761-.083-.9473-.191-1.4117-.325-.1349-.038-.2527-.122-.3334-.237-.0807-.114-.1194-.254-.1095-.394l.153-1.71c.033-.3698.4035-.585.7544-.4465.4054.1607.82.2971 1.2415.4085.6499.1723 1.3144.2836 1.9848.3326l.01-3.3801c-1.5293-.3793-2.6711-.941-3.4255-1.685-.7544-.7441-1.1327-1.6999-1.1348-2.8674 0-1.2038.4101-2.1323 1.2304-2.7856.8149-.6487 1.971-.9723 3.4681-.9707v-1.0833c-.0022-.0716.0109-.1428.0384-.2089.0276-.066.069-.1254.1214-.1741.0524-.0486.1146-.0855.1824-.108s.1396-.0302.2107-.0225zm-.5541 4.0561c-.4729.0344-.8412.1645-1.1049.3905-.2637.2261-.3958.5301-.3963.9121 0 .3617.1221.6639.3664.9064s.6226.4359 1.1348.5802zm.9799 6.1206v3.0994c.5133 0 .9075-.1229 1.1826-.3686s.4122-.5935.4114-1.0434c0-.4097-.1274-.7497-.3824-1.0202-.2549-.2705-.6588-.4929-1.2116-.6672z" fill="url(#n)"/><path d="m85.3629 97.1055c.3457-3.4256 3.4864-4.8759 3.0766-8.026-.253-1.9422-1.7212-3.5789-3.359-4.8567-4.9682.5223-8.81 4.6463-8.81 10.0401 0 6.1601 4.9921 11.3211 10.9453 11.5211.5651.019 1.1308-.009 1.6913-.083-2.3644-2.358-3.8414-5.653-3.5442-8.5955z" fill="url(#o)" opacity=".3"/><path d="m113.673 72.393c0 8.6394-6.739 15.4355-15.3518 15.1704-8.9621-.2759-16.5019-8.0364-16.5019-17.323s7.5386-16.0281 16.5019-15.0937c8.6128.9 15.3518 8.607 15.3518 17.2463z" fill="url(#p)"/><path d="m116 71.6483c0 8.639-6.739 15.4351-15.352 15.17-8.9618-.2759-16.5015-8.0364-16.5015-17.323 0-9.2867 7.5385-16.0281 16.5015-15.0937 8.613.9004 15.352 8.6074 15.352 17.2467z" fill="url(#q)"/><path d="m115.323 71.6008c0 8.2587-6.447 14.7446-14.675 14.4775-8.5471-.2795-15.7232-7.6834-15.7232-16.5312 0-8.8477 7.1761-15.2845 15.7232-14.4068 8.228.8477 14.675 8.2033 14.675 16.4605z" fill="url(#r)"/><path d="m114.839 71.5696c0 7.9861-6.238 14.2508-14.191 13.9828-8.2502-.2795-15.1685-7.4306-15.1685-15.9669 0-8.5364 6.9179-14.7555 15.1685-13.917 7.953.8074 14.191 7.9146 14.191 15.9011z" fill="url(#s)"/><path d="m100.567 58.3837c.423.04.765.4225.765.8534v1.4702c.856.0964 1.705.244 2.542.442.626.1475 1.248.3229 1.865.5263.182.0606.338.1804.444.3403s.155.3508.14.5422l-.18 1.844c-.008.1121-.043.2206-.103.316-.059.0954-.141.1747-.238.2312s-.206.0884-.319.093c-.112.0046-.223-.0184-.324-.0668-.407-.1819-.825-.3379-1.251-.4672-.769-.2305-1.56-.3785-2.359-.4417l-.217-.0179v4.211c2.208.619 3.833 1.4522 4.877 2.4997 1.043 1.0427 1.563 2.3434 1.562 3.902 0 1.6872-.576 3.0395-1.727 4.0569-1.16 1.0244-2.789 1.5994-4.888 1.725v1.6228c.002.1005-.017.2002-.055.2931s-.095.1771-.167.2473c-.071.0702-.157.125-.25.161-.094.036-.194.0525-.294.0485h-.013c-.208-.0115-.4032-.1023-.5462-.2536-.1431-.1513-.2229-.3517-.2232-.5602v-1.6012l-.3414-.0152c-.949-.0407-1.8945-.1418-2.8308-.3027-.6599-.1145-1.313-.2652-1.9565-.4512-.3852-.1114-.6493-.4791-.6138-.8736l.2119-2.3703c.0458-.5123.5576-.8106 1.0451-.6185.562.2226 1.1366.4116 1.7208.5662.9009.2384 1.8219.3926 2.7511.4608l.0136-4.6843c-2.119-.5255-3.7017-1.304-4.7479-2.3355-1.0471-1.0358-1.5713-2.3604-1.5726-3.9739 0-1.6685.5683-2.9552 1.7048-3.8601 1.1296-.8992 2.7352-1.3468 4.8065-1.3456v-1.5034c0-.4304.3446-.7499.7686-.71zm-.7686 5.6215c-.6548.0476-1.1652.228-1.5311.541-.366.3131-.5491.7346-.5493 1.2646 0 .5013.1694.92.5082 1.2562.3389.3362.8629.6042 1.5722.8038zm1.3576 8.482v4.2957c.712 0 1.259-.1702 1.639-.5107.381-.3405.571-.8224.571-1.4459 0-.5681-.177-1.0394-.53-1.4139-.354-.3746-.914-.6824-1.68-.9236z" fill="url(#t)"/><path d="m98.0808 73.5254c.478-4.7473 4.8312-6.757 4.2622-11.1238-.35-2.6913-2.3849-4.9598-4.6549-6.7307-6.8853.7239-12.2096 6.4392-12.2096 13.9145 0 8.5364 6.9184 15.6895 15.1685 15.967.783.0262 1.567-.0121 2.344-.1146-3.2747-3.2687-5.322-7.8339-4.9102-11.9124z" fill="url(#u)" opacity=".3"/><path d="m22.7141 56.6105 1.5969.9124s18.5647-36.5363 38.8896-41.3818c.0008 0-44.2036-9.44318-40.4865 40.4694z" fill="#fff"/><path d="m24.3109 57.523 28.6218-1.6224s-8.6833-34.9152 11.6416-39.7595c0 0-43.9805-8.53036-40.2634 41.3819z" fill="#d8dee8"/><path d="m24.3109 57.5229c2.4552-.1198 5.7816-.3278 5.7816-.3278s-2.0593-4.8648-1.7092-8.7779c.2159-2.4134 1.8685-5.4705 7.656-8.7408 3.4474.1198 8.148-.2743 10.6351-3.4113 2.0282-2.5603 1.2439-5.258 2.1266-8.3147 1.0356-3.5813 4.5033-8.1602 15.7733-11.809 0 0-43.9805-8.53075-40.2634 41.3815z" fill="#d8dee8" opacity=".3"/><path d="m38.8242 20.1485s13.5981-8.4433 20.0923 5.9133h-13.209l-.7038.692 20.0158 20.0654h1.3941l7.2549-21.144s-.7086-7.4614-9.0939-9.8288c-5.1503-1.4555-21.7274-1.2187-25.7504 4.3021z" fill="#fff"/><path d="m40.9277 17.8999s12.8887-6.1936 19.3829 8.1618h-14.6031l20.7061 20.7574 21.0912-21.1439h-12.4422s-.7086-7.4614-9.0943-9.8289c-5.1499-1.4554-17.2527-2.2912-25.0406 2.0536z" fill="url(#v)"/><path d="m67.0372 90.6057c2.0916 0 3.7872-.4603 3.7872-1.0282 0-.5678-1.6956-1.0282-3.7872-1.0282s-3.7872.4604-3.7872 1.0282c0 .5679 1.6956 1.0282 3.7872 1.0282z" fill="url(#w)"/><path d="m73.5838 76.63-2.7591 12.9474h-7.5744l-2.7591-12.9474z" fill="url(#x)"/><path d="m67.0372 49.7971c11.7113 0 21.2051-1.4452 21.2051-3.2279 0-1.7828-9.4938-3.228-21.2051-3.228s-21.2052 1.4452-21.2052 3.228c0 1.7827 9.4939 3.2279 21.2052 3.2279z" fill="url(#y)"/><path d="m45.8325 48.652h42.4107v-2.0824h-42.4107z" fill="url(#z)"/><path d="m67.0372 51.7142c11.7113 0 21.2051-1.4452 21.2051-3.2279 0-1.7828-9.4938-3.228-21.2051-3.228s-21.2052 1.4452-21.2052 3.228c0 1.7827 9.4939 3.2279 21.2052 3.2279z" fill="url(#A)"/><path d="m60.4922 76.632c0 .5503 2.9308.9963 6.5463.9963s6.5464-.446 6.5464-.9963c0-.5502-2.9309-.9982-6.5464-.9982s-6.5463.446-6.5463.9982z" fill="url(#B)"/><path d="m88.2427 48.4863-14.6588 28.1438h-13.0926l-14.6593-28.1438z" fill="url(#C)"/><path d="m67.4077 69.3946c2.0202-3.769-.0347-6.1552 2.0892-10.3264 3.5601-6.991 12.282-6.0798 13.3611-11.0012.1211-.5668.1347-1.1515.0398-1.7234 3.3251.5698 5.3446 1.3205 5.3446 2.1427 0 .1749-.0916.3466-.2677.5139l-14.3911 27.6318c0 .5503-2.9308.9963-6.5463.9963-3.6156 0-6.5444-.4476-6.5444-.9963l-.8269-1.5872c3.2925-1.0246 6.1891-2.7528 7.7417-5.6502z" fill="url(#D)" opacity=".09"/><path d="m27.6795 111.519s-.1076.858-.0355 1.146c.0721.287 2.5612.496 3.406.396s-.5031-.965-1.0412-1.128c-.5381-.162-2.3293-.414-2.3293-.414z" fill="#364154"/><path d="m28.9331 110.088-.2629 1.722s-.6688.301-.9906.003l-.0351-1.802z" fill="#f4caab"/><path d="m14.9022 110.009s.5282.393.3872.863-1.3734 2.356-2.2517 2.89-.6027-.58-.3474-1.274c.2554-.694.9094-2.223 1.1643-2.48.2549-.256 1.0476.001 1.0476.001z" fill="#364154"/><path d="m15.853 108.117c-.2553.714-.5011 1.3-.6931 1.732-.4254.959-.6576 1.318-.9205 1.628-.2294.271-.7727.849-.9185.753s.2494-.801 1.0153-2.861c.1112-.299.4625-1.252.4625-1.252z" fill="#efbc90"/><path d="m34.1511 78.3139c.267 2.6431.2979 5.3048.0924 7.9534-.3413 4.4003-1.2196 7.1846-2.321 11.8765-.6735 2.8672-1.5805 7.0872-2.4018 12.3652-.1904.109-.7504.396-1.4714.289-.315-.048-.6162-.163-.8834-.337-2.151-6.593-1.5137-10.6785-.4756-13.2236.4429-1.085.9798-1.9411 1.267-3.6086.38-2.2065-.0892-3.4404-.7568-8.5515-.478-3.6432-.3939-4.2062-.0761-4.7517 1.2699-2.185 5.1514-2.1414 7.0267-2.0117z" fill="url(#E)"/><path d="m47.5381 59.868s.3023-1.1875.805-1.5014c.5027-.3138 1.2133-.648 1.3762-.7858s.3529.2739-.1163.589l-.4689.3146c-.0086.068-.0021.137.0192.2021.074.2232.3274.3761.6409.4049 1.2037.2532 1.6729.2655 1.8573.2116.0275-.008.1322-.0399.1765.0048.0705.0747-.0566.3119-.1112.3949-.3258.4984-1.4562.7152-2.3022.3251-.3095-.1426-.4278-.2955-.6533-.2572-.3585.0607-.5783.5347-.7086.9268z" fill="#efbc90"/><path d="m26.743 79.079c-1.3196 6.8253-2.6141 10.4102-3.594 12.4375-.7061 1.4312-1.3111 2.9102-1.8107 4.4263-.6748 2.0472-.956 3.5538-1.1002 4.2162-.4549 2.092-1.5789 5.147-4.6021 9.153-.0399.022-.5533.314-1.046.054-.1827-.1-.3304-.253-.423-.439.3959-3.831.85-7.05 1.2443-9.5346.0829-.5191.4469-2.8007 1.0181-5.8127.2235-1.1787.5509-2.9057.9432-4.6794.4884-2.209 1.2372-5.2142 2.3899-8.8151z" fill="url(#F)"/><path d="m48.5095 60.2446-1.028-.9164c-.1255.127-1.9554 1.9166-4.513 1.3736-1.7609-.3738-2.7766-1.824-3.4255-2.7492-1.9517-2.7804-.7847-4.8196-2.8886-6.7084-.5843-.5242-1.7302-1.1579-2.4799-.9663-1.7856.4612-2.8145 5.8443-1.087 10.0789.3485.8545 2.2704 5.5607 6.6256 6.0694 3.5159.4141 7.247-2.07 8.7964-6.1816z" fill="url(#G)"/><path d="m27.8705 52.0812c.7481-.6928 2.1784-1.4914 2.8962-3.3482.2163-.559.9818-2.5387-.1466-4.0537-.6696-.8992-1.9119-1.5102-3.0109-1.2941-.9372.1844-1.0838.8385-2.6767 2.1562-.6197.5123-1.6163 1.3365-2.7256 1.7941-1.9.7846-3.0412.0459-4.9487.1298-2.3433.103-5.0658 1.4135-6.3778 3.3198-2.3282 3.3833 1.0431 6.8165-1.50728 10.7812-.83646 1.2985-1.24752 1.007-3.22636 3.5206-1.97883 2.5137-2.97183 3.7735-2.79697 5.316.24457 2.1402 2.54405 4.1855 4.70969 4.3248 2.11582.1366 3.46092-1.5321 4.53762-.8018.7668.5191.3282 1.5298 1.142 2.744 1.0495 1.5657 3.1124 1.8768 3.4454 1.9283 3.0925.468 7.2625-3.1665 9.0342-7.4726 3.1949-7.7657-2.4134-15.2786 1.6518-19.0444z" fill="#364154"/><path d="m26.6919 97.2361c.4429-1.0849.9798-1.941 1.267-3.6085.38-2.2066-.0892-3.4404-.7568-8.5515-.478-3.6433-.3939-4.2063-.0761-4.7517.6895-1.1872 2.151-1.7135 3.6426-1.9283-.0199.0767-.0398.1533-.0561.2276-.7831 3.5826 2.2027 5.7688.8552 9.7067-.6648 1.9414-1.7243 2.3863-1.9717 4.6383-.2326 2.1112.6062 2.5504.4254 4.4671-.2685 2.8662-2.2999 3.5602-2.828 5.7552-.3434 1.426-.0546 3.511 2.4532 6.531-.0398.26-.0833.521-.1247.786-.1904.11-.7504.397-1.4714.289-.315-.048-.6162-.162-.8834-.336-2.1509-6.593-1.5144-10.6785-.4752-13.2249z" fill="url(#H)" opacity=".3"/><path d="m34.5714 55.4318c3.2196 2.5504 2.8603 7.4406 4.84 7.689.6046.0759.5716-.3889 2.0139-.8589 2.111-.6868 3.1004.0076 4.5842-.5143.6146-.2164 1.414-.6788 2.2015-1.7685l.2979.2655c-1.5494 4.1128-5.2805 6.5957-8.798 6.1832-4.3572-.5107-6.2771-5.2169-6.6256-6.0694-.8106-1.9869-1.0141-4.2266-.8173-6.0922.7432.2157 1.5502.569 2.3034 1.1656z" fill="url(#I)" opacity=".3"/><path d="m36.9083 51.5665c-.1991-.3071-.8241-1.158-3.4864-1.7865-1.3344-.3151-3.8012-.8541-6.9761-.1805-4.3604.9256-7.0765 3.5478-8.0986 4.6503.8365.5462 3.1467 2.2137 4.2891 5.3762.3557.9843 1.4064 4.348-.0976 7.4986-.8668 1.8152-2.3995 3.1776-3.5638 4.213-1.7462 1.5521-2.6503 1.7909-3.2359 3.1817-.6373 1.5145.0044 2.2532-.7874 3.2902-.85 1.1137-1.8462.5958-3.2873 1.7218-1.4762 1.1532-.9512 2.1028-2.29474 3.3773-1.95175 1.852-4.5408 1.2499-4.6603 2.0832-.10356.7188 1.73507 1.6903 3.29766 2.0848 3.09368.7818 5.79268-.5291 6.59528-.9332 2.2222-1.118 1.8387-1.8428 3.5327-2.6957 2.8368-1.4279 4.775.1621 11.2357.327 3.4988.0895 5.2677.1094 6.2372-1.0781.8855-1.0837.4203-2.2728-.1099-7.3967-.1705-1.711-.527-5.294-.529-7.3356 0-1.2067.4167-3.1781 1.2523-7.1208.0494-.2328.5015-2.3631.8672-5.2085.329-2.562.2816-3.349-.1801-4.0685z" fill="url(#J)"/><path d="m9.36988 82.9086c1.34352-1.2745.81852-2.2241 2.29472-3.3773 1.4411-1.126 2.4373-.6081 3.2873-1.7218.7918-1.0382.1498-1.7757.7875-3.2902.5855-1.3908 1.4897-1.6296 3.2359-3.1817 1.1643-1.0354 2.697-2.3958 3.5637-4.213 1.5041-3.1505.4533-6.5143.0976-7.4986-1.1432-3.1625-3.4526-4.8315-4.2891-5.3762.0797-.0874.1757-.1865.2789-.2907 5.5138.7587 8.7283 3.9555 9.1258 4.9015.9189 2.1862-.5366 2.9892-.5752 9.2946-.0183 3.0139.3055 4.2042-.67 5.462-1.1152 1.4375-2.4014.9927-4.015 2.875-1.2399 1.4451-1.0416 2.3611-2.1991 2.9701-1.2447.6544-2.0374-.1087-3.441.1912-2.3453.5007-2.8472 3.2112-4.3979 4.6942-1.1726 1.1213-3.34024 1.9051-7.61536 1.0626-.09878-.1442-.14658-.2851-.12746-.4173.11909-.8345 2.70655-.2324 4.6587-2.0844z" fill="url(#K)" opacity=".09"/><path d="m26.0784 60.5608c.5859 1.2483-2.1083 4.1528-5.1021 5.5336-.6102.2795-4.9909 2.2996-6.943.3594-1.6128-1.6048-.5708-4.9223-.1992-6.1066 1.8263-5.8151 7.4318-8.7727 9.7811-9.8393 1.7526 4.3948.7193 6.3526.3131 6.9639-.4247.6389-1.6096 1.9802-2.8679 3.1617-.8851.8314-1.4364 1.2378-1.3623 1.3652.092.1597 1.1297-.1429 5.1598-2.1087.4661.0743 1.0213.2448 1.2205.6708z" fill="url(#L)"/><path d="m28.2363 46.1831s-.2788 2.2285-1.099 2.7392c-.8201.5107-2.1473 1.1768-2.2935 1.3577s5.0829.7451 7.6748-.5654c-.854-.1785-1.0862-.2444-1.0862-.2444-.2318-.0655-.6644-.1877-1.0978-.4357-.4799-.2783-.8921-.6602-1.2065-1.118l.01-1.2343z" fill="#efbc90"/><path d="m28.1091 46.9725s.5349.7359 1.3742.4292c.7512-.2743.3031-2.2197-.2928-2.4413-.1991-.0743-.5636-.0399-.8077.111-.1717.1074-.6298.6788-.3673 1.3177-.19-.0551-.3585-.0052-.3983.089-.0534.1198.1075.2823.1438.3195.095.0933.2167.1544.3481.1749z" fill="#f4caab"/><path d="m25.0594 60.2689s2.4568-2.5192 3.4566-2.8914c.9998-.3721.3983.1721 0 .4868-.3983.3146-.6664.4184-.4621.8964.2044.478.5764.9024-.0095 1.2778-.5859.3753-.8142.5191-1.2714.575l-.4569.0575-.5999.3194s-.7711-.091-.6568-.7215z" fill="#f4caab"/></g></svg>