<svg fill="none" height="172" viewBox="0 0 206 172" width="206" xmlns="http://www.w3.org/2000/svg" xmlns:xlink="http://www.w3.org/1999/xlink"><linearGradient id="a"><stop offset="0" stop-color="#31a25d"/><stop offset="1" stop-color="#006d2c"/></linearGradient><linearGradient id="b" gradientUnits="userSpaceOnUse" x1="2.06645" x2="163.093" xlink:href="#a" y1="150.391" y2="150.391"/><linearGradient id="c" gradientUnits="userSpaceOnUse" x1=".470182" x2="107.359" xlink:href="#a" y1="106.154" y2="106.154"/><linearGradient id="d" gradientUnits="userSpaceOnUse" x1="2.07809" x2="108.967" xlink:href="#a" y1="106.154" y2="106.154"/><linearGradient id="e"><stop offset="0" stop-color="#f8db8b"/><stop offset="1" stop-color="#68b790"/></linearGradient><linearGradient id="f" gradientUnits="userSpaceOnUse" x1="-4.27623" x2="119.89" xlink:href="#e" y1="103.513" y2="119.377"/><linearGradient id="g"><stop offset="0" stop-color="#067431"/><stop offset="1" stop-color="#2e9f5a"/></linearGradient><linearGradient id="h" gradientUnits="userSpaceOnUse" x1="39.5621" x2="40.6974" xlink:href="#g" y1="139.311" y2="157.762"/><linearGradient id="i" gradientUnits="userSpaceOnUse" x1="37677.9" x2="285990" y1="25358.4" y2="25358.4"><stop offset="0" stop-color="#40447e"/><stop offset="1" stop-color="#3c3b6b"/></linearGradient><linearGradient id="j" gradientUnits="userSpaceOnUse" x1="62.0838" x2="93.8741" xlink:href="#g" y1="28.993" y2="94.9613"/><linearGradient id="k" gradientUnits="userSpaceOnUse" x1="42.9153" x2="43.6213" xlink:href="#g" y1="23.7169" y2="38.0714"/><linearGradient id="l" gradientUnits="userSpaceOnUse" x1="65.3275" x2="70.2984" xlink:href="#g" y1="48.7946" y2="75.5231"/><linearGradient id="m" gradientUnits="userSpaceOnUse" x1="91.9887" x2="152.536" xlink:href="#a" y1="85.4436" y2="85.4436"/><linearGradient id="n" gradientUnits="userSpaceOnUse" x1="156738" x2="156616" y1="8466.66" y2="16561"><stop offset="0" stop-color="#087534"/><stop offset="1" stop-color="#3c3b6b"/></linearGradient><linearGradient id="o" gradientUnits="userSpaceOnUse" x1="91.6903" x2="155.744" xlink:href="#e" y1="84.4475" y2="90.4289"/><linearGradient id="p" gradientUnits="userSpaceOnUse" x1="13.6671" x2="39.4672" xlink:href="#a" y1="81.4796" y2="81.4796"/><linearGradient id="q" gradientUnits="userSpaceOnUse" x1="13.56" x2="42.5438" xlink:href="#g" y1="116.996" y2="158.035"/><linearGradient id="r" gradientUnits="userSpaceOnUse" x1="4.91113" x2="36.7942" xlink:href="#e" y1="148.076" y2="150.055"/><linearGradient id="s" gradientUnits="userSpaceOnUse" x1="145.984" x2="172.782" xlink:href="#g" y1="73.1222" y2="61.7551"/><linearGradient id="t" gradientUnits="userSpaceOnUse" x1="156.835" x2="161.898" xlink:href="#a" y1="81.3" y2="53.4329"/><linearGradient id="u" gradientUnits="userSpaceOnUse" x1="156.871" x2="167.563" xlink:href="#g" y1="60.5948" y2="70.501"/><linearGradient id="v"><stop offset="0" stop-color="#007e33"/><stop offset="1" stop-color="#55b079"/></linearGradient><linearGradient id="w" gradientUnits="userSpaceOnUse" x1="187.517" x2="192.373" xlink:href="#v" y1="62.9075" y2="31.0788"/><linearGradient id="x" gradientUnits="userSpaceOnUse" x1="186.496" x2="193.618" xlink:href="#v" y1="62.6064" y2="32.3539"/><linearGradient id="y" gradientUnits="userSpaceOnUse" x1="187.32" x2="199.073" xlink:href="#g" y1="40.051" y2="50.9279"/><linearGradient id="z" gradientUnits="userSpaceOnUse" x1="132.125" x2="182.702" xlink:href="#g" y1="37.5703" y2="26.1157"/><linearGradient id="A" gradientUnits="userSpaceOnUse" x1="151.273" x2="160.676" xlink:href="#a" y1="40.9342" y2="1.23737"/><linearGradient id="B" gradientUnits="userSpaceOnUse" x1="152.398" x2="167.814" xlink:href="#g" y1="11.3415" y2="25.6049"/><clipPath id="C"><path d="m0 9h163v163h-163z"/></clipPath><clipPath id="D"><path d="m135 0h71v82h-71z"/></clipPath><g clip-path="url(#C)"><path d="m81.5 172c45.011 0 81.5-36.489 81.5-81.5 0-45.0112-36.489-81.5-81.5-81.5-45.0112 0-81.5 36.4888-81.5 81.5 0 45.011 36.4888 81.5 81.5 81.5z" fill="#f4f7fa"/><path d="m163 144.796-160.89893-1.324v3.918c0 1.063.70131 1.968 1.65225 2.127l45.49708 7.716c.5392.092 1.0876.116 1.6327.073l110.3679-8.798c.986-.079 1.749-.986 1.749-2.079z" fill="url(#b)"/><path d="m104.611 138.444-100.84637 7.169c-1.80449.128-3.271466-1.235-3.271466-3.045v-72.515c-.000445-.8683.343885-1.7013.957326-2.3159.61344-.6146 1.44579-.9605 2.31414-.9617h100.84637c1.486 0 2.686 1.3265 2.686 2.9631v65.5545c.002 1.634-1.2 3.046-2.686 3.151z" fill="url(#c)"/><path d="m106.218 138.444-100.84546 7.169c-1.80448.128-3.27147-1.235-3.27147-3.045v-72.515c-.00044-.8683.34389-1.7013.95733-2.3159s1.44579-.9605 2.31414-.9617h100.84546c1.487 0 2.687 1.3265 2.687 2.9631v65.5545c.002 1.634-1.2 3.046-2.687 3.151z" fill="url(#d)"/><path d="m103.077 133.823-93.9275 6.227c-1.46866.097-2.66195-1.021-2.66195-2.499v-63.49c-.00091-.7085.27847-1.3886.77718-1.892.4987-.5033 1.17624-.7889 1.88477-.7945l93.9275-.3918c1.226-.0051 2.218 1.0813 2.218 2.4274v57.8289c0 1.346-.992 2.503-2.218 2.584z" fill="url(#f)"/><path d="m59.3571 68.7588c0 .6717-.5188 1.2218-1.1597 1.2235-.6408.0017-1.1625-.544-1.1625-1.219s.5205-1.2229 1.1625-1.2235 1.1597.5451 1.1597 1.219z" fill="#fff"/><path d="m81.9242 118.557c-7.7743-4.207-13.8874 1.124-19.7866-4.136-3.5771-3.19-1.8208-5.567-6.2217-10.332-4.8744-5.279-8.048-3.505-12.9465-8.2555-6.1942-6.0067-3.0963-10.6802-8.4313-14.9927-6.473-5.2321-13.4531-.3918-19.6143-5.4073-2.6574-2.1638-4.116-5.3099-4.8772-8.6564h-6.03305c-.50891.0013-.99645.2047-1.35542.5655-.35896.3607-.55995.8493-.55876 1.3582v75.1682c0 1.063.85747 1.862 1.91418 1.787l102.77945-7.341c.504-.036.952-.332 1.239-.762-7.523-.276-12.1455-2.813-15.1002-5.435-5.78-5.129-4.7776-10.189-11.0076-13.561z" fill="#fff" opacity=".48"/><path d="m110.238 138.119-108.13473 7.546 47.14933 7.996c.5392.092 1.0876.116 1.6327.072l112.1147-8.937-51.045-6.626c-.569-.073-1.144-.091-1.717-.051z" fill="url(#h)"/><path d="m17.8796 145.855 90.0274-6.376 27.863 3.588-89.2521 6.815z" fill="url(#i)" opacity=".3"/><path d="m127.011 26.4303-81.0011-2.7565c-2.7107-.0924-4.917 2.0429-4.917 4.7692v59.1169c-.004.6425.1212 1.2792.3681 1.8723.2469.5932.6104 1.1306 1.069 1.5806.4587.4499 1.0031.803 1.6008 1.0385.5978.2355 1.2368.3484 1.8791.3321l81.0011-1.8627c2.348-.0559 4.244-2.1431 4.244-4.6668v-54.7098c0-2.5231-1.896-4.6332-4.244-4.7138z" fill="url(#j)"/><path d="m42.6673 86.3184v-56.6156c0-2.5231 2.039-4.5017 4.5453-4.4216l78.7504 2.5779c2.183.0717 3.941 2.0267 3.941 4.3657v52.5259c0 2.3413-1.761 4.2767-3.941 4.3243l-78.7504 1.7082c-.5938.0138-1.1844-.0917-1.7368-.3102-.5524-.2184-1.0554-.5455-1.4792-.9618-.4238-.4162-.7598-.9133-.9881-1.4617s-.3444-1.137-.3412-1.7311z" fill="#fff" opacity=".74"/><path d="m127.011 26.4303-81.0012-2.7565c-2.7107-.0924-4.917 2.0429-4.917 4.7692v3.5412l90.1622 2.437v-3.2771c0-2.5231-1.896-4.6332-4.244-4.7138z" fill="url(#k)"/><path d="m49.8353 28.2303c.0019.2083-.0383.4148-.1182.6071-.08.1923-.1979.3665-.3469.512-.149.1456-.3258.2595-.5199.335-.1941.0754-.4015.1109-.6096.1042-.4285-.0164-.8342-.1977-1.1321-.5061-.2979-.3085-.465-.7202-.4664-1.149-.002-.2085.0383-.4153.1185-.6078.0802-.1926.1985-.3668.3479-.5124.1494-.1455.3268-.2592.5213-.3343.1946-.0751.4023-.11.6108-.1026.4276.0172.8322.1988 1.1293.5069s.4637.719.4653 1.147z" fill="#fff"/><path d="m55.4026 28.3992c.0024.2068-.0371.4119-.116.603-.079.1911-.1958.3643-.3434.5091-.1476.1449-.3229.2583-.5155.3337-.1926.0753-.3984.1109-.6051.1046-.4255-.0169-.828-.1978-1.1233-.5047-.2952-.3069-.4603-.7161-.4607-1.142-.0024-.2071.0371-.4126.1163-.604.0791-.1914.1963-.3648.3443-.5097.1481-.1449.3239-.2583.517-.3334.1931-.075.3994-.1101.6064-.1032.4248.018.8262.1993 1.1206.5061s.459.7153.4594 1.1405z" fill="#fff"/><path d="m60.9179 28.5667c.0029.2055-.0358.4095-.1139.5996-.078.1902-.1937.3625-.3401.5068-.1465.1442-.3206.2573-.5119.3324-.1913.0752-.3958.1109-.6012.1049-.8664-.0252-1.5672-.759-1.5672-1.6388-.003-.2056.0357-.4096.1137-.5997.0781-.1902.1938-.3626.3402-.5069.1465-.1442.3206-.2573.5119-.3324.1913-.0752.3959-.1108.6014-.1047.8669.0274 1.5671.7606 1.5671 1.6388z" fill="#fff"/><path d="m126.301 69.9845-79.4768.3751v-23.3755l79.4768 1.1681z" fill="url(#l)"/><g fill="#fff"><path d="m126.301 75.4977-79.4768.7645v-2.5102l79.4768-.5989z"/><path d="m126.301 81.2486-79.4768 1.1715v-2.5103l79.4768-1.0057z"/><path d="m89.5682 41.9194-42.744-.8379v2.5098l42.744.7488z"/><path d="m121.766 42.5503v2.3541l4.535.0795v-2.3446z"/><path d="m95.4854 56.7131c-9.4629-13.7687-25.8315-9.4237-36.1792-24.6269-1.695-2.5051-3.0405-5.2297-3.9991-8.0984l-9.2972-.3162c-2.7107-.0924-4.917 2.0429-4.917 4.7692v59.1192c-.004.6425.1212 1.2792.3681 1.8723.2469.5932.6104 1.1307 1.069 1.5806.4587.4499 1.0031.8031 1.6008 1.0385.5978.2355 1.2368.3484 1.8791.3321l61.6051-1.4166c-1.952-2.8018-3.622-5.7899-4.986-8.9205-5.5222-12.6868-1.432-17.0223-7.1436-25.3333z" opacity=".25"/></g><path d="m148.466 40.4649-52.0035-.5457c-2.4593-.0258-4.4608 2.058-4.4608 4.655v82.0918c0 2.596 2.0015 4.564 4.4608 4.394l52.0035-3.582c2.232-.154 4.035-2.272 4.035-4.733v-77.7829c.002-2.4605-1.803-4.4737-4.035-4.4972z" fill="url(#m)"/><path d="m93.4302 125.418v-79.6826c0-2.4033 1.847-4.3343 4.1244-4.3136l49.9144.4612c2.071.019 3.747 1.8851 3.747 4.1675v75.6805c0 2.283-1.674 4.246-3.747 4.387l-49.9144 3.373c-2.2746.153-4.1244-1.67-4.1244-4.073z" fill="#fff" opacity=".74"/><path d="m148.466 40.4649-52.0035-.5457c-2.4593-.0258-4.4608 2.058-4.4608 4.655v3.3728l60.5013.211v-3.1959c0-2.4605-1.805-4.4737-4.037-4.4972z" fill="url(#n)"/><path d="m99.935 44.1729c0 .8441-.6476 1.5247-1.4474 1.5202s-1.4507-.6941-1.4507-1.5398.6498-1.5268 1.4507-1.5207c.8009.0062 1.4474.6935 1.4474 1.5403z" fill="#fff"/><path d="m104.989 44.2047c0 .8396-.642 1.518-1.434 1.5112-.793-.0067-1.438-.6906-1.438-1.533 0-.8423.644-1.5201 1.438-1.5112.793.009 1.434.6929 1.434 1.533z" fill="#fff"/><path d="m109.999 44.239c0 .8395-.636 1.5112-1.422 1.5072-.785-.0039-1.425-.6878-1.425-1.5268s.638-1.5112 1.425-1.5067c.787.0044 1.422.6901 1.422 1.5263z" fill="#fff"/><path d="m147.792 107.487-50.5906 2.56v-47.9429l50.5906-.4449z" fill="url(#o)"/><path d="m147.792 112.862-50.5906 2.808v-2.391l50.5906-2.703z" fill="#fff"/><path d="m147.792 118.469-50.5906 3.067v-2.391l50.5906-2.962z" fill="#fff"/><path d="m136.057 56.3296-38.8556.1511v2.3916l38.8556-.2328z" fill="#fff"/><path d="m143.481 56.3005v2.2948l4.311-.0258v-2.2858z" fill="#fff"/><path d="m134.802 89.5324c-8.362-11.0088-18.853-11.3239-24.695-23.104-4.229-8.5276-3.629-18.2374-1.752-26.3866l-11.8925-.1226c-2.4593-.0258-4.4608 2.058-4.4608 4.655v82.0918c0 2.596 2.0015 4.564 4.4608 4.394l46.7565-3.22c1.439-20.791-3.564-31.9175-8.417-38.3076z" fill="#fff" opacity=".0225"/><path d="m20.2069 113.123s-18.4607-35.3289 6.6767-58.5023l-5.4985-1.702 18.0672-3.0112-6.9404 13.3545-1.702-4.6668s-18.4517 14.0105-10.603 54.5278z" fill="url(#p)"/><path d="m28.0679 123.437s35.892 17.339 58.265-8.514l1.8745 5.442 2.4386-18.151-13.1289 7.356 4.7177 1.554s-13.4217 18.883-54.1669 12.313z" fill="#fff" opacity=".69"/><path d="m20.4129 164.963c-2.859-.227-6.5167-1.022-10.0271-3.316-3.79816-2.484-8.74537-7.587-7.45414-10.803.48191-1.2 1.86997-2.228 3.09012-2.13 1.8028.145 2.01493 2.648 5.14252 5.373.5782.504 3.5687 3.105 5.0558 2.228.7388-.435.9577-1.644.8396-2.562-.3526-2.686-3.6314-3.097-6.7831-6.004-3.1953-2.947-5.85893-8.088-4.33598-11.564.87482-1.997 3.19031-3.575 4.71048-3.131.6504.189 1.0634.721 3.0364 4.985 1.6231 3.5 1.9808 4.521 3.0252 4.853 1.0752.341 2.747-.088 3.3822-1.147 1.6545-2.758-5.4974-6.832-6.1466-14.552-.2911-3.46.6448-8.588 3.7785-9.687 2.118-.744 5.1353.392 6.2262 2.335.9834 1.752-.211 3.069.539 7.005.2278 1.194.6962 3.651 1.6852 3.78 1.1603.151 2.4594-2.982 2.7594-3.745 2.2595-5.745-.3314-8.699 1.7994-11.488 1.6612-2.175 5.2763-3.048 8.1403-1.95 2.5064.961 4.5112 3.461 4.6456 6.051.136 2.636-2.0804 5.262-6.5139 10.507-2.1022 2.489-3.7751 4.17-3.68 6.643.0465 1.206.5244 2.902 1.3881 3.057 1.9063.342 2.8444-7.332 7.3617-8.519 2.3122-.607 5.1857.586 6.4478 2.67 1.547 2.554.511 6.173-1.4328 8.076-2.5355 2.484-5.1359.596-9.9068 3.264-2.1168 1.183-5.4431 3.7-4.9561 5.782.2121.906 1.1619 1.794 2.2046 1.912 2.3368.266 3.1086-3.565 6.8654-5.248 2.7067-1.213 6.4494-1.081 7.3388.445 1.2548 2.155-3.2026 7.048-5.573 9.209-2.8685 2.612-9.6252 7.568-22.6528 7.671z" fill="url(#q)"/><path d="m21.6969 163.735c-.3778-6.405 3.862-19.452 6.9515-25.62 3.0224-6.035 5.9094-15.583 5.9385-15.679l.188.056c-.0291.096-2.9233 9.66-5.9507 15.71-3.0784 6.149-7.3075 19.148-6.9314 25.523z" fill="#fff" opacity=".5"/><path d="m13.6741 165.796c-2.1526-2.989-5.31048-8.381-5.87689-15.596-.2334-2.973-.68956-8.779 2.86289-13.788 1.7703-2.496 5.5248-6.188 8.0597-5.123 1.6321.685 2.6452 3.291 2.1828 5.274-.4645 1.999-2.1531 2.183-3.9929 5.575-.6806 1.255-1.4586 2.729-.8608 3.561.4987.695 1.8694.822 2.897.405 2.123-.862 1.4597-3.505 3.7551-5.4 1.6315-1.349 4.3522-1.982 5.5259-.878 1.0192.959.8396 3.198-.0588 4.691-1.4423 2.391-4.0298 1.69-5.7145 4.303-.7478 1.159-1.2801 2.91-.6252 3.603.7461.789 2.9412.107 4.3483-.765 1.8577-1.152 1.926-2.378 3.1495-2.531 1.3645-.171 3.0705 1.128 3.3375 2.566.3733 2.015-2.0967 4.185-4.0528 5.128-2.5047 1.209-4.3657.5-5.5887 2.15-.4477.605-.8597 1.594-.4919 2.194.5255.856 2.4235.573 3.6839.386 3.0672-.457 3.9118-1.567 5.011-1.029 1.1127.547 1.6864 2.396 1.2051 3.694-.267.72-1.0707 1.836-5.0519 2.536-2.7823.488-7.4636.835-13.7043-.956z" fill="url(#r)"/></g><g clip-path="url(#D)"><path d="m173.71 69.7085c1.281-7.982-4.107-15.4984-12.035-16.7884-7.928-1.2899-15.394 4.1351-16.675 12.1171-1.281 7.9821 4.107 15.4985 12.035 16.7885 7.928 1.2899 15.394-4.1351 16.675-12.1172z" fill="url(#s)"/><path d="m173.182 69.8821c1.379-7.6925-3.697-15.0539-11.337-16.4422-7.641-1.3882-14.952 3.7223-16.331 11.4148s3.697 15.0539 11.337 16.4422c7.641 1.3882 14.952-3.7224 16.331-11.4148z" fill="url(#t)"/><path d="m147.737 61.7839c-.046.0004-.092-.0104-.133-.0316-.07-.036-.123-.0983-.147-.1734-.025-.0751-.019-.1569.016-.2277 1.294-2.5769 3.38-4.6635 5.948-5.9489 2.568-1.2853 5.48-1.7005 8.302-1.1835.042.0028.083.0145.12.0343s.07.0473.096.0807.044.0719.054.113.012.0839.004.1256c-.007.0416-.024.0813-.047.1162-.024.0349-.055.0644-.091.0865s-.076.0363-.118.0417c-.041.0053-.084.0018-.124-.0105-.755-.1377-1.521-.207-2.288-.2073-2.35-.0067-4.655.647-6.656 1.8874-2.001 1.2403-3.618 3.0182-4.67 5.1337-.025.0493-.063.0907-.11.1196-.047.0288-.101.0442-.156.0442z" fill="#fff"/><path d="m160.386 79.6187c6.557-.4142 11.54-6.1022 11.128-12.7044-.411-6.6022-6.061-11.6186-12.618-11.2043-6.558.4142-11.54 6.1021-11.129 12.7043.412 6.6022 6.061 11.6186 12.619 11.2044z" fill="#fff" opacity=".78"/><path d="m158.473 76.5745v-1.3042c-1.248-.0455-2.478-.3136-3.633-.7918-.163-.0737-.295-.2043-.371-.3679s-.091-.3493-.042-.5231l.328-1.214c.029-.1046.079-.2019.149-.2853.069-.0834.155-.1509.252-.198s.203-.0727.311-.0751c.107-.0025.214.0184.314.0611 1.06.4567 2.2.6982 3.353.7107 1.298 0 2.268-.4432 2.268-1.3523 0-.8203-.746-1.3086-2.555-1.8029-2.577-.7092-4.427-1.8406-4.427-4.1244 0-2.0629 1.492-3.6375 4.096-4.0567v-1.2997c0-.2015.08-.3946.222-.5371.141-.1425.333-.2227.533-.2231h.76c.2.0004.392.0806.533.2231.142.1425.221.3356.222.5371v1.1705c.98.0243 1.951.1997 2.878.5198.179.0638.327.1935.414.3629.087.1693.106.3656.055.5491l-.298 1.1224c-.027.1027-.074.1986-.14.2814-.066.0829-.149.1507-.242.1991-.094.0484-.197.0763-.302.0817-.105.0055-.211-.0115-.309-.0498-.901-.3461-1.858-.5213-2.823-.5169-1.542 0-1.982.6431-1.982 1.22 0 .7092.925 1.202 2.929 1.8195 2.864.864 4.054 2.0615 4.054 4.207 0 1.9743-1.454 3.7487-4.274 4.192v1.4589c0 .0993-.02.1976-.058.2892-.038.0917-.094.1748-.164.2447-.07.0698-.153.125-.244.1623-.092.0373-.189.056-.288.055h-.764c-.098.0012-.196-.0171-.287-.054-.091-.0368-.174-.0914-.244-.1607-.071-.0692-.127-.1517-.165-.2428-.038-.091-.059-.1888-.059-.2877z" fill="url(#u)"/><path d="m205.723 49.4037c1.324-8.7934-4.684-17.0019-13.418-18.3342-8.733-1.3324-16.886 4.716-18.21 13.5094-1.323 8.7934 4.684 17.0019 13.418 18.3342 8.734 1.3324 16.887-4.716 18.21-13.5094z" fill="url(#w)"/><path d="m205.045 51.0119c1.942-8.3613-3.216-16.7243-11.521-18.6793s-16.611 3.2384-18.553 11.5997 3.217 16.7243 11.521 18.6793c8.305 1.9549 16.611-3.2384 18.553-11.5997z" fill="url(#x)"/><path d="m177.285 41.3501c-.052-.0001-.103-.0124-.149-.036-.039-.0189-.074-.0453-.102-.0778-.029-.0324-.05-.0701-.064-.111-.014-.041-.02-.0843-.017-.1274.003-.0432.014-.0853.033-.1241 1.422-2.8342 3.716-5.129 6.541-6.5411 2.824-1.4121 6.027-1.8657 9.129-1.2929.042.0078.082.0239.118.0473s.066.0537.091.0891c.024.0354.041.0753.05.1174s.01.0856.002.1279-.024.0827-.047.1188-.053.0673-.089.0917c-.035.0244-.074.0416-.116.0506s-.085.0096-.127.0018c-.83-.151-1.671-.2269-2.513-.2269-2.581-.0063-5.113.712-7.311 2.0744-2.197 1.3624-3.974 3.3148-5.131 5.6379-.028.0553-.07.1016-.123.1335s-.114.0481-.175.0468z" fill="#fff"/><path d="m191.925 60.8978c7.167-.8694 12.277-7.424 11.414-14.64-.864-7.2161-7.374-12.3611-14.541-11.4917s-12.277 7.424-11.414 14.6401c.864 7.216 7.374 12.361 14.541 11.4916z" fill="#fff" opacity=".78"/><path d="m189.074 57.604v-1.4319c-1.371-.0504-2.722-.3455-3.99-.8714-.179-.0823-.322-.2261-.404-.4056-.082-.1794-.098-.3825-.044-.5725l.361-1.3343c.031-.1148.087-.2216.163-.3131.075-.0915.17-.1656.276-.2173.107-.0517.223-.0797.342-.0823.118-.0026.236.0204.344.0673 1.166.502 2.418.7675 3.685.7813 1.427 0 2.492-.4883 2.492-1.4874 0-.9015-.822-1.4364-2.807-1.9728-2.835-.7798-4.865-2.0224-4.865-4.5315 0-2.2673 1.642-3.9966 4.501-4.4594v-1.4319c0-.1096.021-.2182.063-.3195.042-.1012.103-.1932.18-.2707.077-.0774.169-.1388.269-.1806.101-.0418.209-.0633.318-.0631h.835c.22 0 .431.0879.586.2443s.243.3685.243.5896v1.2861c1.076.0262 2.143.2188 3.162.571.195.0708.357.2135.453.3993.095.1859.117.4012.062.6029l-.332 1.2335c-.03.1123-.082.2171-.155.3076-.073.0904-.163.1645-.266.2175s-.216.0836-.331.09c-.115.0063-.231-.0118-.339-.0532-.99-.3791-2.042-.5711-3.102-.5664-1.694 0-2.177.7062-2.177 1.3387 0 .7798 1.016 1.3162 3.219 1.9983 3.145.9511 4.451 2.2658 4.451 4.6292 0 2.1696-1.597 4.1183-4.695 4.6051v1.6032c0 .1096-.021.2181-.062.3193-.042.1013-.103.1933-.18.2708s-.168.1389-.269.1807c-.1.0418-.208.0633-.317.0631h-.836c-.109.0008-.217-.0202-.318-.0618-.102-.0415-.194-.1028-.271-.1803-.078-.0775-.139-.1697-.181-.2713s-.064-.2105-.064-.3205z" fill="url(#y)"/><path d="m176.603 24.5968c1.923-11.4858-5.766-22.36678-17.174-24.303279-11.408-1.936501-22.215 5.804769-24.139 17.290579-1.923 11.4859 5.766 22.3668 17.174 24.3033s22.215-5.8047 24.139-17.2906z" fill="url(#z)"/><path d="m175.647 25.7537c2.562-10.9611-4.187-21.93755-15.074-24.51653-10.887-2.57899-21.789 4.21607-24.351 15.17723-2.561 10.9611 4.188 21.9375 15.075 24.5165s21.789-4.2161 24.35-15.1772z" fill="url(#A)"/><path d="m139.249 12.953c-.052.0009-.103-.011-.15-.0345-.077-.0385-.137-.1065-.165-.189-.028-.0826-.022-.173.016-.2513 1.854-3.69275 4.844-6.68295 8.525-8.52429 3.68-1.84134 7.853-2.43508 11.896-1.69262.042.0077.082.02365.118.04696.036.0233.067.0535.091.08887.025.03537.042.07521.051.11726s.01.08547.002.12779c-.008.04233-.024.08272-.047.11888-.023.03615-.053.06736-.088.09185s-.075.04177-.116.05085c-.042.00909-.085.00981-.127.00211-1.094-.19954-2.203-.30011-3.315-.3005-3.405-.01076-6.746.93565-9.646 2.73272-2.9 1.79706-5.245 4.37344-6.769 7.43912-.027.0512-.066.0945-.115.1253-.048.0309-.104.0483-.161.0505z" fill="#fff"/><path d="m168.51 33.7379c6.694-6.7395 6.694-17.6664 0-24.40596-6.694-6.73952-17.547-6.73953-24.241-.00001-6.694 6.73957-6.694 17.66647 0 24.40597s17.547 6.7395 24.241 0z" fill="#fff" opacity=".78"/><path d="m154.708 34.3634v-1.8781c-1.94-.0781-3.868-.5409-5.234-1.1419-.235-.1068-.425-.2949-.534-.5303-.11-.2353-.132-.5024-.063-.7528l.473-1.7489c.041-.1507.114-.2907.214-.4107.099-.12.223-.2173.362-.2851.14-.0679.293-.1049.448-.1085s.309.0263.452.0876c1.528.658 3.17 1.0062 4.832 1.0247 1.872 0 3.268-.6401 3.268-1.9532 0-1.1825-1.079-1.8842-3.681-2.5873-3.713-1.0232-6.378-2.6519-6.378-5.9439 0-2.9704 2.158-5.2392 5.902-5.8462v-1.8781c0-.2901.114-.5683.318-.77343s.48-.32038.768-.32038h1.096c.288 0 .564.11525.768.32038s.318.48333.318.77343v1.6858c1.413.0358 2.812.2892 4.149.7513.256.0933.468.2806.593.5243s.154.5259.081.7903l-.436 1.6167c-.039.1472-.108.2845-.203.403s-.214.2157-.349.2852-.282.1098-.433.1183c-.151.0086-.303-.0149-.444-.0688-1.299-.4977-2.678-.7498-4.068-.7437-2.221 0-2.857.9255-2.857 1.7564 0 1.0232 1.333 1.7264 4.222 2.6204 4.125 1.2455 5.84 2.9719 5.84 6.0715 0 2.8427-2.09 5.4-6.158 6.0385v2.1035c0 .2901-.114.5684-.318.7735s-.48.3204-.768.3204h-1.092c-.143.0001-.285-.028-.417-.0829s-.252-.1354-.353-.237-.181-.2222-.236-.355c-.054-.1328-.082-.2752-.082-.419z" fill="url(#B)"/></g></svg>