<svg fill="none" height="151" viewBox="0 0 191 151" width="191" xmlns="http://www.w3.org/2000/svg" xmlns:xlink="http://www.w3.org/1999/xlink"><linearGradient id="a"><stop offset="0" stop-color="#067431"/><stop offset="1" stop-color="#2e9f5a"/></linearGradient><linearGradient id="b" gradientUnits="userSpaceOnUse" x1="155.365" x2="160.314" xlink:href="#a" y1="1.39809" y2="21.536"/><linearGradient id="c" gradientUnits="userSpaceOnUse" x1="170.164" x2="188.04" xlink:href="#a" y1="2.45084" y2="26.7145"/><linearGradient id="d" gradientUnits="userSpaceOnUse" x1="165.954" x2="182.632" xlink:href="#a" y1="2.45084" y2="29.6623"/><linearGradient id="e" gradientUnits="userSpaceOnUse" x1="162.629" x2="168.477" xlink:href="#a" y1="21.7806" y2="30.5075"/><linearGradient id="f" gradientUnits="userSpaceOnUse" x1="32.6234" x2="174.314" y1="88.8256" y2="100.904"><stop offset="0" stop-color="#f8db8b"/><stop offset="1" stop-color="#68b790"/></linearGradient><linearGradient id="g" gradientUnits="userSpaceOnUse" x1="153.616" x2="156.227" xlink:href="#a" y1="55.0311" y2="65.6561"/><linearGradient id="h" gradientUnits="userSpaceOnUse" x1="161.422" x2="170.851" xlink:href="#a" y1="55.5863" y2="68.3869"/><linearGradient id="i" gradientUnits="userSpaceOnUse" x1="159.202" x2="167.999" xlink:href="#a" y1="55.5863" y2="69.9412"/><linearGradient id="j" gradientUnits="userSpaceOnUse" x1="157.446" x2="160.531" xlink:href="#a" y1="65.7827" y2="70.3873"/><linearGradient id="k" gradientUnits="userSpaceOnUse" x1="139.127" x2="141.736" xlink:href="#a" y1="105.928" y2="116.549"/><linearGradient id="l" gradientUnits="userSpaceOnUse" x1="146.937" x2="156.364" xlink:href="#a" y1="106.484" y2="119.28"/><linearGradient id="m" gradientUnits="userSpaceOnUse" x1="144.714" x2="153.507" xlink:href="#a" y1="106.484" y2="120.837"/><linearGradient id="n" gradientUnits="userSpaceOnUse" x1="142.961" x2="146.044" xlink:href="#a" y1="116.68" y2="121.281"/><linearGradient id="o" gradientUnits="userSpaceOnUse" x1="39.7049" x2="42.3161" xlink:href="#a" y1="40.4935" y2="51.1185"/><linearGradient id="p" gradientUnits="userSpaceOnUse" x1="47.5117" x2="56.9406" xlink:href="#a" y1="41.0487" y2="53.8493"/><linearGradient id="q" gradientUnits="userSpaceOnUse" x1="45.2914" x2="54.0885" xlink:href="#a" y1="41.0487" y2="55.4036"/><linearGradient id="r" gradientUnits="userSpaceOnUse" x1="43.5358" x2="46.6205" xlink:href="#a" y1="51.2451" y2="55.8497"/><linearGradient id="s" gradientUnits="userSpaceOnUse" x1="103.935" x2="106.546" xlink:href="#a" y1="20.2369" y2="30.8619"/><linearGradient id="t" gradientUnits="userSpaceOnUse" x1="108.7" x2="117.423" xlink:href="#a" y1="19.5706" y2="37.7193"/><linearGradient id="u" gradientUnits="userSpaceOnUse" x1="109.521" x2="118.318" xlink:href="#a" y1="20.7921" y2="35.147"/><linearGradient id="v" gradientUnits="userSpaceOnUse" x1="107.769" x2="110.855" xlink:href="#a" y1="30.9885" y2="35.5906"/><linearGradient id="w" gradientUnits="userSpaceOnUse" x1="28.9552" x2="56.0032" xlink:href="#a" y1="81.8426" y2="156.075"/><clipPath id="x"><path d="m34 0h157v151h-157z"/></clipPath><g clip-path="url(#x)"><path d="m144.552 10.8314 46.448-10.8314-32.646 18.0508z" fill="url(#b)"/><path d="m191 0-10.387 31.6429-16.772-10.6903z" fill="url(#c)"/><path d="m158.354 18.0508 1.926 13.5921 3.561-10.6903 27.159-20.9526z" fill="url(#d)"/><path d="m160.28 31.6429 10.087-6.5327-6.526-4.1576z" fill="url(#e)"/><path d="m80.1195 150.77c-24.8426-.363-60.514-52.6196-8.926-65.7085 51.5875-13.0889 12.4495 44.3035-8.7429 16.2445-21.1923-28.0588 13.2012-49.2137 48.2334-45.0138 35.033 4.2 45.861-22.6081 45.861-22.6081" stroke="url(#f)" stroke-dasharray="12 12" stroke-miterlimit="10"/><path d="m147.911 60.0078 24.504-5.7143-17.223 9.5239z" fill="url(#g)"/><path d="m172.415 54.2935-5.482 16.6915-8.847-5.6391z" fill="url(#h)"/><path d="m155.192 63.8174 1.015 7.1676 1.879-5.6391 14.329-11.0524z" fill="url(#i)"/><path d="m156.207 70.985 5.323-3.4474-3.444-2.1917z" fill="url(#j)"/><path d="m133.422 110.901 24.504-5.71-17.222 9.519z" fill="url(#k)"/><path d="m157.927 105.191-5.478 16.687-8.846-5.634z" fill="url(#l)"/><path d="m140.704 114.71 1.02 7.168 1.879-5.634 14.324-11.053z" fill="url(#m)"/><path d="m141.723 121.878 5.318-3.443-3.438-2.191z" fill="url(#n)"/><path d="m34 45.4702 24.5044-5.7143-17.2226 9.5239z" fill="url(#o)"/><path d="m58.5045 39.7559-5.4825 16.6915-8.8462-5.6391z" fill="url(#p)"/><path d="m41.2817 49.2798 1.0148 7.1676 1.8792-5.6391 14.3286-11.0524z" fill="url(#q)"/><path d="m42.2966 56.4475 5.3228-3.4428-3.4436-2.1964z" fill="url(#r)"/><path d="m98.23 25.2136 24.504-5.7143-17.222 9.5239z" fill="url(#s)"/><path d="m122.734 19.4993-5.477 16.6915-8.847-5.6391z" fill="url(#t)"/><path d="m105.512 29.0232 1.019 7.1676 1.879-5.6391 14.324-11.0524z" fill="url(#u)"/><path d="m106.531 36.1909 5.318-3.4428-3.439-2.1963z" fill="url(#v)"/></g><path d="m19.8784 76.3639h-17.26671s-3.161043.7276-2.188929 6.9119c0 0 17.511439 57.7162 56.057839 64.1422h10.4063s5.29-.302 5.29-3.636v-13.753s1.1545-6.79 7.174-2.606c0 0 6.3177 3.549 21.6511 19.076.286.29.627.521 1.004.678.376.158.779.24 1.187.241h16.286s6.567-.151 3.101-6.471c0 0-7.501-12.111-19.28-22.477-.799-.675-1.44-1.516-1.88-2.464-.638-1.456-.903-3.538 1.217-5.448 0 0 12.342-16.5504 17.692-28.9192 0 0 1.704-5.2749-3.039-5.2749h-15.211s-3.2213-.4836-4.6717 2.6619c0 0-10.5197 23.8852-19.3955 29.8282 0 0-4.9251 4.607-5.9595-1.759v-26.1239s.4871-4.6338-3.586-4.6338h-22.2674s-2.9186.2085-2.9186 2.755 1.3348 2.7883 1.3348 2.7883 4.5091 3.4471 4.5091 9.2145v22.1289s-1.0344 7.032-6.3844.424c0 0-7.1185-6.125-18.7883-34.3827.0022.0089-1.5794-2.9014-4.0731-2.9014z" fill="url(#w)"/></svg>