<svg fill="none" height="149" viewBox="0 0 232 149" width="232" xmlns="http://www.w3.org/2000/svg" xmlns:xlink="http://www.w3.org/1999/xlink"><linearGradient id="a"><stop offset="0" stop-color="#f8db8b"/><stop offset="1" stop-color="#68b790"/></linearGradient><linearGradient id="b" gradientUnits="userSpaceOnUse" x1="126.29" x2="175.647" xlink:href="#a" y1="81.7227" y2="83.5708"/><linearGradient id="c" gradientUnits="userSpaceOnUse" x1="168.98" x2="206.853" xlink:href="#a" y1="70.723" y2="71.6056"/><linearGradient id="d" gradientUnits="userSpaceOnUse" x1="77.8699" x2="132.835" xlink:href="#a" y1="103.221" y2="107.393"/><linearGradient id="e" gradientUnits="userSpaceOnUse" x1="146.967" x2="222.542" xlink:href="#a" y1="99.514" y2="106.306"/><linearGradient id="f" gradientUnits="userSpaceOnUse" x1="200.656" x2="229.046" xlink:href="#a" y1="90.8133" y2="91.5581"/><linearGradient id="g" gradientUnits="userSpaceOnUse" x1="107.97" x2="155.27" xlink:href="#a" y1="118.993" y2="126.416"/><linearGradient id="h" gradientUnits="userSpaceOnUse" x1="19.2817" x2="65.9554" xlink:href="#a" y1="83.1506" y2="84.8931"/><linearGradient id="i" gradientUnits="userSpaceOnUse" x1="66.7753" x2="101.341" xlink:href="#a" y1="77.9615" y2="78.8136"/><linearGradient id="j" gradientUnits="userSpaceOnUse" x1="15.1502" x2="30.0407" xlink:href="#a" y1="108.475" y2="108.801"/><linearGradient id="k" gradientUnits="userSpaceOnUse" x1="41.9192" x2="116.141" xlink:href="#a" y1="112.653" y2="124.726"/><linearGradient id="l" gradientUnits="userSpaceOnUse" x1="99.4012" x2="123.429" xlink:href="#a" y1="93.7472" y2="94.335"/><linearGradient id="m" gradientUnits="userSpaceOnUse" x1="13.3036" x2="58.9435" xlink:href="#a" y1="114.185" y2="118.115"/><linearGradient id="n" gradientUnits="userSpaceOnUse" x1="27.9762" x2="52.2976" xlink:href="#a" y1="41.8716" y2="47.9694"/><linearGradient id="o" gradientUnits="userSpaceOnUse" x1="35.6311" x2="47.1051" xlink:href="#a" y1="32.7396" y2="33.2622"/><linearGradient id="p" gradientUnits="userSpaceOnUse" x1="39.8828" x2="41.8209" xlink:href="#a" y1="22.7491" y2="22.7645"/><linearGradient id="q" gradientUnits="userSpaceOnUse" x1="-25.2734" x2="162.507" xlink:href="#a" y1="134.581" y2="277.334"/><linearGradient id="r" gradientUnits="userSpaceOnUse" x1="150.112" x2="182.714" xlink:href="#a" y1="80.0587" y2="81.5917"/><linearGradient id="s" gradientUnits="userSpaceOnUse" x1="128.939" x2="235.301" xlink:href="#a" y1="97.5172" y2="112.474"/><linearGradient id="t" gradientUnits="userSpaceOnUse" x1="45.9275" x2="148.966" xlink:href="#a" y1="53.2845" y2="62.8945"/><linearGradient id="u" gradientUnits="userSpaceOnUse" x1="153.62" x2="157.224" xlink:href="#a" y1="62.547" y2="62.7081"/><linearGradient id="v" gradientUnits="userSpaceOnUse" x1="181.569" x2="185.174" xlink:href="#a" y1="48.2706" y2="48.4318"/><linearGradient id="w" gradientUnits="userSpaceOnUse" x1="175.294" x2="178.898" xlink:href="#a" y1="33.7791" y2="33.9403"/><linearGradient id="x" gradientUnits="userSpaceOnUse" x1="153.62" x2="157.224" xlink:href="#a" y1="100.133" y2="100.294"/><linearGradient id="y" gradientUnits="userSpaceOnUse" x1="148.574" x2="152.178" xlink:href="#a" y1="88.954" y2="89.1151"/><linearGradient id="z" gradientUnits="userSpaceOnUse" x1="33.8961" x2="37.4996" xlink:href="#a" y1="46.0074" y2="46.174"/><linearGradient id="A" gradientUnits="userSpaceOnUse" x1="90.4942" x2="94.0983" xlink:href="#a" y1="57.6305" y2="57.7916"/><linearGradient id="B"><stop offset="0" stop-color="#007e33"/><stop offset="1" stop-color="#55b079"/></linearGradient><linearGradient id="C" gradientUnits="userSpaceOnUse" x1="86.7388" x2="161.593" xlink:href="#B" y1="71.6045" y2="71.6045"/><linearGradient id="D" gradientUnits="userSpaceOnUse" x1="81.8885" x2="170.88" xlink:href="#a" y1="66.7298" y2="71.7432"/><linearGradient id="E" gradientUnits="userSpaceOnUse" x1="105.472" x2="135.607" xlink:href="#a" y1="69.1844" y2="70.1713"/><linearGradient id="F" gradientUnits="userSpaceOnUse" x1="87.2168" x2="148.567" xlink:href="#a" y1="73.837" y2="107.481"/><linearGradient id="G" gradientUnits="userSpaceOnUse" x1="115.023" x2="126.262" xlink:href="#B" y1="67.7427" y2="67.7427"/><linearGradient id="H" gradientUnits="userSpaceOnUse" x1="132.962" x2="155.316" xlink:href="#B" y1="61.8858" y2="61.8858"/><linearGradient id="I" gradientUnits="userSpaceOnUse" x1="97.7585" x2="120.508" xlink:href="#B" y1="52.7109" y2="52.7109"/><linearGradient id="J" gradientUnits="userSpaceOnUse" x1="94.8765" x2="109.207" xlink:href="#B" y1="58.9354" y2="58.9354"/><linearGradient id="K" gradientUnits="userSpaceOnUse" x1="111.271" x2="133.176" xlink:href="#B" y1="37.5455" y2="37.5455"/><linearGradient id="L" gradientUnits="userSpaceOnUse" x1="123.826" x2="137.94" xlink:href="#B" y1="51.9445" y2="51.9445"/><linearGradient id="M" gradientUnits="userSpaceOnUse" x1="93.6637" x2="126.267" xlink:href="#B" y1="87.3195" y2="87.3195"/><linearGradient id="N" gradientUnits="userSpaceOnUse" x1="111.694" x2="154.238" xlink:href="#B" y1="95.1927" y2="95.1927"/><linearGradient id="O"><stop offset="0" stop-color="#067431"/><stop offset="1" stop-color="#2e9f5a"/></linearGradient><linearGradient id="P" gradientUnits="userSpaceOnUse" x1="187.537" x2="206.546" xlink:href="#O" y1="54.9176" y2="77.9435"/><linearGradient id="Q" gradientUnits="userSpaceOnUse" x1="189.863" x2="192.095" xlink:href="#O" y1="53.0467" y2="63.2425"/><linearGradient id="R" gradientUnits="userSpaceOnUse" x1="88.2386" x2="143.298" xlink:href="#a" y1="116.366" y2="147.882"/><linearGradient id="S" gradientUnits="userSpaceOnUse" x1="108.971" x2="109.034" xlink:href="#O" y1="115.439" y2="117.924"/><linearGradient id="T" gradientUnits="userSpaceOnUse" x1="125.832" x2="140.772" xlink:href="#a" y1="116.266" y2="129.657"/><linearGradient id="U" gradientUnits="userSpaceOnUse" x1="38.8933" x2="46.3494" xlink:href="#B" y1="120.575" y2="120.575"/><linearGradient id="V" gradientUnits="userSpaceOnUse" x1="42.8514" x2="64.8295" xlink:href="#B" y1="104.075" y2="104.075"/><linearGradient id="W" gradientUnits="userSpaceOnUse" x1="25.6109" x2="27.7953" xlink:href="#O" y1="119.878" y2="123.485"/><linearGradient id="X" gradientUnits="userSpaceOnUse" x1="78.0955" x2="80.2797" xlink:href="#O" y1="119.878" y2="123.486"/><linearGradient id="Y" gradientUnits="userSpaceOnUse" x1="49.9192" x2="60.0681" xlink:href="#B" y1="128.269" y2="128.269"/><linearGradient id="Z" gradientUnits="userSpaceOnUse" x1="35.9928" x2="60.2398" xlink:href="#O" y1="85.9216" y2="122.421"/><linearGradient id="aa" gradientUnits="userSpaceOnUse" x1="122.562" x2="146.809" xlink:href="#O" y1="45.9603" y2="56.6205"/><linearGradient id="ab" gradientUnits="userSpaceOnUse" x1="136.962" x2="155.494" xlink:href="#O" y1="19.6211" y2="40.7298"/><linearGradient id="ac" gradientUnits="userSpaceOnUse" x1="84.176" x2="84.6415" xlink:href="#O" y1="133.73" y2="143.991"/><linearGradient id="ad" gradientUnits="userSpaceOnUse" x1="45.8842" x2="65.8614" xlink:href="#B" y1="141.141" y2="141.141"/><linearGradient id="ae" gradientUnits="userSpaceOnUse" x1="169.765" x2="183.293" xlink:href="#B" y1="133.662" y2="133.662"/><linearGradient id="af" gradientUnits="userSpaceOnUse" x1="92.1416" x2="110.101" xlink:href="#O" y1="2.70208" y2="33.3975"/><linearGradient id="ag" gradientUnits="userSpaceOnUse" x1="115.287" x2="118.533" xlink:href="#O" y1="26.0066" y2="33.7123"/><clipPath id="ah"><path d="m0 0h232v149h-232z"/></clipPath><g clip-path="url(#ah)"><g opacity=".5"><path d="m169.206 38.249-1.051 60.0071-4.581 32.3029-10.109-.094-3.414-.034-16.229-.157-1.37-19.698-1.946-62.8705 17.111-5.6811z" fill="url(#b)" opacity=".5"/><path d="m201.883 130.879h-7.674l-21.996-.228.315-33.4242.754-80.0539 25.955 16.7149 1.728 63.339z" fill="url(#c)" opacity=".5"/><path d="m125.87 86.5522v43.6158l-13.766-.143-27.5466-.285-1.9722-50.5073z" fill="url(#d)" opacity=".5"/><path d="m213.117 90.6328v40.2462h-18.908l-21.996-.273-8.639-.109-10.109-.124.551-58.7797z" fill="url(#e)" opacity=".5"/><path d="m225.324 55.1472-.003.1585-.823 75.5733h-21.419l.564-33.6521.63-37.7374z" fill="url(#f)" opacity=".5"/><path d="m150.051 108.822v21.598l-16.229-.17-7.952-.082-13.766-.144v-21.202z" fill="url(#g)" opacity=".5"/><path d="m59.8643 41.9185-.8336 55.3086-.4865 32.2419-10.1268-.106-3.4157-.038-16.3004-.165-1.2969-20.338-4.1361-64.7753 7.6317-.4448 19.5216-1.1354z" fill="url(#h)" opacity=".5"/><path d="m96.806 129.866-11.1942-.11-10.9226-.109-4.9639-.05.2803-28.145.6884-69.6952 23.7201 14.5519 1.5786 55.1433z" fill="url(#i)" opacity=".5"/><path d="m28.0856 86.6044v47.0576l-5.0002-.057-6.6645-.08.1525-22.277.1743-25.1931z" fill="url(#j)" opacity=".5"/><path d="m108.07 97.2271v32.7559l-6.618-.07-4.6461-.047-12.2485-.126-11.9522-.127-5.4316-.056-8.6294-.088-10.1267-.106v-32.1359z" fill="url(#k)" opacity=".5"/><path d="m120.276 61.3838-.003.1468-.689 68.5724-1.169-.012-6.311-.061-4.034-.037-6.618-.064.465-29.9661.534-34.5973z" fill="url(#l)" opacity=".5"/><path d="m53.2259 96.6003v37.3387l-16.3004-.305-7.8815-.151-5.067-.095-6.7517-.129.154-36.6587z" fill="url(#m)" opacity=".5"/><path d="m50.4216 45.6863h-19.2282l-1.0122-7.2105h20.2404z" fill="url(#n)" opacity=".5"/><path d="m45.0031 42.0811h-8.3913v-17.029l9.0027-.628z" fill="url(#o)" opacity=".5"/><path d="m41.5657 14.7292h-1.5176v17.029h1.5176z" fill="url(#p)" opacity=".5"/></g><path d="m116.001 149.002c64.065 0 116-6.102 116-13.629s-51.935-13.629-116-13.629c-64.0657 0-116.001 6.102-116.001 13.629s51.9353 13.629 116.001 13.629z" fill="url(#q)"/><path d="m152.899 105.768s5.213-49.6788 20.821-48.5768c15.608 1.1019-12.063 32.9633-13.049 47.4458z" fill="url(#r)"/><path d="m157.256 105.173c.498-10.0134 4.475-20.6431 7.724-27.7867 3.522-7.7498 6.971-13.1955 7.003-13.2507l-.338-.2152c-.035.0553-3.496 5.5242-7.029 13.3002-3.264 7.18-7.262 17.8547-7.761 27.9324z" fill="#fff"/><path d="m207.94 102.335c-9.419 2.707-6.869 17.083-17.938 15.119-11.07-1.964-10.22-2.726-15.143 2.362 0 0-1.743 4.713-6.017 5.762-16.89 4.14-41.938-19.602-25.034-34.7314 1.219-1.0918 3.068-1.5991 5.122-2.0687 11.137-2.5062 14.987 2.4306 22.972-11.435 7.984-13.8657 21.284 4.3612 28.788 3.1982s14.005-3.88 20.418 3.7346-3.754 15.3601-13.168 18.0593z" fill="url(#s)"/><path d="m150.475 108.887-.395-.508c.225-.175 23.049-17.4714 72.532-21.9271l.059.6426c-49.295 4.4396-71.972 21.6195-72.196 21.7925z" fill="#fff"/><path d="m180.039 87.6802c-6.927-5.4544-8.388-10.054-8.446-10.2473l.615-.1875c.015.045 1.479 4.6126 8.23 9.9275z" fill="#fff"/><path d="m181.632 94.5491c-2.052-3.1168-2.187-7.7978-.394-13.5357.858-2.6901 1.977-5.2896 3.341-7.7614l.557.3241c-.077.1338-7.678 13.4499-2.961 20.6197z" fill="#fff"/><path d="m194.601 92.5633c-.821-.6004-1.269-.9958-1.29-1.0176l.436-.4798c.093.0843 9.55 8.4055 22.609 7.1408l.061.6425c-10.528 1.022-18.756-4.0501-21.816-6.2859z" fill="#fff"/><path d="m202.016 107.024c-3.208-3.136-4.28-6.413-4.615-8.608-.366-2.3899.03-4.021.046-4.0893l.626.1555c-.016.0625-1.478 6.3378 4.393 12.0808z" fill="#fff"/><path d="m63.874 43.4243c8.0079 7.9374-2.495 21.0282 9.7535 25.1699 12.2485 4.1416 11.807 2.8958 13.968 10.7474 0 0-.8481 5.7131 2.8915 9.1381 14.754 13.5193 53.12 3.4076 44.415-21.1983-.627-1.7764-2.21-3.3145-4.026-4.9179-9.856-8.6919-16.463-5.8338-16.868-24.2351s-23.8826-7.3617-30.8056-12.6926c-6.923-5.3308-11.9857-11.656-22.6556-7.5201-10.6698 4.1359-4.6908 17.5843 3.3272 25.5086z" fill="url(#t)"/><path d="m118.218 81.797.679-.2908c-.13-.2994-13.613-30.3655-61.0732-62.2196l-.4139.6164c47.2831 31.7335 60.6781 61.596 60.8081 61.894z" fill="#fff"/><path d="m100.094 44.0595c9.999-1.6732 14.009-5.5052 14.174-5.6695l-.517-.5306c-.039.0378-4.036 3.8349-13.7791 5.4645z" fill="#fff"/><path d="m94.6972 50.1087c3.7889-2.0105 6.5088-6.6581 7.8638-13.4368.622-3.1865.928-6.4265.917-9.6731l-.741.0174c0 .1774.327 17.8126-8.3884 22.4383z" fill="#fff"/><path d="m82.7103 40.9355c1.1618-.1454 1.8298-.3024 1.8603-.3097l-.1684-.7268c-.1452.0334-14.2716 3.1982-26.7466-5.2945l-.4168.6135c10.0512 6.8499 21.1582 6.2815 25.4715 5.7175z" fill="#fff"/><path d="m67.2536 51.4229c4.9654-1.3913 7.8554-4.1025 9.405-6.1319 1.6861-2.2096 2.1871-4.0704 2.2075-4.1518l-.7175-.189c-.0188.0727-2.0041 7.2119-11.0954 9.7574z" fill="#fff"/><path d="m156.756 65.5357-2.681-.3693-.147-5.0938 2.828-.1861z" fill="url(#u)"/><path d="m184.705 51.2586-2.681-.3693-.147-5.0924 2.828-.1861z" fill="url(#v)"/><path d="m178.43 36.7678-2.681-.3707-.147-5.0924 2.828-.186z" fill="url(#w)"/><path d="m156.756 103.122-2.681-.371-.147-5.0923 2.828-.186z" fill="url(#x)"/><path d="m151.709 91.9427-2.68-.3693-.147-5.0939 2.827-.186z" fill="url(#y)"/><path d="m37.0317 48.8977h-2.6708l-.1568-5.4631 2.8276.3358z" fill="url(#z)"/><path d="m93.6298 60.6192-2.6809-.3693-.1467-5.0939 2.8276-.186z" fill="url(#A)"/><path d="m151.592 129.007-57.0515 1.538c-4.1216 0-7.8161-2.825-7.8161-6.95l2.4877-103.4696c.0019-1.984.79-3.8862 2.1914-5.2892 1.4013-1.403 3.3015-2.1923 5.2835-2.1946h54.905c4.121 0 9.999 2.2693 9.999 8.4622l-2.524 100.4202c-.003 1.984-.791 3.886-2.192 5.289-1.402 1.402-3.301 2.192-5.283 2.194z" fill="url(#C)"/><path d="m151.608 14.5388h-54.9488c-3.0701 0-5.5579 2.4219-5.5579 5.4093l-1.5975 98.8999c-.0552 6.769 3.5813 6.51 6.6514 6.51l55.3728-1.531c3.07 0 5.633-3.526 5.633-6.514l2.242-96.7281c0-2.9874-4.73-6.0461-7.8-6.0461z" fill="url(#D)"/><path d="m131.662 74.5343c-.038 3.6459-.846 7.3006-2.405 10.8622-3.755 8.5886-11.344 15.2645-20.301 17.8405-.065.019-.132.029-.199.029-.172-.001-.338-.064-.467-.177-.13-.114-.214-.27-.238-.44s.014-.344.107-.488c.093-.145.235-.251.4-.3 8.554-2.4709 15.801-8.8353 19.388-17.0387 1.48-3.3843 2.248-6.85 2.285-10.304.062-3.493-.719-6.9495-2.276-10.0758-2.786-5.5547-11.281-16.0347-18.493-24.4852-.064-.0742-.11-.1615-.135-.2556-.026-.0941-.031-.1927-.014-.2887.017-.0961.055-.1873.111-.2671s.129-.1462.213-.1946c.161-.0923.349-.1256.532-.094s.348.126.469.267c.523.6135 1.05 1.2352 1.583 1.8652 9.096 10.7576 14.82 18.4391 17.012 22.8104 1.661 3.3302 2.494 7.0127 2.428 10.7344z" fill="url(#E)"/><path d="m138.295 79.2209c-4.424 0-8.238-.6775-11.398-2.0352-10.256-4.3888-28.6257-6.4575-32.2898-6.8326-.1709-.0187-.3275-.1038-.4362-.2371s-.1606-.3039-.1448-.4752c.008-.0863.033-.1702.0735-.2468.0406-.0766.0958-.1444.1626-.1995.0669-.0552.1439-.0965.2268-.1217.0828-.0252.1698-.0337.256-.0251 3.7193.3852 22.2529 2.4713 32.6759 6.9357 10.049 4.2987 25.052.1251 28.238-.8489.164-.0498.34-.0339.491.0443.152.0782.267.2125.321.3743.028.0831.04.171.033.2585-.006.0875-.03.1728-.07.2509s-.095.1473-.162.2037c-.068.0563-.145.0986-.229.1243-3.203.9647-6.471 1.6983-9.778 2.1951-2.638.4078-5.302.6201-7.97.6353z" fill="url(#F)"/><path d="m115.321 67.959c-.117.1185-.204.2633-.253.4223s-.06.3275-.031.4914c.03.1639.098.3184.199.4506.101.1321.232.2381.383.3089 2.641 1.2415 9.23 4.1853 10.311 3.1837 1.352-1.2575-1.786-10.6602-3.089-10.3448-1.021.2486-5.641 3.5893-7.52 5.4879z" fill="url(#G)" opacity=".25"/><path d="m149.819 50.9998c-.476.3328-.991.603-1.536.8039-3.453 1.2662-16.969 6.5723-15.16 11.3915.527 1.4043 1.431 9.2704 1.359 11.3914-.071 2.121 18.462-.6382 20.393-2.4917.727-.6993.353-16.2643.276-22.3482-.013-1.0656-1.119-1.6936-1.954-1.1106z" fill="url(#H)" opacity=".25"/><path d="m113.911 64.1123 5.616-3.707c1.092-.7268 1.307-2.1253.467-3.0891l-13.536-15.6c-.351-.3846-.812-.6511-1.32-.7628s-1.039-.0631-1.518.1391l-4.4802 1.8652c-1.3158.5466-1.7907 2.0352-1.0036 3.1386l12.4028 17.4447c.736 1.0336 2.277 1.2953 3.372.5713z" fill="url(#I)" opacity=".25"/><path d="m94.9136 65.3015c.0067.4505.174.8839.4717 1.2219s.7063.5584 1.152.6214c3.6407.5204 12.2937 1.6733 12.5927.9042 1.11-2.8406-10.2139-19.6835-13.435-18.4202-.9425.3664-.8496 11.4569-.7814 15.6727z" fill="url(#J)" opacity=".25"/><path d="m122.723 27.9944s-12.173 7.1233-11.423 8.2572c.749 1.1339 6.865 11.5033 9.206 10.9902 2.341-.5132 13.369-6.6625 12.635-8.1409-.735-1.4785-8.232-12.7725-10.418-11.1065z" fill="url(#K)" opacity=".25"/><path d="m131.857 47.2608s-8.67 4.6723-7.996 5.4501c.673.7777 3.168 4.1169 4.335 3.9657 1.166-.1511 10.144-5.088 9.73-5.9225-.414-.8344-5.14-4.0035-6.069-3.4933z" fill="url(#L)" opacity=".25"/><path d="m96.6433 73.297s9.1637 1.2618 13.6517 2.2649c4.487 1.0031 16.434 4.5342 15.957 5.5591-.476 1.0249-12.199 16.5725-24.807 19.935-8.3888 2.237-7.4259-6.6014-7.4288-10.3491.0029-5.1986-1.7936-18.6223 2.6271-17.4099z" fill="url(#M)" opacity=".25"/><path d="m113.703 108.258s36.5.798 37.999-1.534c3.43-5.332 2.424-22.6634 2.311-23.5139-.313-2.3259-14.832-.8722-16.752.6222-2.077 1.6122-6.138 15.1668-14.33 18.0047-12.06 4.179-13.118 6.434-9.228 6.421z" fill="url(#N)" opacity=".25"/><path d="m180.756 67.9342c-3.015.5742-6.426.0349-10.154-1.6064-1.719-.7568-3.359-1.682-4.896-2.7621l3.294-4.7202-1.647 2.3594 1.643-2.3638c1.715 1.2488 7.033 4.2711 11.009 3.2913 1.804-.4449 3.195-1.6965 4.257-3.8262l5.083 2.6748c-1.804 3.6256-4.564 5.9821-7.987 6.818-.198.0538-.398.0974-.602.1352z" fill="#f4caab"/><path d="m173.501 64.1967s-1.874-2.7926-3.776-3.6533c-1.903-.8606-3.111-.1453-3.111-.1453l-2.042-.8156s-.29 7.7571 5.016 6.3964c.417-.1163 3.913-1.7822 3.913-1.7822z" fill="#f4caab"/><path d="m164.874 55.5369 1.952 11.2446c.03.1747.095.3416.191.4907s.221.2775.367.3775.311.1697.485.2049c.173.0351.352.035.526-.0002l5.228-1.0598c.338-.0687.636-.2668.831-.5521.194-.2854.27-.6355.21-.9758l-1.923-11.0803c-.059-.346-.254-.6541-.54-.8566-.287-.2026-.642-.283-.988-.2235l-5.255.8955c-.172.0294-.337.0924-.484.1855-.148.0931-.276.2144-.376.357-.101.1426-.172.3037-.211.474-.038.1704-.043.3466-.013.5186z" fill="#131f2d"/><path d="m165.692 55.1865c.002-.0693.024-.1364.064-.1928.041-.0565.097-.0997.161-.1244.065-.0246.135-.0295.203-.014.067.0155.129.0507.176.101.048.0504.079.1138.091.1821.011.0683.002.1385-.026.2017s-.075.1166-.133.1535c-.059.0368-.127.0554-.196.0534-.046-.0011-.092-.0114-.134-.0301-.042-.0188-.08-.0457-.111-.0793-.032-.0335-.057-.0729-.073-.116-.016-.0432-.024-.0891-.022-.1351z" fill="#100b47"/><path d="m163.913 58.7597s-.539-1.1819.543-1.666c1.377-.6164 3.684-.064 2.817.3402-.769.3562-1.984.6018-1.984.6018s3.095-.5815 2.997.1032c-.099.6848-2.76 1.1485-2.76 1.1485s3.066-.2806 2.76.3358c-.307.6164-2.724 1.0511-2.724 1.0511s2.982-.4362 2.615.2718c-.368.708-1.957.6207-2.638.737-.643.1105-.923-.2689-.984-.8984 0 0-.426-.5902-.363-1.0176.024-.1613-.146-.2907-.179-.3983-.049-.2002-.082-.4038-.1-.6091z" fill="#f4caab"/><path d="m192.515 131.893s-.048 1.971-1.381 2.526-5.19 1.058-3.748 2.326c.828.727 4.727.257 5.828.257s2.135.48 2.952-.257c.901-.811 0-4.851 0-4.851s-.949.496-1.803.474c-1.236-.033-1.848-.475-1.848-.475z" fill="#131f2d"/><path d="m207.812 131.893s-.048 1.971-1.381 2.526-5.19 1.057-3.748 2.326c.828.727 4.727.257 5.828.257s2.135.48 2.952-.257c.901-.813 0-4.851 0-4.851s-.95.496-1.803.474c-1.232-.033-1.848-.475-1.848-.475z" fill="#131f2d"/><path d="m182.617 77.8762s-.247 8.247 2.383 24.0708c1.898 11.422 4.14 22.933 5.24 28.451.181.948.676 1.808 1.405 2.441.728.632 1.648 1.002 2.612 1.048l1.057.042c2.125.086 3.85-1.744 3.695-3.915l-2.67-37.333-.656-12.2884z" fill="#364154"/><path d="m206.674 85.1347c-.122 1.003-5.792.8809-12.735 0-6.944-.881-12.345-2.3856-12.227-3.3887.117-1.003 5.722-1.1266 12.665-.2471 6.944.8795 12.417 2.6312 12.297 3.6358z" fill="#131f2d"/><path d="m190.587 83.764 14.823 47.665c.292.964.88 1.811 1.681 2.421s1.773.951 2.779.975l.891.016c2.104.036 3.712-1.912 3.328-4.03l-8.109-44.7865c-.055-.2583-.179-.4971-.358-.6912-.178-.1942-.406-.3365-.659-.4122-2.787-.7995-14.649-3.1255-14.376-1.1571z" fill="#364154"/><path d="m207.618 81.7678-3.361-3.9076c.061-.0378 6.657-4.2071 6.026-10.1441-.33-3.0936-2.179-5.5838-5.509-7.3995-1.653-.8889-3.429-1.5296-5.269-1.9015l.79-5.0692c2.391.4586 4.697 1.2818 6.838 2.4409 4.808 2.6239 7.621 6.5577 8.133 11.3739.413 3.8888-.946 7.7571-3.93 11.185-2.14 2.4597-2.045 2.6066-3.718 3.4221z" fill="#f4caab"/><path d="m204.356 57.6927s-1.972-5.5547-9.004-5.3017c-7.032.2529-12.331 9.4943-13.652 29.3566 0 0 11.505-2.5252 24.98 3.3654.014 0 .761-19.3245-2.324-27.4203z" fill="url(#P)"/><path d="m209.873 56.5181-5.563 4.0283s-12.795 1.2822-16.192.6643c-3.397-.6178-4.328-3.3654-4.328-3.3654s3.618-4.1271 9.767-5.2334c.595-.1072 1.195-.1824 1.798-.2253 1.036-.0698 2.076-.0469 3.108.0683 6.076.66 11.41 4.0632 11.41 4.0632z" fill="url(#Q)"/><path d="m209.873 56.518c.301.4362-.7 1.6922-2.235 2.8043s-3.025 1.6616-3.326 1.224c-.3-.4376.699-1.6921 2.234-2.8042s3.025-1.6602 3.327-1.2241z" fill="#131f2d"/><path d="m213.658 69.0812c-.508 0-.922-.5815-.924-1.2996-.001-.7182.416-1.3011.924-1.3011s.923.5815.923 1.3011c.006.319-.083.6326-.255.9013-.07.1168-.167.2143-.284.2839-.116.0695-.249.1089-.384.1144zm0-2.3565c-.368 0-.68.4841-.68 1.0569 0 .5727.312 1.0554.68 1.0554.095-.0062.188-.036.269-.0868.082-.0507.149-.1208.197-.204.145-.2282.219-.4943.213-.7646 0-.5786-.31-1.0627-.679-1.0627z" fill="#efbc90"/><path d="m198.452 52.4579c-.368-.038-.72-.1735-1.02-.3927-.299-.2192-.534-.5142-.682-.8546l-.936-2.1806-.272-.6309-1.597-3.7158.277 3.8495.167 2.3115.048.6585c.017.26-.062.5173-.223.7221s-.392.3427-.648.3871h-.003c-.291.4623-.679 1.4043.495 1.7779 1.379.4361 3.609-.6484 4.41-1.9349z" fill="#f4caab"/><path d="m206.967 76.1361s-2.081-1.9088-3.725-1.7445-3.615 1.6282-2.575 1.7445 2.411-.1119 2.411-.1119-2.905.6163-2.469 1.2342c.436.6178 2.958.0552 2.958.0552s-3.397 1.0176-2.794 1.4537c.603.4362 3.178-.3372 3.178-.3372s-3.123 1.067-2.411 1.5715c.712.5044 2.575-.8985 3.013-.2806.439.6178 1.259 3.0296 3.123 2.0192z" fill="#f4caab"/><path d="m197.212 105.071-3.195-9.7005c-.702-2.1643-2.182-3.9908-4.152-5.1258l.125-.2166c2.022 1.1665 3.542 3.0419 4.264 5.2639l3.195 9.701z" fill="#020202"/><path d="m205.338 60.6219s-.308-.9261 1.089-1.9568c1.397-1.0306 3.208-1.2632 3.208-1.2632l.366 1.7677-1.972.8621z" fill="#f4caab"/><path d="m198.291 44.0525s-.145.6324.214 1.9262c.531 1.8898-1.633 2.6865-2.186 2.1457-.068-.0669.022-3.2898.022-3.2898l.691-.4114z" fill="#131f2d"/><path d="m195.816 48.969v.0639c-.091 1.2415-1.418 1.8215-1.418 1.8215h-.008l-.167-2.3114c.406-.1454.984-.3009 1.322-.1337.173.0785.285.2529.271.5597z" fill="#131f2d"/><path d="m190.156 45.3025c0-2.4713 1.617-4.4644 3.613-4.4644 1.995 0 3.613 1.9989 3.613 4.463s-1.618 4.4629-3.613 4.4644c-1.996.0015-3.613-1.9989-3.613-4.463z" fill="#f4caab"/><path d="m192.337 41.8762c.1.1366-.468 2.4335 3.776 2.9816 4.243.548 1.696-4.6127-1.439-4.729-4.527-.1686-5.187 2.8784-4.751 3.9745s2.414-2.2271 2.414-2.2271z" fill="#131f2d"/><path d="m198.887 39.053s-1.909 1.2793-.436 2.4815c1.473 1.2023 5.506 1.73 4.405 3.7594s-2.057 5.0372-.074 5.4137c1.982.3765 3.23.2253 4.038 1.8041.809 1.5787 4.405.6018 4.11-1.2779-.294-1.8796 2.79-3.534 1.469-5.2639-1.322-1.73-4.552-3.2317-5.359-5.4879-.808-2.2561-6.612-2.4059-8.153-1.429z" fill="#131f2d"/><path d="m195.649 44.1265s1.743 1.8317 1.135 3.7055c0 0 1.008-1.1019 1.029-1.5133.022-.4114-.245-1.8899-.245-1.8899z" fill="#131f2d"/><path d="m196.903 45.9742c-.41.3925-.982.4362-1.28.0902-.297-.346-.205-.9362.205-1.3273.41-.391.982-.4361 1.278-.0901s.203.9362-.203 1.3272z" fill="#f4caab"/><path d="m210.046 53.1236c-.011.002-.021.002-.032 0-.511-.1977-.816-.4478-.929-.7632-.173-.4812.123-1.0075.435-1.5657.275-.4885.558-.9943.49-1.4537-.082-.535-.783-.66-1.527-.7923-.627-.1119-1.275-.2268-1.532-.628-.062-.1078-.101-.2275-.113-.3513-.013-.1238.001-.2488.041-.3669.082-.3169.183-.6004.28-.8722.417-1.1775.746-2.1079-1.098-4.2391-2.367-2.733-4.328-2.8653-6.092-2.6007-.207.032-.727.3009-.727.5408 0 .1235.172.4361 1.703.6251.709.2072 1.363.5678 1.918 1.0561s.995 1.0925 1.291 1.7699c.55 1.2357-.231 2.5571-.86 3.6184-.422.7138-.785 1.3287-.672 1.7444.025.0798.066.1533.122.2159.055.0626.123.1129.199.1476.437.2162.898.3806 1.374.4899 1.195.3227 2.431.6571 2.586 2.813.001.0112 0 .0225-.004.0332-.004.0108-.009.0207-.017.0292-.007.0085-.016.0154-.026.0204s-.021.008-.033.0087c-.022.0013-.045-.0064-.062-.0213-.017-.0148-.028-.0359-.031-.0586-.145-2.0352-1.269-2.3362-2.458-2.6589-.489-.1123-.963-.2816-1.412-.5044-.096-.0459-.182-.1114-.251-.1922-.07-.0809-.122-.1753-.153-.2774-.133-.4826.249-1.1281.69-1.8738.641-1.0816 1.365-2.3071.851-3.4614-.284-.6517-.707-1.2333-1.239-1.7041-.533-.4709-1.161-.8195-1.843-1.0216-1.234-.1556-1.84-.4143-1.844-.7923s.646-.6804.871-.7138c1.816-.2718 3.827-.1454 6.245 2.6574 1.911 2.2068 1.567 3.1793 1.13 4.4106-.096.2704-.194.551-.274.8592-.034.095-.047.196-.038.2963.009.1002.039.1975.088.2852.217.3373.827.4463 1.418.5524.77.1367 1.567.2791 1.666.9362.077.5117-.221 1.0438-.51 1.557-.289.5131-.569 1.0176-.423 1.4232.095.266.366.4826.83.6614.018.0072.034.0207.043.0382.01.0174.013.0377.01.0573-.004.0196-.014.0374-.029.0502-.016.0128-.035.0199-.055.02z" fill="#fff"/><path d="m196.152 43.5042c-.493-.0166-.975-.15-1.406-.3893-.431-.2394-.799-.5777-1.075-.9873-.006-.0096-.01-.0202-.012-.0313-.001-.0112-.001-.0226.001-.0336.003-.011.007-.0214.014-.0306.006-.0092.015-.017.024-.023.01-.006.02-.0101.032-.012.011-.0019.022-.0016.033.0009s.021.0071.031.0136c.009.0066.017.0148.023.0244.008.0131.8 1.2633 2.338 1.2952.021.0028.04.0131.054.029s.022.0363.022.0575-.008.0417-.022.0576-.033.0262-.054.0289z" fill="#fff"/><path d="m203.1 76.0811-.044-.1149c.035-.0131.835-.3068 1.278 0l-.07.1003c-.39-.2704-1.157.0116-1.164.0146z" fill="#efbc90"/><path d="m203.593 77.3674-.045-.1134c.034-.0131.803-.3111 1.506 0l-.049.112c-.655-.2893-1.404.0014-1.412.0014z" fill="#efbc90"/><path d="m203.975 78.4942-.042-.1148c.041-.0146.986-.3649 1.431.0101l-.079.0931c-.395-.3286-1.299.0073-1.31.0116z" fill="#efbc90"/><path d="m182.742 82.646s3.227-.4492 8.071-.0901c4.684.3665 9.327 1.134 13.88 2.294l-2.382.4012-14.918.5917-3.003-2.4714z" fill="#364154"/><path d="m191.773 48.1898c.84-.0018 1.673-.1387 2.469-.4056 0 0 .103 1.2182-1.234 1.2996-.777.048-1.235-.894-1.235-.894z" fill="#efbc90"/><path d="m191.773 48.1898s.3.2486.997.2456c.697-.0029 1.472-.6512 1.472-.6512s-1.487.4099-2.469.4056z" fill="#fff"/><path d="m193.417 45.3448c-.012-.003-.023-.0091-.033-.0178-.009-.0086-.016-.0195-.02-.0316-.004-.0099-.006-.0206-.006-.0313s.002-.0213.006-.0311c.004-.0099.01-.0188.018-.0263s.017-.0134.027-.0174c.178-.0843.38-.1067.572-.0638.193.0429.366.1487.492.3007.015.0157.023.0365.023.0582 0 .0216-.008.0425-.023.0581-.016.014-.037.0218-.058.0218s-.042-.0078-.058-.0218c-.265-.1614-.576-.2309-.884-.1977-.018.0065-.038.0065-.056 0z" fill="#080435"/><path d="m194.069 46.2489c.008.1963-.103.3591-.245.3634-.142.0044-.263-.1453-.27-.3474s.104-.3591.247-.3634c.142-.0044.263.1511.268.3474z" fill="#080435"/><path d="m190.485 45.7736c-.018.0053-.038.0037-.056-.0043-.017-.008-.031-.022-.039-.0394-.009-.0175-.01-.0373-.005-.0559s.016-.0348.032-.0458c.133-.1461.311-.2439.505-.2778.195-.034.395-.0022.57.0903.019.0095.034.026.042.0462.008.0203.008.0427 0 .0628-.01.0189-.027.0335-.047.0412s-.042.0081-.062.001c-.307-.0492-.621.005-.893.1541-.012.0148-.028.0247-.047.0276z" fill="#080435"/><path d="m191.431 46.3623c.08.1788.04.3707-.09.4361-.131.0654-.3-.0393-.381-.2195-.081-.1803-.041-.3707.09-.4361.131-.0655.301.0406.381.2195z" fill="#080435"/><path d="m187.568 57.497-1.658 3.0985.151.081 1.658-3.0985z" fill="#131f2d"/><path d="m145.097 48.4718h-.016c-.359-.0014-.713-.083-1.037-.2389s-.608-.3822-.833-.6624c-3.033-3.723-10.04-13.0676-9.601-19.4058.222-3.2578 1.161-6.0112 2.718-7.9621 1.717-2.1544 4.123-3.3436 7.154-3.5195 1.653-.1137 3.313.1157 4.873.6738 1.561.5581 2.99 1.4329 4.197 2.5695 2.514 2.371 4.014 5.8018 4.014 9.1803 0 2.6574-1.21 6.0475-3.596 10.0758-1.981 3.3436-4.357 6.4167-5.997 8.4084-.228.276-.515.4982-.839.6505-.325.1523-.679.2309-1.037.2304zm-1.597-31.5677c-2.966.1773-5.32 1.333-6.996 3.4351-1.526 1.9161-2.45 4.6287-2.671 7.8415-.436 6.2583 6.535 15.5549 9.553 19.2517.206.2542.466.4595.761.6011.295.1415.618.2158.945.2175.327.0016.651-.0694.947-.2079.297-.1385.559-.3411.767-.5933 2.87-3.4773 9.543-12.2273 9.543-18.3431 0-3.3189-1.474-6.6872-3.944-9.0131-1.186-1.1158-2.588-1.9745-4.121-2.5223-1.532-.5478-3.161-.773-4.784-.6614zm1.372 18.6455c-.193 0-.389 0-.59-.0116-1.792-.0727-3.421-.7487-4.586-1.903-.593-.5991-1.06-1.3107-1.375-2.093s-.47-1.6197-.458-2.4629c0-4.1868 2.102-6.4124 6.817-7.2164 1.611-.2747 3.021.0466 4.189.9581 1.554 1.2109 2.601 3.4729 2.803 6.0475.159 2.0643-.324 3.6953-1.438 4.8496-1.166 1.2008-3.012 1.8317-5.366 1.8317zm.886-13.5604c-.349.0006-.697.0308-1.04.0901-5.885 1.0046-6.633 4.2624-6.633 6.9998-.012.814.138 1.6224.441 2.3778.304.7553.755 1.4425 1.327 2.0212 1.125 1.115 2.703 1.7677 4.441 1.8389 2.572.109 4.57-.4972 5.782-1.7532 1.068-1.1063 1.532-2.6807 1.378-4.6781-.198-2.5149-1.214-4.7159-2.719-5.8905-.849-.667-1.902-1.0221-2.981-1.006z" fill="#131f2d"/><path d="m149.813 119.607-53.3352 1.483c-.2606.007-.5201-.038-.7629-.133-.2429-.095-.4643-.238-.6511-.42-.1869-.182-.3354-.399-.4367-.64-.1014-.24-.1536-.498-.1535-.759v-5.026c0-.256.0505-.51.1485-.747s.2417-.452.4228-.633c.1811-.182.3961-.326.6327-.424.2367-.098.4903-.148.7464-.148h53.335c.256 0 .51.05.746.148.237.098.452.242.633.424.181.181.325.396.423.633s.148.491.148.747v3.544c0 .509-.198.997-.552 1.361s-.837.576-1.344.59z" fill="url(#R)"/><path d="m149.226 116.327c0 .279-.111.546-.308.743s-.464.308-.742.308h-50.3709c-.2785 0-.5455-.11-.7424-.307s-.3076-.465-.3076-.744c0-.278.1107-.546.3076-.743s.4639-.308.7424-.308h50.3709c.278.002.544.113.741.309.197.197.308.464.309.742z" fill="url(#S)"/><path d="m149.226 116.327c0 .279-.111.546-.308.743s-.464.308-.742.308h-17.847l-2.199-2.102h20.042c.278 0 .546.111.744.308.197.197.309.464.31.743z" fill="url(#T)"/><path d="m43.3316 125.425c.1328.098.2988.139.462.115.1631-.024.3103-.111.4094-.243.098-.133.1394-.299.1152-.463-.0243-.163-.1121-.31-.2445-.409l-5.083-3.78c-.1417-.105-.3196-.15-.4944-.125-.1748.026-.3323.12-.4379.262-.0462.061-.0798.131-.0988.206-.019.074-.023.152-.0117.228.0112.076.0374.149.077.215.0397.066.092.124.154.169z" fill="#131f2d"/><path d="m46.0823 116.522s-2.3077 4.296-1.6861 5.67c.6215 1.374 3.2095 4.521 1.2039 4.457-1.1502-.036-3.7948-3.185-4.6357-3.972-.8408-.786-1.9722-1.163-2.0709-2.308-.109-1.265 5.3008-5.872 5.3008-5.872.3205.423.682.812 1.079 1.163.9629.858.809.862.809.862z" fill="url(#U)"/><path d="m64.5451 94.376c-.4677 3.4221 2.2931 2.8784-3.2415 9.417-4.9639 5.863-10.4971 11.243-13.9651 13.026-1.7253.886-3.9589-1.996-4.338-3.271-1.0674-3.594 3.6583-8.382 7.3253-14.7192 3.1703-5.4747 6.0996-7.6684 6.0996-7.6684z" fill="url(#V)"/><path d="m70.6345 82.8263c-14.8408-1.3244-18.6879-3.0645-19.9368-8.7689-1.615-7.3835-.1453-12.6475-.0741-12.912 0 0 .6187-.7662 4.4309-.0698 3.3969.6207 3.5915 1.4246 3.5915 1.4246-.0131.0495-.3065 2.4394.9744 7.9432 1.6353 7.0273 6.65 7.0535 14.7973 7.4257 0 0-1.5714 5.1549-3.7832 4.9572z" fill="#f4caab"/><path d="m50.4259 126.386c-.0486 0-.0972-.004-.1452-.012l-23.6504-3.906c-.1395-.023-.2709-.082-.3819-.17-.111-.087-.198-.202-.2529-.333-.0549-.13-.076-.272-.0612-.413.0147-.141.0648-.276.1456-.392l12.5869-17.848c.1287-.182.3244-.306.5442-.344s.4456.013.6278.142.3058.325.3436.545c.0379.22-.0131.446-.1417.628l-11.8143 16.75 22.3273 3.687c.2077.035.3947.146.5241.313.1294.166.1918.375.1748.585s-.1121.406-.2665.549c-.1544.144-.3569.224-.5675.225z" fill="#364154"/><g fill="#131f2d"><path d="m25.3553 137.878c-5.0075 0-9.4994-1.834-12.3255-5.029-2.5037-2.832-3.56536-6.481-3.06723-10.55.67093-5.483 2.46883-9.501 5.48233-12.285 2.7114-2.5 6.4104-3.977 11.3089-4.515 4.2015-.461 7.9875.7 10.956 3.361 3.7527 3.368 5.9935 8.923 5.9935 14.858 0 4.396-1.9983 8.083-5.78 10.662-3.3083 2.256-7.7726 3.498-12.568 3.498zm-14.6971-15.493.6942.085c-.4473 3.659.4952 6.927 2.7259 9.449 2.5604 2.896 6.6703 4.556 11.277 4.556 8.1618 0 16.948-3.992 16.948-12.758 0-5.462-2.1188-10.758-5.5288-13.811-2.6983-2.422-6.0182-3.435-9.8755-3.012-9.5676 1.051-14.3644 5.856-15.5539 15.577z"/><path d="m22.3492 121.843c.3703-3.021 2.0027-4.177 4.4396-4.444 2.9278-.321 4.4411 2.356 4.4411 4.81s-2.3934 3.696-4.8448 3.696c-2.4515 0-4.3365-1.626-4.0359-4.062z"/><path d="m14.4549 112.093-.0821.113 12.3222 8.985.082-.113z"/><path d="m26.8772 121.732-.1176-.026-15.3419-3.277.0291-.136 15.2242 3.252-4.4193-13.899.1336-.042z"/><path d="m26.5142 121.366 8.307-13.014.1176.074-7.9759 12.497 12.3618-7.66.0741.118z"/><path d="m26.6885 121.729 2.633-15.615.1379.023-2.5981 15.409 15.3927-3.557.0319.137z"/><path d="m40.0234 131.158-13.5178-9.625 16.5066 2.115-.0174.138-15.9518-2.043 13.0618 9.3z"/><path d="m25.4251 137.183-.138-.012 1.4421-15.802 6.3857 14.002-.1278.058-6.1664-13.522z"/><path d="m19.1643 135.155-.122-.069 7.5257-13.226-13.9608 9.3-.0784-.116 14.4531-9.628z"/><path d="m26.7774 121.544-16.222 2.167.0185.138 16.2219-2.167z"/></g><path d="m24.6131 121.738c.1801-1.475.9774-2.035 2.1683-2.17 1.4305-.157 2.1682 1.15 2.1682 2.349s-1.1618 1.806-2.3657 1.806c-1.204 0-2.1174-.794-1.9708-1.985z" fill="url(#W)"/><path d="m77.8391 137.878c-5.006 0-9.4993-1.834-12.3254-5.029-2.5038-2.832-3.5639-6.481-3.0672-10.55.6709-5.483 2.4688-9.501 5.4823-12.285 2.7114-2.5 6.4104-3.977 11.3089-4.515 4.2029-.461 7.9875.7 10.956 3.361 3.7527 3.368 5.9935 8.923 5.9935 14.858 0 4.396-1.9983 8.083-5.78 10.662-3.3083 2.256-7.7712 3.498-12.5681 3.498zm-14.6912-15.493.6942.085c-.4473 3.659.4952 6.927 2.7274 9.449 2.5603 2.896 6.6703 4.556 11.2754 4.556 8.1633 0 16.9481-3.992 16.9481-12.758 0-5.462-2.1188-10.758-5.5288-13.811-2.6983-2.422-6.0182-3.435-9.8682-3.012-9.5676 1.051-14.3645 5.856-15.5539 15.577z" fill="#131f2d"/><path d="m74.833 121.843c.3704-3.021 2.0027-4.177 4.4411-4.444 2.9264-.321 4.4397 2.356 4.4397 4.81s-2.3934 3.696-4.8449 3.696c-2.4514 0-4.3336-1.626-4.0359-4.062z" fill="#131f2d"/><path d="m66.9368 112.093-.0821.113 12.3222 8.985.0821-.113z" fill="#131f2d"/><path d="m79.3625 121.732-.119-.026-15.3419-3.277.0291-.136 15.2242 3.252-4.4179-13.899.1322-.042z" fill="#131f2d"/><path d="m78.998 121.366 8.3071-13.014.1176.074-7.9745 12.497 12.3604-7.66.074.118z" fill="#131f2d"/><path d="m79.1724 121.729 2.6329-15.615.138.023-2.5981 15.409 15.3927-3.557.0319.137z" fill="#131f2d"/><path d="m92.5088 131.158-13.5178-9.625 16.5066 2.115-.0189.138-15.9518-2.043 13.0617 9.3z" fill="#131f2d"/><path d="m77.9104 137.183-.1394-.012 1.4421-15.802 6.3857 14.002-.1278.058-6.1664-13.522z" fill="#131f2d"/><path d="m71.6482 135.155-.122-.069 7.5257-13.226-13.9608 9.3-.0769-.116 14.4516-9.628z" fill="#131f2d"/><path d="m79.2605 121.539-16.2219 2.166.0184.139 16.222-2.167z" fill="#131f2d"/><path d="m77.0972 121.738c.1801-1.475.9773-2.035 2.1682-2.17 1.4305-.157 2.1697 1.15 2.1697 2.349s-1.169 1.806-2.3672 1.806c-1.1981 0-2.116-.794-1.9707-1.985z" fill="url(#X)"/><path d="m79.2565 122.548c-.3076 0-.6066-.102-.8507-.289-.2441-.188-.4198-.45-.4999-.748l-9.5299-35.2482c-.0545-.1797-.0723-.3686-.0525-.5554.0199-.1868.0771-.3677.1682-.5319.091-.1642.2142-.3084.362-.4241.1479-.1156.3175-.2003.4987-.2491.1812-.0487.3704-.0605.5563-.0346.1858.0259.3646.0889.5256.1854.1611.0964.3011.2242.4118.3759s.1898.3241.2326.5069l9.5343 35.2491c.0559.208.0632.426.0214.637-.0417.211-.1315.41-.2624.581-.1308.171-.2992.31-.4921.405-.193.096-.4053.146-.6205.146z" fill="#364154"/><path d="m50.1356 125.124c-.2516.001-.4989-.066-.7157-.194-.2167-.128-.3949-.312-.5158-.533l-16.161-29.8203c-.0877-.1623-.1426-.3403-.1616-.5238-.0191-.1835-.0018-.369.0508-.5458.1062-.3572.3498-.6575.6772-.8348.3274-.1774.7118-.2173 1.0686-.111.3568.1064.6567.3502.8339.6779l16.1595 29.8208c.1158.213.1742.453.1694.696-.0047.243-.0724.48-.1965.689-.124.208-.3001.381-.511.501s-.4493.184-.692.184z" fill="#364154"/><path d="m45.0395 123.586c-.0508-4.321 2.6969-4.832 5.3618-4.832 1.2803 0 2.5082.509 3.4135 1.415s1.4139 2.135 1.4139 3.417c0 1.281-.5086 2.511-1.4139 3.417s-2.1332 1.415-3.4135 1.415c-2.6649 0-5.3255-1.914-5.3618-4.832z" fill="#131f2d"/><path d="m51.4412 131.102.4197-.133-1.0166-5.527-.4183.133z" fill="#131f2d"/><path d="m55.0848 132.265c.0794.021.1621.026.2434.015.0814-.011.1598-.038.2307-.079.071-.042.1331-.096.1828-.162.0497-.065.0861-.14.107-.219.0211-.08.0263-.162.0153-.244-.0109-.081-.0378-.16-.0791-.231s-.0961-.133-.1614-.183c-.0653-.049-.1398-.086-.2191-.107l-6.1199-1.625c-.1709-.045-.3526-.021-.5054.068s-.264.235-.3094.406c-.0201.074-.0253.152-.0153.228.0101.076.0351.15.0737.216.0387.067.0901.125.1514.171.0613.047.1311.081.2056.1z" fill="#131f2d"/><path d="m47.2339 118.414c-.2843 0-.562-.086-.7961-.248-.2342-.161-.4136-.39-.5145-.656s-.1185-.557-.0504-.833c.0681-.277.2186-.526.4316-.714l17.4273-15.472-20.1184 9.677c-.3335.151-.713.166-1.0573.041-.3442-.125-.6257-.38-.7844-.711-.1587-.33-.1819-.71-.0646-1.057s.3658-.635.6922-.801l29.1516-14.0211c.3045-.1472.6518-.179.9779-.0898.3261.0893.609.2937.7963.5755.1872.2817.2664.6218.2227.9574-.0437.3355-.2072.644-.4604.8683l-24.9211 22.1297c-.2569.229-.5888.355-.9324.354z" fill="#364154"/><path d="m43.7282 95.9504c-2.2673-.8912-4.6802-1.3536-7.1161-1.3636-3.9836 0-8.0689-1.2734-7.854.6746.337 3.0528 5.4257 1.4784 7.2324 3.329 2.1566 2.2006 9.9553.2108 7.7377-2.64z" fill="#131f2d"/><path d="m55.6527 125.358s-.6245 2.143.6216 3.198c1.246 1.056 5.2383 2.931 3.2458 3.8-1.1429.5-5.1904-1.352-6.3784-1.731-1.188-.38-2.4689-.218-3.0977-1.297-.6913-1.186 1.6701-5.233 1.6701-5.233s.854.862 1.7834 1.132c1.3405.394 2.1552.131 2.1552.131z" fill="url(#Y)"/><path d="m58.2929 125.704c6.7182-13.956 13.4045-26.9696 8.4668-33.0651-3.1718-3.9164-7.6738-6.6872-13.3813-8.2456-4.0664-1.1106-8.7935-1.5991-14.0305-1.4537-8.5379.2355-12.4445-.4623-12.4445-.4623-5.4141 17.5897 19.4285 11.8086 26.6013 18.4837 3.1253 2.908-3.8383 9.014-3.3707 23.378.0799 2.455 7.0334 3.703 8.1589 1.365z" fill="url(#Z)"/><path d="m61.6666 62.7414s-1.2692-5.7902-7.9323-8.3895h-.0087c-1.1894-.6004-2.3106-1.2662-3.5915-1.5395-27.5367-5.889-27.6035 36.8783-23.996 37.6996 17.9313 4.0705 35.2497-5.6448 33.3574-10.0511-2.2162-8.577-2.4006-10.9437-1.1357-13.6534.411-.8824 1.307-1.0031 2.4398-2.2751.4401-.5111.739-1.1285.867-1.791z" fill="#364154"/><path d="m44.2684 62.1891c-.1074.7748-2.6417 1.0627-5.6639.644-3.0221-.4187-5.3734-1.3854-5.2717-2.1588.1016-.7734 2.6402-1.0627 5.6639-.644 3.0236.4187 5.3821 1.3854 5.2717 2.1588z" fill="#131f2d"/><path d="m57.6207 85.8689c-14.8408-1.3258-21.7028-6.1056-22.946-11.8115-1.6149-7.3835-.1452-12.6475-.074-12.912 0 0 .6201-.7662 4.4308-.0698 3.3969.6207 3.5915 1.4246 3.5915 1.4246-.013.0495-.3064 2.4394.9745 7.9432 1.6367 7.0273 10.2241 8.1772 18.2697 9.5379-.0058.0029-2.0332 6.0853-4.2465 5.8876z" fill="#f4caab"/><path d="m44.2685 62.24h-.0117c-.0128-.0034-.0239-.0116-.031-.023-.007-.0113-.0094-.0249-.0067-.038 0-.0247.5809-2.4888.2904-4.2653-.0012-.0065-.0012-.0131.0002-.0196s.0041-.0126.0079-.018c.0038-.0055.0086-.0101.0142-.0136s.0119-.0058.0184-.0069c.0133-.0021.0269.0012.0377.0091.0109.0079.0182.0198.0204.0331.2991 1.7953-.2789 4.2797-.2905 4.3044-.0029.0109-.0093.0205-.0182.0274-.009.0068-.0199.0105-.0311.0104z" fill="#131f2d"/><path d="m38.9139 79.4986c-.1839-.012-.3597-.0799-.5039-.1948-.5728-.4563-.9517-1.1129-1.0602-1.8375-.0319-.3416.0537-.5815.244-.6978.3689-.2137.9977.2064 1.429.9551.4357.7501.4822 1.5046.1119 1.7183-.0673.0382-.1435.0577-.2208.0567zm-1.1008-2.5804c-.0406-.0009-.0808.0091-.1162.0291-.1147.0654-.1656.2471-.1452.4986.1031.665.4506 1.2674.9744 1.6893.2063.1453.3893.1933.5025.1279.2281-.1308.2077-.753-.1859-1.4363-.334-.5829-.7682-.9086-1.0296-.9086z" fill="#efbc90"/><path d="m71.5319 87.1599s3.0367-1.4538 2.7244-2.5702c-.3122-1.1165-.0944-1.9786-.5722-2.0454-.4778-.0669-6.2782 1.3592-6.2782 1.3592l-7.7682 1.7765.0886 2.7824 8.9417-2.5062 1.0572 1.2298z" fill="#131f2d"/><path d="m73.9326 84.9035 6.3914-2.3158-.8423-1.8389-6.7966 2.4902z" fill="#131f2d"/><path d="m78.2734 82.2592c-.3152-1.1295.2425-2.2722 1.2431-2.5542s2.0739.4071 2.389 1.5351c.3151 1.1281-.2396 2.2737-1.2446 2.5557s-2.0709-.407-2.3875-1.5366z" fill="#131f2d"/><path d="m55.6512 88.2211c-.3151-1.1281.4763-2.3391 1.7703-2.7011 1.294-.3619 2.5982.2603 2.9133 1.3883.3151 1.1281-.4749 2.3405-1.7689 2.7025s-2.5981-.2587-2.9147-1.3897z" fill="#131f2d"/><path d="m61.8409 79.4319s4.155.1454 5.706 2.025c1.551 1.8797 2.1189 5.4471.9091 4.4891-.6915-.5354-1.3067-1.1629-1.8284-1.8651 0 0 1.8255 2.9074.7261 3.0993-1.0993.1919-2.4805-1.7241-2.4805-1.7241s1.8401 3.2971.7436 3.1459-2.5255-2.6458-2.5255-2.6458 1.7166 3.3552.4473 3.1488c-1.2693-.2065-1.7776-3.6053-2.8741-3.4105-1.0964.1948-5.5186.599-6.435-2.3884z" fill="#f4caab"/><path d="m65.9611 83.3744c0-.0116-.5199-1.1005-1.2155-1.2124l.029-.1774c.7901.1279 1.3274 1.2648 1.3492 1.3084z" fill="#efbc90"/><path d="m64.1107 84.2176c0-.0102-.4923-1.0889-1.4798-1.4538l.0624-.1686c1.0602.3983 1.5612 1.5075 1.5815 1.5555z" fill="#efbc90"/><path d="m62.5512 85.0011c0-.013-.6143-1.3083-1.3637-1.365l.0145-.1788c.8525.0654 1.4857 1.4101 1.5118 1.4682z" fill="#efbc90"/><path d="m74.4176 77.8691s3.6089.1294 4.9566 1.759c1.3477 1.6297 1.84 4.7319.79 3.8989-1.05-.8329-2.0985-2.2678-2.0985-2.2678s2.0956 3.1706 1.1429 3.3436-2.7492-2.6051-2.7492-2.6051 2.193 3.9716 1.2403 3.8393-2.5952-3.1604-2.5952-3.1604 1.8879 3.7797.79 3.598-1.5437-3.1313-2.4964-2.9627-3.7164-.0305-4.5021-2.6167z" fill="#f4caab"/><path d="m77.9945 81.2925c0-.0087-.4502-.9551-1.0558-1.0525l.0262-.1541c.6854.1105 1.1516 1.099 1.1719 1.1412z" fill="#efbc90"/><path d="m76.3883 82.0195c0-.0088-.4357-.9464-1.2867-1.2677l.0551-.1454c.9208.346 1.3565 1.3084 1.3739 1.352z" fill="#efbc90"/><path d="m75.0335 82.7056c0-.0117-.5345-1.1354-1.1851-1.1848l.0116-.1556c.7421.0567 1.2911 1.2255 1.3071 1.275z" fill="#efbc90"/><path d="m50.0543 51.27 1.0166-2.2532.2904-.6557 1.7297-3.8567-.3224 4.0065-.1946 2.4059-.0625.7617c-.0456.5718.0961 1.1429.4038 1.6268.1321.1991 1.1618.9493-.0146 1.3083-1.4726.4463-3.9705-.8082-4.8128-2.1558.0058 0 1.6396-.4594 1.9664-1.1878z" fill="#f4caab"/><path d="m56.4674 43.3894c.0643.7376-.0267 1.4805-.2672 2.1806-.4009 1.1862-1.2722-1.9553-1.2722-1.9553z" fill="#131f2d"/><path d="m56.3034 45.9451c-.0218-2.39-1.644-4.3133-3.6235-4.2958-1.9794.0174-3.5682 1.9698-3.5479 4.3612.0204 2.3914 1.644 4.3132 3.6307 4.2957 1.9867-.0174 3.5595-1.9712 3.5407-4.3611z" fill="#f4caab"/><path d="m49.1945 44.7689 1.7427.032c.1896.0043.3777-.034.5506-.1119.1729-.078.3262-.1937.4486-.3387.4197-.5103.8801-.7429 2.479-.4856 2.026.3257 3.5175-.7268 3.8675-1.7634.35-1.0365-.594-1.9247-1.6789-1.5322-1.0848.3925-.4923-.8242-1.4523-1.0786-1.8066-.4783-2.3236.8969-3.8209.6672-1.9649-.3009-5.6799.7661-4.428 4.4455z" fill="#131f2d"/><path d="m52.9269 45.8216c.0137-.0066.025-.0172.0323-.0305s.0103-.0285.0086-.0436c-.0018-.015-.0082-.0292-.0184-.0404s-.0236-.019-.0384-.0222c-.1684-.0458-.3473-.034-.5083.0334-.1609.0674-.2949.1866-.3805.3388-.0105.016-.0143.0355-.0105.0543s.0149.0353.0308.046c.0164.0089.0355.0117.0538.008.0183-.0038.0347-.0138.0464-.0284.2052-.1825.4653-.2914.7392-.3096.0153.0025.0309.0005.045-.0058z" fill="#080435"/><path d="m52.5014 46.7084c.0246.1715.1452.2907.2701.2776s.2062-.1715.1815-.3431c-.0247-.1715-.1452-.2907-.2715-.2791-.1264.0116-.2048.173-.1801.3446z" fill="#080435"/><path d="m55.6223 45.932c.0093-.0008.0182-.0041.0258-.0095.0076-.0053.0138-.0126.0178-.021.0084-.0165.0115-.0352.0086-.0535s-.0115-.0352-.0246-.0483c-.0478-.0511-.1056-.0919-.1698-.1197-.0642-.0279-.1335-.0423-.2034-.0423-.07 0-.1393.0144-.2035.0423-.0642.0278-.122.0686-.1698.1197-.0123.0133-.0202.0301-.0225.0481-.0024.018.0009.0362.0094.0522.0035.0069.0083.013.0143.0178.006.0049.0129.0084.0203.0103.0075.0019.0152.0022.0228.0009.0075-.0013.0147-.0043.0211-.0086.0974-.0432.2028-.0655.3093-.0655.1066 0 .2119.0223.3093.0655.0097.0082.0222.0124.0349.0116z" fill="#080435"/><path d="m54.8699 46.592c-.0266.0672-.0264.1422.0006.2093.0271.0671.0788.1212.1446.1512.1235.0305.2556-.0814.2905-.25.0266-.0673.0263-.1423-.0007-.2094s-.0788-.1212-.1446-.1512c-.1103-.0305-.2439.0814-.2904.2501z" fill="#080435"/><path d="m46.8984 44.6033s.8714 2.7155 2.5401 3.111c0 0-1.1255-2.1254 1.8952-2.9686 0 0-2.5894-.7385-4.4353-.1424z" fill="#131f2d"/><path d="m49.1031 46.3128c.1135.0738.246.1131.3813.1132.1354.0001.2679-.039.3816-.1126.1136-.0735.2036-.1785.259-.3021.0554-.1237.0739-.2607.0532-.3946-.0206-.1339-.0796-.259-.1697-.3601-.0901-.1012-.2075-.1741-.338-.2099-.1306-.0358-.2687-.0331-.3977.0079s-.2435.1185-.3295.2232c-.1153.1586-.1633.3565-.1333.5505.0299.1939.1353.3681.2931.4845z" fill="#f4caab"/><path d="m51.3336 44.7459s-.4937 2.1297-.1045 2.5906c.3892.4608 3.2632.9914 4.6778.6338-.0668.6737-.372 1.3013-.8604 1.7697-.4883.4683-1.1278.7466-1.8031.7845-.4674.0206-.9349-.0384-1.3826-.1744-.9251-.2806-1.7965-.7851-2.0797-1.7111-.0871-.282.459-1.8898.459-1.8898s.2483-.9493-.2513-1.5206c0 .0116.7189-.4972 1.3448-.4827z" fill="#131f2d"/><path d="m55.0994 48.6606c-.7818.0917-1.5732.0573-2.344-.1018 0 0 .0406 1.1456 1.294 1.0729.729-.0436 1.05-.9711 1.05-.9711z" fill="#fff"/><path d="m56.4371 40.376c-.5635-.0509-.5548-.535-.5548-.5393h.0973c0 .016 0 .3968.4662.4361z" fill="#131f2d"/><path d="m55.0632 43.3649v-.048c.0218 0 2.2656-.3823 2.4921-1.4872.0639-.3125.0364-.5277-.0827-.66-.1917-.2107-.594-.1671-.9484-.1293l-.1597.0159v-.0479l.1583-.016c.3659-.0393.7813-.0843.9904.1454.1307.1453.1612.3736.0944.7021-.0973.4725-.5664.8853-1.3579 1.1964-.3844.1461-.7816.2561-1.1865.3286z" fill="#fff"/><path d="m51.5966 40.6128c-.3923-.0024-.7828-.0552-1.1618-.157l.0116-.048c2.0797.5452 3.243-.519 3.2546-.5306l.0334.0363c-.0131.0088-.7654.6993-2.1378.6993z" fill="#fff"/><path d="m67.9769 82.2505c-1.2548-2.2591-8.6455-2.6022-8.7137-2.6051l.0087-.2064c1.3179.0729 2.6302.2248 3.9299.455 2.7375.5001 4.4076 1.2589 4.961 2.2562z" fill="#efbc90"/><path d="m119.955 97.2837c-.217.0001-.428-.0708-.601-.202-.172-.1311-.298-.3154-.356-.5245-.059-.2091-.047-.4317.033-.6336s.223-.3722.409-.4847c.017-.0102 1.95-1.211 4.163-3.9745 2.034-2.5499 4.745-6.9939 6.041-13.6854.871-4.4964-.131-9.5205-2.976-14.9327-2.344-4.4586-5.337-7.9955-6.913-9.7197-.226-.2461-.394-.5391-.494-.858s-.128-.6559-.082-.9869c.045-.3311.163-.6479.345-.9281.182-.2801.424-.5167.707-.6927l12.679-7.8603c.224-.139.494-.1832.75-.1229.257.0602.479.22.618.4442s.183.4944.123.7513c-.061.2568-.22.4791-.444.6181l-12.68 7.8603c-.036.0218-.066.0513-.088.0862-.023.035-.037.0746-.043.1159-.006.0407-.003.0824.009.1217.013.0394.034.0753.062.1051 1.641 1.7881 4.761 5.482 7.209 10.1397 3.06 5.815 4.126 11.2853 3.168 16.2367-1.383 7.1451-4.303 11.9046-6.511 14.6376-2.422 3.002-4.526 4.2929-4.615 4.3467-.155.0935-.332.1428-.513.1425z" fill="url(#aa)"/><path d="m133.334 44.7778c1.119 0 2.026-.9079 2.026-2.0279s-.907-2.028-2.026-2.028-2.026.908-2.026 2.028.907 2.0279 2.026 2.0279z" fill="#131f2d"/><path d="m141.453 17.1976c-6.269.375-9.339 5.104-9.769 11.3798-.436 6.2103 6.269 15.2641 9.576 19.3346.217.2668.49.4823.799.6309.31.1486.649.2265.992.2284.344.0018.683-.0727.995-.218.311-.1453.586-.3579.806-.6224 3.208-3.8873 9.569-12.3567 9.569-18.4144 0-6.2903-5.182-12.7856-12.968-12.3189zm.795 18.6324c-3.619-.1454-6.315-2.7257-6.315-6.3484s1.527-6.2191 6.726-7.1073c4.451-.7588 6.58 3.2941 6.863 6.9067.339 4.3815-2.312 6.7598-7.274 6.549z" fill="url(#ab)"/><path d="m125.348 141.749h-68.7744c-.161 0-.3154-.064-.4293-.178-.1138-.114-.1777-.269-.1777-.43s.0639-.316.1777-.43c.1139-.114.2683-.178.4293-.178h68.7744c1.108.004 2.206-.212 3.231-.637 1.024-.424 1.954-1.047 2.736-1.834l3.172-3.173c.578-.583 1.267-1.045 2.025-1.359s1.571-.475 2.391-.473h37.624c.08 0 .159.016.233.046.073.031.14.075.197.132.056.056.101.123.131.197.031.074.046.153.046.233 0 .079-.015.158-.046.232-.03.074-.075.141-.131.197-.057.057-.124.101-.197.132-.074.031-.153.046-.233.046h-37.624c-.661-.002-1.316.128-1.926.381-.611.253-1.166.626-1.632 1.095l-3.172 3.175c-.894.899-1.958 1.612-3.13 2.097-1.171.485-2.427.733-3.695.729z" fill="url(#ac)"/><path d="m55.8706 143.316c5.5174 0 9.9902-.974 9.9902-2.175s-4.4728-2.175-9.9902-2.175c-5.5175 0-9.9902.974-9.9902 2.175s4.4727 2.175 9.9902 2.175z" fill="url(#ad)"/><path d="m176.527 135.134c3.736 0 6.765-.659 6.765-1.472 0-.814-3.029-1.473-6.765-1.473s-6.764.659-6.764 1.473c0 .813 3.028 1.472 6.764 1.472z" fill="url(#ae)"/><path d="m115.874 96.231 6.261-2.7243c.126-.0546.265-.0706.4-.046.135.0247.26.0889.358.1845s.166.2183.195.3525c.029.1343.017.2741-.034.4016l-2.778 6.9777c-.025.054-.065.098-.116.128s-.109.044-.168.04c-.059-.005-.115-.027-.161-.064-.046-.036-.08-.087-.097-.143l-.329-2.9802c-.17-.7137-.259-.9129-.96-1.1295l-2.54-.4609c-.054-.0189-.102-.0535-.137-.0994-.034-.046-.054-.1011-.058-.1586-.003-.0574.011-.1145.04-.1641.029-.0495.073-.0893.124-.1143z" fill="#131f2d"/><path d="m121.02 16.7223c0-9.89846-8.791-16.71790547-18.589-16.71790547-14.1819 0-19.0528 8.02458547-19.0528 17.92300547 0 9.8985 11.2392 16.9069 21.0318 16.9069 9.793 0 16.61-8.2136 16.61-18.112z" fill="url(#af)"/><path d="m124.119 32.6086s-6.198-.9668-6.641-7.196l-4.871 3.598s2.325 5.7248 11.512 3.598z" fill="url(#ag)"/><path d="m104.696 36.9202c-4.897 0-10.221-1.7793-14.2438-4.7609-4.4382-3.2898-6.8824-7.6365-6.8824-12.2419 0-5.4064 1.4247-9.6905 4.2334-12.73755 3.2313-3.50349 8.2489-5.27995 14.9148-5.27995 4.897 0 9.523 1.66016 13.026 4.67229 3.643 3.1357 5.652 7.44891 5.652 12.14441 0 3.9687-1.078 7.7048-3.115 10.8173 1.469 4.1998 6.086 4.9688 6.134 4.9761l.484.0756-.478.1104c-2.797.6469-6.731.9464-9.643-1.2792-2.842 2.2925-6.328 3.5034-10.082 3.5034zm-1.978-34.82986c-6.6107 0-11.5818 1.75611-14.7754 5.21889-2.7753 3.00917-4.1826 7.25117-4.1826 12.60817 0 4.5429 2.4167 8.8372 6.8054 12.0892 3.9909 2.9584 9.2728 4.7232 14.1306 4.7232 3.737 0 7.202-1.2124 10.021-3.5078l.059-.048.06.0465c2.716 2.121 6.39 1.9567 9.122 1.384-1.209-.3068-4.648-1.477-5.872-5.0532l-.014-.0451.026-.0378c2.033-3.0848 3.108-6.8034 3.108-10.7576 0-4.6403-1.984-8.90116-5.586-12.00051-3.469-2.97724-8.051-4.61995-12.902-4.61995z" fill="#131f2d"/><path d="m102.987 17.3445h-.031c-.085-.0054-.166-.0381-.231-.0934-.065-.0552-.111-.1301-.13-.2134v-.0145l-.331-2.9816c-.159-.6702-.224-.8388-.872-1.0409l-2.5615-.4695c-.0783-.0243-.1472-.0719-.1976-.1366-.0504-.0646-.0798-.1432-.0842-.225-.0044-.0819.0163-.1632.0594-.2329s.1065-.1246.1817-.1571l6.2792-2.73302c.148-.06399.311-.08275.469-.05392s.304.10396.419.21587c.116.11192.195.25559.229.41283.034.15723.02.32096-.039.47044l-2.79 6.9954c-.027.0759-.078.1414-.144.1875s-.145.0704-.226.0698zm-.164-.3562c.008.0334.026.0633.052.0856.026.0222.059.0355.093.038.036.0035.072-.0051.102-.0243.031-.0192.054-.048.067-.0819l2.789-6.9953c.042-.10679.052-.22361.028-.33577-.025-.11216-.082-.21463-.164-.29452s-.186-.13362-.299-.15443-.229-.00776-.334.0375l-6.2815 2.73302c-.031.0138-.0571.0366-.0751.0654-.0179.0288-.0269.0623-.0256.0963.0012.0339.0126.0667.0326.0941.0201.0274.0478.0482.0797.0597l2.5559.4637c.771.2384.872.4986 1.041 1.2168v.0145z" fill="#131f2d"/><path d="m94.2368 20.0587v.1773c.0003.0226-.0047.0451-.0146.0654l-1.1966 2.4888c-.0128.0258-.0324.0474-.0568.0626-.0244.0151-.0525.0232-.0812.0232h-.2454c-.0267.0021-.0535-.0033-.0774-.0155-.0238-.0122-.0438-.0307-.0578-.0536-.014-.0228-.0214-.0491-.0214-.0759.0001-.0269.0075-.0531.0215-.076l1.1386-2.2736v-.0087h-1.2461c-.0385 0-.0754-.0154-.1027-.0426-.0272-.0273-.0425-.0643-.0425-.1028v-.1599c0-.0386.0153-.0756.0425-.1028.0273-.0273.0642-.0426.1027-.0426h1.6818c.0192-.0014.0384.0011.0567.0072.0182.0062.0351.0159.0495.0286.0145.0127.0263.0282.0347.0455s.0134.0361.0145.0554z" fill="#131f2d"/><path d="m95.6922 21.3118c0-.1875 0-.3533-.0117-.503-.0015-.0404.0128-.0798.04-.1097.0271-.0299.0649-.048.1053-.0502h.1786c.0391.0003.0766.0155.1049.0425.0284.027.0454.0638.0476.1029l.0159.1875h.0131c.0689-.1193.169-.2176.2895-.2842.1206-.0666.257-.099.3945-.0938.1324-.0038.2627.0336.373.107.1103.0735.1951.1793.2428.303h.0087c.0679-.1114.1597-.2062.2687-.2777.1342-.0913.2938-.1376.456-.1323.3645 0 .7378.2515.7378.9624v1.163c0 .0385-.0153.0755-.0426.1028-.0272.0272-.0641.0425-.1027.0425h-.2425c-.0385 0-.0755-.0153-.1027-.0425-.0272-.0273-.0425-.0643-.0425-.1028v-1.0743c0-.3707-.1278-.5888-.3965-.5888-.0872.0026-.1715.0318-.2416.0838s-.1227.1242-.1505.207c-.0194.0605-.0287.1239-.0276.1875v1.179c0 .0385-.0153.0755-.0425.1027-.0273.0273-.0642.0426-.1027.0426h-.2425c-.0197.001-.0394-.002-.0579-.0089-.0184-.0068-.0353-.0174-.0496-.031-.0142-.0136-.0256-.03-.0333-.0481-.0078-.0181-.0118-.0376-.0117-.0573v-1.134c0-.3111-.1235-.5291-.382-.5291-.0916.0048-.1796.0374-.2522.0935-.0727.0561-.1265.133-.1544.2205-.018.0609-.0273.124-.0276.1875v1.163c0 .0386-.0153.0755-.0425.1028-.0273.0273-.0642.0426-.1028.0426h-.241c-.0385 0-.0755-.0153-.1027-.0426s-.0425-.0642-.0425-.1028z" fill="#131f2d"/><path d="m100.155 20.0294c0 .0412-.008.082-.024.1199s-.04.0721-.07.1003c-.03.0283-.0656.05-.1044.0639s-.08.0196-.1211.0168c-.0398 0-.0793-.0079-.1161-.0231-.0369-.0153-.0703-.0377-.0985-.0659s-.0505-.0617-.0658-.0986c-.0153-.0368-.0231-.0763-.0231-.1162s.0078-.0795.0231-.1163c.0153-.0369.0376-.0704.0658-.0986s.0616-.0506.0985-.0658c.0368-.0153.0763-.0232.1161-.0232.0416-.0028.0833.0031.1225.0173s.075.0365.105.0654c.03.0288.054.0637.07.1023s.023.0801.022.1218zm-.5983 2.6894v-1.9175c-.0001-.0197.0039-.0392.0117-.0574.0077-.0181.0191-.0345.0333-.0481.0143-.0136.0312-.0241.0497-.031.0184-.0068.0381-.0099.0578-.0089h.257c.0197-.001.0398.0021.0578.0089.018.0069.035.0174.05.031.014.0136.025.03.033.0481.008.0182.012.0377.012.0574v1.9175c0 .0197-.004.0392-.012.0573-.008.0182-.019.0345-.033.0481-.015.0136-.032.0242-.05.031-.018.0069-.0381.0099-.0578.0089h-.257c-.0197.001-.0394-.002-.0578-.0089-.0185-.0068-.0354-.0174-.0497-.031-.0142-.0136-.0256-.0299-.0333-.0481-.0078-.0181-.0118-.0376-.0117-.0573z" fill="#131f2d"/><path d="m100.724 21.3117c0-.1875 0-.3532-.011-.503-.001-.0206.002-.0411.009-.0604.008-.0192.019-.0369.033-.0518s.031-.0268.05-.035.039-.0125.06-.0127h.189c.038 0 .075.0153.102.0426.028.0273.043.0643.043.1028l.016.1934h.015c.074-.1204.179-.2192.304-.2865.124-.0674.264-.1009.406-.0973.387 0 .788.2515.788.9536v1.163c0 .0386-.015.0755-.042.1028s-.064.0426-.103.0426h-.256c-.019.001-.039-.0021-.057-.0089-.019-.0069-.036-.0175-.05-.0311s-.026-.0299-.033-.048c-.008-.0182-.012-.0377-.012-.0574v-1.1034c0-.3198-.118-.5611-.424-.5611-.098.0027-.192.0357-.27.0946s-.136.1406-.166.2339c-.02.057-.029.1171-.027.1774v1.163c0 .0385-.016.0755-.043.1028-.027.0272-.064.0425-.103.0425h-.255c-.02.001-.04-.002-.058-.0089-.018-.0068-.035-.0174-.05-.031-.014-.0136-.025-.0299-.033-.0481-.008-.0181-.012-.0376-.012-.0573z" fill="#131f2d"/><path d="m105.319 22.2058c0 .1919 0 .3591.012.5074 0 .0204-.003.0408-.011.06-.007.0191-.018.0365-.032.0512-.014.0148-.031.0266-.05.0347s-.039.0123-.06.0125h-.188c-.039 0-.076-.0153-.103-.0426-.027-.0272-.043-.0642-.043-.1027l-.016-.1934h-.014c-.075.1213-.18.2206-.306.288-.125.0674-.266.1004-.409.0958-.402 0-.771-.2428-.771-.9682v-1.1528c0-.0386.015-.0755.043-.1028.027-.0273.064-.0426.102-.0426h.256c.038 0 .075.0153.103.0426.027.0273.042.0642.042.1028v1.0569c0 .3707.119.6076.416.6076.094.0013.187-.027.265-.081.078-.0539.138-.1307.17-.2199.024-.0551.034-.1146.032-.1744v-1.1892c0-.0197.004-.0392.012-.0574.008-.0181.019-.0344.033-.048s.031-.0242.05-.0311c.018-.0068.038-.0099.058-.0089h.255c.02-.001.04.0021.058.0089.019.0069.035.0175.05.0311.014.0136.025.0299.033.048.008.0182.012.0377.012.0574z" fill="#131f2d"/><path d="m106.571 20.2809v.2166c0 .0197.004.0393.012.0574s.019.0345.033.0481.031.0241.05.031c.018.0069.038.0099.058.0089h.228c.019-.001.039.002.057.0089.019.0069.036.0174.05.031s.026.03.033.0481c.008.0181.012.0377.012.0574v.1148c.001.0203-.002.0407-.009.0597-.008.0189-.019.0362-.033.0506-.015.0144-.032.0256-.051.0329s-.039.0105-.059.0095h-.236c-.019-.001-.039.002-.058.0089-.018.0068-.035.0174-.049.031s-.026.0299-.034.0481c-.007.0181-.011.0376-.011.0573v.8287c0 .2733.072.4114.29.4114h.066c.02-.0016.04.0009.059.0075s.036.017.051.0307.026.0302.034.0487c.008.0184.012.0383.012.0584v.1352c.001.0363-.011.0717-.034.0999s-.055.0474-.09.0542c-.092.0166-.186.0249-.279.0247-.089.0048-.178-.009-.261-.0406-.083-.0315-.158-.0801-.221-.1425-.124-.128-.179-.3329-.179-.6251v-.8926c0-.0386-.015-.0755-.043-.1028-.027-.0273-.064-.0426-.102-.0426h-.009c-.02.0011-.041-.0022-.06-.0095s-.036-.0185-.05-.0329c-.015-.0144-.026-.0316-.033-.0506s-.011-.0393-.009-.0596v-.1149c-.001-.0197.003-.0392.011-.0573.008-.0182.019-.0345.034-.0481.014-.0136.031-.0242.049-.031.019-.0069.038-.0099.058-.009h.009c.038 0 .075-.0153.102-.0425.028-.0273.043-.0643.043-.1028v-.1454c-.001-.0334.01-.0661.03-.0926.02-.0264.049-.0451.082-.0528l.247-.0683c.022-.0094.047-.0129.072-.0101.024.0029.048.0119.068.0263s.036.0337.046.0561c.011.0223.016.047.014.0716z" fill="#131f2d"/><path d="m108.077 21.9179c-.025-.0002-.05.0057-.072.0172s-.041.0281-.055.0486c-.014.0204-.024.044-.027.0688s0 .0499.009.0733c.096.2544.354.3678.645.3678.156.0015.311-.0171.463-.0553.02-.0051.04-.0062.061-.0032.02.003.039.0101.057.0208.017.0107.033.0248.044.0416.012.0167.021.0356.025.0557l.021.093c.008.0367.002.0752-.017.1079-.018.0327-.048.0575-.084.0695-.209.0642-.428.0956-.647.093-.727 0-1.145-.4361-1.145-1.1223 0-.6149.373-1.1949 1.085-1.1949s.957.5931.957 1.0815v.0916c-.002.0392-.019.0762-.047.1033s-.066.0421-.105.0421zm.623-.3925c.023-.0006.046-.0064.066-.017.021-.0105.039-.0256.053-.044s.023-.0398.028-.0624c.005-.0227.004-.0461-.002-.0685-.02-.1003-.074-.1903-.154-.2543s-.179-.098-.281-.096c-.103.0002-.204.033-.287.0935-.084.0605-.146.1458-.178.2437-.011.0232-.015.0487-.013.074.003.0253.012.0496.027.0703.014.0207.034.0373.057.0479.023.0107.049.0151.074.0128z" fill="#131f2d"/><path d="m109.779 22.5285c.005-.0215.014-.0416.028-.0589.013-.0173.031-.0313.05-.0409.02-.0097.042-.0147.064-.0148s.043.0048.063.0143c.13.0536.269.0832.41.0872.245 0 .354-.1047.354-.25 0-.1454-.09-.2239-.365-.3242-.435-.1454-.61-.3838-.61-.6484 0-.3925.323-.6934.838-.6934.158-.0008.314.0242.464.0741.036.0138.065.0406.082.075s.021.0741.011.1111l-.028.0916c-.006.0201-.015.039-.028.0553s-.03.0297-.048.0395c-.019.0098-.039.0157-.06.0174s-.042-.0009-.061-.0075c-.104-.0383-.213-.0585-.323-.0597-.2 0-.309.1004-.309.237 0 .1367.104.205.388.3111.405.1454.58.346.592.6745 0 .4071-.315.6978-.903.6978-.187.0018-.373-.0308-.548-.0959-.036-.0123-.066-.0384-.083-.0727s-.02-.074-.008-.1105z" fill="#131f2d"/></g></svg>