<svg fill="none" height="165" viewBox="0 0 162 165" width="162" xmlns="http://www.w3.org/2000/svg" xmlns:xlink="http://www.w3.org/1999/xlink"><linearGradient id="a" gradientUnits="userSpaceOnUse" x1="116.767" x2="49.258" y1="127.799" y2="70.7623"><stop offset="0" stop-color="#444b8c"/><stop offset="1" stop-color="#26264f"/></linearGradient><linearGradient id="b"><stop offset="0" stop-color="#067431"/><stop offset="1" stop-color="#2e9f5a"/></linearGradient><linearGradient id="c" gradientUnits="userSpaceOnUse" x1="43.0142" x2="132.904" xlink:href="#b" y1="13.1369" y2="85.521"/><linearGradient id="d"><stop offset="0" stop-color="#f8db8b"/><stop offset="1" stop-color="#68b790"/></linearGradient><linearGradient id="e" gradientUnits="userSpaceOnUse" x1="18.9854" x2="113.824" xlink:href="#d" y1="77.314" y2="81.6976"/><linearGradient id="f" gradientUnits="userSpaceOnUse" x1="109.689" x2="145.159" xlink:href="#b" y1="96.0218" y2="147.846"/><linearGradient id="g" gradientUnits="userSpaceOnUse" x1="115.029" x2="150.866" xlink:href="#b" y1="96.9845" y2="145.196"/><linearGradient id="h"><stop offset="0" stop-color="#aa80f9"/><stop offset="1" stop-color="#6165d7"/></linearGradient><linearGradient id="i" gradientUnits="userSpaceOnUse" x1="-13.7885" x2="190.231" xlink:href="#h" y1="96.6216" y2="283.301"/><linearGradient id="j" gradientUnits="userSpaceOnUse" x1="30825.4" x2="204423" xlink:href="#h" y1="97915.1" y2="211296"/><linearGradient id="k" gradientUnits="userSpaceOnUse" x1="18.4253" x2="55.3569" xlink:href="#b" y1="106.365" y2="150.979"/><linearGradient id="l" gradientUnits="userSpaceOnUse" x1="71.9241" x2="106.667" xlink:href="#b" y1="106.111" y2="139.249"/><linearGradient id="m"><stop offset="0" stop-color="#ffc444"/><stop offset="1" stop-color="#f36f56"/></linearGradient><linearGradient id="n" gradientUnits="userSpaceOnUse" x1="58173.6" x2="110562" xlink:href="#m" y1="40758.6" y2="125856"/><linearGradient id="o"><stop offset=".01" stop-color="#baf09f"/><stop offset=".25" stop-color="#baf09f"/><stop offset=".71" stop-color="#20b63b"/><stop offset="1" stop-color="#20b63b"/></linearGradient><linearGradient id="p" gradientUnits="userSpaceOnUse" x1="-298535" x2="-297307" xlink:href="#o" y1="3071.44" y2="5299.53"/><linearGradient id="q" gradientUnits="userSpaceOnUse" x1="3340.24" x2="6657.28" xlink:href="#h" y1="3909.97" y2="18856.8"/><linearGradient id="r" gradientUnits="userSpaceOnUse" x1="-218020" x2="-217258" xlink:href="#o" y1="2073.57" y2="3607.42"/><linearGradient id="s" gradientUnits="userSpaceOnUse" x1="122.993" x2="163.105" xlink:href="#d" y1="75.425" y2="78.7347"/><linearGradient id="t" gradientUnits="userSpaceOnUse" x1="126.853" x2="163.221" xlink:href="#d" y1="75.702" y2="78.4651"/><linearGradient id="u" gradientUnits="userSpaceOnUse" x1="50.8078" x2="51.4695" xlink:href="#b" y1="13.3689" y2="22.7486"/><linearGradient id="v" gradientUnits="userSpaceOnUse" x1="47.7338" x2="39.5199" xlink:href="#m" y1="43.0555" y2="51.5451"/><linearGradient id="w" gradientUnits="userSpaceOnUse" x1="55.0997" x2="51.8591" xlink:href="#m" y1="47.7078" y2="54.3056"/><linearGradient id="x" gradientUnits="userSpaceOnUse" x1="62.33" x2="61.2704" xlink:href="#m" y1="49.8385" y2="53.8662"/><linearGradient id="y" gradientUnits="userSpaceOnUse" x1="69.4285" x2="57.7075" xlink:href="#m" y1="36.9652" y2="44.1074"/><linearGradient id="z" gradientUnits="userSpaceOnUse" x1="76.3994" x2="65.6193" xlink:href="#m" y1="38.7106" y2="46.0548"/><linearGradient id="A" gradientUnits="userSpaceOnUse" x1="83.2448" x2="71.3294" xlink:href="#m" y1="35.6593" y2="42.1955"/><linearGradient id="B" gradientUnits="userSpaceOnUse" x1="89.9697" x2="80.2843" xlink:href="#m" y1="40.253" y2="47.5803"/><linearGradient id="C" gradientUnits="userSpaceOnUse" x1="96.5759" x2="91.1431" xlink:href="#m" y1="45.255" y2="52.4495"/><linearGradient id="D"><stop offset="0" stop-color="#40447e"/><stop offset="1" stop-color="#3c3b6b"/></linearGradient><linearGradient id="E" gradientUnits="userSpaceOnUse" x1="95.8235" x2="90.8181" xlink:href="#D" y1="99.4398" y2="99.4398"/><linearGradient id="F" gradientUnits="userSpaceOnUse" x1="-7381.75" x2="-7186.63" xlink:href="#D" y1="7610.41" y2="7610.41"/><linearGradient id="G"><stop offset="0" stop-color="#311944"/><stop offset="1" stop-color="#a03976"/></linearGradient><linearGradient id="H" gradientUnits="userSpaceOnUse" x1="93.3798" x2="91.5354" xlink:href="#G" y1="99.1951" y2="102.979"/><linearGradient id="I" gradientUnits="userSpaceOnUse" x1="-3816.78" x2="-3887.38" xlink:href="#G" y1="2974.22" y2="3325.6"/><linearGradient id="J" gradientUnits="userSpaceOnUse" x1="83.5922" x2="102.14" xlink:href="#b" y1="67.5298" y2="81.029"/><linearGradient id="K" gradientUnits="userSpaceOnUse" x1="76.6143" x2="89.5666" y1="93.7162" y2="80.8878"><stop offset="0" stop-color="#ab316d"/><stop offset="1" stop-color="#792d3d"/></linearGradient><linearGradient id="L" gradientUnits="userSpaceOnUse" x1="72.1516" x2="87.1799" xlink:href="#b" y1="65.6006" y2="82.4637"/><linearGradient id="M" gradientUnits="userSpaceOnUse" x1="84.362" x2="98.068" xlink:href="#b" y1="47.5308" y2="65.5324"/><linearGradient id="N" gradientUnits="userSpaceOnUse" x1="-7882.89" x2="-8008.69" xlink:href="#G" y1="4622.26" y2="4466.61"/><linearGradient id="O" gradientUnits="userSpaceOnUse" x1="64.8598" x2="89.6809" y1="54.0299" y2="54.0299"><stop offset="0" stop-color="#007e33"/><stop offset="1" stop-color="#55b079"/></linearGradient><linearGradient id="P" gradientUnits="userSpaceOnUse" x1="44058.4" x2="46405.7" xlink:href="#h" y1="21016.5" y2="28270.7"/><linearGradient id="Q" gradientUnits="userSpaceOnUse" x1="-12715.8" x2="-12386" xlink:href="#G" y1="4721.76" y2="3999.45"/><linearGradient id="R" gradientUnits="userSpaceOnUse" x1="-8486.55" x2="-8017.99" xlink:href="#G" y1="5231.54" y2="4616.27"/><linearGradient id="S" gradientUnits="userSpaceOnUse" x1="-1468.09" x2="-1360.55" xlink:href="#G" y1="1196.12" y2="1080.35"/><clipPath id="T"><path d="m0 0h162v165h-162z"/></clipPath><g clip-path="url(#T)"><path d="m152.916 110.279c-11.557 13.241-30.845 11.935-30.802 18.176.047 6.892 23.562 8.053 24.001 14.54.595 8.79-41.29 25.694-85.0136 18.772-15.0639-2.385-29.3271-4.688-41.6314-15.912-33.7209-30.758-9.0266-95.8688-5.002-106.6461 7.9548-21.2997 17.8051-28.1671 20.8538-30.30758 15.8591-11.13764 34.1082-9.308183 50.4038-7.67419 12.3391 1.23739 30.8174 3.34276 47.6854 17.38577 2.877 2.3949 9.222 8.0861 14.94 17.115 13.892 21.9353 20.033 56.8304 4.565 74.5511z" fill="#f4f7fa"/><path d="m101.63 7.33981v140.19919c0 2.096-1.7765 2.615-3.7921 2.758l-70.3565 6.339-1.0852.077c-2.2289.159-4.0571-1.522-4.0571-3.735v-147.99455c0-2.21303 1.8282-3.966 4.0571-3.89234l1.4724.04759 70.5961 5.43907c2.0153.06233 3.1653-1.33484 3.1653.76204z" fill="url(#a)"/><path d="m103.778 7.33659v140.12241c0 2.096-1.643 3.926-3.657 4.07l-71.4937 5.099c-2.2266.159-4.0526-1.52-4.0526-3.733v-147.91364c0-2.20963 1.826-3.9626 4.0526-3.89008l71.4937 2.31671c2.014.06289 3.657 1.83286 3.657 3.9286z" fill="url(#c)"/><path d="m101.508 15.0475v129.8815c0 1.958-1.5371 3.665-3.4231 3.796l-67.2253 4.655c-2.0695.143-3.7676-1.425-3.7676-3.484v-136.657c0-2.0595 1.6981-3.69911 3.7676-3.64415l67.2253 1.80055c1.886.0521 3.4231 1.6946 3.4231 3.6521z" fill="url(#e)"/><path d="m66.5737 6.66173c.0018.17509-.0316.34873-.098.51049-.0664.16175-.1645.30829-.2884.4308s-.271.21847-.4326.2821c-.1616.06364-.3342.09365-.5076.08822-.3565-.01333-.694-.16549-.9419-.42459-.2478-.2591-.3866-.60501-.3874-.96521-.0017-.17531.0318-.34916.0984-.51107.0666-.16192.1649-.30855.2891-.43109.1242-.12253.2717-.21843.4335-.28192.1619-.06349.3348-.09326.5083-.08752.356.01417.6928.16669.94.42568s.3857.60442.3866.96411z" fill="#de8bdf"/><g fill="#fff"><path d="m62.4319 111.12-29.4685 1.209v-26.6517l29.4685-.7444z" opacity=".64"/><path d="m96.1265 109.737-28.2744 1.16v-26.1013l28.2744-.7139z" opacity=".64"/><path d="m62.4319 143.306-29.4685 1.781v-26.652l29.4685-1.315z" opacity=".64"/><path d="m96.1265 141.271-28.2744 1.708v-26.101l28.2744-1.263z" opacity=".64"/><g opacity=".64"><path d="m52.0558 71.2025c0 5.1037-4.2366 9.3298-9.4918 9.4391-5.2888.1133-9.6006-3.9841-9.6006-9.1461 0-5.1621 4.3118-9.3887 9.6006-9.4408 5.2552-.0516 9.4918 4.0442 9.4918 9.1478z" opacity=".64"/><path d="m74.3854 70.8591c0 5.0357-4.1239 9.2039-9.2393 9.311-5.1474.1071-9.3436-3.9331-9.3436-9.0254 0-5.0924 4.1962-9.2618 9.3436-9.3122 5.1154-.0504 9.2393 3.9915 9.2393 9.0266z" opacity=".64"/><path d="m96.1266 70.5254c0 4.9688-4.0162 9.081-8.9969 9.1853-5.0116.1048-9.0967-3.8833-9.0967-8.9077 0-5.0243 4.0851-9.137 9.0967-9.1863 4.9807-.0493 8.9969 3.9393 8.9969 8.9087z" opacity=".64"/></g></g><path d="m146.181 137.538 1.059-2.356c.397-.883.161-1.943-.528-2.371l-2.742-1.699c.756-2.168 1.268-4.415 1.525-6.699l3.061-.216c.79-.057 1.427-.889 1.427-1.861v-2.584c0-.972-.637-1.723-1.427-1.677l-2.981.17c-.195-2.269-.659-4.507-1.383-6.664l2.52-1.887c.081-.061.156-.129.225-.204l.322.846 4.141-5.142-5.407-.466c-.105-.145-.239-.267-.392-.36-.154-.092-.324-.152-.501-.177-.321-.035-.643.055-.901.251l-2.49 1.828c-1.131-1.845-2.515-3.52-4.11-4.973l.188-.397 3.806.785.483-6.3624-5.78-.9632c-.665-.2589-1.416.0686-1.782.8306l-1.437 2.9915c-1.846-.9269-.316-1.9025-2.412-2.1847l2.194-3.2634c0-1.0165-6.428-1.6941-7.295-1.6941h-2.324c-.88 0-1.595.8357-1.595 1.8663v3.494c-2.172.34-4.276 1.0286-6.233 2.0397l3.97-2.9462s-6.993-1.3377-7.789-.8068l-2.127 1.4165c-.806.5371-1.082 1.7121-.618 2.6215l1.61 3.1447c-1.762 1.587-2.511 2.498-3.845 4.59l-3.739-.85c-.826-.51-1.886-.165-2.366.779l-1.2805 2.519c-.4837.951-.1964 2.134.6392 2.64l3.0143 1.825c-.853 2.397-1.406 4.892-1.646 7.428l-3.6169.209c-.9735.056-1.7653.98-1.7653 2.065v2.889c0 .984.652 1.75 1.4994 1.833l4.1108.664c.327 2.095.892 4.145 1.683 6.109l-3.2765 2.404c-.8356.614-1.1223 1.833-.6392 2.72l1.2807 2.355c.48.882 8.098 1.42 8.098 1.42l-2.419-3.426c1.289 1.759 2.829 3.316 4.571 4.619l-1.908 3.976c-.465.97-.189 2.109.617 2.543l2.129 1.146c.131.07.272.118.418.143l-.008.04 6.639.826.649-5.058c.779.12 1.565.192 2.353.214v4.328c0 .77.399 1.378.967 1.591l-.03.127 6.568.831.131-8.205c1.205-.464 2.367-1.035 3.472-1.706l1.754 3.426c.217.425.573.68.964.741l6.356.872-2.176-6.049-.879.272-1.449-2.868c1.546-1.557 2.9-3.296 4.033-5.18l2.836 1.717c.697.419 1.583.04 1.984-.85zm-21.781-2.217c-6.224.56-11.385-4.953-11.385-12.327s5.162-13.541 11.385-13.772c6.07-.224 10.882 5.312 10.882 12.359 0 7.048-4.813 13.194-10.882 13.74zm26.579-14.158 4.306-2.058-4.306-.528zm-5.286 17.563 4.926.671.72-1.695-4.082-2.504z" fill="url(#f)" opacity=".3"/><path d="m154.904 119.029-2.964.17c-.194-2.262-.656-4.493-1.376-6.644l2.506-1.884c.686-.515.92-1.602.525-2.432l-1.053-2.213c-.397-.834-1.28-1.1-1.972-.59l-2.476 1.823c-1.124-1.839-2.5-3.508-4.087-4.957l1.425-3.0135c.409-.8646.168-1.9586-.543-2.447l-1.896-1.3031c-.717-.4935-1.637-.1904-2.054.6798l-1.428 2.9842c-1.857-.9372-3.855-1.5568-5.912-1.8334v-3.4454c0-1.0164-.698-1.8402-1.561-1.8396h-2.312c-.875 0-1.586.8334-1.586 1.8617v3.4839c-2.16.341-4.252 1.0297-6.197 2.0396l-1.544-3.0651c-.454-.9009-1.461-1.204-2.252-.6748l-2.116 1.4164c-.8.5354-1.075 1.7071-.612 2.6142l1.6 3.1351c-1.788 1.623-3.35 3.483-4.644 5.529l-2.896-1.8c-.821-.509-1.875-.163-2.352.778l-1.274 2.513c-.481.949-.195 2.128.636 2.632l2.997 1.818c-.849 2.391-1.398 4.879-1.637 7.407l-3.595.21c-.968.057-1.756.978-1.756 2.06v2.875c0 1.082.786 1.902 1.756 1.833l3.691-.264c.295 2.406.9 4.763 1.801 7.01l-3.257 2.399c-.831.611-1.117 1.828-.636 2.714l1.274 2.347c.477.88 1.531 1.09 2.352.473l3.294-2.475c1.281 1.753 2.813 3.305 4.545 4.604l-1.898 3.966c-.463.967-.188 2.103.612 2.534l2.116 1.142c.791.428 1.796-.006 2.253-.966l1.882-3.98c1.881.687 3.859 1.065 5.859 1.118v4.316c0 1.027.711 1.769 1.585 1.656l2.312-.299c.863-.113 1.561-1.026 1.561-2.039v-4.268c1.97-.522 3.855-1.329 5.597-2.395l1.743 3.415c.417.816 1.337.999 2.054.413l1.896-1.552c.709-.58.954-1.706.543-2.517l-1.692-3.359c1.537-1.553 2.883-3.288 4.009-5.166l2.821 1.711c.693.42 1.575.04 1.972-.847l1.053-2.349c.393-.881.161-1.938-.524-2.364l-2.728-1.695c.752-2.162 1.261-4.403 1.516-6.68l3.044-.218c.785-.056 1.418-.886 1.418-1.856v-2.576c.001-.972-.633-1.72-1.418-1.674zm-24.02 17.209c-6.187.56-11.319-4.935-11.319-12.287 0-7.353 5.132-13.506 11.319-13.737 6.036-.227 10.82 5.291 10.82 12.319s-4.784 13.158-10.82 13.705z" fill="url(#g)"/><g opacity=".3"><path d="m36.4683 145.941c0-2.364-.8439-4.112-2.5319-5.244-1.7008-1.139-4.7871-2.252-9.3043-3.348-4.588-1.112-8.2719-2.287-11.0153-3.518-7.60861-3.429-11.48613-8.523-11.48613-15.216 0-3.479 1.04111-6.606 3.12334-9.383 2.0639-2.752 5.00429-4.91 8.79369-6.472 3.741-1.542 7.88-2.332 12.4171-2.37 4.4891-.042 8.4379.704 11.8463 2.24 3.3748 1.51 5.9757 3.656 7.8028 6.437 1.8214 2.762-2.6565 7.436-2.6565 11.01l-6.947-1.007c0-2.781-.8864-4.916-2.6593-6.405-1.7861-1.501-4.3146-2.21-7.6041-2.124-3.2103.086-5.7298.818-7.5401 2.202-1.8222 1.392-2.7344 3.185-2.7367 5.377 0 2.046 1.0684 3.709 3.2053 4.989 2.1177 1.269 5.208 2.393 9.2398 3.367 7.2809 1.751 12.472 4.085 15.6807 7.012 3.1727 2.896 4.7548 6.652 4.7462 11.271 0 5.143-1.9242 9.38-5.8113 12.747-3.942 3.412-9.3352 5.538-16.262 6.357-4.9063.579-9.4416.225-13.6061-1.063-4.21645-1.313-7.47278-3.421-9.73588-6.328-2.28199-2.928-3.42430132-6.481-3.42692-10.658l13.9804-1.167 7.0704 1.016s-1.5229 8.874 5.7198 8.142c3.0829-.311 5.4667-1.161 7.1675-2.547 1.6894-1.377 2.5328-3.149 2.5302-5.317z" fill="url(#i)" opacity=".3"/><path d="m95.7169 123.945-27.3485 9.348v15.365l24.1937-2.401 6.6216.963-35.5284 13.134-6.7652-2.122v-57.32l35.6036-.383 6.5654.963-30.6913 8.871v13.671l20.7523-1.115z" fill="url(#j)" opacity=".3"/></g><path d="m43.3703 146.857c0-2.356-.8389-4.099-2.5167-5.226-1.6907-1.134-4.7585-2.245-9.2488-3.335-4.5604-1.107-8.2225-2.277-10.9491-3.504-7.5648-3.415-11.41874-8.489-11.41874-15.165 0-3.468 1.03474-6.587 3.10424-9.356 2.0516-2.745 4.974-4.897 8.741-6.458 3.7193-1.54 7.8343-2.33 12.3452-2.369 4.4619-.044 8.3871.698 11.7757 2.227 3.3552 1.507 5.9406 3.645 7.7561 6.416 1.8106 2.753 2.7147 5.905 2.712 9.455l-12.2582.522c0-2.773-.8812-4.901-2.6436-6.385-1.7754-1.496-4.2888-2.202-7.5586-2.114-3.1912.087-5.6951.818-7.4947 2.199-1.8113 1.389-2.7182 3.176-2.7204 5.361 0 2.04 1.0621 3.698 3.1862 4.974 2.1048 1.264 5.1766 2.383 9.1843 3.353 7.2387 1.741 12.3979 4.067 15.5875 6.984 3.1542 2.886 4.7175 6.622 4.7175 11.235 0 5.128-1.9123 9.353-5.7764 12.71-3.9185 3.403-9.2797 5.524-16.1649 6.345-4.8786.581-9.3865.23-13.5237-1.052-4.1912-1.308-7.4278-3.408-9.6775-6.305-2.26701-2.919-3.4024-6.46-3.40614-10.625l13.89674-1.168c0 6.945 4.2984 9.981 12.7122 9.125 3.0645-.312 5.4336-1.161 7.1266-2.542 1.6748-1.373 2.5122-3.141 2.5122-5.302z" fill="url(#k)"/><path d="m95.71 132.758-20.6311 1.473v15.32l24.053-2.404v9.044l-35.4644 4.169v-58.407l35.3954-.396v9.121l-23.9851.696v13.626l20.6311-1.12z" fill="url(#l)"/><path d="m116.345 134.09c-2.417-.063-4.661.255-6.782.786.074.195.147.389.225.581l-3.208 2.362c-.819.603-1.1 1.801-.627 2.673l1.255 2.312c.47.866 1.507 1.073 2.316.466l3.244-2.436c1.262 1.725 2.77 3.253 4.475 4.532l-1.869 3.905c-.456.952-.185 2.071.603 2.496l2.083 1.125c.78.42 1.772-.007 2.219-.952l1.852-3.92c1.852.677 3.8 1.049 5.77 1.102v4.249c0 1.013.7 1.742 1.562 1.631l2.276-.294c.85-.11 1.537-1.01 1.537-2.011v-4.203c1.941-.514 3.797-1.309 5.512-2.359l1.717 3.364c.41.802 1.314.983 2.021.409-10.526-12.5-19.477-15.64-26.181-15.818z" fill="url(#n)" opacity=".3"/><path d="m21.0822 103.815c-3.7669 1.559-6.6894 3.712-8.7432 6.454-2.0665 2.764-3.10125 5.883-3.10424 9.356 0 6.673 3.85394 11.75 11.41654 15.165 2.7266 1.227 6.3886 2.396 10.949 3.504 4.4892 1.09 7.5581 2.199 9.2488 3.334 1.6801 1.129 2.519 2.872 2.5168 5.227 0 2.163-.8389 3.931-2.5168 5.303-1.6907 1.381-4.0598 2.23-7.1265 2.541-8.4138.856-12.7122-2.179-12.7122-9.125l-13.89004 1.171c0 4.159 1.13539 7.7 3.40614 10.624 2.2496 2.898 5.4863 4.998 9.6775 6.306 4.1319 1.289 8.6398 1.64 13.5236 1.052 6.8853-.819 12.2465-2.941 16.165-6.346 3.864-3.356 5.7764-7.582 5.7764-12.71 0-4.612-1.5633-8.349-4.7175-11.234-3.1896-2.917-8.3499-5.243-15.5876-6.985-4.0077-.969-7.0794-2.088-9.1842-3.353-2.1204-1.274-3.1825-2.932-3.1862-4.973 0-2.183.9068-3.97 2.7204-5.362.4924-.374 1.0222-.696 1.5808-.959-1.8872-2.054-3.6273-5.056-4.6676-9.578-.5223.183-1.0372.379-1.5449.588z" fill="url(#p)" opacity=".3"/><path d="m43.188 117.83c.1524.736.2277 1.485.2244 2.236l12.2583-.522c0-.635-.0292-1.257-.0876-1.866-4.2512-.402-8.4312.013-12.3951.152z" fill="url(#q)"/><path d="m67.9289 122.116c-1.3353-.95-2.7627-1.761-4.2602-2.419v40.665l35.4645-4.169v-9.044l-24.053 2.404v-15.318l2.0762-.148c-2.3181-3.469-3.4336-7.864-9.2275-11.971z" fill="url(#r)" opacity=".3"/><path d="m153.217 84.0372.561-1.2538c.212-.4697.086-1.034-.28-1.2612l-1.459-.9065c.402-1.1536.674-2.3492.811-3.5643l1.627-.1133c.42-.0295.76-.4726.76-.9898v-1.3751c0-.5173-.337-.9167-.76-.8924l-1.586.0918c-.104-1.2076-.351-2.3982-.736-3.5461l1.341-1.0046c.043-.0323.082-.0687.118-.1087l.172.4532 2.203-2.7354-2.876-.2481c-.057-.077-.128-.1416-.21-.1903s-.172-.0803-.266-.093c-.171-.0188-.342.029-.479.1337l-1.325.9722c-.603-.9818-1.34-1.8727-2.189-2.6464l.1-.2102 2.025.4175.257-3.3852-3.075-.5099c-.354-.1377-.754.0368-.949.4419l-.764 1.592c-.983-.4929-.168-1.0124-1.285-1.1626l1.168-1.7365c0-.5411-3.42-.9014-3.882-.9014h-1.229c-.468 0-.849.4447-.849.9932v1.8589c-1.155.1816-2.275.5486-3.316 1.0873l2.112-1.5672s-3.721-.7122-4.144-.4294l-1.132.7552c-.428.2833-.575.911-.328 1.3949l.856 1.6736c-.937.8425-1.336 1.3292-2.045 2.442l-1.99-.4533c-.439-.2725-1.003-.0872-1.259.4147l-.681 1.3405c-.257.506-.105 1.1332.34 1.4046l1.604.9711c-.454 1.2753-.749 2.6031-.876 3.9524l-1.925.1133c-.518.03-.939.5218-.939 1.0991v1.5343c0 .5235.347.9309.798.9751l2.188.3529c.174 1.1146.474 2.2053.895 3.2504l-1.744 1.2794c-.444.3263-.597.9756-.34 1.4481l.682 1.2533c.255.4697 4.309.7552 4.309.7552l-1.287-1.8227c.686.9363 1.505 1.7646 2.432 2.4578l-1.016 2.1156c-.248.5161-.101 1.1224.327 1.353l1.133.6096c.07.0375.146.0632.224.0759l-.004.0216 3.535.4396.346-2.6918c.414.0642.832.1021 1.252.1134v2.3031c0 .4096.212.7331.514.8464l-.016.0674 3.5.4408.07-4.366c.642-.2463 1.26-.5496 1.848-.9065l.933 1.8232c.048.1027.12.1922.209.2612s.194.1154.304.1354l3.383.4624-1.158-3.2193-.468.1451-.771-1.5258c.822-.8284 1.543-1.7539 2.146-2.7564l1.509.9139c.361.2085.833.0057 1.046-.464zm-11.59-1.1825c-3.311.2975-6.06-2.6356-6.06-6.5591s2.749-7.2057 6.06-7.3292c3.23-.119 5.791 2.8261 5.791 6.5762s-2.561 7.0215-5.791 7.3121zm14.141-7.5353 2.291-1.0952-2.291-.2833zm-2.813 9.3484 2.622.3575.382-.9026-2.169-1.332z" fill="url(#s)" opacity=".3"/><path d="m157.859 74.1856-1.578.0918c-.103-1.2039-.348-2.3908-.732-3.5354l1.334-1.0023c.365-.2736.489-.8527.28-1.294l-.561-1.1774c-.211-.4442-.681-.5852-1.049-.3144l-1.318.9705c-.598-.9784-1.33-1.8665-2.174-2.6379l.758-1.6034c.218-.4601.089-1.0425-.289-1.3031l-1.01-.6946c-.382-.2629-.871-.1015-1.093.3614l-.759 1.5864c-.989-.4985-2.052-.8281-3.147-.9756v-1.8334c0-.5405-.371-.9791-.83-.9785h-1.23c-.465 0-.842.4436-.842.9904v1.8538c-1.149.1818-2.263.5483-3.297 1.0855l-.822-1.6311c-.241-.4793-.777-.6408-1.198-.3587l-1.126.7536c-.426.2833-.572.9065-.325 1.3909l.848 1.6708c-.951.864-1.781 1.8539-2.469 2.9428l-1.541-.9581c-.437-.2714-.998-.0867-1.251.4142l-.678 1.3371c-.255.5042-.104 1.1331.337 1.4l1.594.9671c-.451 1.2722-.744 2.5963-.871 3.9416l-1.913.1134c-.515.03-.934.5206-.934 1.0963v1.5297c0 .5756.419 1.0119.934.9751l1.964-.14c.157 1.2802.479 2.5341.958 3.7298l-1.733 1.2764c-.442.3252-.594.9728-.337 1.4442l.678 1.2465c.254.4685.815.5802 1.251.2521l1.754-1.3173c.681.9328 1.496 1.7583 2.417 2.4499l-1.01 2.1099c-.246.5144-.1 1.119.326 1.3484l1.126.608c.42.2266.957-.004 1.198-.5145l1.002-2.1178c1.001.3658 2.053.5669 3.117.5954v2.2958c0 .5473.379.9416.842.8816l1.23-.1592c.459-.0567.83-.5457.83-1.0867v-2.2708c1.049-.278 2.052-.7071 2.979-1.2743l.927 1.817c.222.434.711.532 1.093.2199l1.01-.8255c.378-.3088.505-.9065.289-1.34l-.898-1.7869c.818-.8266 1.534-1.7496 2.132-2.749l1.502.9104c.368.2233.837.021 1.049-.4504l.561-1.2498c.21-.4691.085-1.0318-.281-1.2578l-1.452-.902c.401-1.1503.671-2.3425.807-3.5541l1.62-.1133c.418-.03.755-.4719.755-.9875v-1.3711c0-.5179-.337-.9162-.754-.8918zm-12.781 9.1569c-3.293.298-6.023-2.6261-6.023-6.5382 0-3.9122 2.73-7.1858 6.023-7.3088 3.212-.1201 5.757 2.8159 5.757 6.5552 0 3.7394-2.545 7.0006-5.757 7.2918z" fill="url(#t)"/><path d="m34.1799 17.4934v37.9155c0 1.2589.9669 2.2583 2.156 2.2322l67.4621-1.473c.996-.0216 1.801-.9694 1.801-2.1173v-34.5608z" fill="#fff" opacity=".64"/><path d="m103.798 15.0396-67.4621-2.2867c-1.1891-.0402-2.156.9473-2.156 2.2062v3.885l71.4221 1.8759v-3.5416c0-1.1479-.808-2.1054-1.804-2.1388z" fill="url(#u)"/><path d="m39.1174 15.8686c0 .5563-.4253.9949-.9506.9801-.5252-.0147-.9539-.4799-.9539-1.0374s.427-.996.9539-.9796c.527.0165.9506.4805.9506 1.0369z" fill="#fff"/><path d="m48.9257 52.475-5.3634.0839v-28.1263l5.3634.1048z" fill="#fff"/><path d="m48.9257 52.4752-5.3634.0838v-13.3534l5.3634.0056z" fill="url(#v)"/><path d="m56.2695 52.3601-5.2641.0828v-27.8645l5.2641.1025z" fill="#fff"/><path d="m56.2695 52.3601-5.2641.0827v-6.6147l5.2641-.0385z" fill="url(#w)"/><path d="m63.4785 52.2475-5.1682.081v-27.6073l5.1682.1008z" fill="#fff"/><path d="m63.4785 52.2474-5.1682.081v-3.4408l5.1682-.0578z" fill="url(#x)"/><path d="m70.5561 52.1368-5.0744.0793v-27.3545l5.0744.0991z" fill="#fff"/><path d="m70.5561 52.137-5.0744.0793v-21.4294l5.0744.0606z" fill="url(#y)"/><path d="m77.5067 52.0281-4.983.0776v-27.1064l4.983.0974z" fill="#fff"/><path d="m77.5067 52.028-4.983.0776v-18.8214l4.983.0436z" fill="url(#z)"/><path d="m84.3322 51.9211-4.8937.0765v-26.8628l4.8937.0957z" fill="#fff"/><path d="m84.3322 51.9209-4.8937.0765v-22.9569l4.8937.0708z" fill="url(#A)"/><path d="m91.0381 51.8162-4.8079.0754v-26.6243l4.8079.0941z" fill="#fff"/><path d="m91.0381 51.8162-4.8079.0753v-16.3534l4.8079.0283z" fill="url(#B)"/><path d="m97.6255 51.7131-4.7232.0737v-26.3886l4.7232.0923z" fill="#fff"/><path d="m97.6255 51.7131-4.7232.0736v-9.1614l4.7232-.0164z" fill="url(#C)"/><path d="m95.1418 98.416c.5807.5915.8159 1.2266.6049 1.599-.1459.258-.468.325-.8216.393-.5577.108-1.1391.079-2.3343-.262-1.1162-.3181-1.7721-.5051-1.7727-.7759 0-.2533.5729-.4532 1.0769-.6232.5697-.1951 1.1642-.3065 1.7653-.3309z" fill="url(#E)"/><path d="m77.7854 88.8179c.2615.1133.5971.3156.6869.6481.1408.5247-.4147 1.0663-1.303 1.9117-.6667.634-1.5673 1.4901-1.8804 1.2742-.1919-.132-.0786-.6079.0269-1.051.1268-.5326.408-1.3598 1.1038-2.2618z" fill="url(#F)"/><path d="m93.8668 97.1118 1.2502 1.3994c.0297.0329.0506.0729.0607.1162.01.0434.0089.0886-.0032.1313-.0122.0428-.035.0817-.0663.1131-.0312.0313-.0699.0541-.1124.0661-.2732.0776-.6554.1399-1.0055.0396-.0767-.0239-.1462-.0669-.202-.1252l-1.248-1.23z" fill="url(#H)"/><path d="m77.0952 87.9731.6734.9802c.0226.0328.0381.07.0455.1092s.0064.0796-.0027.1184c-.0092.0389-.0264.0753-.0505.107-.0241.0316-.0545.0578-.0893.0767-.1068.0609-.2183.1128-.3334.1553-.0953.0358-.1991.0417-.2979.0169-.0987-.0247-.1877-.079-.2554-.1557l-.7295-.8312z" fill="url(#I)"/><path d="m89.1974 67.4331c-.8665 1.8254-1.4988 3.7551-1.8815 5.7422-.197 1.0266-1.1189 6.1943.8625 12.422 1.8445 5.796 5.2417 9.485 7.0486 11.1954-.8144.6972-1.8371 1.0978-2.904 1.1377-5.52-3.9785-8.1966-8.4855-9.4115-10.9382-4.0998-8.2759-3.0712-16.4005-1.2789-19.8362.5881-1.1286 1.2531-1.7394 2.0056-2.0113 2.4162-.8725 5.2181 1.9377 5.5592 2.2884z" fill="url(#J)"/><path d="m81.6326 67.156c.5881-1.1286 1.2531-1.7394 2.0056-2.0113 2.4162-.8725 5.2186 1.9377 5.5592 2.2884-.8509 1.7948-1.4758 3.6902-1.8602 5.6419-1.6879.4005-4.0464 1.3512-5.1956 3.5977-1.8591 3.6345.8136 7.9886 1.3686 8.8951 1.2205 1.9892 1.9601 1.8028 3.7631 4.6629 1.3619 2.1603 1.4657 3.1008 2.6514 4.145 1.3933 1.2277 3.134 1.5864 4.5391 1.6657.2761.2833.5325.5337.7632.7518-.8144.6972-1.8371 1.0978-2.904 1.1377-5.52-3.979-8.1966-8.4861-9.4115-10.9387-4.0998-8.2759-3.0712-16.4005-1.2789-19.8362z" fill="url(#K)" opacity=".3"/><path d="m86.0736 67.1307c-.4297.8876-.9922 1.7032-1.6677 2.4181-2.1666 2.281-4.1923 2.0651-6.4874 3.9439-.2806.2317-2.3158 1.9342-3.0666 4.4192-1.445 4.7801 2.7546 9.4934 3.2198 10.0011-.7132.6677-1.6024 1.1132-2.5605 1.2827-6.0217-5.5524-8.9637-12.2866-6.9582-16.6611 1.0931-2.3858 3.6805-4.1207 5.5918-5.4022 2.4563-1.6417 5.1813-2.831 8.0485-3.5128z" fill="url(#L)"/><path d="m82.4822 54.4514c-.0909 2.6883.5264 4.0793-.3366 6.2759-.6212 1.5767-1.6509 2.6628-2.4315 3.3337.8184 1.5867 2.0235 2.9369 3.5016 3.9235 2.4421 1.6221 4.8707 1.7308 5.8247 1.7223 2.0201-1.0493 5.0845-3.0277 7.5446-6.5501 1.6672-2.3881 3.498-5.0102 3.0139-8.3518-.6172-4.2493-4.5122-6.5156-5.6171-7.1575-.7295-.4232-5.7489-3.3467-8.819-1.1977-2.4673 1.7275-2.611 5.9909-2.6806 8.0017z" fill="url(#M)"/><path d="m65.6995 57.5023c-.0808-.434-.3883-.749-.564-.928-.2042-.208-.2458-.1751-.3788-.3457-.3366-.4277-.2542-.8702-.3832-.885-.1122-.013-.3087.3054-.2952.6352.0152.3683.2806.4776.2312.6799-.0707.2872-.702.4957-1.2615.3886-.6486-.124-.9651-.6515-1.2188-.5178-.184.0969-.1723.4442-.1683.4748.0286.6515.8905 1.3354 1.7322 1.4249.4843.0516.6656-.1258 1.2402.0216.381.0974.514.2305.7054.1512.3092-.128.4377-.6838.3608-1.0997z" fill="url(#N)"/><path d="m65.6068 57.2723c5.185.3626 8.282-.9995 10.1489-2.3026 4.235-2.9575 5.066-7.6589 9.9777-8.9235.8979-.2305 2.4562-.6322 3.3074.17 1.7688 1.6725-.317 7.8028-3.9914 11.5711-.8114.8323-3.7344 3.7428-8.5592 4.4-6.1849.8453-10.618-2.6782-11.3845-3.306-.1189-.1335-.1995-.2972-.2331-.4735s-.019-.3585.0423-.527c.1773-.4771.6526-.5995.6919-.6085z" fill="url(#O)"/><path d="m91.2649 65.5045c1.459-1.3966.7687-2.2617 2.5655-5.0663 1.8305-2.8566 3.1481-2.9093 3.9915-4.8356.436-.9961.7053-2.4272.2244-4.4827.7396 1.0062 1.3417 2.226 1.5533 3.6827.4844 3.3427-1.3468 5.9637-3.0139 8.3518-2.4601 3.5223-5.5245 5.5008-7.5446 6.5501-.954.0085-3.3826-.1003-5.8248-1.7224-.805-.5353-1.5316-1.182-2.1587-1.9212.8218.4594 1.7059.7948 2.6239.9954.4871.1088 4.9073 1.0074 7.5834-1.5518z" fill="url(#P)" opacity=".3"/><path d="m92.6036 44.7398.4225 1.4408c.1357.4611.4103.8681.7857 1.1643l1.1222.8861s-3.419-.5796-5.0536-2.1881l.9983-.3178c.0511-.0164.0957-.0488.1274-.0925s.0488-.0964.0488-.1506v-1.0589z" fill="url(#Q)"/><path d="m91.3747 45.4678c-.1627-.0368-1.3428.1581-1.6784-.4142-.4551-.7779 0-2.0198.0438-2.2096.1913-.8034.2626-.9252.4102-1.0951l.2087-.2233.0269-.0192c.1454-.1009.6874-.2646.8047-.2709.3738-.0187 1.1347 1.3354 1.5713 3.4216.0353.0747.0701.1495.1049.2266.0898.1949-1.4815.6595-1.4921.5841z" fill="url(#R)"/><path d="m89.4714 41.1364c.1683.6368.6481 1.2374.8282 1.3031.1079.0473.2076.1117.2952.191.0215.0192.0404.0413.0561.0657.2441.3643-.2638 1.0073-.0937 1.1541.1229.1071.505-.1836.5875-.0844.0825.0991-.2245.409-.1347.5212.0662.0844.2632-.0623.4405.047.0887.0567.0836.1185.216.3224.0687.1081.1472.2094.2346.3026.3171.3156.9708.2833 1.0505.1042.0219-.0504-.0157-.0782-.0191-.2266.0015-.1058.0174-.2108.0471-.3122.0713-.2493.3367-.4855.5909-.7932.4658-.5745.5281-.9739.5432-1.1076.0056-.0476.0073-.0827.0084-.1082.0258-.51-.1554-1.2006-.477-1.5689-.5381-.6164-1.2395-.0663-2.0728-.596-.9607-.6119-.8098-1.8425-1.2469-1.8561-.4826-.0153-1.1688 1.4635-.854 2.6419z" fill="#26264f"/><path d="m90.7446 43.6407c.0976-.2561.4231-.1275.4977.1496.0747.277-.1122.6379-.3883.6527-.2761.0147-.2413-.4556-.1094-.8023z" fill="url(#S)"/></g></svg>