<svg fill="none" height="77" viewBox="0 0 178 77" width="178" xmlns="http://www.w3.org/2000/svg" xmlns:xlink="http://www.w3.org/1999/xlink"><linearGradient id="a"><stop offset="0" stop-color="#f8db8b"/><stop offset="1" stop-color="#68b790"/></linearGradient><linearGradient id="b" gradientUnits="userSpaceOnUse" x1="9.69503" x2="27.5115" xlink:href="#a" y1="47.2399" y2="47.9392"/><linearGradient id="c" gradientUnits="userSpaceOnUse" x1="11.7816" x2="26.9559" xlink:href="#a" y1="47.9431" y2="48.4552"/><linearGradient id="d" gradientUnits="userSpaceOnUse" x1="16.3636" x2="16.9063" xlink:href="#a" y1="39.8001" y2="39.8036"/><linearGradient id="e" gradientUnits="userSpaceOnUse" x1="11.8016" x2="16.3333" xlink:href="#a" y1="38.4971" y2="38.9314"/><linearGradient id="f" gradientUnits="userSpaceOnUse" x1="18.3641" x2="19.8627" xlink:href="#a" y1="43.9789" y2="43.9975"/><linearGradient id="g" gradientUnits="userSpaceOnUse" x1="11.2729" x2="18.4056" xlink:href="#a" y1="43.4322" y2="44.3928"/><linearGradient id="h" gradientUnits="userSpaceOnUse" x1="20.708" x2="22.5652" xlink:href="#a" y1="48.9195" y2="48.9414"/><linearGradient id="i" gradientUnits="userSpaceOnUse" x1="11.6213" x2="20.9129" xlink:href="#a" y1="48.7196" y2="49.9804"/><linearGradient id="j" gradientUnits="userSpaceOnUse" x1="13.8616" x2="23.1552" xlink:href="#a" y1="54.6078" y2="55.8694"/><linearGradient id="k" gradientUnits="userSpaceOnUse" x1="22.881" x2="24.5335" xlink:href="#a" y1="55.3542" y2="55.3748"/><linearGradient id="l" gradientUnits="userSpaceOnUse" x1="-1.33622" x2="31.5706" xlink:href="#a" y1="57.3479" y2="60.9716"/><linearGradient id="m" gradientUnits="userSpaceOnUse" x1="-.863741" x2="32.0794" xlink:href="#a" y1="57.8576" y2="61.5482"/><linearGradient id="n" gradientUnits="userSpaceOnUse" x1="6.69767" x2="10.367" xlink:href="#a" y1="51.9694" y2="52.157"/><linearGradient id="o" gradientUnits="userSpaceOnUse" x1="2.67455" x2="7.91551" xlink:href="#a" y1="52.3008" y2="54.2218"/><linearGradient id="p" gradientUnits="userSpaceOnUse" x1="10.5284" x2="15.1274" xlink:href="#a" y1="54.2469" y2="54.4386"/><linearGradient id="q" gradientUnits="userSpaceOnUse" x1="4.58001" x2="7.17411" xlink:href="#a" y1="56.1571" y2="60.0898"/><linearGradient id="r" gradientUnits="userSpaceOnUse" x1="14.5704" x2="20.5532" xlink:href="#a" y1="57.1312" y2="57.3794"/><linearGradient id="s" gradientUnits="userSpaceOnUse" x1="7.24666" x2="9.8536" xlink:href="#a" y1="59.9676" y2="64.6893"/><linearGradient id="t" gradientUnits="userSpaceOnUse" x1="12.1681" x2="14.7758" xlink:href="#a" y1="63.8274" y2="68.5487"/><linearGradient id="u" gradientUnits="userSpaceOnUse" x1="20.053" x2="25.0958" xlink:href="#a" y1="61.554" y2="61.7624"/><linearGradient id="v" gradientUnits="userSpaceOnUse" x1="-3.15316" x2="31.6547" xlink:href="#a" y1="68.4204" y2="77.0902"/><linearGradient id="w" gradientUnits="userSpaceOnUse" x1="-2.41935" x2="-1.15098" xlink:href="#a" y1="68.2912" y2="74.9952"/><linearGradient id="x" gradientUnits="userSpaceOnUse" x1="4.45141" x2="10.0521" xlink:href="#a" y1="67.4756" y2="68.596"/><linearGradient id="y" gradientUnits="userSpaceOnUse" x1="3.10269" x2="7.69622" xlink:href="#a" y1="69.2346" y2="69.9825"/><linearGradient id="z" gradientUnits="userSpaceOnUse" x1="7.44049" x2="15.4817" xlink:href="#a" y1="66.698" y2="68.0409"/><linearGradient id="A" gradientUnits="userSpaceOnUse" x1="6.65699" x2="12.578" xlink:href="#a" y1="70.0794" y2="70.7598"/><linearGradient id="B" gradientUnits="userSpaceOnUse" x1="11.0144" x2="21.5126" xlink:href="#a" y1="66.1114" y2="67.8828"/><linearGradient id="C" gradientUnits="userSpaceOnUse" x1="10.4987" x2="18.1725" xlink:href="#a" y1="70.4987" y2="71.3806"/><linearGradient id="D" gradientUnits="userSpaceOnUse" x1="15.8895" x2="23.5748" xlink:href="#a" y1="70.4288" y2="71.3122"/><linearGradient id="E" gradientUnits="userSpaceOnUse" x1="17.5535" x2="26.4238" xlink:href="#a" y1="66.3513" y2="67.8289"/><linearGradient id="F"><stop offset="0" stop-color="#067431"/><stop offset="1" stop-color="#2e9f5a"/></linearGradient><linearGradient id="G" gradientUnits="userSpaceOnUse" x1="18.8309" x2="37.3921" xlink:href="#F" y1="40.3432" y2="75.2471"/><linearGradient id="H" gradientUnits="userSpaceOnUse" x1="47.8203" x2="66.1564" xlink:href="#F" y1="40.3456" y2="76.6026"/><linearGradient id="I" gradientUnits="userSpaceOnUse" x1="79.2218" x2="97.5567" xlink:href="#F" y1="40.3456" y2="76.604"/><linearGradient id="J" gradientUnits="userSpaceOnUse" x1="109.709" x2="128.443" xlink:href="#F" y1="40.3442" y2="76.0404"/><linearGradient id="K" gradientUnits="userSpaceOnUse" x1="148.562" x2="166.264" xlink:href="#a" y1="48.7427" y2="49.4316"/><linearGradient id="L" gradientUnits="userSpaceOnUse" x1="149.048" x2="164.009" xlink:href="#a" y1="49.4505" y2="49.9473"/><linearGradient id="M" gradientUnits="userSpaceOnUse" x1="158.268" x2="158.845" xlink:href="#a" y1="41.2922" y2="41.2963"/><linearGradient id="N" gradientUnits="userSpaceOnUse" x1="158.987" x2="163.482" xlink:href="#a" y1="39.9907" y2="40.4157"/><linearGradient id="O" gradientUnits="userSpaceOnUse" x1="155.37" x2="156.922" xlink:href="#a" y1="45.4896" y2="45.5097"/><linearGradient id="P" gradientUnits="userSpaceOnUse" x1="157" x2="164.113" xlink:href="#a" y1="44.9144" y2="45.8616"/><linearGradient id="Q" gradientUnits="userSpaceOnUse" x1="152.703" x2="154.63" xlink:href="#a" y1="50.4432" y2="50.4669"/><linearGradient id="R" gradientUnits="userSpaceOnUse" x1="154.583" x2="163.846" xlink:href="#a" y1="50.2094" y2="51.4526"/><linearGradient id="S" gradientUnits="userSpaceOnUse" x1="152.373" x2="161.639" xlink:href="#a" y1="56.1031" y2="57.3445"/><linearGradient id="T" gradientUnits="userSpaceOnUse" x1="150.764" x2="152.476" xlink:href="#a" y1="56.8839" y2="56.906"/><linearGradient id="U" gradientUnits="userSpaceOnUse" x1="146.249" x2="179.16" xlink:href="#a" y1="57.3483" y2="60.9726"/><linearGradient id="V" gradientUnits="userSpaceOnUse" x1="145.746" x2="178.696" xlink:href="#a" y1="57.8512" y2="61.5423"/><linearGradient id="W" gradientUnits="userSpaceOnUse" x1="166.479" x2="170.149" xlink:href="#a" y1="51.9689" y2="52.1566"/><linearGradient id="X" gradientUnits="userSpaceOnUse" x1="168.316" x2="173.581" xlink:href="#a" y1="52.3032" y2="54.2355"/><linearGradient id="Y" gradientUnits="userSpaceOnUse" x1="161.765" x2="166.367" xlink:href="#a" y1="54.2426" y2="54.4344"/><linearGradient id="Z" gradientUnits="userSpaceOnUse" x1="163.948" x2="166.543" xlink:href="#a" y1="56.1571" y2="60.0892"/><linearGradient id="aa" gradientUnits="userSpaceOnUse" x1="156.402" x2="162.373" xlink:href="#a" y1="57.1465" y2="57.3944"/><linearGradient id="ab" gradientUnits="userSpaceOnUse" x1="158.796" x2="161.403" xlink:href="#a" y1="59.9675" y2="64.6888"/><linearGradient id="ac" gradientUnits="userSpaceOnUse" x1="153.878" x2="156.485" xlink:href="#a" y1="63.8274" y2="68.5489"/><linearGradient id="ad" gradientUnits="userSpaceOnUse" x1="151.808" x2="156.86" xlink:href="#a" y1="61.5536" y2="61.7628"/><linearGradient id="ae" gradientUnits="userSpaceOnUse" x1="145.986" x2="180.707" xlink:href="#a" y1="69.5551" y2="78.2001"/><linearGradient id="af" gradientUnits="userSpaceOnUse" x1="145.517" x2="163.145" xlink:href="#a" y1="69.2239" y2="87.515"/><linearGradient id="ag" gradientUnits="userSpaceOnUse" x1="167.987" x2="173.608" xlink:href="#a" y1="69.1162" y2="70.4892"/><linearGradient id="ah" gradientUnits="userSpaceOnUse" x1="170.425" x2="174.864" xlink:href="#a" y1="70.9872" y2="71.6065"/><linearGradient id="ai" gradientUnits="userSpaceOnUse" x1="162.668" x2="170.879" xlink:href="#a" y1="68.0315" y2="69.6746"/><linearGradient id="aj" gradientUnits="userSpaceOnUse" x1="165.665" x2="171.264" xlink:href="#a" y1="71.5223" y2="72.0819"/><linearGradient id="ak" gradientUnits="userSpaceOnUse" x1="156.682" x2="167.416" xlink:href="#a" y1="67.1103" y2="69.2783"/><linearGradient id="al" gradientUnits="userSpaceOnUse" x1="160.158" x2="167.433" xlink:href="#a" y1="71.612" y2="72.3383"/><linearGradient id="am" gradientUnits="userSpaceOnUse" x1="154.792" x2="162.047" xlink:href="#a" y1="71.1398" y2="71.8639"/><linearGradient id="an" gradientUnits="userSpaceOnUse" x1="151.77" x2="160.847" xlink:href="#a" y1="66.9267" y2="68.7325"/><linearGradient id="ao" gradientUnits="userSpaceOnUse" x1="134.064" x2="144.189" y1="31.8862" y2="31.8862"><stop offset="0" stop-color="#007e33"/><stop offset="1" stop-color="#55b079"/></linearGradient><linearGradient id="ap"><stop offset="0" stop-color="#ffc444"/><stop offset="1" stop-color="#f36f56"/></linearGradient><linearGradient id="aq" gradientUnits="userSpaceOnUse" x1="144.141" x2="143.662" xlink:href="#ap" y1="41.7719" y2="45.9233"/><linearGradient id="ar" gradientUnits="userSpaceOnUse" x1="136.724" x2="158.82" xlink:href="#F" y1="39.7781" y2="55.114"/><linearGradient id="as" gradientUnits="userSpaceOnUse" x1="138.428" x2="154.407" xlink:href="#a" y1="56.0809" y2="56.581"/><linearGradient id="at" gradientUnits="userSpaceOnUse" x1="149.066" x2="150.895" xlink:href="#F" y1="41.9844" y2="42.0915"/><linearGradient id="au" gradientUnits="userSpaceOnUse" x1="123.326" x2="125.866" xlink:href="#a" y1="37.0346" y2="37.1919"/><linearGradient id="av" gradientUnits="userSpaceOnUse" x1="127.647" x2="139.062" xlink:href="#F" y1="21.0473" y2="32.8549"/><linearGradient id="aw" gradientUnits="userSpaceOnUse" x1="138.731" x2="142.883" xlink:href="#a" y1="54.9364" y2="54.9911"/><linearGradient id="ax" gradientUnits="userSpaceOnUse" x1="133.726" x2="146.795" xlink:href="#a" y1="30.1148" y2="30.6556"/><linearGradient id="ay" gradientUnits="userSpaceOnUse" x1="127.231" x2="130.55" xlink:href="#a" y1="40.4457" y2="40.6825"/><linearGradient id="az" gradientUnits="userSpaceOnUse" x1="140.018" x2="156.034" xlink:href="#F" y1="20.2481" y2="36.1301"/><linearGradient id="aA" gradientUnits="userSpaceOnUse" x1="136.518" x2="140.071" xlink:href="#F" y1="19.0164" y2="20.1783"/><linearGradient id="aB" gradientUnits="userSpaceOnUse" x1="131.842" x2="144.528" xlink:href="#F" y1="22.2248" y2="35.706"/><linearGradient id="aC" gradientUnits="userSpaceOnUse" x1="136.167" x2="136.428" xlink:href="#F" y1="32.2586" y2="33.1728"/><linearGradient id="aD" gradientUnits="userSpaceOnUse" x1="133" x2="133.37" xlink:href="#F" y1="31.7648" y2="32.5735"/><linearGradient id="aE" gradientUnits="userSpaceOnUse" x1="134.65" x2="138.346" xlink:href="#F" y1="20.6726" y2="22.3627"/><linearGradient id="aF" gradientUnits="userSpaceOnUse" x1="142.093" x2="142.607" xlink:href="#a" y1="76.3952" y2="78.5795"/><linearGradient id="aG" gradientUnits="userSpaceOnUse" x1="145.609" x2="146.357" xlink:href="#a" y1="65.6208" y2="67.6494"/><linearGradient id="aH" gradientUnits="userSpaceOnUse" x1="130.856" x2="131.369" xlink:href="#a" y1="76.3952" y2="78.5795"/><linearGradient id="aI" gradientUnits="userSpaceOnUse" x1="135.459" x2="136.228" xlink:href="#a" y1="65.6208" y2="67.6318"/><linearGradient id="aJ" gradientUnits="userSpaceOnUse" x1="146.539" x2="148.256" xlink:href="#F" y1="38.4245" y2="41.6643"/><linearGradient id="aK" gradientUnits="userSpaceOnUse" x1="148.691" x2="148.456" xlink:href="#ap" y1="38.0125" y2="39.7709"/><linearGradient id="aL" gradientUnits="userSpaceOnUse" x1="151.089" x2="150.412" xlink:href="#ap" y1="42.4139" y2="47.3825"/><clipPath id="aM"><path d="m0 9h178v68h-178z"/></clipPath><path d="m54.0955 62.1621c-11.5049-14.0242-8.6201-38.3327 5.7652-51.7944 17.3128-16.20286 42.8823-8.84941 46.5763-7.77695 18.887 5.43608 36.725 21.77165 38.422 41.74825.959 11.2851-2.951 27.0308-12.728 30.9013-7.17 2.8382-11.202-3.1984-27.039-3.0846-11.84.0864-13.2044 3.4871-22.6508 2.9708-1.8727-.1011-18.737-1.2494-28.3457-12.9644z" fill="#f2f2f2"/><g clip-path="url(#aM)"><path clip-rule="evenodd" d="m13.0895 32.2661c3.5098 3.1236 9.1587 8.7067 10.6468 13.9757 2.618 9.2848.8973 17.8192.8973 17.8192-4.1217-2.2897-7.5826-5.6341-10.0395-9.7016-3.2033-5.433-4.924-13.5367-1.5046-22.0933z" fill="url(#b)" fill-rule="evenodd"/><path clip-rule="evenodd" d="m13.3084 33.1999c-.0049-.015-.0127-.0289-.023-.0408-.0103-.012-.0228-.0217-.0368-.0287s-.0292-.0111-.0448-.012c-.0155-.001-.0311.0012-.0458.0065-.0301.0107-.0548.0331-.0687.0623-.0138.0291-.0157.0627-.0052.0933 2.2596 6.4084 4.4535 12.6112 6.765 18.7723 2.3116 6.1611 2.1885 6.2556 4.8939 12.4723.0132.0294.0372.0523.067.0638.0297.0115.0627.0105.0917-.0027.0142-.0063.0271-.0154.0378-.0268.0108-.0114.0192-.0249.0248-.0396s.0083-.0305.0078-.0462c-.0004-.0158-.0039-.0314-.0102-.0458-2.7164-6.2166-2.5824-6.3056-4.8912-12.4611-2.3088-6.1556-4.5027-12.3556-6.7623-18.7668z" fill="url(#c)" fill-rule="evenodd"/><path clip-rule="evenodd" d="m16.8345 37.2323c.0023-.0321-.0079-.0637-.0284-.0881-.0204-.0244-.0495-.0397-.081-.0426-.0154-.0015-.0311.0001-.0459.0047-.0149.0047-.0287.0122-.0406.0223-.012.0101-.0218.0225-.029.0364-.0073.014-.0117.0293-.0131.045-.1012 1.0866-.1477 2.4567-.1696 3.5572s-.0164 1.9453-.0164 1.9453c.0007.0319.0137.0623.0362.0847.0225.0223.0527.0348.0842.0348.0157 0 .0312-.0032.0456-.0094.0145-.0061.0276-.0152.0385-.0266.011-.0114.0196-.0249.0254-.0397.0057-.0148.0085-.0307.0081-.0466 0-.0139 0-.8615.0164-1.9453s.0684-2.4483.1696-3.5321z" fill="url(#d)" fill-rule="evenodd"/><path clip-rule="evenodd" d="m15.5844 40.2417c.0239.0165.0528.0237.0815.0204.0286-.0033.0552-.017.0747-.0386.0196-.0216.0309-.0495.0318-.0788.001-.0293-.0085-.058-.0266-.0808l-3.3401-3.0931c-.0109-.0137-.0245-.0248-.04-.0327-.0155-.0078-.0324-.0122-.0497-.0127-.0173-.0006-.0345.0026-.0505.0094-.0159.0068-.0303.017-.042.0299s-.0206.0283-.0259.045c-.0054.0167-.0071.0344-.0052.0518.002.0175.0077.0343.0166.0493.009.0151.021.028.0353.0379z" fill="url(#e)" fill-rule="evenodd"/><path clip-rule="evenodd" d="m19.6631 40.1531c.0031-.0154.0032-.0312.0002-.0466s-.009-.03-.0177-.043c-.0087-.0129-.0198-.024-.0328-.0325s-.0275-.0142-.0427-.0169c-.0155-.0032-.0315-.0032-.0469 0-.0155.0032-.0302.0095-.0432.0186s-.0241.0207-.0326.0342c-.0085.0136-.0142.0287-.0168.0445-.3693 1.9926-.9356 8.1759-.9383 8.1926-.0023.032.0079.0636.0283.088.0205.0245.0496.0397.0811.0426.0155.0019.0313.0006.0463-.0039s.0289-.012.041-.0222c.012-.0101.0219-.0226.029-.0368s.0112-.0296.0123-.0455c.0027-.0167.5662-6.1945.9328-8.1731z" fill="url(#f)" fill-rule="evenodd"/><path clip-rule="evenodd" d="m17.3954 45.4081c.0265.0173.0587.0232.0895.0165.0307-.0068.0576-.0257.0747-.0526.017-.0269.0228-.0596.0162-.0909-.0067-.0313-.0253-.0586-.0518-.0759l-5.4492-3.5321c-.0271-.016-.0592-.0208-.0897-.0136s-.0571.026-.0745.0525c-.0166.027-.0222.0596-.0155.0907.0066.0311.025.0584.0511.076z" fill="url(#g)" fill-rule="evenodd"/><path clip-rule="evenodd" d="m22.3194 43.8768c.0048-.0312-.0025-.0632-.0203-.0891-.0179-.0259-.0449-.0438-.0755-.0498-.0153-.0033-.031-.0034-.0463-.0004-.0154.003-.0299.0091-.0429.0179s-.0241.0201-.0328.0334c-.0086.0132-.0146.028-.0175.0435-.4815 2.6234-1.2146 10.7549-1.2173 10.7771-.0023.0323.0078.0643.0282.0891.0204.0249.0495.0408.0812.0443.0315.0023.0626-.008.0867-.0288.024-.0208.0391-.0504.0419-.0823.0027-.0223.7331-8.137 1.2146-10.7549z" fill="url(#h)" fill-rule="evenodd"/><path clip-rule="evenodd" d="m19.655 51.28c.013.0087.0277.0147.043.0176.0154.0029.0312.0027.0465-.0007.0153-.0033.0297-.0098.0426-.0189.0128-.0091.0237-.0207.032-.0341.0168-.0275.0224-.0605.0158-.0921s-.025-.0593-.0514-.0775l-7.1726-4.6326c-.0132-.0086-.028-.0144-.0435-.0171s-.0313-.0023-.0466.0014c-.0153.0036-.0298.0103-.0425.0197s-.0234.0212-.0315.0349c-.0167.027-.0222.0596-.0156.0907.0066.0312.025.0584.0511.0761z" fill="url(#i)" fill-rule="evenodd"/><path clip-rule="evenodd" d="m21.8982 57.1687c.0266.0169.0586.0225.0893.0158.0306-.0068.0575-.0254.0748-.052.0164-.0273.0216-.0601.0144-.0913s-.0261-.0582-.0527-.0754l-7.1726-4.6354c-.0132-.0086-.028-.0144-.0435-.0172-.0155-.0027-.0314-.0022-.0467.0014-.0153.0037-.0297.0104-.0424.0198-.0127.0093-.0234.0212-.0316.0349-.0166.027-.0222.0596-.0155.0907.0066.0311.025.0584.0511.076z" fill="url(#j)" fill-rule="evenodd"/><path clip-rule="evenodd" d="m24.3137 51.1163c.0032-.0157.0032-.0319 0-.0476-.0031-.0157-.0093-.0307-.0182-.0439-.009-.0132-.0204-.0245-.0338-.0331-.0133-.0086-.0282-.0145-.0437-.0171-.0312-.0057-.0633.0013-.0894.0195-.0262.0182-.0442.0462-.0501.0778-.1696.9337-.3748 2.5706-.5663 4.2852-.1915 1.7147-.3666 3.5127-.4897 4.7855-.003.032.0065.064.0264.0889.02.025.0488.041.0803.0445.0318.0023.0633-.0079.0878-.0287.0245-.0207.0401-.0503.0435-.0825.1204-1.2589.2982-3.0569.4897-4.7799s.3939-3.3432.5635-4.2686z" fill="url(#k)" fill-rule="evenodd"/><path clip-rule="evenodd" d="m1.50464 47.3867c4.593.8337 12.27176 2.6318 16.23006 6.3557 6.9757 6.5612 9.848 14.7705 9.848 14.7705-4.6954.2044-9.3618-.8428-13.5355-3.0375-5.50124-2.9402-11.09545-8.9735-12.54256-18.0887z" fill="url(#l)" fill-rule="evenodd"/><path clip-rule="evenodd" d="m2.16667 48.0705c-.02494-.0162-.0549-.0225-.08413-.0177-.02923.0049-.05569.0205-.07431.0439-.01863.0233-.02811.0529-.02664.0829.00148.0301.01381.0585.03463.0799 5.19756 4.2936 10.23918 8.4455 15.35738 12.5056 5.1183 4.0602 5.0526 4.2019 10.5456 8.0926.0261.0151.0569.0198.0863.013.0293-.0067.0551-.0244.0723-.0495.0171-.0251.0244-.0558.0204-.0861s-.0191-.058-.0422-.0775c-5.493-3.8907-5.4246-4.0352-10.5346-8.0842-5.1101-4.0491-10.1517-8.2065-15.35473-12.5029z" fill="url(#m)" fill-rule="evenodd"/><path clip-rule="evenodd" d="m7.2382 49.6682c-.00672-.0143-.01618-.0271-.02783-.0377s-.02526-.0187-.04003-.0239-.03041-.0073-.046-.0062c-.01559.001-.03082.0052-.04481.0122-.01437.0066-.02726.016-.03789.0278s-.01876.0257-.02389.0408-.00715.0311-.00593.047c.00121.016.00564.0315.013.0456.46778.9838 1.12432 2.1788 1.66869 3.132.54438.9532.97112 1.6674.97659 1.6674.00812.0137.01885.0255.03156.0349.0127.0094.02713.0161.04243.0197.0153.0037.03116.0041.04664.0014s.03028-.0085.04351-.0171c.02705-.0167.04654-.0436.05422-.0748s.00294-.0643-.01319-.0919c0 0-.44316-.7337-.97659-1.6675-.53344-.9337-1.19544-2.1315-1.66048-3.1097z" fill="url(#n)" fill-rule="evenodd"/><path clip-rule="evenodd" d="m7.70325 52.9002c.02993.0033.05999-.005.08424-.0231.02426-.0181.04095-.0448.04679-.0748s.0004-.0611-.01525-.0872c-.01565-.0262-.04036-.0454-.06927-.0539l-4.42613-.8921c-.01528-.0032-.03104-.0033-.04636-.0003s-.0299.0091-.04288.0179c-.01299.0088-.02412.0201-.03275.0333s-.01459.028-.01753.0436c-.00318.0155-.00329.0315-.00032.0471.00296.0156.00895.0304.01761.0436.00865.0132.01981.0245.03281.0332.013.0088.02759.0148.04291.0178z" fill="url(#o)" fill-rule="evenodd"/><path clip-rule="evenodd" d="m11.1502 50.6771c-.0131-.0275-.0358-.0491-.0638-.0605-.0279-.0113-.0591-.0116-.0872-.0008-.0282.0108-.0513.032-.0649.0593s-.0166.0587-.0084.0882c.7003 1.8981 3.3674 7.4839 3.3757 7.5033.0067.0144.0161.0272.0278.0378.0116.0106.0252.0187.04.0238.0148.0052.0304.0074.046.0063.0156-.001.0308-.0052.0448-.0123.0285-.0138.0505-.0385.0612-.0686.0107-.0302.0094-.0634-.0037-.0926-.0082-.0194-2.659-5.5914-3.3675-7.4839z" fill="url(#p)" fill-rule="evenodd"/><path clip-rule="evenodd" d="m11.8861 56.3659c.0158.0003.0315-.0025.0463-.0083.0147-.0058.0282-.0145.0396-.0256s.0206-.0244.027-.0391.0098-.0305.0102-.0465c0-.032-.0123-.0627-.0343-.0855-.022-.0229-.0519-.0361-.0833-.0368l-6.45868-.1529c-.03147-.0007-.06198.0111-.08499.0329s-.03669.0519-.03812.0838c-.00003.0323.01219.0633.03411.0866.02191.0233.05183.0371.08352.0385z" fill="url(#q)" fill-rule="evenodd"/><path clip-rule="evenodd" d="m15.3192 52.467c-.0038-.0169-.0111-.0328-.0215-.0466-.0103-.0138-.0234-.0253-.0384-.0335-.015-.0083-.0316-.0132-.0486-.0145s-.0341.0012-.0501.0071c-.0161.006-.0307.0153-.0429.0275-.0122.0121-.0217.0267-.0279.0429-.0062.0161-.009.0334-.0081.0508.0009.0173.0054.0342.0132.0496.9246 2.5012 4.4425 9.8378 4.4535 9.86.0141.0285.0386.0502.0682.0605.0296.0104.0621.0087.0905-.0049.0141-.0068.0267-.0164.0371-.0283.0104-.0118.0184-.0256.0235-.0406s.0072-.0309.0062-.0468c-.0011-.0158-.0052-.0313-.0121-.0455-.011-.0222-3.5262-7.3477-4.4426-9.8377z" fill="url(#r)" fill-rule="evenodd"/><path clip-rule="evenodd" d="m16.8155 60.1954c.0155.0007.0311-.0017.0456-.0073.0146-.0055.0279-.014.0392-.0249.0112-.0109.0202-.024.0263-.0385.0061-.0146.0093-.0302.0093-.046.0003-.0161-.0024-.0321-.0082-.047-.0057-.015-.0142-.0287-.0252-.0403-.0109-.0116-.0239-.0209-.0384-.0274s-.0301-.01-.0459-.0104l-8.49661-.189c-.03173 0-.06224.0124-.08517.0347-.02294.0222-.03652.0526-.03793.0848-.00001.032.01229.0627.03428.0855.02198.0229.0519.0361.08335.0368z" fill="url(#s)" fill-rule="evenodd"/><path clip-rule="evenodd" d="m21.7339 64.0553c.0155.0007.0311-.0017.0457-.0073.0145-.0055.0279-.014.0391-.0249.0113-.0109.0202-.024.0263-.0386.0061-.0145.0093-.0301.0093-.046.0007-.0319-.0109-.0629-.0324-.0863-.0214-.0234-.0511-.0373-.0825-.0387l-8.4994-.189c-.0319 0-.0625.0129-.0851.0358-.0226.023-.0353.0541-.0353.0865s.0127.0635.0353.0865c.0226.0229.0532.0358.0851.0358z" fill="url(#t)" fill-rule="evenodd"/><path clip-rule="evenodd" d="m20.7136 57.6053c-.0116-.0296-.0341-.0534-.0627-.0664-.0286-.0129-.0611-.0141-.0905-.0031-.0146.0055-.028.014-.0394.0248-.0114.0109-.0205.0239-.0269.0384s-.0098.0301-.0102.046c-.0003.0159.0024.0316.0081.0464.331.8921.9876 2.3983 1.7015 3.9657.714 1.5674 1.4745 3.1959 2.0189 4.3519.0141.0285.0386.0502.0682.0605.0296.0104.0621.0087.0904-.0049.0144-.0065.0273-.0159.0379-.0277.0107-.0118.0188-.0257.0239-.0408.0052-.0151.0072-.0312.006-.0471-.0013-.0159-.0057-.0314-.013-.0456-.5472-1.1421-1.2994-2.779-2.0162-4.3464-.7167-1.5673-1.3677-3.068-1.696-3.9517z" fill="url(#u)" fill-rule="evenodd"/><path clip-rule="evenodd" d="m0 68.1212c3.55623-1.9453 9.74406-4.9272 14.4109-4.5576 8.2258.6503 14.534 4.6576 14.534 4.6576-3.0845 2.711-6.8133 4.5553-10.8164 5.3496-5.3069 1.0033-12.30997-.0361-18.1285-5.4496z" fill="url(#v)" fill-rule="evenodd"/><path clip-rule="evenodd" d="m.81517 68.224c-.01352-.0003-.026977.0021-.039575.0071-.012597.005-.02408.0125-.033771.0221-.00969.0095-.017391.021-.022647.0337-.005257.0126-.007963.0262-.007958.04-.000366.0137.001982.0274.006905.0402.004922.0128.01232.0244.021755.0343.009436.0098.020718.0176.033179.023.012462.0053.025851.0081.039376.0081 5.813056.0778 11.442866.1445 17.072566.1028 5.6298-.0417 5.6654.0945 11.4648-.264.0136-.0007.027-.0042.0394-.0102.0123-.0059.0234-.0143.0325-.0246.0092-.0104.0162-.0224.0208-.0355.0045-.0131.0065-.027.0057-.0409-.0006-.0137-.004-.0272-.01-.0396-.0059-.0124-.0142-.0235-.0244-.0326-.0102-.009-.0221-.0159-.035-.0202-.0129-.0044-.0265-.006-.04-.0049-5.7994.3585-5.8294.2196-11.4538.2613-5.6243.0417-11.25404-.0223-17.06983-.1001z" fill="url(#w)" fill-rule="evenodd"/><path clip-rule="evenodd" d="m5.10997 66.5344c-.01244-.0084-.02653-.0141-.0413-.0165s-.02987-.0015-.04429.0025c-.01441.0041-.02779.0113-.03923.0211-.01143.0098-.02064.022-.02701.0357-.00637.0138-.00975.0288-.00989.044-.00015.0152.00293.0302.00904.0441.0061.0139.01508.0262.02632.0363.01124.01.02448.0174.03882.0218.83708.4141 1.91489.867 2.79574 1.2172.88085.3501 1.54011.6003 1.55106.6058.01292.0049.02667.0071.04043.0065.01377-.0006.02728-.004.03975-.0099.01247-.006.02366-.0144.0329-.0248.00925-.0104.01637-.0225.02096-.0357.0089-.0266.00731-.0556-.00442-.081s-.0327-.0452-.0585-.0552c0 0-.68936-.2556-1.54832-.6002-.85897-.3446-1.94498-.8004-2.78206-1.2117z" fill="url(#x)" fill-rule="evenodd"/><path clip-rule="evenodd" d="m7.14246 68.4797c.02369-.0135.04141-.0357.04955-.062.00813-.0264.00606-.0549-.00578-.0797-.00606-.0125-.01454-.0235-.02492-.0326-.01038-.009-.02246-.0158-.03549-.0199-.01304-.0042-.02676-.0056-.04036-.0042-.01359.0014-.02677.0055-.03874.0122l-3.4851 1.8119c-.02467.0129-.04328.0353-.05175.0621-.00846.0268-.00609.056.00661.081.0127.0251.03467.044.06109.0526s.05512.0062.07979-.0067z" fill="url(#y)" fill-rule="evenodd"/><path clip-rule="evenodd" d="m8.30243 65.0809c-.02391-.0129-.05168-.0164-.07796-.0097s-.04918.023-.06429.0458c-.01407.024-.01823.0527-.01157.0798.00667.027.02361.0503.04714.0648 1.48267.9087 6.25895 3.2514 6.27265 3.257.0124.0061.0258.0096.0395.0104.0138.0008.0275-.0012.0405-.0058.013-.0047.0249-.0119.0351-.0213.0103-.0094.0185-.0207.0244-.0334.0113-.0251.0125-.0537.0033-.0796-.0092-.026-.0281-.0473-.0525-.0593 0 0-4.7736-2.3427-6.25627-3.2487z" fill="url(#z)" fill-rule="evenodd"/><path clip-rule="evenodd" d="m11.8258 68.5492c.0216-.017.0357-.042.0393-.0696s-.0037-.0555-.0202-.0777c-.0081-.0112-.0183-.0206-.0301-.0277-.0117-.007-.0248-.0116-.0383-.0135-.0135-.0018-.0273-.0008-.0405.003-.0131.0037-.0254.0101-.0361.0188l-4.47535 3.4293c-.01336.0071-.02505.017-.03425.0292-.0092.0121-.01569.0261-.01902.0411-.00334.0149-.00344.0304-.00029.0454.00314.0149.00946.029.0185.0413.00904.0122.0206.0223.03387.0296.01328.0073.02794.0115.04299.0124.01504.001.03011-.0015.04414-.007.01404-.0056.02672-.0142.03716-.0253z" fill="url(#A)" fill-rule="evenodd"/><path clip-rule="evenodd" d="m12.0912 64.0191c-.0233-.0144-.0511-.0188-.0776-.0123-.0264.0066-.0492.0235-.0633.0471-.0142.0235-.0185.0519-.0121.0787s.0231.05.0463.0644c1.9532 1.1922 8.2395 4.263 8.2559 4.2713.0124.0061.0258.0097.0395.0105.0138.0008.0275-.0012.0405-.0059.013-.0046.0249-.0118.0352-.0212.0102-.0094.0184-.0207.0243-.0334.0113-.0251.0125-.0537.0033-.0797-.0092-.0259-.0281-.0472-.0525-.0592-.0192-.0084-6.2836-3.082-8.2395-4.2603z" fill="url(#B)" fill-rule="evenodd"/><path clip-rule="evenodd" d="m17.2094 68.4599c.0217-.0171.0358-.0421.0394-.0697s-.0037-.0555-.0202-.0776c-.0081-.0112-.0183-.0207-.0301-.0277-.0117-.0071-.0248-.0117-.0383-.0135-.0136-.0018-.0273-.0008-.0405.0029s-.0254.0101-.0361.0188l-5.8815 4.5215c-.0216.017-.0358.0421-.0393.0696-.0036.0276.0036.0555.0202.0777.0172.0214.0417.0353.0687.0389.0269.0036.0542-.0033.0763-.0195z" fill="url(#C)" fill-rule="evenodd"/><path clip-rule="evenodd" d="m22.6013 68.3933c.0124-.0078.023-.0181.0312-.0303s.0139-.026.0165-.0405.0022-.0295-.0012-.0438c-.0034-.0144-.0097-.0279-.0185-.0396-.0089-.0117-.0201-.0214-.0328-.0285-.0128-.0071-.0269-.0113-.0414-.0125s-.0291.0007-.0428.0056-.0263.0127-.0369.0228l-5.8814 4.5215c-.0217.017-.0358.0421-.0394.0696-.0036.0276.0037.0555.0202.0777.0172.0214.0418.0353.0687.0389.027.0036.0543-.0033.0763-.0195z" fill="url(#D)" fill-rule="evenodd"/><path clip-rule="evenodd" d="m18.4868 64.5637c-.0236-.0143-.0518-.0185-.0785-.0117-.0266.0068-.0495.024-.0637.0479-.0133.0237-.017.0517-.0103.0781.0066.0264.023.0492.0458.0636.6976.428 1.945 1.0894 3.2608 1.7675 1.3158.678 2.6973 1.37 3.6793 1.8563.0124.0062.0259.0097.0396.0105s.0275-.0012.0405-.0058c.013-.0047.0249-.0119.0351-.0213s.0185-.0207.0243-.0334c.0113-.0251.0125-.0537.0033-.0797-.0092-.0259-.028-.0472-.0525-.0592-.9711-.4808-2.3526-1.1728-3.6766-1.8536-1.324-.6809-2.555-1.3395-3.2471-1.7592z" fill="url(#E)" fill-rule="evenodd"/><path d="m44.2532 67.4485v6.2028h-24.4614v-4.9327l12.4878-11.9804c1.324-1.2839 2.2177-2.3881 2.6809-3.3126.4438-.8469.682-1.7892.6948-2.7485 0-1.3154-.4395-2.3251-1.3185-3.0291-.8791-.704-2.1666-1.0607-3.8626-1.0699-1.3218-.0151-2.6302.2697-3.8298.8337-1.1502.5559-2.1382 1.4064-2.8669 2.4677l-5.4711-3.571c1.3089-1.9507 3.1161-3.5023 5.2276-4.4881 2.2195-1.0801 4.7627-1.6202 7.6295-1.6202 2.4037 0 4.5082.3992 6.3137 1.1978 1.6835.7062 3.1382 1.8779 4.1991 3.382 1.019 1.5125 1.5453 3.3116 1.5045 5.144.0096 1.7396-.3701 3.4587-1.1106 5.0273-.7404 1.5673-2.1739 3.3533-4.3003 5.3579l-7.4353 7.1393z" fill="url(#G)"/><path d="m53.9644 72.1953c-2.0955-1.3488-3.7368-3.2987-4.924-5.8499-1.1873-2.5511-1.7809-5.5969-1.7809-9.1374s.5936-6.5863 1.7809-9.1374c1.1872-2.5512 2.8285-4.5011 4.924-5.8499 2.1647-1.322 4.6428-2.0205 7.1685-2.0205 2.5258 0 5.0039.6985 7.1685 2.0205 2.0955 1.3469 3.7368 3.2969 4.924 5.8499 1.1873 2.553 1.78 5.5988 1.7782 9.1374 0 3.5405-.5927 6.5863-1.7782 9.1374-1.1854 2.5512-2.8267 4.5011-4.924 5.8499-2.1646 1.322-4.6427 2.0205-7.1685 2.0205-2.5257 0-5.0038-.6985-7.1685-2.0205zm11.8176-6.9976c1.1252-1.723 1.6878-4.3853 1.6878-7.9869s-.5626-6.264-1.6878-7.9869c-1.1271-1.723-2.6772-2.5845-4.6505-2.5845-1.9422 0-3.4759.8615-4.6012 2.5845-1.1252 1.7229-1.6878 4.3853-1.6878 7.9869s.5626 6.2639 1.6878 7.9869c1.1253 1.723 2.659 2.5845 4.6012 2.5845 1.9733-.0019 3.5234-.8634 4.6505-2.5845z" fill="url(#H)"/><path d="m85.3657 72.1953c-2.0972-1.3488-3.7386-3.2987-4.924-5.8499-1.1854-2.5511-1.779-5.5969-1.7808-9.1374 0-3.5405.5936-6.5863 1.7808-9.1374 1.1873-2.5512 2.8286-4.5011 4.924-5.8499 2.1647-1.322 4.6428-2.0205 7.1686-2.0205 2.5257 0 5.0038.6985 7.1685 2.0205 2.0952 1.3469 3.7372 3.2969 4.9242 5.8499s1.781 5.5988 1.781 9.1374c0 3.5405-.594 6.5863-1.781 9.1374-1.187 2.5512-2.829 4.5011-4.9242 5.8499-2.1647 1.322-4.6428 2.0205-7.1685 2.0205-2.5258 0-5.0039-.6985-7.1686-2.0205zm11.8149-6.9976c1.1271-1.723 1.6897-4.3853 1.6879-7.9869-.0019-3.6016-.5645-6.264-1.6879-7.9869-1.1234-1.723-2.6735-2.5845-4.6504-2.5845-1.9423 0-3.476.8615-4.6012 2.5845-1.1253 1.7229-1.6879 4.3853-1.6879 7.9869s.5626 6.2639 1.6879 7.9869c1.1252 1.723 2.6589 2.5845 4.6012 2.5845 1.975-.0019 3.5252-.8634 4.6504-2.5845z" fill="url(#I)"/><path d="m132.073 44.4047c2.553 2.8031 3.829 6.8355 3.829 12.0971 0 3.7295-.685 6.9244-2.057 9.5849-1.284 2.569-3.305 4.6816-5.796 6.0582-2.495 1.3784-5.378 2.0676-8.647 2.0676-1.671.0085-3.336-.1884-4.96-.5863-1.422-.3288-2.781-.892-4.024-1.6675l2.777-5.5914c1.573 1.0987 3.592 1.6471 6.056 1.6452 2.736 0 4.91-.8226 6.522-2.4677 1.612-1.6452 2.475-4.0176 2.59-7.1171-1.942 1.9731-4.625 2.9596-8.048 2.9596-1.951.0261-3.882-.4077-5.64-1.2672-1.643-.797-3.036-2.0408-4.024-3.5933-1.003-1.6067-1.518-3.478-1.48-5.3802-.042-2.0471.522-4.0598 1.619-5.7776 1.089-1.6716 2.619-2.9985 4.415-3.8295 1.95-.9109 4.075-1.3685 6.221-1.3395 4.539 0 8.088 1.4016 10.647 4.2047zm-6.081 9.9128c.483-.447.871-.9909 1.137-1.5975.267-.6067.406-1.2628.411-1.9271.004-.6643-.127-1.3222-.386-1.9324-.258-.6102-.638-1.1594-1.116-1.6129-1.001-.9096-2.381-1.3635-4.139-1.3617-1.603 0-2.906.4382-3.909 1.3145s-1.504 2.0667-1.502 3.571c0 1.5044.501 2.7022 1.502 3.5933 1.001.8912 2.335 1.3377 4.002 1.3395 1.632 0 2.966-.4622 4-1.3867z" fill="url(#J)"/><g clip-rule="evenodd" fill-rule="evenodd"><path d="m162.041 33.7388c-3.491 3.143-9.112 8.7567-10.57 14.0341-2.572 9.2986-.805 17.8246-.805 17.8246 4.111-2.3162 7.555-5.6848 9.988-9.771 3.168-5.4358 4.836-13.5478 1.387-22.0877z" fill="url(#K)"/><path d="m161.822 34.6728c.01-.0302.032-.0549.061-.0687.028-.0138.061-.0156.091-.0049.029.0107.054.0329.067.0619.014.0289.016.0621.005.0923-2.224 6.4224-4.377 12.6363-6.664 18.8113s-2.147 6.2639-4.831 12.5056c-.006.0144-.015.0274-.026.0383s-.025.0194-.039.0251c-.015.0056-.03.0084-.045.008-.016-.0004-.031-.0039-.045-.0103-.015-.0064-.027-.0155-.038-.0269s-.019-.0249-.025-.0396c-.005-.0147-.008-.0304-.008-.0462.001-.0157.004-.0313.01-.0457 2.681-6.2305 2.547-6.3195 4.823-12.4861 2.276-6.1667 4.437-12.3889 6.664-18.8141z" fill="url(#L)"/><path d="m158.318 38.7272c-.003-.0323.007-.0642.028-.0891.02-.0249.049-.0408.081-.0443.016-.0015.031.0001.046.0047s.029.0122.041.0223.021.0225.029.0364c.007.014.011.0293.013.045.106 1.0866.161 2.4567.188 3.5572.028 1.1005.025 1.9314.025 1.9453 0 .0317-.012.0621-.034.0845s-.052.035-.084.035c-.031 0-.061-.0125-.084-.0349-.022-.0223-.035-.0527-.036-.0846 0-.0167 0-.8643-.025-1.9453-.024-1.0811-.082-2.4511-.188-3.5322z" fill="url(#M)"/><path d="m159.579 41.7284c-.011.0116-.024.0209-.039.0272-.014.0063-.03.0095-.046.0095s-.031-.0032-.046-.0095-.028-.0156-.039-.0272c-.022-.0229-.035-.0538-.035-.0861s.013-.0633.035-.0862l3.316-3.1097c.011-.0112.024-.02.038-.0261s.03-.0092.045-.0092c.016 0 .031.0031.045.0092.015.0061.028.0149.039.0261.021.0228.033.0532.033.0848s-.012.0619-.033.0847z" fill="url(#N)"/><path d="m155.503 41.6647c-.004-.0304.005-.0609.022-.0856.018-.0246.044-.0416.074-.0475s.06-.0004.086.0155.045.041.053.0704c.377 1.9925.976 8.1703.979 8.1898.002.0157 0 .0315-.004.0466-.005.0151-.012.0291-.022.0413-.01.0121-.022.0221-.036.0295-.014.0073-.029.0118-.044.0132-.032.0031-.063-.0065-.088-.0268s-.04-.0496-.044-.0816c0-.0167-.599-6.1805-.976-8.1648z" fill="url(#O)"/><path d="m157.801 46.906c-.013.0088-.028.0148-.043.0177-.016.0029-.032.0026-.047-.0007-.015-.0034-.03-.0098-.042-.0189-.013-.0091-.024-.0208-.032-.0342-.009-.0133-.015-.0282-.018-.0438s-.002-.0316.001-.0472c.003-.0155.009-.0302.018-.0432s.021-.0241.034-.0325l5.43-3.56c.013-.0085.028-.0144.043-.0172.016-.0029.031-.0026.047.0008.015.0033.029.0097.042.0187s.024.0205.032.0339c.009.0133.015.0282.017.0437.003.0156.003.0316 0 .0471-.004.0155-.01.0302-.019.0432s-.02.0241-.033.0327z" fill="url(#P)"/><path d="m152.868 45.4025c-.003-.0304.005-.0609.023-.0856.018-.0246.044-.0416.074-.0475.029-.0059.06-.0004.086.0155.025.0159.044.041.053.0704.495 2.6206 1.269 10.7465 1.272 10.7715.002.0157 0 .0318-.004.047-.005.0152-.012.0294-.022.0416-.01.0123-.022.0223-.036.0295s-.029.0115-.045.0125c-.015.0015-.031-.0001-.046-.0047s-.029-.0122-.041-.0223c-.011-.0101-.021-.0224-.029-.0364-.007-.014-.011-.0293-.013-.045-.002-.0222-.776-8.1342-1.272-10.7465z" fill="url(#Q)"/><path d="m155.571 52.7891c-.013.0087-.028.0147-.043.0176s-.031.0027-.046-.0006c-.016-.0034-.03-.0098-.043-.019-.013-.0091-.024-.0207-.032-.0341-.009-.0133-.014-.0282-.017-.0438s-.003-.0316 0-.0472c.004-.0155.01-.0302.019-.0432s.02-.0241.034-.0326l7.145-4.6715c.013-.0086.028-.0144.043-.0173.015-.0028.031-.0025.046.0008.016.0034.03.0098.043.0188s.024.0205.032.0338c.008.0134.014.0282.017.0438s.003.0316-.001.0471c-.003.0155-.009.0301-.018.0432-.009.013-.02.0241-.034.0327z" fill="url(#R)"/><path d="m153.361 58.6889c-.027.0173-.059.0233-.09.0165-.03-.0068-.057-.0257-.074-.0526s-.023-.0596-.017-.0909c.007-.0312.026-.0585.052-.0759l7.148-4.6826c.013-.0086.028-.0145.043-.0173.016-.0028.031-.0025.047.0008.015.0034.029.0097.042.0188.013.009.024.0205.032.0338.009.0133.015.0282.017.0438.003.0156.003.0316 0 .0471-.004.0154-.01.0301-.019.0431-.009.0131-.02.0242-.033.0328z" fill="url(#S)"/><path d="m150.912 52.6499c-.003-.0155-.003-.0315 0-.047s.009-.0302.018-.0434.02-.0245.033-.0333.027-.0149.042-.018c.016-.0031.031-.0031.047-.0001.015.0031.03.0092.042.018.013.0088.025.02.033.0332.009.0131.015.0279.018.0434.178.9365.388 2.5706.591 4.2852.202 1.7147.386 3.5072.514 4.7827.002.0158 0 .0316-.004.0467-.005.0151-.012.0291-.022.0412-.01.0122-.023.0222-.036.0295-.014.0074-.029.0119-.045.0133-.015.0019-.031.0006-.046-.0039s-.029-.012-.041-.0222c-.012-.0101-.022-.0227-.029-.0368-.007-.0142-.011-.0297-.012-.0455-.129-1.2589-.315-3.0569-.517-4.7772-.203-1.7202-.4-3.3404-.586-4.2658z" fill="url(#T)"/><path d="m175.171 47.3867c-4.593.8337-12.274 2.6318-16.232 6.3557-6.973 6.5612-9.848 14.7705-9.848 14.7705 4.696.2078 9.364-.8365 13.541-3.0292 5.509-2.9485 11.103-8.9818 12.539-18.097z" fill="url(#U)"/><path d="m174.518 48.0704c.024-.0206.056-.0305.088-.0273.032.0031.061.0189.081.044.021.025.03.0573.027.0896s-.018.062-.043.0827c-5.198 4.2936-10.242 8.4454-15.36 12.5056-5.118 4.0601-5.05 4.2019-10.546 8.0925-.026.0129-.056.0158-.084.0083-.027-.0076-.052-.0251-.068-.0494s-.023-.0537-.02-.0829.017-.0562.038-.0761c5.49-3.8906 5.422-4.0351 10.535-8.0842 5.113-4.049 10.151-8.2064 15.352-12.5028z" fill="url(#V)"/><path d="m169.449 49.6683c.006-.0146.015-.0277.027-.0385s.025-.0191.04-.0243.031-.0073.046-.006c.016.0012.031.0057.045.0132.014.0068.027.0164.037.0283.011.0118.019.0256.024.0406s.007.0309.006.0467c-.001.0159-.005.0314-.012.0456-.468.9837-1.127 2.1787-1.669 3.1319-.541.9532-.971 1.6674-.979 1.6674-.008.0137-.019.0256-.032.035-.012.0093-.027.0161-.042.0197s-.031.0041-.047.0014c-.015-.0027-.03-.0085-.043-.0171-.014-.0083-.025-.0192-.035-.0321-.009-.0129-.015-.0276-.019-.0431-.004-.0156-.004-.0317-.001-.0474.002-.0157.008-.0308.017-.0442 0 0 .443-.7337.973-1.6674.531-.9338 1.199-2.1315 1.664-3.1097z" fill="url(#W)"/><path d="m168.981 52.9002c-.016.005-.033.0065-.05.0043s-.033-.0079-.048-.0169c-.014-.0089-.026-.0208-.036-.035-.01-.0141-.016-.0302-.019-.0471-.003-.0168-.003-.0342.001-.0509s.011-.0324.022-.046c.01-.0136.023-.0249.038-.033.015-.0082.031-.0131.048-.0144l4.426-.892c.031-.0059.063.0009.089.0188.026.018.044.0457.049.077.006.0314-.001.0637-.018.0901-.018.0263-.045.0444-.076.0503z" fill="url(#X)"/><path d="m165.537 50.6769c.005-.0149.014-.0285.024-.0401.011-.0115.024-.0208.038-.0273s.03-.01.045-.0103c.016-.0004.032.0024.046.0082.015.0052.029.0134.04.0242.012.0108.021.0239.028.0385.006.0146.009.0304.009.0464.001.0159-.002.0318-.009.0465-.7 1.8981-3.367 7.4839-3.375 7.5034-.007.0146-.016.0277-.028.0385-.011.0108-.025.019-.04.0242-.015.0053-.03.0073-.046.0061-.016-.0013-.031-.0058-.045-.0132-.028-.0144-.049-.0392-.059-.0693-.011-.0301-.009-.0631.004-.0919.009-.0195 2.67-5.5914 3.368-7.4839z" fill="url(#Y)"/><path d="m164.798 56.366c-.031 0-.061-.0125-.084-.0349-.022-.0223-.035-.0527-.036-.0846-.001-.0158.002-.0316.007-.0464s.014-.0284.025-.0398c.01-.0114.023-.0205.037-.0267.015-.0063.03-.0094.046-.0094l6.461-.1529c.016-.0007.031.0017.046.0073.014.0055.028.014.039.0249s.02.024.026.0386c.006.0145.01.0301.01.0459 0 .032-.011.063-.033.0864-.021.0234-.051.0373-.082.0387z" fill="url(#Z)"/><path d="m161.368 52.4667c.013-.0265.036-.0471.063-.0579.027-.0109.058-.0112.085-.001.028.0103.051.0304.065.0566.014.0261.018.0566.011.0857-.927 2.5011-4.445 9.8377-4.456 9.8599-.007.0144-.016.0272-.028.0378s-.025.0187-.04.0238c-.015.0052-.03.0074-.046.0063-.016-.001-.031-.0052-.045-.0123-.027-.0148-.048-.0397-.058-.0696-.011-.0299-.009-.0626.003-.0916.011-.0222 3.524-7.3477 4.446-9.8377z" fill="url(#aa)"/><path d="m159.871 60.1954c-.031.0007-.062-.0111-.085-.0329s-.036-.0519-.038-.0838c0-.0323.012-.0632.034-.0865s.052-.0372.084-.0386l8.499-.189c.032 0 .062.0125.084.0349.023.0223.036.0527.037.0846 0 .0161-.002.0321-.008.0471-.005.015-.014.0286-.025.0401s-.024.0205-.039.0266c-.014.006-.03.0089-.046.0085z" fill="url(#ab)"/><path d="m154.953 64.0553c-.032.0008-.062-.011-.085-.0329-.023-.0218-.037-.0519-.038-.0838 0-.0323.012-.0633.034-.0865.022-.0233.052-.0372.083-.0386l8.497-.189c.016-.0003.032.0025.046.0083.015.0058.029.0145.04.0256s.021.0244.027.0391.01.0305.01.0465c0 .0323-.012.0633-.034.0866s-.052.0371-.083.0385z" fill="url(#ac)"/><path d="m155.971 57.6053c.011-.0296.034-.0534.062-.0664.029-.0129.061-.0141.091-.0031.029.0112.053.0339.067.063.013.0291.015.0624.004.0926-.331.8921-.99 2.3983-1.702 3.9657-.711 1.5674-1.48 3.1959-2.027 4.352-.014.0279-.039.0491-.068.0595-.03.0103-.062.0089-.09-.004-.029-.0138-.051-.0385-.062-.0686-.01-.0302-.009-.0634.004-.0926.547-1.1421 1.302-2.779 2.019-4.3464.717-1.5673 1.376-3.068 1.702-3.9517z" fill="url(#ad)"/><path d="m178.003 70.275c-3.417-2.2066-9.372-5.6331-14.047-5.597-8.248.0445-14.824 3.5822-14.824 3.5822 2.884 2.926 6.473 5.0338 10.408 6.1138 3.18.8203 6.503.877 9.708.1655s6.202-2.1716 8.755-4.2645z" fill="url(#ae)"/><path d="m177.182 70.3193c.015-.0024.03-.0016.045.0025.014.0041.028.0114.039.0213.012.0099.021.0222.027.0361.007.0139.01.029.01.0443 0 .0154-.003.0305-.01.0444-.006.0139-.015.0262-.027.0361-.011.0099-.025.0172-.039.0213-.015.0041-.03.0049-.045.0025-5.805-.3474-11.424-.692-17.037-1.1478-5.613-.4557-5.657-.3168-11.415-1.1116-.014-.0016-.027-.0059-.038-.0126-.012-.0067-.022-.0156-.03-.0263-.009-.0107-.015-.023-.018-.0361-.004-.0131-.005-.0268-.003-.0403.001-.0135.005-.0266.012-.0384.007-.0119.015-.0223.026-.0307.011-.0083.023-.0145.035-.0182.013-.0036.027-.0047.04-.003 5.759.7809 5.8.6447 11.407 1.0977 5.608.453 11.216.8087 17.021 1.1588z" fill="url(#af)"/><path d="m173.016 68.3212c.012-.0054.026-.0082.04-.0082s.027.0028.04.0082c.013.0055.024.0134.034.0234s.017.0219.022.035c.01.0261.009.0552-.002.0807s-.032.0455-.058.0554c-.864.3502-1.978.7226-2.875 1.0088-.897.2863-1.578.4863-1.589.4891-.013.0042-.027.0057-.041.0043s-.027-.0056-.039-.0123c-.012-.0068-.022-.016-.031-.027-.008-.011-.014-.0237-.018-.0372-.007-.0269-.004-.0558.009-.0803s.036-.0426.062-.0503c0 0 .709-.2057 1.587-.4864s2.005-.6558 2.859-1.0032z" fill="url(#ag)"/><path d="m170.855 70.1109c-.022-.0153-.037-.0383-.042-.0644-.006-.0262-.001-.0534.012-.0763.014-.0229.035-.0397.061-.0471.025-.0074.052-.0048.075.0072l3.349 2.0648c.021.0154.036.0384.042.0645.005.0261.001.0534-.013.0763-.013.0229-.035.0397-.06.0471s-.053.0048-.076-.0072z" fill="url(#ah)"/><path d="m169.933 66.6371c.012-.0062.025-.0099.039-.0109.014-.0009.027.0008.04.0052s.025.0113.036.0204c.01.0091.018.0202.024.0326.006.0122.01.0255.011.0391.001.0137-.001.0273-.005.0403-.004.0129-.011.0248-.02.0351-.009.0102-.02.0185-.032.0244-1.546.8004-6.475 2.7791-6.489 2.7791-.012.0053-.026.0081-.039.0081-.014-.0001-.028-.0029-.04-.0084-.013-.0054-.024-.0134-.033-.0234-.01-.0099-.017-.0218-.022-.0347-.009-.0259-.008-.0543.002-.0796.011-.0253.031-.0455.056-.0566.016.0056 4.932-1.987 6.472-2.7707z" fill="url(#ai)"/><path d="m166.177 69.8387c-.019-.0202-.03-.0471-.03-.0751 0-.0279.011-.0548.03-.075.019-.0192.045-.0299.072-.0299s.053.0107.073.0299l4.223 3.7489c.019.0197.03.0462.03.0737s-.011.0539-.03.0736c-.009.0098-.02.0176-.033.023-.012.0053-.026.0081-.039.0081-.014 0-.027-.0028-.039-.0081-.013-.0054-.024-.0132-.034-.023z" fill="url(#aj)"/><path d="m166.234 65.3001c.012-.0062.025-.01.038-.0112.014-.0011.027.0004.04.0046.013.0041.024.0108.035.0195.01.0088.018.0195.024.0316.013.0247.015.0535.007.08s-.026.0487-.051.0617c-2.032 1.0477-8.518 3.6489-8.537 3.6572-.013.0073-.027.0117-.042.013-.015.0012-.03-.0007-.044-.0058-.014-.005-.026-.013-.037-.0234-.01-.0104-.019-.0229-.024-.0369-.006-.0139-.008-.0288-.008-.0438.001-.015.005-.0296.011-.043.007-.0134.016-.0252.028-.0346.011-.0094.025-.0162.039-.02.019-.0083 6.494-2.6067 8.521-3.6489z" fill="url(#ak)"/><path d="m160.815 69.3659c-.009-.0095-.017-.021-.022-.0336-.006-.0127-.008-.0263-.008-.04s.002-.0273.008-.04c.005-.0126.013-.0241.022-.0336.02-.0194.047-.0302.074-.0302.028 0 .054.0108.074.0302l5.545 4.9383c.019.0197.029.0461.029.0736s-.01.054-.029.0737c-.02.0193-.046.0301-.074.0301-.027 0-.054-.0108-.074-.0301z" fill="url(#al)"/><path d="m155.443 68.8963c-.017-.0191-.026-.0436-.026-.0689s.009-.0498.025-.069c.017-.0191.039-.0318.064-.0355.024-.0038.049.0015.071.015l5.547 4.9383c.019.019.03.0445.03.0712.001.0267-.008.0528-.025.0729-.018.0201-.042.0328-.068.0355-.026.0026-.053-.0049-.074-.0212z" fill="url(#am)"/><path d="m159.814 65.3754c.012-.0062.025-.0099.039-.0109s.027.0008.04.0052.025.0113.036.0204c.01.0091.018.0202.024.0326.012.0251.014.0539.005.0803s-.027.0483-.051.0614c-.725.3724-2.013.9421-3.376 1.5229-1.362.5808-2.787 1.1672-3.802 1.5813-.013.0073-.027.0117-.042.0129s-.029-.0007-.043-.0057c-.014-.0051-.027-.013-.038-.0234-.01-.0104-.019-.023-.024-.0369-.006-.0139-.008-.0289-.007-.0439 0-.0149.004-.0296.011-.043.006-.0134.016-.0252.027-.0346.012-.0094.025-.0162.039-.02 1.004-.4085 2.432-.9976 3.8-1.5812s2.643-1.1394 3.362-1.5174z" fill="url(#an)"/><path d="m134.07 21.3276c.402 3.1514 1.841 10.5603 2.519 14.3036.257 5.1496-1.225 6.3056-.897 7.3783s4.732.9338 5.52.7643c.788-.1696 2.976-9.2959 2.976-9.2959-.106-16.2934-8.113-10.5103-9.506-14.5537-.095-.2779-.694.7614-.612 1.4034z" fill="url(#ao)"/><path d="m135.413 43.2433c.202.3001 3.074 1.0921 6.691.9421 3.616-.1501 4.103-1.0616 4.497-2.101.394-1.0393-.509-1.2978-.509-1.2978s-1.854 2.629-9.913.7976c-1.166-.2696-1.147 1.0866-.766 1.6591z" fill="url(#aq)"/><path d="m138.909 39.6555c.484.3752-3.283 24.625-2.189 31.6587 1.095 7.0337 1.882 1.459 1.882 1.459s3.743-16.5269 7.045-27.4735c1.731-7.3783 1.986-5.3079-6.738-5.6442z" fill="url(#ar)"/><path d="m139.792 39.7612c.085.0362 1.743.2918 2.69 1.3062.99 1.0643 1.269 2.9291 1.477 4.7243.897 7.8647 2.355 21.1206 4.316 25.6282 2.84 6.5085 1.513 2.1176 1.513 2.1176-.065-3.6961 3.201-32.0422 2.402-33.2205-.881-1.2894-9.079-1.3228-12.398-.5558z" fill="url(#as)"/><path d="m149.394 41.9705c0-.0106.001-.0212.004-.0313.004-.0101.009-.0194.016-.0274.006-.008.015-.0145.024-.0192.01-.0048.02-.0075.03-.0083.021-.0008.042.0064.058.0203s.027.0334.03.0548c.09 1.2033.082 6.6696 0 12.1165-.066 4.6466-.186 9.2625-.342 11.1606-.001.0106-.004.0209-.009.0303s-.012.0177-.02.0244-.018.0117-.028.0147c-.01.0031-.02.004-.031.0029-.01-.0007-.02-.0035-.029-.0083-.01-.0047-.018-.0113-.024-.0194-.007-.008-.012-.0174-.015-.0274-.003-.0101-.004-.0206-.003-.0311.156-1.9008.274-6.5112.342-11.1494.082-5.4303.09-10.8994-.003-12.1027z" fill="url(#at)"/><path d="m125.702 35.9427-1.899.5558c-1.007-.4974-1.245-.6003-2.421-.5725-.821.0195-.533.453.692.717.216.0445-1.006.1279-2.385.4002-1.773.3529.273 1.6674 1.026 1.8508 1.54.3919 4.672-.2112 7.041-.7003z" fill="#f4caab"/><path d="m125.264 35.6787-1.302.4697c-.785.2779-.298 1.3645.112 2.4094l1.466-.214z" fill="url(#au)"/><path d="m131.162 12.1377c-1.01-.4169.837-4.2019 3.329-2.84573 1.472.80313 1.094 3.29593 4.281 3.84613 5.009.8671 11.489-.2779 10.778 8.0148-.246 2.8485 2.823 1.9453 3.54 4.4464 1.513 5.2801-4.67 7.8785-9.43 8.7539-4.538.8337-8.436-.7864-12.61-3.521-2.369-1.5535-2.774-6.0027-1.256-8.4955 1.589-2.6095 2.653-5.6692.84-6.414-1.387-.5697-2.602-1.3256-2.875-1.7424-.676-1.0283 3.403-2.0426 3.403-2.0426z" fill="#225058"/><path d="m125.858 38.8552c.547.1111 4.967-1.4424 8.206-2.2955 3.969-1.0394 3.283-4.4465 3.132-8.4788-.136-3.6128-1.345-9.0791-2.136-8.4844-2.643 1.9926-2.063 11.9498-2.325 12.2277-.195.2112-5.934 2.779-7.767 3.6128-.508.2251-.145.9948 0 1.6479.271 1.3367.816 1.7564.89 1.7703z" fill="url(#av)"/><path d="m142.178 44.6329c.001-.0106.003-.021.008-.0305s.011-.018.019-.025c.008-.0069.017-.0123.027-.0156.01-.0034.02-.0047.031-.004.01.0003.021.0029.03.0075.01.0046.018.0111.025.0192s.012.0175.016.0278c.003.0102.004.021.003.0317-.274 3.5293-.947 6.9642-1.59 10.2824-.79 4.0657-1.545 7.9508-1.502 11.5857 0 .0217-.008.0424-.023.058-.014.0156-.035.0247-.056.0254-.021 0-.041-.0085-.056-.0236s-.023-.0356-.023-.057c-.044-3.6572.711-7.5451 1.502-11.6191.645-3.3154 1.31-6.7364 1.589-10.2629z" fill="url(#aw)"/><path d="m134.849 21.1223 1.067-1.4285 5.422 3.5767 3.742 17.1271c.274.478-3.851 2.7234-6.565.3613-.164-.0584.036-3.3099-.821-7.4784-.968-4.6688-2.984-10.388-2.845-12.1582z" fill="url(#ax)"/><path d="m133.115 16.0366c.389.6514.905 1.2149 1.517 1.6561.612.4411 1.306.7504 2.039.909.906.1056-.821 4.8799-1.042 4.7243-.547-.3863-.988-3.2959-.988-3.2959l-1.304-.9004s-2.175-2.6234-.222-3.0931z" fill="#f4caab"/><path d="m128.593 39.2857c-.047 2.9652 9.665-4.8744-.312 3.0153-2.084 1.6507-4.377 2.3066-4.538 1.5923-.088-.3723-.208-.7058 1.734-2.2593-.342.0278-1.176.2446-1.368.2307-.533-.0445.517-1.006 1.694-1.3729.366-.1195 1.395.1195 1.395.1195l.273-.2473z" fill="#efbc90"/><path d="m128.831 38.9053-1.009.956c-.433.4085-.361.2779-.069.8337l.774 1.4812 1.601-.9393z" fill="url(#ay)"/><path d="m153.032 42.1984c-.585-5.508-3.282-14.6371-7.714-19.8839-2.396-2.8319-5.827-4.8189-8.754-3.9629-1.034.3029-.273 5.6025.578 7.0615 3.991 6.9337 5.536 11.1606 5.093 19.3253-.022.5892 11.216 1.3812 10.797-2.54z" fill="url(#az)"/><path d="m136.053 18.4459c.025.6003-.145 2.1482.161 4.0074.372 2.2565 2.235 7.6756 1.869 5.3913l-.638-3.9518-.339-5.6609s-.76-.0444-1.053.214z" fill="url(#aA)"/><path d="m128.568 38.9468c.476.817 1.535 2.8124 2.49 3.0875 1.031.3001 7.424-4.616 9.219-6.703 2.109-2.4483 3.282-10.3213 2.278-12.803-1.094-2.7012-4.297-2.7151-4.992.5419-.769 3.6128-1.71 9.1152-1.71 9.1152l-7.167 6.3918c-.238.2195-.257.1334-.118.3696z" fill="url(#aB)"/><path d="m137.522 32.344c.01.0023.02.0066.029.0128.008.0061.015.014.021.023.006.0091.009.0192.011.0297.002.0106.002.0214-.001.0318-.001.0105-.005.0206-.011.0295-.006.009-.013.0166-.022.0224-.009.0057-.019.0096-.029.0112-.01.0015-.021.0009-.031-.002-.504-.1091-1.02-.153-1.535-.1306.099.0667.312.1779.507.2779.14.0689.276.1468.407.2334.017.0129.028.0322.032.0536.003.0213-.003.0431-.015.0604-.013.0173-.032.0288-.053.0319s-.043-.0023-.06-.0152c-.123-.0815-.252-.1548-.385-.2196-.293-.1528-.621-.3251-.646-.4363-.014-.0639 0-.1112.093-.1278.55-.1251 1.685.1139 1.688.1139z" fill="url(#aC)"/><path d="m133.81 31.7519c.009.0048.017.0113.024.0193s.012.0173.016.0274c.003.0101.004.0207.004.0313-.001.0106-.004.0209-.009.0304-.004.0095-.011.018-.019.025-.008.0069-.017.0123-.027.0156-.01.0034-.02.0047-.03.0039-.011-.0007-.021-.0036-.03-.0084-.189-.0607-.39-.0703-.583-.0277.095.0304.187.0714.273.1222.179.0962.329.2392.435.4141.011.0183.014.0399.01.0605-.005.0207-.017.0388-.034.0507-.019.0108-.04.0143-.061.0097s-.039-.017-.051-.0347c-.088-.1447-.212-.2634-.359-.3446-.169-.0942-.355-.1537-.547-.1751-.013.0032-.027.0032-.041 0l-.019-.0139c-.055-.0639-.027-.1167.068-.1529.028 0 .069-.0222.118-.0333.28-.0871.578-.0939.862-.0195z" fill="url(#aD)"/><path d="m134.685 20.0327c.089 1.227.256 2.4468.501 3.6517.354 1.5585.786 3.0973 1.297 4.6104-.807-1.4813-3.592-7.1032-1.798-8.2621z" fill="url(#aE)"/><path d="m146.12 64.6416.716 9.6627c-2.686 1.4256-3.991 2.1732-4.598 2.6984h8.51c-.027-.6864-.314-2.0592-.339-2.5011-.156-2.8763.498-8.1676.673-9.8572h-4.962z" fill="#225058"/><path d="m143.01 76.4805c-.022 0-.042-.0085-.057-.0236-.014-.0151-.023-.0356-.023-.057 0-.0213.009-.0418.023-.057.015-.0151.035-.0236.057-.0236h7.522c.021 0 .042.0085.056.0236.015.0152.024.0357.024.057 0 .0214-.009.0419-.024.057-.014.0151-.035.0236-.056.0236z" fill="url(#aF)"/><path d="m146.221 65.7061c-.021 0-.041-.0085-.056-.0236s-.023-.0356-.023-.057.008-.0419.023-.057.035-.0236.056-.0236h4.732c.021 0 .042.0085.057.0236.014.0151.023.0356.023.057s-.009.0419-.023.057c-.015.0151-.036.0236-.057.0236z" fill="url(#aG)"/><path d="m139.314 74.6461c.09-3.0569 1.261-8.7122 1.485-10.0045h-4.762l-.102 9.4487c-2.968 1.27-4.256 2.2065-4.787 2.9152h8.286c.003-.7309-.131-1.9425-.12-2.3594z" fill="#225058"/><path d="m131.772 76.4805c-.021 0-.041-.0085-.056-.0236s-.024-.0356-.024-.057c0-.0213.009-.0418.024-.057.015-.0151.035-.0236.056-.0236h7.52c.021 0 .041.0085.056.0236.015.0152.023.0357.023.057 0 .0214-.008.0419-.023.057s-.035.0236-.056.0236z" fill="url(#aH)"/><path d="m136.053 65.7061c-.021 0-.041-.0085-.056-.0236s-.023-.0356-.023-.057.008-.0419.023-.057.035-.0236.056-.0236h4.563c.021 0 .041.0085.056.0236s.023.0356.023.057-.008.0419-.023.057-.035.0236-.056.0236z" fill="url(#aI)"/><path d="m145.564 38.1633c.113 1.1311.208 3.3182.859 3.4516.712.1445 2.219-.0889 2.758-.2029.273-.0583.38-.1834.462-.4752.107-.3891.203-.956-.076-2.2899-.14-.6586-1.095-.2529-2.049-.3641-.249-.0417-1.959-.1667-1.954-.1195z" fill="url(#aJ)"/><path d="m145.627 37.7574c1.095.4335 2.463.3279 3.669-.1529.293-.1167.342.7087.334.9199 0 .339-3.729.9309-4.219.1 0 0-.06-.7837.126-.8809z" fill="url(#aK)"/><path d="m142.476 43.0905c-.744.4029-.506 1.5201-.304 1.8008.203.2807 3.075.7448 6.691.1862 1.256-.1946 2.605-.4836 3.521-1.145 1.368-.9977 1.885-2.465.468-2.704 0 0-1.926 2.9486-10.376 1.862z" fill="url(#aL)"/></g></g></svg>