<svg fill="none" height="117" viewBox="0 0 140 117" width="140" xmlns="http://www.w3.org/2000/svg" xmlns:xlink="http://www.w3.org/1999/xlink"><linearGradient id="a" gradientUnits="userSpaceOnUse" x1="-8.38812" x2="89.0879" y1="65.3794" y2="74.5626"><stop offset="0" stop-color="#f8db8b"/><stop offset="1" stop-color="#68b790"/></linearGradient><linearGradient id="b" gradientUnits="userSpaceOnUse" x1="19" x2="137.002" y1="107.999" y2="107.999"><stop offset=".49" stop-color="#ebeff2"/><stop offset="1" stop-color="#fff"/></linearGradient><linearGradient id="c"><stop offset="0" stop-color="#067431"/><stop offset="1" stop-color="#2e9f5a"/></linearGradient><linearGradient id="d" gradientUnits="userSpaceOnUse" x1="89.9422" x2="108.162" xlink:href="#c" y1="53.9432" y2="89.5821"/><linearGradient id="e" gradientUnits="userSpaceOnUse" x1="83.9933" x2="115.018" y1="79.9899" y2="79.9899"><stop offset="0" stop-color="#31a25d"/><stop offset="1" stop-color="#006d2c"/></linearGradient><linearGradient id="f" gradientUnits="userSpaceOnUse" x1="33.132" x2="57.1637" xlink:href="#c" y1="49.2266" y2="110.786"/><linearGradient id="g"><stop offset="0" stop-color="#311944"/><stop offset="1" stop-color="#6b3976"/></linearGradient><linearGradient id="h" gradientUnits="userSpaceOnUse" x1="56.6401" x2="68.6039" xlink:href="#g" y1="49.9511" y2="35.269"/><linearGradient id="i" gradientUnits="userSpaceOnUse" x1="59.0377" x2="72.4471" xlink:href="#g" y1="52.255" y2="37.7195"/><linearGradient id="j" gradientUnits="userSpaceOnUse" x1="68.2671" x2="66.2407" y1="42.9658" y2="46.5072"><stop offset="0" stop-color="#ffc444"/><stop offset="1" stop-color="#f36f56"/></linearGradient><linearGradient id="k" gradientUnits="userSpaceOnUse" x1="43.6563" x2="60.7452" xlink:href="#c" y1="75.2461" y2="93.8845"/><linearGradient id="l" gradientUnits="userSpaceOnUse" x1="17.9156" x2="47.4125" xlink:href="#c" y1="55.8727" y2="87.5934"/><path d="m8.1815 72.7951c-13.26577-16.4231-9.93948-44.8896 6.6477-60.654 19.9626-18.97438 49.4462-10.36311 53.7057-9.10719 21.7772 6.36593 42.3451 25.49579 44.3031 48.88939 1.105 13.2154-3.403 31.6544-14.6767 36.1871-8.2678 3.3236-12.9162-3.7456-31.1776-3.6123-13.6523.1012-15.2256 4.0836-26.1179 3.479-2.1592-.1184-21.6049-1.4631-32.6843-15.182z" fill="#f2f2f2"/><path d="m70.5754 104c.9108-.432 2.5135-2.175 2.7434-2.804 1.5364-4.1728 4.9174-11.799 3.2126-16.1792-.2913-.7482-3.9215-.3535-4.6243-.8989-2.3753-.3112-3.2187-.2716-5.3322-1.679-6.2392-4.1554.4806-17.9348-12.4751-17.8133-9.4923.0896-15.8072 5.4232-19.2086-8.2804-3.4013-13.7035-21.8928-34.6918-33.00104-20.7606-6.3736 7.9939 5.53575 16.7241 4.07953 26.4834-1.3838 9.2739 4.12011 14.7553 14.13811 16.8038s6.6842 7.2023 6.6738 15.5915c-.0121 10.0787 14.5107 7.1557 21.1004 5.2329 5.3081-1.5454 19.8632-1.9006 22.6934 4.3038z" fill="url(#a)"/><g fill="#fcfdfe"><path d="m74.536 93.5925c-8.3134-1.1726-16.3934-3.6415-23.9479-7.3175-7.2333-3.5244-13.9879-8.1646-20.0767-13.791-11.8195-10.923-20.94063-25.3913-26.37663-41.8416l.17683-.0587c5.42618 16.4202 14.5299 30.8611 26.3264 41.7628 6.0752 5.6144 12.8145 10.2441 20.0303 13.7603 7.5372 3.6673 15.5986 6.1305 23.8928 7.3005z"/><path d="m26.1511 98.7015-.1091-.1512c7.2851-5.3322 20.891-9.8331 30.3314-10.0337l.0038.1869c-9.4088.2-22.9677 4.685-30.2261 9.998z"/><path d="m68.1683 92.6128c-4.5163-2.0319-7.8325-6.2687-9.8563-12.5921-1.4774-4.6144-2.2453-10.2156-2.2825-16.6481h.1862c.0371 6.4111.8023 11.9959 2.2737 16.5922 2.0068 6.2703 5.2892 10.466 9.7553 12.4787z"/><path d="m28.8911 70.8658c-8.1605-4.1897-17.7287-2.9113-24.31903-1.1031l-.04912-.1802c6.62195-1.8187 16.23925-3.1009 24.45115 1.1161z"/><path d="m15.4469 54.5149c-1.5435-3.822-2.1723-8.1794-1.8672-12.951.2647-4.1465 1.2597-8.603 2.8769-12.8842l.1746.0663c-4.7898 12.682-2.6896 21.5447-1.0119 25.6993z"/></g><path d="m137 107.05-118-1.05v3.111c0 .844.5146 1.562 1.2114 1.69l33.3669 6.126c.3949.072.7974.091 1.1972.056l80.9425-6.985c.723-.062 1.282-.782 1.282-1.649z" fill="#bfc8d6"/><path d="m94.0375 102.357-73.6476 5.636c-1.3182.102-2.3899-.97-2.3899-2.393v-57.0227c0-1.423 1.0717-2.5773 2.3899-2.5773h73.6476c1.0859 0 1.9625 1.0443 1.9625 2.33v51.5466c.0038 1.2864-.8766 2.3974-1.9625 2.4804z" fill="#bfc8d6"/><path d="m96.0123 102.357-74.5923 5.636c-1.3351.102-2.42-.97-2.42-2.393v-57.0227c0-1.423 1.0849-2.5773 2.42-2.5773h74.5923c1.0993 0 1.9877 1.0443 1.9877 2.33v51.5466c.0011 1.2864-.8884 2.3974-1.9877 2.4804z" fill="#fff"/><path d="m93.3835 99.0379-68.4434 4.9571c-1.0704.078-1.9401-.813-1.9401-1.99v-50.5558c0-1.1762.8702-2.1341 1.9401-2.1391l68.4434-.3101c.8936-.0044 1.6165.8611 1.6165 1.9332v46.0485c0 1.0704-.7229 1.9916-1.6165 2.0562z" fill="#d8dee8"/><path d="m61 47.9983c0 .5518-.225 1.0006-.4995 1.0017s-.5005-.4453-.5005-.9983c0-.5529.225-1.0017.5005-1.0017s.4995.4465.4995.9983z" fill="#fff"/><path d="m77.7759 86.6975c-5.7243-3.3068-10.2229.8834-14.5693-3.2507-2.6333-2.5069-1.3406-4.3759-4.5811-8.1216-3.5891-4.1484-5.926-2.7541-9.5327-6.4877-4.5618-4.7209-2.2798-8.3941-6.2107-11.7838-4.7657-4.1122-9.9058-.306-14.4429-4.2501-1.9567-1.7031-3.0301-4.1753-3.5907-6.8036h-4.4393c-.7777 0-1.4092.6768-1.4092 1.5119v59.0801c0 .834.6315 1.463 1.4092 1.404l75.679-5.768c.3715-.029.7007-.261.9118-.599-5.5396-.217-8.9429-2.211-11.1188-4.2723-4.2579-4.0314-3.5176-8.0079-8.1053-10.6592z" fill="#fff" opacity=".48"/><path d="m98.3066 102.016-79.3066 5.786 34.5789 6.128c.3949.069.7975.087 1.1972.053l82.2239-6.849-37.4337-5.079c-.4173-.056-.8395-.07-1.2597-.039z" fill="url(#b)"/><path d="m31 107.903 65.6743-4.903 20.3257 2.759-65.1085 5.241z" fill="#d8dee8"/><g fill="#fff" opacity=".75"><path d="m36.6871 53.7017-7.5623.0263v-2.457h7.5623z" opacity=".75"/><path d="m76.3128 53.5626-34.8216.1222v-2.4138h34.8216z" opacity=".75"/><path d="m48.7911 57.7383-7.2999.0691v-2.4138l7.2999-.0433z" opacity=".75"/><path d="m87.0825 57.3752-33.6535.3194v-2.3721l33.6535-.2017z" opacity=".75"/><path d="m48.7911 61.8182-7.2999.1129v-2.4138l7.2999-.0871z" opacity=".75"/><path d="m87.0825 61.2252-33.6535.5211v-2.3721l33.6535-.4028z" opacity=".75"/><path d="m36.6872 66.1573-7.5624.1622v-2.457l7.5624-.1359z" opacity=".75"/><path d="m76.3128 65.307-34.8216.7474v-2.4137l34.8216-.6258z" opacity=".75"/><path d="m48.7911 69.9766-7.2999.2006v-2.4138l7.2999-.1748z" opacity=".75"/><path d="m87.0825 68.9257-33.6535.9239v-2.3722l33.6535-.806z" opacity=".75"/><path d="m48.7911 74.056-7.2999.2444v-2.4138l7.2999-.2186z" opacity=".75"/><path d="m87.0825 72.7755-33.6535 1.1255v-2.3716l33.6535-1.0077z" opacity=".75"/><path d="m48.7911 78.1358-7.2999.2877v-2.4138l7.2999-.2619z" opacity=".75"/><path d="m87.0825 76.6259-33.6535 1.3266v-2.3716l33.6535-1.2093z" opacity=".75"/><path d="m60.5882 81.6794-7.0477.32v-2.3715l7.0477-.2954z" opacity=".75"/><path d="m92.2217 80.2425-27.1543 1.2335v-2.3311l27.1543-1.1381z" opacity=".75"/><path d="m36.6872 86.917-7.5624.3891v-2.4571l7.5624-.3622z" opacity=".75"/><path d="m76.3128 84.8802-34.8216 1.7902v-2.4138l34.8216-1.668z" opacity=".75"/><path d="m48.7911 90.3744-7.2999.4187v-2.4138l7.2999-.3935z" opacity=".75"/><path d="m87.0825 88.1764-33.6535 1.9316v-2.3721l33.6535-1.8138z" opacity=".75"/><path d="m48.7911 94.4537-7.2999.463v-2.4138l7.2999-.4372z" opacity=".75"/><path d="m87.0825 92.0267-33.6535 2.1332v-2.3721l33.6535-2.0149z" opacity=".75"/><path d="m36.6872 99.3731-7.5624.5244v-2.457l7.5624-.4981z" opacity=".75"/><path d="m76.3128 96.6238-34.8216 2.4155v-2.4138l34.8216-2.2932z" opacity=".75"/></g><path d="m124.286 67s1.215-1.4899 3.496-1.5835c2.28-.0935 5.379-1.4983 6.709-1.6322.321-.0325.48-.1278.507-.2471.057-.246-1.42-.5889-2.73-.6208-2.326-.0561-3.683.8657-3.998.4023-.351-.5183 1.152-1.9572.877-2.2733-.214-.2454-1.235.5604-2.329 1.0529-.777.3513-3.818 4.0747-3.818 4.0747z" fill="#efbc90"/><path d="m126 65.9867c-.178 8.7305-4.371 16.6605-11.085 20.5648-.278.1612-.561.3164-.849.4656-12.268 6.322-24.5606-4.377-26.0397-5.7071-.3827-.343-2.2136-2.0342-4.1232-4.8415-2.1518-3.1574-4.4028-7.7297-4.7909-13.3706-.1582-2.3089-.6412-9.3487 2.9746-11.4825 3.7221-2.1973 9.6447 2.0637 12.0507 3.7938 10.1755 7.3183 10.4195 16.3043 16.0165 17.2147 2.507.4081 6.491-.7403 12.476-8.9236z" fill="url(#d)"/><path d="m115 86.6633c-.278.1539-.561.302-.848.4444-12.263 6.0333-24.5518-4.1772-26.0304-5.4465-.3825-.3274-2.2128-1.9413-4.1216-4.6204.596-2.5893 1.4006-6.0219 1.4006-6.0219s5.2627-.6297 7.7588 5.3781c.9021 2.1721 1.9917 4.2873 3.8361 5.8114 1.86 1.5393 3.2995 1.3054 5.6445.9524 2.158-.3232 4.412 1.2625 6.281 2.0264 1.935.7932 3.942 1.6103 6.079 1.4761z" fill="url(#e)" opacity=".3"/><path d="m32 53.7823c7.4762-2.5599 18.9055-5.3774 32.9201-4.6723 8.1365.4096 15.9637 1.3576 21.5175 3.0057.7515 4.3336.6847 9.2164 1.4372 13.5517.2271 5.7213.1452 11.4508-.2456 17.1634-.4738 6.94-.9378 7.039-2.0229 16.8279 0 0-41.9972 2.3353-42.1455 2.3413-.0391-2.818-.0424-4.8217-.0576-5.8914-.1484-10.0643-2.6136-17.7781-5.7695-27.6498-1.5953-4.9951-3.4763-9.8953-5.6337-14.6765z" fill="url(#f)"/><path d="m63.8466 39c-.0826 1.9373-.3645 3.8624-.8418 5.7479-.3905 1.521-.6298 1.9056-.9283 2.2115-.4463.4607-1.1101.83-4.7708 1.4925-1.9905.3603-2.2426.3323-2.2962.5209-.2622.9203 4.9232 4.4235 10.5068 3.9903 3.4203-.2642 6.6146-1.978 6.4796-2.9865-.135-1.0086-3.5586-.68-4.4707-2.5554-.6343-1.3044.2516-3.0499 1.2641-4.479-.8123-1.7106-4.1315-2.2326-4.9427-3.9422z" fill="#f4caab"/><path d="m70.4989 41.1045c1.1673-.8268 1.8484-2.7223 1.319-4.2396-.4553-1.3057-1.6631-1.8715-2.3859-2.2103-2.0948-.9813-5.1505-.9632-6.7834.7714-.968 1.0277-.5775 3.9626-.5359 4.4804.0476.586.383.8934.6196 1.4033.3241.7069.8346 1.8273 1.6518 3.6903.2923-.4766.6252-.9279.995-1.3489.1653-.1875.8216-.9158 1.6205-1.4342 1.6054-1.0399 2.3908-.3287 3.4993-1.1124z" fill="url(#h)"/><path d="m63.241 43.3595s.6517 2.8365 3.6316 3.5855c2.67.6705 5.0329-4.9798 3.784-6.7369-.417-.5866-1.4736-1.1129-2.4656-1.1533-.586-.023-.8423.1379-1.7984.0808-.8837-.0525-1.0804-.2139-1.3946-.0897-.3933.1573-.8285.7061-.8981 2.556-.3281-.6563-.86-1.0384-1.3511-.9771-.1727.0318-.3326.1088-.4617.2223-.5905.542-.269 1.5788.9539 2.5124z" fill="#f4caab"/><path d="m65.1017 38.0411c.0886.1463-.421.5204-.6586 1.2333-.4614 1.3824.2723 3.5269 1.4793 4.1409.714.3631 1.0677-.0763 2.3301.2347.6176.1543 1.2082.4217 1.7475.7916-.0647 1.6836-.8735 3.0811-1.9676 3.4581-1.1785.4047-2.2627-.5204-2.7163-.9072-.3029-.2584-1.2753-1.0852-1.5078-2.4625-.2418-1.4356.555-1.945.1113-3.0215-.2242-.543-.6214-.8922-.8285-1.8577-.0445-.2078-.075-.4191-.0911-.632.8564-.5377 1.9764-1.1899 2.1017-.9777z" fill="url(#i)"/><path d="m68.7934 44.37s-.6822.1494-1.6673-.3501c-.0478-.0243-.1069-.0286-.1217 0-.0569.1143.4445.9447 1.0938.979.461.0243.9237-.3573.901-.5131-.0091-.0643-.1063-.0979-.2058-.1158z" fill="url(#j)"/><path d="m57.6694 101.19c.9839-1.5872 1.5923-3.2846 1.2201-4.9879-.9616-4.3818-7.3062-3.6831-10.7037-9.6987-3.2167-5.7034-.0982-10.9115-2.9482-12.91-1.0216-.7168-2.8229-1.0142-6.2376.4543 2.3809 7.4526 4.0885 14.0234 4.2149 22.1469.0089.5952.0766 2.8419.2102 5.8054z" fill="url(#k)" opacity=".3"/><path d="m38.6655 96.2703 2.6179-.1114s2.8712-2.3124 4.1764-2.1508 3.2627 1.0708 3.5028 1.2595c.24.1886-.7161 1.2183-1.6699 1.1059s-3.0819.3643-3.462 1.18-2.031 1.2914-2.3118.8065l-3.5189.64z" fill="#efbc90"/><path d="m39.6738 95.1278c.1754 2.1198-.2722 3.552-1.0195 4.5266-3.3112 4.3266-14.5474 2.3916-21.2132-3.5384-4.9284-4.3832-7.53632-11.124-7.4384-17.1346.1864-11.7294 10.7221-23.1343 26.4401-26.9814 2.3303 7.1957 5.2236 12.8801 7.5572 20.0829-9.7082.0546-16.1601 9.0347-15.2859 14.4203.6488 4.0123 5.1824 7.6707 10.9597 8.6246z" fill="url(#l)"/></svg>