<svg fill="none" height="94" viewBox="0 0 107 94" width="107" xmlns="http://www.w3.org/2000/svg" xmlns:xlink="http://www.w3.org/1999/xlink"><linearGradient id="a"><stop offset="0" stop-color="#ffc444"/><stop offset="1" stop-color="#f36f56"/></linearGradient><linearGradient id="b" gradientUnits="userSpaceOnUse" x1="76.4342" x2="69.4412" xlink:href="#a" y1="25.3893" y2="48.0234"/><linearGradient id="c"><stop offset="0" stop-color="#007e33"/><stop offset="1" stop-color="#55b079"/></linearGradient><linearGradient id="d" gradientUnits="userSpaceOnUse" x1="63.3282" x2="72.4171" xlink:href="#c" y1="91.7729" y2="91.7729"/><linearGradient id="e" gradientUnits="userSpaceOnUse" x1="74.9832" x2="84.0722" xlink:href="#c" y1="91.7729" y2="91.7729"/><linearGradient id="f"><stop offset="0" stop-color="#067431"/><stop offset="1" stop-color="#2e9f5a"/></linearGradient><linearGradient id="g" gradientUnits="userSpaceOnUse" x1="69.4893" x2="87.266" xlink:href="#f" y1="48.1928" y2="54.7156"/><linearGradient id="h" gradientUnits="userSpaceOnUse" x1="66.9821" x2="77.7617" xlink:href="#c" y1="62.1005" y2="62.1005"/><linearGradient id="i" gradientUnits="userSpaceOnUse" x1="74.3801" x2="95.1057" xlink:href="#f" y1="46.9255" y2="55.9092"/><linearGradient id="j" gradientUnits="userSpaceOnUse" x1="79.6346" x2="59.8999" xlink:href="#a" y1="22.855" y2="48.2056"/><linearGradient id="k" gradientUnits="userSpaceOnUse" x1="13.0036" x2="32.7774" xlink:href="#c" y1="52.4902" y2="52.4902"/><linearGradient id="l" gradientUnits="userSpaceOnUse" x1="82.055" x2="71.1989" xlink:href="#a" y1="28.4644" y2="36.1532"/><linearGradient id="m" gradientUnits="userSpaceOnUse" x1="87.8942" x2="70.7871" xlink:href="#a" y1="22.2104" y2="45.7251"/><linearGradient id="n" gradientUnits="userSpaceOnUse" x1="22.2404" x2="34.6089" xlink:href="#c" y1="30.1076" y2="30.1076"/><linearGradient id="o" gradientUnits="userSpaceOnUse" x1="15.0084" x2="21.8706" xlink:href="#c" y1="90.1346" y2="90.1346"/><linearGradient id="p" gradientUnits="userSpaceOnUse" x1="35.0879" x2="44.1781" xlink:href="#c" y1="91.7729" y2="91.7729"/><linearGradient id="q" gradientUnits="userSpaceOnUse" x1="30.4492" x2="49.4231" xlink:href="#f" y1="15.8807" y2="30.6739"/><linearGradient id="r" gradientUnits="userSpaceOnUse" x1="33.7923" x2="43.3552" xlink:href="#f" y1="21.1419" y2="40.1638"/><linearGradient id="s" gradientUnits="userSpaceOnUse" x1="26.3928" x2="42.9025" xlink:href="#c" y1="27.1569" y2="27.1569"/><clipPath id="t"><path d="m13 0h79v94h-79z"/></clipPath><path d="m7.74709 77.7055c-12.5614-15.5004-9.41172-42.3678 6.29471-57.2464 18.9027-17.90849 46.8208-9.781 50.854-8.5956 20.621 6.0083 40.0972 24.0634 41.9502 46.1427 1.047 12.4731-3.222 29.8762-13.8968 34.1542-7.8288 3.1369-12.2304-3.5351-29.5221-3.4094-12.9274.0955-14.4172 3.8542-24.7311 3.2836-2.0446-.1118-20.4578-1.381-30.94891-14.3291z" fill="#f2f2f2"/><g clip-path="url(#t)"><path d="m56.4537 37.878c.0606-.0187.1219-.0397.1849-.0623.3116-.1101.9446-.9192.9446-.9192l1.1925 1.2727-.8179.8553c-.467 1.0826-.4752 1.1028-1.8885 1.3132-1.2268.1829-1.0248.954-1.8811 1.166-.8564.212-.7361-.9807-.7361-.9807.3271-1.8885.6894-2.1361 1.509-2.3036-.2716-.0963-.454-.2379-.3967-.4159.0507-.157.4711.0138 1.3086-.089.1252-.0154.3648.0745.5807.1635z" fill="#ed975d"/><path d="m57.3911 38.5689c-.296-.6241-.5186-1.2798-.6633-1.9541 0 0 8.0423-5.2318 8.7514-5.8152s8.0153-11.2178 8.0153-11.2178l8.5699.6788s-11.4284 13.0489-13.2441 14.4932c-3.0017 2.3853-10.5001 4.9713-10.5001 4.9713-.3836-.3212-.6993-.7141-.9291-1.1562z" fill="url(#b)"/><path d="m63.3264 94h8.8054c.4237-.5114.2675-2.3983.2037-3.0141-.0131-.1246-.0229-.1966-.0229-.1966s-3.0066-2.3796-3.4196-.5575c-.0123.0575-.0278.1133-.045.1683-.5202 1.7041-2.8536 2.4784-4.2015 2.6936-.8768.1408-1.2007.5915-1.3201.9063z" fill="url(#d)"/><path d="m74.9814 94h8.8054c.4237-.5114.2675-2.3983.2037-3.0141-.0131-.1246-.0229-.1966-.0229-.1966s-3.0066-2.3796-3.4196-.5575c-.0123.0575-.0278.1133-.045.1683-.5202 1.7041-2.8536 2.4784-4.2015 2.6936-.88.1408-1.2006.5915-1.3201.9063z" fill="url(#e)"/><path d="m66.997 45.5631s0 5.3103-.0172 12.2219c-.0229 9.2298.6249 20.505.7116 22.6468.1497 3.722.7517 9.6659.7517 9.6659s1.4272 1.4127 4.2841.8172c0 0 2.5452-8.4902 3.2715-17.4772.0107-.1473.0221-.2954.0336-.4434.6764-9.1432 1.7282-28.4005 1.7282-28.4005z" fill="url(#g)"/><path d="m66.9972 45.563s0 5.1081-.0172 12.222l8.2607 21.8125c.0114-.1473.781-6.452.7925-6.6001.6764-9.1432 1.7282-28.4005 1.7282-28.4005z" fill="url(#h)"/><path d="m71.3164 43.753s1.1115 14.6315 2.6794 26.8631c1.9981 10.6733 5.5306 20.4945 5.5306 20.4945s4.2939.4046 4.7609-.3487c0 0 .8588-13.2698-1.0886-20.2283-.8792-3.1394.5603-11.658.8727-16.1826.409-5.8533-.8792-11.1442-.8792-11.1442z" fill="url(#i)"/><path d="m71.5913 16.2909c3.216 1.0042 8.7809-1.7056 8.7809-1.7056s-2.9649-2.2016-2.8103-6.7789l-2.4864 1.98237-1.6889 1.34643c.0237.7311.0876 1.4604.1914 2.1846.049.3657.1096.7735.1864 1.2194-.8264.4476-1.563 1.0414-2.1731 1.7517z" fill="#ffb27d"/><path d="m73.3865 11.1351c.0237.7312.0876 1.4604.1914 2.1847 1.8721-.318 3.9945-3.3102 3.9945-3.3102-.9528-.27264-1.787-.32361-2.497-.22166z" fill="#ed975d"/><path d="m72.4033 11.0599s5.3114.8731 5.8071-2.40797c.4956-3.28103 1.5204-5.37749-1.8501-6.07416-3.3705-.69666-4.2219.45797-4.6571 1.51308-.4351 1.05511-.669 6.65755.7001 6.96905z" fill="#ffb27d"/><path d="m66.8091 45.8364c.0936.0814.2138.1268.3386.1278 1.2072-.0162 5.0226.6546 8.0022.352 2.5125-.2427 4.7356-.975 7.123-2.0333.3173-.1408 1.0469-.526 1.0305-.8771-.0106-.3836-.0491-.9403-.0973-1.6418-.1693-2.4379-.4638-6.6348-.1767-11.4694.0524-.9014.0818-1.7947.0818-2.675.0246-6.554-1.2898-12.3247-3.9308-14.2763-.2257-.1618-1.6104.5097-2.883 1.1328-1.1753.5745-2.3514.6376-3.4621.4151l-1.1107.9709c-1.3528 1.242-2.8348 2.9315-3.4785 5.4956-.548 2.1847-.8702 6.1187-1.0469 10.1951-.0818 1.848-.1456 3.7123-.1636 5.481v.0632c-.0155.1755-.0155.3673-.0155.5421-.0622 4.5408-.2912 8.1334-.211 8.1973z" fill="url(#j)"/><path d="m78.2177 8.33633s-.5447-.09062-.4572-.83259c.0876-.74198.0867-1.71374-.5234-1.53735-.6102.17639-.6404.66429-.8915.3819-.2511-.28238-.2552-1.47181-2.0717-1.55434-1.8166-.08253-2.5551.54293-3.3992.17478-.844-.36816-.8898-1.63202-.8898-1.63202s.2404.4515.6036.59552c0 0-1.4093-1.90712.2224-3.214674 1.6317-1.307555 3.2945-.451495 4.2392-.394856 2.0798.124606 3.4236.2484 4.1033 1.60046s.3991 5.11128-.9357 6.41317z" fill="#364154"/><path d="m30.35 48.7793-1.2914-.1821c-.0898-.0221-.1807-.0397-.2724-.0525l-2.3555-.331.1578-1.0947c.0348-.2431-.0294-.49-.1784-.6863-.1491-.1963-.3708-.3261-.6165-.3607l-.6143-.0874-2.4757-.3471-.4458-.0624c-.122-.0176-.2464-.0112-.3659.0188-.1196.03-.2319.0831-.3307.1562-.0988.073-.182.1647-.2449.2696s-.1043.2211-.1217.3419l-.1571 1.094-4.0649-.5737c-.7446-.1024-1.4999.0906-2.1012.537-.6012.4464-.9996 1.11-1.1082 1.8459l-.7361 5.1299c-.104.7366.091 1.4839.5424 2.0787.4513.5948 1.1223.9887 1.8663 1.0955l11.8071 1.6619c.2037.0286.4099.0351.615.0195l.9643.1351c.7419.1026 1.4946-.0895 2.0937-.5343.5992-.4449.9959-1.1063 1.1034-1.8397l.7304-5.07c.1033-.7338-.0911-1.4782-.5407-2.0706-.4496-.5925-1.1179-.9849-1.859-1.0915zm-8.5698-2.3384c.0107-.0729.0446-.1405.0968-.1931.0522-.0525.12-.0872.1935-.099.0347-.0053.07-.0053.1047 0l.5251.0737 1.9466.2751 1.0632.1496c.0917.0131.1744.0615.2301.1348.0556.0732.0797.1653.0668.2561l-.1578 1.0939-4.2244-.5955z" fill="url(#k)"/><path d="m83.1986 41.7722c-.1693-2.4379-.4637-6.6348-.1766-11.4702.0515-.9006.0818-1.7946.0818-2.6742-1.1001-2.6402-1.999-4.5546-1.999-4.5546h-2.7735s-2.0324 13.7375 4.8673 18.699z" fill="url(#l)"/><path d="m89.067 43.5823c0-.0631-.0065-.127-.0114-.1926-.0246-.3236-.6462-1.1457-.6462-1.1457l1.554-.7994.6167 1.0082c.9308.733.9479.746.7786 2.149-.1472 1.2137.6544 1.2315.638 2.1037-.0164.8723-1.1508.4418-1.1508.4418-1.7535-.8148-1.8991-1.2242-1.8451-2.0503-.1636.233-.3526.369-.5104.2678-.1399-.0898.1382-.4458.2601-1.2695.0212-.1262.166-.3318.3165-.513z" fill="#ffb27d"/><path d="m89.9887 42.8718c-.6868.117-1.385.1553-2.0807.1141 0 0-2.9649-9.0623-3.346-9.8876s-8.8054-10.6231-8.8054-10.6231l3.5087-8.6876s9.1113 15.0563 10.0372 17.1722c1.5286 3.4954 2.0594 11.3343 2.0594 11.3343-.4149.28-.8815.4763-1.3732.5777z" fill="url(#m)"/><path d="m25.0337 44.2466c-.0073-.0623-.0147-.1262-.0204-.1918-.0311-.3236.4433-1.2355.4433-1.2355l-1.6693-.5324-.4384 1.0955c-.795.8763-.822 1.0576-.9349 2.2818s.1227 1.0422.4703 1.1838c.3698.1471.7533.2577 1.1451.3301.354.0697.7207.0397 1.0583-.0866.4408-.1691.4965-.3981.4376-.7064-.0061-.0405-.003-.0819.0093-.1211.0122-.0392.0332-.0752.0614-.1052.0282-.0301.0629-.0535.1015-.0685.0385-.0151.0801-.0213.1214-.0183.0171.0003.034-.0028.0499-.0091.0159-.0062.0303-.0155.0425-.0273.1227-.1109-.2233-.5454-.4817-1.3375-.0393-.119-.2192-.2978-.3959-.4515z" fill="#ffb27d"/><path d="m24.0046 43.6956c.6972.002 1.3923-.0751 2.0718-.2298 0 0 1.3985-9.4216 1.6357-10.3011s6.8965-11.9225 6.8965-11.9225l-6.0524-4.7278s-5.3163 13.0861-5.8749 15.3241c-.9193 3.6994-.1235 11.5156-.1235 11.5156.4549.2067.9466.3227 1.4468.3415z" fill="url(#n)"/><path d="m21.8308 93.9999h-3.8506c-.4842-.2606-.9161-.8569-1.0527-1.7461-.1881-1.2267-1.5785-1.8958-1.8811-2.8999-.3026-1.0042 1.2415-2.4161 1.2415-2.4161l.2577-.3285.2682-.3415 2.5551.5955s.0638.6028.1023 1.3691c.0334.5842.0369 1.1697.0106 1.7542-.0752 1.3383.3787 2.7794 1.5802 3.0399.8898.1926.8506.7137.7688.9734z" fill="url(#o)"/><path d="m44.1779 94h-8.8071c-.4228-.5114-.2674-2.3983-.2028-3.0141.0131-.1246.0221-.1966.0221-.1966s3.0065-2.3796 3.4196-.5575c.0131.0575.0278.1133.045.1683.5201 1.7041 2.8544 2.4784 4.2023 2.6936.8759.1408 1.1998.5915 1.3209.9063z" fill="url(#p)"/><g fill="#364154"><path d="m42.4988 45.3746s-.4564 5.6356-.9929 12.4104c-.7296 9.2023-1.6072 20.505-1.6939 22.6468-.1496 3.722-.7516 9.6659-.7516 9.6659s-1.4272 1.4127-4.2841.8172c0 0-2.5453-8.4902-3.2716-17.4772l-.0343-.4434c-.6764-9.1432-1.7282-28.4005-1.7282-28.4005z"/><path d="m42.4987 45.3745s-.4563 5.6356-.9929 12.4105l-10.0052 15.6558-.0344-.4434c-.6764-9.1432-1.7282-28.4005-1.7282-28.4005z"/><path d="m40.4156 46.0421s-8.2296 20.4095-13.6416 30.0009c-5.412 9.5915-7.1017 12.2681-7.1017 12.2681s-3.1007-1.2267-3.382-2.0633c0 0 2.0692-18.517 5.6925-23.0311 2.0447-2.5504 4.4534-10.2048 4.5663-12.8814.1128-2.6766.7361-7.974.7361-7.974z"/></g><path d="m38.3653 16.2909c-3.2159 1.0042-8.7808-1.7056-8.7808-1.7056s2.9656-2.2016 2.8102-6.7789l2.4864 1.98237 1.6906 1.34643c-.0232.7311-.0871 1.4604-.1914 2.1846-.0491.3657-.1096.7735-.1856 1.2194.8257.4477 1.5615 1.0414 2.1706 1.7517z" fill="#ffb27d"/><path d="m36.5717 11.1351c-.0232.7312-.0871 1.4605-.1914 2.1847-1.8713-.318-3.9946-3.3102-3.9946-3.3102.9529-.27264 1.7871-.32361 2.4971-.22166z" fill="#ed975d"/><path d="m37.5531 11.0599s-5.3163.8731-5.807-2.40797c-.4908-3.28103-1.5197-5.37749 1.8509-6.07416 3.3705-.69666 4.2211.45797 4.657 1.51308.436 1.05511.6691 6.65755-.7009 6.96905z" fill="#ffb27d"/><path d="m42.8539 45.8445c-.0938.0807-.2135.1257-.3378.127-1.208-.0162-4.7299.6473-7.7094.3447-2.5118-.2427-4.7356-.975-7.1231-2.0333-.3173-.1408-1.0469-.526-1.0305-.8771.0106-.3836.0491-.9403.0973-1.6418.1693-2.4379.4638-6.6348.1767-11.4694-.0515-.9014-.0818-1.7947-.0818-2.675-.0245-6.554 1.289-12.3247 3.9259-14.2763.2257-.1618 1.6112.5097 2.883 1.1328 1.1762.5745 2.3515.6376 3.4622.4151l1.1107.9709c1.3536 1.242 2.8348 2.9315 3.4793 5.4956.548 2.1847.8694 6.1187 1.0461 10.1951.0817 1.848.1455 3.7123.1635 5.481v.0632c.0156.1755.0156.3673.0156.5421.067 4.5408.0024 8.1407-.0777 8.2054z" fill="url(#q)"/><path d="m53.5018 37.878c-.0605-.0186-.1218-.0397-.1848-.0623-.3108-.1076-.9439-.9168-.9439-.9168l-1.1924 1.2728.8178.8552c.4679 1.0826.4761 1.1029 1.8885 1.3133 1.2269.1828 1.0257.9539 1.8812 1.1659s.7361-.9807.7361-.9807c-.3272-1.8885-.6895-2.1361-1.509-2.3036.2715-.0962.4539-.2378.3967-.4158-.0499-.157-.4711.0137-1.3087-.089-.1251-.0178-.3647.072-.5815.161z" fill="#ffb27d"/><path d="m52.5654 38.5689c.2966-.624.5194-1.2797.6642-1.9541 0 0-8.0432-5.2318-8.7515-5.8152-.7082-.5834-8.0153-11.2178-8.0153-11.2178l-8.569.6788s11.4284 13.0489 13.2449 14.4932c3.0017 2.3853 10.5001 4.9713 10.5001 4.9713.3826-.3215.6975-.7144.9266-1.1562z" fill="url(#r)"/><path d="m31.7387 8.33633s.5447-.09062.4572-.83259c-.0875-.74198-.0867-1.71374.5235-1.53735.6101.17639.6412.66429.8915.3819.2502-.28238.256-1.47181 2.0717-1.55434s2.5551.54293 3.3999.17478c.8449-.36816.8891-1.63202.8891-1.63202s-.2405.4515-.6028.59552c0 0 1.4084-1.90712-.2225-3.214674-1.6308-1.307555-3.2952-.451495-4.2399-.394856-2.0799.124606-3.4237.2484-4.1034 1.60046-.6796 1.35206-.3991 5.11128.9357 6.41317z" fill="#364154"/><path d="m42.902 35.9181s-7.0019-2.2947-9.4736-5.1113c-2.5085-2.8594-7.0388-8.0913-7.0388-8.0913l.0434-.1739c.3551-1.4271.8496-2.8167 1.4763-4.1493 0 0 .6118 3.595 2.4929 6.0758l1.8812 2.4816s3.094 5.2561 10.6186 8.9684z" fill="url(#s)"/></g></svg>