<svg fill="none" height="99" viewBox="0 0 115 99" width="115" xmlns="http://www.w3.org/2000/svg" xmlns:xlink="http://www.w3.org/1999/xlink"><linearGradient id="a"><stop offset="0" stop-color="#f8db8b"/><stop offset="1" stop-color="#68b790"/></linearGradient><linearGradient id="b" gradientUnits="userSpaceOnUse" x1="86.8621" x2="93.8704" xlink:href="#a" y1="48.687" y2="48.858"/><linearGradient id="c" gradientUnits="userSpaceOnUse" x1="76.7829" x2="110.134" xlink:href="#a" y1="58.0351" y2="60.066"/><linearGradient id="d" gradientUnits="userSpaceOnUse" x1="75.2842" x2="114.574" xlink:href="#a" y1="68.849" y2="73.7694"/><linearGradient id="e" gradientUnits="userSpaceOnUse" x1="31.2708" x2="34.8737" xlink:href="#a" y1="49.4038" y2="49.4475"/><linearGradient id="f" gradientUnits="userSpaceOnUse" x1="17.6205" x2="40.9207" xlink:href="#a" y1="57.9313" y2="58.8191"/><linearGradient id="g" gradientUnits="userSpaceOnUse" x1="8.72403" x2="42.2563" xlink:href="#a" y1="68.8054" y2="71.7463"/><clipPath id="h"><path d="m0 0h115v98.1707h-115z"/></clipPath><g clip-path="url(#h)"><path d="m8.32628 73.936c-13.50052-16.6813-10.11537-45.5955 6.76532-61.6076 20.3159-19.27278 50.3212-10.52611 54.656-9.25045 22.1626 6.46602 43.0954 25.89665 45.0874 49.65805 1.125 13.4232-3.463 32.1522-14.9367 36.7561-8.414 3.3758-13.1447-3.8045-31.7292-3.6691-13.8939.1027-15.4951 4.1477-26.5801 3.5337-2.1975-.1203-21.9872-1.4862-33.26272-15.4207z" fill="#f2f2f2"/><path d="m75.646 82.3679-.1804-.208c8.5393-9.1025 12.1023-23.0296 12.1349-23.1699l.2756.0376c-.035.1403-3.6206 14.1626-12.2301 23.3403z" fill="#223242"/><path d="m87.4602 59.3207s.5011-8.8619 2.8514-14.8793c.714-1.8181 1.5956-3.5658 2.6335-5.2205 0 0 .4034 11.065-5.4849 20.0998z" fill="url(#b)"/><path d="m92.9451 39.2209c-1.432 2.9477-2.218 6.1673-2.3052 9.4434-.0877 5.2631.659 9.1677-5.9609 16.5134 0 0 3.4528-19.4607 8.2661-25.9568z" fill="#223242"/><path d="m79.8956 78.3731c-.8118-.3157.3508-5.4259 2.7237-10.0248 2.7161-5.263 4.7607-5.471 7.5821-10.8719 2.5733-4.9147 1.4809-5.8771 3.6808-9.3256 4.162-6.5287 11.7638-8.857 11.9618-8.075.121.4661-2.505 1.6616-4.309 5.06-2.0802 3.8972-.502 5.8319-1.8672 9.6965-1.551 4.431-4.6229 4.7618-10.6716 11.5712-5.9835 6.7317-9.1006 11.9696-9.1006 11.9696z" fill="url(#c)"/><g fill="#223242"><path d="m79.8955 78.3729s9.0981-8.0925 18.0132-20.4757c0 0-10.9773 7.1803-18.0132 20.4757z"/><path d="m78.0088 82.809c.5663-2.9523 2.235-6.0325 2.2551-6.0651 2.3754-6.0349 5.3496-10.9621 8.8324-14.6212.3258-.3433.6615-.6792 1.0023-1.02 1.6036-1.6115 3.2574-3.2806 4.5102-6.0625.5143-1.168.8813-2.3954 1.0925-3.6541.1889-1.192.5431-2.3518 1.0523-3.446 1.2529-2.6516 3.4954-5.0124 6.6604-6.9923l.107.2681c-3.102 1.9524-5.294 4.2606-6.5143 6.8319-.494 1.0652-.8381 2.1937-1.0223 3.3534-.2148 1.2882-.5903 2.5444-1.1175 3.7392-1.2679 2.8496-2.9517 4.5413-4.5804 6.1778-.3357.3409-.669.6767-1.0022 1.015-3.4453 3.624-6.3945 8.5086-8.7698 14.5185-.0276.0527-1.6663 3.0802-2.2226 5.9723z"/><path d="m78.6877 80.6386s12.7539-9.7141 22.2653-14.8393l-8.211.6566-9.1557 7.2681z"/></g><path d="m78.688 80.6385c2.1674-4.4837 4.4475-7.1578 6.1163-8.7718 2.4105-2.3257 3.7786-2.6465 6.9908-5.8319 2.8615-2.8396 3.2574-4.0651 4.7257-5.3984 2.2776-2.0802 6.2042-3.5839 13.4132-.6241-.802-.2284-1.659-.147-2.403.2281-1.283.6266-5.182 5.9071-9.2963 6.6289s-8.2036 1.2531-12.7789 5.9272c-4.5754 4.6741-6.7678 7.842-6.7678 7.842z" fill="url(#d)"/><path d="m77.5153 82.9945-.2355-.1329 1.2879-2.2881c3.9514-7.0174 9.1106-10.3532 14.0994-13.5812 1.8971-1.1777 3.7304-2.4552 5.4924-3.827 5.9865-4.8369 9.2085-3.7016 9.3415-3.649l-.131.3007c-.032-.0125-3.232-1.1227-9.0677 3.5939-1.7689 1.3787-3.6089 2.6637-5.5124 3.8496-4.9512 3.2029-10.0728 6.5161-13.9741 13.4458z" fill="#223242"/><path d="m40.6944 85.3577.218-.1679c-6.5323-10.6363-7.2189-24.9944-7.2264-25.1373l-.2756-.02c.005.1453.6966 14.6012 7.284 25.3252z" fill="#223242"/><path d="m33.7587 60.4036s1.2954-8.7718.2029-15.1501c-.3336-1.924-.8461-3.8127-1.5309-5.6414 0 0-2.6209 10.7541 1.328 20.7915z" fill="url(#e)"/><path d="m32.4308 39.6121c.8109 3.1753.9331 6.4875.3583 9.714-.9772 5.1829-2.4906 8.8469 2.5057 17.3731.01 0 .5437-19.754-2.864-27.0871z" fill="#223242"/><path d="m37.3343 80.5885c.8594-.1454.7517-5.3859-.6515-10.3682-1.6011-5.6991-3.5555-6.3157-5.2393-12.1752-1.531-5.3307-.2656-6.055-1.7264-9.8745-2.7563-7.2354-9.7396-11.0473-10.0929-10.3205-.2104.4336 2.1123 2.1303 3.2048 5.8244 1.2528 4.238-.674 5.8169-.1253 9.8745.6289 4.6515 3.5706 5.5963 8.1259 13.4834 4.5052 7.7993 6.5047 13.5561 6.5047 13.5561z" fill="url(#f)"/><path d="m37.3343 80.5885s-7.2815-9.7592-13.5306-23.6837c.0075 0 9.3136 9.2454 13.5306 23.6837z" fill="#223242"/><path d="m38.2891 85.3151c.0401-3.0074-.9747-6.3582-.9848-6.3908-1.11-6.3909-3.0343-11.8168-5.7079-16.1024-.2505-.401-.5011-.7995-.7742-1.2005-1.2529-1.9022-2.5358-3.8696-3.1872-6.8444-.2696-1.2467-.3815-2.5224-.3333-3.797.0532-1.2061-.0606-2.4139-.3382-3.5888-.6966-2.8471-2.418-5.6039-5.1166-8.1878l-.1604.2506c2.646 2.5363 4.3323 5.2279 5.0114 8.0048.2684 1.1432.378 2.318.3257 3.4912-.049 1.305.0664 2.6109.3433 3.8871.6665 3.0451 1.9769 5.0425 3.2423 6.9748.2631.401.5212.7945.7692 1.1929 2.651 4.233 4.5528 9.6114 5.6578 15.9746.0151.0577 1.0023 3.3533.9747 6.2981z" fill="#223242"/><path d="m38.0634 83.0596s-10.5489-12.0899-18.8176-19.0271l7.9104 2.2957 7.517 8.9722z" fill="#223242"/><path d="m38.0635 83.0596c-1.2228-4.8294-2.9166-7.9071-4.2271-9.8168-1.8942-2.7568-3.1721-3.3533-5.6753-7.1201-2.2325-3.3583-2.3804-4.639-3.543-6.238-1.8116-2.5062-5.3571-4.7618-13.0119-3.3132.8308-.0633 1.6548.1891 2.3077.7068 1.1276.8721 3.8863 6.8294 7.7676 8.3657 3.8812 1.5363 7.7876 2.8796 11.3256 8.3707s5.0564 9.0449 5.0564 9.0449z" fill="url(#g)"/><path d="m38.7351 85.596.2506-.0827-.8018-2.5062c-2.4581-7.6665-6.838-11.9747-11.0776-16.14-1.6182-1.5382-3.1546-3.1603-4.6029-4.8595-4.8885-5.9448-8.2687-5.4811-8.4165-5.4586l.0677.3208c.0325 0 3.3926-.4486 8.1584 5.3483 1.4587 1.7074 3.0059 3.337 4.6355 4.8821 4.2045 4.1327 8.5543 8.4083 10.9823 15.9846z" fill="#223242"/><path d="m59.5446 98.3726c12.9375 0 23.4255-.6362 23.4255-1.4211 0-.7848-10.488-1.421-23.4255-1.421s-23.4255.6362-23.4255 1.421c0 .7849 10.488 1.4211 23.4255 1.4211z" fill="#bbc5d4" opacity=".52"/><path d="m86.7712 26.6825c-2.2551-4.4761-6.154-6.446-9.945-7.456-3.4403-.9173-6.8856-.02-9.9325 2.2556-1.9377 1.4905-4.3013 2.3222-6.7452 2.3734h-1.2078c-2.444-.0509-4.8076-.8826-6.7452-2.3734-3.0469-2.2731-6.4922-3.1704-9.9325-2.2556-3.7911 1.0025-7.6974 2.9799-9.945 7.456-3.9564 7.882-3.1496 19.5484.7818 27.1147.8269 1.5914.9321 3.664.8344 5.6013-.1453 2.802-.1829 5.431-.1002 8.2354.082 3.455.369 6.9021.8594 10.3231.877 5.827 2.6009 11.6564 5.9635 15.7064.8117.9815 1.7369 1.8631 2.7562 2.6265 2.7563 2.0652 5.7856.1354 7.051-3.5538.8018-2.3333.9371-4.9648 1.1075-7.5186.3758-5.6465 1.8391-10.9195 6.5899-11.5937.2621-.0374.527-.0525.7918-.0451.2018-.0008.4035.0109.6038.0351.2004-.0242.4021-.0359.6039-.0351.2647-.0074.5296.0077.7918.0451 4.7607.6742 6.214 5.9472 6.5899 11.5937.1704 2.5613.3057 5.1929 1.1075 7.5186 1.2654 3.6892 4.2972 5.619 7.0509 3.5538 1.015-.7642 1.9359-1.6458 2.7437-2.6265 3.3601-4.05 5.0865-9.8794 5.9635-15.7064.4904-3.421.7774-6.8681.8595-10.3231.0826-2.8044.0426-5.4334-.1003-8.2354-.0977-1.9373 0-4.0099.8344-5.6013 3.9189-7.5788 4.7257-19.2327.7693-27.1147z" fill="#fff"/><path d="m81.8875 84.5386c-3.8136 2.0626-8.0181.1328-9.7721-3.5538-1.11-2.3358-1.2979-4.9673-1.5335-7.5187-.5186-5.6464-2.5457-10.9195-9.1231-11.5937-.3646-.0362-.7311-.0513-1.0975-.0451-.2781 0-.5562.015-.8344.0351-.2781-.0201-.5587-.0401-.8344-.0351-.3663-.0062-.7328.0088-1.0974.0451-6.5774.6742-8.6045 5.9473-9.1257 11.5937-.233 2.5614-.4234 5.1929-1.5309 7.5187-1.754 3.6866-5.951 5.6164-9.7721 3.5538-.4385-.2381-.862-.5013-1.2804-.7519 1.0198 3.7293 2.5182 7.2004 4.7457 9.8845.8117.9814 1.7369 1.8631 2.7562 2.6265 2.7563 2.0652 5.7856.1354 7.051-3.5538.8018-2.3333.9371-4.9648 1.1075-7.5186.3758-5.6465 1.8391-10.9196 6.5899-11.5937.2622-.0375.527-.0526.7918-.0452.2018-.0008.4035.011.6038.0351.2004-.0241.4021-.0359.6039-.0351.2647-.0074.5296.0077.7918.0452 4.7608.6741 6.214 5.9472 6.5899 11.5937.1704 2.5613.3057 5.1929 1.1075 7.5186 1.2654 3.6892 4.2972 5.619 7.0509 3.5538 1.015-.7642 1.936-1.6458 2.7437-2.6265 2.2276-2.6841 3.726-6.1552 4.7458-9.8845-.4059.2582-.8319.5263-1.2779.7519z" fill="#d9e7fc"/><path d="m59.5447 30.8578c6.6525 0 12.2978-5.0124 14.3374-11.9672-2.433.0602-4.8134.9649-6.9883 2.5889-1.9377 1.4906-4.3013 2.3222-6.7452 2.3734h-1.2078c-2.444-.0508-4.8076-.8825-6.7452-2.3734-2.1749-1.624-4.5553-2.5287-6.9883-2.5889 2.0396 6.9598 7.6848 11.9672 14.3374 11.9672z" fill="#d9e7fc"/></g></svg>