<svg fill="none" height="93" viewBox="0 0 113 93" width="113" xmlns="http://www.w3.org/2000/svg" xmlns:xlink="http://www.w3.org/1999/xlink"><linearGradient id="a"><stop offset="0" stop-color="#f8db8b"/><stop offset="1" stop-color="#68b790"/></linearGradient><linearGradient id="b" gradientUnits="userSpaceOnUse" x1="30.8154" x2="102.342" xlink:href="#a" y1="15.4318" y2="26.7757"/><linearGradient id="c" gradientUnits="userSpaceOnUse" x1="32.6826" x2="104.209" xlink:href="#a" y1="15.4318" y2="26.7757"/><linearGradient id="d"><stop offset="0" stop-color="#067431"/><stop offset="1" stop-color="#2e9f5a"/></linearGradient><linearGradient id="e" gradientUnits="userSpaceOnUse" x1="47.3476" x2="52.4292" xlink:href="#d" y1="6.71787" y2="14.7514"/><linearGradient id="f" gradientUnits="userSpaceOnUse" x1="49.5602" x2="52.7942" xlink:href="#d" y1="16.5323" y2="26.7573"/><linearGradient id="g" gradientUnits="userSpaceOnUse" x1="56.4127" x2="56.548" xlink:href="#d" y1="18.2018" y2="19.4496"/><linearGradient id="h" gradientUnits="userSpaceOnUse" x1="55.4854" x2="55.8338" xlink:href="#d" y1="20.1447" y2="21.3023"/><linearGradient id="i" gradientUnits="userSpaceOnUse" x1="46.3929" x2="58.9706" xlink:href="#d" y1="40.8883" y2="75.4252"/><linearGradient id="j" gradientUnits="userSpaceOnUse" x1="48.2567" x2="60.8344" xlink:href="#d" y1="40.8883" y2="75.4252"/><linearGradient id="k" gradientUnits="userSpaceOnUse" x1="44.491" x2="48.5367" xlink:href="#d" y1="54.633" y2="64.3374"/><linearGradient id="l" gradientUnits="userSpaceOnUse" x1="46.7013" x2="46.8366" xlink:href="#d" y1="57.0846" y2="58.3324"/><linearGradient id="m" gradientUnits="userSpaceOnUse" x1="45.7513" x2="46.1008" xlink:href="#d" y1="59.0262" y2="60.1857"/><linearGradient id="n"><stop offset="0" stop-color="#ffc444"/><stop offset="1" stop-color="#f36f56"/></linearGradient><linearGradient id="o" gradientUnits="userSpaceOnUse" x1="111.098" x2="101.182" xlink:href="#n" y1="21.3632" y2="32.4428"/><linearGradient id="p" gradientUnits="userSpaceOnUse" x1="93.9135" x2="95.3219" xlink:href="#d" y1="87.272" y2="93.5395"/><linearGradient id="q" gradientUnits="userSpaceOnUse" x1="103.886" x2="105.293" xlink:href="#d" y1="87.272" y2="93.5404"/><linearGradient id="r" gradientUnits="userSpaceOnUse" x1="98.1013" x2="127.991" xlink:href="#d" y1="43.5806" y2="67.6942"/><linearGradient id="s" gradientUnits="userSpaceOnUse" x1="98.6748" x2="119.427" xlink:href="#d" y1="47.3024" y2="57.1592"/><linearGradient id="t" gradientUnits="userSpaceOnUse" x1="103.397" x2="102.929" xlink:href="#n" y1="16.1295" y2="19.3151"/><linearGradient id="u" gradientUnits="userSpaceOnUse" x1="107.44" x2="88.8271" xlink:href="#n" y1="25.484" y2="50.3662"/><linearGradient id="v" gradientUnits="userSpaceOnUse" x1="99.347" x2="87.9879" xlink:href="#n" y1="28.339" y2="37.4005"/><linearGradient id="w" gradientUnits="userSpaceOnUse" x1="98.6798" x2="87.1696" xlink:href="#n" y1="22.8635" y2="38.9767"/><linearGradient id="x" gradientUnits="userSpaceOnUse" x1="22.3155" x2="26.8296" xlink:href="#a" y1="8.57317" y2="10.4288"/><linearGradient id="y" gradientUnits="userSpaceOnUse" x1="36.9053" x2="11.3373" xlink:href="#n" y1="54.1982" y2="86.6597"/><linearGradient id="z" gradientUnits="userSpaceOnUse" x1="21.0161" x2="11.3951" xlink:href="#n" y1="30.3945" y2="39.5648"/><linearGradient id="A" gradientUnits="userSpaceOnUse" x1="21.5484" x2="22.5949" xlink:href="#d" y1="90.031" y2="92.2677"/><linearGradient id="B" gradientUnits="userSpaceOnUse" x1="41.4529" x2="43.6208" xlink:href="#d" y1="87.3979" y2="92.5842"/><linearGradient id="C"><stop offset="0" stop-color="#007e33"/><stop offset="1" stop-color="#55b079"/></linearGradient><linearGradient id="D" gradientUnits="userSpaceOnUse" x1="26.6998" x2="47.7585" xlink:href="#C" y1="35.8596" y2="35.8596"/><linearGradient id="E" gradientUnits="userSpaceOnUse" x1="35.7948" x2="15.5111" xlink:href="#n" y1="60.3444" y2="86.7064"/><linearGradient id="F" gradientUnits="userSpaceOnUse" x1="23.2268" x2="1.98759" xlink:href="#n" y1="58.6781" y2="74.239"/><linearGradient id="G" gradientUnits="userSpaceOnUse" x1="20.3257" x2="3.81957" xlink:href="#n" y1="60.6596" y2="68.9603"/><linearGradient id="H" gradientUnits="userSpaceOnUse" x1="12.9502" x2="25.7829" xlink:href="#C" y1="36.5467" y2="36.5467"/><linearGradient id="I" gradientUnits="userSpaceOnUse" x1="16.9376" x2="25.9385" xlink:href="#d" y1="28.1348" y2="33.922"/><linearGradient id="J" gradientUnits="userSpaceOnUse" x1="15.1367" x2="22.8282" xlink:href="#C" y1="28.7288" y2="28.7288"/><path d="m8.1815 72.7951c-13.26577-16.4231-9.93948-44.8896 6.6477-60.654 19.9626-18.97438 49.4462-10.36311 53.7057-9.10719 21.7772 6.36593 42.3451 25.49579 44.3031 48.88939 1.105 13.2154-3.403 31.6544-14.6767 36.1871-8.2678 3.3236-12.9162-3.7456-31.1776-3.6123-13.6523.1012-15.2256 4.0836-26.1179 3.479-2.1592-.1184-21.6049-1.4631-32.6843-15.182z" fill="#f2f2f2"/><path d="m94.483.20459h-57.4132v32.33291h57.4132z" fill="url(#b)"/><path d="m96.3503.20459h-57.4133v32.33291h57.4133z" fill="url(#c)"/><g fill="#f3f9ff"><path d="m61.9785 22.9829c4.0539-4.0553 4.0539-10.6302 0-14.68556-4.054-4.05532-10.6267-4.05533-14.6807-.00001-4.0539 4.05527-4.0539 10.63027 0 14.68557 4.054 4.0554 10.6267 4.0554 14.6807 0z"/><path d="m89.8959 9.83887h-17.197c-.2995.0008-.5865.11981-.7988.33113-.2122.2114-.3325.498-.3347.7976.0025.2995.1228.5859.335.7972s.4991.3304.7985.3315h17.197c.2994-.0011.5863-.1202.7985-.3315s.3325-.4977.335-.7972c-.0025-.2995-.1228-.586-.335-.7973-.2122-.21126-.4991-.33036-.7985-.33143z"/><path d="m89.8959 14.5068h-17.197c-.2995.0008-.5865.1198-.7988.3312-.2122.2114-.3325.498-.3347.7976.0022.2995.1225.5862.3347.7975.2123.2114.4993.3304.7988.3312h17.197c.2994-.0011.5863-.1202.7985-.3315s.3325-.4977.335-.7972c-.0022-.2996-.1225-.5862-.3347-.7976-.2123-.2114-.4993-.3304-.7988-.3312z"/><path d="m89.8954 19.1748h-17.197c-.3005 0-.5887.1194-.8011.332-.2125.2125-.3319.5008-.3319.8013 0 .3006.1194.5889.3319.8014.2124.2126.5006.332.8011.332h17.197c.3005 0 .5886-.1194.8011-.332.2125-.2125.3318-.5008.3318-.8014 0-.3005-.1193-.5888-.3318-.8013-.2125-.2126-.5006-.332-.8011-.332z"/></g><path d="m45.1348 15.4894h9.5047v-9.50795c-1.2482 0-2.4841.24592-3.6373.72374s-2.201 1.17817-3.0836 2.06107c-.8825.8829-1.5827 1.93104-2.0603 3.08464-.4777 1.1535-.7235 2.3899-.7235 3.6385z" fill="url(#e)"/><path d="m64.1432 15.7959h-19.0084c.0002 2.5216 1.0017 4.9398 2.7841 6.7229 1.7825 1.783 4.1999 2.7848 6.7206 2.7851 2.5207-.0003 4.938-1.0021 6.7202-2.7852 1.7823-1.7831 2.7835-4.2013 2.7835-6.7228z" fill="url(#f)"/><path d="m52.9966 10.6016h-5.1575c-.1415 0-.2772.0562-.3772.1562-.1.1001-.1562.2358-.1562.3773 0 .1416.0562.2773.1562.3773.1.1001.2357.1563.3772.1563h5.1575c.1415 0 .2772-.0562.3772-.1563.1-.1.1562-.2357.1562-.3773 0-.1415-.0562-.2772-.1562-.3773-.1-.1-.2357-.1562-.3772-.1562z" fill="#6d89d0"/><path d="m49.0136 12.5439h-1.1745c-.1415 0-.2772.0563-.3772.1563-.1.1001-.1562.2358-.1562.3773s.0562.2773.1562.3773c.1.1001.2357.1563.3772.1563h1.1745c.1414 0 .2771-.0562.3771-.1563.1001-.1.1563-.2358.1563-.3773s-.0562-.2772-.1563-.3773c-.1-.1-.2357-.1563-.3771-.1563z" fill="#6d89d0"/><path d="m60.6554 18.1191h-5.1586c-.1415 0-.2771.0563-.3772.1563-.1.1001-.1562.2358-.1562.3773s.0562.2773.1562.3773c.1001.1001.2357.1563.3772.1563h5.1586c.1414 0 .2771-.0562.3771-.1563.1001-.1.1562-.2358.1562-.3773s-.0561-.2772-.1562-.3773c-.1-.1-.2357-.1563-.3771-.1563z" fill="url(#g)"/><path d="m56.6723 20.062h-1.1755c-.1413.0006-.2767.0569-.3766.1569-.0999.0999-.1563.2353-.1568.3767.0005.1413.0569.2767.1568.3767.0999.0999.2353.1563.3766.1569h1.1755c.1413-.0006.2767-.057.3766-.1569.0999-.1.1563-.2354.1568-.3767-.0005-.1414-.0569-.2768-.1568-.3767-.0999-.1-.2353-.1563-.3766-.1569z" fill="url(#h)"/><path d="m33.0264 38.3271v33.0666h57.4132v-33.0666z" fill="url(#i)"/><path d="m34.8901 38.3271v33.0666h57.4133v-33.0666z" fill="url(#j)"/><path d="m59.9057 58.4568c2.542-5.1405.4369-11.3691-4.7019-13.912-5.1388-2.5428-11.3653-.4369-13.9073 4.7036s-.4368 11.3691 4.702 13.912c5.1387 2.5428 11.3652.437 13.9072-4.7036z" fill="#f3f9ff"/><path d="m68.6539 50.3048h17.1971c.3004 0 .5886-.1194.8011-.332.2124-.2125.3318-.5008.3318-.8014s-.1194-.5888-.3318-.8014c-.2125-.2125-.5007-.3319-.8011-.3319h-17.1971c-.3004 0-.5886.1194-.8011.3319-.2124.2126-.3318.5008-.3318.8014s.1194.5889.3318.8014c.2125.2126.5007.332.8011.332z" fill="#f3f9ff"/><path d="m85.851 52.7061h-17.1971c-.3004 0-.5886.1194-.8011.3319-.2124.2125-.3318.5008-.3318.8014s.1194.5888.3318.8014c.2125.2125.5007.3319.8011.3319h17.1971c.3004 0 .5886-.1194.8011-.3319.2124-.2126.3318-.5008.3318-.8014s-.1194-.5889-.3318-.8014c-.2125-.2125-.5007-.3319-.8011-.3319z" fill="#f3f9ff"/><path d="m85.8512 57.3721h-17.197c-.2985.0024-.5841.1221-.7952.3332-.2111.2112-.3307.4969-.3331.7955.0024.2986.122.5843.3331.7955.2111.2111.4967.3308.7952.3332h17.197c.2994-.001.5863-.1201.7985-.3314s.3326-.4978.335-.7973c-.0022-.2996-.1224-.5862-.3347-.7976-.2122-.2113-.4993-.3303-.7988-.3311z" fill="#f3f9ff"/><path d="m50.5946 54.0083-9.5038-.1211v.1211c0 1.7035.4576 3.3757 1.3248 4.8417.8671 1.4661 2.1122 2.6722 3.6048 3.4922 1.4927.82 3.1781 1.2237 4.8802 1.1691 1.702-.0547 3.3581-.5658 4.7951-1.4798z" fill="url(#k)"/><path d="m50.9439 57.002h-5.1585c-.2946 0-.5334.2388-.5334.5335s.2388.5336.5334.5336h5.1585c.2946 0 .5334-.2389.5334-.5336s-.2388-.5335-.5334-.5335z" fill="url(#l)"/><path d="m46.9613 58.9439h-1.1745c-.072-.0032-.144.0083-.2116.0337-.0675.0254-.1292.0642-.1813.1142-.0521.0499-.0936.1098-.1219.1762-.0284.0664-.043.1378-.043.21s.0146.1436.043.21c.0283.0663.0698.1263.1219.1762s.1138.0887.1813.1142c.0676.0254.1396.0368.2116.0337h1.1745c.1376-.0061.2675-.065.3627-.1645s.1484-.2319.1484-.3696c0-.1378-.0532-.2702-.1484-.3697s-.2251-.1584-.3627-.1644z" fill="url(#m)"/><path d="m105.623 16.6895s6.697 6.916 7.018 9.5233c.321 2.6074-3.186 6.6872-3.186 6.6872z" fill="url(#o)"/><path d="m102.76 88.4338s-.229 3.6766-.94 3.7289c-.094.0072-3.6064.0072-3.6064.0072l-4.4826-.0257s.0297-1.0805 1.3396-1.3093 3.5041-1.1492 4.298-2.8823c.8354-1.8224 3.3914.4812 3.3914.4812z" fill="url(#p)"/><path d="m112.746 88.4338s-.228 3.6766-.939 3.7289c-.094.0072-3.606.0072-3.606.0072l-4.497-.0154s.043-1.0908 1.354-1.3196 3.503-1.1492 4.297-2.8823c.834-1.8224 3.391.4812 3.391.4812z" fill="url(#q)"/><path d="m97.7939 49.0063s1.1725 7.5019 5.5461 20.8178c4.374 13.3159 4.971 19.0858 4.971 19.0858.806.1084 1.619.1656 2.432.1714.791 0 2.257-.3079 2.257-.3079s.04-14.5534-1.976-21.2498c-2.015-6.6964-.433-24.1383-.433-24.1383z" fill="url(#r)"/><path d="m95.5133 43.7964s-.1662 11.3047 1.7899 25.1839c1.9562 13.8793 1.2925 19.7722 1.2925 19.7722s1.6093.2884 2.1743.3079c.606.0205 2.508-.1509 2.508-.1509s2.799-13.8854 1.996-20.8301c-.802-6.9447 3.831-23.8418 3.831-23.8418z" fill="url(#s)"/><path d="m104.576 17.3427-2.208 1.6356-3.1922-.6721c.0441-.2904.2544-1.4981.4462-2.591.0123-.0646.0236-.1292.0349-.1918.1641-.9297.3077-1.7291.3077-1.7291l2.9824-1.4868 1.11-.5541c0 .0195-.086 1.0323-.102 1.18-.205 2.6259.621 4.4093.621 4.4093z" fill="#f4caab"/><path d="m99.4 16.5171c.0698-.0297 4.342-1.2908 4.806-1.1369.463.1539.744 1.0497.744 1.0497l-6.9881 1.5813s.5447-1.1185 1.4381-1.4941z" fill="url(#t)"/><path d="m110.899 45.1917c-.724 3.3051-12.7756 3.694-15.8826.6967-.3539-.3417-.3703-1.9322-.238-4.0778.2616-4.1896 1.0986-10.4941 1.1284-13.714.0312-1.5427.2029-3.0793.5129-4.5909.3685-1.8679.8794-3.7049 1.5283-5.4948 0 0 5.887-1.9034 6.989-1.5792 5.314 1.5587 6.691 25.4559 5.962 28.76z" fill="url(#u)"/><path d="m94.7827 41.8111c.2616-4.1896 1.0986-10.4941 1.1284-13.714.0312-1.5427.2029-3.0793.5128-4.5909l3.541-.6249s3.4661 14.1461-5.1822 18.9298z" fill="url(#v)"/><path d="m96.7011 35.9698s.241.5766-.2657.9645-.836 1.0158-.718 1.4745c.1179.4587 1.2309 1.2067 1.6125 1.0867.3815-.1201 1.1704-.7255 1.0862-.9676-.0841-.2422.5273-2.1231-.4103-2.8475-.9375-.7245-1.3047.2894-1.3047.2894z" fill="#f4caab"/><path d="m100.66 17.1636s-3.4536.6464-6.2047 4.7027c-2.7511 4.0562-4.5626 7.073-4.0559 8.5352s5.1289 6.5322 5.9249 6.5322 2.0812-.5787 2.1541-1.8829c0 0-3.2538-4.8771-2.6127-5.6077.2739-.3078 4.2243-3.5196 4.7873-2.0707.933 2.397.007-10.2088.007-10.2088z" fill="url(#w)"/><path d="m103.734 12.9797c-.654 1.2539-3.094 2.3375-4.1119 2.7356.0123-.0646.0235-.1293.0348-.1919.1642-.9296.3078-1.729.3078-1.729l2.9823-1.4868c.656-.0103 1.057.157.787.6721z" fill="#fca56b"/><path d="m99.0007 13.8646s4.4103 1.377 5.2313-1.3853 1.934-4.44513-.85-5.43841-3.6438-.10262-4.1403.75214c-.4964.85475-1.3694 5.63957-.241 6.07157z" fill="#f4caab"/><path d="m99.4107 7.52059s.2811 3.21481.9453 3.07831c.665-.1364 1.268-.2432 1.171.7255-.098.9686-1.02 2.0881 1.026 2.2574 2.045.1694 4.992-5.11205 4.43-6.11252-1.618-2.88748-9.9162-3.47032-7.5723.05131z" fill="#364154"/><path d="m19.9546 82.2231 1.3437 5.6611 2.0126-.0113.0739-5.6498z" fill="#f4caab"/><path d="m36.8843 82.4647 3.823 5.4199 1.4894-1.9137-2.3008-4.2512z" fill="#f4caab"/><path d="m26.9445 7.83582c-.6944-.39506-1.5274-.43816-2.109-.40327.1278-.10695.2806-.17968.4442-.21138-.3611-.05438-1.1673.30784-1.1673.30784-5.0263-1.93628-5.812 5.46199-5.7064 7.18279.1057 1.7208-1.6884 2.28-4.3021 3.6345-4.98621 2.5848-5.42421 6.0448-5.42421 6.0448.03898.0226.07899.0493.12207.078.24824-.4186.75701-1.2067 1.18681-1.3247-.01641.038-.51289 1.0836-.69137 1.6828 1.471 1.1195 4.2231 3.6007 6.1413 5.3584-.0082-.3437.0051-.8311.1302-1.0887l.237 1.4273c1.0258.943 1.7346 1.608 1.7346 1.608-.1272-1.3894 6.2797-8.722 9.6227-10.9148.8134-1.1985 1.1027-3.3154 1.1283-3.4827-.1405 1.6788-.4267 2.6207-.6842 3.1502 2.8271-2.6084 1.1787-12.00245-.6626-13.04908z" fill="#364154"/><path d="m26.965 21.3211c.0165.0072-1.6135.8548-2.8403.5192-1.154-.315-1.9079-1.8111-1.8915-1.8152.4882-.0964.6288-.7685.6154-3.655l.2216.0441 3.7164.7337s-.0842 1.1688-.0862 2.2708c-.0031.9266.0533 1.8039.2646 1.9024z" fill="#f4caab"/><path d="m22.7656 9.0481s1.832-1.9496 4.1318-.10261c0 .00205-1.3417-.22882-4.1318.10261z" fill="url(#x)"/><path d="m26.7865 17.1478s-.0841 1.1688-.0861 2.2708c-2.0783-.0584-3.1799-1.9557-3.6272-3.0065z" fill="#efbc90"/><path d="m22.6895 16.0099s-1.0894-1.7219-1.351-3.1943c-.1867-1.0508.3488-4.94591 4.2621-4.38462.7878.10922 1.5412.39395 2.2044.8332.8503.57463 2.0761 1.81312.7047 5.21262l-.356 1.1483z" fill="#364154"/><path d="m41.5905 84.4853-1.9695.0595-2.1305.0657s-4.9237-5.4825-7.683-14.2702c-.0647-.2052-.1324-.4104-.2052-.6157-1.5109-4.4122-4.6436-9.9399-6.2951-14.9474-.2626-.7983-.4985-1.5484-.7098-2.2574-.0678-.2278-.1344-.4515-.197-.6711-1.2166-4.2286-1.5684-7.0043-1.8936-9.9708l11.9205.0955s1.9253 20.2483 9.1632 42.5119z" fill="url(#y)"/><path d="m30.7599 35.1148c-.0297 5.6744.833 8.1063.833 8.1063s-5.1043 2.594-11.1706.6844c-.0708-.0226-5.0263-1.1533-5.0263-1.1533.1026-.2289 1.0042-4.0532 1.1027-4.2636 1.2812-2.752 2.2567-3.9577 2.4054-4.8042.2821-1.5782.2883-3.2128.1477-4.753-.2404-2.5315-.7332-5.0326-1.4709-7.466 1.6525-.3766 3.2435-1.02 4.9637-1.6654.3959.4936 1.5622.9912 2.6116.9676 1.2083-.0266 1.5858-.5377 1.5386-1.1133 1.2874.7183 2.3111 1.3986 2.3111 1.3986 1.0945 1.9014 3.3132 3.7484 3.4743 6.6697.0512.7132-1.7192 7.2341-1.7203 7.3922z" fill="#e7f1fd"/><path d="m20.5078 35.7475c-.5211.7377-1.5202 5.2219-4.0005 5.7852 1.2812-3.1953 2.2567-4.597 2.4054-5.579.2821-1.8347.2883-3.733.1478-5.5225.8319-1.4592 1.4524-2.4627 1.4524-2.4627.0657-.236 1.3223-4.124 1.7254-.6485.4031 3.4754-1.1478 7.6025-1.7305 8.4275z" fill="url(#z)"/><path d="m27.4811 18.1929s-4.9176.0811-4.9237-2.9829c-.0062-3.064-.6401-5.1172 2.4988-5.29783 3.1388-.18059 3.7512.98713 4.0005 2.00913.2492 1.022-.2965 6.1721-1.5756 6.2716z" fill="#f4caab"/><path d="m28.9145 10.2178c-.7591-.92348-1.3335-.71825-1.6546-.44428-1.0627-1.58842-4.422.70908-4.422.70908-.2173 1.3398-.8936 2.5623-1.9131 3.458 0 0 .8965.5541 2.9624.0225 1.6259-.4186 2.8055-2.7335 3.2353-3.7011.2923.2596.9088.8609 1.0945 1.4488.2441.7809.3549 2.3868.8206 2.3324.0061 0 1.0165-2.4432-.1231-3.8254z" fill="#364154"/><path d="m21.2311 87.5674c.083.7831-.0045 1.575-.2565 2.3211 0 0-.3292 1.5012 1.1489 1.5289s1.8464-.1109 1.673-1.0323c-.1733-.9215-.4852-2.513-.4852-2.513z" fill="#f4caab"/><path d="m23.9367 92.1572h-3.0588c-.1672-.785.1026-2.2646.1026-2.2646 1.674 1.6007 2.7213-.0401 2.7213-.0401.2657.6814.2349 2.3047.2349 2.3047z" fill="url(#A)"/><path d="m45.7632 90.6057s-2.7255-3.0958-3.5625-4.636l-2.0259 1.0395 4.5298 4.2553 1.0596-.1396z" fill="#f4caab"/><path d="m47.4296 92.1491h-3.7809c-.3334-.2996-.6504-.905-1.0391-1.6972-.2237-.4546-.7181-.7049-1.231-.8424v2.5396h-.7816l-.7242-2.7007c-.4831-.9051-.12-1.7342.2185-2.4494.3949 0 1.5386.2843 3.5533 2.5982.6616.7603 1.3919 1.0261 2.1182 1.0086.0093.0065.0193.012.0297.0164 1.1417.5254 1.5161 1.1719 1.6371 1.5269z" fill="url(#B)"/><path d="m47.247 23.2781s-3.227 1.806-4.38 2.3263c-.4103.1847-1.1529.5305-1.912.8855-.4585.2134-.9232.431-1.3233.6157-.3299.1546-.7014.1966-1.0575.1197s-.6772-.2686-.914-.5456c-1.7438-2.0419-6.2715-6.4645-10.9429-7.0207l-.0153-.0071h-.0062l.0256.0502c.2626.6537 2.824 7.0536 2.903 8.4039.0841 1.4222.3344 23.2672.3344 23.2672s-.1672 1.0046 1.7571.5859c1.9244-.4187 2.427-.8363 2.427-.8363s-1.8464-13.476-1.3397-18.1622c.1026-.9235.0103-1.9496-.1959-3.0209 2.8455 1.7239 6.1997 2.4904 6.1997 2.4904s1.2504-.5459 3.1953-1.7506c.8206-.5069 1.7623-1.3144 2.6937-2.1692 1.1283-1.0323 3.0619-3.5247 3.0619-3.5247z" fill="url(#D)"/><path d="m39.6215 84.5443-2.1306.0656s-4.9236-5.4825-7.683-14.2702c-.0646-.2052-.1323-.4104-.2051-.6156-1.511-4.4123-4.6437-9.94-6.2951-14.9475-.2626-.7983-.4986-1.5484-.7099-2.2574-.0677-.2278-.1343-.4515-.1969-.6711l1.7561-1.3339s5.2694 8.5372 6.9014 16.5717c1.4186 6.9735 7.0942 15.3702 8.5631 17.4584z" fill="url(#E)"/><path d="m24.3401 67.8286c.0308 3.9064-.1672 12.8891-.676 16.6077h-1.8874c-1.0432 0-1.5633-.0144-1.5633-.0144-1.276-6.4645-2.1838-11.8157-2.8454-16.426-.5416-3.7833-1.0258-7.0258-1.3951-9.8179-.3723-2.8105-.6319-5.1634-.7252-7.151-.0144-.3133-.0246-.6177-.0308-.9132-.0061-.2966-.0072-.5859 0-.8661l10.2998-1.0045c-.1344 6.8462-1.192 17.3146-1.1766 19.5854z" fill="url(#F)"/><path d="m21.7766 84.4366c-1.0432 0-1.5633-.0144-1.5633-.0144-1.2761-6.4645-2.1839-11.8157-2.8455-16.426-.5416-3.7833-1.0258-7.0258-1.395-9.8179-.3724-2.8105-.6319-5.1634-.7252-7.151l3.7799 2.2236s-2.4126.8517-1.4925 7.2967c.9201 6.4451 2.9604 22.9768 4.2416 23.889z" fill="url(#G)"/><path d="m22.2628 50.9637s-.7253 2.6227-3.2353 2.2882c-2.5101-.3345-6.0797-1.8419-6.0797-1.8419s1.0729-3.3862 2.4064-7.8446c1.6146-5.3923 3.6138-12.3442 4.5554-16.7257.2262-.9865.3975-1.9847.5129-2.9901l2.1254-4.0439s3.0619 6.9775 3.2291 8.7312c.1672 1.7536-3.5142 22.4268-3.5142 22.4268z" fill="url(#H)"/><path d="m31.2272 30.4953c-1.2073.158-1.671.8004-1.8197 1.6675-.0965.4475-.275.8733-.5262 1.2559-1.2033.0647-4.0693.2206-6.4767.3725l-.199 3.1594c2.4542-.3197 4.869-.8915 7.206-1.7064.2144-.0369.4831-.1703.8206-.4453 1.7335-1.4202 2.7173-3.7967 2.7203-4.1394.0031-.3427-.517-.3232-1.7253-.1642z" fill="#f4caab"/><path d="m22.1522 32.2162c-.1128 2.8454-.7816 8.369-6.7495 11.3263l-.0482.0225c1.6145-5.3922 3.6138-12.3441 4.5554-16.7256 1.0966 1.6346 2.3029 3.8099 2.2423 5.3768z" fill="url(#I)"/><path d="m22.5477 19.8022s-5.1053.3623-6.3321 3.0969-1.6176 11.829-.0564 14.5072c0 0 2.1541.6156 5.9495-.1026l.1405-.0267s1.2135-2.9757.1262-3.5576c0 0-3.2076.1673-2.8722-.8927.3354-1.0599 3.0445-13.0245 3.0445-13.0245z" fill="url(#J)"/><path d="m50.7075 21.1323c-2.746-.353-3.4394 2.1456-3.4394 2.1456l.5128 1.7167c.8463.117 1.5869-.1026 2.2701-1.0815.6831-.9789.8698-.6013 1.3047-1.334.5878-.9809-.3333-1.3483-.6482-1.4468z" fill="#f4caab"/><path d="m42.8661 25.6045c-.4103.1847-1.1529.5305-1.912.8856.4103.7182.914 2.0317 1.0494 4.1988.9965-.6495 1.9245-1.3986 2.7695-2.2359 1.4474-1.4211 2.9819-3.458 2.9819-3.458l-.5128-1.7167s-3.223 1.806-4.376 2.3262z" fill="#f4caab"/></svg>