<svg fill="none" height="96" viewBox="0 0 117 96" width="117" xmlns="http://www.w3.org/2000/svg" xmlns:xlink="http://www.w3.org/1999/xlink"><linearGradient id="a" gradientUnits="userSpaceOnUse" x1="3.87558" x2="63.4751" y1="38.6992" y2="44.0392"><stop offset="0" stop-color="#f8db8b"/><stop offset="1" stop-color="#68b790"/></linearGradient><linearGradient id="b"><stop offset="0" stop-color="#067431"/><stop offset="1" stop-color="#2e9f5a"/></linearGradient><linearGradient id="c" gradientUnits="userSpaceOnUse" x1="61.9257" x2="96.8028" xlink:href="#b" y1="34.2034" y2="55.7218"/><linearGradient id="d" gradientUnits="userSpaceOnUse" x1="22.9099" x2="57.8203" xlink:href="#b" y1="33.134" y2="91.9944"/><linearGradient id="e"><stop offset="0" stop-color="#ffc444"/><stop offset="1" stop-color="#f36f56"/></linearGradient><linearGradient id="f" gradientUnits="userSpaceOnUse" x1="62.4274" x2="42.1493" xlink:href="#e" y1="52.9847" y2="61.8876"/><linearGradient id="g" gradientUnits="userSpaceOnUse" x1="69.4329" x2="91.2877" xlink:href="#b" y1="40.0472" y2="84.4267"/><linearGradient id="h" gradientUnits="userSpaceOnUse" x1="43.1752" x2="47.0238" xlink:href="#b" y1="73.3926" y2="89.1223"/><linearGradient id="i" gradientUnits="userSpaceOnUse" x1="103.413" x2="93.9385" xlink:href="#e" y1="68.1743" y2="105.425"/><linearGradient id="j" gradientUnits="userSpaceOnUse" x1="105.972" x2="96.3627" xlink:href="#e" y1="66.4253" y2="104.084"/><linearGradient id="k" gradientUnits="userSpaceOnUse" x1="63.1792" x2="63.6945" xlink:href="#e" y1="90.2648" y2="86.7704"/><linearGradient id="l" gradientUnits="userSpaceOnUse" x1="38.8853" x2="106.662" y1="92.4262" y2="92.4262"><stop offset="0" stop-color="#007e33"/><stop offset="1" stop-color="#55b079"/></linearGradient><clipPath id="m"><path d="m9 0h108v93h-108z"/></clipPath><path d="m8.47111 79.2489c-13.73535-16.9767-10.29132-46.4028 6.88299-62.6985 20.6693-19.61402 51.1966-10.71247 55.6068-9.41422 22.5481 6.58052 43.8441 26.35522 45.8711 50.53732 1.145 13.6609-3.523 32.7215-15.196 37.4069-8.5604 3.4356-13.3734-3.8718-32.2812-3.7341-14.1355.1046-15.7645 4.2213-27.0424 3.5964-2.2357-.1225-22.3697-1.5125-33.84129-15.6938z" fill="#f2f2f2"/><g clip-path="url(#m)"><path d="m50.6527 48.5459c.791-1.68 1.3425-3.462 1.6385-5.2943l3.7492-1.1224-.4036-4.2202-.4036-4.2201-3.8944-.4023c-.6274-1.747-1.4997-3.3968-2.591-4.9l1.8524-3.4357-3.2729-2.7034-3.273-2.7075-3.0389 2.45c-1.6865-.7803-3.4741-1.322-5.311-1.6092l-1.0977-3.7656-4.2335.4023-4.2335.4023-.4116 3.8541c-1.7519.627-3.4066 1.4964-4.9155 2.5828l-3.4425-1.8466-2.7282 3.2868-2.716 3.2627 2.4618 3.0333c-.7928 1.6779-1.3444 3.4589-1.6385 5.2903l-3.7492 1.1224.40357 4.2201.40357 4.2202 3.89046.4023c.6322 1.7457 1.5056 3.3949 2.5949 4.9l-1.8564 3.4316 3.273 2.7035 3.273 2.7075 3.0429-2.45c1.6853.7885 3.473 1.3383 5.311 1.6333l1.126 3.7334 4.2335-.4023 4.2334-.4023.4036-3.8822c1.7466-.6173 3.3984-1.4744 4.9074-2.5466l3.4425 1.8466 2.7161-3.2627 2.712-3.2627zm-24.7874-.4868c-1.587-1.3121-2.748-3.0638-3.3362-5.0337-.5882-1.9698-.5772-4.0693.0315-6.0329.6088-1.9637 1.7881-3.7032 3.3886-4.9988 1.6006-1.2955 3.5506-2.0888 5.6035-2.2795 2.0529-.1908 4.1164.2296 5.9296 1.2079 1.8131.9784 3.2946 2.4707 4.2569 4.2884.9624 1.8176 1.3624 3.879 1.1495 5.9232-.2129 2.0443-1.0291 3.9798-2.3455 5.5616-.8736 1.0507-1.9464 1.9195-3.157 2.5567s-2.5354 1.0304-3.8985 1.157c-1.3631.1267-2.7379-.0157-4.0457-.4189-1.3079-.4032-2.5233-1.0594-3.5767-1.931z" fill="url(#a)"/><path d="m69.2614 13.9922s4.0357 15.9915-5.65 20.3605c-9.6858 4.369-7.8172-3.6207-7.8172-3.6207s-3.9671-1.0983 6.8284-7.2012c5.077-2.8845 6.6388-9.5386 6.6388-9.5386z" fill="#bbd070"/><path d="m94.5895 15.3882s1.9815 13.9317-16.3205 19.9662-20.9131 13.6783-20.9131 13.6783-.5529-30.9089 37.2336-33.6445z" fill="#97a43c"/><path d="m57.2754 43.3399c-5.4281-2.0638 7.4741-13.1351 17.3859-12.8374 9.9117.2977 16.6352 3.9586 23.278 2.4138 0-.004-13.9394 20.5938-40.6639 10.4236z" fill="#48753a"/><path d="m75.5087 52.5927c.3147-4.2027.5327-8.1359.6537-11.7995-1.017-.5391-2.2398-1.1667-3.2285-1.6294-3.0309-1.4402-7.2643-3.3753-9.9602-4.6144-1.586-.7241-3.1398-1.2551-3.1398-1.2551s-10.8238-1.0339-11.7036-.9776c-1.1588.3099-2.2954.697-3.4021 1.1586-3.838 1.4523-11.2395 4.4253-12.4179 5.2541-1.7273 1.231-7.9101 31.4438-8.0715 33.4956-.1614 2.0517 8.4105 4.7189 16.3447 6.8109 0 3.0615-.0686 7.3541-.1372 11.2645 0 .6718-.0242 1.3276-.0363 1.9632h34.7072c-.0484-.6719-.0888-1.3357-.1251-1.9632 0-.0845 0-.165 0-.2454-.1292-2.6552-.6498-7.4064-.5166-12.0329 0 0-.0847-4.8799.4036-6.9799.0847-9.269.6296-18.4495.6296-18.4495zm-44.0298 17.7616c.0565-3.9345 5.311-11.2645 5.311-11.2645.0804-.035.1626-.0659.2462-.0925 0 0 .2704-.0362.2704-.0322s.8071-.7724.8071-.7724c.1897.7 1.9332 10.5805 2.3569 16.3334-4.9155-.9534-9.0198-2.2931-8.9916-4.1718z" fill="#dbd8e3"/><path d="m76.1745 90.3044c-.23-1.6373-.448-3.2747-.6417-4.8799-.0605-.535-.1251-1.062-.1856-1.6092-.0022-.0268-.0022-.0537 0-.0804-.2543-2.2087-.4641-4.3288-.6175-6.2679-.0961-1.455-.0312-2.9161.1937-4.3569.6054-9.9208.904-20.3766.904-20.3766.3189-4.2805.5005-8.2834.6215-12.0127 0 0-13.5923-6.4006-14.8232-6.7667 0 0 2.5789 6.0345 4.512 19.5237.7425 5.1776 2.1187 13.8995 3.1196 22.7984.5408 4.8035 1.5537 9.6955 2.3246 14.0242.117.6719.23 1.3236.3349 1.9632h4.5483c-.1292-.6477-.222-1.3034-.2906-1.9592z" fill="url(#c)"/><path d="m53.5221 74.3773c.5368-5.0167 1.0171-10.0214.787-12.761-1.8766-22.0502-7.1795-27.8835-7.9504-28.7364-.5932.2253-2.8573 1.0701-3.5191 1.3316-3.6322 1.4282-11.0216 4.023-12.0184 4.7552-1.7273 1.231-8.5396 32.9042-8.7454 34.9519-.1372 1.388 8.7535 4.2805 17.8217 6.8633-.0807 2.4782.1534 5.9742-.6739 9.6271-.2093.6203-.3448 1.263-.4036 1.9149l12.6439-.0523c.0767-.6517.1574-1.3034.2381-1.9632.2422-1.9673.4924-3.9868.7426-6.1311 3.7936.9776 6.3724 1.6092 6.3724 1.6092s3.5595-6.0023 4.5927-8.4483c.1896-.4063-4.3949-1.5046-9.8876-2.9609zm-16.3487-7.5874c-.121-4.5139-.1009-7.6438-.1009-7.6438.448 1.5449 1.0695 5.9662 1.6143 10.3593-1.8362-.9494-1.4932-1.8104-1.5134-2.7196z" fill="url(#d)"/><path d="m47.5774 32.6586s1.3762-2.5908.9968-9.9529c-.1089-2.0397 10.7471 4.8276 10.7471 4.8276s-.0403.704-.0605 1.6535v1.2712.3702.5994c0 .1971 0 .4868.0283.7201.0282.2333.0282.519.0524.7483.08.4949.2154.9794.4036 1.4443.4843 1.1505-8.1037 1.2189-12.1677-1.6817z" fill="#efbc90"/><path d="m56.6739 37.3418 2.0179 2.6793s-1.1704 1.565-3.2528.4023z" fill="#e8734d"/><path d="m58.1389 40.1293s7.3289 17.8421 5.767 40.5078l-2.3124 4.2-2.6071-3.5604s-.4036-30.1002-2.4981-41.1956z" fill="url(#f)"/><path d="m58.8209 34.8472-2.1429 2.4943s-3.4344-.6638-4.4393-2.45c-1.0049-1.7863 6.5822-.0443 6.5822-.0443z" fill="#efbc90"/><path d="m59.3094 32.6587s-.2502 1.9069-2.6353 4.6828l2.603 3.4879 1.4085-7.2414z" fill="#c4c1cc"/><path d="m48.2313 30.3696s4.968 5.6041 8.4427 6.9719l-1.6143 3.9868-7.9423-8.7219z" fill="#c4c1cc"/><path d="m99.3194 81.0679s-6.5984-6.3765-10.9206-7.4386c-2.0179-.4908-4.6371-3.2425-7.1392-6.481-.8072-1.0621-1.6345-2.1805-2.4215-3.2869-3.0711-4.4253-5.4805-8.6575-5.4805-8.6575s-9.0763-10.6046-1.7918-15.3317c0 0 3.1236-.0684 4.8428.8609 1.7192.9294 5.5169 8.7662 6.1545 10.1501s7.5347 14.2334 7.9948 14.5231c.4601.2896 1.2349 1.3477 3.9953 2.8161 3.3779 1.8144 8.6888 7.1207 8.6888 7.1207z" fill="url(#g)"/><path d="m67.6551 88.4579c-.4488-.012-.8928-.0948-1.3156-.2454 0 0-.6901-.4426-1.2107-.7282-.1615-.0885-.3067-.1609-.4036-.2011-.7908-.2297-1.5391-.5857-2.2156-1.0541-.8677-.6557-3.6927-3.2948-3.6927-3.2948l1.8242-2.8161.8474-2.7759s6.6146.6557 7.4823 1.1787c.0835.0508.1643.1058.2421.165.7022.5109 1.009 1.2069 1.348 1.4965.121.1167 1.2712 1.3437 1.2107 1.8386-.017.2783-.1049.5477-.2553.7828s-.3584.4281-.6043.5608c0 0-.2341 1.3437-.9323 1.9432-.0594.3674-.2032.7162-.4202 1.0191s-.5014.5517-.8309.7268c0 0-.3228 1.2432-1.0735 1.4041z" fill="#efbc90"/><path d="m57.1584 3.70911s11.9174-2.864388 9.4072 12.17769c-2.5102 15.042-5.3715 16.261-12.6278 13.2759-7.2562-2.9851-6.7558-12.6162-7.1876-17.3231-.4318-4.70691 6.5944-7.90923 10.4082-8.13049z" fill="#f4caab"/><path d="m50.895 14.125c-.1736-1.3195-2.825-1.7661-2.9865.2213-.1614 1.9874 1.2713 5.4472 2.26 5.0891.9888-.358.9848-3.4879.7265-5.3104z" fill="#efbc90"/><path d="m47.4443 19.5114s.2381-4.731 1.9695-4.904c1.7313-.173 2.0178 1.7258 2.0178 1.7258l1.7556.3058s-.6135-4.1357 1.1058-4.884c1.7192-.7482 11.2354 2.1162 12.6035.8811s.5933-9.63111-1.9331-10.74548c-2.5264-1.114375-9.496-3.58853-14.5286-.08448 0 0-3.9671-.4023-4.5079 2.81611s.4076 12.53575 1.5174 14.88915z" fill="#16202e"/><path d="m63.7486 77.3463-4.9195 8.4483s-13.0354-3.3512-16.0784-4.2041l6.9536-8.2511s10.2507 2.3253 14.0443 4.0069z" fill="url(#h)"/><path d="m59.277 32.1558c-1.8176-.1494-3.5727-.7317-5.1177-1.6977-1.545-.9661-2.8348-2.2879-3.7609-3.8541 2.353 2.3511 5.5094 3.7304 8.8383 3.8621v.3701.5994c0 .1972.0282.4868.0403.7202z" fill="#a77860"/><path d="m72.9985 70.423c7.4056 7.5995 17.1962 17.1743 17.1962 17.1743l3.8259-7.2415s-8.6929-10.1581-14.5891-16.9369c-1.804.9012-5.1214 2.9891-6.433 7.0041z" fill="#eea886"/><path d="m68.4221 80.6455c.8653.4021 1.7026.8618 2.5061 1.3759.5206.4264 2.6313 2.0115 3.1439 2.3736.5125.362-.7709 1.4241-4.5443-.2052s-1.1057-3.5443-1.1057-3.5443z" fill="#eea886"/><path d="m68.5956 58.8848-3.4748 32.2203h45.7532l3.479-32.2203z" fill="url(#i)"/><path d="m113.485 89.6167h-46.1122l3.5151-32.5864h46.1121zm-45.7167-.354h45.3977l3.439-31.8623h-45.3983z" fill="url(#j)"/><path d="m61.4806 91.1011h7.6437v-2.9006h-7.6437z" fill="url(#k)"/><path d="m87.1963 74.4781c-.3713 1.7943.4681 3.4799 1.8726 3.7655 1.4044.2857 2.825-.9373 3.2083-2.7316.3834-1.7942-.4721-3.4799-1.8766-3.7655-1.4044-.2857-2.8371.9373-3.2043 2.7316z" fill="#cfa345"/><path d="m38.8723 91.8521h67.7872v1.14815h-67.7872z" fill="url(#l)"/></g></svg>