<svg fill="none" height="92" viewBox="0 0 119 92" width="119" xmlns="http://www.w3.org/2000/svg" xmlns:xlink="http://www.w3.org/1999/xlink"><linearGradient id="a"><stop offset="0" stop-color="#007e33"/><stop offset="1" stop-color="#55b079"/></linearGradient><linearGradient id="b" gradientUnits="userSpaceOnUse" x1="24.9866" x2="107.486" xlink:href="#a" y1="59.7598" y2="59.7598"/><linearGradient id="c"><stop offset="0" stop-color="#c9e0f7"/><stop offset="1" stop-color="#9ebcdb"/></linearGradient><linearGradient id="d" gradientUnits="userSpaceOnUse" x1="24.9707" x2="107.483" xlink:href="#c" y1="34.2343" y2="34.2343"/><linearGradient id="e" gradientUnits="userSpaceOnUse" x1="59.7134" x2="99.884" xlink:href="#c" y1="59.7563" y2="59.7563"/><linearGradient id="f"><stop offset="0" stop-color="#f8db8b"/><stop offset="1" stop-color="#68b790"/></linearGradient><linearGradient id="g" gradientUnits="userSpaceOnUse" x1="55.3373" x2="69.091" xlink:href="#f" y1="59.6911" y2="82.4168"/><linearGradient id="h" gradientUnits="userSpaceOnUse" x1="59.7134" x2="99.884" xlink:href="#c" y1="66.2661" y2="66.2661"/><linearGradient id="i" gradientUnits="userSpaceOnUse" x1="55.3373" x2="69.091" xlink:href="#f" y1="66.2052" y2="88.9309"/><linearGradient id="j" gradientUnits="userSpaceOnUse" x1="59.7134" x2="99.884" xlink:href="#c" y1="72.7803" y2="72.7803"/><linearGradient id="k" gradientUnits="userSpaceOnUse" x1="55.3373" x2="69.091" xlink:href="#f" y1="72.7194" y2="95.4451"/><linearGradient id="l"><stop offset="0" stop-color="#ffc444"/><stop offset="1" stop-color="#f36f56"/></linearGradient><linearGradient id="m" gradientUnits="userSpaceOnUse" x1="85.5287" x2="85.2369" xlink:href="#l" y1="45.3469" y2="53.3546"/><linearGradient id="n"><stop offset="0" stop-color="#ff5d57"/><stop offset="1" stop-color="#8c251f"/></linearGradient><linearGradient id="o" gradientUnits="userSpaceOnUse" x1="31.2525" x2="101.202" xlink:href="#n" y1="46.7237" y2="46.7237"/><linearGradient id="p" gradientUnits="userSpaceOnUse" x1="30.7613" x2="29.4077" xlink:href="#l" y1="33.5511" y2="37.0343"/><linearGradient id="q" gradientUnits="userSpaceOnUse" x1="33.6567" x2="35.8277" xlink:href="#a" y1="34.2409" y2="34.2409"/><linearGradient id="r" gradientUnits="userSpaceOnUse" x1="37.7625" x2="40.5259" xlink:href="#f" y1="34.146" y2="34.3105"/><linearGradient id="s" gradientUnits="userSpaceOnUse" x1="94.219" x2="96.9703" xlink:href="#f" y1="46.6628" y2="46.9085"/><linearGradient id="t" gradientUnits="userSpaceOnUse" x1="96.5087" x2="97.8843" xlink:href="#f" y1="48.3228" y2="48.4457"/><linearGradient id="u" gradientUnits="userSpaceOnUse" x1="31.5116" x2="54.2844" xlink:href="#c" y1="68.9663" y2="68.9663"/><linearGradient id="v" gradientUnits="userSpaceOnUse" x1="29.0012" x2="57.8893" xlink:href="#f" y1="68.3202" y2="70.9004"/><linearGradient id="w" gradientUnits="userSpaceOnUse" x1="51.8716" x2="47.3596" xlink:href="#l" y1="60.7129" y2="72.3234"/><linearGradient id="x" gradientUnits="userSpaceOnUse" x1="43.2008" x2="54.5197" xlink:href="#n" y1="63.009" y2="63.009"/><linearGradient id="y" gradientUnits="userSpaceOnUse" x1="47.4084" x2="44.7012" xlink:href="#l" y1="17.1188" y2="24.0851"/><linearGradient id="z" gradientUnits="userSpaceOnUse" x1="55.2495" x2="52.1782" xlink:href="#l" y1="17.1188" y2="23.7049"/><linearGradient id="A" gradientUnits="userSpaceOnUse" x1="57.9183" x2="66.1721" xlink:href="#f" y1="18.3086" y2="19.0458"/><linearGradient id="B" gradientUnits="userSpaceOnUse" x1="66.6034" x2="74.8571" xlink:href="#f" y1="18.3086" y2="19.0458"/><linearGradient id="C" gradientUnits="userSpaceOnUse" x1="28.8311" x2="20.5815" xlink:href="#l" y1="8.15975" y2="30.5055"/><linearGradient id="D" gradientUnits="userSpaceOnUse" x1="9.28878" x2="5.09142" xlink:href="#l" y1="24.8851" y2="36.7661"/><path d="m9.54352 75.2489c-13.85276-16.9767-10.379284-46.4028 6.94178-62.6985 20.846-19.61402 51.6342-10.71247 56.0821-9.41422 22.7408 6.58051 44.2196 26.35522 46.2636 50.53732 1.154 13.6609-3.554 32.7215-15.326 37.4069-8.6339 3.4356-13.488-3.8718-32.5574-3.7341-14.2564.1046-15.8993 4.2213-27.2736 3.5964-2.2548-.1225-22.5608-1.5125-34.13048-15.6938z" fill="#f2f2f2"/><path d="m103.723 31.5264h-74.9917c-2.0769 0-3.7606 1.6611-3.7606 3.7102v49.0356c0 2.0491 1.6837 3.7102 3.7606 3.7102h74.9917c2.077 0 3.76-1.6611 3.76-3.7102v-49.0356c0-2.0491-1.683-3.7102-3.76-3.7102z" fill="url(#b)"/><path d="m103.723 31.5264h-74.9919c-.9973 0-1.9538.3555-2.659.9883s-1.1014 1.4911-1.1014 2.386v2.0541h82.5123v-2.0372c.003-.4446-.093-.8852-.28-1.2965-.188-.4114-.465-.7853-.814-1.1005-.35-.3151-.765-.5651-1.223-.7358-.457-.1706-.948-.2584-1.443-.2584z" fill="url(#d)"/><path d="m98.7049 60.8398h-37.8124c-.3119 0-.6111-.114-.8321-.317-.221-.2031-.3458-.4787-.347-.7665 0-.2885.1242-.5652.3453-.7692.2212-.204.5211-.3186.8338-.3186h37.8124c.3127 0 .6126.1146.8338.3186.2211.204.3453.4807.3453.7692-.0012.2878-.126.5634-.347.7665-.221.203-.5202.317-.8321.317z" fill="url(#e)"/><path d="m98.7049 60.8398h-37.8124c-.3119 0-.6111-.114-.8321-.317-.221-.2031-.3458-.4787-.347-.7665 0-.2885.1242-.5652.3453-.7692.2212-.204.5211-.3186.8338-.3186h37.8124c.3127 0 .6126.1146.8338.3186.2211.204.3453.4807.3453.7692-.0012.2878-.126.5634-.347.7665-.221.203-.5202.317-.8321.317z" stroke="url(#g)" stroke-miterlimit="10"/><path d="m98.7049 67.354h-37.8124c-.3127 0-.6126-.1146-.8338-.3186-.2211-.204-.3453-.4808-.3453-.7693.0012-.2877.126-.5633.347-.7664s.5202-.3171.8321-.3171h37.8124c.3119 0 .6111.114.8321.3171s.3458.4787.347.7664c0 .2885-.1242.5653-.3453.7693-.2212.204-.5211.3186-.8338.3186z" fill="url(#h)"/><path d="m98.7049 67.354h-37.8124c-.3127 0-.6126-.1146-.8338-.3186-.2211-.204-.3453-.4808-.3453-.7693.0012-.2877.126-.5633.347-.7664s.5202-.3171.8321-.3171h37.8124c.3119 0 .6111.114.8321.3171s.3458.4787.347.7664c0 .2885-.1242.5653-.3453.7693-.2212.204-.5211.3186-.8338.3186z" stroke="url(#i)" stroke-miterlimit="10"/><path d="m98.7049 73.8682h-37.8124c-.3127 0-.6126-.1147-.8338-.3187-.2211-.204-.3453-.4807-.3453-.7692 0-.1427.0305-.2839.0898-.4157.0594-.1317.1463-.2513.2558-.352.1096-.1007.2396-.1804.3826-.2346.1431-.0542.2963-.0818.4509-.0812h37.8124c.1546-.0006.3079.027.4509.0812s.2731.1339.3826.2346c.1096.1007.1965.2203.2558.352.0593.1318.0898.273.0898.4157 0 .2885-.1242.5652-.3453.7692-.2212.204-.5211.3187-.8338.3187z" fill="url(#j)"/><path d="m98.7049 73.8682h-37.8124c-.3127 0-.6126-.1147-.8338-.3187-.2211-.204-.3453-.4807-.3453-.7692 0-.1427.0305-.2839.0898-.4157.0594-.1317.1463-.2513.2558-.352.1096-.1007.2396-.1804.3826-.2346.1431-.0542.2963-.0818.4509-.0812h37.8124c.1546-.0006.3079.027.4509.0812s.2731.1339.3826.2346c.1096.1007.1965.2203.2558.352.0593.1318.0898.273.0898.4157 0 .2885-.1242.5652-.3453.7692-.2212.204-.5211.3187-.8338.3187z" stroke="url(#k)" stroke-miterlimit="10"/><path d="m97.4562 43.4688h-62.4583c-1.9402 0-3.513 1.4572-3.513 3.2549v.0043c0 1.7976 1.5728 3.2549 3.513 3.2549h62.4583c1.9402 0 3.5128-1.4573 3.5128-3.2549v-.0043c0-1.7977-1.5726-3.2549-3.5128-3.2549z" fill="url(#m)"/><path d="m97.4562 43.4688h-62.4583c-1.9402 0-3.513 1.4572-3.513 3.2549v.0043c0 1.7976 1.5728 3.2549 3.513 3.2549h62.4583c1.9402 0 3.5128-1.4573 3.5128-3.2549v-.0043c0-1.7977-1.5726-3.2549-3.5128-3.2549z" stroke="url(#o)" stroke-miterlimit="10"/><path d="m29.8566 35.8691c.8994 0 1.6285-.7291 1.6285-1.6285s-.7291-1.6285-1.6285-1.6285c-.8995 0-1.6286.7291-1.6286 1.6285s.7291 1.6285 1.6286 1.6285z" fill="url(#p)"/><path d="m34.7419 35.8691c.5997 0 1.0857-.7291 1.0857-1.6285s-.486-1.6285-1.0857-1.6285c-.5996 0-1.0857.7291-1.0857 1.6285s.4861 1.6285 1.0857 1.6285z" fill="url(#q)"/><path d="m40.1704 34.2406c0 .3221-.0637.637-.183.9048s-.2888.4765-.4872.5998c-.1984.1232-.4167.1555-.6273.0926-.2106-.0628-.404-.2179-.5559-.4456-.1518-.2278-.2552-.518-.2971-.8339s-.0204-.6433.0618-.9409c.0821-.2976.2213-.5519.3998-.7309.1786-.1789.3885-.2744.6032-.2744.288 0 .5641.1715.7677.477.2036.3054.318.7196.318 1.1515z" fill="url(#r)"/><path d="m96.627 46.7263c-.0001.2133-.0631.4219-.181.5997-.1179.1777-.2856.3168-.4821.3999-.1965.083-.4131.1063-.6228.067-.2096-.0393-.4031-.1395-.5561-.2881-.1531-.1486-.2589-.339-.3044-.5474s-.0287-.4256.0485-.6245c.0772-.1988.2113-.3706.3855-.4937s.3809-.1922.5941-.1986c.1453-.0043.29.0205.4255.0731s.259.1319.3633.2332c.1043.1012.1872.2224.2438.3563s.0857.2778.0857.4231z" stroke="url(#s)" stroke-linecap="round" stroke-miterlimit="10"/><path d="m96.627 47.8115 1.0856 1.0857" stroke="url(#t)" stroke-linecap="round" stroke-miterlimit="10"/><path d="m49.1933 70.0357c-.2002 1.149-.7122 2.221-1.4802 3.0988s-1.7624 1.5278-2.8747 1.879-2.2997.3901-3.4325.1124c-1.1329-.2777-2.1677-.8613-2.9914-1.6871-.8238-.8257-1.4048-1.8619-1.6797-2.9954s-.2331-2.3207.1209-3.4321c.3539-1.1113 1.0064-2.1041 1.8862-2.8698.8798-.7658 1.9531-1.2751 3.1027-1.4725v-5.0862c-2.1589.2022-4.2157 1.0145-5.9301 2.3422-1.7144 1.3276-3.0155 3.1156-3.7515 5.1551-.7359 2.0396-.8762 4.2465-.4045 6.3628s1.5359 4.0547 3.0683 5.5888c1.5324 1.534 3.4698 2.6003 5.5857 3.0743s4.323.3361 6.3635-.3975c2.0405-.7337 3.83-2.0328 5.1596-3.7457 1.3295-1.7128 2.1442-3.7686 2.3488-5.9271z" fill="url(#u)"/><path d="m49.1933 70.0357c-.2002 1.149-.7122 2.221-1.4802 3.0988s-1.7624 1.5278-2.8747 1.879-2.2997.3901-3.4325.1124c-1.1329-.2777-2.1677-.8613-2.9914-1.6871-.8238-.8257-1.4048-1.8619-1.6797-2.9954s-.2331-2.3207.1209-3.4321c.3539-1.1113 1.0064-2.1041 1.8862-2.8698.8798-.7658 1.9531-1.2751 3.1027-1.4725v-5.0862c-2.1589.2022-4.2157 1.0145-5.9301 2.3422-1.7144 1.3276-3.0155 3.1156-3.7515 5.1551-.7359 2.0396-.8762 4.2465-.4045 6.3628s1.5359 4.0547 3.0683 5.5888c1.5324 1.534 3.4698 2.6003 5.5857 3.0743s4.323.3361 6.3635-.3975c2.0405-.7337 3.83-2.0328 5.1596-3.7457 1.3295-1.7128 2.1442-3.7686 2.3488-5.9271z" stroke="url(#v)" stroke-miterlimit="10"/><path d="m43.4272 57.5828v5.0095c1.5157.1065 2.9419.7567 4.0163 1.8311s1.7247 2.5006 1.8312 4.0163h5.0095c-.1149-2.8427-1.2956-5.5379-3.3074-7.5496-2.0117-2.0117-4.7069-3.1924-7.5496-3.3073z" fill="url(#w)"/><path d="m43.4272 57.5828v5.0095c1.5157.1065 2.9419.7567 4.0163 1.8311s1.7247 2.5006 1.8312 4.0163h5.0095c-.1149-2.8427-1.2956-5.5379-3.3074-7.5496-2.0117-2.0117-4.7069-3.1924-7.5496-3.3073z" stroke="url(#x)" stroke-miterlimit="10"/><path d="m45.5989 15.2407 1.0055 2.1428 2.2516.3436-1.6262 1.6728.3849 2.355-2.0158-1.1118-2.0159 1.1118.3849-2.355-1.6261-1.6728 2.2516-.3436z" fill="url(#y)"/><path d="m53.7396 15.2407.8413 2.1428 1.8749.3436-1.3581 1.6728.3205 2.355-1.6786-1.1118-1.6746 1.1118.3165-2.355-1.3542-1.6728 1.875-.3436z" fill="url(#z)"/><path d="m61.8874 15.2407 1.0048 2.1428 2.2499.3436-1.6298 1.6728.3846 2.355-2.0095-1.1118-2.0143 1.1118.3846-2.355-1.6298-1.6728 2.2499-.3436z" fill="url(#A)"/><path d="m70.5725 15.2407 1.0047 2.1428 2.2499.3436-1.6249 1.6728.3846 2.355-2.0143-1.1118-2.0144 1.1118.3846-2.355-1.6297-1.6728 2.2499-.3436z" fill="url(#B)"/><path d="m33.5276 10.8474h-.0335c-.5662 0-1.1467 0-1.708 0-.0587.0099-.1189.0099-.1776 0-.2275-1.08499-.6757-2.11736-1.3194-3.03936.0608-.07091.1266-.13789.1967-.2005l1.1611-1.10272c-.694-.91814-1.5455-1.7191-2.5188-2.36947-.403.40098-.8252.76552-1.2283 1.16651-.0479.04501-.101.08476-.1583.11848-.9743-.62121-2.0684-1.05328-3.2193-1.27132-.0104-.03734-.0104-.07659 0-.11392 0-.28707 0-.58782 0-.87033v-.8202c-1.1537-.17622-2.3296-.17622-3.4832 0v.8202.87033c.0104.03733.0104.07658 0 .11392-1.1425.21555-2.2296.64123-3.2001 1.25309-.0605-.02917-.1143-.06944-.1584-.11848-.403-.40098-.8252-.78375-1.2282-1.16651-.9686.65419-1.8178 1.45461-2.514 2.36948l1.161 1.10272c.0689.0624.1331.1294.1919.2005-.6449.92133-1.0932 1.95396-1.3193 3.03928-.0588.01-.1189.01-.1776 0-.5613 0-1.1418 0-1.7032 0h-.0432c-.0527.5514-.1055 1.121-.1055 1.686.0011.5602.0492 1.1194.1439 1.6723h1.9191c.2309 1.0999.6927 2.1445 1.3578 3.0712-.0201.0372-.052.0675-.0911.0866-.3839.3509-.7725.7154-1.1611 1.0845l-.12.1185c.6898.9088 1.5327 1.7032 2.4949 2.3512.0135-.0082.025-.0191.0336-.0319.4078-.401.83-.7837 1.2522-1.1847.0251-.0267.0542-.0497.0864-.0684.9784.6102 2.0714 1.0356 3.2193 1.2531.0119.0495.0119.1009 0 .1504v1.6541.0319c1.1402.1822 2.3045.1822 3.4448 0v-.0319c0-.5514 0-1.1027 0-1.6541-.0071-.0499-.0071-.1005 0-.1504 1.1498-.2113 2.244-.6372 3.2193-1.2531.0384 0 .0528.0502.0912.0684.403.401.8252.7837 1.2474 1.1847l.0336.0319c.9559-.6565 1.7991-1.4497 2.4996-2.3512l-.1247-.1185c-.3886-.3691-.7581-.7336-1.1611-1.0845-.0238-.033-.0529-.0622-.0863-.0866.6559-.9309 1.1154-1.974 1.3529-3.0712h1.9192c.0899-.5534.1364-1.1124.1391-1.6723.0174-.5585-.0244-1.1172-.1248-1.6677zm-5.3111 2.5517c-.1293.7975-.4584 1.5539-.9596 2.2054-.3528.4567-.7805.8566-1.2666 1.1848-.6899.4693-1.4846.7812-2.3221.9113-.2898.0486-.5837.0715-.878.0684-.2943.0028-.5882-.0201-.878-.0684-1.4386-.2204-2.728-.9702-3.5888-2.0869-.4991-.6527-.828-1.4085-.9595-2.2055-.0493-.2815-.0718-.5667-.0672-.8521-.0037-.2853.0188-.5704.0672-.8521.1361-.7901.4647-1.5391.9595-2.1872.3498-.46432.7778-.87075 1.2667-1.20297.691-.4675 1.4852-.77918 2.3221-.91134.29-.04678.5839-.06813.878-.06379.2941-.00458.588.01678.878.06379.8349.13886 1.6276.44995 2.3221.91134.4889.33222.9168.73865 1.2666 1.20297.4968.6471.8255 1.3966.9596 2.1872.0484.2817.0709.5668.0672.8521.0035.2823-.019.5644-.0672.843z" fill="url(#C)"/><path d="m11.8786 26.2871c-.3097 0-.6293 0-.944 0-.0309.0051-.0625.0051-.0934 0-.1267-.5696-.3738-1.1118-.7277-1.5967.0308-.0383.0654-.0741.1033-.1068l.6441-.5782c-.3809-.4846-.8517-.906-1.39145-1.2453-.22125.209-.45232.4003-.67849.6138-.0258.0235-.05571.043-.08851.0578-.53516-.3217-1.13482-.5453-1.76507-.6583-.00588-.0189-.00588-.0389 0-.0578 0-.1512 0-.3069 0-.4448v-.4448c-.31702-.0465-.63758-.0703-.95874-.0711-.32934.0001-.65815.0239-.98333.0711v.4448.4448c.00588.0189.00588.0389 0 .0578-.62999.1138-1.22949.3373-1.76507.6583-.03384-.0132-.06406-.0329-.08851-.0578-.22125-.2135-.45234-.4137-.6785-.6138-.53494.3431-1.00342.7639-1.38648 1.2453l.63915.5782c.03921.0329.07538.0686.10817.1068-.35555.4841-.60277 1.0266-.72767 1.5967-.03256.0048-.06576.0048-.098322 0-.309748 0-.629332 0-.9390807 0-.0294998.2891-.0589973.5871-.0589973.8896.00065349.2979.0269569.5953.0786681.8895h1.0570719c.12844.5777.38246 1.1265.74733 1.6146-.01108.0189-.02822.0344-.04917.0444-.21142.1824-.42774.3781-.63916.5693l-.06882.0623c.38241.4765.84726.894 1.37665 1.2365l.68833-.6227c.01383-.0145.0305-.0266.04917-.0356.53998.3195 1.14238.543 1.7749.6583.0061.0264.0061.0536 0 .08v.8674c.31543.0459.63433.0697.95383.0711.31787-.0012.63516-.025.94892-.0711 0-.2892 0-.5783 0-.8674-.00486-.0265-.00486-.0535 0-.08.63368-.1119 1.23678-.3356 1.7749-.6583 0 0 .02951.0267.04917.0356l.68833.6227c.52751-.3461.99338-.763 1.38158-1.2365l-.0688-.0623c-.2164-.1912-.418-.3869-.6392-.5693 0 0-.0295-.0355-.0492-.0444.3611-.49.6148-1.0381.7474-1.6146h1.057c.0513-.2942.0776-.5916.0787-.8895.0153-.2976-.0045-.5958-.059-.8896zm-2.94997 1.3344c-.07458.4185-.25828.8149-.53591 1.1564-.23178.2911-.52481.5381-.86229.7266s-.71278.3149-1.10437.372c-.16226.026-.3269.0379-.49167.0355-.16475.0021-.32936-.0098-.49166-.0355-.78956-.1185-1.49595-.5131-1.96666-1.0986-.27588-.342-.4579-.7383-.531-1.1564-.05195-.2947-.05195-.5949 0-.8896.07545-.4161.25729-.8106.531-1.152.19332-.2448.43103-.4584.70308-.6315.38079-.2442.81789-.4069 1.27833-.4759.1623-.0258.32691-.0377.49166-.0356.16477-.0024.32941.0095.49167.0356.46092.0723.89885.2347 1.28323.4759.27029.1735.50633.387.69817.6315.27531.3411.45881.7355.53592 1.152.02774.1469.0409.2958.03932.4448-.00195.1493-.01841.2981-.04917.4448z" fill="url(#D)"/></svg>