<svg fill="none" height="102" viewBox="0 0 111 102" width="111" xmlns="http://www.w3.org/2000/svg" xmlns:xlink="http://www.w3.org/1999/xlink"><linearGradient id="a"><stop offset="0" stop-color="#f8db8b"/><stop offset="1" stop-color="#68b790"/></linearGradient><linearGradient id="b" gradientUnits="userSpaceOnUse" x1="60.7961" x2="99.356" xlink:href="#a" y1="35.8091" y2="37.6084"/><linearGradient id="c" gradientUnits="userSpaceOnUse" x1="55.5203" x2="116.53" xlink:href="#a" y1="42.3064" y2="47.4063"/><linearGradient id="d" gradientUnits="userSpaceOnUse" x1="57.9767" x2="109.015" xlink:href="#a" y1="54.1922" y2="61.9057"/><linearGradient id="e" gradientUnits="userSpaceOnUse" x1="4.18147" x2="52.8959" xlink:href="#a" y1="49.6568" y2="52.3549"/><linearGradient id="f" gradientUnits="userSpaceOnUse" x1="2.04329" x2="60.1653" xlink:href="#a" y1="59.6007" y2="68.9501"/><linearGradient id="g" gradientUnits="userSpaceOnUse" x1="21.4472" x2="56.962" xlink:href="#a" y1="36.8213" y2="38.0215"/><linearGradient id="h" gradientUnits="userSpaceOnUse" x1="60.5009" x2="69.9159" xlink:href="#a" y1="95.664" y2="97.5198"/><linearGradient id="i"><stop offset="0" stop-color="#ffc444"/><stop offset="1" stop-color="#f36f56"/></linearGradient><linearGradient id="j" gradientUnits="userSpaceOnUse" x1="63.1018" x2="61.5788" xlink:href="#i" y1="92.919" y2="95.676"/><linearGradient id="k" gradientUnits="userSpaceOnUse" x1="40.0095" x2="38.6285" y1="83.6195" y2="101.174"><stop offset="0" stop-color="#311944"/><stop offset="1" stop-color="#a03976"/></linearGradient><linearGradient id="l" gradientUnits="userSpaceOnUse" x1="39.4846" x2="37.3161" xlink:href="#i" y1="90.698" y2="94.5961"/><linearGradient id="m"><stop offset="0" stop-color="#444b8c"/><stop offset="1" stop-color="#3e4177"/></linearGradient><linearGradient id="n" gradientUnits="userSpaceOnUse" x1="66.82" x2="53.3936" xlink:href="#m" y1="65.9866" y2="65.9866"/><linearGradient id="o" gradientUnits="userSpaceOnUse" x1="66.82" x2="53.3939" xlink:href="#m" y1="65.9869" y2="65.9869"/><linearGradient id="p" gradientUnits="userSpaceOnUse" x1="63.0924" x2="36.0641" xlink:href="#m" y1="64.6615" y2="64.6615"/><linearGradient id="q"><stop offset="0" stop-color="#067431"/><stop offset="1" stop-color="#2e9f5a"/></linearGradient><linearGradient id="r" gradientUnits="userSpaceOnUse" x1="54.7759" x2="78.4799" xlink:href="#q" y1="9.73787" y2="46.0027"/><linearGradient id="s" gradientUnits="userSpaceOnUse" x1="66.0851" x2="75.7657" xlink:href="#m" y1="12.2152" y2="4.13172"/><linearGradient id="t" gradientUnits="userSpaceOnUse" x1="28.6237" x2="43.2854" xlink:href="#q" y1="6.48617" y2="43.7824"/><linearGradient id="u" gradientUnits="userSpaceOnUse" x1="29.4981" x2="75.796" y1="123.344" y2="53.1793"><stop offset="0" stop-color="#ebeff2"/><stop offset="1" stop-color="#fff"/></linearGradient><linearGradient id="v" gradientUnits="userSpaceOnUse" x1="49.7639" x2="39.8636" xlink:href="#i" y1="76.7347" y2="97.7591"/><linearGradient id="w" gradientUnits="userSpaceOnUse" x1="67.3915" x2="57.6286" xlink:href="#i" y1="76.7879" y2="96.784"/><linearGradient id="x" gradientUnits="userSpaceOnUse" x1="83.8134" x2="74.1898" xlink:href="#i" y1="76.8374" y2="95.8723"/><linearGradient id="y" gradientUnits="userSpaceOnUse" x1="30.7913" x2="20.7543" xlink:href="#i" y1="76.6772" y2="98.8059"/><linearGradient id="z" gradientUnits="userSpaceOnUse" x1="81.3233" x2="60.0851" xlink:href="#i" y1="34.0387" y2="91.2361"/><linearGradient id="A" gradientUnits="userSpaceOnUse" x1="73.2455" x2="51.7506" xlink:href="#i" y1="36.9549" y2="87.9306"/><clipPath id="B"><path d="m6 0h104.969v101.082h-104.969z"/></clipPath><path d="m7.67469 67.8876c-12.444-15.3159-9.32377-41.8634 6.23581-56.565 18.7261-17.69521 46.3833-9.66447 50.3788-8.49322 20.4282 5.93676 39.7227 23.77702 41.5587 45.59342 1.037 12.3246-3.192 29.5205-13.7675 33.7476-7.7556 3.0995-12.1161-3.4931-29.2462-3.3688-12.8066.0943-14.2824 3.8083-24.5 3.2445-2.0255-.1104-20.2665-1.3645-30.65961-14.1585z" fill="#f2f2f2"/><g clip-path="url(#B)"><path d="m65.1752 66.4499c-1.0064-4.0373-1.8845-10.1527.1396-16.7244 2.3243-7.5477 6.3515-8.7969 10.4639-16.745 5.8688-11.3457.8027-20.2411 6.2586-23.4426 2.6607-1.56125 6.6461-1.27332 8.9762.6576 6.6471 5.5088 3.1485 27.1455-8.5912 34.8364-5.3087 3.4779-9.6651 2.7029-13.8005 7.402-3.6539 4.1505-3.8126 9.9671-3.4466 14.016z" fill="url(#b)"/><g fill="#fff" opacity=".5"><path d="m65.1061 56.4708-.1239-.0412c.5447-1.6362 1.2286-3.2225 2.0443-4.7415 1.8681-3.4768 3.7826-5.3214 6.2067-7.6563 1.5742-1.5169 3.3586-3.2361 5.4563-5.7328 3.924-4.6697 5.1559-6.3197 6.3463-9.0303 2.3573-5.369 2.4146-10.3305 2.239-12.8104-.2485-3.5143-1.1843-6.94552-2.7541-10.09854l.1169-.058c1.5774 3.16807 2.5177 6.61564 2.7674 10.14674.1745 2.4921.119 7.4778-2.2499 12.8723-1.197 2.7255-2.4324 4.3808-6.3658 9.0621-2.1023 2.5019-3.889 4.2236-5.4657 5.7425-2.4157 2.3272-4.3236 4.1656-6.1823 7.6242-.8121 1.5125-1.493 3.092-2.0352 4.7212z" opacity=".5"/><path d="m86.3948 25.4827.0055-.1077c.2223-4.061-2.1773-6.875-4.2289-8.5205-2.2279-1.7862-4.5368-2.6207-4.5598-2.6277l.0436-.123c.0234.0084 2.3528.8488 4.5975 2.6491 2.059 1.6496 4.46 4.4618 4.2834 8.5194.4411-.2191 2.305-1.2097 4.0583-3.1197 1.8395-2.0036 3.9306-5.4588 3.4469-10.5412l.1302-.0123c.4885 5.1328-1.6256 8.6222-3.4846 10.6458-2.0136 2.1916-4.1728 3.1836-4.1944 3.1934z" opacity=".5"/><path d="m85.7659 38.4976c-3.3484 0-5.9239-1.3845-5.9641-1.4065l-.0478-.0265.0175-.0518c1.332-3.9066.64-6.9061-.1745-8.7357-.8837-1.9827-2.0985-3.0554-2.1107-3.0659l.0855-.0989c.0123.0108 1.2459 1.099 2.1417 3.1054.8226 1.8429 1.5226 4.8592.2004 8.7829.5932.3047 6.491 3.169 11.8887-.4417l.0723.1087c-2.0709 1.3855-4.214 1.83-6.109 1.83z" opacity=".5"/><path d="m80.5802 45.7883c-1.681 0-3.0012-.297-3.9543-.6331-1.8737-.6597-2.7919-1.6133-2.8006-1.6231l-.0321-.035.022-.0412c2.0569-3.9171.0747-10.718.0544-10.7862l.1253-.0374c.0203.0699 2.0028 6.8712-.0422 10.8414.3779.3617 4.0039 3.5757 11.3681 1.4729l.0349.1254c-1.8262.5231-3.419.7163-4.7755.7163z" opacity=".5"/></g><path d="m61.7066 69.4977c-.8899-3.1948-1.7501-8.242.4017-13.0736 3.7537-8.4289 12.4493-6.7142 19.5779-16.0825 5.7495-7.556 3.1255-12.6573 9.826-17.9921 1.1216-.8928 7.0292-5.7782 12.0348-3.7672 2.821 1.1329 4.104 3.9486 4.345 4.4783 3.64 7.9911-3.385 21.8869-13.731 29.0184-5.945 4.0971-8.1031 3.2043-18.7844 8.3905-4.93 2.4003-9.5256 5.4354-13.67 9.0282z" fill="url(#c)"/><g fill="#fff" opacity=".7"><path d="m61.186 73.5147-.1298-.0126c.7733-7.9537 3.2738-13.5128 7.4333-16.5235 2.0356-1.4742 3.7421-1.8579 5.5488-2.2639 1.9417-.4368 3.9498-.8883 6.4562-2.8049 2.4359-1.8621 3.2061-3.4842 4.1808-5.5378.8773-1.8481 1.9689-4.148 4.6331-7.3432 2.335-2.8007 4.1061-4.1851 5.6689-5.4064 1.6922-1.3226 3.0284-2.3674 4.4516-4.7246 2.3241-3.8508 3.2451-8.5646 2.7391-14.0101l.13-.0122c.509 5.4742-.419 10.2145-2.7571 14.0897-1.4354 2.3761-2.78 3.4293-4.4827 4.7599-1.5575 1.2174-3.323 2.5973-5.649 5.3875-2.6522 3.1823-3.7414 5.4739-4.6153 7.3153-.9823 2.0697-1.7585 3.704-4.2195 5.586-2.5294 1.9338-4.5518 2.3884-6.5071 2.828-1.7931.4032-3.4871.7841-5.501 2.2426-4.1282 2.9876-6.6108 8.5156-7.3803 16.4302z" opacity=".7"/><path d="m94.2549 34.2796.0185-.0853c.0237-.1125 2.3382-11.2824-2.1145-15.3096l.0873-.0971c2.3595 2.1343 2.8187 6.2198 2.7887 9.2725-.0297 2.9781-.5175 5.5779-.6167 6.0758 5.9208-.485 10.0668-3.2 12.5068-5.3983 2.657-2.3929 3.917-4.703 3.93-4.726l.114.0618c-.012.0234-1.283 2.3534-3.956 4.7613-2.467 2.2224-6.668 4.97-12.6708 5.4382z" opacity=".7"/><path d="m93.5813 43.5142c-3.998 0-6.7808-.8827-6.809-.8918l-.0534-.0171.0091-.0555c.9422-5.7957-1.2965-13.653-1.3196-13.7326l.1257-.035c.0227.0786 2.2544 7.9139 1.3313 13.7326.4153.1248 3.2016.9155 7.0495.867 3.8322-.0476 9.5291-.9603 14.9061-5.0385l.079.1049c-5.407 4.1012-11.1351 5.0181-14.9886 5.0667-.11-.0005-.2201-.0007-.3301-.0007z" opacity=".7"/><path d="m88.9499 57.242c-8.201 0-13.1315-2.7996-13.1894-2.8331l-.0593-.035.0373-.0576c3.6992-5.6776 1.1035-14.1135 1.0766-14.1981l.1243-.0391c.0268.0846 2.6243 8.5208-1.0536 14.2497.7.3799 7.4242 3.8326 17.9105 2.4628l.0167.1293c-1.6123.2125-3.2368.3197-4.8631.3211z" opacity=".7"/></g><path d="m62.4294 59.9319c2.9131-1.6096 6.039-2.7985 9.2847-3.5313 7.3691-1.6525 10.4283.2191 13.781-2.4111 3.4703-2.7214 1.8328-6.0137 5.9575-9.0223.3469-.253 4.7639-3.3895 8.2011-1.6049 2.4053 1.2471 3.0403 4.2312 3.3383 5.6311 1.156 5.4339-.843 13.2587-6.8753 16.507-5.7198 3.0799-12.1795.5001-14.2276-.334-3.5946-1.4634-4.3002-3.0205-7.968-4.3952-4.4593-1.6706-8.6897-1.3428-11.4917-.8393z" fill="url(#d)"/><path d="m46.2004 82.298c.6414-4.5852.8983-11.4554-2.1107-18.4894-3.4549-8.0771-8.0587-8.9884-13.5377-17.3006-7.8217-11.8653-3.2549-22.302-9.6685-25.2051-3.1269-1.4152-7.5032-.629-9.8553 1.7821-6.71128 6.8743-.3078 30.4032 13.5817 37.5361 6.2817 3.2252 11.0111 1.8565 16.1366 6.5693 4.5291 4.1673 5.3851 10.5832 5.4539 15.1076z" fill="url(#e)"/><g fill="#fff" opacity=".5"><path d="m45.1156 71.2449c-.7907-1.7394-1.729-3.4077-2.8047-4.9864-2.4621-3.6096-4.7888-5.4203-7.7345-7.7122-1.9222-1.496-4.1006-3.191-6.7193-5.7125-4.8994-4.7173-6.4601-6.4037-8.1027-9.2784-3.2515-5.6891-3.8988-11.1982-3.9952-13.9772-.1372-3.9364.4996-7.8614 1.8741-11.5518l.1225.0454c-1.3687 3.6745-2.0028 7.5825-1.866 11.5018.0959 2.7654.7401 8.2508 3.9784 13.9154 1.6346 2.8608 3.191 4.5426 8.0799 9.2494 2.6136 2.5159 4.7895 4.2096 6.7089 5.7034 2.9548 2.2989 5.2885 4.1149 7.762 7.7419 1.0799 1.5853 2.0219 3.2604 2.8156 5.007z" opacity=".5"/><path d="m17.9182 39.446-.1023-.035c-.0248-.0084-2.5287-.8522-5.0121-3.04-2.2928-2.0187-5.03859-5.6311-5.09897-11.3642h.13052c.05828 5.6825 2.78035 9.2624 5.05085 11.2643 2.1808 1.9218 4.3766 2.7992 4.869 2.9809-.676-4.4727 1.6542-7.8681 3.7386-9.9356 2.2723-2.2539 4.7504-3.457 4.7751-3.4688l.0562.1177c-.0244.0119-2.4854 1.2069-4.7423 3.4464-2.0778 2.0617-4.4034 5.4588-3.6821 9.928z" opacity=".5"/><path d="m18.8059 53.8543c-1.9613.0067-3.8943-.4685-5.6294-1.3841l.0604-.1157c6.4171 3.3731 12.6286-.5217 13.2194-.9085-1.9242-4.1868-1.503-7.6067-.8086-9.7417.7559-2.3241 1.9924-3.6715 2.005-3.6848l.0952.0891c-.0122.013-1.2315 1.3436-1.978 3.6421-.6885 2.12-1.1038 5.521.8281 9.6911l.0231.0497-.0451.0314c-.0164.0115-1.6639 1.1475-4.1256 1.8275-1.1869.3304-2.4126.4999-3.6445.5039z" opacity=".5"/><path d="m24.9438 61.3283c-1.1987-.0046-2.3946-.1129-3.5747-.3235l.0227-.1286c4.623.8057 7.761-.0546 9.5792-.9183 1.7729-.8422 2.6698-1.852 2.8373-2.0519-2.7291-4.1491-1.3314-11.9121-1.3171-11.99l.1284.0238c-.0038.0195-.3615 1.9788-.3755 4.4199-.0129 2.2482.2715 5.3767 1.6996 7.5128l.0258.0387-.0286.0371c-.0087.0115-.9116 1.173-2.906 2.1224-1.3209.63-3.3314 1.2576-6.0911 1.2576z" opacity=".5"/></g><path d="m53.8156 73.3149c-1.5837-3.04-4.3801-7.2877-9.2132-10.2288-5.5512-3.3773-8.7162-1.9436-15.5876-4.5908-9.8106-3.7788-11.5444-12.0305-16.6542-11.0172-2.49169.4944-4.78974 2.8531-5.17153 5.3176-1.08883 7.0323 12.87743 18.4482 24.30763 16.7622 5.1695-.7625 7.4306-3.6243 12.5435-2.9919 4.518.5567 7.7904 4.0538 9.7754 6.7489z" fill="url(#f)"/><g fill="#fff" opacity=".5"><path d="m48.4052 67.1381c-1.2228-.7066-2.5038-1.3069-3.829-1.7943-3.0316-1.113-5.2096-1.2014-7.9673-1.3135-1.8007-.0731-3.8419-.1559-6.5036-.5469-4.9796-.7317-6.645-1.0759-8.8718-2.1008-4.406-2.0267-7.1647-5.0706-8.4168-6.7034-1.7751-2.3139-3.0787-4.9545-3.83672-7.7717l.12563-.0349c.75336 2.8009 2.04899 5.4264 3.81329 7.7272 1.2449 1.6231 3.9875 4.6475 8.3679 6.664 2.2122 1.0183 3.8713 1.3607 8.8363 2.0903 2.655.39 4.6924.4728 6.4911.5458 2.7691.1125 4.9555.2013 8.007 1.3216 1.3324.4897 2.6202 1.0931 3.8493 1.8037z" opacity=".5"/><path d="m15.2117 60.1135c-.4159.0002-.8316-.0207-1.2455-.0626-2.2523-.2296-5.4626-1.223-7.9662-4.6572l.10469-.0769c2.47359 3.3923 5.64481 4.376 7.86881 4.6038 2.0887.2135 3.7582-.18 4.1812-.2935-2.3134-2.4045-2.3675-5.4483-2.0007-7.5893.401-2.3412 1.3781-4.1337 1.3882-4.1516l.1142.0629c-.0391.0699-3.8322 7.1137.6683 11.665l.0753.0766-.1022.0318c-.0147.0048-1.2822.391-3.0861.391z" opacity=".5"/><path d="m21.1106 69.5873-.0178-.1293c5.2616-.7248 7.3352-5.6608 7.5534-6.2178-5.6696-3.2528-5.0484-8.5593-5.0435-8.6128l.1294.0168c-.007.0528-.6163 5.3033 5.0254 8.5104l.0478.0269-.0185.0517c-.0185.0559-2.0482 5.579-7.6762 6.3541z" opacity=".5"/><path d="m29.7177 71.1984-.0566-.1175c3.1259-1.5025 4.6443-3.3695 5.3674-4.6704.6913-1.2437.8079-2.2214.8257-2.4405-3.427-1.3337-5.917-6.6042-5.9421-6.6594l.1183-.0552c.0247.0531 2.5126 5.3239 5.9152 6.6098l.0436.0168v.0464c-.0024.0427-.216 4.3578-6.2715 7.27z" opacity=".5"/></g><path d="m43.4925 75.7468c2.9367-2.2304 7.0917-6.1227 8.4332-11.8537 2.3403-9.9979-6.5165-14.3392-6.5343-27.4439-.0147-10.5695 5.739-13.3209 3.3889-22.5634-.3933-1.5469-2.3437-9.85702-8.1313-11.44902-3.2609-.89699-6.2911.7338-6.8599 1.03955-8.5968 4.62785-11.7143 21.67307-7.3409 34.96567 2.5127 7.6368 5.0254 8.3004 11.0024 20.0943 3.5118 6.9299 5.1848 13.1533 6.0419 17.2105z" fill="url(#g)"/><g fill="#fff" opacity=".7"><path d="m41.3701 79.7302-.1113-.0699c4.6414-7.5326 6.157-14.1057 4.5085-19.5366-.8048-2.6508-2.0496-4.1302-3.3681-5.6957-1.4364-1.7069-2.9216-3.4719-3.8625-6.8886-.915-3.3242-.5039-5.2946.0168-7.7895.4634-2.221 1.0403-4.985.8288-9.5936-.1853-4.0405-.8219-6.4533-1.3837-8.582-.6139-2.3258-1.0986-4.1631-.772-7.236.5326-5.00839 2.8966-9.83226 7.0268-14.33781172l.0959.08805592c-4.111 4.4849258-6.4634 9.2836458-6.9929 14.2637558-.3242 3.0487.1578 4.8756.7678 7.1888.5636 2.135 1.2019 4.5548 1.3879 8.6092.2122 4.6251-.3664 7.3982-.8313 9.6265-.5172 2.4774-.9255 4.4342-.0185 7.728.9332 3.3894 2.408 5.1429 3.8364 6.839 1.3261 1.577 2.5825 3.0666 3.3931 5.7432 1.6601 5.4672.1386 12.076-4.5217 19.6432z" opacity=".7"/><path d="m38.3248 22.595-.0649-.058c-5.0026-4.4594-6.8749-9.7232-7.5683-13.35343-.7493-3.93388-.3092-6.85371-.3047-6.88377l.1288.02027c-.0046.02866-.4411 2.93032.305 6.84288.685 3.59355 2.5364 8.79685 7.4612 13.21785.2356-.4853 1.5544-3.1326 3.5418-5.8064 2.0241-2.7232 5.1762-6.0326 8.6984-6.3328l.0112.13c-6.6575.5675-12.1167 12.0277-12.1711 12.1434z" opacity=".7"/><path d="m39.4068 35.053-.0531-.0185c-.0321-.0112-3.2591-1.165-6.9227-4.0234-3.3813-2.6378-7.8389-7.3101-9.8724-14.5855l.1256-.035c2.0241 7.2395 6.4586 11.889 9.8232 14.515 3.3921 2.6473 6.4066 3.8259 6.8373 3.9866 3.0912-5.7781 10.3396-11.2167 10.4125-11.2729l.0782.1048c-.0185.0136-1.8527 1.3852-4.0416 3.4531-2.0188 1.9068-4.7611 4.8127-6.3609 7.8272z" opacity=".7"/><path d="m41.2527 52.9073-.0698-.0084c-.0873-.0112-8.8377-1.1898-17.6795-9.9388l.0915-.0926c4.6048 4.5562 9.1478 7.006 12.1484 8.2591 2.9314 1.223 4.9946 1.5724 5.3876 1.6329.5873-7.555 8.5629-13.2808 8.6436-13.3381l.0753.1069c-.0806.057-8.0548 5.7831-8.594 13.3105z" opacity=".7"/></g><path d="m63.356 94.4229s5.5454 2.5236 5.6358 2.9261c.0903.4026-3.5663-.1348-5.0603-.0768s-2.7221-.3844-2.586-1.0169.6579-2.2255.6579-2.2255z" fill="url(#h)"/><path d="m63.5588 92.3753-.3375 2.4998s-.8777.3145-1.4675-.057l-.2516-2.7419z" fill="url(#j)"/><path d="m37.4438 92.4346-.6453 1.0367c-.0894.143-.1488.3027-.1743.4695-.0256.1667-.0169.337.0256.5002.2258.862.6764 2.5425.8725 2.9803.2677.5968 3.8562.9515 3.8562.9515s.3201-.4508-.425-.9955c-.7451-.5448-1.2239-.629-1.487-1.4327-.2632-.8037-.4383-3.075-.4383-3.075z" fill="url(#k)"/><path d="m40.1283 89.8002c-.2356.188-1.3883 3.691-1.3883 3.691s-.373.4777-1.0818-.2275c-.7088-.7051-.3207-.3162-.3207-.3162l.1329-3.4451z" fill="url(#l)"/><path d="m66.6099 42.1499c.2925 7.4572.3043 15.5591-.1242 24.2155-.4823 9.7467-1.4521 18.755-2.6739 26.9212-.4537.0143-.9315.0167-1.4309.0028-.3367-.0095-.663-.0259-.9771-.0476-.8062-2.1534-1.4922-4.35-2.0548-6.5797-.7057-2.7955-1.1314-5.3054-1.4347-7.7043-1.0679-8.4464.1836-9.1833-.6829-15.4427-.7678-5.544-1.8591-5.7603-3.1409-13.6312-1.3903-8.5404-.3553-9.8215.148-10.2844 2.1427-1.9715 7.1754-.6301 12.3714 2.5504z" fill="url(#n)"/><path d="m54.2385 39.598c2.0436-1.8792 6.7168-.7415 11.6528 2.127-5.6782 6.143-6.2973 10.1279-5.6165 12.7133.7678 2.9223 3.1084 3.7641 3.0993 6.9596-.0108 3.9269-3.5502 4.9671-3.4751 9.1225.0499 2.7476 1.6053 2.719 1.9724 6.113.4345 4.0156-1.5973 5.399-.9391 8.3702.283 1.2782 1.0913 2.9482 3.3928 4.6687-.1661 1.2199-.3361 2.4279-.5133 3.6128-.4537.0143-.9315.0168-1.4309.0028-.3367-.0094-.663-.0259-.9771-.0475-.8063-2.1534-1.4923-4.3501-2.0548-6.5798-.7057-2.7954-1.1314-5.3054-1.4347-7.7042-1.0679-8.4464.1836-9.1834-.683-15.4427-.7677-5.5441-1.859-5.7607-3.1408-13.6313-1.3903-8.5404-.3553-9.8217.148-10.2844z" fill="url(#o)" opacity=".3"/><path d="m63.0924 42.0244c-10.2573 15.0215-18.001 31.6164-22.9264 49.1323-.5107.2374-1.0781.3255-1.6367.254-1.0557-.1398-1.6888-.8145-1.8542-1.0029-.6312-3.9308-.774-7.9248-.425-11.8907.1678-1.8932.4652-5.0458 1.6702-8.9377 1.3499-4.3595 2.2778-4.6045 4.0388-9.2166 1.8276-4.7872 1.3851-5.9819 3.1356-11.9725.7189-2.4614 1.9225-6.1238 3.9086-10.5046z" fill="url(#p)"/><path d="m87.2361 45.64c.252 1.7919-3.6682 4.7557-7.2704 4.4378-4.914-.4326-9.0159-6.9516-9.4532-12.1298-.0935-1.1087-.0248-2.2238-.2502-2.257-.5727-.0842-2.043 6.7143-3.1967 12.4785-.9279.34-2.3343.701-3.9435.4372-2.6306-.4316-2.944-2.068-5.8863-3.1348-1.7166-.6227-3.3984-.6241-6.7626-.6268-3.7976-.0035-3.902.4654-4.6334.1254-.1158-.064-.2282-.134-.3368-.2097-2.7043-1.9438 5.0323-16.7202 2.8048-30.3535-.2474-1.5152-.6282-3.0712.2181-4.58805 2.1843-3.91956 10.8185-4.4727 16.1649-1.89251 1.4657.70689 3.9211 2.25386 6.1134 3.88386.8763.6514 1.7879 1.381 2.7385 2.2123 2.9447 2.5756 4.8941 4.9388 5.2348 5.3686 5.0441 6.3866-2.5159 18.315 2.7834 23.2308 2.3086 2.1403 5.4571 1.4683 5.6752 3.0177z" fill="url(#r)"/><path d="m71.327 6.51025s-1.3885 1.57838-2.8808 2.39639c-1.3485.73939-4.3214-.50597-5.0093-.65238-.6878-.14641.1375 1.70836 1.4354 2.98654 1.2978 1.2782 5.5868 4.2016 6.7455 4.2505 1.1586.0489-.1864-.9655-.8969-2.1469-.7106-1.1814.2907-3.62324 1.1865-4.37591s-.5804-2.45824-.5804-2.45824z" fill="#f4caab"/><path d="m74.5176 7.7444c1.5753-.11951 3.167-2.06164 2.8456-2.9104-.0921-.24251-.2966-.27955-3.3806-.78971-1.5317-.25229-2.2974-.35642-2.8268.06709-.3231.25892-.5755.72017-.655 1.15556-.0409.22433-.0429.53323-.0046 1.14823.0349.5458.0238.52169.0381.68313.0349.38717.1396 1.06821.5165 2.01272.192-.2118.4022-.40636.6281-.58146.1009-.07827.5005-.38053.9549-.56398.782-.31518 1.3722-.1831 1.8838-.22118z" fill="url(#s)"/><path d="m70.4757 8.05873s.0698 1.50918 1.4905 2.17207c1.2717.594 2.9597-2.06549 2.4952-3.08094-.1546-.33859-.6344-.70689-1.1262-.82116-.2903-.06744-.4327-.00943-.9049-.12859-.4355-.11007-.5203-.21175-.6885-.17786-.2094.04263-.4785.28234-.6791 1.22021-.1047-.36585-.3358-.6115-.5863-.62653-.0885-.00016-.1753.02401-.2509.06989-.3438.22084-.2768.78237.2502 1.37291z" fill="#f4caab"/><path d="m36.4912 38.5189c-2.1288-1.0452-6.7266-3.7218-8.1403-8.6523-2.3532-8.2084 6.0161-16.0388 10.3368-18.9674 4.9538-3.35868 9.9317-3.90099 12.9571-4.23085 3.7529-.40884 6.0436-.65833 7.7645.75232 4.4495 3.64913 1.7749 15.68943-2.63 16.92843-1.442.4057-1.9892-.6502-5.0096-1.3792-.9838-.2376-8.3285-2.0092-12.1474 1.8807-2.6732 2.7227-3.0145 7.6022-1.1272 12.1636z" fill="url(#t)"/><path d="m102.952 64.2014-87.6101-2.7731c-4.5284-.1433-8.25621 4.1425-8.25621 9.5744v20.5898c0 5.4322 3.72781 9.6765 8.25621 9.4825l87.6101-3.7543c3.111-.1332 5.601-3.8169 5.601-8.2291v-16.7241c0-4.4129-2.491-8.0679-5.601-8.1661z" fill="#97a6b7"/><path d="m15.3419 99.7837c-3.9138.1583-7.14048-3.5274-7.14048-8.2182v-20.5464c0-4.6908 3.22668-8.4125 7.14048-8.2983l87.6101 2.5603c2.694.0786 4.863 3.2535 4.863 7.0777v16.752c0 3.8245-2.169 7.0235-4.863 7.1322z" fill="url(#u)"/><path d="m26.344 70.8483 2.3807 5.9015c.0876.2177.2572.3687.4537.4039l5.2347.9435c.4834.0867.676.8201.3267 1.2419l-3.7732 4.5555c-.0716.0911-.1238.1958-.1534.3078-.0295.1121-.0359.229-.0187.3435l.8966 6.4016c.0834.5961-.4279 1.0657-.8662.7946l-4.7441-2.9352c-.0853-.0538-.1845-.0813-.2853-.0792-.1007.002-.1987.0336-.2818.0907l-4.8428 3.19c-.4565.3008-.9908-.152-.9032-.7663l.935-6.5721c.0181-.1165.0115-.2354-.0193-.3492-.0308-.1137-.0853-.2196-.1598-.3109l-3.9854-4.6345c-.3751-.4357-.1678-1.1961.349-1.2855l5.486-.9508c.201-.035.3745-.187.4645-.4064l2.4125-5.9001c.2248-.5476.8708-.5371 1.0938.0157z" fill="#d8dee8"/><path d="m45.634 71.1232 2.2076 5.6831c.0817.2097.2391.355.4209.3889l4.8592.9085c.4485.0839.6282.7904.3033 1.1968l-3.5024 4.3878c-.067.089-.1156.1904-.143.2984-.0273.108-.033.2204-.0165.3306l.8316 6.1671c.0775.5744-.3968 1.0266-.8026.7649l-4.4007-2.8325c-.0784-.0518-.1707-.0785-.2646-.0766-.0939.0018-.185.0322-.2613.0871l-4.4886 3.0673c-.423.289-.9182-.1471-.8376-.7384l.8662-6.3246c.0321-.2342-.0297-.4718-.1654-.6357l-3.6926-4.4583c-.349-.4194-.1556-1.1511.3239-1.2374l5.0829-.9186c.1863-.035.349-.18.4303-.3914l2.2366-5.6814c.2066-.5276.8058-.5185 1.0128.0144z" fill="url(#v)"/><path d="m63.5465 71.3789 2.0534 5.4801c.0757.2019.2223.342.3916.3749l4.5217.8736c.4188.0807.5839.7624.282 1.1531l-3.2605 4.2347c-.1257.1749-.1789.3916-.1484.6049l.7765 5.9497c.0719.5542-.3695.9896-.7478.737l-4.0933-2.7354c-.0722-.0497-.1582-.0755-.2459-.0737-.0876.0019-.1725.0312-.2426.0839l-4.1742 2.9551c-.393.2795-.8529-.1429-.7779-.7125l.8051-6.0968c.0297-.2254-.0279-.4543-.1539-.6126l-3.4301-4.298c-.3225-.4043-.1445-1.1094.3008-1.1926l4.7217-.8823c.1745-.0325.3228-.1747.4003-.3774l2.0792-5.4783c.193-.5116.75-.5018.9423.0126z" fill="url(#w)"/><path d="m80.2247 71.6158 1.9146 5.2907c.0698.1953.2073.3309.365.3623l4.2185.8449c.3895.078.5451.7366.2631 1.1154l-3.041 4.0883c-.1182.1703-.1681.3789-.1396.5843l.7248 5.746c.0674.5353-.3448.9557-.6979.7111l-3.8172-2.6445c-.0667-.0482-.1472-.0733-.2294-.0716-.0823.0017-.1617.0301-.2264.081l-3.888 2.8479c-.3661.268-.7946-.1398-.7245-.6884l.7497-5.884c.0279-.2174-.0259-.4386-.1431-.5913l-3.195-4.1484c-.3001-.3899-.1343-1.0703.2792-1.1506l4.3972-.852c.1616-.0311.3008-.1673.3731-.3641l1.9375-5.2896c.1808-.4913.7001-.4833.8794.0126z" fill="url(#x)"/><path d="m95.7918 71.8374 1.7902 5.1146c.066.1887.1937.3197.3413.3494l3.9437.8167c.365.0754.51.7128.246 1.079l-2.844 3.952c-.1102.1664-.1561.3673-.1291.5651l.6749 5.5559c.0628.5175-.3221.9239-.6522.687l-3.5677-2.5596c-.0617-.0465-.1373-.0708-.2145-.0693-.0773.0016-.1518.0291-.2116.078l-3.6318 2.7497c-.342.2589-.7423-.1345-.6767-.666l.7-5.6852c.0262-.2097-.024-.4239-.1336-.5717l-2.9828-4.009c-.2792-.3767-.1256-1.034.2614-1.1115l4.1072-.8233c.1508-.0304.2792-.1621.349-.3522l1.8101-5.1132c.1676-.4728.6523-.4654.8202.0136z" fill="#d8dee8"/><path d="m90.0493 82.3857c-11.3088-3.6114-18.9072 14.4772-32.0565 10.5046-11.4013-3.4447-11.7199-18.3608-25.2709-28.9776-.9287-.7275-1.8739-1.4021-2.8354-2.0239l-14.5446-.4605c-4.5284-.1433-8.25621 4.1425-8.25621 9.5744v20.5901c0 5.4319 3.72781 9.6762 8.25621 9.4822l87.0141-3.7292c-4.1807-10.1558-8.6079-13.779-12.3067-14.9601z" fill="#97a6b7" opacity=".01"/><path d="m26.344 70.8483 2.3807 5.9015c.0876.2177.2572.3687.4537.4039l5.2347.9435c.4834.0867.676.8201.3267 1.2419l-3.7732 4.5555c-.0716.0911-.1238.1958-.1534.3078-.0295.1121-.0359.229-.0187.3435l.8966 6.4016c.0834.5961-.4279 1.0657-.8662.7946l-4.7441-2.9352c-.0853-.0538-.1845-.0813-.2853-.0792-.1007.002-.1987.0336-.2818.0907l-4.8428 3.19c-.4565.3008-.9908-.152-.9032-.7663l.935-6.5721c.0181-.1165.0115-.2354-.0193-.3492-.0308-.1137-.0853-.2196-.1598-.3109l-3.9854-4.6345c-.3751-.4357-.1678-1.1961.349-1.2855l5.486-.9508c.201-.035.3745-.187.4645-.4064l2.4125-5.9001c.2248-.5476.8708-.5371 1.0938.0157z" fill="url(#y)"/><path d="m66.8717 19.8083 7.1423 14.4909c.1303.2645.323.4932.5613.6666s.5152.2861.8067.3285l15.9712 2.3237c1.4898.2167 2.0848 2.0505 1.0068 3.1026l-11.5569 11.2796c-.2113.2057-.3693.4598-.4605.7403-.0912.2806-.1128.5791-.063.8699l2.728 15.927c.2548 1.4858-1.3031 2.619-2.6359 1.9177l-14.2838-7.5191c-.2607-.1374-.5508-.2092-.8454-.2092s-.5848.0718-.8454.2092l-14.2849 7.5198c-1.3328.7013-2.8907-.4319-2.6362-1.9177l2.7283-15.927c.0499-.2908.0282-.5893-.063-.8699-.0912-.2805-.2492-.5346-.4605-.7403l-11.5569-11.2796c-1.0783-1.0521-.4833-2.8859 1.0068-3.1026l15.9712-2.3237c.2915-.0424.5684-.1552.8067-.3285.2383-.1734.4309-.4022.5613-.6666l7.1423-14.4909c.6676-1.3526 2.5929-1.3526 3.2595-.0007z" fill="#fff"/><path d="m67.5808 19.8084 7.143 14.4908c.1303.2645.3229.4933.5612.6666.2382.1734.515.2862.8065.3286l15.9712 2.3237c1.4901.2167 2.0851 2.0505 1.0068 3.1026l-11.5569 11.2796c-.211.2059-.3689.46-.4601.7405-.0912.2804-.113.5789-.0634.8697l2.7283 15.927c.2544 1.4858-1.3031 2.619-2.6358 1.9177l-14.2846-7.5191c-.2606-.1374-.5508-.2092-.8454-.2092s-.5847.0718-.8454.2092l-14.2849 7.5198c-1.3328.7013-2.8906-.4319-2.6359-1.9177l2.728-15.927c.0499-.2908.0283-.5893-.0629-.8699-.0912-.2805-.2493-.5346-.4605-.7403l-11.5566-11.2796c-1.0784-1.0521-.4833-2.8859 1.0068-3.1026l15.9709-2.3237c.2915-.0424.5683-.1551.8066-.3285.2384-.1734.431-.4022.5614-.6667l7.145-14.4915c.6648-1.352 2.5902-1.352 3.2567 0z" fill="url(#z)"/><path d="m77.2014 60.4282c-5.4814-5.2191-11.656-4.927-14.1491-10.9599-2.7919-6.7583 3.1544-11.4892 2.1358-19.7809-.2468-2.0085-.9119-4.3018-2.3871-6.7953l-5.6224 11.4071c-.1305.2645-.3231.4932-.5614.6666s-.5152.2861-.8066.3286l-15.9709 2.3237c-1.4901.2166-2.0851 2.0505-1.0068 3.1026l11.5566 11.2796c.2112.2056.3693.4597.4605.7403.0912.2805.1128.5791.0629.8698l-2.728 15.927c-.2547 1.4858 1.3031 2.619 2.6359 1.9177l14.2852-7.519c.2607-.1374.5509-.2092.8455-.2092.2945 0 .5847.0718.8454.2092l14.2852 7.5197c.7751.4081 1.6259.1946 2.1525-.3473-1.4179-5.1988-3.7299-8.4891-6.0332-10.6803z" fill="url(#A)" opacity=".09"/><g fill="#f4caab"><path d="m37.3335 37.8862s1.9002-1.6245 3.1967-1.9131c.6857-.1523 1.5327.4819 2.1783 1.1129.326.3187.0269.8635-.4153.7538-.7852-.195-1.6346-.3823-1.7766-.3201-.2743.1195-1.1939 2.2077-3.1831.3665z"/><path d="m86.5997 47.28s-.3316-1.7866 1.2531-3.3014c1.5848-1.5148 1.2243.341 1.0819 1.2523-.1424.9114-2.335 2.0491-2.335 2.0491z"/></g></g></svg>