<svg fill="none" height="452" viewBox="0 0 747 452" width="747" xmlns="http://www.w3.org/2000/svg" xmlns:xlink="http://www.w3.org/1999/xlink"><linearGradient id="a"><stop offset="0" stop-color="#f8db8b"/><stop offset="1" stop-color="#68b790"/></linearGradient><linearGradient id="b" gradientUnits="userSpaceOnUse" x1="244.025" x2="282.328" xlink:href="#a" y1="353.275" y2="52.2123"/><linearGradient id="c" gradientUnits="userSpaceOnUse" x1="150.073" x2="351.734" y1="199.957" y2="199.957"><stop offset="0" stop-color="#9cfffb"/><stop offset="1" stop-color="#9bfffa"/></linearGradient><linearGradient id="d"><stop offset="0" stop-color="#067431"/><stop offset="1" stop-color="#2e9f5a"/></linearGradient><linearGradient id="e" gradientUnits="userSpaceOnUse" x1="450.147" x2="698.859" xlink:href="#d" y1="69.7548" y2="389.282"/><linearGradient id="f" gradientUnits="userSpaceOnUse" x1="363.341" x2="482.707" xlink:href="#d" y1="245.652" y2="453.919"/><linearGradient id="g" gradientUnits="userSpaceOnUse" x1="218.866" x2="334.644" xlink:href="#d" y1="226.79" y2="472.942"/><linearGradient id="h" gradientUnits="userSpaceOnUse" x1="77.8659" x2="309.307" xlink:href="#a" y1="367.985" y2="391.828"/><linearGradient id="i" gradientUnits="userSpaceOnUse" x1="432.975" x2="440.059" xlink:href="#d" y1="266.881" y2="281.145"/><linearGradient id="j" gradientUnits="userSpaceOnUse" x1="422.017" x2="431.973" xlink:href="#d" y1="277.554" y2="291.964"/><linearGradient id="k"><stop offset="0" stop-color="#31a25d"/><stop offset="1" stop-color="#006d2c"/></linearGradient><linearGradient id="l" gradientUnits="userSpaceOnUse" x1="352.622" x2="396.767" xlink:href="#k" y1="194.804" y2="194.804"/><linearGradient id="m" gradientUnits="userSpaceOnUse" x1="370.923" x2="390.544" xlink:href="#a" y1="220.187" y2="241.446"/><linearGradient id="n" gradientUnits="userSpaceOnUse" x1="415.439" x2="420.948" xlink:href="#a" y1="207.036" y2="207.371"/><linearGradient id="o" gradientUnits="userSpaceOnUse" x1="151.36" x2="166.275" xlink:href="#a" y1="450.509" y2="464.305"/><linearGradient id="p"><stop offset="0" stop-color="#f9b776"/><stop offset="1" stop-color="#f47960"/></linearGradient><linearGradient id="q" gradientUnits="userSpaceOnUse" x1="155.724" x2="161.837" xlink:href="#p" y1="440.364" y2="440.364"/><linearGradient id="r" gradientUnits="userSpaceOnUse" x1="116.845" x2="124.156" xlink:href="#p" y1="435.258" y2="435.258"/><linearGradient id="s" gradientUnits="userSpaceOnUse" x1="158.538" x2="199.775" xlink:href="#d" y1="292.242" y2="335.61"/><linearGradient id="t" gradientUnits="userSpaceOnUse" x1="158.452" x2="162.837" xlink:href="#d" y1="365.249" y2="373.058"/><linearGradient id="u" gradientUnits="userSpaceOnUse" x1="139.823" x2="163.153" xlink:href="#d" y1="290.289" y2="309.638"/><linearGradient id="v" gradientUnits="userSpaceOnUse" x1="189.786" x2="209.012" xlink:href="#d" y1="304.007" y2="317.999"/><linearGradient id="w" gradientUnits="userSpaceOnUse" x1="147.221" x2="164.181" xlink:href="#d" y1="324.01" y2="379.832"/><linearGradient id="x" gradientUnits="userSpaceOnUse" x1="212.895" x2="337.637" xlink:href="#a" y1="295.333" y2="306.662"/><linearGradient id="y" gradientUnits="userSpaceOnUse" x1="243.621" x2="300.79" xlink:href="#d" y1="252.607" y2="344.542"/><linearGradient id="z" gradientUnits="userSpaceOnUse" x1="411.578" x2="489.019" xlink:href="#a" y1="101.563" y2="109.171"/><linearGradient id="A" gradientUnits="userSpaceOnUse" x1="430.621" x2="611.991" xlink:href="#a" y1="35.0336" y2="78.329"/><linearGradient id="B" gradientUnits="userSpaceOnUse" x1="585.89" x2="702.227" xlink:href="#a" y1="16.9759" y2="44.7305"/><linearGradient id="C" gradientUnits="userSpaceOnUse" x1="135.393" x2="170.812" xlink:href="#a" y1="112.212" y2="115.365"/><linearGradient id="D" gradientUnits="userSpaceOnUse" x1="632.279" x2="644.605" xlink:href="#k" y1="441.092" y2="441.092"/><linearGradient id="E" gradientUnits="userSpaceOnUse" x1="600.674" x2="602.632" xlink:href="#d" y1="443.716" y2="451.415"/><linearGradient id="F" gradientUnits="userSpaceOnUse" x1="591.474" x2="623.452" y1="364.553" y2="364.553"><stop offset="0" stop-color="#007e33"/><stop offset="1" stop-color="#55b079"/></linearGradient><linearGradient id="G" gradientUnits="userSpaceOnUse" x1="448.124" x2="699.316" xlink:href="#a" y1="226.854" y2="286.644"/><linearGradient id="H"><stop offset="0" stop-color="#ffc444"/><stop offset="1" stop-color="#f36f56"/></linearGradient><linearGradient id="I" gradientUnits="userSpaceOnUse" x1="648.208" x2="643.592" xlink:href="#H" y1="159.802" y2="169.468"/><linearGradient id="J" gradientUnits="userSpaceOnUse" x1="672.326" x2="664.461" xlink:href="#H" y1="149.719" y2="185.152"/><linearGradient id="K" gradientUnits="userSpaceOnUse" x1="674.75" x2="669.35" xlink:href="#H" y1="147.426" y2="173.671"/><linearGradient id="L" gradientUnits="userSpaceOnUse" x1="648.305" x2="645.378" xlink:href="#H" y1="162.308" y2="168.449"/><linearGradient id="M" gradientUnits="userSpaceOnUse" x1="404.742" x2="403.894" xlink:href="#H" y1="185.117" y2="187.804"/><linearGradient id="N" gradientUnits="userSpaceOnUse" x1="398.377" x2="397.617" xlink:href="#H" y1="180.969" y2="183.589"/><linearGradient id="O" gradientUnits="userSpaceOnUse" x1="391.685" x2="391.015" xlink:href="#H" y1="177.254" y2="179.799"/><linearGradient id="P" gradientUnits="userSpaceOnUse" x1="384.715" x2="384.175" xlink:href="#H" y1="174.214" y2="176.541"/><linearGradient id="Q" gradientUnits="userSpaceOnUse" x1="377.456" x2="377.021" xlink:href="#H" y1="171.87" y2="173.988"/><linearGradient id="R" gradientUnits="userSpaceOnUse" x1="370.013" x2="369.681" xlink:href="#H" y1="170.279" y2="172.189"/><linearGradient id="S" gradientUnits="userSpaceOnUse" x1="362.296" x2="362.056" xlink:href="#H" y1="169.504" y2="171.144"/><linearGradient id="T" gradientUnits="userSpaceOnUse" x1="354.642" x2="354.365" xlink:href="#H" y1="169.598" y2="171.348"/><linearGradient id="U" gradientUnits="userSpaceOnUse" x1="347.123" x2="346.703" xlink:href="#H" y1="170.622" y2="172.748"/><linearGradient id="V" gradientUnits="userSpaceOnUse" x1="339.73" x2="339.115" xlink:href="#H" y1="172.814" y2="175.346"/><linearGradient id="W" gradientUnits="userSpaceOnUse" x1="332.787" x2="331.931" xlink:href="#H" y1="176.129" y2="179.013"/><linearGradient id="X" gradientUnits="userSpaceOnUse" x1="326.544" x2="325.376" xlink:href="#H" y1="180.62" y2="183.842"/><linearGradient id="Y" gradientUnits="userSpaceOnUse" x1="321.203" x2="319.73" xlink:href="#H" y1="186.001" y2="189.38"/><linearGradient id="Z" gradientUnits="userSpaceOnUse" x1="316.708" x2="315.001" xlink:href="#H" y1="192.353" y2="195.67"/><linearGradient id="aa" gradientUnits="userSpaceOnUse" x1="313.272" x2="311.29" xlink:href="#H" y1="199.234" y2="202.498"/><linearGradient id="ab" gradientUnits="userSpaceOnUse" x1="310.944" x2="308.573" xlink:href="#H" y1="206.253" y2="209.471"/><linearGradient id="ac" gradientUnits="userSpaceOnUse" x1="309.406" x2="306.952" xlink:href="#H" y1="213.894" y2="216.721"/><linearGradient id="ad" gradientUnits="userSpaceOnUse" x1="309.003" x2="306.639" xlink:href="#H" y1="221.722" y2="224.211"/><linearGradient id="ae" gradientUnits="userSpaceOnUse" x1="309.746" x2="307.436" xlink:href="#H" y1="229.338" y2="232.264"/><linearGradient id="af" gradientUnits="userSpaceOnUse" x1="311.534" x2="309.385" xlink:href="#H" y1="236.871" y2="240.176"/><linearGradient id="ag" gradientUnits="userSpaceOnUse" x1="314.306" x2="312.33" xlink:href="#H" y1="244.054" y2="247.533"/><linearGradient id="ah" gradientUnits="userSpaceOnUse" x1="317.913" x2="316.098" xlink:href="#H" y1="250.87" y2="254.483"/><linearGradient id="ai" gradientUnits="userSpaceOnUse" x1="322.294" x2="320.707" xlink:href="#H" y1="257.331" y2="260.907"/><linearGradient id="aj" gradientUnits="userSpaceOnUse" x1="327.298" x2="325.882" xlink:href="#H" y1="263.228" y2="266.774"/><linearGradient id="ak" gradientUnits="userSpaceOnUse" x1="332.883" x2="331.604" xlink:href="#H" y1="268.579" y2="272.077"/><linearGradient id="al" gradientUnits="userSpaceOnUse" x1="338.936" x2="337.8" xlink:href="#H" y1="273.404" y2="276.813"/><linearGradient id="am" gradientUnits="userSpaceOnUse" x1="345.373" x2="344.342" xlink:href="#H" y1="277.651" y2="281.009"/><linearGradient id="an" gradientUnits="userSpaceOnUse" x1="352.221" x2="351.303" xlink:href="#H" y1="281.327" y2="284.617"/><linearGradient id="ao" gradientUnits="userSpaceOnUse" x1="359.238" x2="358.446" xlink:href="#H" y1="284.413" y2="287.493"/><linearGradient id="ap" gradientUnits="userSpaceOnUse" x1="366.549" x2="365.85" xlink:href="#H" y1="286.931" y2="289.822"/><linearGradient id="aq" gradientUnits="userSpaceOnUse" x1="374.005" x2="373.393" xlink:href="#H" y1="288.871" y2="291.648"/><linearGradient id="ar" gradientUnits="userSpaceOnUse" x1="381.539" x2="380.99" xlink:href="#H" y1="290.296" y2="292.953"/><linearGradient id="as" gradientUnits="userSpaceOnUse" x1="389.221" x2="388.717" xlink:href="#H" y1="291.254" y2="293.769"/><linearGradient id="at" gradientUnits="userSpaceOnUse" x1="396.822" x2="396.368" xlink:href="#H" y1="291.754" y2="294.159"/><linearGradient id="au" gradientUnits="userSpaceOnUse" x1="404.612" x2="404.194" xlink:href="#H" y1="291.825" y2="294.193"/><linearGradient id="av" gradientUnits="userSpaceOnUse" x1="412.291" x2="411.806" xlink:href="#H" y1="291.52" y2="294.061"/><linearGradient id="aw" gradientUnits="userSpaceOnUse" x1="419.859" x2="419.312" xlink:href="#H" y1="290.882" y2="293.541"/><linearGradient id="ax" gradientUnits="userSpaceOnUse" x1="427.549" x2="426.96" xlink:href="#H" y1="289.944" y2="292.73"/><linearGradient id="ay" gradientUnits="userSpaceOnUse" x1="435.2" x2="434.563" xlink:href="#H" y1="288.727" y2="291.659"/><linearGradient id="az" gradientUnits="userSpaceOnUse" x1="442.648" x2="441.974" xlink:href="#H" y1="287.248" y2="290.221"/><linearGradient id="aA" gradientUnits="userSpaceOnUse" x1="450.124" x2="449.384" xlink:href="#H" y1="285.537" y2="288.661"/><linearGradient id="aB" gradientUnits="userSpaceOnUse" x1="457.564" x2="456.768" xlink:href="#H" y1="283.573" y2="286.798"/><linearGradient id="aC" gradientUnits="userSpaceOnUse" x1="464.93" x2="464.086" xlink:href="#H" y1="281.374" y2="284.689"/><linearGradient id="aD" gradientUnits="userSpaceOnUse" x1="472.216" x2="471.313" xlink:href="#H" y1="278.941" y2="282.364"/><linearGradient id="aE" gradientUnits="userSpaceOnUse" x1="479.456" x2="478.514" xlink:href="#H" y1="276.372" y2="279.849"/><linearGradient id="aF" gradientUnits="userSpaceOnUse" x1="486.605" x2="485.615" xlink:href="#H" y1="273.513" y2="277.064"/><linearGradient id="aG" gradientUnits="userSpaceOnUse" x1="493.767" x2="492.725" xlink:href="#H" y1="270.48" y2="274.175"/><linearGradient id="aH" gradientUnits="userSpaceOnUse" x1="500.624" x2="499.544" xlink:href="#H" y1="267.352" y2="271.095"/><linearGradient id="aI" gradientUnits="userSpaceOnUse" x1="507.577" x2="506.473" xlink:href="#H" y1="264.023" y2="267.771"/><linearGradient id="aJ" gradientUnits="userSpaceOnUse" x1="514.366" x2="513.261" xlink:href="#H" y1="260.592" y2="264.263"/><linearGradient id="aK" gradientUnits="userSpaceOnUse" x1="521.146" x2="520.044" xlink:href="#H" y1="256.966" y2="260.604"/><linearGradient id="aL" gradientUnits="userSpaceOnUse" x1="527.827" x2="526.732" xlink:href="#H" y1="253.227" y2="256.802"/><linearGradient id="aM" gradientUnits="userSpaceOnUse" x1="534.424" x2="533.344" xlink:href="#H" y1="249.361" y2="252.859"/><linearGradient id="aN" gradientUnits="userSpaceOnUse" x1="540.885" x2="539.799" xlink:href="#H" y1="245.436" y2="248.908"/><linearGradient id="aO" gradientUnits="userSpaceOnUse" x1="547.475" x2="546.416" xlink:href="#H" y1="241.263" y2="244.631"/><linearGradient id="aP" gradientUnits="userSpaceOnUse" x1="553.807" x2="552.774" xlink:href="#H" y1="237.122" y2="240.366"/><linearGradient id="aQ" gradientUnits="userSpaceOnUse" x1="560.071" x2="559.063" xlink:href="#H" y1="232.862" y2="235.988"/><linearGradient id="aR" gradientUnits="userSpaceOnUse" x1="566.412" x2="565.41" xlink:href="#H" y1="228.442" y2="231.539"/><linearGradient id="aS" gradientUnits="userSpaceOnUse" x1="572.559" x2="571.565" xlink:href="#H" y1="224.065" y2="227.1"/><linearGradient id="aT" gradientUnits="userSpaceOnUse" x1="578.806" x2="577.846" xlink:href="#H" y1="219.477" y2="222.4"/><linearGradient id="aU" gradientUnits="userSpaceOnUse" x1="584.879" x2="583.968" xlink:href="#H" y1="214.874" y2="217.658"/><linearGradient id="aV" gradientUnits="userSpaceOnUse" x1="590.97" x2="590.057" xlink:href="#H" y1="210.206" y2="212.953"/><linearGradient id="aW" gradientUnits="userSpaceOnUse" x1="596.986" x2="596.096" xlink:href="#H" y1="205.473" y2="208.116"/><linearGradient id="aX" gradientUnits="userSpaceOnUse" x1="602.929" x2="602.071" xlink:href="#H" y1="200.7" y2="203.225"/><linearGradient id="aY" gradientUnits="userSpaceOnUse" x1="608.874" x2="608.037" xlink:href="#H" y1="195.884" y2="198.339"/><linearGradient id="aZ" gradientUnits="userSpaceOnUse" x1="614.78" x2="613.979" xlink:href="#H" y1="190.932" y2="193.276"/><linearGradient id="a0" gradientUnits="userSpaceOnUse" x1="620.62" x2="619.805" xlink:href="#H" y1="186.032" y2="188.34"/><linearGradient id="a1" gradientUnits="userSpaceOnUse" x1="626.434" x2="625.669" xlink:href="#H" y1="181.043" y2="183.223"/><linearGradient id="a2" gradientUnits="userSpaceOnUse" x1="632.211" x2="631.487" xlink:href="#H" y1="176.004" y2="178.083"/><linearGradient id="a3" gradientUnits="userSpaceOnUse" x1="637.962" x2="637.268" xlink:href="#H" y1="170.971" y2="172.959"/><g fill="#fff" opacity=".71"><path d="m699.72 215.668c.486-.152 1.009-.139 1.486.038.478.177.884.507 1.155.94.27.432.389.942.339 1.45-.049.507-.266.984-.615 1.356-16.126 16.588-56.91 61.407-69.358 101.066-20.265 64.599-75.124 131.605-126.083 127.475 0 0-54.399-151.776 193.076-232.325z" opacity=".75"/><path d="m674.886 236.117c-.438.33-.945.769-1.429 1.169l-1.451 1.238-2.864 2.522-5.698 5.099c-3.778 3.43-7.513 6.903-11.204 10.42-7.408 7.009-14.683 14.153-21.824 21.433-14.237 14.612-28.067 29.593-41.076 45.296-6.465 7.875-12.885 15.789-18.975 23.956-6.089 8.167-11.979 16.48-17.531 25.024s-10.881 17.227-15.696 26.201c-4.849 8.968-9.232 18.18-13.132 27.601-.018.047-.046.09-.081.126s-.078.064-.124.084c-.047.019-.097.029-.147.028-.051 0-.1-.01-.147-.031-.091-.037-.164-.109-.204-.199s-.044-.192-.011-.285c3.603-9.587 7.757-18.956 12.44-28.062 4.7-9.105 9.922-17.919 15.359-26.586 11.119-17.191 23.296-33.673 36.46-49.349 6.55-7.867 13.346-15.503 20.25-23.071 6.903-7.567 13.976-14.927 21.24-22.117 7.265-7.19 14.591-14.289 22.17-21.172 3.788-3.435 7.605-6.831 11.449-10.189 1.936-1.669 3.84-3.346 5.829-4.984l2.956-2.437 1.49-1.208c.515-.4.975-.769 1.536-1.199.081-.06.183-.084.282-.068.1.016.189.071.248.152.059.082.083.183.067.283-.016.099-.07.189-.152.248z" opacity=".43"/></g><g fill="#fff" opacity=".71"><path d="m683.486 310.19c.366-.038.734.046 1.047.24.312.195.551.487.68.832.128.346.138.724.029 1.075-.11.352-.333.657-.635.868-13.768 9.397-49.108 35.175-63.644 61.415-23.66 42.712-72.138 82.171-107.577 71.866 0 0-16.533-115.209 170.1-136.296z" opacity=".75"/><path d="m662.998 321.149c-.338.169-.768.407-1.159.623l-1.206.669-2.38 1.384-4.754 2.799c-3.158 1.882-6.292 3.807-9.399 5.776-6.23 3.917-12.392 7.926-18.484 12.027-12.14 8.306-24.051 16.919-35.569 26.148-5.698 4.614-11.388 9.29-16.894 14.173s-10.851 9.905-16.019 15.119c-10.429 10.328-19.874 21.608-28.213 33.692-.058.084-.146.143-.247.163-.1.02-.205 0-.29-.056-.082-.056-.14-.142-.16-.24-.02-.097-.001-.199.052-.283 3.895-6.285 8.156-12.335 12.763-18.118 4.607-5.776 9.583-11.274 14.675-16.634 10.336-10.574 21.332-20.481 32.92-29.662 5.774-4.614 11.687-9.029 17.662-13.358 5.974-4.33 12.048-8.529 18.245-12.535 6.197-4.007 12.425-7.96 18.776-11.713 3.179-1.871 6.378-3.709 9.599-5.514 1.612-.892 3.225-1.784 4.853-2.653l2.449-1.284 1.237-.631c.422-.207.768-.407 1.305-.623.046-.02.096-.03.147-.031.05 0 .1.01.147.029.046.02.088.048.124.084.035.036.063.079.081.126.035.089.036.188.002.278s-.1.163-.186.206z" opacity=".43"/></g><g fill="#fff" opacity=".72"><path d="m495.302 70.6512c-21.632 33.7298-139.529 235.1628 29.349 379.9028 0 0 111.701-112.602-23.475-379.6183-.272-.5311-.679-.981-1.181-1.3044-.501-.3233-1.078-.5088-1.674-.5376-.595-.0289-1.188.0999-1.718.3733s-.979.6819-1.301 1.1842z" opacity=".65"/><path d="m499.234 111.025c-2.089 12.613-3.924 25.279-5.652 37.96s-3.287 25.378-4.707 38.09c-2.849 25.425-5.13 50.918-6.62 76.458-1.49 25.539-2.204 51.117-1.536 76.665.292 12.771 1.06 25.514 2.304 38.228 1.174 12.69 3.097 25.298 5.759 37.76.044.197.049.402.014.601s-.109.389-.217.56c-.109.171-.249.318-.415.435-.165.116-.352.198-.549.242s-.401.049-.6.014-.389-.109-.559-.218c-.171-.108-.318-.249-.434-.415s-.198-.352-.242-.55c-2.621-12.594-4.491-25.334-5.598-38.152-1.173-12.786-1.866-25.603-2.081-38.451-.522-25.648.361-51.287 1.989-76.858 1.628-25.57 4.07-51.087 7.064-76.526 1.5-12.72 3.146-25.422 4.938-38.106 1.797-12.681 3.701-25.34 5.875-37.967.014-.086.046-.168.093-.241.047-.074.108-.137.179-.186.072-.05.152-.084.237-.102s.173-.019.259-.002c.086.014.168.045.242.092.074.046.137.107.187.179.049.072.084.153.101.239.017.085.017.174-.001.259z" opacity=".86"/></g><g fill="#fff" opacity=".72"><path d="m98.899 132.697c-6.2508 36.144-34.0492 247.744 159.564 309.536 0 0 54.115-134.581-154.519-311.382-.414-.359-.917-.601-1.456-.7s-1.094-.052-1.609.136-.9696.511-1.3178.935c-.3482.423-.5768.933-.6622 1.475z" opacity=".65"/><path d="m116.599 165.312c2.719 11.358 5.675 22.686 8.724 33.976 3.048 11.289 6.243 22.54 9.56 33.753 6.635 22.432 13.776 44.711 21.586 66.744s16.295 43.835 25.932 65.106c4.777 10.649 9.942 21.105 15.497 31.369 5.489 10.265 11.584 20.193 18.253 29.731.236.333.331.746.263 1.148-.067.402-.292.761-.624.998-.332.236-.744.331-1.146.263-.402-.067-.76-.292-.996-.625-6.679-9.682-12.776-19.754-18.261-30.161-5.529-10.336-10.664-20.887-15.404-31.654-9.538-21.425-17.885-43.335-25.595-65.452-7.71-22.118-14.69-44.489-21.187-66.983-3.255-11.248-6.376-22.528-9.36-33.838-2.988-11.32-5.867-22.663-8.524-34.075-.026-.163.01-.33.102-.468.092-.137.232-.234.392-.272.161-.038.329-.014.473.068.143.081.25.214.3.372z" opacity=".86"/></g><g fill="#fff" opacity=".71"><path d="m259.914 383.571s13.155-20.687 6.382-55.039c-6.274-31.869-23.56-107.435-18.008-139.196.056-.297.008-.605-.136-.871-.145-.266-.377-.474-.656-.589-.28-.115-.591-.13-.88-.041-.29.088-.54.273-.708.525-8.609 12.658-27.691 46.049-26.877 92.476 1.144 59.892 40.883 102.735 40.883 102.735z" opacity=".65"/><path d="m240.594 217.152c-1.24 3.136-2.228 6.366-2.957 9.659-.422 1.623-.698 3.292-1.052 4.93-.353 1.638-.553 3.314-.768 4.983s-.445 3.322-.568 4.999c-.123 1.676-.276 3.345-.368 5.022l-.185 5.021c0 1.677 0 3.361.039 5.03.135 6.695.71 13.375 1.72 19.995l.361 2.492.176 1.245.246 1.231.96 4.937c.307 1.646.668 3.292 1.037 4.937l1.09 4.937c1.536 6.573 3.113 13.136 4.73 19.688 1.651 6.544 3.364 13.073 5.061 19.625.86 3.269 1.712 6.537 2.519 9.829.414 1.645.816 3.294 1.205 4.945.4 1.645.768 3.299 1.106 4.968 1.382 6.629 2.588 13.419 2.227 20.264-.002.05-.014.1-.035.146s-.051.087-.088.121-.081.061-.128.078c-.048.018-.098.026-.148.024-.098-.006-.189-.048-.257-.117-.069-.07-.108-.163-.112-.26-.093-3.354-.437-6.695-1.029-9.997-.614-3.297-1.354-6.576-2.219-9.836-1.674-6.522-3.602-12.997-5.445-19.503l-2.772-9.759c-.891-3.269-1.797-6.529-2.641-9.805-1.759-6.545-3.333-13.135-4.861-19.741l-1.098-4.961c-.377-1.653-.768-3.307-1.029-4.991l-.93-5.029-.23-1.262-.169-1.261-.338-2.538c-.207-1.691-.499-3.376-.637-5.075l-.392-5.107c-.169-1.691-.153-3.406-.222-5.106-.07-1.7-.139-3.414-.054-5.122.048-6.822.703-13.627 1.958-20.333.299-1.676.722-3.33 1.075-4.991l.668-2.461c.215-.823.438-1.646.707-2.453.962-3.26 2.221-6.423 3.762-9.452 0 0 .039-.038.062 0 .009.005.017.013.021.023s.005.021.002.031z" opacity=".45"/></g><path d="m386.212 214.179c2.879-65.782-52.264-121.6323-123.165-124.7449-70.902-3.1125-130.714 47.6909-133.593 113.4729s52.264 121.633 123.165 124.745c70.902 3.113 130.713-47.691 133.593-113.473z" fill="url(#b)"/><path d="m250.899 295.348c55.69 0 100.835-42.708 100.835-95.391s-45.145-95.391-100.835-95.391c-55.689 0-100.834 42.708-100.834 95.391s45.145 95.391 100.834 95.391z" fill="url(#c)" opacity=".09"/><g fill="#fff" opacity=".68"><path d="m290.685 209.131c0 21.026-1.475 42.097-5.176 62.83-.937 5.176-2.02 10.328-3.317 15.435-1.268 5.113-2.806 10.154-4.608 15.104-1.768 4.99-4.086 9.767-6.911 14.242-1.438 2.252-3.186 4.289-5.191 6.052-1.025.884-2.167 1.622-3.394 2.192-1.245.577-2.592.896-3.963.938-1.372.021-2.734-.241-4.001-.769-1.254-.519-2.426-1.218-3.478-2.076-2.05-1.713-3.833-3.721-5.291-5.96-2.872-4.434-5.225-9.185-7.011-14.158-1.832-4.941-3.396-9.978-4.684-15.088-1.306-5.099-2.404-10.252-3.348-15.427-1.882-10.359-3.172-20.81-4.04-31.292-.867-10.482-1.29-21.01-1.344-31.531 0-5.252.116-10.512.308-15.773.192-5.26.483-10.505.867-15.749.768-10.49 1.943-20.949 3.663-31.331.868-5.191 1.874-10.359 3.072-15.473 1.196-5.128 2.659-10.19 4.385-15.165.883-2.484 1.85-4.937 2.948-7.337 1.085-2.397 2.345-4.71 3.771-6.921 1.408-2.2555 3.157-4.279 5.183-5.9985 1.031-.8552 2.186-1.5477 3.425-2.0533 1.25-.5065 2.592-.7474 3.94-.7075 1.344.0516 2.666.3623 3.893.9151 1.212.5565 2.348 1.2673 3.379 2.1149 2.027 1.7145 3.809 3.6991 5.298 5.8983 2.929 4.377 5.363 9.066 7.257 13.981 1.933 4.898 3.594 9.899 4.976 14.981 1.405 5.076 2.588 10.205 3.617 15.381 4.062 20.641 5.713 41.712 5.775 62.745zm-1.536 0c0-10.474-.415-20.941-1.244-31.399-.826-10.446-2.192-20.842-4.093-31.146-.968-5.145-2.089-10.267-3.425-15.327-1.321-5.065-2.918-10.053-4.784-14.943-1.821-4.899-4.18-9.58-7.034-13.958-1.435-2.169-3.158-4.1332-5.122-5.8365-.985-.8313-2.074-1.5294-3.241-2.0764-1.166-.5407-2.425-.8489-3.709-.9075-1.282-.0273-2.556.2137-3.739.7075-1.185.5039-2.288 1.1831-3.272 2.0149-1.959 1.7058-3.645 3.7029-4.999 5.922-1.386 2.212-2.606 4.526-3.647 6.921-1.068 2.384-1.997 4.829-2.842 7.306-1.666 4.961-3.065 10.008-4.192 15.119-1.152 5.106-2.105 10.267-2.911 15.442-1.605 10.351-2.641 20.764-3.302 31.246-.66 10.482-.898 20.949-.883 31.423s.323 20.956 1.106 31.407 1.981 20.864 3.778 31.184c.898 5.161 1.95 10.29 3.21 15.381 1.234 5.084 2.746 10.095 4.53 15.012 1.722 4.923 4.003 9.632 6.796 14.035 1.393 2.174 3.101 4.128 5.069 5.798.977.815 2.069 1.481 3.24 1.977 1.158.488 2.407.724 3.663.692 1.258-.047 2.494-.347 3.632-.885 1.15-.548 2.22-1.252 3.18-2.091 1.923-1.722 3.593-3.708 4.96-5.899 2.744-4.443 4.985-9.179 6.681-14.119 1.758-4.926 3.252-9.942 4.477-15.027 1.244-5.084 2.304-10.213 3.171-15.381 1.79-10.321 2.972-20.764 3.763-31.192s1.167-20.918 1.16-31.4z" opacity=".68"/><path d="m343.647 209.131c-.023 13.566-1.849 27.068-5.429 40.151-3.623 13.078-9.283 25.502-16.771 36.814-3.761 5.631-8.05 10.889-12.809 15.704-4.764 4.819-10.055 9.086-15.772 12.72-5.743 3.614-11.941 6.446-18.43 8.421-13.042 3.968-26.967 3.968-40.008 0-6.491-1.967-12.689-4.794-18.43-8.406-5.722-3.629-11.018-7.89-15.789-12.704-4.772-4.813-9.072-10.075-12.839-15.712-7.497-11.315-13.172-23.741-16.817-36.821-1.816-6.535-3.175-13.187-4.07-19.91-1.833-13.453-1.833-27.092 0-40.544.895-6.719 2.26-13.367 4.085-19.895 3.673-13.072 9.379-25.482 16.91-36.775 3.767-5.628 8.064-10.881 12.831-15.688 4.759-4.816 10.048-9.075 15.766-12.697 5.745-3.599 11.943-6.4178 18.429-8.3826 13.014-3.981 26.918-3.981 39.932 0 6.49 1.9703 12.688 4.7996 18.43 8.4136 5.714 3.623 11.002 7.879 15.765 12.689 4.743 4.804 9.019 10.049 12.77 15.665 7.486 11.316 13.146 23.742 16.771 36.821 3.592 13.077 5.433 26.574 5.475 40.136zm-1.781 0c.02-13.411-1.739-26.765-5.23-39.713-3.479-12.959-8.958-25.295-16.241-36.56-3.664-5.609-7.855-10.855-12.517-15.665-4.655-4.811-9.844-9.074-15.466-12.704-5.651-3.609-11.762-6.4387-18.168-8.4136-12.879-4.009-26.669-4.009-39.548 0-6.399 1.9934-12.502 4.8386-18.145 8.4596-5.625 3.633-10.814 7.901-15.466 12.72-4.658 4.815-8.842 10.069-12.494 15.688-7.274 11.258-12.739 23.59-16.195 36.544-1.745 6.461-3.046 13.034-3.894 19.672-1.743 13.273-1.743 26.717 0 39.99.857 6.636 2.162 13.206 3.909 19.664 3.471 12.947 8.944 25.27 16.218 36.522 3.657 5.604 7.84 10.844 12.494 15.65 4.654 4.809 9.846 9.064 15.474 12.681 5.644 3.597 11.745 6.422 18.138 8.398 12.853 4.019 26.625 4.019 39.478 0 6.399-1.968 12.504-4.787 18.153-8.383 5.629-3.621 10.824-7.879 15.481-12.689 4.665-4.804 8.859-10.044 12.525-15.649 7.288-11.246 12.776-23.563 16.264-36.507 3.495-12.944 5.253-26.296 5.23-39.705z" opacity=".68"/><path d="m150.403 162.935 26.784-.223 26.778-.123 53.569-.092 53.562.108 26.784.13 26.777.239c.011-.001.022 0 .032.003.01.004.02.009.028.016.008.008.014.016.018.026.005.01.007.021.007.032-.002.021-.012.04-.027.055-.016.014-.036.022-.058.022l-26.777.238-26.784.131-53.562.107-53.569-.1-26.778-.123-26.784-.215c-.031 0-.06-.012-.082-.034-.021-.021-.033-.051-.033-.081 0-.015.003-.03.008-.044.006-.014.015-.027.025-.038.011-.011.024-.019.038-.025s.029-.009.044-.009z" opacity=".68"/><path d="m181.472 117.993c6.343-.1 12.678-.146 19.014-.215l19.021-.123c6.335-.054 12.67-.047 19.013-.062l19.021-.031 38.027.108 19.014.138c6.343.077 12.678.123 19.013.231.011 0 .022.002.032.007.009.004.018.01.026.018.007.008.012.018.016.028.003.01.004.021.003.032-.002.019-.01.038-.024.052s-.033.023-.053.025c-6.335.107-12.67.153-19.013.23l-19.014.131-38.027.115-19.013-.038c-6.343 0-12.678 0-19.013-.062l-19.022-.123c-6.335-.077-12.67-.115-19.013-.215-.031-.002-.061-.016-.082-.039s-.033-.053-.033-.084c-.001-.015.001-.03.006-.045.004-.014.012-.028.022-.039s.022-.021.036-.027c.013-.007.028-.011.043-.012z" opacity=".68"/><path d="m141.096 207.839 29.111-.215 29.104-.123 58.223-.1 58.215.107 29.112.139 29.103.231c.022 0 .042.007.058.022.015.014.025.033.027.055-.002.021-.011.042-.027.057-.015.016-.036.025-.058.027l-29.103.231-29.112.131-58.215.115-58.223-.1-29.104-.123-29.111-.215c-.032-.002-.061-.016-.082-.039-.022-.023-.034-.053-.034-.084s.013-.06.034-.082c.022-.022.051-.034.082-.034z" opacity=".68"/><path d="m150.403 252.766 26.784-.223 26.778-.115 53.569-.1 53.562.107 26.784.131 26.777.239c.011-.001.022 0 .032.003.01.004.02.009.028.016.008.008.014.016.018.026.005.01.007.021.007.032-.002.021-.012.04-.027.054-.016.015-.036.023-.058.022l-26.777.239-26.784.131-53.562.107-53.569-.1-26.778-.123-26.784-.215c-.031 0-.06-.012-.082-.034-.021-.022-.033-.051-.033-.081 0-.016.003-.031.008-.045.006-.014.015-.026.025-.037.011-.011.024-.019.038-.025s.029-.009.044-.009z" opacity=".68"/><path d="m337.404 298.216h-152.1c-.099-.014-.19-.063-.256-.138-.066-.076-.102-.173-.102-.273 0-.101.036-.198.102-.273.066-.076.157-.125.256-.139h152.1c.059-.008.119-.003.175.014.057.017.109.046.154.085s.08.087.105.141c.024.054.037.112.037.172 0 .059-.013.118-.037.172-.025.054-.06.102-.105.141s-.097.068-.154.085c-.056.017-.116.021-.175.013z" opacity=".68"/></g><g fill="#fff" opacity=".71"><path d="m54.0454 272.953c-.1568-.393-.1782-.827-.0606-1.233.1175-.406.3671-.762.7093-1.01s.7573-.375 1.1796-.36c.4222.015.8274.171 1.1512.442 14.5442 12.305 53.7001 43.459 87.0041 51.526 54.222 13.073 112.445 54.524 111.923 96.783-.031-.039-121.752 53.371-201.9066-146.148z" opacity=".65"/><path d="m72.2834 292.241c.2918.33.6834.723 1.0366 1.099l1.1058 1.123 2.2423 2.215 4.523 4.407c3.0409 2.907 6.1126 5.78 9.2149 8.621 6.1894 5.695 12.481 11.281 18.875 16.757 12.817 10.889 25.925 21.448 39.563 31.276 6.842 4.876 13.7 9.736 20.734 14.297 7.034 4.56 14.221 8.951 21.501 13.073 14.598 8.376 29.953 15.353 45.86 20.841.102.031.187.101.237.194.051.094.062.204.031.306-.03.102-.1.188-.193.238-.094.051-.204.062-.306.031-8.095-2.405-16.044-5.281-23.805-8.613-7.764-3.345-15.312-7.144-22.761-11.136-14.776-8.188-29.023-17.298-42.657-27.277-6.835-4.961-13.508-10.136-20.096-15.381-6.589-5.245-13.055-10.69-19.375-16.288-6.32-5.599-12.5551-11.374-18.6446-17.226-3.0307-2.933-6.0307-5.894-9-8.883-1.482-1.538-2.9641-3.007-4.4154-4.537l-2.1655-2.307-1.0751-1.169c-.3533-.4-.6988-.769-1.0828-1.238-.0628-.08-.0915-.181-.08-.282s.0623-.193.1415-.257c.0766-.06.1732-.088.2701-.08.097.009.187.054.252.127z" opacity=".43"/></g><path d="m446.041 412.318 103.667-198.873h-21.255c-.884.013-1.753-.229-2.503-.697s-1.35-1.143-1.728-1.943-.518-1.692-.404-2.57c.114-.877.478-1.704 1.049-2.38l110.486-134.8501c1.039-1.2838 2.458-2.2041 4.053-2.628 1.594-.424 3.282-.3298 4.82.2691s2.846 1.6714 3.735 3.0629c.89 1.3915 1.315 3.0301 1.215 4.6793l-7.794 131.9198c-.107 1.788-.576 3.535-1.379 5.134-.803 1.6-1.923 3.019-3.292 4.171-1.369 1.151-2.959 2.011-4.671 2.527s-3.511.677-5.287.473l-14.805-1.692-102.847 223.02c-1.312 2.845-3.41 5.254-6.046 6.942-2.636 1.689-5.699 2.586-8.828 2.586h-35.639z" fill="url(#e)"/><path d="m360.334 272.838 73.182 162.797c2.12 4.717 5.555 8.722 9.892 11.532s9.392 4.307 14.558 4.31h37.72c2.459.007 4.876-.645 6.999-1.889s3.874-3.035 5.072-5.186l1.344-2.423c-1.988.004-3.939-.544-5.635-1.584s-3.071-2.531-3.971-4.306l-97.525-191.321z" fill="url(#f)"/><path d="m411.838 264.063c-1.735-1.371-3.735-2.368-5.874-2.927s-4.371-.668-6.554-.321c-2.183.348-4.27 1.144-6.131 2.34-1.86 1.196-3.453 2.765-4.678 4.607l-107.6 161.89c-4.241 6.385-9.992 11.622-16.741 15.244-6.75 3.623-14.288 5.519-21.946 5.52h-15.143l-12.287-35.545s99.99-153.607 125.776-176.839c0 0 25.672-23.171 50.982-5.653 6.662 4.687 11.828 11.203 14.874 18.765z" fill="url(#g)"/><path d="m97.8164 319.265s18.0076-22.548 52.9086-26.055c0 0 16.572 5.66 49.6 64.914s54.944 86.286 80.63 71.52l-2.127 3.538c-3.449 5.737-8.322 10.483-14.144 13.778s-12.396 5.026-19.083 5.025h-14.168c-7.719.001-15.328-1.836-22.198-5.361s-12.804-8.636-17.311-14.911c-25.718-35.76-78.304-106.896-94.1076-112.448z" fill="url(#h)"/><path d="m636.682 118.239h-.13c-.303-.037-.579-.191-.769-.43-.189-.239-.278-.543-.245-.847l.768-6.444c.016-.151.062-.297.135-.43s.172-.25.29-.345c.119-.094.255-.164.401-.205.146-.042.298-.053.449-.035.302.036.578.191.768.43s.278.543.245.846l-.729 6.437c-.035.288-.175.552-.394.741-.218.189-.5.29-.789.282z" fill="#fff"/><path d="m544.464 199.511c-.216 0-.428-.06-.612-.174-.183-.114-.331-.277-.426-.471s-.134-.411-.112-.626c.021-.215.103-.42.236-.59l91.227-118.7087c.528-.6824 1.264-1.1734 2.097-1.3982.832-.2249 1.715-.1713 2.514.1526s1.47.9004 1.912 1.6417c.441.7412.629 1.6067.534 2.4648l-1.612 14.2271c-.017.1515-.063.2982-.136.4318-.074.1336-.172.2514-.291.3467s-.255.1663-.401.2089-.299.0559-.451.0393c-.151-.0167-.297-.0631-.431-.1364-.133-.0734-.251-.1723-.346-.2912s-.166-.2555-.209-.4018c-.042-.1463-.055-.2996-.039-.4511l1.613-14.2348c.04-.3587-.039-.7205-.223-1.0304-.185-.3099-.466-.5507-.8-.6858s-.703-.157-1.051-.0623c-.348.0946-.655.3006-.875.5865l-91.205 118.7313c-.109.136-.249.246-.407.321s-.331.112-.506.11z" fill="#fff"/><path d="m337.504 323.956c-.229 0-.454-.066-.645-.193-.253-.173-.427-.439-.484-.74-.058-.301.006-.613.177-.867l47.18-70.013c.837-1.226 1.982-2.21 3.319-2.853 1.337-.642 2.819-.921 4.298-.808s2.902.614 4.126 1.452c1.224.839 2.206 1.985 2.847 3.324.131.278.146.596.042.884-.104.289-.317.524-.594.654-.277.131-.595.146-.883.042s-.523-.318-.653-.595c-.465-.98-1.18-1.818-2.073-2.432-.893-.613-1.932-.98-3.011-1.062-1.08-.082-2.162.124-3.137.595-.975.472-1.808 1.193-2.415 2.091l-47.172 70.036c-.106.147-.244.268-.404.352s-.337.129-.518.133z" fill="#fff"/><path d="m325.241 342.159c-.228.001-.451-.069-.638-.2-.253-.171-.429-.435-.488-.735s.003-.611.173-.865l3.026-4.491c.085-.126.193-.233.32-.317.126-.084.267-.142.416-.171s.302-.028.45.002c.148.031.289.09.415.175.126.084.233.193.317.32.083.126.141.268.17.417s.028.302-.002.45c-.03.149-.089.29-.174.416l-3.026 4.491c-.105.158-.248.287-.416.375-.167.089-.354.134-.543.133z" fill="#fff"/><path d="m444.336 273.884c-.054 0-30.156-52.81-34.226-57.778-.336-.41-.769-.73-1.26-.929s-1.024-.271-1.551-.209l-8.401 1.031-9.867 21.379 16.441-9.59c-1.628 11.282 19.474 27.993 26.738 34.107.175.145.318.325.42.529.103.203.162.426.174.653.012.228-.023.455-.102.669-.08.213-.203.408-.361.571l-2.887 3.038c4.452 4.638 10.152 7.884 16.41 9.344z" fill="#efbc90"/><path d="m431.089 265.717c-.54.189-1.037.485-1.461.871-.423.386-.765.853-1.004 1.374-.135.39-.139.812-.011 1.204.127.392.379.731.718.965 3.071 2.176 13.054 9.228 17.662 10.597.087.025.178.027.266.005.088-.021.169-.065.234-.127.066-.062.115-.14.141-.226.027-.087.031-.179.011-.267-.238-1.077-1.006-3.23-3.478-6.375l.222.454c.059.123.078.262.053.396s-.092.257-.191.351-.225.154-.36.172-.273-.008-.392-.074c-3.034-1.745-9.338-5.575-12.41-9.32z" fill="url(#i)"/><path d="m432.625 286.834c-.046 0-4.561-10.928-4.607-10.958-4.139-25.248-14.245-46.865-17.225-52.556-.244-.472-.604-.874-1.046-1.168-.442-.295-.951-.472-1.48-.516l-8.447-.716-13.991 18.919 18.038-6.053c-3.84 10.705 13.431 31.385 19.29 38.837.141.179.244.385.302.605.059.221.071.451.038.676-.034.226-.114.442-.234.636-.121.193-.28.36-.467.49l-3.44 2.384c3.421 5.446 8.348 9.779 14.183 12.473z" fill="#f4caab"/><path d="m421.322 276.16c-.568.076-1.115.266-1.609.558-.493.292-.923.68-1.263 1.142-.212.354-.301.767-.256 1.177.046.41.225.793.509 1.091 2.534 2.754 10.935 11.682 15.182 13.966.08.043.17.064.26.061.091-.002.18-.028.257-.076.078-.047.142-.114.186-.194.044-.079.066-.169.065-.26 0-1.107-.331-3.368-2.12-6.921l.123.484c.036.133.028.273-.022.401s-.14.236-.256.308c-.117.073-.253.106-.39.095-.137-.012-.266-.067-.369-.158-2.68-2.361-8.078-7.39-10.297-11.674z" fill="url(#j)"/><path d="m360.357 216.929s-7.595 11.374-8.255 16.542 2.112 6.975 10.09 7.637c23.752 1.961 35.462-5.168 35.462-5.168 1.628-10.375 2.78-13.012 16.357-18.657 0 0-17.171 1.369-20.618 0-3.448-1.369-33.036-.354-33.036-.354z" fill="#364154"/><path d="m390.766 153.284s-5.314-6.291-10.958 1.43c-1.021 1.4-4.953.246-6.389 3.169-.349.737-.931 1.339-1.655 1.712-.724.374-1.551.499-2.353.356-4.116-.769-10.858-.83-14.183 5.638-2.535 4.937-.576 7.828 1.965 9.474.905.572 1.556 1.471 1.816 2.511s.111 2.14-.418 3.072c-1.083 1.838-1.282 4.322 1.536 7.321 6.258 6.714 18.637-4.26 18.637-4.26l9.829-23.263z" fill="#364154"/><path d="m380.975 215.422s8.885-8.459 13.255-14.073c1.166-1.498 1.957-3.253 2.308-5.12.35-1.866.248-3.789-.297-5.608-1.996-6.737-5.544-13.712-5.866-14.797-.492-1.661-10.452-1.592-10.452-1.592s-19.597 12.736-27.291 34.307l8.647 2.699s5.114-8.597 10.167-14.065c0 0-8.747 11.535-9.054 16.311z" fill="url(#l)"/><path d="m397.9 218.767-6.673-7.275-7.679 2.084s-8.985 1.392-14.122 0l-5.145-1.422-11.618-3.623-1.859 5.161c-.224.638-.235 1.333-.03 1.978.205.646.615 1.206 1.167 1.598.925.691 1.906 1.303 2.933 1.83 1.536.669 35.255.208 35.255.208z" fill="#f4caab"/><path d="m386.766 162.259-6.689 12.458c.438 2.722 7.28 2.799 8.34 1.177.103-.168.173-.353.207-.546l4.008-8.329c.169-.815-2.05-3.553-2.787-3.938l-2.657-1.422c-1.029-.546 3.248-.585-.422.6z" fill="#efbc90"/><path d="m400.311 159.329s.768 4.214-2.549 9.566c-3.317 5.353-6.596 5.114-8.27 3.207s-3.671-5.091-2.757-10.428 12.432-7.713 13.576-2.345z" fill="#f4caab"/><path d="m390.736 162.251s5.375-7.037 9.453-.9l-.07 2.115s5.376-.246 4.769-5.183c-.606-4.938-4.945-8.298-10.989-6.614-6.043 1.684-9.583 3.576-10.267 7.813-.683 4.238 2.75 3.515 2.75 3.515s1.305-2.899 2.887-3.076 1.014 2.099 1.014 2.099z" fill="#364154"/><path d="m389.507 162.066s2.772-3.607.246-4.352c-2.527-.746-2.427 3.529-2.266 5.121z" fill="#efbc90"/><path d="m375.8 221.643h.069 30.716c.365 0 .714-.145.972-.403s.403-.608.403-.973-.145-.715-.403-.974c-.258-.258-.607-.403-.972-.403h-30.716c-.347.017-.675.165-.918.415-.242.249-.381.581-.389.929s.116.686.347.946.552.423.898.456z" fill="url(#m)"/><path d="m434.161 193.735h-25.556c-.924.001-1.829.264-2.61.759-.78.496-1.404 1.204-1.798 2.04l-11.818 25.094h31.799c.594-.002 1.174-.182 1.665-.516s.871-.808 1.092-1.36l9.161-23.218c.124-.313.169-.652.131-.986-.039-.335-.159-.655-.35-.932-.192-.277-.449-.502-.748-.656s-.632-.231-.968-.225z" fill="#364154"/><path d="m416.161 206.601c-.561 1.723-.146 3.399.914 3.738 1.06.338 2.365-.769 2.918-2.5.553-1.73.146-3.399-.914-3.737-1.06-.339-2.365.776-2.918 2.499z" fill="url(#n)"/><path d="m174.815 449.524c-3.725.323-10.175.846-15.266 1.069-3.072.13-4.815-.17-5.829-.577v.323c.013.261.123.508.307.692.185.185.431.295.692.308 6.65.37 13.315.37 19.965 0 .127-.011.25-.053.357-.122.107-.07.195-.165.256-.277.06-.112.093-.238.093-.366s-.031-.253-.092-.366c-.147-.237-.309-.466-.483-.684z" fill="url(#o)"/><path d="m159.549 450.593c5.091-.223 11.518-.769 15.266-1.069-3.655-4.492-15.266-7.522-15.266-7.522h-3.279c-1.666 2.339-2.558 5.141-2.55 8.014 1.014.407 2.772.707 5.829.577z" fill="#364154"/><path d="m155.724 436.642.3 6.076c.016.322.144.629.361.867.217.239.51.394.829.44.824.123 1.665.055 2.457-.2.283-.091.536-.257.732-.48.196-.224.328-.496.382-.789l1.06-5.914z" fill="url(#q)"/><path d="m113.175 450.554c-.587-.026-1.152-.226-1.624-.575-.472-.35-.829-.832-1.026-1.386-.097.503-.008 1.024.253 1.465.26.441.673.771 1.16.927 1.244.485 2.577.694 3.909.615.557-.004 1.106-.127 1.612-.36.506-.234.956-.572 1.321-.993-1.236.599-2.941.676-5.605.307z" fill="#364154"/><path d="m120.754 436.604h-2.711c-4.116-.085-6.696 8.613-7.549 11.981.198.56.559 1.048 1.037 1.399s1.051.55 1.643.57c2.696.377 4.401.3 5.614-.3 2.227-2.93 3.325-7.221 3.839-9.728.193-.77.112-1.583-.23-2.299-.343-.716-.924-1.29-1.643-1.623z" fill="#364154"/><path d="m118.396 430.959-1.535 5.983c-.088.357-.053.733.101 1.067.153.334.415.606.743.771.944.546 2.022.813 3.11.769.251-.033.487-.136.682-.296s.342-.372.424-.611l2.204-6.291z" fill="url(#r)"/><path d="m116.607 432.69c1.866 1.661 7.94 1.876 7.94 1.876 21.878-52.594 30.832-60.062 30.832-60.062-3.164 19.849-.507 63.83-.507 63.83 3.609 1.592 8.263 0 8.263 0 .264-28.096 4.017-56.049 11.173-83.217-14.79-.338-22.653-5.383-25.218-7.437-12.333 19.903-32.483 85.01-32.483 85.01z" fill="#364154"/><path d="m152.845 287.196c-2.803 13.981-1.797 39.013-1.137 50.425.184 3.207-2.058 7.691-3.839 10.69-.068.112-.112.236-.13.366-.017.13-.008.262.028.387.037.126.098.243.182.344.083.1.187.183.304.241 3.025 1.538 13.277 6.391 25.164 6.991.386.014.765-.104 1.075-.335.31-.23.532-.56.63-.934 8.792-32.961 19.029-54.01 19.029-54.01-11.304-18.095-41.306-14.165-41.306-14.165z" fill="url(#s)"/><path d="m156.869 373.259c-.123-.004-.244-.04-.349-.104s-.192-.154-.253-.261c-.06-.108-.091-.229-.091-.353 0-.123.033-.244.094-.351 2.176-3.239 5.17-5.842 8.677-7.545.168-.08.361-.091.537-.029s.319.192.4.36c.08.168.091.362.029.538s-.191.32-.359.4c-3.255 1.596-6.041 4.01-8.086 7.006-.063.104-.15.189-.255.248-.105.06-.224.091-.344.091z" fill="url(#t)"/><path d="m135.283 327.332c.898 6.514 3.555 13.619 8.869 21.164l2.02-1.654c-1.429-6.642-1.769-13.473-1.006-20.225-3.279-.646-7.15.015-9.883.715z" fill="#f4caab"/><path d="m155.97 304.438-3.125-17.258s-20.895 15.996-17.562 40.136c2.734-.7 6.604-1.353 9.883-.715.96-7.729 3.809-16.142 10.804-22.163z" fill="url(#u)"/><path d="m194.151 301.361-8.025 17.381c1.305 10.497 6.911 15.034 13.008 16.78.298-3.896 1.213-7.72 2.711-11.328-7.802-8.021-7.694-22.833-7.694-22.833z" fill="url(#v)"/><path d="m201.807 324.194c-1.498 3.608-2.414 7.432-2.711 11.328 16.203 6.291 20.488-5.914 20.488-5.914l-2.995-.531c-6.758.739-11.48-1.468-14.782-4.883z" fill="#f4caab"/><path d="m186.725 279.875-3.893 14.335c-.104.379-.287.732-.536 1.035-.25.304-.561.551-.912.726-.352.175-.736.274-1.129.29-.392.015-.783-.052-1.148-.198-1.915-.756-3.789-1.613-5.613-2.569-.457-.25-.856-.593-1.173-1.006s-.545-.888-.67-1.394c-.124-.507-.142-1.033-.052-1.547.09-.513.285-1.002.574-1.436l8.094-12.128z" fill="#f4caab"/><path d="m227.009 320.018-99.751 36.353c-.986.365-1.887.93-2.646 1.659s-1.361 1.606-1.768 2.577c-.406.971-.61 2.016-.597 3.069s.242 2.092.672 3.053l.307.662c.387.853.939 1.622 1.623 2.261.685.639 1.489 1.136 2.366 1.463s1.81.476 2.745.44c.936-.036 1.854-.257 2.704-.65l96.857-44.873z" fill="url(#w)"/><path d="m272.861 346.573c27.194 0 49.239-21.681 49.239-48.426s-22.045-48.426-49.239-48.426c-27.193 0-49.238 21.681-49.238 48.426s22.045 48.426 49.238 48.426z" fill="url(#x)" opacity=".5"/><path d="m272.9 244.261c-30.264 0-54.791 24.124-54.791 53.886s24.527 53.879 54.791 53.879c30.263 0 54.79-24.125 54.79-53.879s-24.565-53.886-54.79-53.886zm0 99.851c-25.817 0-46.743-20.579-46.743-45.965s20.887-46.004 46.743-46.004c25.855 0 46.742 20.587 46.742 45.973s-20.963 45.996-46.742 45.996z" fill="url(#y)"/><path d="m222.218 304.838c-.093-.002-.183-.037-.252-.099s-.113-.147-.125-.24c-.169-1.276-.284-2.576-.345-3.845-.003-.051.004-.102.021-.151.017-.048.043-.093.077-.131.035-.037.076-.068.123-.09.046-.021.096-.034.147-.036.051-.003.102.004.15.021.048.018.091.044.129.079.037.034.067.076.088.122.021.047.032.097.033.148.061 1.261.176 2.545.338 3.799.013.1-.015.202-.077.283s-.153.134-.254.147zm.376-15.066h-.069c-.1-.019-.188-.076-.246-.16-.057-.083-.079-.186-.061-.286.622-3.474 1.613-6.872 2.956-10.136 3.913-9.425 10.544-17.468 19.046-23.098 8.502-5.631 18.487-8.593 28.68-8.509 9.76-.018 19.328 2.719 27.606 7.898.086.055.146.142.167.241.022.1.003.204-.052.29-.026.042-.06.079-.1.109-.041.029-.086.05-.135.062-.049.011-.099.013-.148.004-.05-.008-.097-.026-.139-.052-8.156-5.102-17.583-7.799-27.199-7.783-10.031-.075-19.856 2.846-28.222 8.389-8.365 5.544-14.891 13.459-18.744 22.734-1.321 3.22-2.297 6.571-2.91 9.997-.019.093-.072.176-.149.232-.077.055-.172.08-.266.068z" fill="#fff"/><path d="m195.241 268.985c0 .246-3.248 16.358-3.248 16.358l-9.146-2.077.845-15.727s10.95-2.668 11.549 1.446z" fill="#f4caab"/><path d="m185.75 271.046-1.091 8.244c-.015.105-.015.211 0 .316.092.646.568 2.845 2.788 2.214 2.012-.569 3.839-1.061 5.137-.669.27.092.497.279.639.527.141.248.187.54.129.819-.509 2.553-1.215 5.062-2.112 7.506-.105.268-.307.487-.566.614-.258.127-.555.152-.831.07-2.808-.782-5.514-1.892-8.063-3.307-.181-.106-.33-.259-.43-.443-.1-.185-.148-.393-.139-.602.092-2.077.331-8.406.131-10.182-.2-1.777-2.235-2.661-3.118-3.015-.143-.059-.273-.146-.382-.256-.109-.109-.196-.239-.255-.382-.415-1.031-.975-3.415 2.019-4.392.155-.044.3-.121.424-.224s.225-.231.297-.376.114-.302.122-.464c.008-.161-.017-.323-.075-.474-.445-1.238-.629-3.13 1.69-4.168.861-.39 1.828-.481 2.747-.26.919.222 1.738.743 2.329 1.483.186.198.435.323.705.356.269.032.541-.031.769-.179.153-.107.335-.164.522-.164s.369.057.522.164c.137.082.29.134.448.153.158.02.319.006.471-.04.153-.047.294-.124.415-.229.121-.104.218-.232.287-.376.335-.755.929-1.365 1.674-1.72.744-.355 1.591-.433 2.388-.218 4.101.7 4.561 5.252 3.479 7.913-1.083 2.661-5.476 1.654-7.68.308-1.674-1.023-3.839.054-4.799.623-.156.083-.29.202-.392.346-.103.144-.171.31-.199.484z" fill="#364154"/><path d="m181.004 279.159s1.682-4.721-.046-5.883c-1.728-1.161-4.293-.553-3.732 2.869.699 4.26 3.778 3.014 3.778 3.014z" fill="#f4caab"/><path d="m145.342 346.558 9.43-.769 4.086 3.768s-.968 1.338-3.986.569c-2.357-.518-4.754-.837-7.164-.954 0 0-4.17 1.877-4.216-1.645z" fill="#f4caab"/><path d="m218.378 331.838c.814.639 3.609-.692 5.314-1.615.402-.214.716-.561.89-.982s.196-.889.062-1.325c-.407-1.299-1.098-2.976-1.942-3.184-1.39-.376-7.68 4.476-4.324 7.106z" fill="#f4caab"/><path d="m129.232 369.521c-.044.007-.088.007-.131 0-3.901-1.353-4.807-3.661-4.884-5.383-.034-1.243.322-2.466 1.017-3.496.696-1.031 1.696-1.817 2.861-2.249l11.979-4.676c.048-.022.1-.035.153-.037.053-.001.105.008.154.027.049.02.094.05.131.087.037.038.066.083.085.132s.028.102.026.155-.015.105-.039.152c-.023.048-.055.09-.096.124-.04.035-.087.06-.137.076l-11.972 4.675c-1.015.374-1.888 1.056-2.496 1.951-.609.895-.923 1.958-.898 3.04.092 2.131 1.536 3.699 4.369 4.676.096.033.174.103.219.193.044.091.051.196.019.292-.025.075-.074.141-.138.188-.065.047-.143.073-.222.073z" fill="#fff"/><path d="m143.891 353.018c-.102.018-.207-.005-.292-.064s-.143-.15-.161-.252c-.019-.102.004-.207.063-.292s.15-.143.252-.162l1.536-.599c.046-.02.095-.03.146-.03.05 0 .1.011.146.031s.087.05.121.086c.035.037.061.081.078.128.019.047.028.097.027.148 0 .05-.011.1-.031.147-.02.046-.049.088-.085.123s-.079.063-.126.082l-1.536.607z" fill="#fff"/><path d="m436.81 75.5191s-19.236 23.2403-18.545 25.5549c.691 2.315 37.705 32.361 40.753 29.777 3.049-2.584 20.45-21.348 20.45-21.348-16.595-19.7106-40.561-35.9987-42.658-33.9839z" fill="url(#z)"/><path d="m457.797 154.637c-7.94 0-41.183-24.117-53.846-37.006-6.611-6.729-6.78-9.182-6.32-10.443 2.734-7.6212 34.764-56.4933 46.743-57.9391h.3l.238.1769c6.143 4.445 59.766 43.635 60.165 50.4871.277 4.7681-15.603 23.5021-20.48 29.1311-9.86 11.382-22.192 24.224-25.97 25.516-.271.069-.551.095-.83.077zm-13.53-103.8193c-10.851 2.0764-42.358 48.9952-45.192 56.9083-.177.477-.246 2.523 5.974 8.852 13.823 14.066 46.344 36.583 52.556 36.583.177.003.353-.02.522-.069 2.918-1 13.823-11.774 25.341-25.071 11.995-13.843 20.258-25.378 20.104-28.0312-.299-4.6527-35.523-31.8765-59.305-49.1721z" fill="#fff"/><path d="m458.473 131.782c-.376-.013-.748-.078-1.106-.193-6.957-2.068-38.941-27.323-39.831-30.292-.707-2.3531 11.395-17.4723 18.683-26.27.13-.1571.318-.2559.521-.2746s.405.0441.562.1746.255.3181.274.5215c.019.2033-.044.4058-.174.5628-8.931 10.7665-18.185 22.9711-18.384 24.8707 1.635 2.976 36.145 30.438 39.562 29.354 2.934-2.499 19.697-20.472 19.866-20.656.067-.082.149-.15.242-.198.094-.049.196-.078.301-.085s.211.007.31.042.19.09.267.162.139.159.181.256c.042.096.064.201.064.306 0 .106-.022.21-.064.307-.041.096-.103.184-.18.256-.691.769-16.993 18.226-20.05 20.817-.294.238-.666.359-1.044.339z" fill="#fff"/><path d="m474.63 111.564c-8.915 0-26.37-3.599-29.058-5.299-3.501-2.207-11.119-27.1621-9.476-31.0457.238-.5461.853-1.0921 2.465-.5845 4.155 1.3073 15.067 9.3899 24.036 16.8188 6.827 5.6524 18.199 15.5424 17.662 18.2104-.087.317-.25.608-.477.846-.227.237-.509.415-.821.515-1.401.435-2.867.617-4.331.539zm-37.167-35.6065c-1.067 3.6452 6.143 27.2545 8.931 29.0085 2.787 1.753 27.322 6.598 31.945 4.614.307-.123.384-.239.392-.254-.077-1.984-13.631-14.6117-27.922-25.2167-8.769-6.4983-12.463-8.1672-13.346-8.1518z" fill="#fff"/><path d="m431.857 91.592c-.144.0008-.286-.0393-.409-.1158-.123-.0764-.222-.186-.285-.3161-.063-.1302-.089-.2757-.073-.4197.015-.1439.071-.2806.161-.3942l1.827-2.3071c.062-.0824.14-.1515.229-.2032s.187-.085.289-.0979.206-.0051.305.0228c.099.028.191.0756.271.14.081.0644.147.1444.196.235.049.0907.079.1902.089.2928.009.1025-.002.206-.033.3042s-.081.1892-.148.2676l-1.82 2.3071c-.072.0892-.163.1611-.267.2103s-.217.0746-.332.0742z" fill="#fff"/><path d="m467.488 104.081c-.116.002-.23-.023-.336-.072-.105-.05-.197-.122-.27-.212-4.393-5.5067-22.469-18.2266-22.654-18.3573-.165-.1176-.277-.2961-.312-.4964s.011-.4062.128-.5726c.116-.167.294-.281.494-.317.2-.0361.406.0088.573.1248.768.5306 18.43 12.9813 22.976 18.6565.09.113.145.249.161.393.016.143-.009.288-.071.418-.063.13-.16.239-.282.316s-.263.118-.407.119z" fill="#fff"/><g opacity=".5"><path d="m465.031 32.6378c-1.451-12.4584 12.709-30.03852 38.334-14.5117.699-5.8985 32.844-24.24767 47.726 14.3655 2.549-9.3668 25.878-4.6757 30.071 11.1587 8.77-3.9067 29.864 15.7037 1.951 19.0952-35.647 4.3219-117.314 3.0761-131.958-18.3492s13.876-11.7585 13.876-11.7585z" fill="url(#A)" opacity=".6"/><path d="m607.97 15.4268c-.937-7.99027 8.148-19.27201 24.573-9.30532.446-3.78365 21.064-15.55757 30.617 9.22842 1.628-6.00617 16.594-2.9916 19.29 7.1597 5.621-2.5071 19.151 10.082 1.244 12.2507-22.861 2.7762-75.256 1.9687-84.639-11.7662-9.384-13.73496 8.915-7.5673 8.915-7.5673z" fill="url(#B)" opacity=".6"/></g><path d="m130.99 110.979c34.026-.5 202.36-3.453 236.908-4.06.808-.008 1.61.143 2.359.446.75.303 1.432.75 2.008 1.318.577.567 1.036 1.242 1.351 1.987.315.746.481 1.546.487 2.355v15.788c-.012 1.616-.659 3.162-1.8 4.305-1.14 1.142-2.684 1.789-4.298 1.801h-236.923c-1.617 0-3.168-.643-4.311-1.788-1.144-1.145-1.786-2.698-1.786-4.318v-11.728c0-1.603.629-3.142 1.753-4.285 1.124-1.142 2.651-1.796 4.252-1.821z" fill="#364154"/><path d="m173.893 123.138c0 .816.162 1.624.477 2.377s.776 1.436 1.358 2.009c.581.572 1.27 1.024 2.027 1.327.756.303 1.566.452 2.381.439l137.303-2.392c.921-.017 1.826-.242 2.649-.657.822-.415 1.541-1.01 2.103-1.741s.952-1.58 1.143-2.482c.19-.903.175-1.837-.044-2.733l-.622-2.546c-.335-1.366-1.127-2.576-2.245-3.429-1.118-.852-2.494-1.295-3.898-1.254l-136.688 4.937c-1.593.052-3.104.722-4.213 1.869-1.109 1.146-1.73 2.679-1.731 4.276z" fill="#fff" opacity=".64"/><path d="m143.23 123.991-21.102 21.533c-.208.214-.371.469-.477.749-.106.279-.153.578-.138.877.014.299.09.591.222.859s.319.506.547.699l.153.131c.204.172.439.302.692.382.254.081.521.11.786.086.265-.023.522-.099.758-.223.235-.124.444-.294.613-.499l19.329-23.332z" fill="#fff"/><path d="m164.916 106.796c1.241 2.486 1.714 5.285 1.36 8.042-.354 2.756-1.519 5.344-3.348 7.435-1.828 2.091-4.236 3.589-6.917 4.304-2.682.715-5.515.615-8.14-.289-2.624-.903-4.92-2.568-6.596-4.783s-2.656-4.879-2.814-7.654c-.158-2.774.511-5.533 1.924-7.925s3.505-4.308 6.009-5.505c1.634-.8034 3.41-1.2755 5.226-1.3895s3.636.1322 5.357.7245c1.721.592 3.308 1.519 4.671 2.727 1.362 1.208 2.473 2.674 3.268 4.313z" fill="url(#C)" opacity=".5"/><path d="m145.726 98.9824c-2.689 1.3476-4.921 3.4606-6.415 6.0736-1.495 2.613-2.185 5.61-1.985 8.615s1.281 5.884 3.109 8.275c1.827 2.392 4.319 4.189 7.163 5.168 2.844.978 5.913 1.093 8.823.331 2.909-.761 5.528-2.367 7.53-4.614 2.002-2.248 3.296-5.037 3.72-8.018.425-2.982-.039-6.022-1.334-8.74-.888-1.821-2.125-3.45-3.642-4.792-1.516-1.3422-3.282-2.3719-5.196-3.0304s-3.939-.9328-5.959-.8072-3.996.6485-5.814 1.539zm12.187 25.5706c-2.34 1.073-4.945 1.429-7.488 1.023-2.542-.405-4.907-1.554-6.799-3.302-1.892-1.749-3.225-4.018-3.833-6.523-.607-2.505-.461-5.134.419-7.557.88-2.422 2.456-4.53 4.529-6.058s4.551-2.4079 7.123-2.5294c2.571-.1215 5.121.5214 7.328 1.8464 2.208 1.326 3.975 3.276 5.079 5.604 1.474 3.165 1.631 6.786.439 10.067s-3.637 5.953-6.797 7.429z" fill="#fff"/><path d="m138.37 117.07c-.085.001-.167-.027-.234-.078-.067-.052-.114-.125-.135-.206-.275-.984-.44-1.995-.491-3.015-.004-.05.003-.1.02-.148.016-.047.042-.091.076-.128s.074-.068.12-.089c.045-.021.094-.033.144-.035.051-.003.101.004.149.02.048.017.092.043.13.076.038.034.068.074.091.12.022.045.034.095.037.145.054.965.209 1.921.461 2.854.014.048.018.099.012.149s-.022.098-.047.142-.059.082-.099.113c-.04.03-.086.052-.135.065-.031.012-.065.017-.099.015z" fill="#fff"/><path d="m125.93 142.94c-.098-.002-.191-.04-.262-.107-.035-.036-.064-.079-.084-.125-.019-.047-.029-.098-.029-.148 0-.051.01-.101.029-.148.02-.047.049-.09.084-.125l.323-.339c.036-.036.078-.064.125-.084.047-.019.097-.029.148-.029.05 0 .1.01.147.029.047.02.09.048.125.084.036.036.065.079.084.125.02.047.03.098.03.148 0 .051-.01.101-.03.148-.019.047-.048.09-.084.125l-.322.346c-.078.07-.18.105-.284.1z" fill="#fff"/><path d="m601.335 261.149s-19.743 25.316 2.788 51.071l8.447-.769s-16.288-26.239-9.023-47.142l11.994.908 6.643-4.33z" fill="#f4caab"/><path d="m612.155 385.109s15.995 34.93 24.389 49.388c0 0 1.666 9.105 0 11.966l-1.421.631 6.635-.193s.583-12.243.13-12.927c-.164-.207-.375-.373-.615-.484s-.503-.164-.767-.154c0 0-2.849-22.564-11.081-27.386l-7.978-27.523z" fill="#f4caab"/><path d="m632.282 448.808c0 .162 5.183.093 8.001 0 .505-.01.991-.19 1.381-.511s.661-.764.77-1.257l2.134-11.159c.088-.508-.023-1.031-.308-1.46-.286-.429-.725-.733-1.227-.847l-1.191-.277s-1.689 2.307-1.159 4.522 1.006 7.867-.338 8.529c-1.344.661-5.23.769-5.23.769s-2.733.253-2.833 1.691z" fill="url(#D)"/><path d="m596.958 449.016c-.112.064-.2.163-.249.283-.05.119-.059.251-.026.376.034.124.107.235.21.313.102.078.228.121.357.12 4.715-.046 15.289-.192 16.226-.584 1.213-.508-.446-4.868-2.181-6.345l-9.615 3.138z" fill="url(#E)"/><path d="m594.001 382.879s10.344 50.087 13.262 59.862l-6.911 4.345s3.471-.585 6.044-.769c2.572-.185 4.937-3.138 4.937-3.138l-.829-1.323s-2.596-49.818-1.966-55.478z" fill="#f4caab"/><path d="m568.338 266.047s-1.428 26.055 22.269 39.375l-5.705 13.027s-21.448-12.996-20.649-48.449c.017-1.018-.341-2.006-1.006-2.776l-4.562-5.291c-.855-.995-1.46-2.182-1.764-3.46-.303-1.278-.296-2.61.021-3.884l.607-2.4c.046-.187.135-.36.261-.507.125-.146.282-.262.46-.336.177-.075.37-.107.562-.094s.379.071.544.168l.477.277c1.521.889 2.724 2.234 3.44 3.845l2.234 5.007c.409.913 1.092 1.676 1.953 2.183.862.507 1.859.733 2.855.647l1.382-.115z" fill="#f4caab"/><path d="m613.591 309.752c-.436-.587-.987-1.077-1.62-1.441-.633-.363-1.333-.593-2.058-.674-6.778-.916-13.483-2.309-20.066-4.168-.31-.091-.644-.057-.93.094-.286.15-.503.406-.606.713l-4.085 12.52c-.152.475-.145.987.018 1.459.163.471.475.877.888 1.156l.837.553c-.614 1.815-1.413 3.707-.338 5.284 3.732 5.475 8.447 16.465 8.447 16.465l16.779.077-.415-4.745 4.101-23.164c.132-.717.116-1.453-.048-2.164-.164-.71-.471-1.379-.904-1.965z" fill="#364154"/><path d="m592.688 339.229.331 2.876s-4.746 14.219 2.365 47.434c0 0 15.404 4.368 28.067-6.083 0 0-3.571-31.354-4.546-32.815-4.861-7.275-8.094-8.851-8.094-8.851l-.146-3.138s-13.546 2.446-17.977.577z" fill="url(#F)"/><path d="m599.262 305.814c-.062-.077 3.501-10.766 3.501-10.766l5.107.469 1.989 12.127s-8.002 1.608-10.597-1.83z" fill="#efbc90"/><path d="m609.144 281.497s-5.214 0-10.942 5.099c-5.729 5.099-4.738 9.028-2.089 10.636 2.649 1.607 6.911 3.345 13.108 1.115s6.612-16.611-.077-16.85z" fill="#efbc90"/><path d="m607.709 293.671s7.31-7.936-.929-11.582l-2.527.531s-.837-6.491 5.207-6.837c1.638-.05 3.268.25 4.781.88 1.513.631 2.875 1.577 3.993 2.777 1.119 1.2 1.969 2.625 2.494 4.18s.712 3.204.55 4.837c-.768 7.637-3.84 11.459-8.739 13.174s-4.83-2.577-4.83-2.577 3.21-2.191 3.071-4.137c-.138-1.946-2.733-.769-2.733-.769z" fill="#364154"/><path d="m608.162 295.094s3.74-4.107 5.168-1.223-3.725 3.676-5.667 3.845z" fill="#efbc90"/><path d="m618.981 292.425c-.104-.398-.097-.818.021-1.213.117-.395.34-.75.645-1.026.305-.277.679-.465 1.083-.543s.822-.044 1.208.098c5.513 1.931 12.847 6.922 10.29 19.557-2.88 14.266-3.771 21.694-1.889 24.086.268.343.434.755.478 1.189.045.433-.035.871-.228 1.261-.194.39-.494.717-.866.944s-.8.343-1.235.336c-1.467-.1-3.271-.815-5.421-2.653-16.564-14.174-1.106-31.823-4.086-42.036z" fill="#364154"/><path d="m475.475 199.557 194.035-9.421c3.84-.185 4.815 2.822 4.869 4.491l4.208 63.707c.054 1.684-3.072 3.168-6.911 3.291-35.109 1.108-188.261 6.053-195.134 6.483-6.873.431-5.905-50.194-5.468-63.214.085-1.607.715-5.16 4.401-5.337z" fill="url(#G)"/><g fill="#fff"><path d="m477.34 266.324-.115-.223c-2.687-5.175-3.601-26.624-2.303-54.601 0-.469.599-.669 1.128-.692l194.051-9.321c.239-.018.479.011.707.085.422.138.491.407.499.553l1.674 56.909c0 .4-.438.692-1.121.73-27.914.923-168.434 5.599-194.212 6.606zm-1.712-54.709c-1.236 27.455-.392 48.495 2.15 53.917 26.424-1.03 166.153-5.675 193.967-6.598.131-.004.261-.03.384-.077l-1.674-56.601c-.133-.036-.271-.049-.408-.038l-193.989 9.32c-.147.001-.292.027-.43.077z"/><g opacity=".5"><path d="m571.84 222.251c-.409-.39-.891-.694-1.418-.896-.528-.202-1.09-.298-1.654-.281l-77.175 2.961c-.561.022-1.111.155-1.619.393-.509.238-.964.576-1.34.993s-.664.906-.848 1.436c-.185.531-.261 1.093-.224 1.654l1.743 26.778c.069 1.089.559 2.108 1.366 2.842s1.868 1.124 2.957 1.087l75.455-2.545c1.091-.032 2.126-.487 2.888-1.269.763-.782 1.192-1.83 1.197-2.922v-27.209c-.007-.567-.129-1.127-.357-1.646-.228-.52-.559-.988-.971-1.376z" opacity=".5"/><path d="m583.566 210.854-97.187 4.514c-1.091.046-1.928 1.2-1.874 2.569v.038c.062 1.369.983 2.446 2.074 2.415l97.24-3.276c.408-.013.808-.107 1.179-.276.371-.17.705-.412.981-.712.277-.3.491-.652.63-1.035.14-.384.201-.792.182-1.199v-.054c-.012-.41-.105-.813-.275-1.186-.169-.372-.411-.708-.711-.985-.301-.278-.653-.493-1.038-.633-.384-.14-.793-.201-1.201-.18z" opacity=".5"/><path d="m662.146 219.275c-.265-.257-.579-.458-.924-.59-.344-.132-.712-.193-1.08-.179l-77.774 2.576c-.379.01-.752.099-1.095.262-.342.163-.647.396-.894.684-.249.286-.435.619-.549.981-.114.361-.152.742-.112 1.118l.162 1.538c.075.697.412 1.339.943 1.796.53.457 1.214.695 1.913.665l77.636-3.391c.704-.035 1.367-.338 1.855-.847.489-.509.764-1.185.771-1.891v-.769c-.006-.366-.085-.727-.231-1.062-.147-.335-.358-.638-.621-.891z" opacity=".5"/><path d="m662.146 229.903c-.266-.256-.58-.455-.925-.587-.344-.132-.711-.194-1.079-.182l-77.774 2.568c-.381.013-.756.104-1.1.269-.343.164-.65.399-.899.688s-.435.626-.547.991-.147.749-.104 1.129l.162 1.538c.075.696.412 1.338.943 1.795.53.457 1.214.695 1.913.665l77.636-3.391c.709-.032 1.379-.335 1.871-.848.491-.512.767-1.194.771-1.905v-.769c-.007-.368-.088-.731-.237-1.068s-.364-.641-.631-.893z" opacity=".5"/><path d="m662.146 240.531c-.265-.257-.579-.458-.924-.59-.344-.132-.712-.193-1.08-.179l-77.774 2.568c-.382.012-.757.102-1.101.266-.345.165-.651.399-.9.688-.25.29-.436.628-.548.993-.111.365-.146.75-.101 1.13l.162 1.538c.075.696.412 1.338.943 1.795.53.457 1.214.695 1.913.666l77.62-3.415c.71-.032 1.379-.335 1.871-.848.492-.512.768-1.194.771-1.905v-.769c-.007-.364-.086-.722-.232-1.055-.146-.332-.357-.633-.62-.883z" opacity=".5"/></g><path d="m644.254 196.773c.02.488-.056.976-.226 1.435-.169.459-.428.879-.761 1.237s-.733.646-1.178.847-.926.312-1.414.326l-2.588.085c-.487.018-.973-.06-1.43-.23-.458-.171-.877-.43-1.233-.763-.357-.333-.645-.733-.847-1.178-.201-.445-.313-.925-.329-1.413v-.092c-.019-.488.059-.975.229-1.433.171-.458.429-.878.762-1.235.332-.357.732-.645 1.176-.847s.924-.315 1.411-.331l2.588-.084c.488-.018.974.062 1.431.233.458.171.877.431 1.233.764.357.334.644.735.846 1.18s.314.926.33 1.414z"/><path d="m652.301 192.711-2.587.082c-2.043.065-3.647 1.776-3.582 3.822l.002.085c.065 2.046 1.773 3.652 3.817 3.588l2.586-.082c2.043-.065 3.647-1.776 3.583-3.822l-.003-.085c-.065-2.046-1.773-3.652-3.816-3.588z"/><path d="m664.163 192.337-2.587.081c-2.043.065-3.647 1.776-3.583 3.822l.003.085c.065 2.046 1.773 3.652 3.816 3.588l2.587-.082c2.043-.065 3.647-1.776 3.583-3.822l-.003-.085c-.065-2.046-1.773-3.652-3.816-3.587z"/><path d="m542.006 122.838h-5.429c-.32 0-.626-.127-.852-.354-.226-.226-.353-.533-.353-.854v-16.265c0-.32.127-.627.353-.853.226-.227.532-.354.852-.354h5.429c.32 0 .627.127.853.354.226.226.353.533.353.853v16.265c0 .321-.127.628-.353.854-.226.227-.533.354-.853.354zm-4.223-2.415h3.018v-13.843h-3.018z"/><path d="m552.711 122.838h-7.426c-.32 0-.626-.127-.852-.354-.226-.226-.353-.533-.353-.854v-26.8542c0-.3202.127-.6273.353-.8537.226-.2265.532-.3537.852-.3537h7.426c.32 0 .626.1272.852.3537.226.2264.354.5335.354.8537v26.8542c0 .321-.128.628-.354.854-.226.227-.532.354-.852.354zm-6.22-2.415h5.014v-24.4398h-5.014z"/><path d="m566.695 122.838h-10.298c-.158 0-.315-.031-.461-.092-.147-.061-.28-.15-.391-.262-.112-.112-.201-.245-.262-.392-.06-.146-.092-.303-.092-.462v-32.522c0-.1586.032-.3156.092-.4621.061-.1464.15-.2795.262-.3917.111-.1121.244-.201.391-.2617.146-.0607.303-.0919.461-.0919h10.298c.159-.001.316.0295.463.0897.148.0602.281.149.394.2612s.202.2457.263.3927c.062.1469.093.3046.093.4638v32.538c-.004.319-.134.623-.361.846-.228.224-.534.348-.852.346zm-9.092-2.415h7.871v-30.123h-7.871z"/><path d="m585.347 122.838h-12.34c-.32 0-.627-.127-.853-.354-.226-.226-.353-.533-.353-.854v-39.3664c0-.3202.127-.6273.353-.8538.226-.2264.533-.3536.853-.3536h12.34c.32 0 .627.1272.853.3536.226.2265.353.5336.353.8538v39.3664c0 .321-.127.628-.353.854-.226.227-.533.354-.853.354zm-11.134-2.415h9.929v-36.9136h-9.929z"/></g><path d="m642.104 157.021 2.319 9.644 5.529-5.721z" fill="url(#I)"/><path d="m684.077 141.01-20.503 29.139c-.195.275-.443.508-.729.686s-.605.298-.937.352c-.334.05-.675.032-1.002-.052-.328-.085-.635-.234-.903-.44l-28.412-21.718c-.159-.121-.278-.288-.342-.478-.063-.189-.069-.394-.017-.587.053-.193.162-.366.313-.497.152-.13.339-.213.537-.237z" fill="url(#J)"/><path d="m642.104 157.021 41.974-16.003-37.398 19.526.53 2.699z" fill="url(#K)"/><path d="m649.414 162.605-4.992 4.06 2.258-6.121z" fill="url(#L)"/><g opacity=".64"><path d="m404.573 186.775-1.896-1.338c-.06-.041-.111-.094-.15-.155-.038-.062-.065-.13-.077-.202-.012-.071-.01-.145.007-.215.016-.071.047-.138.089-.197.04-.061.092-.113.153-.154.061-.04.13-.067.201-.08.072-.013.146-.011.217.005.071.017.138.047.197.091l1.889 1.33c.105.088.173.212.191.347.018.136-.015.273-.093.385s-.196.191-.329.221c-.133.029-.273.008-.391-.061z" fill="url(#M)" opacity=".64"/><path d="m398.207 182.523-1.965-1.185c-.126-.078-.216-.202-.252-.345-.036-.144-.015-.296.06-.424.077-.126.202-.216.346-.25.143-.035.295-.011.421.066l1.982 1.199c.062.038.116.088.158.147.043.059.074.125.091.196s.02.144.009.216-.036.141-.074.203-.087.116-.146.159-.125.074-.196.091-.144.02-.216.009c-.071-.012-.14-.037-.202-.075z" fill="url(#N)" opacity=".64"/><path d="m391.565 178.754-2.05-1.022c-.075-.029-.143-.073-.2-.13-.057-.056-.101-.124-.13-.199-.029-.074-.043-.154-.039-.234.003-.08.023-.159.058-.231.036-.072.086-.136.147-.187.061-.052.133-.09.21-.112s.157-.028.237-.018c.079.011.155.038.224.08l2.073 1.038c.067.034.127.08.177.137.049.057.087.123.11.195.024.071.033.147.027.222s-.026.148-.061.215c-.032.068-.078.129-.135.179s-.123.088-.195.112c-.071.024-.147.033-.222.026-.076-.006-.149-.028-.216-.063z" fill="url(#O)" opacity=".64"/><path d="m384.631 175.586-2.135-.815c-.145-.056-.261-.168-.324-.31-.062-.142-.066-.303-.01-.448s.167-.261.309-.324.303-.066.447-.01l2.166.83c.144.055.259.165.322.306s.067.3.012.444-.165.26-.305.323c-.141.062-.3.067-.444.012z" fill="url(#P)" opacity=".64"/><path d="m377.42 173.11-2.204-.593c-.141-.051-.259-.154-.328-.287-.069-.134-.086-.289-.046-.435.04-.145.133-.27.26-.35.128-.08.281-.109.429-.081l2.242.615c.152.042.281.142.359.279s.098.3.056.452-.142.281-.279.359-.299.098-.45.056z" fill="url(#Q)" opacity=".64"/><path d="m370.002 171.395-2.257-.362c-.08-.013-.156-.042-.225-.084-.069-.043-.128-.099-.175-.164-.047-.066-.081-.14-.099-.219-.019-.079-.021-.16-.008-.24.013-.079.041-.155.083-.222.043-.068.098-.127.163-.173.065-.047.138-.08.216-.098.077-.018.158-.02.237-.007l2.303.377c.085.005.168.028.243.068.075.039.141.094.194.16.053.067.091.144.112.226.021.083.025.169.011.253-.014.083-.045.163-.092.234s-.108.131-.18.177-.152.076-.236.089c-.084.012-.17.007-.251-.015z" fill="url(#R)" opacity=".64"/><path d="m362.453 170.472-2.303-.1c-.088.005-.176-.008-.259-.039-.082-.031-.157-.079-.22-.141s-.112-.136-.144-.219c-.033-.082-.047-.17-.044-.258.004-.088.026-.174.066-.253.039-.079.094-.149.162-.205.068-.057.147-.098.232-.122.084-.024.173-.029.26-.017l2.304.116c.082.004.162.024.236.059s.14.084.195.145c.055.06.098.131.125.209.028.077.04.159.035.24-.009.164-.084.318-.206.427-.122.11-.283.166-.446.158z" fill="url(#S)" opacity=".64"/><path d="m354.851 170.456-2.304.177c-.168.013-.334-.041-.462-.151-.128-.109-.207-.265-.221-.433-.007-.084.002-.168.027-.248.026-.079.067-.153.121-.217.055-.064.121-.116.196-.154.075-.037.156-.06.24-.066l2.303-.184c.168-.011.333.044.46.153.128.109.208.264.224.431.01.167-.045.332-.154.458-.109.127-.263.205-.43.219z" fill="url(#T)" opacity=".64"/><path d="m347.326 171.395-2.22.5c-.16.018-.322-.023-.453-.116-.132-.094-.225-.233-.26-.391-.035-.157-.011-.323.068-.464.08-.14.208-.247.361-.298l2.304-.508c.169-.035.345-.001.489.095.144.095.244.243.279.413.035.169.001.345-.094.489s-.244.245-.413.28z" fill="url(#U)" opacity=".64"/><path d="m340.038 173.479-2.112.838c-.08.032-.166.048-.253.047s-.173-.019-.253-.053-.152-.084-.213-.146c-.061-.063-.108-.136-.141-.217-.032-.081-.048-.167-.047-.254s.019-.173.054-.253c.034-.08.083-.153.146-.213.062-.061.135-.109.216-.141l2.173-.854c.081-.032.167-.048.254-.046.086.001.172.02.251.055.08.035.151.086.211.149s.106.137.137.219c.062.163.058.344-.013.504-.07.16-.201.286-.364.349z" fill="url(#V)" opacity=".64"/><path d="m333.173 176.663c-.645.399-1.298.769-1.943 1.176-.151.096-.335.128-.51.088s-.327-.147-.423-.299-.127-.336-.087-.511c.039-.176.147-.328.298-.424.661-.415 1.337-.769 2.005-1.207.153-.089.335-.114.507-.071s.32.151.414.302c.091.153.117.336.074.508-.043.173-.152.322-.304.414z" fill="url(#W)" opacity=".64"/><path d="m326.968 180.977-1.704 1.538c-.067.069-.147.124-.235.161-.089.036-.184.054-.28.052s-.19-.025-.277-.065c-.087-.041-.164-.099-.228-.172-.063-.072-.11-.157-.139-.248-.028-.092-.038-.188-.027-.284.011-.095.041-.187.089-.271.048-.083.113-.155.191-.211l1.758-1.538c.068-.06.146-.106.231-.135.086-.03.176-.042.266-.036s.178.029.258.069c.081.04.153.095.213.163.118.138.176.318.163.499s-.096.35-.232.47z" fill="url(#X)" opacity=".64"/><path d="m321.608 186.299-1.428 1.768c-.117.144-.286.235-.469.255-.184.02-.368-.033-.514-.147-.143-.119-.235-.289-.255-.474s.033-.371.148-.518l1.482-1.815c.054-.081.125-.149.207-.201.083-.052.175-.086.271-.101.097-.014.195-.008.289.019.093.026.181.071.256.133s.137.139.181.226c.043.087.068.182.073.28.005.097-.01.194-.045.286-.035.091-.088.173-.157.242z" fill="url(#Y)" opacity=".64"/><path d="m317.185 192.435-1.136 1.969c-.046.084-.108.158-.182.218-.075.06-.16.104-.252.13s-.188.033-.283.021-.186-.042-.269-.09c-.082-.048-.154-.112-.212-.188s-.099-.163-.123-.256c-.023-.093-.028-.189-.013-.283.014-.095.047-.186.097-.267l1.175-2.023c.104-.143.257-.243.431-.28.173-.036.353-.007.507.082.153.089.267.232.321.4.054.169.043.352-.03.514z" fill="url(#Z)" opacity=".64"/><path d="m313.737 199.188-.844 2.114c-.03.097-.079.186-.145.262s-.147.138-.238.182c-.09.043-.189.068-.29.071-.1.003-.201-.014-.294-.051-.094-.038-.178-.094-.249-.166-.071-.071-.126-.157-.162-.251s-.053-.194-.048-.295c.004-.101.03-.199.074-.29l.875-2.169c.08-.164.219-.293.39-.359.171-.065.36-.064.529.004.17.069.307.199.385.365.077.166.089.355.033.529z" fill="url(#aa)" opacity=".64"/><path d="m311.295 206.355-.553 2.215c-.054.185-.175.343-.34.443s-.362.134-.55.095c-.188-.052-.349-.175-.451-.342-.101-.167-.135-.366-.095-.558l.576-2.307c-.006-.12.016-.241.064-.351.049-.11.122-.208.215-.285.093-.076.203-.13.321-.156.117-.026.239-.025.356.005s.225.087.316.166.162.179.207.291c.045.111.063.232.053.353-.01.12-.048.236-.111.339z" fill="url(#ab)" opacity=".64"/><path d="m309.798 213.799-.254 2.269c-.01.101-.04.199-.089.288-.048.089-.114.168-.192.232-.079.064-.17.112-.267.141-.097.028-.199.038-.3.027-.101-.01-.199-.041-.288-.089-.089-.049-.168-.114-.231-.193-.064-.079-.112-.17-.141-.267-.029-.098-.038-.2-.027-.301l.268-2.307c-.014-.115-.003-.233.035-.343.037-.111.099-.211.181-.294.081-.083.181-.146.291-.185.109-.039.226-.052.342-.039s.227.052.325.115.181.147.242.246.099.211.11.327c.012.116-.003.233-.044.342z" fill="url(#ac)" opacity=".64"/><path d="m309.306 221.382.047 2.307c0 .204-.081.4-.225.544s-.34.225-.543.225c-.204 0-.399-.081-.543-.225s-.225-.34-.225-.544l-.039-2.307c0-.204.081-.4.225-.544s.34-.225.543-.225c.204 0 .399.081.543.225s.225.34.225.544z" fill="url(#ad)" opacity=".64"/><path d="m309.813 228.942.346 2.245c.016.101.011.204-.013.303-.024.1-.068.193-.128.276-.06.082-.136.152-.223.205s-.184.089-.285.104c-.101.016-.204.012-.303-.013-.099-.024-.192-.067-.275-.128-.082-.06-.152-.136-.205-.223-.053-.088-.088-.184-.104-.285l-.345-2.308c-.031-.204.021-.411.143-.577.123-.166.306-.276.509-.307.204-.031.411.021.577.144.166.122.276.306.306.51z" fill="url(#ae)" opacity=".64"/><path d="m311.341 236.355c.215.731.423 1.461.661 2.176.033.101.045.208.037.314-.009.106-.038.209-.086.303-.048.095-.114.179-.195.248-.08.069-.174.122-.275.154-.1.033-.207.046-.312.037-.106-.008-.209-.037-.304-.085-.094-.048-.178-.115-.247-.195-.069-.081-.121-.175-.154-.276-.238-.769-.453-1.492-.676-2.238-.029-.101-.038-.206-.027-.311.012-.104.044-.206.095-.298.05-.092.119-.173.201-.239.081-.065.176-.114.276-.144.101-.029.207-.038.311-.026.105.011.206.043.298.094s.173.119.238.201c.066.082.115.176.144.277z" fill="url(#af)" opacity=".64"/><path d="m313.868 243.507.937 2.076c.043.097.066.201.069.306.002.106-.016.211-.053.309-.038.099-.095.189-.168.266-.072.076-.159.138-.255.181-.097.043-.2.066-.306.069-.105.003-.21-.015-.308-.053-.099-.038-.189-.095-.265-.168-.077-.072-.138-.159-.181-.256l-.952-2.13c-.087-.195-.093-.416-.016-.615.076-.199.228-.36.423-.446.194-.087.415-.093.614-.016.199.076.359.228.445.423z" fill="url(#ag)" opacity=".64"/><path d="m317.262 250.298 1.167 1.953c.055.092.091.194.107.3s.01.214-.016.318-.072.201-.136.287c-.063.086-.143.159-.235.214s-.194.091-.299.107c-.106.016-.214.01-.318-.016s-.201-.072-.287-.136-.159-.144-.213-.236l-1.191-2.007c-.062-.092-.105-.196-.125-.305-.021-.109-.019-.221.005-.33.025-.108.071-.21.136-.3s.148-.166.243-.223c.096-.056.202-.093.312-.107s.221-.006.328.025.206.083.292.153c.086.071.156.158.207.257z" fill="url(#ah)" opacity=".64"/><path d="m321.416 256.65 1.383 1.815c.134.175.193.397.165.616-.029.219-.144.418-.319.553-.175.134-.396.194-.615.165s-.418-.144-.552-.319l-1.413-1.861c-.117-.176-.162-.391-.127-.599.035-.209.149-.396.318-.523.168-.128.379-.186.589-.164.21.023.403.125.541.286z" fill="url(#ai)" opacity=".64"/><path d="m326.239 262.518 1.536 1.661c.157.159.246.375.246.599 0 .225-.089.441-.246.6-.164.153-.38.234-.603.227s-.434-.103-.588-.265l-1.589-1.661c-.152-.163-.233-.38-.225-.603s.104-.433.267-.585.38-.233.602-.225c.223.008.433.104.585.267z" fill="url(#aj)" opacity=".64"/><path d="m331.63 267.87 1.72 1.5c.084.073.154.163.204.264.05.1.08.21.088.322.007.112-.007.224-.042.331-.036.107-.092.205-.166.29-.073.085-.163.154-.263.204-.101.051-.21.081-.322.088-.112.008-.225-.006-.331-.042-.106-.035-.205-.092-.289-.165l-1.744-1.538c-.159-.152-.254-.36-.265-.58-.01-.22.065-.436.21-.602s.348-.269.568-.288c.219-.02.437.047.609.185z" fill="url(#ak)" opacity=".64"/><path d="m337.519 272.684 1.851 1.338c.093.067.172.151.232.248.061.097.101.205.12.318.018.113.015.229-.012.34-.026.111-.073.217-.14.309-.138.186-.343.31-.572.346-.228.036-.461-.019-.649-.153l-1.882-1.369c-.172-.14-.284-.341-.313-.561s.027-.442.156-.623c.13-.18.323-.303.541-.345.218-.041.443.002.63.121z" fill="url(#al)" opacity=".64"/><path d="m343.816 276.945 1.959 1.169c.1.059.189.138.259.232.07.093.122.2.151.314.029.113.036.231.019.348-.016.116-.055.227-.115.328-.059.101-.138.19-.231.26-.094.071-.2.122-.314.151-.113.03-.231.036-.347.02-.116-.017-.228-.056-.329-.115l-1.996-1.2c-.101-.06-.189-.138-.26-.232-.07-.094-.121-.201-.15-.314-.03-.114-.036-.232-.02-.348s.056-.228.115-.329c.06-.101.138-.189.232-.26.093-.07.2-.121.313-.151.114-.029.232-.036.348-.019.116.016.227.055.328.115z" fill="url(#am)" opacity=".64"/><path d="m350.459 280.636 2.05.992c.119.042.229.108.321.195.092.086.164.191.213.308s.072.242.069.369c-.003.126-.032.251-.087.365-.054.114-.132.215-.228.297-.096.083-.208.143-.329.179-.122.036-.249.046-.374.029s-.245-.06-.353-.127l-2.05-1.015c-.117-.042-.224-.109-.314-.195-.09-.087-.161-.191-.208-.306-.048-.116-.07-.24-.066-.365.003-.125.033-.247.087-.36.054-.112.131-.212.226-.293s.206-.141.326-.176c.119-.035.245-.045.368-.029.124.017.243.059.349.124z" fill="url(#an)" opacity=".64"/><path d="m357.408 283.735c.707.277 1.413.554 2.128.815.226.082.41.25.512.468.103.218.114.467.033.694-.083.227-.253.411-.471.514-.219.102-.469.113-.696.032-.768-.27-1.452-.554-2.174-.839-.119-.036-.23-.097-.325-.178-.095-.082-.172-.182-.226-.295-.054-.112-.085-.235-.09-.36-.004-.125.017-.25.062-.366.046-.117.115-.222.204-.311.088-.088.194-.157.31-.203.117-.045.241-.066.366-.061s.247.036.36.09z" fill="url(#ao)" opacity=".64"/><path d="m364.588 286.25 2.189.646c.234.07.431.229.548.444.116.215.143.467.074.702-.071.233-.231.429-.445.546-.214.116-.465.144-.699.077l-2.227-.669c-.215-.085-.39-.248-.491-.456-.101-.209-.12-.447-.053-.669.066-.222.214-.41.413-.528s.435-.156.661-.108z" fill="url(#ap)" opacity=".64"/><path d="m371.96 288.219 2.235.484c.12.026.235.075.336.145s.187.159.254.263c.066.104.112.22.133.341.021.122.018.246-.009.366-.053.243-.2.454-.409.588s-.462.18-.704.127l-2.304-.499c-.12-.027-.233-.076-.333-.146s-.186-.16-.252-.263-.111-.218-.132-.339c-.022-.12-.02-.244.007-.364.026-.119.075-.233.145-.333.07-.101.159-.186.262-.252.103-.067.218-.112.339-.133.12-.022.244-.019.363.007z" fill="url(#aq)" opacity=".64"/><path d="m379.417 289.672 2.257.339c.123.018.241.061.348.125.106.065.199.15.273.25s.127.214.157.335.036.247.017.37-.061.242-.126.348c-.064.107-.149.2-.249.274s-.214.127-.335.157c-.12.03-.246.036-.369.017l-2.304-.354c-.126-.014-.248-.053-.359-.116s-.208-.147-.286-.248c-.077-.101-.133-.217-.165-.34-.032-.124-.038-.252-.019-.378s.064-.247.131-.355c.066-.109.155-.202.259-.276.104-.073.221-.125.346-.152.124-.026.253-.028.378-.004z" fill="url(#ar)" opacity=".64"/><path d="m386.973 290.641 2.304.208c.25.026.481.15.641.344.16.195.238.445.216.697-.023.251-.143.483-.334.647-.192.164-.441.245-.692.227l-2.304-.216c-.236-.042-.448-.173-.593-.364-.146-.192-.214-.431-.192-.67.022-.24.133-.462.311-.624.179-.161.411-.25.651-.249z" fill="url(#as)" opacity=".64"/><path d="m394.583 291.172 2.304.077c.243.028.466.148.626.334.159.186.243.425.234.67-.008.246-.109.478-.281.653-.172.174-.404.277-.649.288l-2.303-.084c-.127-.005-.252-.034-.368-.087s-.22-.128-.306-.222c-.175-.188-.268-.438-.259-.695s.12-.5.307-.675c.188-.175.438-.268.695-.259z" fill="url(#at)" opacity=".64"/><path d="m402.2 291.295 2.304-.039c.137-.012.275.005.405.049s.25.115.351.208c.102.093.183.206.238.332s.084.262.084.4c0 .137-.029.273-.084.399s-.136.239-.238.332c-.101.093-.221.164-.351.208s-.268.061-.405.049h-2.304c-.26 0-.51-.104-.695-.288-.184-.185-.287-.435-.287-.697 0-.261.103-.511.287-.696.185-.184.435-.288.695-.288z" fill="url(#au)" opacity=".64"/><path d="m409.834 291.049 2.303-.139c.136-.017.273-.005.404.033s.252.103.357.19.191.195.253.317c.062.121.098.255.106.391.009.136-.011.273-.057.401-.047.129-.119.246-.212.346-.093.099-.206.178-.331.232-.126.054-.261.082-.397.082l-2.304.139c-.263.014-.522-.076-.719-.252s-.317-.423-.333-.687c-.009-.131.008-.262.05-.387.043-.124.109-.239.197-.337.087-.099.193-.178.312-.235.118-.056.247-.088.378-.094z" fill="url(#av)" opacity=".64"/><path d="m417.451 290.472 2.304-.238c.257-.009.507.08.701.249s.316.405.342.661c.027.256-.045.512-.2.717s-.382.344-.636.387l-2.303.231c-.266.027-.532-.054-.738-.223-.207-.169-.338-.414-.364-.68-.027-.267.053-.532.223-.739.169-.207.413-.338.679-.365z" fill="url(#aw)" opacity=".64"/><path d="m425.046 289.588 2.304-.316c.133-.018.268-.011.398.023s.253.093.36.174.198.182.266.298.113.245.131.378c.019.133.011.269-.022.399-.034.131-.093.253-.174.361-.081.107-.182.197-.298.266-.116.068-.244.113-.377.131l-2.304.316c-.269.036-.541-.035-.757-.2-.216-.164-.358-.408-.395-.677s.035-.542.199-.758c.164-.217.408-.359.677-.395z" fill="url(#ax)" opacity=".64"/><path d="m432.625 288.434 2.258-.392c.139-.037.285-.044.428-.021.142.023.278.075.4.153.121.078.225.18.305.3.08.121.134.256.159.398.025.143.021.289-.014.429-.034.141-.096.272-.184.387s-.198.211-.324.281-.266.113-.409.126l-2.304.392c-.27.047-.547-.015-.771-.173s-.376-.398-.423-.669c-.047-.27.015-.548.173-.772s.398-.377.668-.424z" fill="url(#ay)" opacity=".64"/><path d="m440.112 287.019 2.235-.477c.267-.06.546-.013.779.13.232.144.399.374.465.639.058.268.011.548-.132.782-.143.233-.371.403-.636.472l-2.304.469c-.134.028-.273.029-.408.003s-.264-.079-.378-.154c-.115-.076-.214-.174-.291-.288-.077-.113-.131-.241-.159-.376s-.029-.274-.003-.409.078-.264.154-.379.173-.214.287-.291c.114-.078.241-.132.376-.159z" fill="url(#az)" opacity=".64"/><path d="m447.569 285.343 2.219-.546c.135-.035.275-.042.412-.022.138.02.27.067.389.138.12.072.223.166.306.278s.142.239.175.375c.068.273.025.562-.118.804-.144.242-.377.417-.649.488l-2.25.546c-.138.039-.282.05-.423.032-.142-.017-.279-.063-.402-.135-.124-.072-.231-.169-.317-.283-.085-.115-.146-.246-.18-.385s-.039-.283-.015-.424c.023-.141.075-.276.151-.396.077-.121.178-.225.296-.306.117-.08.25-.136.39-.164z" fill="url(#aA)" opacity=".64"/><path d="m454.964 283.428 2.204-.616c.136-.038.278-.049.419-.032.14.016.276.061.399.13.124.069.232.162.32.273.087.112.152.239.19.375.038.137.05.279.033.42s-.061.277-.13.4c-.069.124-.162.232-.273.32s-.239.152-.375.191l-2.227.623c-.136.038-.278.048-.418.031-.141-.017-.276-.062-.399-.131-.123-.07-.231-.163-.318-.275-.087-.111-.152-.239-.189-.375-.038-.136-.049-.279-.032-.419.018-.141.062-.276.132-.4.069-.123.162-.231.274-.318.111-.087.238-.152.374-.19z" fill="url(#aB)" opacity=".64"/><path d="m462.297 281.282 2.189-.684c.136-.043.28-.059.423-.046.142.012.281.053.408.12.127.066.24.157.331.267.092.11.162.237.205.374.042.137.058.281.045.423-.012.143-.053.282-.119.409-.067.127-.157.24-.267.332s-.237.162-.374.205l-2.203.684c-.137.042-.28.058-.422.045s-.28-.054-.406-.121c-.126-.066-.238-.157-.329-.266-.092-.11-.16-.237-.203-.373-.042-.136-.057-.28-.044-.422s.054-.28.12-.407c.066-.126.157-.238.266-.33.11-.091.236-.16.373-.202z" fill="url(#aC)" opacity=".64"/><path d="m469.562 278.913 2.165-.769c.137-.047.282-.067.426-.059.144.009.286.046.416.109s.246.151.342.26c.096.108.17.234.218.371.047.137.067.282.059.426-.009.145-.046.286-.109.417-.063.13-.151.247-.259.343s-.234.17-.371.217l-2.188.77c-.137.047-.282.067-.426.058s-.285-.047-.415-.11c-.13-.064-.246-.152-.342-.261-.095-.109-.168-.235-.215-.372-.091-.276-.071-.578.057-.839.128-.262.353-.463.626-.561z" fill="url(#aD)" opacity=".64"/><path d="m476.765 276.337 2.142-.769c.278-.103.586-.092.856.031.27.122.481.346.588.623.052.137.076.283.071.43s-.039.291-.099.425c-.061.133-.147.253-.255.354-.107.1-.233.178-.37.229l-2.165.815c-.274.09-.572.069-.832-.057-.259-.126-.459-.347-.559-.618-.099-.271-.09-.57.026-.834s.33-.473.597-.583z" fill="url(#aE)" opacity=".64"/><path d="m483.891 273.569 2.119-.869c.278-.114.59-.112.866.005.277.117.496.339.609.618.113.278.111.59-.006.867s-.338.496-.616.609l-2.143.869c-.272.091-.569.074-.829-.047-.26-.12-.465-.336-.573-.602-.107-.266-.11-.564-.006-.832.103-.268.305-.486.564-.611z" fill="url(#aF)" opacity=".64"/><path d="m490.986 270.6 2.097-.923c.139-.073.291-.117.448-.128.156-.012.313.009.461.06.148.052.284.134.4.24.115.107.207.236.27.38.064.144.097.299.098.456s-.031.313-.092.457c-.062.145-.153.275-.267.383-.114.107-.249.191-.397.244l-2.119.923c-.137.06-.285.091-.434.094-.15.002-.298-.025-.437-.08s-.266-.136-.374-.241c-.107-.104-.193-.228-.253-.365-.059-.138-.091-.285-.093-.435-.003-.15.024-.298.079-.438.055-.139.137-.266.241-.374.104-.107.228-.193.365-.253z" fill="url(#aG)" opacity=".64"/><path d="m497.897 267.478 2.082-.969c.136-.064.284-.1.435-.106.15-.007.3.017.442.068.142.052.271.131.382.234.111.102.201.225.265.361.063.137.099.285.106.436.006.151-.017.301-.069.443s-.131.272-.233.383-.224.201-.361.265l-2.096.977c-.138.07-.289.112-.444.123s-.31-.009-.457-.06c-.146-.05-.281-.13-.396-.234s-.208-.23-.273-.371c-.066-.141-.102-.294-.107-.449-.004-.155.022-.31.078-.455.057-.144.141-.276.25-.387.108-.111.238-.199.381-.259z" fill="url(#aH)" opacity=".64"/><path d="m504.847 264.202 2.058-1.015c.134-.067.28-.106.429-.115.15-.01.299.01.441.058.141.048.272.124.384.223.113.098.204.218.271.353.066.134.105.28.114.43.01.149-.01.299-.058.441-.048.141-.124.272-.222.385-.099.112-.219.204-.353.27l-2.073 1.023c-.135.068-.281.109-.432.12-.15.011-.301-.008-.444-.055-.143-.048-.275-.124-.388-.224-.113-.099-.206-.221-.272-.356-.134-.273-.155-.587-.058-.875.096-.288.302-.526.573-.663z" fill="url(#aI)" opacity=".64"/><path d="m511.72 260.787 2.043-1.046c.256-.108.544-.116.806-.021.262.094.478.284.606.532.129.248.158.535.084.804-.074.268-.246.499-.483.646l-2.042 1.077c-.262.138-.568.166-.85.078s-.518-.285-.656-.547c-.137-.262-.165-.568-.077-.851s.284-.519.546-.656z" fill="url(#aJ)" opacity=".64"/><path d="m518.493 257.242 2.02-1.084c.247-.129.534-.157.801-.076.267.08.492.262.627.506.131.245.16.532.081.799-.079.266-.26.491-.503.624l-2.02 1.123c-.247.134-.537.165-.807.086s-.497-.261-.634-.507c-.136-.246-.17-.536-.095-.807.076-.271.255-.501.499-.641z" fill="url(#aK)" opacity=".64"/><path d="m525.212 253.574 2.004-1.131c.115-.065.242-.108.373-.124.131-.017.265-.007.392.028.128.035.248.094.352.176.105.081.192.182.258.297.065.115.108.242.124.374.017.131.007.265-.028.392-.035.128-.094.248-.175.353-.082.104-.183.192-.298.258l-1.996 1.153c-.116.067-.243.111-.375.129-.133.018-.267.009-.396-.025s-.251-.094-.357-.175-.195-.182-.262-.298-.111-.243-.129-.376c-.017-.132-.009-.267.025-.396.035-.13.094-.251.175-.357s.182-.196.298-.263z" fill="url(#aL)" opacity=".64"/><path d="m531.862 249.767 1.989-1.169c.108-.064.227-.106.352-.124.124-.018.25-.011.372.02.121.031.236.086.336.161.101.075.185.17.249.278s.107.227.124.352c.018.124.011.251-.02.372-.031.122-.085.237-.16.337-.076.101-.17.186-.278.25l-1.973 1.192c-.109.066-.23.11-.356.129-.126.02-.254.014-.378-.016-.124-.031-.24-.085-.343-.161-.103-.075-.189-.17-.256-.279-.066-.109-.11-.23-.129-.356s-.014-.255.017-.379c.03-.124.084-.241.16-.343.075-.103.17-.19.279-.256z" fill="url(#aM)" opacity=".64"/><path d="m538.451 245.845 1.966-1.2c.202-.105.437-.13.657-.069.221.06.41.202.53.396.121.195.163.428.12.652-.044.225-.171.424-.355.559l-1.951 1.231c-.1.087-.217.151-.344.188-.127.038-.26.047-.391.028s-.257-.065-.368-.137-.206-.167-.277-.279c-.071-.111-.118-.237-.136-.368-.019-.131-.009-.265.029-.392s.102-.244.189-.344.195-.18.315-.234z" fill="url(#aN)" opacity=".64"/><path d="m544.971 241.807 1.942-1.23c.095-.074.204-.127.32-.156s.237-.033.355-.013c.117.021.23.065.329.132.1.066.185.153.249.254.065.101.107.214.125.332.019.119.012.24-.019.355-.032.116-.087.224-.162.317-.075.094-.169.17-.275.225l-1.935 1.261c-.195.113-.425.147-.643.095-.219-.052-.409-.187-.531-.376-.123-.188-.168-.417-.127-.638.042-.221.166-.418.348-.55z" fill="url(#aO)" opacity=".64"/><path d="m551.429 237.67 1.919-1.261c.18-.112.396-.151.602-.106.207.044.389.167.506.343.118.176.163.391.125.599-.037.208-.155.394-.326.517l-1.92 1.285c-.09.06-.191.103-.297.124-.106.022-.215.022-.321.001-.107-.02-.208-.062-.298-.122-.09-.059-.168-.136-.228-.226-.061-.09-.103-.191-.125-.297-.021-.107-.022-.216-.001-.322.021-.107.062-.208.122-.299.06-.09.137-.168.226-.228z" fill="url(#aP)" opacity=".64"/><path d="m557.795 233.433 1.904-1.292c.167-.087.359-.11.542-.064.182.045.341.157.447.312s.152.344.128.531-.115.358-.257.482l-1.897 1.315c-.083.059-.176.1-.276.122-.099.022-.201.024-.301.007-.1-.018-.196-.056-.281-.111-.086-.055-.159-.127-.217-.21-.06-.084-.102-.178-.125-.278-.022-.1-.025-.204-.007-.305s.056-.197.111-.284c.056-.086.128-.16.213-.218z" fill="url(#aQ)" opacity=".64"/><path d="m564.161 229.072 1.889-1.315c.155-.101.343-.138.524-.103.182.035.343.139.45.291.106.151.15.338.121.521-.028.183-.126.348-.274.46l-1.873 1.338c-.078.061-.167.106-.262.131-.095.026-.194.032-.291.018-.098-.013-.191-.047-.275-.098-.085-.05-.158-.118-.215-.198-.058-.08-.098-.171-.12-.267s-.024-.195-.006-.292.055-.189.109-.271c.055-.083.125-.153.207-.207z" fill="url(#aR)" opacity=".64"/><path d="m570.434 224.696 1.874-1.345c.143-.073.306-.092.462-.054.155.038.291.131.384.261s.137.29.122.449c-.014.16-.085.309-.2.42l-1.858 1.369c-.07.074-.156.13-.25.167-.094.036-.196.051-.297.043-.101-.007-.199-.037-.286-.088-.088-.05-.164-.119-.222-.202s-.097-.178-.114-.278-.011-.202.016-.3c.028-.097.076-.188.143-.264.066-.076.149-.137.242-.178z" fill="url(#aS)" opacity=".64"/><path d="m576.662 220.198 1.851-1.362c.133-.095.298-.135.46-.111.162.025.308.112.407.242.095.132.135.296.111.457-.025.161-.111.306-.241.404l-1.843 1.392c-.067.051-.142.088-.223.109s-.165.026-.248.015c-.083-.012-.162-.039-.234-.082-.072-.042-.135-.098-.186-.165-.05-.066-.087-.142-.108-.223s-.026-.165-.015-.248c.012-.083.039-.163.081-.235.043-.072.099-.135.165-.186z" fill="url(#aT)" opacity=".64"/><path d="m582.828 215.637 1.843-1.384c.119-.081.263-.115.405-.095s.272.092.363.203c.081.118.115.263.095.405s-.092.272-.202.364l-1.828 1.407c-.122.093-.276.134-.429.114-.152-.02-.291-.1-.385-.222-.047-.06-.082-.128-.103-.202-.02-.073-.026-.15-.017-.226s.033-.149.071-.216c.038-.066.089-.124.149-.171z" fill="url(#aU)" opacity=".64"/><path d="m588.949 211 1.827-1.4c.11-.084.247-.121.384-.104s.261.088.346.197c.041.053.072.114.089.18.018.065.023.133.014.2-.008.067-.03.132-.063.191-.034.059-.079.11-.132.151l-1.805 1.431c-.055.046-.12.08-.189.101s-.141.027-.213.02c-.071-.008-.141-.031-.204-.066-.062-.035-.118-.083-.162-.14-.046-.055-.081-.12-.102-.189-.021-.07-.027-.143-.018-.215.008-.072.032-.142.068-.205.037-.062.086-.117.144-.16z" fill="url(#aV)" opacity=".64"/><path d="m595.023 206.301 1.82-1.415c.048-.038.104-.067.163-.084s.122-.022.183-.015.121.026.175.057c.054.03.101.07.139.119.074.099.108.223.093.346-.014.123-.075.236-.17.315l-1.796 1.446c-.102.079-.23.116-.358.101-.128-.014-.245-.078-.326-.178-.04-.05-.07-.107-.088-.168-.018-.062-.023-.126-.016-.19s.027-.125.058-.181.073-.105.123-.145z" fill="url(#aW)" opacity=".64"/><path d="m601.058 201.549 1.797-1.439c.088-.058.194-.081.297-.065.104.016.198.07.264.152.066.081.1.184.094.289s-.05.204-.125.278l-1.781 1.469c-.091.071-.205.105-.32.093-.114-.011-.22-.067-.295-.155-.073-.089-.107-.205-.096-.32.012-.115.068-.221.158-.295z" fill="url(#aX)" opacity=".64"/><path d="m607.041 196.773 1.789-1.446c.038-.031.082-.055.13-.069.047-.014.097-.019.146-.014s.097.02.14.043c.044.024.082.055.114.094.059.078.086.175.076.272s-.056.187-.13.251l-1.774 1.476c-.039.033-.085.057-.133.072-.049.014-.1.02-.151.015-.05-.005-.099-.02-.144-.044s-.085-.057-.117-.096c-.032-.04-.057-.085-.071-.134-.015-.049-.02-.1-.015-.151.005-.05.02-.1.044-.144.024-.045.056-.085.096-.117z" fill="url(#aY)" opacity=".64"/><path d="m612.992 191.882 1.774-1.469c.062-.06.144-.094.23-.094s.169.034.231.094c.058.063.09.145.09.231 0 .085-.032.168-.09.23l-1.767 1.492c-.069.058-.158.087-.248.079s-.173-.052-.232-.121c-.058-.069-.086-.159-.078-.249s.051-.174.121-.232z" fill="url(#aZ)" opacity=".64"/><path d="m618.905 186.975 1.766-1.484c.027-.024.059-.043.094-.054.034-.011.071-.015.107-.012.036.004.071.015.102.033.032.018.059.042.081.072.026.025.046.055.06.088s.021.068.021.104-.007.071-.021.104-.034.063-.06.088l-1.743 1.538c-.057.052-.131.081-.207.081-.077 0-.151-.029-.208-.081-.053-.056-.083-.13-.083-.208 0-.077.03-.151.083-.207z" fill="url(#a0)" opacity=".64"/><path d="m624.779 182.03 1.759-1.491c.021-.022.046-.04.073-.052.028-.012.058-.018.088-.018s.06.006.088.018c.027.012.052.03.073.052.041.044.063.101.063.161s-.022.117-.063.162l-1.743 1.538c-.048.041-.11.062-.174.058-.063-.004-.122-.034-.164-.081-.042-.048-.063-.111-.058-.174.004-.064.033-.123.081-.165z" fill="url(#a1)" opacity=".64"/><path d="m630.631 177.047 1.743-1.538c.034-.032.08-.051.127-.051s.092.019.126.051c.017.016.031.035.04.056s.013.044.013.067-.004.046-.013.067-.023.04-.04.056l-1.727 1.538c-.018.019-.04.034-.063.044-.024.01-.05.015-.076.015-.025 0-.051-.005-.075-.015-.023-.01-.045-.025-.063-.044-.035-.036-.055-.084-.055-.134 0-.051.02-.099.055-.135z" fill="url(#a2)" opacity=".64"/><path d="m636.444 172.025 1.743-1.538c.013-.012.027-.022.044-.029.016-.006.033-.009.051-.009s.035.004.051.012c.016.007.031.017.042.03.012.013.022.028.027.045.006.017.009.034.008.052-.001.017-.006.035-.014.05-.008.016-.019.03-.032.042l-1.728 1.538c-.013.013-.028.024-.046.031-.017.007-.035.011-.054.011s-.037-.004-.054-.011-.033-.018-.046-.031c-.013-.014-.024-.03-.032-.048-.007-.018-.011-.037-.011-.056 0-.02.004-.039.011-.056.008-.018.019-.034.032-.048z" fill="url(#a3)" opacity=".64"/></g></svg>