<svg fill="none" height="55" viewBox="0 0 905 55" width="905" xmlns="http://www.w3.org/2000/svg"><path d="m904.428 23.9446c0-3.0679-.648-6.1056-1.905-8.9397-1.257-2.834-3.099-5.40893-5.421-7.57764-2.322-2.1687-5.079-3.88872-8.112-5.06181-3.034-1.17309-6.285-1.776271-9.568-1.775116h-854.4067c-6.6284 0-12.9853 2.460526-17.67227 6.840296-4.68698 4.37977-7.3200808 10.32007-7.3200808 16.51397v30.9558h904.4050508z" fill="#e3e3e3"/><path d="m43.342 32.9012c3.0463-2.8467 3.0463-7.4621 0-10.3088-3.0464-2.8467-7.9855-2.8467-11.0319 0s-3.0464 7.4621 0 10.3088 7.9855 2.8467 11.0319 0z" fill="#eb3449"/><path d="m74.2909 32.9005c3.0464-2.8467 3.0464-7.4621 0-10.3088-3.0463-2.8467-7.9855-2.8467-11.0318 0-3.0464 2.8467-3.0464 7.4621 0 10.3088 3.0463 2.8467 7.9855 2.8467 11.0318 0z" fill="#fdb202"/><path d="m102.92 34.4255c3.931-1.6477 5.688-5.9611 3.925-9.6343s-6.379-5.3152-10.3101-3.6675c-3.9308 1.6477-5.688 5.9612-3.9247 9.6344s6.3793 5.3152 10.3098 3.6674z" fill="#1daa81"/><path d="m840.325 15.3057h-607.843c-7.35 0-13.31 5.5685-13.31 12.4377v.0044c0 6.8692 5.96 12.4377 13.31 12.4377h607.843c7.351 0 13.31-5.5685 13.31-12.4377v-.0044c0-6.8692-5.959-12.4377-13.31-12.4377z" fill="#fff"/><path d="m189.461 40.1811c-1.748 0-3.479-.3217-5.094-.9467-1.614-.6251-3.082-1.5412-4.318-2.6962-1.236-1.1549-2.216-2.5261-2.885-4.0351s-1.013-3.1264-1.013-4.7597c-.002-1.6347.341-3.2536 1.009-4.7644s1.648-2.8838 2.884-4.0405 2.704-2.0744 4.32-2.7008 3.348-.949 5.097-.9496c3.531 0 6.916 1.3102 9.413 3.6426s3.901 5.496 3.902 8.7951c.002 1.6352-.34 3.2548-1.008 4.7662-.668 1.5113-1.649 2.8847-2.886 4.0416-1.236 1.1568-2.705 2.0745-4.322 2.7004-1.616.6259-3.349.9477-5.099.9471z" fill="#fff"/><path d="m146.872 40.1811c-1.748.0006-3.479-.3207-5.095-.9455-1.615-.6248-3.083-1.5408-4.319-2.6958-1.237-1.155-2.218-2.5264-2.887-4.0357s-1.013-3.127-1.013-4.7607c-.002-1.635.341-3.2544 1.009-4.7654.668-1.5111 1.649-2.8843 2.885-4.041 1.237-1.1568 2.705-2.0745 4.322-2.7006 1.616-.6261 3.349-.9483 5.098-.9483 3.53.0012 6.915 1.3119 9.411 3.6442s3.898 5.4952 3.9 8.7935c.002 1.6349-.34 3.2541-1.008 4.7651-.668 1.5111-1.648 2.8843-2.884 4.0411s-2.705 2.0745-4.321 2.7007-3.348.9484-5.098.9484z" fill="#fff"/><g stroke="#b5b5b5" stroke-linecap="round" stroke-linejoin="round" stroke-width="2"><path d="m142.167 27.7478h10.619"/><path d="m146.716 22.9155-5.777 4.8318 5.777 4.8274"/><path d="m194.16 27.7478h-10.619"/><path d="m189.61 32.5747 5.778-4.8274-5.778-4.8318"/><path d="m841.042 26.9647c.544-2.1529-.883-4.3101-3.187-4.8182s-4.612.8253-5.156 2.9781c-.544 2.1529.883 4.31 3.187 4.8181 2.304.5082 4.612-.8251 5.156-2.978z"/><path d="m844.202 33.4326-4.545-4.2471"/></g><path d="m873.429 17.1305c0 .4965-.158.9819-.453 1.3947-.295.4129-.715.7346-1.206.9246s-1.031.2398-1.552.1429-1-.336-1.375-.6871c-.376-.351-.632-.7984-.736-1.2853-.103-.487-.05-.9918.153-1.4505.204-.4587.548-.8508.99-1.1266.441-.2758.961-.4231 1.492-.4231.713 0 1.396.2645 1.9.7353s.787 1.1093.787 1.7751z" fill="#fff"/><path d="m873.429 27.7433c.001.4967-.156.9825-.451 1.3959s-.714.7359-1.205.9266c-.49.1907-1.031.241-1.552.1446-.522-.0963-1.001-.3351-1.377-.686s-.632-.7982-.736-1.2853-.051-.9921.152-1.4511c.203-.4589.547-.8513.989-1.1273s.962-.4234 1.493-.4234c.712 0 1.394.2639 1.898.7337.504.4699.787 1.1073.789 1.7723z" fill="#fff"/><path d="m873.429 38.3608c0 .4965-.158.9818-.453 1.3947-.295.4128-.715.7346-1.206.9246s-1.031.2397-1.552.1428c-.521-.0968-1-.3359-1.375-.687-.376-.3511-.632-.7984-.736-1.2854-.103-.487-.05-.9917.153-1.4504.204-.4587.548-.8508.99-1.1267.441-.2758.961-.4231 1.492-.4231.713 0 1.396.2645 1.9.7353s.787 1.1094.787 1.7752z" fill="#fff"/></svg>