<svg fill="none" height="372" viewBox="0 0 479 372" width="479" xmlns="http://www.w3.org/2000/svg" xmlns:xlink="http://www.w3.org/1999/xlink"><linearGradient id="a"><stop offset="0" stop-color="#f8db8b"/><stop offset="1" stop-color="#68b790"/></linearGradient><linearGradient id="b" gradientUnits="userSpaceOnUse" x1="-32.4115" x2="265.288" xlink:href="#a" y1="349.135" y2="643.613"/><linearGradient id="c" gradientUnits="userSpaceOnUse" x1="361.445" x2="460.458" xlink:href="#a" y1="248.493" y2="252.978"/><linearGradient id="d" gradientUnits="userSpaceOnUse" x1="385.628" x2="442.562" xlink:href="#a" y1="255.061" y2="256.685"/><linearGradient id="e" gradientUnits="userSpaceOnUse" x1="395.447" x2="483.11" xlink:href="#a" y1="273.011" y2="278.059"/><linearGradient id="f" gradientUnits="userSpaceOnUse" x1="418.623" x2="467.735" xlink:href="#a" y1="277.735" y2="279.482"/><linearGradient id="g" gradientUnits="userSpaceOnUse" x1="444.78" x2="467.953" xlink:href="#a" y1="307.954" y2="308.862"/><linearGradient id="h" gradientUnits="userSpaceOnUse" x1="105.094" x2="166.418" xlink:href="#a" y1="259.17" y2="261.15"/><linearGradient id="i" gradientUnits="userSpaceOnUse" x1="15.3855" x2="133.343" xlink:href="#a" y1="259.837" y2="267.253"/><linearGradient id="j" gradientUnits="userSpaceOnUse" x1="-10.0894" x2="106.994" xlink:href="#a" y1="286.363" y2="298.235"/><linearGradient id="k" gradientUnits="userSpaceOnUse" x1="1.61905" x2="91.6429" xlink:href="#a" y1="291.09" y2="298.994"/><linearGradient id="l" gradientUnits="userSpaceOnUse" x1="31.5794" x2="112.296" xlink:href="#a" y1="265.481" y2="269.256"/><linearGradient id="m" gradientUnits="userSpaceOnUse" x1="124.324" x2="146.89" xlink:href="#a" y1="262.146" y2="262.426"/><linearGradient id="n" gradientUnits="userSpaceOnUse" x1="23.3312" x2="81.0428" xlink:href="#a" y1="305.722" y2="310.933"/><linearGradient id="o" gradientUnits="userSpaceOnUse" x1="32.8431" x2="47.1684" xlink:href="#a" y1="320.303" y2="321.109"/><linearGradient id="p" gradientUnits="userSpaceOnUse" x1="43.5444" x2="68.5869" xlink:href="#a" y1="309.79" y2="310.955"/><linearGradient id="q"><stop offset="0" stop-color="#067431"/><stop offset="1" stop-color="#2e9f5a"/></linearGradient><linearGradient id="r" gradientUnits="userSpaceOnUse" x1="185.723" x2="253.95" xlink:href="#q" y1="133.535" y2="168.046"/><linearGradient id="s" gradientUnits="userSpaceOnUse" x1="200.733" x2="206.171" xlink:href="#a" y1="258.492" y2="259.315"/><linearGradient id="t" gradientUnits="userSpaceOnUse" x1="178.641" x2="221.204" xlink:href="#q" y1="143.105" y2="156.338"/><linearGradient id="u" gradientUnits="userSpaceOnUse" x1="180.643" x2="186.096" xlink:href="#a" y1="259.042" y2="259.87"/><linearGradient id="v" gradientUnits="userSpaceOnUse" x1="174.77" x2="219.831" xlink:href="#q" y1="51.5284" y2="145.104"/><linearGradient id="w" gradientUnits="userSpaceOnUse" x1="188.043" x2="201.85" xlink:href="#a" y1="63.3131" y2="64.5695"/><linearGradient id="x" gradientUnits="userSpaceOnUse" x1="185.908" x2="195.878" xlink:href="#a" y1="71.8794" y2="72.6931"/><linearGradient id="y" gradientUnits="userSpaceOnUse" x1="188.172" x2="191.357" xlink:href="#q" y1="69.8677" y2="74.9243"/><linearGradient id="z"><stop offset="0" stop-color="#ffc444"/><stop offset="1" stop-color="#f36f56"/></linearGradient><linearGradient id="A" gradientUnits="userSpaceOnUse" x1="343.502" x2="226.877" xlink:href="#z" y1="143.744" y2="432.344"/><linearGradient id="B" gradientUnits="userSpaceOnUse" x1="270.637" x2="270.637" y1="321.56" y2="105.504"><stop offset="0" stop-color="#ffd5a7"/><stop offset=".37" stop-color="#ffd7aa"/><stop offset=".65" stop-color="#ffdeb4"/><stop offset=".91" stop-color="#ffe9c4"/><stop offset="1" stop-color="#fec"/></linearGradient><linearGradient id="C" gradientUnits="userSpaceOnUse" x1="343.502" x2="300.388" xlink:href="#z" y1="225.476" y2="409.757"/><linearGradient id="D" gradientUnits="userSpaceOnUse" x1="343.502" x2="321.398" xlink:href="#z" y1="258.44" y2="392.14"/><linearGradient id="E" gradientUnits="userSpaceOnUse" x1="349.632" x2="416.863" xlink:href="#a" y1="314.728" y2="320.192"/><linearGradient id="F" gradientUnits="userSpaceOnUse" x1="391.745" x2="402.898" xlink:href="#a" y1="333.598" y2="333.977"/><linearGradient id="G" gradientUnits="userSpaceOnUse" x1="367.846" x2="385.228" xlink:href="#a" y1="320.062" y2="320.496"/><linearGradient id="H" gradientUnits="userSpaceOnUse" x1="167.62" x2="191.798" xlink:href="#q" y1="87.4818" y2="117.377"/><linearGradient id="I" gradientUnits="userSpaceOnUse" x1="400.034" x2="450.598" xlink:href="#q" y1="234.173" y2="255.363"/><linearGradient id="J" gradientUnits="userSpaceOnUse" x1="402.375" x2="408.962" xlink:href="#a" y1="343.772" y2="345.149"/><linearGradient id="K"><stop offset="0" stop-color="#007e33"/><stop offset="1" stop-color="#55b079"/></linearGradient><linearGradient id="L" gradientUnits="userSpaceOnUse" x1="408.583" x2="439.911" xlink:href="#K" y1="284.851" y2="284.851"/><linearGradient id="M" gradientUnits="userSpaceOnUse" x1="427.21" x2="433.798" xlink:href="#a" y1="343.772" y2="345.149"/><linearGradient id="N" gradientUnits="userSpaceOnUse" x1="355.606" x2="396.438" xlink:href="#q" y1="146.577" y2="245.259"/><linearGradient id="O" gradientUnits="userSpaceOnUse" x1="395.417" x2="396.692" xlink:href="#q" y1="174.204" y2="174.388"/><linearGradient id="P" gradientUnits="userSpaceOnUse" x1="409.42" x2="423.223" xlink:href="#a" y1="140.731" y2="142.015"/><linearGradient id="Q" gradientUnits="userSpaceOnUse" x1="415.345" x2="425.265" xlink:href="#a" y1="148.84" y2="149.728"/><linearGradient id="R" gradientUnits="userSpaceOnUse" x1="363.214" x2="417.517" xlink:href="#a" y1="205.611" y2="213.765"/><linearGradient id="S" gradientUnits="userSpaceOnUse" x1="399.18" x2="438.509" xlink:href="#K" y1="194.574" y2="194.574"/><linearGradient id="T" gradientUnits="userSpaceOnUse" x1="414.906" x2="447.86" xlink:href="#q" y1="168.699" y2="199.622"/><linearGradient id="U" gradientUnits="userSpaceOnUse" x1="412.567" x2="419.613" xlink:href="#K" y1="166.223" y2="166.223"/><linearGradient id="V" gradientUnits="userSpaceOnUse" x1="409.105" x2="413.623" xlink:href="#q" y1="162.435" y2="168.052"/><linearGradient id="W" gradientUnits="userSpaceOnUse" x1="67.7959" x2="68.9275" xlink:href="#q" y1="346.919" y2="353.685"/><linearGradient id="X" gradientUnits="userSpaceOnUse" x1="67.0714" x2="143.928" xlink:href="#q" y1="190.114" y2="224.448"/><linearGradient id="Y" gradientUnits="userSpaceOnUse" x1="86.7174" x2="91.1858" xlink:href="#K" y1="254.343" y2="254.343"/><linearGradient id="Z" gradientUnits="userSpaceOnUse" x1="74.2706" x2="80.8918" xlink:href="#a" y1="343.129" y2="344.299"/><linearGradient id="aa" gradientUnits="userSpaceOnUse" x1="113.674" x2="114.805" xlink:href="#q" y1="346.919" y2="353.685"/><linearGradient id="ab" gradientUnits="userSpaceOnUse" x1="93.8834" x2="148.768" xlink:href="#q" y1="201.4" y2="219.759"/><linearGradient id="ac" gradientUnits="userSpaceOnUse" x1="74.9574" x2="108.804" xlink:href="#K" y1="198.763" y2="198.763"/><linearGradient id="ad" gradientUnits="userSpaceOnUse" x1="112.706" x2="119.638" xlink:href="#a" y1="342.737" y2="344.024"/><linearGradient id="ae" gradientUnits="userSpaceOnUse" x1="57.3007" x2="78.8708" xlink:href="#q" y1="145.158" y2="211.235"/><linearGradient id="af" gradientUnits="userSpaceOnUse" x1="104.66" x2="109.542" xlink:href="#q" y1="183.477" y2="188.212"/><linearGradient id="ag" gradientUnits="userSpaceOnUse" x1="71" x2="74.6696" xlink:href="#K" y1="173.784" y2="173.784"/><linearGradient id="ah" gradientUnits="userSpaceOnUse" x1="81.1409" x2="84.317" xlink:href="#q" y1="142.094" y2="146.655"/><path d="m31.9968 329.524h442.7062c14.424 0-11.39 7.537-19.844 15.991-8.454 8.453-7.964 11.977-29.019 18.351-45.267 13.763-64.621-13.176-136.485-2.569-30.585 4.514-69.735 13.151-100.467 8.564-25.937-3.866-32.237-21.557-51.836-22.989-30.096-2.202-45.1077 0-72.5735-1.382-23.5263-1.126-70.10185-15.966-32.4817-15.966z" fill="url(#b)"/><path d="m370.027 329.524c-1.419-48.716 9.604-107.856 47.982-141.427 6.118-5.383 13.703-12.332 22.438-11.696 4.074.294 6.117 4.894 6.704 8.405 1.089 6.117 0 12.503-1.48 18.571-8.307 33.559-35.712 92.295-42.722 126.147" fill="url(#c)"/><path d="m434.685 189.357c-7.323 9.454-13.734 19.58-19.147 30.243-5.044 9.95-9.334 20.263-12.833 30.855-3.236 9.756-5.855 19.706-7.843 29.79-1.693 8.585-2.918 17.255-3.67 25.973-.66 6.789-.856 13.616-.587 20.431 0 .686.098 1.358.122 2.044 0 .428.685.428.673 0-.202-6.502-.018-13.01.551-19.49.625-8.486 1.711-16.932 3.254-25.3 1.8-9.89 4.194-19.662 7.169-29.264 3.26-10.567 7.283-20.883 12.039-30.867 5.113-10.696 11.143-20.929 18.021-30.585.856-1.224 1.737-2.447 2.63-3.585.159-.22-.208-.514-.379-.294z" fill="url(#d)"/><path d="m402.949 329.525c5.139-31.528 10.534-57.281 28.616-83.633 7.426-10.84 21.752-24.236 33.142-23.123 12.235 1.224 3.56 19.66-3.67 33.448-9.814 18.433-16.589 38.329-20.064 58.92 1.003-6.178 5.297-23.771 17.972-31.601 3.67-2.287 12.87-3.67 12.87 3.976 0 13.385-13.005 29.46-16.259 42.013" fill="url(#e)"/><path d="m460.768 232.336c-2.99 3.931-5.674 8.087-8.026 12.43-3.364 5.958-6.398 12.112-9.261 18.352-3.262 6.998-6.252 14.101-8.967 21.311-2.765 7.255-5.286 14.608-7.341 22.083-1.929 6.523-3.32 13.192-4.16 19.942-.085.734-.134 1.468-.195 2.202 0 .318.452.306.489 0 .851-6.582 2.172-13.095 3.952-19.489 1.982-7.341 4.367-14.546 6.998-21.667 2.63-7.12 5.627-14.473 8.808-21.544 2.851-6.35 5.897-12.589 9.188-18.718 2.388-4.611 5.086-9.054 8.075-13.299.293-.404.587-.795.893-1.223.306-.429-.172-.686-.404-.392z" fill="url(#f)"/><path d="m464.536 288.454c-3.797 3.925-6.885 8.478-9.126 13.458-2.603 5.551-4.703 11.324-6.277 17.25-.946 3.418-1.737 6.859-2.373 10.326 0 .379.502.538.587.159 2.618-11.61 5.738-23.514 12.112-33.705 1.553-2.552 3.374-4.931 5.432-7.096.032-.049.045-.108.039-.166s-.032-.113-.074-.154c-.041-.041-.095-.067-.154-.074-.058-.006-.116.008-.166.039z" fill="url(#g)"/><path d="m113.905 329.524c-7.439-61.477-2.031-88.27 4.967-105.3 3.266-7.927 7.952-15.794 14.583-21.385 26.536-22.401 25.692 21.153 24.468 34.354-2.838 30.071-10.387 62.223-11.011 92.331" fill="url(#h)"/><path d="m89.9624 329.524c-.8442-19.342-9.4815-38.207-20.48-53.83-10.9986-15.624-26.2668-28.213-36.2255-44.704-5.3341-8.833-13.7634-22.719-1.2845-29.962 13.8368-8.038 34.17.38 45.2664 9.567 12.1119 9.984 20.0641 24.138 26.7072 38.11 11.733 24.676 14.082 53.488 14.265 80.807" fill="url(#i)"/><path d="m92.6171 329.525c.0611-19.685-9.9709-40.459-25.8142-55.837-10.3501-10.057-22.7311-19.465-36.8371-23.612-7.3405-2.153-27.82051-5.554-29.8758544 6.619-.7707536 4.624 3.3888544 13.298 13.3719544 21.201 13.8736 11.011 52.191 28.053 56.8155 51.629" fill="url(#j)"/><path d="m9.48575 257.502c5.63655 1.576 11.12245 3.648 16.39375 6.191 5.8991 2.829 11.5436 6.161 16.871 9.958 5.711 4.054 10.9948 8.677 15.7698 13.8 4.9559 5.302 9.2339 11.2 12.7358 17.556 3.637 6.674 6.3376 13.816 8.0256 21.227.2203.966.416 1.92.5995 2.887.0612.342.5628.196.5017-.135-1.2305-7.601-3.6368-14.964-7.1326-21.825-3.335-6.514-7.4783-12.581-12.332-18.058-4.6742-5.293-9.8854-10.086-15.5497-14.302-5.4012-4.035-11.154-7.577-17.189-10.582-5.3413-2.678-10.9041-4.888-16.6263-6.607l-1.95745-.55c-.05293-.002-.10477.015-.14695.047-.04219.032-.07218.077-.08502.129-.01284.051-.00779.105.01438.153.02216.048.06009.087.10749.111z" fill="url(#k)"/><path d="m38.5787 208.895c5.7724 3.166 11.117 7.055 15.9044 11.574 5.8039 5.414 11.0538 11.394 15.672 17.849 5.3282 7.414 9.9718 15.297 13.8736 23.551 4.4211 9.334 7.9956 19.046 10.6804 29.02 2.8982 11.054 4.8585 22.333 5.8599 33.717.147 1.48.269 2.961.38 4.453 0 .551.893.563.868 0-1.054-22.17-6.262-43.945-15.3537-64.192-3.8567-8.561-8.4883-16.752-13.8369-24.469-4.6085-6.68-9.8662-12.889-15.6964-18.535-4.8569-4.719-10.2719-8.827-16.1247-12.234-.6484-.379-1.309-.734-1.9819-1.089-.2569-.134-.4894.257-.2324.404z" fill="url(#l)"/><path d="m143.352 202.326c-3.055 7.33-5.57 14.874-7.524 22.572-2.115 8.26-3.806 16.622-5.065 25.055-1.321 8.564-2.275 17.128-2.985 25.814-.709 8.687-1.125 17.263-1.333 25.912-.196 8.124-.318 16.296 0 24.469l.11 2.96c0 .101.04.198.111.269s.167.111.268.111.197-.04.268-.111.111-.168.111-.269c0-8.025-.098-16.039.061-24.052.172-8.564.539-17.128 1.15-25.692.612-8.564 1.481-17.372 2.704-25.997 1.224-8.405 2.704-16.761 4.661-25.019 1.837-7.856 4.171-15.587 6.986-23.147.326-.881.669-1.762 1.028-2.643.122-.294-.404-.514-.526-.22z" fill="url(#m)"/><path d="m73.8499 329.524c-2.3735-10.619-4.4655-21.679-10.7905-30.83-4.1352-5.982-12.5768-14.326-20.0886-14.191-5.591.097-6.8633 5.468-6.2149 10.313 1.7127 12.675 8.7352 16.541 11.4634 30.255-1.358-5.199-9.7874-23.184-17.1279-16.308-8.099 7.573 3.9639 20.798 3.9639 20.798" fill="url(#n)"/><path d="m34.1254 312.274c2.1363 2.498 4.1218 5.121 5.9459 7.854 1.9018 2.984 3.4885 6.158 4.7346 9.47.026.058.0718.105.1293.133.0575.027.123.034.1847.018.0617-.017.1158-.054.1523-.106.0366-.053.0535-.116.0475-.18-.9385-3.487-2.5193-6.769-4.6612-9.677-1.8785-2.761-3.9601-5.378-6.2272-7.83-.1835-.208-.4894.098-.3059.318z" fill="url(#o)"/><path d="m45.7602 292.442c4.2319 4.641 7.7156 9.911 10.3257 15.624 2.5199 5.176 4.758 10.485 6.7043 15.904.6729 1.86 1.3213 3.744 2.0187 5.591.1223.318.6116.196.5138-.135-1.248-4.176-2.714-8.284-4.3921-12.307-2.3377-5.922-5.204-11.622-8.5639-17.03-1.7999-2.894-3.9174-5.578-6.3129-8.001-.1957-.196-.5016.11-.3058.318z" fill="url(#p)"/><path d="m289.587 229.289h2.447" stroke="#b3d3f4" stroke-miterlimit="10"/><path d="m296.916 229.29h131.003c5.146.091 10.257-.843 15.038-2.749 4.78-1.906 9.133-4.745 12.804-8.351 3.671-3.607 6.586-7.908 8.577-12.654 1.99-4.745 3.015-9.84 3.015-14.986s-1.025-10.24-3.015-14.986c-1.991-4.746-4.906-9.047-8.577-12.653-3.671-3.607-8.024-6.446-12.804-8.352-4.781-1.905-9.892-2.84-15.038-2.748h-295.333c-5.448 0-10.672-2.165-14.525-6.017-3.852-3.852-6.016-9.077-6.016-14.525 0-5.449 2.164-10.675 6.016-14.529 3.851-3.854 9.076-6.021 14.525-6.024h248.158c4.745-.123 9.254-2.094 12.567-5.494 3.312-3.399 5.166-7.9579 5.166-12.7043s-1.854-9.3052-5.166-12.7046c-3.313-3.3994-7.822-5.3707-12.567-5.4938h-227.091c-2.654 0-5.199-1.0543-7.076-2.9311s-2.931-4.4223-2.931-7.0764c0-2.6542 1.054-5.1997 2.931-7.0764 1.877-1.8768 4.422-2.9312 7.076-2.9312h61.171" stroke="#b3d3f4" stroke-dasharray="3.99 3.99" stroke-miterlimit="10"/><path d="m217.234 54.3042h2.447" stroke="#b3d3f4" stroke-miterlimit="10"/><path d="m235.304 21.908c-4.428-.7485-8.979-.0625-12.989 1.9578-4.011 2.0203-7.271 5.2693-9.305 9.2729s-2.735 8.5524-2.001 12.9827c.733 4.4304 2.863 8.5104 6.079 11.645l-2.851 5.7867 6.386-2.9851c2.642 1.6517 5.618 2.697 8.712 3.0609 3.095.3639 6.231.0372 9.185-.9565 2.953-.9937 5.649-2.6297 7.894-4.7903s3.983-4.7921 5.089-7.705c1.107-2.9129 1.553-6.0348 1.308-9.141s-1.175-6.1195-2.725-8.8229c-1.549-2.7035-3.678-5.0299-6.234-6.8118s-5.475-2.975-8.548-3.4934z" fill="#f3faff"/><path d="m222.409 52.6159-2.177-2.5692c-.388-.4918-.572-1.1135-.515-1.737.057-.6236.35-1.2017.821-1.6152l2.446-2.092c.491-.384 1.11-.5662 1.731-.5094.621.0569 1.196.3485 1.609.8152 0 0 1.163 1.7373 2.521 1.4314 1.358-.3058 4.893-2.8138 6.716-4.7101 1.224-1.3458-.868-3.6703-.868-3.6703-.201-.2388-.352-.5149-.445-.8125-.094-.2976-.127-.6107-.099-.9212.029-.3105.119-.6123.264-.888.146-.2757.345-.5198.585-.7182l2.447-2.0921c.491-.384 1.11-.5661 1.731-.5093.621.0569 1.196.3484 1.609.8152l2.178 2.6059c5.028 5.8112-16.272 22.3029-20.554 17.1768z" fill="#b3d3f4"/><path d="m327.146 53.9009c3.12-2.9974 4.417-6.1171 8.723-7.0469.893-.115 1.761-.3753 2.57-.7707 2.092-1.3091 1.663-4.2698 2.128-6.6187.93-4.6368 6.986-7.5608 11.415-5.5299 1.859.8564 3.535 2.4468 5.591 2.2878 4.11-.2814 3.67-5.3463 6.423-8.2336 2.752-2.8873 8.05-3.083 11.5-1.358 2.353 1.1621 4.418 2.8338 6.044 4.8937 1.676 2.1654 1.59 5.5054 2.826 7.891 1.235 2.3857 3.988 3.3033 5.211 5.5788.556.9091.893 1.935.984 2.9966s-.065 2.1298-.457 3.1205c-1.75 4.2086-6.901 7.2426-11.562 7.2426h-63.018s8.111-1.1133 11.622-4.4532z" fill="#f3faff"/><path d="m176.201 23.9756c-2.63-2.5325-3.731-5.1384-7.34-5.9581-.756-.0912-1.489-.3149-2.166-.6606-1.774-1.1011-1.419-3.6091-1.811-5.591-.783-3.91497-5.896-6.38627-9.64-4.66125-1.578.72182-2.998 2.04311-4.735 1.933-3.462-.24468-3.046-4.52665-5.419-6.96125-2.374-2.4346-6.803-2.605882-9.714-1.150014-1.995.986324-3.742 2.407814-5.114 4.159624-1.419 1.82289-1.346 4.64898-2.447 6.66759-1.101 2.0187-3.365 2.7894-4.404 4.7102-.469.7719-.753 1.642-.83 2.5419-.076.9.057 1.8055.389 2.6454 1.48 3.5479 5.836 6.1171 9.787 6.1171h53.268s-6.876-.9665-9.824-3.7926z" fill="#f3faff"/><path d="m421.9 81.4885-37.021-19.8071 9.751-28.9338 45.046 23.3183z" fill="#cfe0f5"/><path d="m439.676 56.066-45.046-23.3183 32.115-6.8634z" fill="#cfe0f5"/><path d="m436.263 51.3818-36.071-18.6733-15.771 30.4644 36.07 18.6733z" fill="#f4caab"/><path d="m394.63 32.7476-15.17 29.2886 29.57-1.9452z" fill="#e6f1fc"/><path d="m439.676 56.0659-15.158 29.3009-15.488-25.2758z" fill="#e6f1fc"/><path d="m424.518 85.3669-45.058-23.3306 34.255-10.8517z" fill="#e6f1fc"/><path d="m424.518 85.3673-45.058-23.3306 32.114-6.8512z" fill="#e6f1fc"/><path d="m124.793 93.7347-30.1696 7.5603-9.0533-20.7243 36.3229-9.6283z" fill="#cfe0f5"/><path d="m121.893 70.9429-36.3229 9.6283 14.2039-19.746z" fill="#cfe0f5"/><path d="m117.689 70.0605-29.0808 7.7051 6.5081 24.5624 29.0807-7.7046z" fill="#f4caab"/><path d="m85.5701 80.5713 6.2639 23.6117 15.244-15.7818z" fill="#e6f1fc"/><path d="m121.893 70.9424 6.264 23.6242-21.079-6.166z" fill="#e6f1fc"/><path d="m128.157 94.5668-36.323 9.6162 13.384-23.0004z" fill="#e6f1fc"/><path d="m128.157 94.5669-36.323 9.6161 14.204-19.746z" fill="#e6f1fc"/><path d="m243.489 52.4935 1.126-1.7495c-.219-.9259-.326-1.8748-.319-2.8261-.023-.9264.148-1.8474.502-2.7038.281-.159.416 1.566.538 1.5048.123-.0611 1.016-3.45 1.517-3.4011.257 0-.624 3.291-.624 3.291s.869-3.5479 1.224-3.4255c.355.1223-.551 3.5112-.551 3.5112s.832-3.2176 1.163-3.1197c.33.0978-.539 3.2542-.539 3.2542s.832-2.8016 1.016-2.6425c.183.159 0 2.1654-.832 4.8937-.147.4649-.82 2.0186-.857 2.1532l-.807 2.9362" fill="#f4caab"/><path d="m245.336 47.0986c.34.5036.6 1.0566.771 1.6394.108.6301.04 1.2777-.196 1.8719 0 .0978.123.1712.172.0734.337-.5844.446-1.273.306-1.933-.185-.6329-.493-1.2232-.906-1.7373-.061-.0734-.196 0-.147.0856z" fill="#231918"/><path d="m204.964 263.19s6.545 2.386 6.594 4.319c0 1.113-9.494 1.089-10.081.355-.954-1.224.697-4.429.697-4.429z" fill="#352e72"/><path d="m204.853 257.795.147 5.567c-.076.275-.233.521-.452.704-.218.184-.487.297-.771.324-.967.134-1.627-.955-1.627-.955l-.282-6.961" fill="#f4caab"/><path d="m209.319 133.851s3.56 21.617 1.774 63.091c-1.223 28.322-5.041 62.566-6.447 62.603-.888.019-1.775-.026-2.655-.135 0 0-8.919-41.046-9.531-64.156-.93-35.602-10.325-43.762-6.251-62.26" fill="url(#r)"/><path d="m205.563 257.282-.257 2.459-3.915.11-.183-2.447z" fill="url(#s)"/><path d="m184.814 263.741s6.545 2.447 6.582 4.331c0 1.101-9.482 1.077-10.081.343-.942-1.224.709-4.429.709-4.429z" fill="#352e72"/><path d="m184.679 258.346.135 5.567c-.069.268-.216.509-.423.692-.208.183-.465.3-.739.335-.967.135-1.627-.954-1.627-.954l-.294-6.961" fill="#f4caab"/><path d="m197.782 134.168s-1.676 27.491-3.78 59.226c-.844 12.54-8.038 64.964-9.054 66.689l-3.56.098s-5.419-45.353-6.031-68.512c-.93-35.589-4.759-39.896-.685-58.394" fill="url(#t)"/><path d="m185.487 257.832-.269 2.459-3.903.11-.196-2.447z" fill="url(#u)"/><path d="m196.926 148.079s-1.395 35.124-3.952 55.702" stroke="#4a578e" stroke-miterlimit="10" stroke-width=".5"/><path d="m201.526 60.9723c-2.239-3.9394-8.283-3.3399-11.745-1.5415-4.894 2.557-6.117 9.8486-10.668 12.9683-2.031 1.3702-4.478 2.1899-6.117 4.0373-.905 1.1383-1.502 2.4901-1.733 3.9256-.232 1.4355-.09 2.9063.411 4.2713 1.046 2.7082 2.989 4.9756 5.506 6.4229 2.484 1.4035 5.177 2.399 7.976 2.9484 4.417 1.0277 9.127 1.566 13.458.0734 4.331-1.4925 8.013-5.4931 7.989-10.1299 0-3.9149-2.582-7.5852-2.129-11.4756" fill="#081466"/><path d="m243.831 51.1602s-11.708 16.8097-14.399 20.639c-4.172 5.9458-21.3 7.0958-30.451 12.5156l-6.35.6973c-3.021.6117-13.457 8.0134-14.399 11.0108-2.215 6.8141-4.466 13.7141-4.894 20.8841-.134 2.446 0 4.893 0 7.34.11 3.524.233 7.035.343 10.558-.013.235.042.469.159.673.173.177.402.289.648.318 11.5 2.655 23.478 1.224 35.186-.208.411-.016.808-.157 1.137-.403.322-.405.476-.917.429-1.432.061-2.251-.062-4.502-.159-6.753-.364-9.761.004-19.534 1.101-29.2399 3.67-2.2755 18.62-6.9734 23.636-13.9836 6.708-9.3113 10.605-20.3503 11.231-31.8089z" fill="url(#v)"/><path d="m198.993 84.3025-.232-8.0379-3.56.4894-2.557 8.1602c.456.5433 1.05.9529 1.72 1.1856.67.2326 1.39.2795 2.085.1357.575-.0061 1.133-.1974 1.592-.5456.458-.3481.792-.8346.952-1.3874z" fill="#f4caab"/><path d="m191.384 72.986c-.246-3.0034.625-5.9919 2.446-8.3927 1.664-1.8473 4.772-2.1165 7.072-1.7984.795.079 1.551.3847 2.177.8809 2.264 1.884 2.117 6.2149 1.958 8.8698-.076 2.2661-.849 4.4537-2.214 6.2639-.422.5661-.977 1.0199-1.615 1.3212-1.181.4215-2.446.5461-3.686.3626s-2.415-.6694-3.422-1.4147c-.849-.7732-1.528-1.7136-1.996-2.7622-.467-1.0485-.713-2.1824-.72-3.3304z" fill="#f4caab"/><path d="m190.368 75.5303c-.832.3915-2.141.6729-2.789-.2447-.514-.734-.061-1.8351.122-2.6181.587-2.5395 1.318-5.0434 2.19-7.4995.399-1.3007.985-2.5369 1.737-3.6703 1.542-2.1287 5.922-3.1075 8.503-2.8628 2.826-.1957 7.341 4.4166 4.894 9.7874-.367-1.3091-.893-1.2235-1.86-2.3123-.956.9153-2.203 1.4652-3.523 1.5537-1.713.1591-3.671-.2324-4.894.9665-1.223 1.199-1.015 3.4256-1.957 4.9549-.587.8834-1.434 1.563-2.423 1.9452z" fill="#081466"/><path d="m193.292 73.5237c.032-.1354.035-.276.01-.4128s-.079-.2669-.157-.382c-.078-.115-.179-.2126-.297-.2863-.118-.0738-.25-.1223-.388-.1423-1.297-.1346-1.688 1.9085-1.223 2.8383.379.6851 1.321 1.2234 1.81.4282" fill="#f4caab"/><path d="m195.482 78.32c-.322-.0231-.642-.0764-.954-.159-.981-.2173-1.85-.7822-2.447-1.5905-.226-.2981-.362-.6547-.392-1.0276 0-.039.016-.0763.043-.1038.028-.0276.065-.043.104-.043.019-.0017.038.0005.056.0065.017.006.034.0156.047.0283.014.0127.025.0281.033.0453.007.0171.011.0357.011.0544.028.3129.147.6107.343.8564.554.7475 1.356 1.2725 2.263 1.4804.897.1848 1.816.2384 2.728.159.019-.0017.039.0005.057.0064.019.0058.036.0153.051.0278.014.0125.027.0278.036.0451.008.0172.014.036.015.0553.002.0203-.001.0407-.007.0599-.007.0193-.017.0369-.031.0519s-.031.0269-.049.035c-.019.0081-.039.0123-.06.0122-.614.049-1.232.049-1.847 0z" fill="#081466"/><path d="m197.99 77.7935c-.266-.1101-.566-.1101-.832 0-.93.3059.086 1.5293.93.9054.07-.0528.128-.1194.171-.1958.031-.064.048-.1335.051-.2044.002-.0708-.009-.1414-.034-.2077s-.064-.1268-.113-.1779-.108-.0918-.173-.1196z" fill="#081466"/><path d="m189.23 68.2393c.207-2.2019.988-4.311 2.264-6.1171 1.651-2.1043 3.866-3.8416 5.982-3.8416.904-.0386 1.806.1028 2.655.416-2.225.5288-4.238 1.7187-5.774 3.4133-1.741 1.8678-2.734 4.3108-2.79 6.8634" fill="url(#w)"/><path d="m194.577 71.7129c.162 1.0814-.11 2.183-.756 3.0651-.646.882-1.614 1.4733-2.694 1.6451-.539.0297-1.078-.0471-1.586-.2261-.509-.1789-.977-.4565-1.378-.8168-.402-.3602-.728-.7961-.96-1.2827-.233-.4865-.367-1.0142-.395-1.5526-.159-1.0809.114-2.1808.76-3.0621.645-.8813 1.612-1.4733 2.69-1.6481 1.087-.0567 2.151.3197 2.961 1.0466.809.727 1.298 1.7453 1.358 2.8316z" fill="url(#x)"/><path d="m192.729 72.0676c.125.723-.04 1.4661-.459 2.0684-.419.6022-1.058 1.0151-1.779 1.1492-.59.1485-1.211.1133-1.78-.1007s-1.059-.5967-1.405-1.0968c-.346-.5002-.53-1.094-.529-1.702s.187-1.2012.534-1.7003c.348-.499.839-.8802 1.409-1.0924s1.191-.2454 1.78-.0951 1.118.4769 1.516.9361c.399.4593.648 1.0292.713 1.6336z" fill="url(#y)"/><path d="m270.637 65.1074-131.138 114.8426v157.906h262.288v-157.906z" fill="url(#A)"/><path d="m388.525 105.504h-235.777v216.056h235.777z" fill="url(#B)"/><path d="m375.031 133.57h-208.776v18.449h208.776z" fill="#fff"/><path d="m375.031 160.668h-208.776v18.449h208.776z" fill="#fff"/><path d="m375.031 187.755h-208.776v109.704h208.776z" fill="#fff"/><path d="m270.637 280.196-131.138-100.247v141.611h262.288v-141.611z" fill="#c9d3f4" opacity=".55"/><path d="m270.637 296.517-131.138-116.568v157.907h262.288v-157.907z" fill="url(#C)"/><path d="m270.637 214.217-131.138 123.639h262.288z" fill="#c9d3f4" opacity=".35"/><path d="m270.637 226.268-131.138 111.588h262.288z" fill="url(#D)"/><path d="m356.423 345.514c-2.655-13.825.11-28.028 5.64-39.859 3.67-7.744 11.952-18.523 21.238-18.351 6.9.134 9.787 7.071 10.203 13.323 1.053 16.394-6.655 21.397-6.618 39.149.391-6.716 6.888-28.505 17.03-21.079 9.922 7.34.257 26.841.257 26.841" fill="url(#E)"/><path d="m401.041 322.869c-2.033 3.239-3.804 6.634-5.298 10.154-1.78 3.931-2.813 8.158-3.046 12.467 0 .294.489.379.526.073.563-4.186 1.614-8.292 3.132-12.234 1.448-3.527 3.141-6.948 5.065-10.24.023-.05.027-.106.01-.159-.016-.052-.052-.096-.099-.124-.048-.027-.104-.036-.157-.025-.054.012-.101.043-.133.088z" fill="url(#F)"/><path d="m382.543 297.263c-4.221 5.872-6.57 13.017-8.405 19.954-1.777 6.861-3.117 13.828-4.013 20.859-.326 2.447-.591 4.926-.795 7.439 0 .305.489.379.526.073.734-5.212 1.333-10.436 2.239-15.623 1.184-7.47 3.047-14.817 5.566-21.948 1.3-3.718 3.063-7.257 5.249-10.534.159-.232-.22-.453-.379-.22z" fill="url(#G)"/><path d="m183.089 122.363c.683.514 1.437.927 2.239 1.223 1.168-.19 2.352-.272 3.535-.244.951.072 1.876.343 2.716.795.11.293-1.7.257-1.664.379.037.122 3.389 1.37 3.255 1.872-.074.257-3.316-.954-3.316-.954s3.536 1.223 3.328 1.614c-.208.392-3.548-.905-3.548-.905s3.193 1.162 3.01 1.493c-.184.33-3.291-.502-3.291-.502s2.716.6 2.569.918c-1.922-.052-3.819-.445-5.603-1.163-1.525-.605-2.967-1.398-4.295-2.361" fill="#f4caab"/><path d="m184.263 98.457c-2.948 4.478-9.787 9.653-13.457 12.834 2.153 2.924 14.363 12.038 14.363 12.038l-1.138 2.716s-23.245-4.172-24.004-15.672c-.44-6.876 8.258-17.0054 15.012-21.7645 6.337-4.4533 13.751-5.1873 17.654-3.5969" fill="url(#H)"/><path d="m354.624 148.581c-2.557-1.053-6.215-4.185-5.786-5.959.171-.758 1.981 1.297 2.446.796.465-.502 0-1.86-.868-2.606-.869-.746-2.851-2.104-2.374-2.582.477-.477 5.175.575 6.227 2.178.922 1.77 1.546 3.68 1.848 5.652l1.945 2.521" fill="#f4caab"/><path d="m403.855 348.243s-8.001 2.447-8.001 4.245c0 1.052 11.769.783 12.478.073 1.126-1.137-1.015-4.159-1.015-4.159z" fill="#352e72"/><path d="m403.855 343.141v5.261c.128.284.337.524.599.691.263.168.569.255.881.251.381.008.758-.073 1.103-.237.344-.163.645-.405.879-.705l.135-6.582" fill="#f4caab"/><path d="m394.312 226.293s-3.67 20.492-.147 59.592c2.447 26.695 8.27 58.908 10.008 58.908 1.095-.005 2.19-.07 3.278-.196 0 0 9.69-38.966 9.69-60.791 0-33.62 11.329-41.597 5.701-58.92" fill="url(#I)"/><path d="m402.961 342.688.404 2.301h4.833l.146-2.301z" fill="url(#J)"/><path d="m428.849 348.243s-8.013 2.447-8.001 4.245c0 1.052 11.757.783 12.467.073 1.137-1.137-1.004-4.159-1.004-4.159z" fill="#352e72"/><path d="m428.849 343.141v5.261c.129.284.337.524.6.691.263.168.569.255.88.251.381.008.759-.073 1.103-.237.344-.163.645-.405.879-.705l.123-6.582" fill="#f4caab"/><path d="m408.577 226.293s2.961 25.899 6.607 55.8c1.431 11.806 12.038 61.085 13.347 62.7h4.404s5.212-42.954 5.212-64.78c0-33.62 4.588-37.779-1.04-55.127" fill="url(#L)"/><path d="m427.797 342.688.404 2.301h4.832l.147-2.301z" fill="url(#M)"/><path d="m410.094 239.395s2.851 33.118 6.692 52.472" stroke="#4a578e" stroke-miterlimit="10" stroke-width=".5"/><path d="m438.245 221.998c0-2.141 1.664-39.076-4.747-47.419-1.823-3.891-8.564-8.295-13.874-10.204-4.71-1.688-7.683-.367-9.787 0-9.016-2.593-29.631-.856-35.344-3.792-3.157-1.615-17.875-14.375-17.875-14.375l-2.752 2.141s8.796 18.351 18.681 24.798c6.962 4.515 17.275 7.023 22.793 8.124-.086 1.003-.147 2.116-.208 3.352-.306 6.594-1.053 18.18-.294 37.436.073 1.836-1.909 4.185-1.909 5.408s2.386 5.089 22.205 5.089c16.822 0 24.811-2.446 24.811-5.273 0-2.826-1.7-3.144-1.7-5.285z" fill="url(#N)"/><path d="m395.817 173.612c.055.406.087.814.098 1.223.048.868.048 1.738 0 2.606-.05.869-.144 1.735-.282 2.594-.122.709-.244 1.223-.244 1.223-.055-.406-.088-.814-.098-1.223-.048-.868-.048-1.738 0-2.606 0-.942.171-1.884.281-2.594.11-.709.245-1.223.245-1.223z" fill="url(#O)" opacity=".5625"/><path d="m408.577 141.705c-.759 2.961-2.581 11.096-.905 13.653.921 1.202 2.218 2.06 3.684 2.437s3.016.251 4.402-.357c1.366-.654 2.574-1.597 3.542-2.763.967-1.166 1.67-2.527 2.062-3.99.766-2.928.998-5.97.685-8.98" fill="#f4caab"/><path d="m411.807 152.484-1.224 9.873s.429 2.764 1.934 3.817c1.152-.099 2.261-.487 3.224-1.128.962-.642 1.747-1.517 2.281-2.543l-1.101-12.711" fill="#f4caab"/><path d="m418.315 144.433c-1.908-.685-4.539-.44-6.937-.844-1.706-.13-3.39-.466-5.015-1.003-2.863-1.224-2.594-5.567-.27-7.206.305-.265.661-.464 1.046-.586s.791-.164 1.193-.124c.832.196 1.138 1.077 1.884 1.407.387.161.808.22 1.224.172.316-.019.62-.134.868-.331.416-.355.575-.905.967-1.284.395-.355.876-.599 1.394-.71.56-.148 1.144-.18 1.716-.094.573.086 1.121.289 1.612.596.3.268.638.491 1.003.66.646.107 1.28.271 1.897.49.798.556 1.46 1.285 1.939 2.132.478.847.761 1.791.826 2.761 0 .282.477.551.648.747.691.964 1.16 2.071 1.371 3.239.212 1.168.161 2.368-.148 3.514-.266 2.315-1.372 4.452-3.107 6.007-.756.473-1.581.824-2.447 1.04-3.303 1.223-1.627-7.952-1.774-10.583" fill="#352e72"/><path d="m418.756 149.499c.03-.177.103-.343.212-.485s.251-.255.414-.33c.162-.075.341-.109.52-.099.178.01.352.063.506.155.185.105.342.253.457.432s.185.384.203.596c.043.549-.1 1.096-.406 1.553-.307.458-.758.798-1.282.967-.428.074-.893-.465-.918-.893" fill="#f4caab"/><path d="m415.293 155.407c.322-.025.641-.074.955-.147.974-.218 1.841-.772 2.447-1.566.229-.282.366-.628.391-.991 0-.038-.015-.076-.043-.103-.027-.028-.065-.043-.104-.043s-.076.015-.104.043c-.027.027-.042.065-.042.103-.029.304-.144.592-.331.832-.561.739-1.368 1.251-2.275 1.444-.893.185-1.808.238-2.716.159-.02-.004-.04-.003-.059.002-.02.005-.038.015-.053.028s-.027.029-.035.047c-.009.018-.013.038-.012.058-.001.038.012.075.037.104s.059.049.097.055c.616.034 1.233.025 1.847-.025z" fill="#081466"/><path d="m412.773 154.893c.267-.11.566-.11.832 0 .942.294-.073 1.48-.917.869-.072-.045-.131-.109-.172-.184-.03-.061-.047-.128-.051-.197-.003-.068.007-.137.032-.201.024-.064.061-.123.108-.172.048-.049.105-.089.168-.115z" fill="#081466"/><path d="m421.509 145.547c-.209-2.162-.995-4.228-2.276-5.983-1.652-2.067-3.854-3.756-5.97-3.756-.903-.039-1.805.098-2.655.404 2.214.514 4.225 1.677 5.774 3.34 1.736 1.813 2.731 4.208 2.79 6.717" fill="url(#P)"/><path d="m416.199 148.96c-.02.761.183 1.511.583 2.159s.98 1.165 1.67 1.488c.689.323 1.458.437 2.212.33s1.46-.432 2.032-.934.985-1.161 1.189-1.894c.203-.734.189-1.511-.042-2.236-.232-.726-.669-1.368-1.26-1.849-.59-.48-1.308-.778-2.065-.857-.533-.035-1.067.036-1.573.208-.505.172-.972.441-1.373.793-.401.353-.729.781-.964 1.26-.236.479-.375.999-.409 1.532z" fill="url(#Q)"/><path d="m418.034 149.327c.012.494.166.974.444 1.382s.668.728 1.123.921c.454.192.955.25 1.442.165.486-.085.938-.308 1.301-.643s.622-.767.746-1.245c.123-.478.107-.982-.049-1.451-.155-.469-.442-.883-.827-1.193s-.851-.502-1.342-.554c-.722-.023-1.424.238-1.955.728s-.848 1.169-.883 1.89z" fill="#a2c0ed"/><path d="m412.578 219.294h-39.59l-3.878-23.918c-.037-.24-.022-.485.044-.719.067-.234.183-.45.341-.635s.354-.333.575-.435c.22-.102.46-.155.703-.156h35.284c.65 0 1.279.232 1.774.653.496.422.825 1.005.93 1.647z" fill="#a2c0ed"/><path d="m411.428 219.294h-39.578l-3.878-23.918c-.039-.239-.026-.484.039-.718s.18-.451.337-.636.353-.333.573-.435.46-.155.702-.156h35.284c.65 0 1.279.232 1.774.653.496.422.825 1.005.929 1.647z" fill="url(#R)"/><path d="m391.743 205.727c-.441-2.019-1.97-3.438-3.438-3.181s-2.288 2.092-1.86 4.111c.429 2.018 1.97 3.45 3.438 3.193s2.264-2.104 1.86-4.123z" fill="#abd1ff"/><path d="m433.498 174.579c-1.823-3.891-6.606-5.53-11.953-7.439l-1.468 18.058c.783 6.785 2.009 13.512 3.67 20.137l-16.553 12.516c-.204.145-.426.264-.66.355-.233 0-1.835-.906-2.679-.759-.845.147-1.836.196-1.836.502s1.31.342 1.31.636c0 .293-.881.881-1.224.881-.969-.086-1.943-.086-2.912 0-.146.171.502 1.223 1.163 1.81.619.426 1.342.676 2.092.722 1.527-.033 3.04-.314 4.477-.832.27-.195.955-.575 1.615-.942l.563 1.04s22.56-1.798 29.362-4.894c.171-11.071.061-35.234-4.967-41.791z" fill="url(#S)" opacity=".75"/><path d="m408.577 216.97c-.66.412-1.346.78-2.055 1.101-.856-.351-1.759-.574-2.68-.661-.856.135-1.835.184-1.835.441s1.309.293 1.309.538-.881.746-1.223.746c-.969-.074-1.943-.074-2.912 0-.147.147.502 1.052 1.162 1.554.64.365 1.357.574 2.092.612 1.519-.029 3.025-.268 4.478-.71.6-.367 3.181-1.505 3.181-1.505" fill="#f4caab"/><path d="m419.625 164.375s11.585.735 17.127 11.439c5.542 10.705 3.781 33.522.416 36.887-3.364 3.364-28.995 7.499-28.995 7.499l-.978-2.349 17.984-11.206s-5.616-18.841-5.616-26.487" fill="url(#T)"/><path d="m412.565 166.173c.85 1.114 1.523 2.352 1.995 3.671 3.853-1.224 5.052-5.518 5.052-5.518l-1.529-1.725s-3.022 3.083-5.518 3.572z" fill="url(#U)"/><path d="m412.578 166.173c-.859.901-1.517 1.972-1.933 3.145-.979-.979-1.701-4.515-1.603-4.894.496-.702 1.031-1.376 1.603-2.019.25 1.422.923 2.736 1.933 3.768z" fill="url(#V)"/><path d="m75.538 347.154s-8.0011 2.447-8.0011 4.245c0 1.052 11.757.771 12.4666.061 1.1377-1.125-.8809-4.563-.8809-4.563z" fill="url(#W)"/><path d="m75.5381 342.052v5.285c.1284.284.3369.525.5998.692s.5689.254.8805.25c.3727.001.7406-.084 1.0756-.247s.6282-.401.8574-.695l.1224-6.582" fill="#f4caab"/><path d="m78.1929 197.505c-5.383 6.961-11.6958 26.646-11.6958 64.009 0 26.414 8.5639 81.713 8.5639 81.713l4.8937.415c15.6475-98.864 10.3623-97.873 14.2772-115.417 2.4469-11.011-2.5324-38.77-2.5324-38.77" fill="url(#X)"/><path d="m91.1856 259.582s-3.3766-18.755-3.3766-22.584c-1.4566 8.124-1.4566 16.442 0 24.566 1.0766 5.114 2.1899 10.117 2.1899 10.117z" fill="url(#Y)" opacity=".35"/><path d="m74.853 341.856v2.093s5.1139.856 5.1139.538.2325-2.447.2325-2.447z" fill="url(#Z)"/><path d="m118.235 347.154s8.001 2.447 8.001 4.245c0 1.052-11.769.771-12.478.061-1.126-1.125.88-4.563.88-4.563z" fill="url(#aa)"/><path d="m117.342 342.052.894 5.26c-.129.284-.337.525-.6.692s-.569.254-.881.25c-.381.009-.758-.072-1.102-.236-.344-.163-.646-.405-.88-.706l-1.027-6.582" fill="#f4caab"/><path d="m104.227 194.41c5.298 8.919 14.681 27.307 14.681 64.67 0 26.413-.697 84.171-.697 84.171l-4.196.428c-13.519-37.742-24.7745-85.835-27.4171-113.851-1.0644-11.231.9665-40.373.9665-40.373" fill="url(#ab)"/><path d="m104.851 195.438c-5.6911-1.718-11.48-3.095-17.3356-4.123v.697l-9.2246 5.493c-1.3363 1.827-2.4571 3.801-3.3399 5.885 3.7934 1.456 7.7789 2.35 11.8305 2.655 7.6341.673 17.1276-.808 22.0216-3.095-1.19-2.569-2.509-5.076-3.952-7.512z" fill="url(#ac)" opacity=".35"/><path d="m118.933 341.465v2.092s-5.371.856-5.371.538-.245-2.447-.245-2.447z" fill="url(#ad)"/><path d="m146.24 174.713 1.725-.942c.234-.852.566-1.673.99-2.447.306-.587 1.334-2.031 1.64-2.031s-.343 1.493-.22 1.493c.122 0 2.446-2.447 2.814-2.129.207.135-1.995 2.447-1.995 2.447s2.325-2.569 2.606-2.276c.282.294-2.043 2.667-2.043 2.667s2.153-2.3 2.447-2.055-1.909 2.447-1.909 2.447 1.946-1.958 2.031-1.737c.086.22-.991 1.786-2.887 3.67-.33.33-1.603 1.321-1.688 1.407l-1.994 2.08" fill="#f4caab"/><path d="m150.265 171.079c.063.589.034 1.183-.086 1.762-.206.553-.546 1.045-.991 1.432-.018.014-.029.035-.032.058-.002.023.005.046.02.064.014.018.035.029.058.031.023.003.046-.004.064-.019.544-.322.946-.838 1.126-1.444.128-.629.128-1.278 0-1.908 0-.086-.159-.061-.159 0z" fill="#231918"/><path d="m32.9755 141.705-1.2235-1.554c.1306-.886.1593-1.785.0856-2.679-.048-.88-.2859-1.74-.6973-2.52-.2814-.122-.2691 1.517-.3915 1.456-.1223-.061-1.2234-3.157-1.725-3.083.1605 1.049.4438 2.075.8442 3.058 0 0-1.1011-3.278-1.4804-3.132-.3792.147.8075 3.267.8075 3.267s-1.0522-2.961-1.3703-2.838c-.3181.122.7708 3.009.7708 3.009s-1.0154-2.569-1.2234-2.447c-.208.123.208 2.031 1.2234 4.527.1713.44.942 1.847.991 1.97l.9909 2.703" fill="#f4caab"/><path d="m30.5898 136.701c-.3673.526-.6215 1.121-.7463 1.75-.0814.618.0761 1.244.4404 1.749 0 .086.208 0 .1713-.061-.2511-.521-.3688-1.097-.3426-1.676.1097-.589.3164-1.155.6117-1.676.0113-.008.0203-.019.0265-.032.0061-.012.009-.026.0086-.04-.0005-.014-.0043-.027-.0112-.039-.0069-.013-.0167-.023-.0284-.03-.0118-.008-.0252-.012-.0391-.013-.0139-.002-.0278.001-.0406.006-.0129.006-.0241.014-.0329.025s-.0147.024-.0174.037z" fill="#231918"/><path d="m147.463 173.967s-17.544 6.46-21.52 6.46c-3.291 0-8.894-8.883-16.639-14.938-3.156-2.392-6.621-4.347-10.3007-5.812l-14.681-.306c-4.4495.102-8.8896.457-13.2986 1.065-7.2793.991-14.106.661-17.2869-.759-6.117-2.752-21.5199-19.281-21.5199-19.281-.5122-.064-1.0322-.005-1.5172.171-.485.177-.9211.466-1.2722.845 0 .819 7.9155 23.416 18.3513 30.181 7.6708 4.98 18.8651 5.799 25.8386 5.75v4.649c0 2.301-2.7405 13.605.5016 16.835 2.9729 2.985 14.3385 3.352 18.7672 3.352 6.582 0 13.3108-1.04 14.9868-3.352.844-1.15.722-6.301.465-11.011 5.261 3.315 10.008 6.606 16.088 6.606 11.366 0 24.725-17.776 24.725-17.776z" fill="url(#ae)"/><path d="m108.546 191.095-.147-3.279-4.918-4.979z" fill="url(#af)" opacity=".75"/><path d="m73.6786 177.343c0-.587.9909-6.215.9909-7.12-1.4681 3.181-3.6702 7.084-3.6702 7.084z" fill="url(#ag)" opacity=".75"/><path d="m96.5198 133.349c4.1352 2.582 3.4256 7.842 5.1012 11.133 1.224 2.386 3.096 4.392 3.279 7.218.184 3.083-3.817 4.527-5.9701 4.197-4.2085-.649-7.8176 1.492-12.0629.978-2.8872-.354-1.7984-1.798-3.6702-4.012-1.1037-1.381-1.7532-3.069-1.8596-4.833-.0942-1.75.0332-3.505.3793-5.224" fill="#4a578e"/><path d="m88.8857 151.223-.8319 7.573-3.6703.575s2.557 4.625 6.6432 4.625 7.9889-4.319 7.9889-4.319l-3.9761-1.223-1.517-10.644" fill="#f4caab"/><path d="m82.854 138.866c-.3685 2.526-.3396 5.093.0857 7.61.2225 1.255.7326 2.442 1.4903 3.467.7578 1.025 1.7425 1.861 2.8773 2.442 1.0768.421 2.2206.645 3.3766.661 1.9411.219 3.8977-.248 5.5298-1.322.8624-.749 1.5284-1.699 1.9399-2.765.4116-1.066.5562-2.217.4214-3.352-.2799-2.245-.9202-4.43-1.8964-6.471-.8156-1.942-1.6312-3.887-2.4468-5.836" fill="#f4caab"/><path d="m73.4217 148.96c-.932.876-1.5942 2.001-1.9085 3.242-.0428.631.109 1.261.4349 1.803.326.543.8104.972 1.388 1.231.977.345 2.0281.425 3.0463.232 1.1798-.11 2.3691-.061 3.5357.147.9909.196 1.933.551 2.9117.832 1.4224.448 2.9261.578 4.4043.379.1281-.005.2533-.04.3658-.101.1124-.062.2092-.148.2826-.254.0433-.134.0549-.278.0336-.418-.0212-.14-.0746-.273-.1559-.389-.7849-1.976-1.0462-4.121-.7586-6.227.0708-1.087.247-2.165.5261-3.218.2652-.872.5965-1.723.991-2.545.7218-1.578 1.6149-3.095 2.3-4.685.6851-1.591 1.0766-4.05 3.3032-3.67 1.4314.208 2.0432 2.52 2.9974 3.927 1.407-1.615 2.9977-2.594 0-6.423-1.5048-1.909-4.074-1.811-6.3495-1.395-1.2234-.086-1.2234-.587-2.4469-.673-2.1766-.032-4.3181.551-6.1775 1.683-1.8594 1.133-3.361 2.767-4.3316 4.716-2.0798 4.208-1.6027 8.319-4.3921 11.806z" fill="#4a578e"/><path d="m87.7723 150.367c-.3214-.024-.6404-.073-.9542-.147-.9748-.217-1.8415-.771-2.4469-1.566-.2265-.288-.3628-.637-.3915-1.003 0-.019.0039-.038.0112-.056.0074-.018.0182-.034.0318-.048.0137-.013.0299-.024.0477-.031.0178-.008.0369-.012.0562-.012s.0383.004.0561.012c.0178.007.034.018.0477.031.0136.014.0244.03.0318.048s.0112.037.0112.056c.0282.306.1475.595.3425.832.5586.735 1.3611 1.247 2.2634 1.444.8975.181 1.8165.23 2.7282.147.0393.002.0767.018.1056.045.029.026.0479.062.0534.101 0 .02-.0038.039-.0111.057-.0074.017-.0183.034-.0319.047-.0136.014-.0298.025-.0476.032s-.0369.011-.0562.011c-.6148.049-1.2325.049-1.8474 0z" fill="#081466"/><path d="m90.2803 149.792c-.2676-.104-.5643-.104-.8319 0-.9298.306.0856 1.493.9298.881.072-.045.1311-.108.1713-.183.0302-.064.0471-.132.0498-.202.0028-.07-.0088-.14-.034-.205s-.0635-.125-.1125-.175-.1077-.089-.1725-.116z" fill="#081466"/><path d="m81.5208 140.445c.2286-2.166 1.031-4.231 2.3244-5.983 1.6517-2.055 3.8661-3.756 5.9826-3.756.9037-.038 1.8061.103 2.6548.416-2.2156.511-4.2271 1.674-5.7746 3.34-1.7353 1.808-2.7305 4.2-2.7894 6.705" fill="#081466"/><path d="m86.8671 143.846c.0198.761-.1829 1.512-.5831 2.16-.4001.647-.9805 1.164-1.67 1.487-.6894.323-1.4581.438-2.2118.331-.7538-.108-1.4599-.432-2.032-.935-.5721-.502-.9852-1.16-1.1889-1.894-.2037-.733-.1891-1.511.0421-2.236s.6688-1.368 1.2594-1.848c.5906-.481 1.3084-.778 2.0657-.857 1.075-.067 2.1328.294 2.9421 1.005.8093.71 1.3042 1.713 1.3765 2.787z" fill="#081466"/><path d="m85.0686 144.25c.0785.354.0813.72.0082 1.075s-.2204.69-.4323.984-.4835.54-.797.721c-.3136.181-.6619.295-1.0223.332s-.7245-.002-1.0686-.115c-.3441-.114-.6604-.299-.928-.543s-.4805-.542-.6248-.874c-.1443-.333-.2167-.692-.2124-1.054-.0785-.354-.0812-.72-.0082-1.075.0731-.355.2205-.69.4323-.984.2119-.294.4835-.539.797-.721.3136-.181.662-.295 1.0223-.332.3604-.037.7245.002 1.0686.115.3441.114.6604.299.928.543s.4805.542.6248.874c.1443.333.2167.692.2124 1.054z" fill="url(#ah)"/><path d="m326.828 43.2568-6.117 2.5692c-.156.0665-.292.1714-.397.305-.104.1335-.173.2914-.2.4588-.027.1673-.011.3388.046.4983.058.1596.155.302.282.414l4.416 3.7681c.128.1088.282.1838.446.218s.335.0267.495-.022c.161-.0487.307-.137.425-.2567.118-.1198.203-.2672.249-.4287l1.738-6.374c.048-.1827.044-.3755-.014-.5556-.057-.1801-.165-.34-.31-.4609-.146-.1209-.323-.1977-.51-.2214-.188-.0236-.378.0069-.549.0879z" stroke="#cfe0f5" stroke-miterlimit="10"/><path d="m62.6067 123.525 1.7984 6.411c.0452.164.1317.313.2513.434.1197.121.2683.208.4317.255s.3361.051.5014.011c.1654-.039.3178-.12.4427-.235l4.3064-3.903c.1238-.114.2169-.257.2708-.417.0539-.159.0668-.329.0375-.495-.0292-.166-.0996-.322-.2048-.453s-.2417-.234-.3971-.299l-6.1171-2.447c-.1669-.063-.348-.081-.524-.05s-.3404.109-.4758.225c-.1354.117-.2368.268-.2934.437-.0566.17-.0662.352-.028.526z" stroke="#cfe0f5" stroke-miterlimit="10"/><path d="m453.587 200.527 4.722-4.698c.119-.12.205-.269.252-.431.046-.163.05-.335.013-.499-.038-.165-.117-.318-.23-.444-.112-.126-.255-.222-.414-.278l-5.518-1.847c-.159-.053-.329-.065-.494-.035-.164.031-.319.102-.448.209-.13.106-.23.244-.292.399-.062.156-.084.325-.063.491l.783 6.545c.021.186.094.362.211.508.116.146.272.256.448.318.177.061.367.071.549.029s.349-.135.481-.267z" stroke="#cfe0f5" stroke-miterlimit="10"/><path d="m431.467 127.709 1.737 6.435c.047.163.134.311.253.431s.267.208.43.256c.162.047.334.053.499.017.165-.037.318-.115.446-.227l4.343-3.866c.124-.111.218-.253.273-.411s.069-.327.041-.492-.098-.32-.202-.451-.239-.233-.394-.297l-6.117-2.569c-.169-.06-.352-.073-.528-.038-.176.036-.34.117-.474.238-.134.12-.233.273-.287.445-.054.171-.061.354-.02.529z" stroke="#cfe0f5" stroke-miterlimit="10"/><g fill="#cfe0f5"><path d="m411.162 114.531-3.023 2.31 2.31 3.023 3.023-2.31z"/><path d="m383.72 88.3883-3.801.1693.169 3.8011 3.802-.1693z"/><path d="m139.125 137.73-3.545 1.381 1.381 3.545 3.545-1.381z"/><path d="m174.688 46.6427-3.539-1.3698-1.37 3.5385 3.539 1.3698z"/><path d="m27.2291 235.009-3.8011.17.1693 3.801 3.801-.17z"/></g></svg>