<svg fill="none" height="231" viewBox="0 0 473 231" width="473" xmlns="http://www.w3.org/2000/svg" xmlns:xlink="http://www.w3.org/1999/xlink"><linearGradient id="a"><stop offset="0" stop-color="#f8db8b"/><stop offset="1" stop-color="#68b790"/></linearGradient><linearGradient id="b" gradientUnits="userSpaceOnUse" x1="362.015" x2="395.729" xlink:href="#a" y1="52.553" y2="53.3756"/><linearGradient id="c" gradientUnits="userSpaceOnUse" x1="313.531" x2="473.963" xlink:href="#a" y1="97.5209" y2="107.29"/><linearGradient id="d" gradientUnits="userSpaceOnUse" x1="306.321" x2="495.321" xlink:href="#a" y1="149.542" y2="173.211"/><linearGradient id="e" gradientUnits="userSpaceOnUse" x1="94.5966" x2="111.929" xlink:href="#a" y1="56.001" y2="56.2111"/><linearGradient id="f" gradientUnits="userSpaceOnUse" x1="28.9316" x2="141.016" xlink:href="#a" y1="97.0226" y2="101.293"/><linearGradient id="g" gradientUnits="userSpaceOnUse" x1="-13.8646" x2="147.441" xlink:href="#a" y1="149.332" y2="163.479"/><path d="m308.061 214.574-.868-1.001c41.078-43.787 58.218-110.783 58.375-111.458l1.326.181c-.169.675-17.417 68.129-58.833 112.278z" fill="#223242"/><path d="m364.893 103.706s2.41-42.6297 13.716-71.5762c3.435-8.7459 7.676-17.1531 12.668-25.11271 0 0 1.941 53.22731-26.384 96.68891z" fill="url(#b)"/><path d="m391.278 7.01709c-6.889 14.17961-10.67 29.66761-11.089 45.42711-.422 25.3176 3.17 44.1009-28.675 79.4368 0 0 16.609-93.6147 39.764-124.86391z" fill="#223242"/><path d="m328.504 195.357c-3.905-1.519 1.687-26.102 13.102-48.225 13.066-25.317 22.902-26.318 36.474-52.2986 12.379-23.6419 7.123-28.2714 17.706-44.8605 20.021-31.406 56.591-42.60601 57.543-38.8445.579 2.2424-12.053 7.9931-20.732 24.3411-10.004 18.7471-2.41 28.0544-8.979 46.6448-7.462 21.3147-22.239 22.9067-51.336 55.6627-28.784 32.383-43.778 57.58-43.778 57.58z" fill="url(#c)"/><g fill="#223242"><path d="m328.504 195.357s43.766-38.929 86.652-98.4981c0 0-52.806 34.5401-86.652 98.4981z"/><path d="m319.428 216.696c2.724-14.202 10.751-29.019 10.848-29.176 11.426-29.031 25.734-52.733 42.488-70.335 1.567-1.652 3.182-3.267 4.821-4.907 7.715-7.752 15.67-15.781 21.697-29.1632 2.474-5.6184 4.239-11.5231 5.255-17.5777.909-5.7341 2.613-11.3135 5.062-16.577 6.027-12.7553 16.815-24.1121 32.038-33.6364l.518 1.29c-14.922 9.3917-25.468 20.4953-31.338 32.8648-2.377 5.1239-4.032 10.5525-4.918 16.1309-1.034 6.197-2.84 12.24-5.376 17.9877-6.099 13.7077-14.199 21.8459-22.034 29.7179-1.615 1.64-3.218 3.255-4.821 4.883-16.573 17.433-30.76 40.93-42.187 69.84-.132.254-8.015 14.817-10.691 28.73z"/><path d="m322.694 206.255s61.352-46.729 107.107-71.383l-39.499 3.158-44.043 34.963z"/></g><path d="m322.694 206.255c10.427-21.569 21.395-34.433 29.423-42.197 11.595-11.188 18.176-12.731 33.629-28.054 13.765-13.659 15.669-19.555 22.732-25.969 10.957-10.006 29.845-17.2398 64.522-3.002-3.854-1.099-7.98-.707-11.559 1.097-6.171 3.014-24.926 28.417-44.718 31.889s-39.463 6.028-61.472 28.512c-22.01 22.485-32.557 37.724-32.557 37.724z" fill="url(#d)"/><path d="m317.053 217.588-1.133-.639 6.195-11.007c19.009-33.757 43.827-49.804 67.825-65.332 9.126-5.665 17.945-11.81 26.421-18.409 28.796-23.2685 44.296-17.807 44.935-17.554l-.627 1.447c-.156-.06-15.549-5.401-43.621 17.288-8.509 6.632-17.361 12.813-26.517 18.518-23.818 15.408-48.455 31.346-67.222 64.681z" fill="#223242"/><path d="m139.928 228.957 1.049-.808c-31.424-51.166-34.726-120.235-34.762-120.922l-1.326-.097c.024.7 3.351 70.239 35.039 121.827z" fill="#223242"/><path d="m106.565 108.915s6.231-42.1963.976-72.8789c-1.605-9.2557-4.07-18.3412-7.365-27.13815 0 0-12.6075 51.73245 6.389 100.01705z" fill="url(#e)"/><path d="m100.176 8.89795c3.901 15.27505 4.488 31.20815 1.723 46.72915-4.7006 24.9318-11.9808 42.5578 12.054 83.5719.048 0 2.615-95.0251-13.777-130.30105z" fill="#223242"/><path d="m123.764 206.014c4.134-.699 3.616-25.908-3.134-49.876-7.702-27.415-17.104-30.381-25.2037-58.5678-7.3647-25.6432-1.2777-29.1274-8.3048-47.5008-13.2588-34.8057-46.8517-53.14296-48.5512-49.646707-1.0125 2.085697 10.1611 10.247607 15.4163 28.018207 6.0267 20.3868-3.2423 27.9821-.6026 47.5008 3.0254 22.376 17.1761 26.9213 39.0892 64.8613 21.6718 37.519 31.2908 65.211 31.2908 65.211z" fill="url(#f)"/><path d="m123.764 206.014s-35.027-46.946-65.0882-113.9295c.0361 0 44.8022 44.4745 65.0882 113.9295z" fill="#223242"/><path d="m128.357 228.752c.193-14.467-4.689-30.586-4.737-30.743-5.339-30.743-14.597-56.844-27.4575-77.46-1.2054-1.929-2.4107-3.846-3.7245-5.775-6.0267-9.15-12.1981-18.6142-15.332-32.9247-1.2965-5.9972-1.8351-12.1335-1.6031-18.2649.2561-5.8023-.2915-11.6121-1.6272-17.2642-3.3508-13.6957-11.6315-26.9573-24.6131-39.38709l-.7714 1.2056c12.7284 12.20069 20.8404 25.14889 24.1068 38.50699 1.2912 5.4994 1.8185 11.1506 1.567 16.794-.2354 6.2776.3194 12.5599 1.6513 18.6989 3.2062 14.6481 9.5102 24.2564 15.5971 33.5524 1.2656 1.929 2.5071 3.821 3.7004 5.738 12.7522 20.363 21.9012 46.235 27.2162 76.845.073.278 4.822 16.131 4.689 30.297z" fill="#223242"/><path d="m127.272 217.902s-50.7448-58.159-90.521-91.53l38.0526 11.043 36.1604 43.161z" fill="#223242"/><path d="m127.272 217.901c-5.882-23.232-14.03-38.037-20.334-47.223-9.1126-13.262-15.2598-16.131-27.3011-34.251-10.7396-16.156-11.4508-22.316-17.0436-30.008-8.7146-12.056-25.7701-22.9064-62.5933-15.938 3.99631-.3046 7.96046.9095 11.1012 3.3998 5.424 4.1955 18.6948 32.8522 37.3655 40.2432 18.6708 7.39 37.462 13.852 54.4813 40.267 17.02 26.415 24.324 43.51 24.324 43.51z" fill="url(#g)"/><path d="m130.502 230.102 1.205-.398-3.857-12.056c-11.824-36.879-32.8935-57.603-53.2879-77.64-7.7845-7.4-15.1754-15.203-22.1421-23.377-23.5162-28.597-39.7762-26.3667-40.4874-26.2582l.3254 1.5432c.1567 0 16.3204-2.158 39.246 25.728 7.0167 8.213 14.4599 16.052 22.2988 23.485 20.2256 19.88 41.1502 40.448 52.8302 76.893z" fill="#223242"/></svg>