<svg fill="none" height="211" viewBox="0 0 166 211" width="166" xmlns="http://www.w3.org/2000/svg" xmlns:xlink="http://www.w3.org/1999/xlink"><linearGradient id="a"><stop offset="0" stop-color="#f8db8b"/><stop offset="1" stop-color="#68b790"/></linearGradient><linearGradient id="b" gradientUnits="userSpaceOnUse" x1="55.0162" x2="88.7298" xlink:href="#a" y1="45.553" y2="46.3756"/><linearGradient id="c" gradientUnits="userSpaceOnUse" x1="6.5306" x2="166.963" xlink:href="#a" y1="90.5209" y2="100.29"/><linearGradient id="d" gradientUnits="userSpaceOnUse" x1="-.679486" x2="188.321" xlink:href="#a" y1="142.542" y2="166.211"/><path d="m1.06121 207.574-.867851-1.001c41.078041-43.787 58.218041-110.7826 58.374741-111.4578l1.3259.1809c-.1688.6751-17.4172 68.1289-58.83279 112.2779z" fill="#223242"/><path d="m57.8936 96.7064s2.4106-42.6301 13.7167-71.5766c3.4346-8.7459 7.6756-17.15308 12.6681-25.1127102 0 0 1.9406 53.2273102-26.3848 96.6893102z" fill="url(#b)"/><path d="m84.2778.0170898c-6.8889 14.1796102-10.6697 29.6676102-11.0892 45.4271102-.4218 25.3176 3.1701 44.1009-28.6749 79.4368 0 0 16.6095-93.6147 39.7641-124.8639102z" fill="#223242"/><path d="m21.5039 188.357c-3.9053-1.519 1.6876-26.102 13.1021-48.225 13.066-25.317 22.9015-26.318 36.4737-52.2986 12.3788-23.6419 7.1236-28.2714 17.7065-44.8605 20.0208-31.406 56.5908-42.606015 57.5428-38.84453.579 2.24242-12.053 7.99313-20.732 24.34113-10.004 18.7471-2.41 28.0544-8.979 46.6448-7.462 21.3151-22.2391 22.9065-51.336 55.6627-28.7836 32.383-43.7781 57.58-43.7781 57.58z" fill="url(#c)"/><g fill="#223242"><path d="m21.5039 188.357s43.7659-38.929 86.6521-98.4981c0 0-52.8061 34.5401-86.6521 98.4981z"/><path d="m12.4277 209.696c2.7241-14.202 10.7517-29.019 10.8481-29.176 11.4266-29.031 25.734-52.733 42.4882-70.335 1.567-1.652 3.1821-3.267 4.8214-4.907 7.7142-7.7516 15.6694-15.781 21.6961-29.1632 2.4741-5.6184 4.2395-11.5231 5.2553-17.5777.9091-5.7341 2.6132-11.3135 5.0622-16.577 6.027-12.7553 16.815-24.1121 32.038-33.63637l.518 1.28999c-14.922 9.39168-25.468 20.49528-31.338 32.86478-2.377 5.1239-4.0319 10.5525-4.9181 16.1309-1.0335 6.197-2.8396 12.24-5.3759 17.9877-6.099 13.7077-14.1989 21.8455-22.0336 29.7179-1.6152 1.64-3.2183 3.255-4.8214 4.883-16.5734 17.433-30.7602 40.93-42.1869 69.84-.1326.254-8.0155 14.817-10.6913 28.73z"/><path d="m15.6943 199.255s61.3519-46.729 107.1067-71.384l-39.4991 3.159-44.0432 34.962z"/></g><path d="m15.6943 199.255c10.4262-21.569 21.3948-34.433 29.4224-42.197 11.5954-11.188 18.1765-12.731 33.629-28.054 13.765-13.659 15.6694-19.555 22.7323-25.969 10.957-10.0062 29.845-17.2398 64.522-3.002-3.854-1.0986-7.98-.707-11.559 1.097-6.171 3.014-24.926 28.417-44.718 31.889-19.7917 3.472-39.4629 6.028-61.4724 28.512-22.0096 22.485-32.5563 37.724-32.5563 37.724z" fill="url(#d)"/><path d="m10.0529 210.587-1.13298-.638 6.19548-11.008c19.0082-33.757 43.8262-49.803 67.8245-65.331 9.1259-5.666 17.9451-11.811 26.4211-18.41 28.796-23.2679 44.296-17.8066 44.935-17.5534l-.627 1.4467c-.156-.0602-15.549-5.4011-43.621 17.2887-8.509 6.632-17.3607 12.813-26.5174 18.518-23.8176 15.407-48.4548 31.345-67.2219 64.68z" fill="#223242"/></svg>